  0
SECTION
  2
HEADER
  9
$ANGBASE
  50
0.0
  9
$ANGDIR
  70
1
  9
$MEASUREMENT
  70
1
  0
ENDSEC
  0
SECTION
  2
TABLES
  0
TABLE
  2
LTYPE
  70
4
  0
LTYPE
  5
40F
  2
CONTINUOUS
  70
0
  3
Solid line
  72
65
  73
0
  40
0.0
  0
LTYPE
  5
410
  2
DASHDOT
 70
0
  3
Dash Dot ____ _ ____ _
 72
65
 73
4
 40
2.0
 49
1.25
 49
-0.25
 49
0.25
 49
-0.25
  0
LTYPE
  5
411
  2
DASHED
 70
0
  3
Dashed __ __ __ __ __
 72
65
 73
2
 40
0.75
 49
0.5
 49
-0.25
  0
LTYPE
  5
43B
  2
DOTTED
 70
0
  3
Dotted .  .  .  .
 72
65
 73
2
 40
0.2
 49
0.0
 49
-0.2
  0
ENDTAB
  0
TABLE
  2
STYLE
  70
4
  0
STYLE
  2
KICAD
  70
0
  40
0
  41
1
  42
1
  50
0
  71
0
  3
isocp.shx
  0
STYLE
  2
KICADB
  70
0
  40
0
  41
1
  42
1
  50
0
  71
0
  3
isocp.shx
  0
STYLE
  2
KICADI
  70
0
  40
0
  41
1
  42
1
  50
15
  71
0
  3
isocp.shx
  0
STYLE
  2
KICADBI
  70
0
  40
0
  41
1
  42
1
  50
15
  71
0
  3
isocp.shx
  0
ENDTAB
  0
TABLE
  2
LAYER
  70
1
  0
LAYER
  2
BLACK
  70
0
  62
7
  6
CONTINUOUS
  0
ENDTAB
  0
ENDSEC
  0
SECTION
  2
ENTITIES
0
LINE
8
BLACK
6
CONTINUOUS
10
169.9513199999999813
20
-228.3180069999999944
11
167.2799939999999879
21
-242.0607869999999764
0
LINE
8
BLACK
6
CONTINUOUS
10
167.2799939999999879
20
-242.0607869999999764
11
153.5372140000000059
21
-239.389460999999983
0
LINE
8
BLACK
6
CONTINUOUS
10
153.5372140000000059
20
-239.389460999999983
11
156.2085399999999993
21
-225.6466810000000009
0
LINE
8
BLACK
6
CONTINUOUS
10
156.2085399999999993
20
-225.6466810000000009
11
169.9513199999999813
21
-228.3180069999999944
0
LINE
8
BLACK
6
CONTINUOUS
10
182.6735099999999932
20
-162.8680139999999881
11
180.0021839999999997
21
-176.6107939999999985
0
LINE
8
BLACK
6
CONTINUOUS
10
180.0021839999999997
20
-176.6107939999999985
11
166.2594039999999893
21
-173.9394680000000051
0
LINE
8
BLACK
6
CONTINUOUS
10
166.2594039999999893
20
-173.9394680000000051
11
168.9307299999999827
21
-160.1966879999999946
0
LINE
8
BLACK
6
CONTINUOUS
10
168.9307299999999827
20
-160.1966879999999946
11
182.6735099999999932
21
-162.8680139999999881
0
LINE
8
BLACK
6
CONTINUOUS
10
226.0513139999999908
20
-239.222740999999985
11
223.3799879999999973
21
-252.9655209999999954
0
LINE
8
BLACK
6
CONTINUOUS
10
223.3799879999999973
20
-252.9655209999999954
11
209.6372079999999869
21
-250.294195000000002
0
LINE
8
BLACK
6
CONTINUOUS
10
209.6372079999999869
20
-250.294195000000002
11
212.3085339999999803
21
-236.5514149999999916
0
LINE
8
BLACK
6
CONTINUOUS
10
212.3085339999999803
20
-236.5514149999999916
11
226.0513139999999908
21
-239.222740999999985
0
LINE
8
BLACK
6
CONTINUOUS
10
163.1961450000000013
20
-188.1918269999999893
11
160.5248189999999795
21
-201.9346069999999997
0
LINE
8
BLACK
6
CONTINUOUS
10
160.5248189999999795
20
-201.9346069999999997
11
146.7820389999999975
21
-199.2632809999999779
0
LINE
8
BLACK
6
CONTINUOUS
10
146.7820389999999975
20
-199.2632809999999779
11
149.4533649999999909
21
-185.5205009999999959
0
LINE
8
BLACK
6
CONTINUOUS
10
149.4533649999999909
20
-185.5205009999999959
11
163.1961450000000013
21
-188.1918269999999893
0
LINE
8
BLACK
6
CONTINUOUS
10
292.3282659999999851
20
-212.8941989999999862
11
278.5854860000000031
21
-215.5655249999999796
0
LINE
8
BLACK
6
CONTINUOUS
10
278.5854860000000031
20
-215.5655249999999796
11
275.9141599999999812
21
-201.8227449999999976
0
LINE
8
BLACK
6
CONTINUOUS
10
275.9141599999999812
20
-201.8227449999999976
11
289.6569399999999632
21
-199.1514190000000042
0
LINE
8
BLACK
6
CONTINUOUS
10
289.6569399999999632
20
-199.1514190000000042
11
292.3282659999999851
21
-212.8941989999999862
0
LINE
8
BLACK
6
CONTINUOUS
10
250.4663989999999956
20
-263.3751059999999597
11
247.7950730000000021
21
-277.1178859999999986
0
LINE
8
BLACK
6
CONTINUOUS
10
247.7950730000000021
20
-277.1178859999999986
11
234.0522929999999917
21
-274.4465599999999768
0
LINE
8
BLACK
6
CONTINUOUS
10
234.0522929999999917
20
-274.4465599999999768
11
236.7236189999999851
21
-260.7037799999999947
0
LINE
8
BLACK
6
CONTINUOUS
10
236.7236189999999851
20
-260.7037799999999947
11
250.4663989999999956
21
-263.3751059999999597
0
LINE
8
BLACK
6
CONTINUOUS
10
194.3664059999999836
20
-252.4703710000000001
11
191.6950799999999902
21
-266.2131509999999821
0
LINE
8
BLACK
6
CONTINUOUS
10
191.6950799999999902
20
-266.2131509999999821
11
177.9522999999999797
21
-263.5418249999999603
0
LINE
8
BLACK
6
CONTINUOUS
10
177.9522999999999797
20
-263.5418249999999603
11
180.6236260000000016
21
-249.7990449999999782
0
LINE
8
BLACK
6
CONTINUOUS
10
180.6236260000000016
20
-249.7990449999999782
11
194.3664059999999836
21
-252.4703710000000001
0
LINE
8
BLACK
6
CONTINUOUS
10
381.6679019999999696
20
-273.1545449999999846
11
367.9251219999999876
21
-275.8258710000000065
0
LINE
8
BLACK
6
CONTINUOUS
10
367.9251219999999876
20
-275.8258710000000065
11
365.2537959999999657
21
-262.0830909999999676
0
LINE
8
BLACK
6
CONTINUOUS
10
365.2537959999999657
20
-262.0830909999999676
11
378.9965760000000046
21
-259.4117650000000026
0
LINE
8
BLACK
6
CONTINUOUS
10
378.9965760000000046
20
-259.4117650000000026
11
381.6679019999999696
21
-273.1545449999999846
0
LINE
8
BLACK
6
CONTINUOUS
10
313.6230869999999982
20
-247.5680109999999843
11
299.8803069999999593
21
-250.2393369999999777
0
LINE
8
BLACK
6
CONTINUOUS
10
299.8803069999999593
20
-250.2393369999999777
11
297.2089809999999943
21
-236.4965569999999957
0
LINE
8
BLACK
6
CONTINUOUS
10
297.2089809999999943
20
-236.4965569999999957
11
310.9517609999999763
21
-233.8252310000000023
0
LINE
8
BLACK
6
CONTINUOUS
10
310.9517609999999763
20
-233.8252310000000023
11
313.6230869999999982
21
-247.5680109999999843
0
LINE
8
BLACK
6
CONTINUOUS
10
145.2789109999999937
20
-242.9287289999999757
11
142.6075850000000003
21
-256.6715090000000146
0
LINE
8
BLACK
6
CONTINUOUS
10
142.6075850000000003
20
-256.6715090000000146
11
128.8648049999999898
21
-254.0001829999999927
0
LINE
8
BLACK
6
CONTINUOUS
10
128.8648049999999898
20
-254.0001829999999927
11
131.5361309999999833
21
-240.2574029999999823
0
LINE
8
BLACK
6
CONTINUOUS
10
131.5361309999999833
20
-240.2574029999999823
11
145.2789109999999937
21
-242.9287289999999757
0
LINE
8
BLACK
6
CONTINUOUS
10
132.2940009999999802
20
-259.8112709999999765
11
129.6226749999999868
21
-273.5540510000000154
0
LINE
8
BLACK
6
CONTINUOUS
10
129.6226749999999868
20
-273.5540510000000154
11
115.8798949999999905
21
-270.8827249999999935
0
LINE
8
BLACK
6
CONTINUOUS
10
115.8798949999999905
20
-270.8827249999999935
11
118.5512209999999982
21
-257.1399450000000115
0
LINE
8
BLACK
6
CONTINUOUS
10
118.5512209999999982
20
-257.1399450000000115
11
132.2940009999999802
21
-259.8112709999999765
0
LINE
8
BLACK
6
CONTINUOUS
10
345.3079950000000053
20
-260.8156419999999684
11
331.5652149999999665
21
-263.4869679999999903
0
LINE
8
BLACK
6
CONTINUOUS
10
331.5652149999999665
20
-263.4869679999999903
11
328.8938890000000015
21
-249.7441879999999799
0
LINE
8
BLACK
6
CONTINUOUS
10
328.8938890000000015
20
-249.7441879999999799
11
342.6366689999999835
21
-247.0728619999999864
0
LINE
8
BLACK
6
CONTINUOUS
10
342.6366689999999835
20
-247.0728619999999864
11
345.3079950000000053
21
-260.8156419999999684
0
LINE
8
BLACK
6
CONTINUOUS
10
369.7230799999999817
20
-236.6632769999999937
11
355.9802999999999997
21
-239.3346029999999871
0
LINE
8
BLACK
6
CONTINUOUS
10
355.9802999999999997
20
-239.3346029999999871
11
353.3089739999999779
21
-225.5918229999999767
0
LINE
8
BLACK
6
CONTINUOUS
10
353.3089739999999779
20
-225.5918229999999767
11
367.0517539999999599
21
-222.9204969999999832
0
LINE
8
BLACK
6
CONTINUOUS
10
367.0517539999999599
20
-222.9204969999999832
11
369.7230799999999817
21
-236.6632769999999937
0
LINE
8
BLACK
6
CONTINUOUS
10
418.8105749999999716
20
-227.1216349999999977
11
405.0677949999999896
21
-229.7929609999999911
0
LINE
8
BLACK
6
CONTINUOUS
10
405.0677949999999896
20
-229.7929609999999911
11
402.3964689999999678
21
-216.0501809999999807
0
LINE
8
BLACK
6
CONTINUOUS
10
402.3964689999999678
20
-216.0501809999999807
11
416.1392490000000066
21
-213.3788549999999873
0
LINE
8
BLACK
6
CONTINUOUS
10
416.1392490000000066
20
-213.3788549999999873
11
418.8105749999999716
21
-227.1216349999999977
0
LINE
8
BLACK
6
CONTINUOUS
10
476.217647999999997
20
-262.9565529999999853
11
490.217647999999997
21
-262.9565529999999853
0
LINE
8
BLACK
6
CONTINUOUS
10
490.217647999999997
20
-262.9565529999999853
11
490.217647999999997
21
-248.9565529999999853
0
LINE
8
BLACK
6
CONTINUOUS
10
490.217647999999997
20
-248.9565529999999853
11
476.217647999999997
21
-248.9565529999999853
0
LINE
8
BLACK
6
CONTINUOUS
10
476.217647999999997
20
-248.9565529999999853
11
476.217647999999997
21
-262.9565529999999853
0
LINE
8
BLACK
6
CONTINUOUS
10
237.9961359999999786
20
-202.731472999999994
11
235.3248099999999852
21
-216.4742529999999761
0
LINE
8
BLACK
6
CONTINUOUS
10
235.3248099999999852
20
-216.4742529999999761
11
221.5820300000000032
21
-213.8029269999999826
0
LINE
8
BLACK
6
CONTINUOUS
10
221.5820300000000032
20
-213.8029269999999826
11
224.2533559999999966
21
-200.0601470000000006
0
LINE
8
BLACK
6
CONTINUOUS
10
224.2533559999999966
20
-200.0601470000000006
11
237.9961359999999786
21
-202.731472999999994
0
LINE
8
BLACK
6
CONTINUOUS
10
361.4131689999999821
20
-218.8720069999999964
11
347.6703890000000001
21
-221.5433329999999899
0
LINE
8
BLACK
6
CONTINUOUS
10
347.6703890000000001
20
-221.5433329999999899
11
344.9990629999999783
21
-207.8005529999999794
0
LINE
8
BLACK
6
CONTINUOUS
10
344.9990629999999783
20
-207.8005529999999794
11
358.7418429999999603
21
-205.129226999999986
0
LINE
8
BLACK
6
CONTINUOUS
10
358.7418429999999603
20
-205.129226999999986
11
361.4131689999999821
21
-218.8720069999999964
0
LINE
8
BLACK
6
CONTINUOUS
10
213.0664029999999798
20
-256.1052829999999858
11
210.3950769999999864
21
-269.8480629999999678
0
LINE
8
BLACK
6
CONTINUOUS
10
210.3950769999999864
20
-269.8480629999999678
11
196.6522970000000043
21
-267.1767370000000028
0
LINE
8
BLACK
6
CONTINUOUS
10
196.6522970000000043
20
-267.1767370000000028
11
199.3236229999999978
21
-253.4339569999999924
0
LINE
8
BLACK
6
CONTINUOUS
10
199.3236229999999978
20
-253.4339569999999924
11
213.0664029999999798
21
-256.1052829999999858
0
LINE
8
BLACK
6
CONTINUOUS
10
364.007992999999999
20
-257.1807309999999802
11
350.2652129999999602
21
-259.8520570000000021
0
LINE
8
BLACK
6
CONTINUOUS
10
350.2652129999999602
20
-259.8520570000000021
11
347.5938869999999952
21
-246.1092769999999916
0
LINE
8
BLACK
6
CONTINUOUS
10
347.5938869999999952
20
-246.1092769999999916
11
361.3366669999999772
21
-243.4379509999999982
0
LINE
8
BLACK
6
CONTINUOUS
10
361.3366669999999772
20
-243.4379509999999982
11
364.007992999999999
21
-257.1807309999999802
0
LINE
8
BLACK
6
CONTINUOUS
10
187.6112299999999777
20
-212.3441919999999925
11
184.9399039999999843
21
-226.0869720000000029
0
LINE
8
BLACK
6
CONTINUOUS
10
184.9399039999999843
20
-226.0869720000000029
11
171.1971240000000023
21
-223.4156459999999811
0
LINE
8
BLACK
6
CONTINUOUS
10
171.1971240000000023
20
-223.4156459999999811
11
173.8684499999999957
21
-209.6728659999999991
0
LINE
8
BLACK
6
CONTINUOUS
10
173.8684499999999957
20
-209.6728659999999991
11
187.6112299999999777
21
-212.3441919999999925
0
LINE
8
BLACK
6
CONTINUOUS
10
243.7112229999999897
20
-223.2489259999999831
11
241.0398969999999963
21
-236.9917059999999935
0
LINE
8
BLACK
6
CONTINUOUS
10
241.0398969999999963
20
-236.9917059999999935
11
227.2971169999999859
21
-234.3203800000000001
0
LINE
8
BLACK
6
CONTINUOUS
10
227.2971169999999859
20
-234.3203800000000001
11
229.9684429999999793
21
-220.5775999999999897
0
LINE
8
BLACK
6
CONTINUOUS
10
229.9684429999999793
20
-220.5775999999999897
11
243.7112229999999897
21
-223.2489259999999831
0
LINE
8
BLACK
6
CONTINUOUS
10
457.1676479999999856
20
-262.9565529999999853
11
471.1676479999999856
21
-262.9565529999999853
0
LINE
8
BLACK
6
CONTINUOUS
10
471.1676479999999856
20
-262.9565529999999853
11
471.1676479999999856
21
-248.9565529999999853
0
LINE
8
BLACK
6
CONTINUOUS
10
471.1676479999999856
20
-248.9565529999999853
11
457.1676479999999856
21
-248.9565529999999853
0
LINE
8
BLACK
6
CONTINUOUS
10
457.1676479999999856
20
-248.9565529999999853
11
457.1676479999999856
21
-262.9565529999999853
0
LINE
8
BLACK
6
CONTINUOUS
10
181.8961419999999976
20
-191.8267390000000034
11
179.2248160000000041
21
-205.5695189999999855
0
LINE
8
BLACK
6
CONTINUOUS
10
179.2248160000000041
20
-205.5695189999999855
11
165.4820359999999937
21
-202.898192999999992
0
LINE
8
BLACK
6
CONTINUOUS
10
165.4820359999999937
20
-202.898192999999992
11
168.1533619999999871
21
-189.1554129999999816
0
LINE
8
BLACK
6
CONTINUOUS
10
168.1533619999999871
20
-189.1554129999999816
11
181.8961419999999976
21
-191.8267390000000034
0
LINE
8
BLACK
6
CONTINUOUS
10
201.3735079999999869
20
-166.5029260000000022
11
198.7021819999999934
21
-180.2457059999999842
0
LINE
8
BLACK
6
CONTINUOUS
10
198.7021819999999934
20
-180.2457059999999842
11
184.959401999999983
21
-177.5743799999999908
0
LINE
8
BLACK
6
CONTINUOUS
10
184.959401999999983
20
-177.5743799999999908
11
187.6307280000000048
21
-163.8315999999999804
0
LINE
8
BLACK
6
CONTINUOUS
10
187.6307280000000048
20
-163.8315999999999804
11
201.3735079999999869
21
-166.5029260000000022
0
LINE
8
BLACK
6
CONTINUOUS
10
307.9079989999999611
20
-268.0854649999999992
11
294.1652189999999791
21
-270.7567909999999642
0
LINE
8
BLACK
6
CONTINUOUS
10
294.1652189999999791
20
-270.7567909999999642
11
291.4938930000000141
21
-257.0140109999999822
0
LINE
8
BLACK
6
CONTINUOUS
10
291.4938930000000141
20
-257.0140109999999822
11
305.2366729999999961
21
-254.3426849999999888
0
LINE
8
BLACK
6
CONTINUOUS
10
305.2366729999999961
20
-254.3426849999999888
11
307.9079989999999611
21
-268.0854649999999992
0
LINE
8
BLACK
6
CONTINUOUS
10
348.4282589999999686
20
-201.9894649999999956
11
334.6854789999999866
21
-204.660790999999989
0
LINE
8
BLACK
6
CONTINUOUS
10
334.6854789999999866
20
-204.660790999999989
11
332.0141529999999648
21
-190.9180109999999786
0
LINE
8
BLACK
6
CONTINUOUS
10
332.0141529999999648
20
-190.9180109999999786
11
345.7569330000000036
21
-188.2466849999999852
0
LINE
8
BLACK
6
CONTINUOUS
10
345.7569330000000036
20
-188.2466849999999852
11
348.4282589999999686
21
-201.9894649999999956
0
LINE
8
BLACK
6
CONTINUOUS
10
238.7735029999999767
20
-173.7727479999999787
11
236.1021769999999833
21
-187.5155279999999891
0
LINE
8
BLACK
6
CONTINUOUS
10
236.1021769999999833
20
-187.5155279999999891
11
222.3593970000000013
21
-184.8442019999999957
0
LINE
8
BLACK
6
CONTINUOUS
10
222.3593970000000013
20
-184.8442019999999957
11
225.0307229999999947
21
-171.1014219999999852
0
LINE
8
BLACK
6
CONTINUOUS
10
225.0307229999999947
20
-171.1014219999999852
11
238.7735029999999767
21
-173.7727479999999787
0
LINE
8
BLACK
6
CONTINUOUS
10
417.7704860000000053
20
-246.7303599999999904
11
404.0277059999999665
21
-249.4016859999999838
0
LINE
8
BLACK
6
CONTINUOUS
10
404.0277059999999665
20
-249.4016859999999838
11
401.3563800000000015
21
-235.6589060000000018
0
LINE
8
BLACK
6
CONTINUOUS
10
401.3563800000000015
20
-235.6589060000000018
11
415.0991599999999835
21
-232.9875799999999799
0
LINE
8
BLACK
6
CONTINUOUS
10
415.0991599999999835
20
-232.9875799999999799
11
417.7704860000000053
21
-246.7303599999999904
0
LINE
8
BLACK
6
CONTINUOUS
10
333.6258929999999623
20
-175.7569239999999979
11
319.8831129999999803
21
-178.4282499999999914
0
LINE
8
BLACK
6
CONTINUOUS
10
319.8831129999999803
20
-178.4282499999999914
11
317.2117869999999584
21
-164.6854699999999809
0
LINE
8
BLACK
6
CONTINUOUS
10
317.2117869999999584
20
-164.6854699999999809
11
330.9545669999999973
21
-162.0141439999999875
0
LINE
8
BLACK
6
CONTINUOUS
10
330.9545669999999973
20
-162.0141439999999875
11
333.6258929999999623
21
-175.7569239999999979
0
LINE
8
BLACK
6
CONTINUOUS
10
417.7758829999999648
20
-159.3998229999999978
11
404.0331029999999828
21
-162.0711489999999912
0
LINE
8
BLACK
6
CONTINUOUS
10
404.0331029999999828
20
-162.0711489999999912
11
401.3617769999999609
21
-148.3283689999999808
0
LINE
8
BLACK
6
CONTINUOUS
10
401.3617769999999609
20
-148.3283689999999808
11
415.1045569999999998
21
-145.6570429999999874
0
LINE
8
BLACK
6
CONTINUOUS
10
415.1045569999999998
20
-145.6570429999999874
11
417.7758829999999648
21
-159.3998229999999978
0
LINE
8
BLACK
6
CONTINUOUS
10
219.2961379999999849
20
-199.0965609999999799
11
216.6248119999999915
21
-212.8393409999999903
0
LINE
8
BLACK
6
CONTINUOUS
10
216.6248119999999915
20
-212.8393409999999903
11
202.8820319999999811
21
-210.1680149999999969
0
LINE
8
BLACK
6
CONTINUOUS
10
202.8820319999999811
20
-210.1680149999999969
11
205.5533580000000029
21
-196.4252349999999865
0
LINE
8
BLACK
6
CONTINUOUS
10
205.5533580000000029
20
-196.4252349999999865
11
219.2961379999999849
21
-199.0965609999999799
0
LINE
8
BLACK
6
CONTINUOUS
10
495.2676479999999515
20
-186.7565529999999967
11
509.2676479999999515
21
-186.7565529999999967
0
LINE
8
BLACK
6
CONTINUOUS
10
509.2676479999999515
20
-186.7565529999999967
11
509.2676479999999515
21
-172.7565529999999967
0
LINE
8
BLACK
6
CONTINUOUS
10
509.2676479999999515
20
-172.7565529999999967
11
495.2676479999999515
21
-172.7565529999999967
0
LINE
8
BLACK
6
CONTINUOUS
10
495.2676479999999515
20
-172.7565529999999967
11
495.2676479999999515
21
-186.7565529999999967
0
LINE
8
BLACK
6
CONTINUOUS
10
329.728260999999975
20
-205.6243759999999838
11
315.9854809999999929
21
-208.2957019999999773
0
LINE
8
BLACK
6
CONTINUOUS
10
315.9854809999999929
20
-208.2957019999999773
11
313.3141549999999711
21
-194.5529219999999953
0
LINE
8
BLACK
6
CONTINUOUS
10
313.3141549999999711
20
-194.5529219999999953
11
327.0569350000000099
21
-191.8815960000000018
0
LINE
8
BLACK
6
CONTINUOUS
10
327.0569350000000099
20
-191.8815960000000018
11
329.728260999999975
21
-205.6243759999999838
0
LINE
8
BLACK
6
CONTINUOUS
10
399.0758859999999686
20
-163.0347339999999861
11
385.3331059999999866
21
-165.7060599999999795
0
LINE
8
BLACK
6
CONTINUOUS
10
385.3331059999999866
20
-165.7060599999999795
11
382.6617799999999647
21
-151.9632799999999975
0
LINE
8
BLACK
6
CONTINUOUS
10
382.6617799999999647
20
-151.9632799999999975
11
396.4045600000000036
21
-149.291954000000004
0
LINE
8
BLACK
6
CONTINUOUS
10
396.4045600000000036
20
-149.291954000000004
11
399.0758859999999686
21
-163.0347339999999861
0
LINE
8
BLACK
6
CONTINUOUS
10
495.2676479999999515
20
-158.1815529999999796
11
509.2676479999999515
21
-158.1815529999999796
0
LINE
8
BLACK
6
CONTINUOUS
10
509.2676479999999515
20
-158.1815529999999796
11
509.2676479999999515
21
-144.1815529999999796
0
LINE
8
BLACK
6
CONTINUOUS
10
509.2676479999999515
20
-144.1815529999999796
11
495.2676479999999515
21
-144.1815529999999796
0
LINE
8
BLACK
6
CONTINUOUS
10
495.2676479999999515
20
-144.1815529999999796
11
495.2676479999999515
21
-158.1815529999999796
0
LINE
8
BLACK
6
CONTINUOUS
10
145.5362350000000049
20
-204.1656419999999912
11
142.8649089999999831
21
-217.9084220000000016
0
LINE
8
BLACK
6
CONTINUOUS
10
142.8649089999999831
20
-217.9084220000000016
11
129.122129000000001
21
-215.2370959999999798
0
LINE
8
BLACK
6
CONTINUOUS
10
129.122129000000001
20
-215.2370959999999798
11
131.7934549999999945
21
-201.4943159999999978
0
LINE
8
BLACK
6
CONTINUOUS
10
131.7934549999999945
20
-201.4943159999999978
11
145.5362350000000049
21
-204.1656419999999912
0
LINE
8
BLACK
6
CONTINUOUS
10
286.6131780000000049
20
-233.4116530000000012
11
272.870397999999966
21
-236.0829789999999946
0
LINE
8
BLACK
6
CONTINUOUS
10
272.870397999999966
20
-236.0829789999999946
11
270.199072000000001
21
-222.3401989999999842
0
LINE
8
BLACK
6
CONTINUOUS
10
270.199072000000001
20
-222.3401989999999842
11
283.941851999999983
21
-219.6688729999999907
0
LINE
8
BLACK
6
CONTINUOUS
10
283.941851999999983
20
-219.6688729999999907
11
286.6131780000000049
21
-233.4116530000000012
0
LINE
8
BLACK
6
CONTINUOUS
10
320.8929089999999746
20
-284.9680070000000001
11
307.1501289999999926
21
-287.6393329999999651
0
LINE
8
BLACK
6
CONTINUOUS
10
307.1501289999999926
20
-287.6393329999999651
11
304.4788029999999708
21
-273.8965529999999831
0
LINE
8
BLACK
6
CONTINUOUS
10
304.4788029999999708
20
-273.8965529999999831
11
318.2215830000000096
21
-271.2252269999999612
0
LINE
8
BLACK
6
CONTINUOUS
10
318.2215830000000096
20
-271.2252269999999612
11
320.8929089999999746
21
-284.9680070000000001
0
LINE
8
BLACK
6
CONTINUOUS
10
342.7131719999999859
20
-222.5069179999999847
11
328.9703920000000039
21
-225.1782439999999781
0
LINE
8
BLACK
6
CONTINUOUS
10
328.9703920000000039
20
-225.1782439999999781
11
326.2990659999999821
21
-211.4354639999999961
0
LINE
8
BLACK
6
CONTINUOUS
10
326.2990659999999821
20
-211.4354639999999961
11
340.0418459999999641
21
-208.7641380000000026
0
LINE
8
BLACK
6
CONTINUOUS
10
340.0418459999999641
20
-208.7641380000000026
11
342.7131719999999859
21
-222.5069179999999847
0
LINE
8
BLACK
6
CONTINUOUS
10
413.8782519999999749
20
-189.2672749999999837
11
400.1354719999999929
21
-191.9386009999999771
0
LINE
8
BLACK
6
CONTINUOUS
10
400.1354719999999929
20
-191.9386009999999771
11
397.4641459999999711
21
-178.1958209999999951
0
LINE
8
BLACK
6
CONTINUOUS
10
397.4641459999999711
20
-178.1958209999999951
11
411.2069259999999531
21
-175.5244950000000017
0
LINE
8
BLACK
6
CONTINUOUS
10
411.2069259999999531
20
-175.5244950000000017
11
413.8782519999999749
21
-189.2672749999999837
0
LINE
8
BLACK
6
CONTINUOUS
10
296.2258969999999749
20
-183.0267470000000003
11
282.4831169999999929
21
-185.6980729999999937
0
LINE
8
BLACK
6
CONTINUOUS
10
282.4831169999999929
20
-185.6980729999999937
11
279.8117909999999711
21
-171.9552929999999833
0
LINE
8
BLACK
6
CONTINUOUS
10
279.8117909999999711
20
-171.9552929999999833
11
293.5545710000000099
21
-169.2839669999999899
0
LINE
8
BLACK
6
CONTINUOUS
10
293.5545710000000099
20
-169.2839669999999899
11
296.2258969999999749
21
-183.0267470000000003
0
LINE
8
BLACK
6
CONTINUOUS
10
231.7664010000000019
20
-259.740193999999974
11
229.09507499999998
21
-273.4829740000000129
0
LINE
8
BLACK
6
CONTINUOUS
10
229.09507499999998
20
-273.4829740000000129
11
215.352294999999998
21
-270.811647999999991
0
LINE
8
BLACK
6
CONTINUOUS
10
215.352294999999998
20
-270.811647999999991
11
218.0236209999999915
21
-257.068868000000009
0
LINE
8
BLACK
6
CONTINUOUS
10
218.0236209999999915
20
-257.068868000000009
11
231.7664010000000019
21
-259.740193999999974
0
LINE
8
BLACK
6
CONTINUOUS
10
144.4961470000000077
20
-184.5569160000000011
11
141.8248209999999858
21
-198.2996959999999831
0
LINE
8
BLACK
6
CONTINUOUS
10
141.8248209999999858
20
-198.2996959999999831
11
128.0820410000000038
21
-195.6283699999999897
0
LINE
8
BLACK
6
CONTINUOUS
10
128.0820410000000038
20
-195.6283699999999897
11
130.7533669999999972
21
-181.8855899999999792
0
LINE
8
BLACK
6
CONTINUOUS
10
130.7533669999999972
20
-181.8855899999999792
11
144.4961470000000077
21
-184.5569160000000011
0
LINE
8
BLACK
6
CONTINUOUS
10
168.9112319999999841
20
-208.7092810000000043
11
166.2399059999999906
21
-222.4520609999999863
0
LINE
8
BLACK
6
CONTINUOUS
10
166.2399059999999906
20
-222.4520609999999863
11
152.4971259999999802
21
-219.7807349999999929
0
LINE
8
BLACK
6
CONTINUOUS
10
152.4971259999999802
20
-219.7807349999999929
11
155.168452000000002
21
-206.0379549999999824
0
LINE
8
BLACK
6
CONTINUOUS
10
155.168452000000002
20
-206.0379549999999824
11
168.9112319999999841
21
-208.7092810000000043
0
LINE
8
BLACK
6
CONTINUOUS
10
220.0735059999999805
20
-170.1378369999999904
11
217.4021799999999871
21
-183.8806170000000009
0
LINE
8
BLACK
6
CONTINUOUS
10
217.4021799999999871
20
-183.8806170000000009
11
203.6593999999999767
21
-181.209290999999979
0
LINE
8
BLACK
6
CONTINUOUS
10
203.6593999999999767
20
-181.209290999999979
11
206.3307259999999985
21
-167.466510999999997
0
LINE
8
BLACK
6
CONTINUOUS
10
206.3307259999999985
20
-167.466510999999997
11
220.0735059999999805
21
-170.1378369999999904
0
LINE
8
BLACK
6
CONTINUOUS
10
314.9258949999999686
20
-179.3918349999999862
11
301.1831149999999866
21
-182.0631609999999796
0
LINE
8
BLACK
6
CONTINUOUS
10
301.1831149999999866
20
-182.0631609999999796
11
298.5117889999999647
21
-168.3203809999999976
0
LINE
8
BLACK
6
CONTINUOUS
10
298.5117889999999647
20
-168.3203809999999976
11
312.2545690000000036
21
-165.6490550000000042
0
LINE
8
BLACK
6
CONTINUOUS
10
312.2545690000000036
20
-165.6490550000000042
11
314.9258949999999686
21
-179.3918349999999862
0
LINE
8
BLACK
6
CONTINUOUS
10
149.9485139999999888
20
-156.5069189999999821
11
147.2771879999999953
21
-170.2496989999999926
0
LINE
8
BLACK
6
CONTINUOUS
10
147.2771879999999953
20
-170.2496989999999926
11
133.5344079999999849
21
-167.5783729999999991
0
LINE
8
BLACK
6
CONTINUOUS
10
133.5344079999999849
20
-167.5783729999999991
11
136.2057340000000067
21
-153.8355929999999887
0
LINE
8
BLACK
6
CONTINUOUS
10
136.2057340000000067
20
-153.8355929999999887
11
149.9485139999999888
21
-156.5069189999999821
0
LINE
8
BLACK
6
CONTINUOUS
10
476.217647999999997
20
-205.8065529999999796
11
490.217647999999997
21
-205.8065529999999796
0
LINE
8
BLACK
6
CONTINUOUS
10
490.217647999999997
20
-205.8065529999999796
11
490.217647999999997
21
-191.8065529999999796
0
LINE
8
BLACK
6
CONTINUOUS
10
490.217647999999997
20
-191.8065529999999796
11
476.217647999999997
21
-191.8065529999999796
0
LINE
8
BLACK
6
CONTINUOUS
10
476.217647999999997
20
-191.8065529999999796
11
476.217647999999997
21
-205.8065529999999796
0
LINE
8
BLACK
6
CONTINUOUS
10
360.6304049999999961
20
-277.2438199999999711
11
346.8876249999999573
21
-279.9151459999999929
0
LINE
8
BLACK
6
CONTINUOUS
10
346.8876249999999573
20
-279.9151459999999929
11
344.2162989999999922
21
-266.1723660000000109
0
LINE
8
BLACK
6
CONTINUOUS
10
344.2162989999999922
20
-266.1723660000000109
11
357.9590789999999743
21
-263.501039999999989
0
LINE
8
BLACK
6
CONTINUOUS
10
357.9590789999999743
20
-263.501039999999989
11
360.6304049999999961
21
-277.2438199999999711
0
LINE
8
BLACK
6
CONTINUOUS
10
457.1676479999999856
20
-205.8065529999999796
11
471.1676479999999856
21
-205.8065529999999796
0
LINE
8
BLACK
6
CONTINUOUS
10
471.1676479999999856
20
-205.8065529999999796
11
471.1676479999999856
21
-191.8065529999999796
0
LINE
8
BLACK
6
CONTINUOUS
10
471.1676479999999856
20
-191.8065529999999796
11
457.1676479999999856
21
-191.8065529999999796
0
LINE
8
BLACK
6
CONTINUOUS
10
457.1676479999999856
20
-191.8065529999999796
11
457.1676479999999856
21
-205.8065529999999796
0
LINE
8
BLACK
6
CONTINUOUS
10
388.4230779999999754
20
-233.028365999999977
11
374.6802979999999934
21
-235.6996919999999989
0
LINE
8
BLACK
6
CONTINUOUS
10
374.6802979999999934
20
-235.6996919999999989
11
372.0089719999999716
21
-221.9569119999999884
0
LINE
8
BLACK
6
CONTINUOUS
10
372.0089719999999716
20
-221.9569119999999884
11
385.7517520000000104
21
-219.285585999999995
0
LINE
8
BLACK
6
CONTINUOUS
10
385.7517520000000104
20
-219.285585999999995
11
388.4230779999999754
21
-233.028365999999977
0
LINE
8
BLACK
6
CONTINUOUS
10
382.7079899999999952
20
-253.5458189999999945
11
368.9652099999999564
21
-256.2171450000000164
0
LINE
8
BLACK
6
CONTINUOUS
10
368.9652099999999564
20
-256.2171450000000164
11
366.2938839999999914
21
-242.4743649999999775
0
LINE
8
BLACK
6
CONTINUOUS
10
366.2938839999999914
20
-242.4743649999999775
11
380.0366639999999734
21
-239.8030389999999841
0
LINE
8
BLACK
6
CONTINUOUS
10
380.0366639999999734
20
-239.8030389999999841
11
382.7079899999999952
21
-253.5458189999999945
0
LINE
8
BLACK
6
CONTINUOUS
10
311.0282629999999813
20
-209.259287999999998
11
297.2854829999999993
21
-211.9306139999999914
0
LINE
8
BLACK
6
CONTINUOUS
10
297.2854829999999993
20
-211.9306139999999914
11
294.6141569999999774
21
-198.187833999999981
0
LINE
8
BLACK
6
CONTINUOUS
10
294.6141569999999774
20
-198.187833999999981
11
308.3569369999999594
21
-195.5165079999999875
0
LINE
8
BLACK
6
CONTINUOUS
10
308.3569369999999594
20
-195.5165079999999875
11
311.0282629999999813
21
-209.259287999999998
0
LINE
8
BLACK
6
CONTINUOUS
10
476.217647999999997
20
-186.7565529999999967
11
490.217647999999997
21
-186.7565529999999967
0
LINE
8
BLACK
6
CONTINUOUS
10
490.217647999999997
20
-186.7565529999999967
11
490.217647999999997
21
-172.7565529999999967
0
LINE
8
BLACK
6
CONTINUOUS
10
490.217647999999997
20
-172.7565529999999967
11
476.217647999999997
21
-172.7565529999999967
0
LINE
8
BLACK
6
CONTINUOUS
10
476.217647999999997
20
-172.7565529999999967
11
476.217647999999997
21
-186.7565529999999967
0
LINE
8
BLACK
6
CONTINUOUS
10
476.217647999999997
20
-158.1815529999999796
11
490.217647999999997
21
-158.1815529999999796
0
LINE
8
BLACK
6
CONTINUOUS
10
490.217647999999997
20
-158.1815529999999796
11
490.217647999999997
21
-144.1815529999999796
0
LINE
8
BLACK
6
CONTINUOUS
10
490.217647999999997
20
-144.1815529999999796
11
476.217647999999997
21
-144.1815529999999796
0
LINE
8
BLACK
6
CONTINUOUS
10
476.217647999999997
20
-144.1815529999999796
11
476.217647999999997
21
-158.1815529999999796
0
LINE
8
BLACK
6
CONTINUOUS
10
305.3131759999999986
20
-229.776740999999987
11
291.5703959999999597
21
-232.4480669999999805
0
LINE
8
BLACK
6
CONTINUOUS
10
291.5703959999999597
20
-232.4480669999999805
11
288.8990699999999947
21
-218.7052869999999984
0
LINE
8
BLACK
6
CONTINUOUS
10
288.8990699999999947
20
-218.7052869999999984
11
302.6418499999999767
21
-216.0339609999999766
0
LINE
8
BLACK
6
CONTINUOUS
10
302.6418499999999767
20
-216.0339609999999766
11
305.3131759999999986
21
-229.776740999999987
0
LINE
8
BLACK
6
CONTINUOUS
10
419.0678979999999569
20
-265.8847220000000107
11
405.3251179999999749
21
-268.5560479999999757
0
LINE
8
BLACK
6
CONTINUOUS
10
405.3251179999999749
20
-268.5560479999999757
11
402.6537920000000099
21
-254.8132679999999937
0
LINE
8
BLACK
6
CONTINUOUS
10
402.6537920000000099
20
-254.8132679999999937
11
416.3965719999999919
21
-252.1419420000000002
0
LINE
8
BLACK
6
CONTINUOUS
10
416.3965719999999919
20
-252.1419420000000002
11
419.0678979999999569
21
-265.8847220000000107
0
LINE
8
BLACK
6
CONTINUOUS
10
351.0230819999999881
20
-240.2981879999999819
11
337.280302000000006
21
-242.9695139999999753
0
LINE
8
BLACK
6
CONTINUOUS
10
337.280302000000006
20
-242.9695139999999753
11
334.6089759999999842
21
-229.2267339999999933
0
LINE
8
BLACK
6
CONTINUOUS
10
334.6089759999999842
20
-229.2267339999999933
11
348.3517559999999662
21
-226.5554079999999999
0
LINE
8
BLACK
6
CONTINUOUS
10
348.3517559999999662
20
-226.5554079999999999
11
351.0230819999999881
21
-240.2981879999999819
0
LINE
8
BLACK
6
CONTINUOUS
10
361.6758899999999812
20
-170.3045569999999884
11
347.9331099999999992
21
-172.9758829999999818
0
LINE
8
BLACK
6
CONTINUOUS
10
347.9331099999999992
20
-172.9758829999999818
11
345.2617839999999774
21
-159.2331029999999998
0
LINE
8
BLACK
6
CONTINUOUS
10
345.2617839999999774
20
-159.2331029999999998
11
359.0045639999999594
21
-156.5617770000000064
0
LINE
8
BLACK
6
CONTINUOUS
10
359.0045639999999594
20
-156.5617770000000064
11
361.6758899999999812
21
-170.3045569999999884
0
LINE
8
BLACK
6
CONTINUOUS
10
216.4439909999999827
20
-276.1683719999999767
11
213.7726649999999893
21
-289.9111519999999587
0
LINE
8
BLACK
6
CONTINUOUS
10
213.7726649999999893
20
-289.9111519999999587
11
200.0298849999999788
21
-287.2398259999999937
0
LINE
8
BLACK
6
CONTINUOUS
10
200.0298849999999788
20
-287.2398259999999937
11
202.7012110000000007
21
-273.4970460000000116
0
LINE
8
BLACK
6
CONTINUOUS
10
202.7012110000000007
20
-273.4970460000000116
11
216.4439909999999827
21
-276.1683719999999767
0
LINE
8
BLACK
6
CONTINUOUS
10
175.6664079999999899
20
-248.8354599999999834
11
172.9950819999999965
21
-262.5782399999999939
0
LINE
8
BLACK
6
CONTINUOUS
10
172.9950819999999965
20
-262.5782399999999939
11
159.252301999999986
21
-259.906913999999972
0
LINE
8
BLACK
6
CONTINUOUS
10
159.252301999999986
20
-259.906913999999972
11
161.9236279999999795
21
-246.16413399999999
0
LINE
8
BLACK
6
CONTINUOUS
10
161.9236279999999795
20
-246.16413399999999
11
175.6664079999999899
21
-248.8354599999999834
0
LINE
8
BLACK
6
CONTINUOUS
10
457.1676479999999856
20
-158.1815529999999796
11
471.1676479999999856
21
-158.1815529999999796
0
LINE
8
BLACK
6
CONTINUOUS
10
471.1676479999999856
20
-158.1815529999999796
11
471.1676479999999856
21
-144.1815529999999796
0
LINE
8
BLACK
6
CONTINUOUS
10
471.1676479999999856
20
-144.1815529999999796
11
457.1676479999999856
21
-144.1815529999999796
0
LINE
8
BLACK
6
CONTINUOUS
10
457.1676479999999856
20
-144.1815529999999796
11
457.1676479999999856
21
-158.1815529999999796
0
LINE
8
BLACK
6
CONTINUOUS
10
225.0112259999999935
20
-219.6140149999999949
11
222.3399000000000001
21
-233.3567949999999769
0
LINE
8
BLACK
6
CONTINUOUS
10
222.3399000000000001
20
-233.3567949999999769
11
208.5971199999999897
21
-230.6854689999999835
0
LINE
8
BLACK
6
CONTINUOUS
10
208.5971199999999897
20
-230.6854689999999835
11
211.2684459999999831
21
-216.9426890000000014
0
LINE
8
BLACK
6
CONTINUOUS
10
211.2684459999999831
20
-216.9426890000000014
11
225.0112259999999935
21
-219.6140149999999949
0
LINE
8
BLACK
6
CONTINUOUS
10
398.8131649999999695
20
-211.6021839999999941
11
385.0703849999999875
21
-214.2735099999999875
0
LINE
8
BLACK
6
CONTINUOUS
10
385.0703849999999875
20
-214.2735099999999875
11
382.3990589999999656
21
-200.5307299999999771
0
LINE
8
BLACK
6
CONTINUOUS
10
382.3990589999999656
20
-200.5307299999999771
11
396.1418390000000045
21
-197.8594039999999836
0
LINE
8
BLACK
6
CONTINUOUS
10
396.1418390000000045
20
-197.8594039999999836
11
398.8131649999999695
21
-211.6021839999999941
0
LINE
8
BLACK
6
CONTINUOUS
10
188.6513180000000034
20
-231.9529179999999826
11
185.9799919999999815
21
-245.695697999999993
0
LINE
8
BLACK
6
CONTINUOUS
10
185.9799919999999815
20
-245.695697999999993
11
172.2372119999999995
21
-243.0243719999999996
0
LINE
8
BLACK
6
CONTINUOUS
10
172.2372119999999995
20
-243.0243719999999996
11
174.908537999999993
21
-229.2815919999999892
0
LINE
8
BLACK
6
CONTINUOUS
10
174.908537999999993
20
-229.2815919999999892
11
188.6513180000000034
21
-231.9529179999999826
0
LINE
8
BLACK
6
CONTINUOUS
10
385.828254999999956
20
-194.7196419999999932
11
372.085474999999974
21
-197.3909679999999867
0
LINE
8
BLACK
6
CONTINUOUS
10
372.085474999999974
20
-197.3909679999999867
11
369.414149000000009
21
-183.6481880000000046
0
LINE
8
BLACK
6
CONTINUOUS
10
369.414149000000009
20
-183.6481880000000046
11
383.156928999999991
21
-180.9768619999999828
0
LINE
8
BLACK
6
CONTINUOUS
10
383.156928999999991
20
-180.9768619999999828
11
385.828254999999956
21
-194.7196419999999932
0
LINE
8
BLACK
6
CONTINUOUS
10
256.6961339999999723
20
-206.3663839999999823
11
254.0248079999999788
21
-220.1091639999999927
0
LINE
8
BLACK
6
CONTINUOUS
10
254.0248079999999788
20
-220.1091639999999927
11
240.2820279999999968
21
-217.4378379999999993
0
LINE
8
BLACK
6
CONTINUOUS
10
240.2820279999999968
20
-217.4378379999999993
11
242.9533539999999903
21
-203.6950579999999889
0
LINE
8
BLACK
6
CONTINUOUS
10
242.9533539999999903
20
-203.6950579999999889
11
256.6961339999999723
21
-206.3663839999999823
0
LINE
8
BLACK
6
CONTINUOUS
10
457.1676479999999856
20
-186.7565529999999967
11
471.1676479999999856
21
-186.7565529999999967
0
LINE
8
BLACK
6
CONTINUOUS
10
471.1676479999999856
20
-186.7565529999999967
11
471.1676479999999856
21
-172.7565529999999967
0
LINE
8
BLACK
6
CONTINUOUS
10
471.1676479999999856
20
-172.7565529999999967
11
457.1676479999999856
21
-172.7565529999999967
0
LINE
8
BLACK
6
CONTINUOUS
10
457.1676479999999856
20
-172.7565529999999967
11
457.1676479999999856
21
-186.7565529999999967
0
LINE
8
BLACK
6
CONTINUOUS
10
206.3112279999999998
20
-215.9791039999999782
11
203.639901999999978
21
-229.7218839999999886
0
LINE
8
BLACK
6
CONTINUOUS
10
203.639901999999978
20
-229.7218839999999886
11
189.897121999999996
21
-227.0505579999999952
0
LINE
8
BLACK
6
CONTINUOUS
10
189.897121999999996
20
-227.0505579999999952
11
192.5684479999999894
21
-213.3077779999999848
0
LINE
8
BLACK
6
CONTINUOUS
10
192.5684479999999894
20
-213.3077779999999848
11
206.3112279999999998
21
-215.9791039999999782
0
LINE
8
BLACK
6
CONTINUOUS
10
324.0131739999999922
20
-226.1418299999999988
11
310.2703940000000102
21
-228.8131559999999922
0
LINE
8
BLACK
6
CONTINUOUS
10
310.2703940000000102
20
-228.8131559999999922
11
307.5990679999999884
21
-215.0703759999999818
0
LINE
8
BLACK
6
CONTINUOUS
10
307.5990679999999884
20
-215.0703759999999818
11
321.3418479999999704
21
-212.3990499999999884
0
LINE
8
BLACK
6
CONTINUOUS
10
321.3418479999999704
20
-212.3990499999999884
11
324.0131739999999922
21
-226.1418299999999988
0
LINE
8
BLACK
6
CONTINUOUS
10
495.2676479999999515
20
-262.9565529999999853
11
509.2676479999999515
21
-262.9565529999999853
0
LINE
8
BLACK
6
CONTINUOUS
10
509.2676479999999515
20
-262.9565529999999853
11
509.2676479999999515
21
-248.9565529999999853
0
LINE
8
BLACK
6
CONTINUOUS
10
509.2676479999999515
20
-248.9565529999999853
11
495.2676479999999515
21
-248.9565529999999853
0
LINE
8
BLACK
6
CONTINUOUS
10
495.2676479999999515
20
-248.9565529999999853
11
495.2676479999999515
21
-262.9565529999999853
0
LINE
8
BLACK
6
CONTINUOUS
10
380.1131669999999758
20
-215.2370959999999798
11
366.3703869999999938
21
-217.9084220000000016
0
LINE
8
BLACK
6
CONTINUOUS
10
366.3703869999999938
20
-217.9084220000000016
11
363.699060999999972
21
-204.1656419999999912
0
LINE
8
BLACK
6
CONTINUOUS
10
363.699060999999972
20
-204.1656419999999912
11
377.4418410000000108
21
-201.4943159999999978
0
LINE
8
BLACK
6
CONTINUOUS
10
377.4418410000000108
20
-201.4943159999999978
11
380.1131669999999758
21
-215.2370959999999798
0
LINE
8
BLACK
6
CONTINUOUS
10
200.5961399999999912
20
-195.4616499999999917
11
197.9248139999999978
21
-209.2044300000000021
0
LINE
8
BLACK
6
CONTINUOUS
10
197.9248139999999978
20
-209.2044300000000021
11
184.1820339999999874
21
-206.5331039999999803
0
LINE
8
BLACK
6
CONTINUOUS
10
184.1820339999999874
20
-206.5331039999999803
11
186.8533599999999808
21
-192.7903239999999983
0
LINE
8
BLACK
6
CONTINUOUS
10
186.8533599999999808
20
-192.7903239999999983
11
200.5961399999999912
21
-195.4616499999999917
0
LINE
8
BLACK
6
CONTINUOUS
10
400.3678999999999633
20
-269.5196339999999964
11
386.6251199999999812
21
-272.1909599999999614
0
LINE
8
BLACK
6
CONTINUOUS
10
386.6251199999999812
20
-272.1909599999999614
11
383.9537939999999594
21
-258.4481799999999794
0
LINE
8
BLACK
6
CONTINUOUS
10
383.9537939999999594
20
-258.4481799999999794
11
397.6965739999999983
21
-255.7768539999999859
0
LINE
8
BLACK
6
CONTINUOUS
10
397.6965739999999983
20
-255.7768539999999859
11
400.3678999999999633
21
-269.5196339999999964
0
LINE
8
BLACK
6
CONTINUOUS
10
495.2676479999999515
20
-205.8065529999999796
11
509.2676479999999515
21
-205.8065529999999796
0
LINE
8
BLACK
6
CONTINUOUS
10
509.2676479999999515
20
-205.8065529999999796
11
509.2676479999999515
21
-191.8065529999999796
0
LINE
8
BLACK
6
CONTINUOUS
10
509.2676479999999515
20
-191.8065529999999796
11
495.2676479999999515
21
-191.8065529999999796
0
LINE
8
BLACK
6
CONTINUOUS
10
495.2676479999999515
20
-191.8065529999999796
11
495.2676479999999515
21
-205.8065529999999796
0
LINE
8
BLACK
6
CONTINUOUS
10
207.3513159999999971
20
-235.5878289999999993
11
204.6799900000000036
21
-249.3306089999999813
0
LINE
8
BLACK
6
CONTINUOUS
10
204.6799900000000036
20
-249.3306089999999813
11
190.9372099999999932
21
-246.6592829999999879
0
LINE
8
BLACK
6
CONTINUOUS
10
190.9372099999999932
20
-246.6592829999999879
11
193.6085359999999866
21
-232.9165029999999774
0
LINE
8
BLACK
6
CONTINUOUS
10
193.6085359999999866
20
-232.9165029999999774
11
207.3513159999999971
21
-235.5878289999999993
0
LINE
8
BLACK
6
CONTINUOUS
10
380.3758879999999749
20
-166.6696450000000027
11
366.6331079999999929
21
-169.3409709999999961
0
LINE
8
BLACK
6
CONTINUOUS
10
366.6331079999999929
20
-169.3409709999999961
11
363.961781999999971
21
-155.5981909999999857
0
LINE
8
BLACK
6
CONTINUOUS
10
363.961781999999971
20
-155.5981909999999857
11
377.7045620000000099
21
-152.9268649999999923
0
LINE
8
BLACK
6
CONTINUOUS
10
377.7045620000000099
20
-152.9268649999999923
11
380.3758879999999749
21
-166.6696450000000027
0
LINE
8
BLACK
6
CONTINUOUS
10
179.0439959999999928
20
-268.8985500000000002
11
176.3726699999999994
21
-282.6413299999999822
0
LINE
8
BLACK
6
CONTINUOUS
10
176.3726699999999994
20
-282.6413299999999822
11
162.629889999999989
21
-279.9700039999999603
0
LINE
8
BLACK
6
CONTINUOUS
10
162.629889999999989
20
-279.9700039999999603
11
165.3012159999999824
21
-266.2272239999999783
0
LINE
8
BLACK
6
CONTINUOUS
10
165.3012159999999824
20
-266.2272239999999783
11
179.0439959999999928
21
-268.8985500000000002
0
LINE
8
BLACK
6
CONTINUOUS
10
367.1282569999999623
20
-198.3545539999999789
11
353.3854769999999803
21
-201.0258800000000008
0
LINE
8
BLACK
6
CONTINUOUS
10
353.3854769999999803
20
-201.0258800000000008
11
350.7141509999999585
21
-187.2830999999999904
0
LINE
8
BLACK
6
CONTINUOUS
10
350.7141509999999585
20
-187.2830999999999904
11
364.4569309999999973
21
-184.6117739999999969
0
LINE
8
BLACK
6
CONTINUOUS
10
364.4569309999999973
20
-184.6117739999999969
11
367.1282569999999623
21
-198.3545539999999789
0
LINE
8
BLACK
6
CONTINUOUS
10
294.9230890000000045
20
-251.2029229999999984
11
281.1803089999999656
21
-253.8742489999999918
0
LINE
8
BLACK
6
CONTINUOUS
10
281.1803089999999656
20
-253.8742489999999918
11
278.5089830000000006
21
-240.1314689999999814
0
LINE
8
BLACK
6
CONTINUOUS
10
278.5089830000000006
20
-240.1314689999999814
11
292.2517629999999826
21
-237.460142999999988
0
LINE
8
BLACK
6
CONTINUOUS
10
292.2517629999999826
20
-237.460142999999988
11
294.9230890000000045
21
-251.2029229999999984
0
LINE
8
BLACK
6
CONTINUOUS
10
332.3230849999999919
20
-243.933099999999996
11
318.5803050000000098
21
-246.6044259999999895
0
LINE
8
BLACK
6
CONTINUOUS
10
318.5803050000000098
20
-246.6044259999999895
11
315.908978999999988
21
-232.861645999999979
0
LINE
8
BLACK
6
CONTINUOUS
10
315.908978999999988
20
-232.861645999999979
11
329.65175899999997
21
-230.1903199999999856
0
LINE
8
BLACK
6
CONTINUOUS
10
329.65175899999997
20
-230.1903199999999856
11
332.3230849999999919
21
-243.933099999999996
0
LINE
8
BLACK
6
CONTINUOUS
10
422.1881619999999771
20
-207.058544999999981
11
408.4453819999999951
21
-209.7298710000000028
0
LINE
8
BLACK
6
CONTINUOUS
10
408.4453819999999951
20
-209.7298710000000028
11
405.7740559999999732
21
-195.9870909999999924
0
LINE
8
BLACK
6
CONTINUOUS
10
405.7740559999999732
20
-195.9870909999999924
11
419.5168359999999552
21
-193.315764999999999
0
LINE
8
BLACK
6
CONTINUOUS
10
419.5168359999999552
20
-193.315764999999999
11
422.1881619999999771
21
-207.058544999999981
0
LINE
8
BLACK
6
CONTINUOUS
10
277.5258999999999787
20
-186.6616579999999885
11
263.7831199999999967
21
-189.332983999999982
0
LINE
8
BLACK
6
CONTINUOUS
10
263.7831199999999967
20
-189.332983999999982
11
261.1117939999999749
21
-175.590204
0
LINE
8
BLACK
6
CONTINUOUS
10
261.1117939999999749
20
-175.590204
11
274.8545740000000137
21
-172.9188779999999781
0
LINE
8
BLACK
6
CONTINUOUS
10
274.8545740000000137
20
-172.9188779999999781
11
277.5258999999999787
21
-186.6616579999999885
0
LINE
8
BLACK
6
CONTINUOUS
10
155.6689979999999878
20
-264.3549110000000155
11
152.9976719999999943
21
-278.0976909999999975
0
LINE
8
BLACK
6
CONTINUOUS
10
152.9976719999999943
20
-278.0976909999999975
11
139.2548919999999839
21
-275.4263649999999757
0
LINE
8
BLACK
6
CONTINUOUS
10
139.2548919999999839
20
-275.4263649999999757
11
141.9262180000000058
21
-261.6835849999999937
0
LINE
8
BLACK
6
CONTINUOUS
10
141.9262180000000058
20
-261.6835849999999937
11
155.6689979999999878
21
-264.3549110000000155
0
LINE
8
BLACK
6
CONTINUOUS
10
244.7513119999999844
20
-242.8576520000000016
11
242.079985999999991
21
-256.6004320000000121
0
LINE
8
BLACK
6
CONTINUOUS
10
242.079985999999991
20
-256.6004320000000121
11
228.3372059999999806
21
-253.9291059999999902
0
LINE
8
BLACK
6
CONTINUOUS
10
228.3372059999999806
20
-253.9291059999999902
11
231.0085320000000024
21
-240.1863259999999798
0
LINE
8
BLACK
6
CONTINUOUS
10
231.0085320000000024
20
-240.1863259999999798
11
244.7513119999999844
21
-242.8576520000000016
0
LINE
8
BLACK
6
CONTINUOUS
10
289.2080009999999675
20
-271.7203759999999875
11
275.4652209999999855
21
-274.3917020000000093
0
LINE
8
BLACK
6
CONTINUOUS
10
275.4652209999999855
20
-274.3917020000000093
11
272.7938949999999636
21
-260.6489219999999705
0
LINE
8
BLACK
6
CONTINUOUS
10
272.7938949999999636
20
-260.6489219999999705
11
286.5366750000000025
21
-257.9775960000000055
0
LINE
8
BLACK
6
CONTINUOUS
10
286.5366750000000025
20
-257.9775960000000055
11
289.2080009999999675
21
-271.7203759999999875
0
LINE
8
BLACK
6
CONTINUOUS
10
476.217647999999997
20
-243.9065530000000024
11
490.217647999999997
21
-243.9065530000000024
0
LINE
8
BLACK
6
CONTINUOUS
10
490.217647999999997
20
-243.9065530000000024
11
490.217647999999997
21
-229.9065530000000024
0
LINE
8
BLACK
6
CONTINUOUS
10
490.217647999999997
20
-229.9065530000000024
11
476.217647999999997
21
-229.9065530000000024
0
LINE
8
BLACK
6
CONTINUOUS
10
476.217647999999997
20
-229.9065530000000024
11
476.217647999999997
21
-243.9065530000000024
0
LINE
8
BLACK
6
CONTINUOUS
10
326.6079970000000117
20
-264.4505530000000135
11
312.8652169999999728
21
-267.1218789999999785
0
LINE
8
BLACK
6
CONTINUOUS
10
312.8652169999999728
20
-267.1218789999999785
11
310.1938910000000078
21
-253.3790989999999965
0
LINE
8
BLACK
6
CONTINUOUS
10
310.1938910000000078
20
-253.3790989999999965
11
323.9366709999999898
21
-250.7077729999999747
0
LINE
8
BLACK
6
CONTINUOUS
10
323.9366709999999898
20
-250.7077729999999747
11
326.6079970000000117
21
-264.4505530000000135
0
LINE
8
BLACK
6
CONTINUOUS
10
144.2388229999999965
20
-223.3200029999999856
11
141.567497000000003
21
-237.062782999999996
0
LINE
8
BLACK
6
CONTINUOUS
10
141.567497000000003
20
-237.062782999999996
11
127.8247169999999926
21
-234.3914570000000026
0
LINE
8
BLACK
6
CONTINUOUS
10
127.8247169999999926
20
-234.3914570000000026
11
130.496042999999986
21
-220.6486769999999922
0
LINE
8
BLACK
6
CONTINUOUS
10
130.496042999999986
20
-220.6486769999999922
11
144.2388229999999965
21
-223.3200029999999856
0
LINE
8
BLACK
6
CONTINUOUS
10
437.7678960000000075
20
-262.2498109999999656
11
424.0251159999999686
21
-264.9211369999999874
0
LINE
8
BLACK
6
CONTINUOUS
10
424.0251159999999686
20
-264.9211369999999874
11
421.3537900000000036
21
-251.178356999999977
0
LINE
8
BLACK
6
CONTINUOUS
10
421.3537900000000036
20
-251.178356999999977
11
435.0965699999999856
21
-248.5070309999999836
0
LINE
8
BLACK
6
CONTINUOUS
10
435.0965699999999856
20
-248.5070309999999836
11
437.7678960000000075
21
-262.2498109999999656
0
CIRCLE
8
BLACK
10
341.8097399999999766
20
-181.1963109999999801
40
1.5
0
CIRCLE
8
BLACK
10
442.8097399999999766
20
-176.7963110000000029
40
3.
0
CIRCLE
8
BLACK
10
261.2097400000000107
20
-249.3963109999999972
40
2.9410879999999997
0
CIRCLE
8
BLACK
10
258.109739999999988
20
-229.4963109999999915
40
1.5
0
CIRCLE
8
BLACK
10
115.5097399999999936
20
-252.7963109999999745
40
1.5
0
CIRCLE
8
BLACK
10
187.7097399999999823
20
-276.3963109999999688
40
1.5
0
CIRCLE
8
BLACK
10
259.0097399999999652
20
-287.3963109999999688
40
1.5
0
CIRCLE
8
BLACK
10
447.2097399999999539
20
-255.1963109999999801
40
1.5
0
CIRCLE
8
BLACK
10
504.109739999999988
20
-226.2963110000000029
40
1.5
0
CIRCLE
8
BLACK
10
503.8097399999999766
20
-165.4963109999999915
40
1.5
0
CIRCLE
8
BLACK
10
425.9097399999999993
20
-147.6963109999999801
40
1.5
0
CIRCLE
8
BLACK
10
133.5097399999999936
20
-175.1963109999999801
40
1.5
0
CIRCLE
8
BLACK
10
250.5097399999999936
20
-183.0963109999999858
40
1.5
0
CIRCLE
8
BLACK
10
158.109739999999988
20
-165.1963109999999801
40
1.5
0
LINE
8
BLACK
6
CONTINUOUS
10
518.2097400000000107
20
-265.4963109999999915
11
518.2097400000000107
21
-266.8963109999999688
0
ARC
8
BLACK
10
258.3736000000000104
20
-271.009900000000016
40
37.0000541361826762
50
-100.89687657
51
-78.99323421
0
ARC
8
BLACK
10
130.9673999999999978
20
-147.7609999999999957
40
4.9999702920698441
50
78.97952744
51
169.04569094
0
LINE
8
BLACK
6
CONTINUOUS
10
518.2097400000000107
20
-141.6963109999999801
11
518.2097400000000107
21
-265.4963109999999915
0
ARC
8
BLACK
10
513.209699999999998
20
-138.6963000000000079
40
4.9999890001600003
50
-0.00012605
51
89.99954163
0
LINE
8
BLACK
6
CONTINUOUS
10
108.8097399999999908
20
-279.8963109999999688
11
105.5097569999999934
21
-279.2524119999999925
0
ARC
8
BLACK
10
256.4200000000000159
20
-102.9147999999999996
40
62.9999824303914835
50
-101.02010710
51
-78.99821129
0
LINE
8
BLACK
6
CONTINUOUS
10
441.6514259999999581
20
-273.0552220000000148
11
265.4378320000000144
21
-307.329324999999983
0
LINE
8
BLACK
6
CONTINUOUS
10
431.7730070000000069
20
-133.6963109999999801
11
513.2097400000000107
21
-133.6963109999999801
0
LINE
8
BLACK
6
CONTINUOUS
10
424.7119609999999739
20
-134.3763219999999876
11
268.442893999999967
21
-164.7569199999999796
0
ARC
8
BLACK
10
431.7729999999999677
20
-170.6962999999999795
40
36.9999874821601153
50
89.99998916
51
101.00174878
0
ARC
8
BLACK
10
513.209699999999998
20
-266.8962999999999965
40
5.0000400000120999
50
-89.99954163
51
-0.00012605
0
LINE
8
BLACK
6
CONTINUOUS
10
101.558409999999995
20
-273.3948499999999626
11
126.0585339999999945
21
-146.8108749999999816
0
LINE
8
BLACK
6
CONTINUOUS
10
513.2097400000000107
20
-271.8963109999999688
11
511.8097399999999766
21
-271.8963109999999688
0
LINE
8
BLACK
6
CONTINUOUS
10
518.2097400000000107
20
-141.6963109999999801
11
518.2097400000000107
21
-138.6963109999999801
0
ARC
8
BLACK
10
106.4672999999999945
20
-274.3449999999999704
40
4.9999581132838502
50
-190.95453806
51
-101.04093113
0
ARC
8
BLACK
10
453.6796999999999684
20
-334.8962999999999965
40
62.9999865366744274
50
89.99998727
51
101.00677251
0
LINE
8
BLACK
6
CONTINUOUS
10
244.3773369999999829
20
-164.7530610000000024
11
131.9232030000000009
21
-142.8531830000000014
0
LINE
8
BLACK
6
CONTINUOUS
10
251.3790389999999775
20
-307.3428069999999934
11
108.8097399999999908
21
-279.8963109999999688
0
LINE
8
BLACK
6
CONTINUOUS
10
511.8097399999999766
20
-271.8963109999999688
11
453.6797139999999899
21
-271.8963109999999688
  0
ENDSEC
  0
EOF
