  0
SECTION
  2
HEADER
  9
$ANGBASE
  50
0.0
  9
$ANGDIR
  70
1
  9
$MEASUREMENT
  70
1
  0
ENDSEC
  0
SECTION
  2
TABLES
  0
TABLE
  2
LTYPE
  70
4
  0
LTYPE
  5
40F
  2
CONTINUOUS
  70
0
  3
Solid line
  72
65
  73
0
  40
0.0
  0
LTYPE
  5
410
  2
DASHDOT
 70
0
  3
Dash Dot ____ _ ____ _
 72
65
 73
4
 40
2.0
 49
1.25
 49
-0.25
 49
0.25
 49
-0.25
  0
LTYPE
  5
411
  2
DASHED
 70
0
  3
Dashed __ __ __ __ __
 72
65
 73
2
 40
0.75
 49
0.5
 49
-0.25
  0
LTYPE
  5
43B
  2
DOTTED
 70
0
  3
Dotted .  .  .  .
 72
65
 73
2
 40
0.2
 49
0.0
 49
-0.2
  0
ENDTAB
  0
TABLE
  2
STYLE
  70
4
  0
STYLE
  2
KICAD
  70
0
  40
0
  41
1
  42
1
  50
0
  71
0
  3
isocp.shx
  0
STYLE
  2
KICADB
  70
0
  40
0
  41
1
  42
1
  50
0
  71
0
  3
isocp.shx
  0
STYLE
  2
KICADI
  70
0
  40
0
  41
1
  42
1
  50
15
  71
0
  3
isocp.shx
  0
STYLE
  2
KICADBI
  70
0
  40
0
  41
1
  42
1
  50
15
  71
0
  3
isocp.shx
  0
ENDTAB
  0
TABLE
  2
LAYER
  70
1
  0
LAYER
  2
BLACK
  70
0
  62
7
  6
CONTINUOUS
  0
ENDTAB
  0
ENDSEC
  0
SECTION
  2
ENTITIES
0
LINE
8
BLACK
6
CONTINUOUS
10
391.3834799999999632
20
-235.0251820000000009
11
387.7485689999999749
21
-216.3251839999999788
0
LINE
8
BLACK
6
CONTINUOUS
10
402.3964689999999678
20
-216.0501809999999807
11
402.7780869999999709
21
-218.013434999999987
0
LINE
8
BLACK
6
CONTINUOUS
10
404.359722999999974
20
-215.6685629999999776
11
402.3964689999999678
21
-216.0501809999999807
0
LINE
8
BLACK
6
CONTINUOUS
10
405.0677949999999896
20
-229.7929609999999911
11
404.6861769999999865
21
-227.8297069999999849
0
LINE
8
BLACK
6
CONTINUOUS
10
407.0310489999999959
20
-229.411342999999988
11
405.0677949999999896
21
-229.7929609999999911
0
LINE
8
BLACK
6
CONTINUOUS
10
414.1759950000000003
20
-213.7604729999999904
11
416.1392490000000066
21
-213.3788549999999873
0
LINE
8
BLACK
6
CONTINUOUS
10
416.1392490000000066
20
-213.3788549999999873
11
416.5208669999999529
21
-215.3421089999999936
0
LINE
8
BLACK
6
CONTINUOUS
10
418.4289569999999685
20
-225.1583809999999914
11
418.8105749999999716
21
-227.1216349999999977
0
LINE
8
BLACK
6
CONTINUOUS
10
418.8105749999999716
20
-227.1216349999999977
11
416.8473209999999654
21
-227.5032530000000008
0
LINE
8
BLACK
6
CONTINUOUS
10
429.8235639999999762
20
-208.1466339999999775
11
387.7485689999999749
21
-216.3251839999999788
0
LINE
8
BLACK
6
CONTINUOUS
10
433.4584749999999644
20
-226.8466319999999996
11
391.3834799999999632
21
-235.0251820000000009
0
LINE
8
BLACK
6
CONTINUOUS
10
433.4584749999999644
20
-226.8466319999999996
11
429.8235639999999762
21
-208.1466339999999775
0
LINE
8
BLACK
6
CONTINUOUS
10
286.453314999999975
20
-294.2346459999999979
11
282.8184039999999868
21
-275.5346480000000042
0
LINE
8
BLACK
6
CONTINUOUS
10
304.4788029999999708
20
-273.8965529999999831
11
304.8604209999999739
21
-275.8598069999999893
0
LINE
8
BLACK
6
CONTINUOUS
10
306.4420569999999771
20
-273.5149349999999799
11
304.4788029999999708
21
-273.8965529999999831
0
LINE
8
BLACK
6
CONTINUOUS
10
307.1501289999999926
20
-287.6393329999999651
11
306.7685109999999895
21
-285.6760789999999588
0
LINE
8
BLACK
6
CONTINUOUS
10
309.1133829999999989
20
-287.2577149999999619
11
307.1501289999999926
21
-287.6393329999999651
0
LINE
8
BLACK
6
CONTINUOUS
10
316.2583290000000034
20
-271.6068449999999643
11
318.2215830000000096
21
-271.2252269999999612
0
LINE
8
BLACK
6
CONTINUOUS
10
318.2215830000000096
20
-271.2252269999999612
11
318.6032010000000128
21
-273.1884809999999675
0
LINE
8
BLACK
6
CONTINUOUS
10
320.5112909999999715
20
-283.0047529999999938
11
320.8929089999999746
21
-284.9680070000000001
0
LINE
8
BLACK
6
CONTINUOUS
10
320.8929089999999746
20
-284.9680070000000001
11
318.9296549999999684
21
-285.3496250000000032
0
LINE
8
BLACK
6
CONTINUOUS
10
338.9183969999999704
20
-264.6299139999999852
11
282.8184039999999868
21
-275.5346480000000042
0
LINE
8
BLACK
6
CONTINUOUS
10
342.5533079999999586
20
-283.3299119999999789
11
286.453314999999975
21
-294.2346459999999979
0
LINE
8
BLACK
6
CONTINUOUS
10
342.5533079999999586
20
-283.3299119999999789
11
338.9183969999999704
21
-264.6299139999999852
0
LINE
8
BLACK
6
CONTINUOUS
10
388.7886570000000006
20
-196.7164579999999887
11
385.1537449999999581
21
-178.0164580000000001
0
LINE
8
BLACK
6
CONTINUOUS
10
397.4641459999999711
20
-178.1958209999999951
11
397.8457639999999742
21
-180.1590750000000014
0
LINE
8
BLACK
6
CONTINUOUS
10
399.4273999999999774
20
-177.814202999999992
11
397.4641459999999711
21
-178.1958209999999951
0
LINE
8
BLACK
6
CONTINUOUS
10
400.1354719999999929
20
-191.9386009999999771
11
399.7538539999999898
21
-189.9753469999999993
0
LINE
8
BLACK
6
CONTINUOUS
10
402.0987259999999992
20
-191.5569830000000024
11
400.1354719999999929
21
-191.9386009999999771
0
LINE
8
BLACK
6
CONTINUOUS
10
409.2436720000000037
20
-175.9061130000000048
11
411.2069259999999531
21
-175.5244950000000017
0
LINE
8
BLACK
6
CONTINUOUS
10
411.2069259999999531
20
-175.5244950000000017
11
411.5885439999999562
21
-177.4877489999999796
0
LINE
8
BLACK
6
CONTINUOUS
10
413.4966339999999718
20
-187.3040209999999774
11
413.8782519999999749
21
-189.2672749999999837
0
LINE
8
BLACK
6
CONTINUOUS
10
413.8782519999999749
20
-189.2672749999999837
11
411.9149979999999687
21
-189.6488929999999868
0
LINE
8
BLACK
6
CONTINUOUS
10
422.5537410000000023
20
-170.7466379999999901
11
385.1537449999999581
21
-178.0164580000000001
0
LINE
8
BLACK
6
CONTINUOUS
10
426.188652999999988
20
-189.4466379999999788
11
388.7886570000000006
21
-196.7164579999999887
0
LINE
8
BLACK
6
CONTINUOUS
10
426.188652999999988
20
-189.4466379999999788
11
422.5537410000000023
21
-170.7466379999999901
0
LINE
8
BLACK
6
CONTINUOUS
10
180.7069850000000031
20
-286.0560939999999732
11
184.3418969999999888
21
-267.356096999999977
0
LINE
8
BLACK
6
CONTINUOUS
10
200.0298849999999788
20
-287.2398259999999937
11
200.411502999999982
21
-285.2765719999999874
0
LINE
8
BLACK
6
CONTINUOUS
10
201.9931389999999851
20
-287.6214439999999968
11
200.0298849999999788
21
-287.2398259999999937
0
LINE
8
BLACK
6
CONTINUOUS
10
202.7012110000000007
20
-273.4970460000000116
11
202.3195929999999976
21
-275.4602999999999611
0
LINE
8
BLACK
6
CONTINUOUS
10
204.6644649999999785
20
-273.8786640000000148
11
202.7012110000000007
21
-273.4970460000000116
0
LINE
8
BLACK
6
CONTINUOUS
10
213.7726649999999893
20
-289.9111519999999587
11
211.809410999999983
21
-289.5295340000000124
0
LINE
8
BLACK
6
CONTINUOUS
10
214.1542829999999924
20
-287.9478980000000092
11
213.7726649999999893
21
-289.9111519999999587
0
LINE
8
BLACK
6
CONTINUOUS
10
214.4807369999999764
20
-275.7867539999999735
11
216.4439909999999827
21
-276.1683719999999767
0
LINE
8
BLACK
6
CONTINUOUS
10
216.4439909999999827
20
-276.1683719999999767
11
216.0623729999999796
21
-278.1316259999999829
0
LINE
8
BLACK
6
CONTINUOUS
10
232.1319790000000012
20
-296.0521009999999933
11
180.7069850000000031
21
-286.0560939999999732
0
LINE
8
BLACK
6
CONTINUOUS
10
232.1319790000000012
20
-296.0521009999999933
11
235.7668909999999869
21
-277.3521039999999971
0
LINE
8
BLACK
6
CONTINUOUS
10
235.7668909999999869
20
-277.3521039999999971
11
184.3418969999999888
21
-267.356096999999977
0
LINE
8
BLACK
6
CONTINUOUS
10
385.668391999999983
20
-255.54263499999999
11
382.0334799999999973
21
-236.8426379999999938
0
LINE
8
BLACK
6
CONTINUOUS
10
401.3563800000000015
20
-235.6589060000000018
11
401.7379980000000046
21
-237.6221599999999796
0
LINE
8
BLACK
6
CONTINUOUS
10
403.3196340000000077
20
-235.2772879999999986
11
401.3563800000000015
21
-235.6589060000000018
0
LINE
8
BLACK
6
CONTINUOUS
10
404.0277059999999665
20
-249.4016859999999838
11
403.6460879999999634
21
-247.4384319999999775
0
LINE
8
BLACK
6
CONTINUOUS
10
405.9909599999999728
20
-249.0200679999999807
11
404.0277059999999665
21
-249.4016859999999838
0
LINE
8
BLACK
6
CONTINUOUS
10
413.1359059999999772
20
-233.369197999999983
11
415.0991599999999835
21
-232.9875799999999799
0
LINE
8
BLACK
6
CONTINUOUS
10
415.0991599999999835
20
-232.9875799999999799
11
415.4807779999999866
21
-234.9508339999999862
0
LINE
8
BLACK
6
CONTINUOUS
10
417.3888680000000022
20
-244.7671059999999841
11
417.7704860000000053
21
-246.7303599999999904
0
LINE
8
BLACK
6
CONTINUOUS
10
417.7704860000000053
20
-246.7303599999999904
11
415.8072319999999991
21
-247.1119779999999935
0
LINE
8
BLACK
6
CONTINUOUS
10
433.458473999999967
20
-226.8466310000000021
11
382.0334799999999973
21
-236.8426379999999938
0
LINE
8
BLACK
6
CONTINUOUS
10
437.0933859999999527
20
-245.5466279999999983
11
385.668391999999983
21
-255.54263499999999
0
LINE
8
BLACK
6
CONTINUOUS
10
437.0933859999999527
20
-245.5466279999999983
11
433.458473999999967
21
-226.8466310000000021
0
LINE
8
BLACK
6
CONTINUOUS
10
114.216904999999997
20
-253.7251799999999946
11
117.8518159999999995
21
-235.0251820000000009
0
LINE
8
BLACK
6
CONTINUOUS
10
128.8648049999999898
20
-254.0001829999999927
11
129.246422999999993
21
-252.0369289999999864
0
LINE
8
BLACK
6
CONTINUOUS
10
130.8280589999999961
20
-254.3818009999999958
11
128.8648049999999898
21
-254.0001829999999927
0
LINE
8
BLACK
6
CONTINUOUS
10
131.5361309999999833
20
-240.2574029999999823
11
131.1545129999999801
21
-242.2206569999999886
0
LINE
8
BLACK
6
CONTINUOUS
10
133.4993849999999895
20
-240.6390209999999854
11
131.5361309999999833
21
-240.2574029999999823
0
LINE
8
BLACK
6
CONTINUOUS
10
142.6075850000000003
20
-256.6715090000000146
11
140.644330999999994
21
-256.2898910000000114
0
LINE
8
BLACK
6
CONTINUOUS
10
142.9892030000000034
20
-254.7082549999999799
11
142.6075850000000003
21
-256.6715090000000146
0
LINE
8
BLACK
6
CONTINUOUS
10
143.3156569999999874
20
-242.547111000000001
11
145.2789109999999937
21
-242.9287289999999757
0
LINE
8
BLACK
6
CONTINUOUS
10
145.2789109999999937
20
-242.9287289999999757
11
144.8972929999999906
21
-244.891982999999982
0
LINE
8
BLACK
6
CONTINUOUS
10
156.2918999999999983
20
-261.9037299999999959
11
114.216904999999997
21
-253.7251799999999946
0
LINE
8
BLACK
6
CONTINUOUS
10
156.2918999999999983
20
-261.9037299999999959
11
159.9268109999999865
21
-243.2037320000000022
0
LINE
8
BLACK
6
CONTINUOUS
10
159.9268109999999865
20
-243.2037320000000022
11
117.8518159999999995
21
-235.0251820000000009
0
LINE
8
BLACK
6
CONTINUOUS
10
172.9117219999999975
20
-226.3211909999999989
11
169.2768099999999833
21
-245.0211889999999926
0
LINE
8
BLACK
6
CONTINUOUS
10
169.2768099999999833
20
-245.0211889999999926
11
150.5768119999999897
21
-241.3862769999999784
0
LINE
8
BLACK
6
CONTINUOUS
10
150.5768119999999897
20
-241.3862769999999784
11
154.2117240000000038
21
-222.6862789999999848
0
LINE
8
BLACK
6
CONTINUOUS
10
154.2117240000000038
20
-222.6862789999999848
11
172.9117219999999975
21
-226.3211909999999989
0
LINE
8
BLACK
6
CONTINUOUS
10
185.6339119999999809
20
-160.8711979999999926
11
181.9989999999999952
21
-179.5711959999999863
0
LINE
8
BLACK
6
CONTINUOUS
10
181.9989999999999952
20
-179.5711959999999863
11
163.2990020000000015
21
-175.9362840000000006
0
LINE
8
BLACK
6
CONTINUOUS
10
163.2990020000000015
20
-175.9362840000000006
11
166.9339139999999873
21
-157.2362860000000069
0
LINE
8
BLACK
6
CONTINUOUS
10
166.9339139999999873
20
-157.2362860000000069
11
185.6339119999999809
21
-160.8711979999999926
0
LINE
8
BLACK
6
CONTINUOUS
10
229.0117159999999785
20
-237.2259249999999895
11
225.3768039999999928
21
-255.9259229999999832
0
LINE
8
BLACK
6
CONTINUOUS
10
225.3768039999999928
20
-255.9259229999999832
11
206.6768059999999991
21
-252.2910109999999975
0
LINE
8
BLACK
6
CONTINUOUS
10
206.6768059999999991
20
-252.2910109999999975
11
210.3117179999999848
21
-233.5910129999999754
0
LINE
8
BLACK
6
CONTINUOUS
10
210.3117179999999848
20
-233.5910129999999754
11
229.0117159999999785
21
-237.2259249999999895
0
LINE
8
BLACK
6
CONTINUOUS
10
166.1565469999999891
20
-186.1950109999999938
11
162.5216350000000034
21
-204.8950089999999875
0
LINE
8
BLACK
6
CONTINUOUS
10
162.5216350000000034
20
-204.8950089999999875
11
143.8216369999999813
21
-201.2600970000000018
0
LINE
8
BLACK
6
CONTINUOUS
10
143.8216369999999813
20
-201.2600970000000018
11
147.4565489999999954
21
-182.5600989999999797
0
LINE
8
BLACK
6
CONTINUOUS
10
147.4565489999999954
20
-182.5600989999999797
11
166.1565469999999891
21
-186.1950109999999938
0
LINE
8
BLACK
6
CONTINUOUS
10
295.2886679999999728
20
-214.8910149999999817
11
276.5886699999999792
21
-218.5259269999999958
0
LINE
8
BLACK
6
CONTINUOUS
10
276.5886699999999792
20
-218.5259269999999958
11
272.9537579999999934
21
-199.8259290000000021
0
LINE
8
BLACK
6
CONTINUOUS
10
272.9537579999999934
20
-199.8259290000000021
11
291.6537559999999871
21
-196.191016999999988
0
LINE
8
BLACK
6
CONTINUOUS
10
291.6537559999999871
20
-196.191016999999988
11
295.2886679999999728
21
-214.8910149999999817
0
LINE
8
BLACK
6
CONTINUOUS
10
253.4268009999999833
20
-261.3782899999999927
11
249.7918889999999976
21
-280.0782879999999864
0
LINE
8
BLACK
6
CONTINUOUS
10
249.7918889999999976
20
-280.0782879999999864
11
231.0918909999999755
21
-276.4433760000000007
0
LINE
8
BLACK
6
CONTINUOUS
10
231.0918909999999755
20
-276.4433760000000007
11
234.7268029999999897
21
-257.743378000000007
0
LINE
8
BLACK
6
CONTINUOUS
10
234.7268029999999897
20
-257.743378000000007
11
253.4268009999999833
21
-261.3782899999999927
0
LINE
8
BLACK
6
CONTINUOUS
10
197.3268079999999998
20
-250.4735549999999762
11
193.6918959999999856
21
-269.1735529999999699
0
LINE
8
BLACK
6
CONTINUOUS
10
193.6918959999999856
20
-269.1735529999999699
11
174.991897999999992
21
-265.5386409999999842
0
LINE
8
BLACK
6
CONTINUOUS
10
174.991897999999992
20
-265.5386409999999842
11
178.6268100000000061
21
-246.8386429999999905
0
LINE
8
BLACK
6
CONTINUOUS
10
178.6268100000000061
20
-246.8386429999999905
11
197.3268079999999998
21
-250.4735549999999762
0
LINE
8
BLACK
6
CONTINUOUS
10
384.6283039999999573
20
-275.1513610000000085
11
365.9283059999999637
21
-278.7862729999999942
0
LINE
8
BLACK
6
CONTINUOUS
10
365.9283059999999637
20
-278.7862729999999942
11
362.293393999999978
21
-260.0862750000000005
0
LINE
8
BLACK
6
CONTINUOUS
10
362.293393999999978
20
-260.0862750000000005
11
380.9933919999999716
21
-256.4513630000000148
0
LINE
8
BLACK
6
CONTINUOUS
10
380.9933919999999716
20
-256.4513630000000148
11
384.6283039999999573
21
-275.1513610000000085
0
LINE
8
BLACK
6
CONTINUOUS
10
316.5834889999999859
20
-249.5648269999999798
11
297.8834909999999923
21
-253.1997389999999939
0
LINE
8
BLACK
6
CONTINUOUS
10
297.8834909999999923
20
-253.1997389999999939
11
294.2485790000000065
21
-234.4997410000000002
0
LINE
8
BLACK
6
CONTINUOUS
10
294.2485790000000065
20
-234.4997410000000002
11
312.9485770000000002
21
-230.8648289999999861
0
LINE
8
BLACK
6
CONTINUOUS
10
312.9485770000000002
20
-230.8648289999999861
11
316.5834889999999859
21
-249.5648269999999798
0
LINE
8
BLACK
6
CONTINUOUS
10
148.2393129999999815
20
-240.9319129999999802
11
144.6044009999999957
21
-259.6319110000000023
0
LINE
8
BLACK
6
CONTINUOUS
10
144.6044009999999957
20
-259.6319110000000023
11
125.9044029999999879
21
-255.9969989999999882
0
LINE
8
BLACK
6
CONTINUOUS
10
125.9044029999999879
20
-255.9969989999999882
11
129.5393149999999878
21
-237.2970009999999945
0
LINE
8
BLACK
6
CONTINUOUS
10
129.5393149999999878
20
-237.2970009999999945
11
148.2393129999999815
21
-240.9319129999999802
0
LINE
8
BLACK
6
CONTINUOUS
10
137.5919020000000046
20
-258.2688190000000077
11
133.9569909999999879
21
-276.9688170000000014
0
LINE
8
BLACK
6
CONTINUOUS
10
133.9569909999999879
20
-276.9688170000000014
11
110.5819939999999946
21
-272.4251769999999624
0
LINE
8
BLACK
6
CONTINUOUS
10
110.5819939999999946
20
-272.4251769999999624
11
114.216904999999997
21
-253.7251789999999971
0
LINE
8
BLACK
6
CONTINUOUS
10
114.216904999999997
20
-253.7251789999999971
11
137.5919020000000046
21
-258.2688190000000077
0
LINE
8
BLACK
6
CONTINUOUS
10
348.2683969999999931
20
-262.8124579999999924
11
329.5683989999999994
21
-266.4473699999999781
0
LINE
8
BLACK
6
CONTINUOUS
10
329.5683989999999994
20
-266.4473699999999781
11
325.9334869999999569
21
-247.7473719999999844
0
LINE
8
BLACK
6
CONTINUOUS
10
325.9334869999999569
20
-247.7473719999999844
11
344.6334850000000074
21
-244.1124599999999987
0
LINE
8
BLACK
6
CONTINUOUS
10
344.6334850000000074
20
-244.1124599999999987
11
348.2683969999999931
21
-262.8124579999999924
0
LINE
8
BLACK
6
CONTINUOUS
10
372.6834819999999695
20
-238.6600929999999892
11
353.9834839999999758
21
-242.2950049999999749
0
LINE
8
BLACK
6
CONTINUOUS
10
353.9834839999999758
20
-242.2950049999999749
11
350.3485719999999901
21
-223.5950069999999812
0
LINE
8
BLACK
6
CONTINUOUS
10
350.3485719999999901
20
-223.5950069999999812
11
369.0485699999999838
21
-219.9600949999999955
0
LINE
8
BLACK
6
CONTINUOUS
10
369.0485699999999838
20
-219.9600949999999955
11
372.6834819999999695
21
-238.6600929999999892
0
LINE
8
BLACK
6
CONTINUOUS
10
421.7709769999999594
20
-229.1184509999999932
11
403.0709789999999657
21
-232.7533629999999789
0
LINE
8
BLACK
6
CONTINUOUS
10
403.0709789999999657
20
-232.7533629999999789
11
399.43606699999998
21
-214.0533649999999852
0
LINE
8
BLACK
6
CONTINUOUS
10
399.43606699999998
20
-214.0533649999999852
11
418.1360649999999737
21
-210.4184529999999995
0
LINE
8
BLACK
6
CONTINUOUS
10
418.1360649999999737
20
-210.4184529999999995
11
421.7709769999999594
21
-229.1184509999999932
0
LINE
8
BLACK
6
CONTINUOUS
10
473.6926479999999628
20
-265.4815529999999626
11
492.7426479999999742
21
-265.4815529999999626
0
LINE
8
BLACK
6
CONTINUOUS
10
492.7426479999999742
20
-265.4815529999999626
11
492.7426479999999742
21
-246.4315529999999796
0
LINE
8
BLACK
6
CONTINUOUS
10
492.7426479999999742
20
-246.4315529999999796
11
473.6926479999999628
21
-246.4315529999999796
0
LINE
8
BLACK
6
CONTINUOUS
10
473.6926479999999628
20
-246.4315529999999796
11
473.6926479999999628
21
-265.4815529999999626
0
LINE
8
BLACK
6
CONTINUOUS
10
240.9565379999999948
20
-200.7346569999999986
11
237.3216259999999806
21
-219.4346549999999922
0
LINE
8
BLACK
6
CONTINUOUS
10
237.3216259999999806
20
-219.4346549999999922
11
218.621627999999987
21
-215.7997429999999781
0
LINE
8
BLACK
6
CONTINUOUS
10
218.621627999999987
20
-215.7997429999999781
11
222.2565400000000011
21
-197.0997449999999844
0
LINE
8
BLACK
6
CONTINUOUS
10
222.2565400000000011
20
-197.0997449999999844
11
240.9565379999999948
21
-200.7346569999999986
0
LINE
8
BLACK
6
CONTINUOUS
10
364.3735709999999699
20
-220.8688229999999919
11
345.6735729999999762
21
-224.5037349999999776
0
LINE
8
BLACK
6
CONTINUOUS
10
345.6735729999999762
20
-224.5037349999999776
11
342.0386609999999905
21
-205.8037369999999839
0
LINE
8
BLACK
6
CONTINUOUS
10
342.0386609999999905
20
-205.8037369999999839
11
360.7386589999999842
21
-202.1688249999999982
0
LINE
8
BLACK
6
CONTINUOUS
10
360.7386589999999842
20
-202.1688249999999982
11
364.3735709999999699
21
-220.8688229999999919
0
LINE
8
BLACK
6
CONTINUOUS
10
216.026804999999996
20
-254.1084669999999903
11
212.3918929999999818
21
-272.8084650000000124
0
LINE
8
BLACK
6
CONTINUOUS
10
212.3918929999999818
20
-272.8084650000000124
11
193.6918949999999882
21
-269.1735529999999699
0
LINE
8
BLACK
6
CONTINUOUS
10
193.6918949999999882
20
-269.1735529999999699
11
197.3268070000000023
21
-250.4735549999999762
0
LINE
8
BLACK
6
CONTINUOUS
10
197.3268070000000023
20
-250.4735549999999762
11
216.026804999999996
21
-254.1084669999999903
0
LINE
8
BLACK
6
CONTINUOUS
10
366.9683949999999868
20
-259.1775470000000041
11
348.2683969999999931
21
-262.8124589999999898
0
LINE
8
BLACK
6
CONTINUOUS
10
348.2683969999999931
20
-262.8124589999999898
11
344.6334850000000074
21
-244.1124609999999961
0
LINE
8
BLACK
6
CONTINUOUS
10
344.6334850000000074
20
-244.1124609999999961
11
363.3334830000000011
21
-240.477548999999982
0
LINE
8
BLACK
6
CONTINUOUS
10
363.3334830000000011
20
-240.477548999999982
11
366.9683949999999868
21
-259.1775470000000041
0
LINE
8
BLACK
6
CONTINUOUS
10
190.5716319999999939
20
-210.347375999999997
11
186.9367199999999798
21
-229.0473739999999907
0
LINE
8
BLACK
6
CONTINUOUS
10
186.9367199999999798
20
-229.0473739999999907
11
168.2367219999999861
21
-225.4124619999999766
0
LINE
8
BLACK
6
CONTINUOUS
10
168.2367219999999861
20
-225.4124619999999766
11
171.8716340000000002
21
-206.7124639999999829
0
LINE
8
BLACK
6
CONTINUOUS
10
171.8716340000000002
20
-206.7124639999999829
11
190.5716319999999939
21
-210.347375999999997
0
LINE
8
BLACK
6
CONTINUOUS
10
246.6716249999999775
20
-221.2521099999999876
11
243.0367129999999918
21
-239.9521079999999813
0
LINE
8
BLACK
6
CONTINUOUS
10
243.0367129999999918
20
-239.9521079999999813
11
224.3367149999999981
21
-236.3171959999999956
0
LINE
8
BLACK
6
CONTINUOUS
10
224.3367149999999981
20
-236.3171959999999956
11
227.9716269999999838
21
-217.6171980000000019
0
LINE
8
BLACK
6
CONTINUOUS
10
227.9716269999999838
20
-217.6171980000000019
11
246.6716249999999775
21
-221.2521099999999876
0
LINE
8
BLACK
6
CONTINUOUS
10
454.6426479999999515
20
-265.4815529999999626
11
473.6926479999999628
21
-265.4815529999999626
0
LINE
8
BLACK
6
CONTINUOUS
10
473.6926479999999628
20
-265.4815529999999626
11
473.6926479999999628
21
-246.4315529999999796
0
LINE
8
BLACK
6
CONTINUOUS
10
473.6926479999999628
20
-246.4315529999999796
11
454.6426479999999515
21
-246.4315529999999796
0
LINE
8
BLACK
6
CONTINUOUS
10
454.6426479999999515
20
-246.4315529999999796
11
454.6426479999999515
21
-265.4815529999999626
0
LINE
8
BLACK
6
CONTINUOUS
10
184.8565439999999853
20
-189.8299229999999795
11
181.2216319999999996
21
-208.5299210000000016
0
LINE
8
BLACK
6
CONTINUOUS
10
181.2216319999999996
20
-208.5299210000000016
11
162.5216340000000059
21
-204.8950089999999875
0
LINE
8
BLACK
6
CONTINUOUS
10
162.5216340000000059
20
-204.8950089999999875
11
166.1565459999999916
21
-186.1950109999999938
0
LINE
8
BLACK
6
CONTINUOUS
10
166.1565459999999916
20
-186.1950109999999938
11
184.8565439999999853
21
-189.8299229999999795
0
LINE
8
BLACK
6
CONTINUOUS
10
204.333910000000003
20
-164.5061100000000067
11
200.6989979999999889
21
-183.2061080000000004
0
LINE
8
BLACK
6
CONTINUOUS
10
200.6989979999999889
20
-183.2061080000000004
11
181.9989999999999952
21
-179.5711959999999863
0
LINE
8
BLACK
6
CONTINUOUS
10
181.9989999999999952
20
-179.5711959999999863
11
185.6339119999999809
21
-160.8711979999999926
0
LINE
8
BLACK
6
CONTINUOUS
10
185.6339119999999809
20
-160.8711979999999926
11
204.333910000000003
21
-164.5061100000000067
0
LINE
8
BLACK
6
CONTINUOUS
10
310.8684010000000058
20
-270.0822809999999663
11
292.1684030000000121
21
-273.7171930000000089
0
LINE
8
BLACK
6
CONTINUOUS
10
292.1684030000000121
20
-273.7171930000000089
11
288.5334909999999695
21
-255.0171949999999867
0
LINE
8
BLACK
6
CONTINUOUS
10
288.5334909999999695
20
-255.0171949999999867
11
307.2334889999999632
21
-251.382283000000001
0
LINE
8
BLACK
6
CONTINUOUS
10
307.2334889999999632
20
-251.382283000000001
11
310.8684010000000058
21
-270.0822809999999663
0
LINE
8
BLACK
6
CONTINUOUS
10
351.3886609999999564
20
-203.9862809999999911
11
332.6886629999999627
21
-207.6211929999999768
0
LINE
8
BLACK
6
CONTINUOUS
10
332.6886629999999627
20
-207.6211929999999768
11
329.053750999999977
21
-188.9211949999999831
0
LINE
8
BLACK
6
CONTINUOUS
10
329.053750999999977
20
-188.9211949999999831
11
347.7537489999999707
21
-185.2862829999999974
0
LINE
8
BLACK
6
CONTINUOUS
10
347.7537489999999707
20
-185.2862829999999974
11
351.3886609999999564
21
-203.9862809999999911
0
LINE
8
BLACK
6
CONTINUOUS
10
241.7339049999999929
20
-171.7759319999999832
11
238.0989929999999788
21
-190.4759300000000053
0
LINE
8
BLACK
6
CONTINUOUS
10
238.0989929999999788
20
-190.4759300000000053
11
219.3989949999999851
21
-186.8410179999999912
0
LINE
8
BLACK
6
CONTINUOUS
10
219.3989949999999851
20
-186.8410179999999912
11
223.0339069999999992
21
-168.1410199999999975
0
LINE
8
BLACK
6
CONTINUOUS
10
223.0339069999999992
20
-168.1410199999999975
11
241.7339049999999929
21
-171.7759319999999832
0
LINE
8
BLACK
6
CONTINUOUS
10
420.7308879999999931
20
-248.7271759999999858
11
402.0308899999999994
21
-252.362088
0
LINE
8
BLACK
6
CONTINUOUS
10
402.0308899999999994
20
-252.362088
11
398.3959779999999569
21
-233.6620899999999779
0
LINE
8
BLACK
6
CONTINUOUS
10
398.3959779999999569
20
-233.6620899999999779
11
417.0959760000000074
21
-230.0271779999999922
0
LINE
8
BLACK
6
CONTINUOUS
10
417.0959760000000074
20
-230.0271779999999922
11
420.7308879999999931
21
-248.7271759999999858
0
LINE
8
BLACK
6
CONTINUOUS
10
336.5862950000000069
20
-177.7537399999999934
11
317.8862970000000132
21
-181.3886519999999791
0
LINE
8
BLACK
6
CONTINUOUS
10
317.8862970000000132
20
-181.3886519999999791
11
314.2513849999999707
21
-162.6886539999999854
0
LINE
8
BLACK
6
CONTINUOUS
10
314.2513849999999707
20
-162.6886539999999854
11
332.9513829999999643
21
-159.0537419999999997
0
LINE
8
BLACK
6
CONTINUOUS
10
332.9513829999999643
20
-159.0537419999999997
11
336.5862950000000069
21
-177.7537399999999934
0
LINE
8
BLACK
6
CONTINUOUS
10
420.7362849999999526
20
-161.3966389999999933
11
402.0362869999999589
21
-165.031550999999979
0
LINE
8
BLACK
6
CONTINUOUS
10
402.0362869999999589
20
-165.031550999999979
11
398.4013749999999732
21
-146.3315529999999853
0
LINE
8
BLACK
6
CONTINUOUS
10
398.4013749999999732
20
-146.3315529999999853
11
417.1013729999999669
21
-142.6966409999999996
0
LINE
8
BLACK
6
CONTINUOUS
10
417.1013729999999669
20
-142.6966409999999996
11
420.7362849999999526
21
-161.3966389999999933
0
LINE
8
BLACK
6
CONTINUOUS
10
222.2565400000000011
20
-197.0997449999999844
11
218.621627999999987
21
-215.7997429999999781
0
LINE
8
BLACK
6
CONTINUOUS
10
218.621627999999987
20
-215.7997429999999781
11
199.9216299999999933
21
-212.1648309999999924
0
LINE
8
BLACK
6
CONTINUOUS
10
199.9216299999999933
20
-212.1648309999999924
11
203.556541999999979
21
-193.4648329999999987
0
LINE
8
BLACK
6
CONTINUOUS
10
203.556541999999979
20
-193.4648329999999987
11
222.2565400000000011
21
-197.0997449999999844
0
LINE
8
BLACK
6
CONTINUOUS
10
492.7426479999999742
20
-189.2815530000000024
11
511.7926479999999856
21
-189.2815530000000024
0
LINE
8
BLACK
6
CONTINUOUS
10
511.7926479999999856
20
-189.2815530000000024
11
511.7926479999999856
21
-170.231552999999991
0
LINE
8
BLACK
6
CONTINUOUS
10
511.7926479999999856
20
-170.231552999999991
11
492.7426479999999742
21
-170.231552999999991
0
LINE
8
BLACK
6
CONTINUOUS
10
492.7426479999999742
20
-170.231552999999991
11
492.7426479999999742
21
-189.2815530000000024
0
LINE
8
BLACK
6
CONTINUOUS
10
332.6886629999999627
20
-207.6211919999999793
11
313.988664999999969
21
-211.2561039999999934
0
LINE
8
BLACK
6
CONTINUOUS
10
313.988664999999969
20
-211.2561039999999934
11
310.3537529999999833
21
-192.5561059999999998
0
LINE
8
BLACK
6
CONTINUOUS
10
310.3537529999999833
20
-192.5561059999999998
11
329.053750999999977
21
-188.9211939999999856
0
LINE
8
BLACK
6
CONTINUOUS
10
329.053750999999977
20
-188.9211939999999856
11
332.6886629999999627
21
-207.6211919999999793
0
LINE
8
BLACK
6
CONTINUOUS
10
402.0362879999999564
20
-165.0315499999999815
11
383.3362899999999627
21
-168.6664619999999957
0
LINE
8
BLACK
6
CONTINUOUS
10
383.3362899999999627
20
-168.6664619999999957
11
379.701377999999977
21
-149.966464000000002
0
LINE
8
BLACK
6
CONTINUOUS
10
379.701377999999977
20
-149.966464000000002
11
398.4013759999999706
21
-146.3315519999999879
0
LINE
8
BLACK
6
CONTINUOUS
10
398.4013759999999706
20
-146.3315519999999879
11
402.0362879999999564
21
-165.0315499999999815
0
LINE
8
BLACK
6
CONTINUOUS
10
492.7426479999999742
20
-160.7065529999999853
11
511.7926479999999856
21
-160.7065529999999853
0
LINE
8
BLACK
6
CONTINUOUS
10
511.7926479999999856
20
-160.7065529999999853
11
511.7926479999999856
21
-141.6565530000000024
0
LINE
8
BLACK
6
CONTINUOUS
10
511.7926479999999856
20
-141.6565530000000024
11
492.7426479999999742
21
-141.6565530000000024
0
LINE
8
BLACK
6
CONTINUOUS
10
492.7426479999999742
20
-141.6565530000000024
11
492.7426479999999742
21
-160.7065529999999853
0
LINE
8
BLACK
6
CONTINUOUS
10
153.1716360000000066
20
-203.0775539999999921
11
149.5367249999999899
21
-221.7775509999999883
0
LINE
8
BLACK
6
CONTINUOUS
10
149.5367249999999899
20
-221.7775509999999883
11
121.4867279999999994
21
-216.3251839999999788
0
LINE
8
BLACK
6
CONTINUOUS
10
121.4867279999999994
20
-216.3251839999999788
11
125.1216389999999876
21
-197.6251869999999826
0
LINE
8
BLACK
6
CONTINUOUS
10
125.1216389999999876
20
-197.6251869999999826
11
153.1716360000000066
21
-203.0775539999999921
0
LINE
8
BLACK
6
CONTINUOUS
10
289.5735799999999927
20
-235.4084689999999966
11
270.873581999999999
21
-239.0433809999999824
0
LINE
8
BLACK
6
CONTINUOUS
10
270.873581999999999
20
-239.0433809999999824
11
267.2386700000000133
21
-220.3433829999999887
0
LINE
8
BLACK
6
CONTINUOUS
10
267.2386700000000133
20
-220.3433829999999887
11
285.9386680000000069
21
-216.708471000000003
0
LINE
8
BLACK
6
CONTINUOUS
10
285.9386680000000069
20
-216.708471000000003
11
289.5735799999999927
21
-235.4084689999999966
0
LINE
8
BLACK
6
CONTINUOUS
10
323.8533109999999624
20
-286.9648229999999671
11
305.1533129999999687
21
-290.5997350000000097
0
LINE
8
BLACK
6
CONTINUOUS
10
305.1533129999999687
20
-290.5997350000000097
11
301.518400999999983
21
-271.899737000000016
0
LINE
8
BLACK
6
CONTINUOUS
10
301.518400999999983
20
-271.899737000000016
11
320.2183989999999767
21
-268.2648249999999734
0
LINE
8
BLACK
6
CONTINUOUS
10
320.2183989999999767
20
-268.2648249999999734
11
323.8533109999999624
21
-286.9648229999999671
0
LINE
8
BLACK
6
CONTINUOUS
10
345.6735739999999737
20
-224.5037339999999801
11
326.97357599999998
21
-228.1386459999999943
0
LINE
8
BLACK
6
CONTINUOUS
10
326.97357599999998
20
-228.1386459999999943
11
323.3386639999999943
21
-209.4386480000000006
0
LINE
8
BLACK
6
CONTINUOUS
10
323.3386639999999943
20
-209.4386480000000006
11
342.038661999999988
21
-205.8037359999999865
0
LINE
8
BLACK
6
CONTINUOUS
10
342.038661999999988
20
-205.8037359999999865
11
345.6735739999999737
21
-224.5037339999999801
0
LINE
8
BLACK
6
CONTINUOUS
10
416.8386539999999627
20
-191.2640909999999792
11
398.138655999999969
21
-194.8990029999999933
0
LINE
8
BLACK
6
CONTINUOUS
10
398.138655999999969
20
-194.8990029999999933
11
394.5037439999999833
21
-176.1990049999999997
0
LINE
8
BLACK
6
CONTINUOUS
10
394.5037439999999833
20
-176.1990049999999997
11
413.203741999999977
21
-172.5640929999999855
0
LINE
8
BLACK
6
CONTINUOUS
10
413.203741999999977
20
-172.5640929999999855
11
416.8386539999999627
21
-191.2640909999999792
0
LINE
8
BLACK
6
CONTINUOUS
10
299.1862989999999627
20
-185.0235629999999958
11
280.486300999999969
21
-188.6584749999999815
0
LINE
8
BLACK
6
CONTINUOUS
10
280.486300999999969
20
-188.6584749999999815
11
276.8513889999999833
21
-169.9584769999999878
0
LINE
8
BLACK
6
CONTINUOUS
10
276.8513889999999833
20
-169.9584769999999878
11
295.551386999999977
21
-166.3235650000000021
0
LINE
8
BLACK
6
CONTINUOUS
10
295.551386999999977
20
-166.3235650000000021
11
299.1862989999999627
21
-185.0235629999999958
0
LINE
8
BLACK
6
CONTINUOUS
10
234.7268029999999897
20
-257.743378000000007
11
231.0918909999999755
21
-276.4433760000000007
0
LINE
8
BLACK
6
CONTINUOUS
10
231.0918909999999755
20
-276.4433760000000007
11
212.3918929999999818
21
-272.8084640000000149
0
LINE
8
BLACK
6
CONTINUOUS
10
212.3918929999999818
20
-272.8084640000000149
11
216.026804999999996
21
-254.1084659999999928
0
LINE
8
BLACK
6
CONTINUOUS
10
216.026804999999996
20
-254.1084659999999928
11
234.7268029999999897
21
-257.743378000000007
0
LINE
8
BLACK
6
CONTINUOUS
10
147.4565489999999954
20
-182.5601000000000056
11
143.8216369999999813
21
-201.2600979999999993
0
LINE
8
BLACK
6
CONTINUOUS
10
143.8216369999999813
20
-201.2600979999999993
11
125.1216389999999876
21
-197.6251859999999851
0
LINE
8
BLACK
6
CONTINUOUS
10
125.1216389999999876
20
-197.6251859999999851
11
128.7565510000000017
21
-178.9251879999999915
0
LINE
8
BLACK
6
CONTINUOUS
10
128.7565510000000017
20
-178.9251879999999915
11
147.4565489999999954
21
-182.5601000000000056
0
LINE
8
BLACK
6
CONTINUOUS
10
171.8716340000000002
20
-206.7124649999999804
11
168.2367219999999861
21
-225.4124630000000025
0
LINE
8
BLACK
6
CONTINUOUS
10
168.2367219999999861
20
-225.4124630000000025
11
149.5367239999999924
21
-221.7775509999999883
0
LINE
8
BLACK
6
CONTINUOUS
10
149.5367239999999924
20
-221.7775509999999883
11
153.1716360000000066
21
-203.0775529999999947
0
LINE
8
BLACK
6
CONTINUOUS
10
153.1716360000000066
20
-203.0775529999999947
11
171.8716340000000002
21
-206.7124649999999804
0
LINE
8
BLACK
6
CONTINUOUS
10
223.0339079999999967
20
-168.141020999999995
11
219.3989959999999826
21
-186.8410189999999886
0
LINE
8
BLACK
6
CONTINUOUS
10
219.3989959999999826
20
-186.8410189999999886
11
200.6989979999999889
21
-183.2061070000000029
0
LINE
8
BLACK
6
CONTINUOUS
10
200.6989979999999889
20
-183.2061070000000029
11
204.333910000000003
21
-164.5061089999999808
0
LINE
8
BLACK
6
CONTINUOUS
10
204.333910000000003
20
-164.5061089999999808
11
223.0339079999999967
21
-168.141020999999995
0
LINE
8
BLACK
6
CONTINUOUS
10
317.8862970000000132
20
-181.3886509999999817
11
299.1862989999999627
21
-185.0235629999999958
0
LINE
8
BLACK
6
CONTINUOUS
10
299.1862989999999627
20
-185.0235629999999958
11
295.551386999999977
21
-166.3235650000000021
0
LINE
8
BLACK
6
CONTINUOUS
10
295.551386999999977
20
-166.3235650000000021
11
314.2513849999999707
21
-162.688652999999988
0
LINE
8
BLACK
6
CONTINUOUS
10
314.2513849999999707
20
-162.688652999999988
11
317.8862970000000132
21
-181.3886509999999817
0
LINE
8
BLACK
6
CONTINUOUS
10
152.9089160000000049
20
-154.5101029999999867
11
149.2740039999999908
21
-173.2101009999999803
0
LINE
8
BLACK
6
CONTINUOUS
10
149.2740039999999908
20
-173.2101009999999803
11
130.5740059999999971
21
-169.5751889999999946
0
LINE
8
BLACK
6
CONTINUOUS
10
130.5740059999999971
20
-169.5751889999999946
11
134.2089179999999828
21
-150.8751910000000009
0
LINE
8
BLACK
6
CONTINUOUS
10
134.2089179999999828
20
-150.8751910000000009
11
152.9089160000000049
21
-154.5101029999999867
0
LINE
8
BLACK
6
CONTINUOUS
10
473.6926479999999628
20
-208.3315529999999853
11
492.7426479999999742
21
-208.3315529999999853
0
LINE
8
BLACK
6
CONTINUOUS
10
492.7426479999999742
20
-208.3315529999999853
11
492.7426479999999742
21
-189.2815530000000024
0
LINE
8
BLACK
6
CONTINUOUS
10
492.7426479999999742
20
-189.2815530000000024
11
473.6926479999999628
21
-189.2815530000000024
0
LINE
8
BLACK
6
CONTINUOUS
10
473.6926479999999628
20
-189.2815530000000024
11
473.6926479999999628
21
-208.3315529999999853
0
LINE
8
BLACK
6
CONTINUOUS
10
365.9283059999999637
20
-278.7862719999999968
11
342.5533089999999561
21
-283.3299119999999789
0
LINE
8
BLACK
6
CONTINUOUS
10
342.5533089999999561
20
-283.3299119999999789
11
338.9183979999999679
21
-264.6299139999999852
0
LINE
8
BLACK
6
CONTINUOUS
10
338.9183979999999679
20
-264.6299139999999852
11
362.2933949999999754
21
-260.0862740000000031
0
LINE
8
BLACK
6
CONTINUOUS
10
362.2933949999999754
20
-260.0862740000000031
11
365.9283059999999637
21
-278.7862719999999968
0
LINE
8
BLACK
6
CONTINUOUS
10
454.6426479999999515
20
-208.3315529999999853
11
473.6926479999999628
21
-208.3315529999999853
0
LINE
8
BLACK
6
CONTINUOUS
10
473.6926479999999628
20
-208.3315529999999853
11
473.6926479999999628
21
-189.2815530000000024
0
LINE
8
BLACK
6
CONTINUOUS
10
473.6926479999999628
20
-189.2815530000000024
11
454.6426479999999515
21
-189.2815530000000024
0
LINE
8
BLACK
6
CONTINUOUS
10
454.6426479999999515
20
-189.2815530000000024
11
454.6426479999999515
21
-208.3315529999999853
0
LINE
8
BLACK
6
CONTINUOUS
10
391.3834799999999632
20
-235.0251820000000009
11
372.6834819999999695
21
-238.6600939999999866
0
LINE
8
BLACK
6
CONTINUOUS
10
372.6834819999999695
20
-238.6600939999999866
11
369.0485699999999838
21
-219.960095999999993
0
LINE
8
BLACK
6
CONTINUOUS
10
369.0485699999999838
20
-219.960095999999993
11
387.7485679999999775
21
-216.3251839999999788
0
LINE
8
BLACK
6
CONTINUOUS
10
387.7485679999999775
20
-216.3251839999999788
11
391.3834799999999632
21
-235.0251820000000009
0
LINE
8
BLACK
6
CONTINUOUS
10
385.668391999999983
20
-255.54263499999999
11
366.9683939999999893
21
-259.1775470000000041
0
LINE
8
BLACK
6
CONTINUOUS
10
366.9683939999999893
20
-259.1775470000000041
11
363.3334820000000036
21
-240.477548999999982
0
LINE
8
BLACK
6
CONTINUOUS
10
363.3334820000000036
20
-240.477548999999982
11
382.0334799999999973
21
-236.8426369999999963
0
LINE
8
BLACK
6
CONTINUOUS
10
382.0334799999999973
20
-236.8426369999999963
11
385.668391999999983
21
-255.54263499999999
0
LINE
8
BLACK
6
CONTINUOUS
10
313.988664999999969
20
-211.2561039999999934
11
295.2886669999999754
21
-214.8910159999999792
0
LINE
8
BLACK
6
CONTINUOUS
10
295.2886669999999754
20
-214.8910159999999792
11
291.6537549999999896
21
-196.1910179999999855
0
LINE
8
BLACK
6
CONTINUOUS
10
291.6537549999999896
20
-196.1910179999999855
11
310.3537529999999833
21
-192.5561059999999998
0
LINE
8
BLACK
6
CONTINUOUS
10
310.3537529999999833
20
-192.5561059999999998
11
313.988664999999969
21
-211.2561039999999934
0
LINE
8
BLACK
6
CONTINUOUS
10
473.6926479999999628
20
-189.2815530000000024
11
492.7426479999999742
21
-189.2815530000000024
0
LINE
8
BLACK
6
CONTINUOUS
10
492.7426479999999742
20
-189.2815530000000024
11
492.7426479999999742
21
-170.231552999999991
0
LINE
8
BLACK
6
CONTINUOUS
10
492.7426479999999742
20
-170.231552999999991
11
473.6926479999999628
21
-170.231552999999991
0
LINE
8
BLACK
6
CONTINUOUS
10
473.6926479999999628
20
-170.231552999999991
11
473.6926479999999628
21
-189.2815530000000024
0
LINE
8
BLACK
6
CONTINUOUS
10
473.6926479999999628
20
-160.7065529999999853
11
492.7426479999999742
21
-160.7065529999999853
0
LINE
8
BLACK
6
CONTINUOUS
10
492.7426479999999742
20
-160.7065529999999853
11
492.7426479999999742
21
-141.6565530000000024
0
LINE
8
BLACK
6
CONTINUOUS
10
492.7426479999999742
20
-141.6565530000000024
11
473.6926479999999628
21
-141.6565530000000024
0
LINE
8
BLACK
6
CONTINUOUS
10
473.6926479999999628
20
-141.6565530000000024
11
473.6926479999999628
21
-160.7065529999999853
0
LINE
8
BLACK
6
CONTINUOUS
10
308.2735779999999863
20
-231.7735569999999825
11
289.5735799999999927
21
-235.4084689999999966
0
LINE
8
BLACK
6
CONTINUOUS
10
289.5735799999999927
20
-235.4084689999999966
11
285.9386680000000069
21
-216.708471000000003
0
LINE
8
BLACK
6
CONTINUOUS
10
285.9386680000000069
20
-216.708471000000003
11
304.6386660000000006
21
-213.0735589999999888
0
LINE
8
BLACK
6
CONTINUOUS
10
304.6386660000000006
20
-213.0735589999999888
11
308.2735779999999863
21
-231.7735569999999825
0
LINE
8
BLACK
6
CONTINUOUS
10
422.0283000000000015
20
-267.8815379999999777
11
403.3283020000000079
21
-271.5164499999999634
0
LINE
8
BLACK
6
CONTINUOUS
10
403.3283020000000079
20
-271.5164499999999634
11
399.6933899999999653
21
-252.8164519999999982
0
LINE
8
BLACK
6
CONTINUOUS
10
399.6933899999999653
20
-252.8164519999999982
11
418.393387999999959
21
-249.181539999999984
0
LINE
8
BLACK
6
CONTINUOUS
10
418.393387999999959
20
-249.181539999999984
11
422.0283000000000015
21
-267.8815379999999777
0
LINE
8
BLACK
6
CONTINUOUS
10
353.9834839999999758
20
-242.2950039999999774
11
335.2834859999999821
21
-245.9299159999999915
0
LINE
8
BLACK
6
CONTINUOUS
10
335.2834859999999821
20
-245.9299159999999915
11
331.6485739999999964
21
-227.2299179999999978
0
LINE
8
BLACK
6
CONTINUOUS
10
331.6485739999999964
20
-227.2299179999999978
11
350.3485719999999901
21
-223.5950059999999837
0
LINE
8
BLACK
6
CONTINUOUS
10
350.3485719999999901
20
-223.5950059999999837
11
353.9834839999999758
21
-242.2950039999999774
0
LINE
8
BLACK
6
CONTINUOUS
10
364.636291999999969
20
-172.3013729999999839
11
345.9362939999999753
21
-175.936284999999998
0
LINE
8
BLACK
6
CONTINUOUS
10
345.9362939999999753
20
-175.936284999999998
11
342.3013819999999896
21
-157.2362870000000044
0
LINE
8
BLACK
6
CONTINUOUS
10
342.3013819999999896
20
-157.2362870000000044
11
361.0013799999999833
21
-153.6013749999999902
0
LINE
8
BLACK
6
CONTINUOUS
10
361.0013799999999833
20
-153.6013749999999902
11
364.636291999999969
21
-172.3013729999999839
0
LINE
8
BLACK
6
CONTINUOUS
10
219.4043929999999989
20
-274.1715560000000096
11
215.7694809999999848
21
-292.8715540000000033
0
LINE
8
BLACK
6
CONTINUOUS
10
215.7694809999999848
20
-292.8715540000000033
11
197.0694829999999911
21
-289.2366419999999607
0
LINE
8
BLACK
6
CONTINUOUS
10
197.0694829999999911
20
-289.2366419999999607
11
200.7043949999999768
21
-270.536643999999967
0
LINE
8
BLACK
6
CONTINUOUS
10
200.7043949999999768
20
-270.536643999999967
11
219.4043929999999989
21
-274.1715560000000096
0
LINE
8
BLACK
6
CONTINUOUS
10
178.6268100000000061
20
-246.838643999999988
11
174.991897999999992
21
-265.5386419999999816
0
LINE
8
BLACK
6
CONTINUOUS
10
174.991897999999992
20
-265.5386419999999816
11
156.2918999999999983
21
-261.9037299999999959
0
LINE
8
BLACK
6
CONTINUOUS
10
156.2918999999999983
20
-261.9037299999999959
11
159.926811999999984
21
-243.2037320000000022
0
LINE
8
BLACK
6
CONTINUOUS
10
159.926811999999984
20
-243.2037320000000022
11
178.6268100000000061
21
-246.838643999999988
0
LINE
8
BLACK
6
CONTINUOUS
10
454.6426479999999515
20
-160.7065529999999853
11
473.6926479999999628
21
-160.7065529999999853
0
LINE
8
BLACK
6
CONTINUOUS
10
473.6926479999999628
20
-160.7065529999999853
11
473.6926479999999628
21
-141.6565530000000024
0
LINE
8
BLACK
6
CONTINUOUS
10
473.6926479999999628
20
-141.6565530000000024
11
454.6426479999999515
21
-141.6565530000000024
0
LINE
8
BLACK
6
CONTINUOUS
10
454.6426479999999515
20
-141.6565530000000024
11
454.6426479999999515
21
-160.7065529999999853
0
LINE
8
BLACK
6
CONTINUOUS
10
227.9716279999999813
20
-217.6171989999999994
11
224.3367159999999956
21
-236.3171969999999931
0
LINE
8
BLACK
6
CONTINUOUS
10
224.3367159999999956
20
-236.3171969999999931
11
205.6367180000000019
21
-232.6822849999999789
0
LINE
8
BLACK
6
CONTINUOUS
10
205.6367180000000019
20
-232.6822849999999789
11
209.2716299999999876
21
-213.9822869999999853
0
LINE
8
BLACK
6
CONTINUOUS
10
209.2716299999999876
20
-213.9822869999999853
11
227.9716279999999813
21
-217.6171989999999994
0
LINE
8
BLACK
6
CONTINUOUS
10
401.7735669999999573
20
-213.5989999999999895
11
383.0735689999999636
21
-217.2339120000000037
0
LINE
8
BLACK
6
CONTINUOUS
10
383.0735689999999636
20
-217.2339120000000037
11
379.4386569999999779
21
-198.5339139999999816
0
LINE
8
BLACK
6
CONTINUOUS
10
379.4386569999999779
20
-198.5339139999999816
11
398.1386549999999716
21
-194.8990019999999959
0
LINE
8
BLACK
6
CONTINUOUS
10
398.1386549999999716
20
-194.8990019999999959
11
401.7735669999999573
21
-213.5989999999999895
0
LINE
8
BLACK
6
CONTINUOUS
10
191.6117199999999912
20
-229.9561019999999871
11
187.9768080000000054
21
-248.6560999999999808
0
LINE
8
BLACK
6
CONTINUOUS
10
187.9768080000000054
20
-248.6560999999999808
11
169.2768099999999833
21
-245.0211879999999951
0
LINE
8
BLACK
6
CONTINUOUS
10
169.2768099999999833
20
-245.0211879999999951
11
172.9117219999999975
21
-226.3211900000000014
0
LINE
8
BLACK
6
CONTINUOUS
10
172.9117219999999975
20
-226.3211900000000014
11
191.6117199999999912
21
-229.9561019999999871
0
LINE
8
BLACK
6
CONTINUOUS
10
388.7886570000000006
20
-196.7164579999999887
11
370.0886590000000069
21
-200.3513700000000028
0
LINE
8
BLACK
6
CONTINUOUS
10
370.0886590000000069
20
-200.3513700000000028
11
366.4537469999999644
21
-181.6513719999999807
0
LINE
8
BLACK
6
CONTINUOUS
10
366.4537469999999644
20
-181.6513719999999807
11
385.1537449999999581
21
-178.016459999999995
0
LINE
8
BLACK
6
CONTINUOUS
10
385.1537449999999581
20
-178.016459999999995
11
388.7886570000000006
21
-196.7164579999999887
0
LINE
8
BLACK
6
CONTINUOUS
10
259.65653599999996
20
-204.3695679999999868
11
256.0216239999999743
21
-223.0695659999999805
0
LINE
8
BLACK
6
CONTINUOUS
10
256.0216239999999743
20
-223.0695659999999805
11
237.3216259999999806
21
-219.4346539999999948
0
LINE
8
BLACK
6
CONTINUOUS
10
237.3216259999999806
20
-219.4346539999999948
11
240.9565379999999948
21
-200.7346560000000011
0
LINE
8
BLACK
6
CONTINUOUS
10
240.9565379999999948
20
-200.7346560000000011
11
259.65653599999996
21
-204.3695679999999868
0
LINE
8
BLACK
6
CONTINUOUS
10
454.6426479999999515
20
-189.2815530000000024
11
473.6926479999999628
21
-189.2815530000000024
0
LINE
8
BLACK
6
CONTINUOUS
10
473.6926479999999628
20
-189.2815530000000024
11
473.6926479999999628
21
-170.231552999999991
0
LINE
8
BLACK
6
CONTINUOUS
10
473.6926479999999628
20
-170.231552999999991
11
454.6426479999999515
21
-170.231552999999991
0
LINE
8
BLACK
6
CONTINUOUS
10
454.6426479999999515
20
-170.231552999999991
11
454.6426479999999515
21
-189.2815530000000024
0
LINE
8
BLACK
6
CONTINUOUS
10
209.2716299999999876
20
-213.9822879999999827
11
205.6367180000000019
21
-232.6822859999999764
0
LINE
8
BLACK
6
CONTINUOUS
10
205.6367180000000019
20
-232.6822859999999764
11
186.9367199999999798
21
-229.0473739999999907
0
LINE
8
BLACK
6
CONTINUOUS
10
186.9367199999999798
20
-229.0473739999999907
11
190.5716319999999939
21
-210.347375999999997
0
LINE
8
BLACK
6
CONTINUOUS
10
190.5716319999999939
20
-210.347375999999997
11
209.2716299999999876
21
-213.9822879999999827
0
LINE
8
BLACK
6
CONTINUOUS
10
326.97357599999998
20
-228.1386459999999943
11
308.2735779999999863
21
-231.77355799999998
0
LINE
8
BLACK
6
CONTINUOUS
10
308.2735779999999863
20
-231.77355799999998
11
304.6386660000000006
21
-213.0735599999999863
0
LINE
8
BLACK
6
CONTINUOUS
10
304.6386660000000006
20
-213.0735599999999863
11
323.3386639999999943
21
-209.4386480000000006
0
LINE
8
BLACK
6
CONTINUOUS
10
323.3386639999999943
20
-209.4386480000000006
11
326.97357599999998
21
-228.1386459999999943
0
LINE
8
BLACK
6
CONTINUOUS
10
492.7426479999999742
20
-265.4815529999999626
11
511.7926479999999856
21
-265.4815529999999626
0
LINE
8
BLACK
6
CONTINUOUS
10
511.7926479999999856
20
-265.4815529999999626
11
511.7926479999999856
21
-246.4315529999999796
0
LINE
8
BLACK
6
CONTINUOUS
10
511.7926479999999856
20
-246.4315529999999796
11
492.7426479999999742
21
-246.4315529999999796
0
LINE
8
BLACK
6
CONTINUOUS
10
492.7426479999999742
20
-246.4315529999999796
11
492.7426479999999742
21
-265.4815529999999626
0
LINE
8
BLACK
6
CONTINUOUS
10
383.0735689999999636
20
-217.2339120000000037
11
364.3735709999999699
21
-220.8688239999999894
0
LINE
8
BLACK
6
CONTINUOUS
10
364.3735709999999699
20
-220.8688239999999894
11
360.7386589999999842
21
-202.1688259999999957
0
LINE
8
BLACK
6
CONTINUOUS
10
360.7386589999999842
20
-202.1688259999999957
11
379.4386569999999779
21
-198.5339139999999816
0
LINE
8
BLACK
6
CONTINUOUS
10
379.4386569999999779
20
-198.5339139999999816
11
383.0735689999999636
21
-217.2339120000000037
0
LINE
8
BLACK
6
CONTINUOUS
10
203.556541999999979
20
-193.4648339999999962
11
199.9216299999999933
21
-212.1648319999999899
0
LINE
8
BLACK
6
CONTINUOUS
10
199.9216299999999933
20
-212.1648319999999899
11
181.2216319999999996
21
-208.5299200000000042
0
LINE
8
BLACK
6
CONTINUOUS
10
181.2216319999999996
20
-208.5299200000000042
11
184.8565439999999853
21
-189.8299219999999821
0
LINE
8
BLACK
6
CONTINUOUS
10
184.8565439999999853
20
-189.8299219999999821
11
203.556541999999979
21
-193.4648339999999962
0
LINE
8
BLACK
6
CONTINUOUS
10
403.3283020000000079
20
-271.5164499999999634
11
384.6283039999999573
21
-275.151362000000006
0
LINE
8
BLACK
6
CONTINUOUS
10
384.6283039999999573
20
-275.151362000000006
11
380.9933919999999716
21
-256.4513640000000123
0
LINE
8
BLACK
6
CONTINUOUS
10
380.9933919999999716
20
-256.4513640000000123
11
399.6933899999999653
21
-252.8164519999999982
0
LINE
8
BLACK
6
CONTINUOUS
10
399.6933899999999653
20
-252.8164519999999982
11
403.3283020000000079
21
-271.5164499999999634
0
LINE
8
BLACK
6
CONTINUOUS
10
492.7426479999999742
20
-208.3315529999999853
11
511.7926479999999856
21
-208.3315529999999853
0
LINE
8
BLACK
6
CONTINUOUS
10
511.7926479999999856
20
-208.3315529999999853
11
511.7926479999999856
21
-189.2815530000000024
0
LINE
8
BLACK
6
CONTINUOUS
10
511.7926479999999856
20
-189.2815530000000024
11
492.7426479999999742
21
-189.2815530000000024
0
LINE
8
BLACK
6
CONTINUOUS
10
492.7426479999999742
20
-189.2815530000000024
11
492.7426479999999742
21
-208.3315529999999853
0
LINE
8
BLACK
6
CONTINUOUS
10
210.3117179999999848
20
-233.5910129999999754
11
206.6768059999999991
21
-252.2910109999999975
0
LINE
8
BLACK
6
CONTINUOUS
10
206.6768059999999991
20
-252.2910109999999975
11
187.9768080000000054
21
-248.6560989999999833
0
LINE
8
BLACK
6
CONTINUOUS
10
187.9768080000000054
20
-248.6560989999999833
11
191.6117199999999912
21
-229.9561009999999897
0
LINE
8
BLACK
6
CONTINUOUS
10
191.6117199999999912
20
-229.9561009999999897
11
210.3117179999999848
21
-233.5910129999999754
0
LINE
8
BLACK
6
CONTINUOUS
10
383.3362899999999627
20
-168.6664609999999982
11
364.636291999999969
21
-172.3013729999999839
0
LINE
8
BLACK
6
CONTINUOUS
10
364.636291999999969
20
-172.3013729999999839
11
361.0013799999999833
21
-153.6013749999999902
0
LINE
8
BLACK
6
CONTINUOUS
10
361.0013799999999833
20
-153.6013749999999902
11
379.701377999999977
21
-149.9664630000000045
0
LINE
8
BLACK
6
CONTINUOUS
10
379.701377999999977
20
-149.9664630000000045
11
383.3362899999999627
21
-168.6664609999999982
0
LINE
8
BLACK
6
CONTINUOUS
10
184.3418969999999888
20
-267.3560979999999745
11
180.7069860000000006
21
-286.0560959999999682
0
LINE
8
BLACK
6
CONTINUOUS
10
180.7069860000000006
20
-286.0560959999999682
11
157.331988999999993
21
-281.512455999999986
0
LINE
8
BLACK
6
CONTINUOUS
10
157.331988999999993
20
-281.512455999999986
11
160.9668999999999812
21
-262.8124579999999924
0
LINE
8
BLACK
6
CONTINUOUS
10
160.9668999999999812
20
-262.8124579999999924
11
184.3418969999999888
21
-267.3560979999999745
0
LINE
8
BLACK
6
CONTINUOUS
10
370.0886590000000069
20
-200.3513700000000028
11
351.3886609999999564
21
-203.9862819999999886
0
LINE
8
BLACK
6
CONTINUOUS
10
351.3886609999999564
20
-203.9862819999999886
11
347.7537489999999707
21
-185.2862839999999949
0
LINE
8
BLACK
6
CONTINUOUS
10
347.7537489999999707
20
-185.2862839999999949
11
366.4537469999999644
21
-181.6513719999999807
0
LINE
8
BLACK
6
CONTINUOUS
10
366.4537469999999644
20
-181.6513719999999807
11
370.0886590000000069
21
-200.3513700000000028
0
LINE
8
BLACK
6
CONTINUOUS
10
297.8834909999999923
20
-253.1997389999999939
11
279.1834929999999986
21
-256.834651000000008
0
LINE
8
BLACK
6
CONTINUOUS
10
279.1834929999999986
20
-256.834651000000008
11
275.5485810000000129
21
-238.1346529999999859
0
LINE
8
BLACK
6
CONTINUOUS
10
275.5485810000000129
20
-238.1346529999999859
11
294.2485790000000065
21
-234.4997410000000002
0
LINE
8
BLACK
6
CONTINUOUS
10
294.2485790000000065
20
-234.4997410000000002
11
297.8834909999999923
21
-253.1997389999999939
0
LINE
8
BLACK
6
CONTINUOUS
10
335.2834869999999796
20
-245.9299159999999915
11
316.5834889999999859
21
-249.5648279999999772
0
LINE
8
BLACK
6
CONTINUOUS
10
316.5834889999999859
20
-249.5648279999999772
11
312.9485770000000002
21
-230.8648299999999836
0
LINE
8
BLACK
6
CONTINUOUS
10
312.9485770000000002
20
-230.8648299999999836
11
331.6485749999999939
21
-227.2299179999999978
0
LINE
8
BLACK
6
CONTINUOUS
10
331.6485749999999939
20
-227.2299179999999978
11
335.2834869999999796
21
-245.9299159999999915
0
LINE
8
BLACK
6
CONTINUOUS
10
429.8235629999999787
20
-208.14663299999998
11
401.7735659999999598
21
-213.5989999999999895
0
LINE
8
BLACK
6
CONTINUOUS
10
401.7735659999999598
20
-213.5989999999999895
11
398.1386549999999716
21
-194.8990029999999933
0
LINE
8
BLACK
6
CONTINUOUS
10
398.1386549999999716
20
-194.8990029999999933
11
426.1886519999999905
21
-189.4466359999999838
0
LINE
8
BLACK
6
CONTINUOUS
10
426.1886519999999905
20
-189.4466359999999838
11
429.8235629999999787
21
-208.14663299999998
0
LINE
8
BLACK
6
CONTINUOUS
10
280.4863019999999665
20
-188.658473999999984
11
261.7863039999999728
21
-192.2933859999999981
0
LINE
8
BLACK
6
CONTINUOUS
10
261.7863039999999728
20
-192.2933859999999981
11
258.1513919999999871
21
-173.5933880000000045
0
LINE
8
BLACK
6
CONTINUOUS
10
258.1513919999999871
20
-173.5933880000000045
11
276.8513899999999808
21
-169.9584759999999903
0
LINE
8
BLACK
6
CONTINUOUS
10
276.8513899999999808
20
-169.9584759999999903
11
280.4863019999999665
21
-188.658473999999984
0
LINE
8
BLACK
6
CONTINUOUS
10
160.9668989999999837
20
-262.8124589999999898
11
157.3319879999999955
21
-281.5124569999999835
0
LINE
8
BLACK
6
CONTINUOUS
10
157.3319879999999955
20
-281.5124569999999835
11
133.9569909999999879
21
-276.9688170000000014
0
LINE
8
BLACK
6
CONTINUOUS
10
133.9569909999999879
20
-276.9688170000000014
11
137.5919020000000046
21
-258.2688190000000077
0
LINE
8
BLACK
6
CONTINUOUS
10
137.5919020000000046
20
-258.2688190000000077
11
160.9668989999999837
21
-262.8124589999999898
0
LINE
8
BLACK
6
CONTINUOUS
10
247.7117140000000006
20
-240.8608359999999777
11
244.0768019999999865
21
-259.5608339999999998
0
LINE
8
BLACK
6
CONTINUOUS
10
244.0768019999999865
20
-259.5608339999999998
11
225.3768039999999928
21
-255.9259219999999857
0
LINE
8
BLACK
6
CONTINUOUS
10
225.3768039999999928
20
-255.9259219999999857
11
229.0117159999999785
21
-237.225923999999992
0
LINE
8
BLACK
6
CONTINUOUS
10
229.0117159999999785
20
-237.225923999999992
11
247.7117140000000006
21
-240.8608359999999777
0
LINE
8
BLACK
6
CONTINUOUS
10
292.1684030000000121
20
-273.7171920000000114
11
273.4684049999999615
21
-277.3521039999999971
0
LINE
8
BLACK
6
CONTINUOUS
10
273.4684049999999615
20
-277.3521039999999971
11
269.8334929999999758
21
-258.6521060000000034
0
LINE
8
BLACK
6
CONTINUOUS
10
269.8334929999999758
20
-258.6521060000000034
11
288.5334909999999695
21
-255.0171939999999893
0
LINE
8
BLACK
6
CONTINUOUS
10
288.5334909999999695
20
-255.0171939999999893
11
292.1684030000000121
21
-273.7171920000000114
0
LINE
8
BLACK
6
CONTINUOUS
10
473.6926479999999628
20
-246.4315529999999796
11
492.7426479999999742
21
-246.4315529999999796
0
LINE
8
BLACK
6
CONTINUOUS
10
492.7426479999999742
20
-246.4315529999999796
11
492.7426479999999742
21
-227.3815529999999967
0
LINE
8
BLACK
6
CONTINUOUS
10
492.7426479999999742
20
-227.3815529999999967
11
473.6926479999999628
21
-227.3815529999999967
0
LINE
8
BLACK
6
CONTINUOUS
10
473.6926479999999628
20
-227.3815529999999967
11
473.6926479999999628
21
-246.4315529999999796
0
LINE
8
BLACK
6
CONTINUOUS
10
329.5683989999999994
20
-266.4473689999999806
11
310.8684010000000058
21
-270.0822809999999663
0
LINE
8
BLACK
6
CONTINUOUS
10
310.8684010000000058
20
-270.0822809999999663
11
307.2334889999999632
21
-251.382283000000001
0
LINE
8
BLACK
6
CONTINUOUS
10
307.2334889999999632
20
-251.382283000000001
11
325.9334869999999569
21
-247.7473709999999869
0
LINE
8
BLACK
6
CONTINUOUS
10
325.9334869999999569
20
-247.7473709999999869
11
329.5683989999999994
21
-266.4473689999999806
0
LINE
8
BLACK
6
CONTINUOUS
10
158.8867229999999893
20
-223.5950059999999837
11
155.251812000000001
21
-242.2950039999999774
0
LINE
8
BLACK
6
CONTINUOUS
10
155.251812000000001
20
-242.2950039999999774
11
122.5268159999999966
21
-235.9339089999999999
0
LINE
8
BLACK
6
CONTINUOUS
10
122.5268159999999966
20
-235.9339089999999999
11
126.1617269999999991
21
-217.2339109999999778
0
LINE
8
BLACK
6
CONTINUOUS
10
126.1617269999999991
20
-217.2339109999999778
11
158.8867229999999893
21
-223.5950059999999837
0
LINE
8
BLACK
6
CONTINUOUS
10
440.7282979999999952
20
-264.2466269999999895
11
422.0283000000000015
21
-267.8815389999999752
0
LINE
8
BLACK
6
CONTINUOUS
10
422.0283000000000015
20
-267.8815389999999752
11
418.393387999999959
21
-249.1815409999999815
0
LINE
8
BLACK
6
CONTINUOUS
10
418.393387999999959
20
-249.1815409999999815
11
437.0933859999999527
21
-245.5466289999999958
0
LINE
8
BLACK
6
CONTINUOUS
10
437.0933859999999527
20
-245.5466289999999958
11
440.7282979999999952
21
-264.2466269999999895
0
CIRCLE
8
BLACK
10
341.8097399999999766
20
-181.1963109999999801
40
1.5
0
CIRCLE
8
BLACK
10
442.8097399999999766
20
-176.7963110000000029
40
3.
0
CIRCLE
8
BLACK
10
261.2097400000000107
20
-249.3963109999999972
40
2.9410879999999997
0
CIRCLE
8
BLACK
10
258.109739999999988
20
-229.4963109999999915
40
1.5
0
CIRCLE
8
BLACK
10
115.5097399999999936
20
-252.7963109999999745
40
1.5
0
CIRCLE
8
BLACK
10
187.7097399999999823
20
-276.3963109999999688
40
1.5
0
CIRCLE
8
BLACK
10
259.0097399999999652
20
-287.3963109999999688
40
1.5
0
CIRCLE
8
BLACK
10
447.2097399999999539
20
-255.1963109999999801
40
1.5
0
CIRCLE
8
BLACK
10
504.109739999999988
20
-226.2963110000000029
40
1.5
0
CIRCLE
8
BLACK
10
503.8097399999999766
20
-165.4963109999999915
40
1.5
0
CIRCLE
8
BLACK
10
425.9097399999999993
20
-147.6963109999999801
40
1.5
0
CIRCLE
8
BLACK
10
133.5097399999999936
20
-175.1963109999999801
40
1.5
0
CIRCLE
8
BLACK
10
250.5097399999999936
20
-183.0963109999999858
40
1.5
0
CIRCLE
8
BLACK
10
158.109739999999988
20
-165.1963109999999801
40
1.5
0
LINE
8
BLACK
6
CONTINUOUS
10
518.2097400000000107
20
-265.4963109999999915
11
518.2097400000000107
21
-266.8963109999999688
0
ARC
8
BLACK
10
258.3736000000000104
20
-271.009900000000016
40
37.0000541361826762
50
-100.89687657
51
-78.99323421
0
ARC
8
BLACK
10
130.9673999999999978
20
-147.7609999999999957
40
4.9999702920698441
50
78.97952744
51
169.04569094
0
LINE
8
BLACK
6
CONTINUOUS
10
518.2097400000000107
20
-141.6963109999999801
11
518.2097400000000107
21
-265.4963109999999915
0
ARC
8
BLACK
10
513.209699999999998
20
-138.6963000000000079
40
4.9999890001600003
50
-0.00012605
51
89.99954163
0
LINE
8
BLACK
6
CONTINUOUS
10
108.8097399999999908
20
-279.8963109999999688
11
105.5097569999999934
21
-279.2524119999999925
0
ARC
8
BLACK
10
256.4200000000000159
20
-102.9147999999999996
40
62.9999824303914835
50
-101.02010710
51
-78.99821129
0
LINE
8
BLACK
6
CONTINUOUS
10
441.6514259999999581
20
-273.0552220000000148
11
265.4378320000000144
21
-307.329324999999983
0
LINE
8
BLACK
6
CONTINUOUS
10
431.7730070000000069
20
-133.6963109999999801
11
513.2097400000000107
21
-133.6963109999999801
0
LINE
8
BLACK
6
CONTINUOUS
10
424.7119609999999739
20
-134.3763219999999876
11
268.442893999999967
21
-164.7569199999999796
0
ARC
8
BLACK
10
431.7729999999999677
20
-170.6962999999999795
40
36.9999874821601153
50
89.99998916
51
101.00174878
0
ARC
8
BLACK
10
513.209699999999998
20
-266.8962999999999965
40
5.0000400000120999
50
-89.99954163
51
-0.00012605
0
LINE
8
BLACK
6
CONTINUOUS
10
101.558409999999995
20
-273.3948499999999626
11
126.0585339999999945
21
-146.8108749999999816
0
LINE
8
BLACK
6
CONTINUOUS
10
513.2097400000000107
20
-271.8963109999999688
11
511.8097399999999766
21
-271.8963109999999688
0
LINE
8
BLACK
6
CONTINUOUS
10
518.2097400000000107
20
-141.6963109999999801
11
518.2097400000000107
21
-138.6963109999999801
0
ARC
8
BLACK
10
106.4672999999999945
20
-274.3449999999999704
40
4.9999581132838502
50
-190.95453806
51
-101.04093113
0
ARC
8
BLACK
10
453.6796999999999684
20
-334.8962999999999965
40
62.9999865366744274
50
89.99998727
51
101.00677251
0
LINE
8
BLACK
6
CONTINUOUS
10
244.3773369999999829
20
-164.7530610000000024
11
131.9232030000000009
21
-142.8531830000000014
0
LINE
8
BLACK
6
CONTINUOUS
10
251.3790389999999775
20
-307.3428069999999934
11
108.8097399999999908
21
-279.8963109999999688
0
LINE
8
BLACK
6
CONTINUOUS
10
511.8097399999999766
20
-271.8963109999999688
11
453.6797139999999899
21
-271.8963109999999688
  0
ENDSEC
  0
EOF
