  0
SECTION
  2
HEADER
  9
$ANGBASE
  50
0.0
  9
$ANGDIR
  70
1
  9
$MEASUREMENT
  70
1
  0
ENDSEC
  0
SECTION
  2
TABLES
  0
TABLE
  2
LTYPE
  70
4
  0
LTYPE
  5
40F
  2
CONTINUOUS
  70
0
  3
Solid line
  72
65
  73
0
  40
0.0
  0
LTYPE
  5
410
  2
DASHDOT
 70
0
  3
Dash Dot ____ _ ____ _
 72
65
 73
4
 40
2.0
 49
1.25
 49
-0.25
 49
0.25
 49
-0.25
  0
LTYPE
  5
411
  2
DASHED
 70
0
  3
Dashed __ __ __ __ __
 72
65
 73
2
 40
0.75
 49
0.5
 49
-0.25
  0
LTYPE
  5
43B
  2
DOTTED
 70
0
  3
Dotted .  .  .  .
 72
65
 73
2
 40
0.2
 49
0.0
 49
-0.2
  0
ENDTAB
  0
TABLE
  2
STYLE
  70
4
  0
STYLE
  2
KICAD
  70
0
  40
0
  41
1
  42
1
  50
0
  71
0
  3
isocp.shx
  0
STYLE
  2
KICADB
  70
0
  40
0
  41
1
  42
1
  50
0
  71
0
  3
isocp.shx
  0
STYLE
  2
KICADI
  70
0
  40
0
  41
1
  42
1
  50
15
  71
0
  3
isocp.shx
  0
STYLE
  2
KICADBI
  70
0
  40
0
  41
1
  42
1
  50
15
  71
0
  3
isocp.shx
  0
ENDTAB
  0
TABLE
  2
LAYER
  70
1
  0
LAYER
  2
BLACK
  70
0
  62
7
  6
CONTINUOUS
  0
ENDTAB
  0
ENDSEC
  0
SECTION
  2
ENTITIES
0
LINE
8
BLACK
6
CONTINUOUS
10
155.9350309999999808
20
-231.8482119999999895
11
155.9808249999999816
21
-231.6126219999999876
0
LINE
8
BLACK
6
CONTINUOUS
10
156.6772789999999986
20
-228.0296829999999773
11
156.5246300000000019
21
-228.8149839999999813
0
LINE
8
BLACK
6
CONTINUOUS
10
162.0631679999999903
20
-231.1649630000000002
11
166.5441229999999848
21
-232.0359719999999868
0
LINE
8
BLACK
6
CONTINUOUS
10
164.8137499999999989
20
-227.5738189999999861
11
159.0221499999999821
21
-226.4480459999999766
0
LINE
8
BLACK
6
CONTINUOUS
10
167.1303409999999872
20
-231.640562999999986
11
167.2200200000000052
21
-231.1791979999999853
0
LINE
8
BLACK
6
CONTINUOUS
10
167.763826999999992
20
-228.3815609999999765
11
167.8077129999999784
21
-228.1557870000000037
0
LINE
8
BLACK
6
CONTINUOUS
10
167.8077129999999784
20
-228.1557870000000037
11
166.2861910000000023
21
-227.8600329999999872
0
ARC
8
BLACK
10
158.6405379999999923
20
-228.4113069999999936
40
2.0000056946061426
50
79.00020473
51
168.99985634
0
ARC
8
BLACK
10
161.6140460000000019
20
-233.4709689999999966
40
2.3493350206850021
50
78.97893660
51
156.47888690
0
ARC
8
BLACK
10
166.6395269999999869
20
-231.5451579999999865
40
0.5000004966207533
50
-100.99993509
51
-11.00004758
0
LINE
8
BLACK
6
CONTINUOUS
10
463.1103379999999561
20
-260.586277999999993
11
464.5245519999999715
21
-262.0004920000000084
0
LINE
8
BLACK
6
CONTINUOUS
10
465.9458359999999857
20
-257.7507799999999634
11
463.1103379999999561
21
-260.586277999999993
0
LINE
8
BLACK
6
CONTINUOUS
10
467.3600500000000011
20
-259.1649939999999788
11
464.5245519999999715
21
-262.0004920000000084
0
LINE
8
BLACK
6
CONTINUOUS
10
287.8643529999999942
20
-182.2374279999999942
11
289.5224269999999933
21
-183.3558129999999835
0
LINE
8
BLACK
6
CONTINUOUS
10
290.1067170000000033
20
-178.9129869999999869
11
287.8643529999999942
21
-182.2374279999999942
0
LINE
8
BLACK
6
CONTINUOUS
10
291.7647919999999999
20
-180.0313730000000021
11
289.5224269999999933
21
-183.3558129999999835
0
LINE
8
BLACK
6
CONTINUOUS
10
440.8123649999999998
20
-143.4413109999999847
11
441.1196469999999863
21
-143.4413109999999847
0
LINE
8
BLACK
6
CONTINUOUS
10
440.8123649999999998
20
-144.201311000000004
11
441.1196469999999863
21
-144.201311000000004
0
LINE
8
BLACK
6
CONTINUOUS
10
168.6572209999999927
20
-166.3982189999999832
11
168.7030149999999935
21
-166.1626289999999813
0
LINE
8
BLACK
6
CONTINUOUS
10
169.3994689999999821
20
-162.5796899999999994
11
169.2468199999999854
21
-163.3649910000000034
0
LINE
8
BLACK
6
CONTINUOUS
10
174.7853580000000022
20
-165.7149699999999939
11
179.2663129999999967
21
-166.5859789999999805
0
LINE
8
BLACK
6
CONTINUOUS
10
177.5359399999999823
20
-162.1238259999999798
11
171.744339999999994
21
-160.9980529999999987
0
LINE
8
BLACK
6
CONTINUOUS
10
179.852530999999999
20
-166.1905699999999797
11
179.9422099999999887
21
-165.729204999999979
0
LINE
8
BLACK
6
CONTINUOUS
10
180.4860170000000039
20
-162.9315679999999986
11
180.5299029999999902
21
-162.7057939999999974
0
LINE
8
BLACK
6
CONTINUOUS
10
180.5299029999999902
20
-162.7057939999999974
11
179.0083809999999858
21
-162.4100399999999809
0
ARC
8
BLACK
10
171.3627280000000042
20
-162.9613139999999873
40
2.0000056946061426
50
79.00020473
51
168.99985634
0
ARC
8
BLACK
10
174.3362359999999853
20
-168.0209759999999903
40
2.3493350206850021
50
78.97893660
51
156.47888690
0
ARC
8
BLACK
10
179.3617169999999987
20
-166.0951649999999802
40
0.5000004966207533
50
-100.99993509
51
-11.00004758
0
LINE
8
BLACK
6
CONTINUOUS
10
212.0350249999999903
20
-242.7529459999999801
11
212.0808189999999911
21
-242.5173559999999782
0
LINE
8
BLACK
6
CONTINUOUS
10
212.7772729999999797
20
-238.9344169999999963
11
212.624623999999983
21
-239.7197180000000003
0
LINE
8
BLACK
6
CONTINUOUS
10
218.1631619999999998
20
-242.0696969999999908
11
222.6441169999999943
21
-242.9407059999999774
0
LINE
8
BLACK
6
CONTINUOUS
10
220.9137439999999799
20
-238.4785529999999767
11
215.1221439999999916
21
-237.3527799999999957
0
LINE
8
BLACK
6
CONTINUOUS
10
223.2303349999999966
20
-242.5452969999999766
11
223.3200139999999863
21
-242.0839319999999759
0
LINE
8
BLACK
6
CONTINUOUS
10
223.8638210000000015
20
-239.2862949999999955
11
223.9077069999999878
21
-239.0605209999999943
0
LINE
8
BLACK
6
CONTINUOUS
10
223.9077069999999878
20
-239.0605209999999943
11
222.3861849999999833
21
-238.7647669999999778
0
ARC
8
BLACK
10
214.7405320000000017
20
-239.3160409999999843
40
2.0000056946061426
50
79.00020473
51
168.99985634
0
ARC
8
BLACK
10
217.7140399999999829
20
-244.3757029999999872
40
2.3493350206850021
50
78.97893660
51
156.47888690
0
ARC
8
BLACK
10
222.7395209999999963
20
-242.4498919999999771
40
0.5000004966207533
50
-100.99993509
51
-11.00004758
0
LINE
8
BLACK
6
CONTINUOUS
10
501.2103379999999788
20
-184.3862780000000043
11
502.6245519999999942
21
-185.8004919999999913
0
LINE
8
BLACK
6
CONTINUOUS
10
504.0458359999999516
20
-181.5507800000000032
11
501.2103379999999788
21
-184.3862780000000043
0
LINE
8
BLACK
6
CONTINUOUS
10
505.460049999999967
20
-182.9649939999999901
11
502.6245519999999942
21
-185.8004919999999913
0
LINE
8
BLACK
6
CONTINUOUS
10
228.6451739999999972
20
-183.6513960000000054
11
229.7635589999999866
21
-185.3094700000000046
0
LINE
8
BLACK
6
CONTINUOUS
10
231.9696139999999787
20
-181.4090309999999988
11
228.6451739999999972
21
-183.6513960000000054
0
LINE
8
BLACK
6
CONTINUOUS
10
233.0879999999999939
20
-183.0671059999999954
11
229.7635589999999866
21
-185.3094700000000046
0
LINE
8
BLACK
6
CONTINUOUS
10
149.1798560000000009
20
-191.7220319999999845
11
149.2256500000000017
21
-191.4864419999999825
0
LINE
8
BLACK
6
CONTINUOUS
10
149.9221039999999903
20
-187.9035030000000006
11
149.7694549999999936
21
-188.6888040000000046
0
LINE
8
BLACK
6
CONTINUOUS
10
155.307992999999982
20
-191.0387829999999951
11
159.7889480000000049
21
-191.9097919999999817
0
LINE
8
BLACK
6
CONTINUOUS
10
158.0585749999999905
20
-187.447638999999981
11
152.2669750000000022
21
-186.321866
0
LINE
8
BLACK
6
CONTINUOUS
10
160.3751659999999788
20
-191.5143829999999809
11
160.4648449999999968
21
-191.0530179999999802
0
LINE
8
BLACK
6
CONTINUOUS
10
161.0086519999999837
20
-188.2553809999999999
11
161.0525379999999984
21
-188.0296069999999986
0
LINE
8
BLACK
6
CONTINUOUS
10
161.0525379999999984
20
-188.0296069999999986
11
159.5310159999999939
21
-187.7338529999999821
0
ARC
8
BLACK
10
151.8853629999999839
20
-188.2851269999999886
40
2.0000056946061426
50
79.00020473
51
168.99985634
0
ARC
8
BLACK
10
154.8588709999999935
20
-193.3447889999999916
40
2.3493350206850021
50
78.97893660
51
156.47888690
0
ARC
8
BLACK
10
159.8843520000000069
20
-191.4189779999999814
40
0.5000004966207533
50
-100.99993509
51
-11.00004758
0
LINE
8
BLACK
6
CONTINUOUS
10
457.6497399999999516
20
-217.8574239999999804
11
457.6497399999999516
21
-218.0730959999999925
0
LINE
8
BLACK
6
CONTINUOUS
10
458.3697399999999789
20
-217.8574239999999804
11
458.3697399999999789
21
-218.0730959999999925
0
LINE
8
BLACK
6
CONTINUOUS
10
277.2414539999999761
20
-203.856632999999988
11
277.3941009999999778
21
-204.6419349999999895
0
LINE
8
BLACK
6
CONTINUOUS
10
277.9837009999999964
20
-207.6751629999999977
11
277.9379069999999956
21
-207.4395719999999983
0
LINE
8
BLACK
6
CONTINUOUS
10
283.4096609999999714
20
-204.7460239999999771
11
287.8906169999999634
21
-203.8750149999999906
0
LINE
8
BLACK
6
CONTINUOUS
10
284.6146909999999934
20
-200.3859879999999976
11
278.8230899999999792
21
-201.5117609999999786
0
LINE
8
BLACK
6
CONTINUOUS
10
287.6086540000000014
20
-199.80401999999998
11
286.0871319999999969
21
-200.0997739999999965
0
LINE
8
BLACK
6
CONTINUOUS
10
287.6525399999999877
20
-200.0297949999999787
11
287.6086540000000014
21
-199.80401999999998
0
LINE
8
BLACK
6
CONTINUOUS
10
288.2860259999999926
20
-203.2887969999999882
11
288.196345000000008
21
-202.8274319999999875
0
ARC
8
BLACK
10
279.2047000000000025
20
-203.4750099999999975
40
1.9999927426480828
50
-259.00019538
51
-168.99981340
0
ARC
8
BLACK
10
283.8570849999999837
20
-207.0523579999999981
40
2.3493318320450176
50
100.97888691
51
178.47892959
0
ARC
8
BLACK
10
287.7952119999999923
20
-203.3842009999999902
40
0.5000003058119065
50
-78.99995242
51
10.99993509
0
LINE
8
BLACK
6
CONTINUOUS
10
466.2574649999999679
20
-230.7768409999999903
11
466.4099679999999921
21
-230.9293439999999862
0
LINE
8
BLACK
6
CONTINUOUS
10
466.7665819999999712
20
-230.267723999999987
11
466.9190849999999955
21
-230.4202269999999828
0
LINE
8
BLACK
6
CONTINUOUS
10
236.4501099999999951
20
-266.9053109999999833
11
236.4959039999999959
21
-266.6697209999999814
0
LINE
8
BLACK
6
CONTINUOUS
10
237.1923579999999845
20
-263.086781999999971
11
237.0397089999999878
21
-263.8720829999999751
0
LINE
8
BLACK
6
CONTINUOUS
10
242.5782469999999762
20
-266.222061999999994
11
247.0592019999999991
21
-267.093071000000009
0
LINE
8
BLACK
6
CONTINUOUS
10
245.3288289999999847
20
-262.6309180000000083
11
239.5372289999999964
21
-261.5051449999999704
0
LINE
8
BLACK
6
CONTINUOUS
10
247.6454200000000014
20
-266.6976619999999798
11
247.7350989999999911
21
-266.2362969999999791
0
LINE
8
BLACK
6
CONTINUOUS
10
248.2789059999999779
20
-263.4386599999999703
11
248.3227919999999926
21
-263.212885999999969
0
LINE
8
BLACK
6
CONTINUOUS
10
248.3227919999999926
20
-263.212885999999969
11
246.8012699999999882
21
-262.917131999999981
0
ARC
8
BLACK
10
239.1556169999999781
20
-263.4684060000000159
40
2.0000056946061426
50
79.00020473
51
168.99985634
0
ARC
8
BLACK
10
242.1291249999999877
20
-268.528067999999962
40
2.3493350206850021
50
78.97893660
51
156.47888690
0
ARC
8
BLACK
10
247.1546060000000011
20
-266.6022570000000087
40
0.5000004966207533
50
-100.99993509
51
-11.00004758
0
LINE
8
BLACK
6
CONTINUOUS
10
180.3501169999999831
20
-256.0005759999999668
11
180.3959109999999839
21
-255.7649859999999933
0
LINE
8
BLACK
6
CONTINUOUS
10
181.0923650000000009
20
-252.182046999999983
11
180.9397160000000042
21
-252.967347999999987
0
LINE
8
BLACK
6
CONTINUOUS
10
186.4782539999999926
20
-255.3173269999999775
11
190.9592089999999871
21
-256.1883359999999925
0
LINE
8
BLACK
6
CONTINUOUS
10
189.2288360000000011
20
-251.7261829999999918
11
183.4372359999999844
21
-250.6004099999999823
0
LINE
8
BLACK
6
CONTINUOUS
10
191.5454269999999894
20
-255.7929269999999917
11
191.6351059999999791
21
-255.331561999999991
0
LINE
8
BLACK
6
CONTINUOUS
10
192.1789129999999943
20
-252.5339249999999822
11
192.2227989999999807
21
-252.308150999999981
0
LINE
8
BLACK
6
CONTINUOUS
10
192.2227989999999807
20
-252.308150999999981
11
190.7012770000000046
21
-252.0123969999999929
0
ARC
8
BLACK
10
183.0556239999999946
20
-252.5636709999999994
40
2.0000056946061426
50
79.00020473
51
168.99985634
0
ARC
8
BLACK
10
186.0291320000000042
20
-257.6233330000000024
40
2.3493350206850021
50
78.97893660
51
156.47888690
0
ARC
8
BLACK
10
191.0546129999999891
20
-255.6975219999999922
40
0.5000004966207533
50
-100.99993509
51
-11.00004758
0
LINE
8
BLACK
6
CONTINUOUS
10
215.9229839999999854
20
-249.1013889999999833
11
217.0413690000000031
21
-250.7594629999999825
0
LINE
8
BLACK
6
CONTINUOUS
10
219.2474239999999952
20
-246.8590239999999767
11
215.9229839999999854
21
-249.1013889999999833
0
LINE
8
BLACK
6
CONTINUOUS
10
220.365809999999982
20
-248.5170990000000018
11
217.0413690000000031
21
-250.7594629999999825
0
LINE
8
BLACK
6
CONTINUOUS
10
352.2688609999999585
20
-276.4545019999999909
11
353.9269349999999577
21
-277.5728869999999802
0
LINE
8
BLACK
6
CONTINUOUS
10
354.5112249999999676
20
-273.130061000000012
11
352.2688609999999585
21
-276.4545019999999909
0
LINE
8
BLACK
6
CONTINUOUS
10
356.1692999999999643
20
-274.2484469999999988
11
353.9269349999999577
21
-277.5728869999999802
0
LINE
8
BLACK
6
CONTINUOUS
10
458.6789299999999798
20
-216.1685669999999959
11
458.8314330000000041
21
-216.3210699999999918
0
LINE
8
BLACK
6
CONTINUOUS
10
459.1880469999999832
20
-215.6594499999999925
11
459.3405500000000075
21
-215.8119529999999884
0
LINE
8
BLACK
6
CONTINUOUS
10
334.3516280000000052
20
-221.717599999999976
11
336.0097020000000043
21
-222.8359849999999938
0
LINE
8
BLACK
6
CONTINUOUS
10
336.5939919999999574
20
-218.3931589999999971
11
334.3516280000000052
21
-221.717599999999976
0
LINE
8
BLACK
6
CONTINUOUS
10
338.2520670000000109
20
-219.5115449999999839
11
336.0097020000000043
21
-222.8359849999999938
0
LINE
8
BLACK
6
CONTINUOUS
10
280.8464569999999867
20
-270.9310580000000073
11
282.5045309999999859
21
-272.0494429999999966
0
LINE
8
BLACK
6
CONTINUOUS
10
283.0888209999999958
20
-267.6066169999999715
11
280.8464569999999867
21
-270.9310580000000073
0
LINE
8
BLACK
6
CONTINUOUS
10
284.7468959999999925
20
-268.7250030000000152
11
282.5045309999999859
21
-272.0494429999999966
0
LINE
8
BLACK
6
CONTINUOUS
10
476.1828610000000026
20
-214.3797369999999773
11
475.8755789999999593
21
-214.3797369999999773
0
LINE
8
BLACK
6
CONTINUOUS
10
476.1828610000000026
20
-215.1397369999999967
11
475.8755789999999593
21
-215.1397369999999967
0
LINE
8
BLACK
6
CONTINUOUS
10
315.6516300000000115
20
-225.3525109999999927
11
317.3097040000000106
21
-226.470895999999982
0
LINE
8
BLACK
6
CONTINUOUS
10
317.8939939999999638
20
-222.0280699999999854
11
315.6516300000000115
21
-225.3525109999999927
0
LINE
8
BLACK
6
CONTINUOUS
10
319.5520689999999604
20
-223.1464560000000006
11
317.3097040000000106
21
-226.470895999999982
0
LINE
8
BLACK
6
CONTINUOUS
10
366.5810899999999606
20
-264.1169790000000148
11
366.7337369999999623
21
-264.9022810000000163
0
LINE
8
BLACK
6
CONTINUOUS
10
367.3233369999999809
20
-267.9355089999999677
11
367.2775429999999801
21
-267.6999179999999683
0
LINE
8
BLACK
6
CONTINUOUS
10
372.7492969999999559
20
-265.006370000000004
11
377.2302530000000047
21
-264.135360999999989
0
LINE
8
BLACK
6
CONTINUOUS
10
373.9543269999999779
20
-260.6463339999999675
11
368.1627259999999637
21
-261.7721070000000054
0
LINE
8
BLACK
6
CONTINUOUS
10
376.9482899999999859
20
-260.0643660000000068
11
375.4267679999999814
21
-260.3601199999999949
0
LINE
8
BLACK
6
CONTINUOUS
10
376.9921759999999722
20
-260.2901410000000055
11
376.9482899999999859
21
-260.0643660000000068
0
LINE
8
BLACK
6
CONTINUOUS
10
377.6256619999999771
20
-263.549143000000015
11
377.5359809999999925
21
-263.0877780000000143
0
ARC
8
BLACK
10
368.5443359999999871
20
-263.7353559999999675
40
1.9999927426480828
50
-259.00019538
51
-168.99981340
0
ARC
8
BLACK
10
373.1967209999999682
20
-267.3127039999999965
40
2.3493318320450176
50
100.97888691
51
178.47892959
0
ARC
8
BLACK
10
377.1348479999999768
20
-263.6445469999999887
40
0.5000003058119065
50
-78.99995242
51
10.99993509
0
LINE
8
BLACK
6
CONTINUOUS
10
298.5362749999999892
20
-238.5304449999999861
11
298.6889219999999909
21
-239.3157469999999876
0
LINE
8
BLACK
6
CONTINUOUS
10
299.2785220000000095
20
-242.3489749999999958
11
299.2327280000000087
21
-242.1133839999999964
0
LINE
8
BLACK
6
CONTINUOUS
10
304.7044819999999845
20
-239.4198359999999752
11
309.1854379999999765
21
-238.5488269999999886
0
LINE
8
BLACK
6
CONTINUOUS
10
305.9095120000000065
20
-235.0597999999999956
11
300.1179109999999923
21
-236.1855729999999767
0
LINE
8
BLACK
6
CONTINUOUS
10
308.9034749999999576
20
-234.4778319999999781
11
307.38195300000001
21
-234.7735859999999946
0
LINE
8
BLACK
6
CONTINUOUS
10
308.9473610000000008
20
-234.7036069999999768
11
308.9034749999999576
21
-234.4778319999999781
0
LINE
8
BLACK
6
CONTINUOUS
10
309.5808470000000057
20
-237.9626089999999863
11
309.4911659999999642
21
-237.5012439999999856
0
ARC
8
BLACK
10
300.4995209999999588
20
-238.1488219999999956
40
1.9999927426480828
50
-259.00019538
51
-168.99981340
0
ARC
8
BLACK
10
305.1519059999999968
20
-241.7261699999999962
40
2.3493318320450176
50
100.97888691
51
178.47892959
0
ARC
8
BLACK
10
309.0900330000000054
20
-238.0580129999999883
40
0.5000003058119065
50
-78.99995242
51
10.99993509
0
LINE
8
BLACK
6
CONTINUOUS
10
342.6615380000000073
20
-239.5088700000000017
11
344.3196120000000064
21
-240.627254999999991
0
LINE
8
BLACK
6
CONTINUOUS
10
344.9039019999999596
20
-236.1844289999999944
11
342.6615380000000073
21
-239.5088700000000017
0
LINE
8
BLACK
6
CONTINUOUS
10
346.5619769999999562
20
-237.3028149999999812
11
344.3196120000000064
21
-240.627254999999991
0
LINE
8
BLACK
6
CONTINUOUS
10
131.2626219999999932
20
-246.4589339999999993
11
131.308415999999994
21
-246.2233439999999973
0
LINE
8
BLACK
6
CONTINUOUS
10
132.0048699999999826
20
-242.640404999999987
11
131.8522209999999859
21
-243.425705999999991
0
LINE
8
BLACK
6
CONTINUOUS
10
137.3907590000000027
20
-245.7756849999999815
11
141.8717139999999972
21
-246.6466939999999965
0
LINE
8
BLACK
6
CONTINUOUS
10
140.1413409999999828
20
-242.1845409999999958
11
134.3497409999999945
21
-241.0587679999999864
0
LINE
8
BLACK
6
CONTINUOUS
10
142.4579319999999996
20
-246.2512849999999958
11
142.5476109999999892
21
-245.7899199999999951
0
LINE
8
BLACK
6
CONTINUOUS
10
143.0914180000000044
20
-242.9922829999999863
11
143.1353039999999908
21
-242.766508999999985
0
LINE
8
BLACK
6
CONTINUOUS
10
143.1353039999999908
20
-242.766508999999985
11
141.6137819999999863
21
-242.4707549999999969
0
ARC
8
BLACK
10
133.9681290000000047
20
-243.022028999999975
40
2.0000056946061426
50
79.00020473
51
168.99985634
0
ARC
8
BLACK
10
136.9416369999999858
20
-248.081690999999978
40
2.3493350206850021
50
78.97893660
51
156.47888690
0
ARC
8
BLACK
10
141.9671179999999993
20
-246.1558799999999962
40
0.5000004966207533
50
-100.99993509
51
-11.00004758
0
LINE
8
BLACK
6
CONTINUOUS
10
118.277711999999994
20
-263.3414760000000001
11
118.3235059999999947
21
-263.1058859999999981
0
LINE
8
BLACK
6
CONTINUOUS
10
119.0199599999999975
20
-259.5229469999999878
11
118.8673110000000008
21
-260.3082479999999919
0
LINE
8
BLACK
6
CONTINUOUS
10
124.4058489999999892
20
-262.6582270000000108
11
128.8868039999999837
21
-263.529235999999969
0
LINE
8
BLACK
6
CONTINUOUS
10
127.1564309999999978
20
-259.0670829999999683
11
121.3648309999999952
21
-257.9413099999999872
0
LINE
8
BLACK
6
CONTINUOUS
10
129.4730219999999861
20
-263.1338269999999966
11
129.5627010000000041
21
-262.6724619999999959
0
LINE
8
BLACK
6
CONTINUOUS
10
130.1065079999999909
20
-259.8748249999999871
11
130.1503940000000057
21
-259.6490509999999858
0
LINE
8
BLACK
6
CONTINUOUS
10
130.1503940000000057
20
-259.6490509999999858
11
128.6288720000000012
21
-259.3532969999999978
0
ARC
8
BLACK
10
120.9832189999999912
20
-259.9045709999999758
40
2.0000056946061426
50
79.00020473
51
168.99985634
0
ARC
8
BLACK
10
123.9567270000000008
20
-264.9642329999999788
40
2.3493350206850021
50
78.97893660
51
156.47888690
0
ARC
8
BLACK
10
128.9822079999999858
20
-263.0384219999999686
40
0.5000004966207533
50
-100.99993509
51
-11.00004758
0
LINE
8
BLACK
6
CONTINUOUS
10
330.2211829999999964
20
-251.7780759999999987
11
330.3738299999999981
21
-252.5633780000000002
0
LINE
8
BLACK
6
CONTINUOUS
10
330.9634299999999598
20
-255.59660599999998
11
330.917635999999959
21
-255.3610149999999805
0
LINE
8
BLACK
6
CONTINUOUS
10
336.3893899999999917
20
-252.6674669999999878
11
340.8703459999999836
21
-251.7964580000000012
0
LINE
8
BLACK
6
CONTINUOUS
10
337.5944199999999569
20
-248.3074309999999798
11
331.8028189999999995
21
-249.4332039999999893
0
LINE
8
BLACK
6
CONTINUOUS
10
340.5883829999999648
20
-247.7254629999999906
11
339.0668609999999603
21
-248.0212169999999787
0
LINE
8
BLACK
6
CONTINUOUS
10
340.632269000000008
20
-247.9512379999999894
11
340.5883829999999648
21
-247.7254629999999906
0
LINE
8
BLACK
6
CONTINUOUS
10
341.2657550000000128
20
-251.2102399999999989
11
341.1760739999999714
21
-250.7488749999999982
0
ARC
8
BLACK
10
332.184428999999966
20
-251.3964529999999797
40
1.9999927426480828
50
-259.00019538
51
-168.99981340
0
ARC
8
BLACK
10
336.8368140000000039
20
-254.9738009999999804
40
2.3493318320450176
50
100.97888691
51
178.47892959
0
ARC
8
BLACK
10
340.7749410000000125
20
-251.3056440000000009
40
0.5000003058119065
50
-78.99995242
51
10.99993509
0
LINE
8
BLACK
6
CONTINUOUS
10
465.9097399999999993
20
-211.2652599999999836
11
468.6347399999999652
21
-211.2652599999999836
0
LINE
8
BLACK
6
CONTINUOUS
10
465.9097399999999993
20
-211.5252600000000029
11
465.9097399999999993
21
-211.2652599999999836
0
LINE
8
BLACK
6
CONTINUOUS
10
465.9097399999999993
20
-216.4552599999999813
11
465.9097399999999993
21
-216.7152600000000007
0
LINE
8
BLACK
6
CONTINUOUS
10
465.9097399999999993
20
-216.7152600000000007
11
468.6347399999999652
21
-216.7152600000000007
0
LINE
8
BLACK
6
CONTINUOUS
10
471.359739999999988
20
-211.2652599999999836
11
468.6347399999999652
21
-211.2652599999999836
0
LINE
8
BLACK
6
CONTINUOUS
10
471.359739999999988
20
-211.5252600000000029
11
471.359739999999988
21
-211.2652599999999836
0
LINE
8
BLACK
6
CONTINUOUS
10
471.359739999999988
20
-216.4552599999999813
11
471.359739999999988
21
-216.7152600000000007
0
LINE
8
BLACK
6
CONTINUOUS
10
471.359739999999988
20
-216.7152600000000007
11
468.6347399999999652
21
-216.7152600000000007
0
LINE
8
BLACK
6
CONTINUOUS
10
472.3931139999999687
20
-211.1374229999999841
11
472.3962750000000028
21
-211.1369239999999934
0
LINE
8
BLACK
6
CONTINUOUS
10
472.3962750000000028
20
-211.1369239999999934
11
472.3984089999999583
21
-211.1384759999999972
0
LINE
8
BLACK
6
CONTINUOUS
10
472.3984089999999583
20
-211.1384759999999972
11
472.4052009999999768
21
-211.1398269999999968
0
LINE
8
BLACK
6
CONTINUOUS
10
472.4052009999999768
20
-211.1398269999999968
11
472.4183600000000069
21
-211.1529859999999985
0
LINE
8
BLACK
6
CONTINUOUS
10
472.4183600000000069
20
-211.1529859999999985
11
472.4334129999999732
21
-211.1639339999999834
0
LINE
8
BLACK
6
CONTINUOUS
10
472.4334129999999732
20
-211.1639339999999834
11
472.4341819999999643
21
-211.1688079999999843
0
LINE
8
BLACK
6
CONTINUOUS
10
472.4341819999999643
20
-211.1688079999999843
11
472.4376729999999611
21
-211.1722989999999811
0
LINE
8
BLACK
6
CONTINUOUS
10
472.4376729999999611
20
-211.1722989999999811
11
472.4376729999999611
21
-211.1909109999999998
0
LINE
8
BLACK
6
CONTINUOUS
10
472.4376729999999611
20
-211.1909109999999998
11
472.4405759999999646
21
-211.2092949999999973
0
LINE
8
BLACK
6
CONTINUOUS
10
472.4405759999999646
20
-211.2092949999999973
11
472.4376729999999611
21
-211.215582999999981
0
LINE
8
BLACK
6
CONTINUOUS
10
472.4376729999999611
20
-211.215582999999981
11
472.4376729999999611
21
-211.2182209999999998
0
LINE
8
BLACK
6
CONTINUOUS
10
472.4376729999999611
20
-211.2182209999999998
11
472.4354109999999878
21
-211.2204820000000041
0
LINE
8
BLACK
6
CONTINUOUS
10
472.4354109999999878
20
-211.2204820000000041
11
472.4307639999999537
21
-211.2305499999999938
0
LINE
8
BLACK
6
CONTINUOUS
10
472.4307639999999537
20
-211.2305499999999938
11
472.1907640000000015
21
-211.5605499999999779
0
LINE
8
BLACK
6
CONTINUOUS
10
472.1907640000000015
20
-211.5605499999999779
11
472.1735659999999939
21
-211.5764339999999777
0
LINE
8
BLACK
6
CONTINUOUS
10
472.1735659999999939
20
-211.5764339999999777
11
472.1640579999999545
21
-211.5779349999999965
0
LINE
8
BLACK
6
CONTINUOUS
10
472.1640579999999545
20
-211.5779349999999965
11
472.1562749999999937
21
-211.583596
0
LINE
8
BLACK
6
CONTINUOUS
10
472.1562749999999937
20
-211.583596
11
472.1422399999999584
21
-211.5813789999999983
0
LINE
8
BLACK
6
CONTINUOUS
10
472.1422399999999584
20
-211.5813789999999983
11
472.1282049999999799
21
-211.583596
0
LINE
8
BLACK
6
CONTINUOUS
10
472.1282049999999799
20
-211.583596
11
472.1204189999999699
21
-211.5779339999999991
0
LINE
8
BLACK
6
CONTINUOUS
10
472.1204189999999699
20
-211.5779339999999991
11
472.1109139999999798
21
-211.5764329999999802
0
LINE
8
BLACK
6
CONTINUOUS
10
472.1109139999999798
20
-211.5764329999999802
11
472.0937159999999722
21
-211.5605499999999779
0
LINE
8
BLACK
6
CONTINUOUS
10
472.0937159999999722
20
-211.5605499999999779
11
471.8537159999999631
21
-211.2305499999999938
0
LINE
8
BLACK
6
CONTINUOUS
10
471.8537159999999631
20
-211.2305499999999938
11
471.8490679999999884
21
-211.2204820000000041
0
LINE
8
BLACK
6
CONTINUOUS
10
471.8490679999999884
20
-211.2204820000000041
11
471.8468069999999557
21
-211.2182209999999998
0
LINE
8
BLACK
6
CONTINUOUS
10
471.8468069999999557
20
-211.2182209999999998
11
471.8468069999999557
21
-211.215582999999981
0
LINE
8
BLACK
6
CONTINUOUS
10
471.8468069999999557
20
-211.215582999999981
11
471.8439039999999522
21
-211.2092949999999973
0
LINE
8
BLACK
6
CONTINUOUS
10
471.8439039999999522
20
-211.2092949999999973
11
471.8468069999999557
21
-211.190907999999979
0
LINE
8
BLACK
6
CONTINUOUS
10
471.8468069999999557
20
-211.190907999999979
11
471.8468069999999557
21
-211.1722989999999811
0
LINE
8
BLACK
6
CONTINUOUS
10
471.8468069999999557
20
-211.1722989999999811
11
471.8502959999999575
21
-211.1688089999999818
0
LINE
8
BLACK
6
CONTINUOUS
10
471.8502959999999575
20
-211.1688089999999818
11
471.851066000000003
21
-211.1639339999999834
0
LINE
8
BLACK
6
CONTINUOUS
10
471.851066000000003
20
-211.1639339999999834
11
471.8661209999999642
21
-211.1529840000000036
0
LINE
8
BLACK
6
CONTINUOUS
10
471.8661209999999642
20
-211.1529840000000036
11
471.8792789999999968
21
-211.1398269999999968
0
LINE
8
BLACK
6
CONTINUOUS
10
471.8792789999999968
20
-211.1398269999999968
11
471.8860699999999611
21
-211.1384759999999972
0
LINE
8
BLACK
6
CONTINUOUS
10
471.8860699999999611
20
-211.1384759999999972
11
471.8882049999999708
21
-211.1369239999999934
0
LINE
8
BLACK
6
CONTINUOUS
10
471.8882049999999708
20
-211.1369239999999934
11
471.8913649999999507
21
-211.1374219999999866
0
LINE
8
BLACK
6
CONTINUOUS
10
471.8913649999999507
20
-211.1374219999999866
11
471.9022400000000061
21
-211.1352599999999882
0
LINE
8
BLACK
6
CONTINUOUS
10
471.9022400000000061
20
-211.1352599999999882
11
472.3822399999999675
21
-211.1352599999999882
0
LINE
8
BLACK
6
CONTINUOUS
10
472.3822399999999675
20
-211.1352599999999882
11
472.3931139999999687
21
-211.1374229999999841
0
LINE
8
BLACK
6
CONTINUOUS
10
321.3667169999999942
20
-204.8350580000000036
11
323.0247909999999933
21
-205.9534429999999929
0
LINE
8
BLACK
6
CONTINUOUS
10
323.6090810000000033
20
-201.5106169999999963
11
321.3667169999999942
21
-204.8350580000000036
0
LINE
8
BLACK
6
CONTINUOUS
10
325.2671559999999999
20
-202.6290029999999831
11
323.0247909999999933
21
-205.9534429999999929
0
LINE
8
BLACK
6
CONTINUOUS
10
354.6362679999999727
20
-227.6257109999999955
11
354.7889149999999745
21
-228.411012999999997
0
LINE
8
BLACK
6
CONTINUOUS
10
355.3785149999999931
20
-231.4442409999999768
11
355.3327209999999923
21
-231.2086499999999774
0
LINE
8
BLACK
6
CONTINUOUS
10
360.8044749999999681
20
-228.5151019999999846
11
365.28543099999996
21
-227.644092999999998
0
LINE
8
BLACK
6
CONTINUOUS
10
362.0095049999999901
20
-224.1550659999999766
11
356.2179039999999759
21
-225.2808389999999861
0
LINE
8
BLACK
6
CONTINUOUS
10
365.003467999999998
20
-223.5730979999999875
11
363.4819459999999935
21
-223.868852000000004
0
LINE
8
BLACK
6
CONTINUOUS
10
365.0473539999999844
20
-223.7988729999999862
11
365.003467999999998
21
-223.5730979999999875
0
LINE
8
BLACK
6
CONTINUOUS
10
365.6808399999999892
20
-227.0578749999999957
11
365.5911590000000047
21
-226.596509999999995
0
ARC
8
BLACK
10
356.5995139999999992
20
-227.2440879999999765
40
1.9999927426480828
50
-259.00019538
51
-168.99981340
0
ARC
8
BLACK
10
361.2518989999999803
20
-230.8214359999999772
40
2.3493318320450176
50
100.97888691
51
178.47892959
0
ARC
8
BLACK
10
365.1900259999999889
20
-227.1532789999999977
40
0.5000003058119065
50
-78.99995242
51
10.99993509
0
LINE
8
BLACK
6
CONTINUOUS
10
372.0143439999999941
20
-165.8803269999999941
11
373.6724179999999933
21
-166.9987119999999834
0
LINE
8
BLACK
6
CONTINUOUS
10
374.2567080000000033
20
-162.5558859999999868
11
372.0143439999999941
21
-165.8803269999999941
0
LINE
8
BLACK
6
CONTINUOUS
10
375.9147829999999999
20
-163.674272000000002
11
373.6724179999999933
21
-166.9987119999999834
0
LINE
8
BLACK
6
CONTINUOUS
10
453.9769039999999904
20
-220.2552599999999927
11
454.1925759999999741
21
-220.2552599999999927
0
LINE
8
BLACK
6
CONTINUOUS
10
453.9769039999999904
20
-220.9752599999999916
11
454.1925759999999741
21
-220.9752599999999916
0
LINE
8
BLACK
6
CONTINUOUS
10
403.7237629999999626
20
-218.0840689999999995
11
403.8764099999999644
21
-218.869371000000001
0
LINE
8
BLACK
6
CONTINUOUS
10
404.4660099999999829
20
-221.9025989999999808
11
404.4202159999999822
21
-221.6670079999999814
0
LINE
8
BLACK
6
CONTINUOUS
10
409.891969999999958
20
-218.9734599999999887
11
414.3729260000000068
21
-218.1024510000000021
0
LINE
8
BLACK
6
CONTINUOUS
10
411.09699999999998
20
-214.6134239999999807
11
405.3053989999999658
21
-215.7391969999999901
0
LINE
8
BLACK
6
CONTINUOUS
10
414.0909629999999879
20
-214.0314559999999915
11
412.5694409999999834
21
-214.3272099999999796
0
LINE
8
BLACK
6
CONTINUOUS
10
414.1348489999999742
20
-214.2572309999999902
11
414.0909629999999879
21
-214.0314559999999915
0
LINE
8
BLACK
6
CONTINUOUS
10
414.7683349999999791
20
-217.5162329999999997
11
414.6786539999999945
21
-217.054867999999999
0
ARC
8
BLACK
10
405.6870089999999891
20
-217.7024459999999806
40
1.9999927426480828
50
-259.00019538
51
-168.99981340
0
ARC
8
BLACK
10
410.3393939999999702
20
-221.2797939999999812
40
2.3493318320450176
50
100.97888691
51
178.47892959
0
ARC
8
BLACK
10
414.2775209999999788
20
-217.6116370000000018
40
0.5000003058119065
50
-78.99995242
51
10.99993509
0
LINE
8
BLACK
6
CONTINUOUS
10
453.4310989999999606
20
-213.2602599999999882
11
453.738381000000004
21
-213.2602599999999882
0
LINE
8
BLACK
6
CONTINUOUS
10
453.4310989999999606
20
-214.0202599999999791
11
453.738381000000004
21
-214.0202599999999791
0
LINE
8
BLACK
6
CONTINUOUS
10
278.2516339999999673
20
-232.6223339999999951
11
279.9097079999999664
21
-233.7407189999999844
0
LINE
8
BLACK
6
CONTINUOUS
10
280.4939979999999764
20
-229.2978929999999878
11
278.2516339999999673
21
-232.6223339999999951
0
LINE
8
BLACK
6
CONTINUOUS
10
282.152072999999973
20
-230.416279000000003
11
279.9097079999999664
21
-233.7407189999999844
0
LINE
8
BLACK
6
CONTINUOUS
10
450.4789299999999912
20
-220.2746180000000038
11
450.6314329999999586
21
-220.4271209999999996
0
LINE
8
BLACK
6
CONTINUOUS
10
450.9880469999999946
20
-219.7655010000000004
11
451.140549999999962
21
-219.9180039999999963
0
LINE
8
BLACK
6
CONTINUOUS
10
477.1324719999999502
20
-251.2063330000000008
11
477.1324719999999502
21
-252.0063329999999837
0
LINE
8
BLACK
6
CONTINUOUS
10
477.1324719999999502
20
-255.0963329999999871
11
477.1324719999999502
21
-254.856332999999978
0
LINE
8
BLACK
6
CONTINUOUS
10
483.0176479999999515
20
-253.2563329999999837
11
487.5824719999999957
21
-253.2563329999999837
0
LINE
8
BLACK
6
CONTINUOUS
10
485.0324719999999843
20
-249.2063330000000008
11
479.1324719999999502
21
-249.2063330000000008
0
LINE
8
BLACK
6
CONTINUOUS
10
488.0824719999999957
20
-249.2063330000000008
11
486.5324719999999843
21
-249.2063330000000008
0
LINE
8
BLACK
6
CONTINUOUS
10
488.0824719999999957
20
-249.4363329999999905
11
488.0824719999999957
21
-249.2063330000000008
0
LINE
8
BLACK
6
CONTINUOUS
10
488.0824719999999957
20
-252.7563329999999837
11
488.0824719999999957
21
-252.2863329999999848
0
ARC
8
BLACK
10
479.1324769999999944
20
-251.2063379999999881
40
2.0000050000062499
50
90.00014324
51
179.99985676
0
ARC
8
BLACK
10
483.0167819999999779
20
-255.6056649999999877
40
2.3493317156502185
50
89.97887989
51
167.47892704
0
ARC
8
BLACK
10
487.5824709999999982
20
-252.7563319999999862
40
0.500001000001
50
-89.99988541
51
-0.00011459
0
LINE
8
BLACK
6
CONTINUOUS
10
223.9798469999999782
20
-206.2616779999999892
11
224.0256409999999789
21
-206.0260879999999872
0
LINE
8
BLACK
6
CONTINUOUS
10
224.7220949999999959
20
-202.4431489999999769
11
224.5694459999999992
21
-203.2284499999999809
0
LINE
8
BLACK
6
CONTINUOUS
10
230.1079839999999876
20
-205.5784289999999999
11
234.5889389999999821
21
-206.4494379999999865
0
LINE
8
BLACK
6
CONTINUOUS
10
232.8585659999999962
20
-201.9872849999999858
11
227.0669659999999794
21
-200.8615120000000047
0
LINE
8
BLACK
6
CONTINUOUS
10
235.1751569999999845
20
-206.0540289999999857
11
235.2648360000000025
21
-205.592663999999985
0
LINE
8
BLACK
6
CONTINUOUS
10
235.8086429999999893
20
-202.7950270000000046
11
235.8525289999999757
21
-202.5692530000000033
0
LINE
8
BLACK
6
CONTINUOUS
10
235.8525289999999757
20
-202.5692530000000033
11
234.3310069999999996
21
-202.2734989999999868
0
ARC
8
BLACK
10
226.6853539999999896
20
-202.8247729999999933
40
2.0000056946061426
50
79.00020473
51
168.99985634
0
ARC
8
BLACK
10
229.6588619999999992
20
-207.8844349999999963
40
2.3493350206850021
50
78.97893660
51
156.47888690
0
ARC
8
BLACK
10
234.6843429999999842
20
-205.9586239999999862
40
0.5000004966207533
50
-100.99993509
51
-11.00004758
0
LINE
8
BLACK
6
CONTINUOUS
10
346.3263569999999731
20
-209.8344409999999982
11
346.4790039999999749
21
-210.6197429999999997
0
LINE
8
BLACK
6
CONTINUOUS
10
347.0686039999999934
20
-213.6529709999999795
11
347.0228099999999927
21
-213.4173799999999801
0
LINE
8
BLACK
6
CONTINUOUS
10
352.4945639999999685
20
-210.7238319999999874
11
356.9755199999999604
21
-209.8528230000000008
0
LINE
8
BLACK
6
CONTINUOUS
10
353.6995939999999905
20
-206.3637959999999794
11
347.9079929999999763
21
-207.4895689999999888
0
LINE
8
BLACK
6
CONTINUOUS
10
356.6935569999999984
20
-205.7818279999999902
11
355.1720349999999939
21
-206.0775819999999783
0
LINE
8
BLACK
6
CONTINUOUS
10
356.7374429999999847
20
-206.0076029999999889
11
356.6935569999999984
21
-205.7818279999999902
0
LINE
8
BLACK
6
CONTINUOUS
10
357.3709289999999896
20
-209.2666049999999984
11
357.281248000000005
21
-208.8052399999999977
0
ARC
8
BLACK
10
348.2896029999999996
20
-209.4528179999999793
40
1.9999927426480828
50
-259.00019538
51
-168.99981340
0
ARC
8
BLACK
10
352.9419879999999807
20
-213.0301659999999799
40
2.3493318320450176
50
100.97888691
51
178.47892959
0
ARC
8
BLACK
10
356.8801149999999893
20
-209.3620090000000005
40
0.5000003058119065
50
-78.99995242
51
10.99993509
0
LINE
8
BLACK
6
CONTINUOUS
10
199.0501139999999793
20
-259.6354880000000094
11
199.0959079999999801
21
-259.3998980000000074
0
LINE
8
BLACK
6
CONTINUOUS
10
199.7923619999999971
20
-255.8169589999999971
11
199.6397130000000004
21
-256.6022600000000011
0
LINE
8
BLACK
6
CONTINUOUS
10
205.1782509999999888
20
-258.9522389999999632
11
209.6592059999999833
21
-259.8232479999999782
0
LINE
8
BLACK
6
CONTINUOUS
10
207.9288329999999974
20
-255.3610949999999775
11
202.1372329999999806
21
-254.2353219999999965
0
LINE
8
BLACK
6
CONTINUOUS
10
210.2454239999999857
20
-259.4278390000000059
11
210.3351030000000037
21
-258.9664740000000052
0
LINE
8
BLACK
6
CONTINUOUS
10
210.8789099999999905
20
-256.1688369999999964
11
210.9227959999999769
21
-255.9430629999999951
0
LINE
8
BLACK
6
CONTINUOUS
10
210.9227959999999769
20
-255.9430629999999951
11
209.4012740000000008
21
-255.6473089999999786
0
ARC
8
BLACK
10
201.7556209999999908
20
-256.1985829999999851
40
2.0000056946061426
50
79.00020473
51
168.99985634
0
ARC
8
BLACK
10
204.7291290000000004
20
-261.2582449999999881
40
2.3493350206850021
50
78.97893660
51
156.47888690
0
ARC
8
BLACK
10
209.7546099999999853
20
-259.3324339999999779
40
0.5000004966207533
50
-100.99993509
51
-11.00004758
0
LINE
8
BLACK
6
CONTINUOUS
10
353.0516250000000014
20
-218.0826889999999878
11
354.7096990000000005
21
-219.2010739999999771
0
LINE
8
BLACK
6
CONTINUOUS
10
355.2939890000000105
20
-214.7582479999999805
11
353.0516250000000014
21
-218.0826889999999878
0
LINE
8
BLACK
6
CONTINUOUS
10
356.9520640000000071
20
-215.8766339999999957
11
354.7096990000000005
21
-219.2010739999999771
0
LINE
8
BLACK
6
CONTINUOUS
10
458.6247399999999743
20
-230.9730959999999982
11
458.6247399999999743
21
-230.7574239999999861
0
LINE
8
BLACK
6
CONTINUOUS
10
459.3447400000000016
20
-230.9730959999999982
11
459.3447400000000016
21
-230.7574239999999861
0
LINE
8
BLACK
6
CONTINUOUS
10
184.2380759999999782
20
-262.3490199999999959
11
185.3564609999999959
21
-264.007093999999995
0
LINE
8
BLACK
6
CONTINUOUS
10
187.562515999999988
20
-260.1066549999999893
11
184.2380759999999782
21
-262.3490199999999959
0
LINE
8
BLACK
6
CONTINUOUS
10
188.6809020000000032
20
-261.7647299999999859
11
185.3564609999999959
21
-264.007093999999995
0
LINE
8
BLACK
6
CONTINUOUS
10
122.165670999999989
20
-269.6899199999999723
11
123.2840559999999925
21
-271.3479939999999715
0
LINE
8
BLACK
6
CONTINUOUS
10
125.4901109999999989
20
-267.4475549999999657
11
122.165670999999989
21
-269.6899199999999723
0
LINE
8
BLACK
6
CONTINUOUS
10
126.6084969999999998
20
-269.1056299999999624
11
123.2840559999999925
21
-271.3479939999999715
0
LINE
8
BLACK
6
CONTINUOUS
10
482.1603379999999675
20
-184.3862780000000043
11
483.5745519999999829
21
-185.8004919999999913
0
LINE
8
BLACK
6
CONTINUOUS
10
484.9958359999999971
20
-181.5507800000000032
11
482.1603379999999675
21
-184.3862780000000043
0
LINE
8
BLACK
6
CONTINUOUS
10
486.4100499999999556
20
-182.9649939999999901
11
483.5745519999999829
21
-185.8004919999999913
0
LINE
8
BLACK
6
CONTINUOUS
10
348.92118099999999
20
-248.143164999999982
11
349.0738279999999918
21
-248.9284669999999835
0
LINE
8
BLACK
6
CONTINUOUS
10
349.6634280000000103
20
-251.9616949999999918
11
349.6176340000000096
21
-251.7261039999999923
0
LINE
8
BLACK
6
CONTINUOUS
10
355.0893879999999854
20
-249.0325559999999996
11
359.5703439999999773
21
-248.1615469999999846
0
LINE
8
BLACK
6
CONTINUOUS
10
356.2944180000000074
20
-244.6725199999999916
11
350.5028169999999932
21
-245.798293000000001
0
LINE
8
BLACK
6
CONTINUOUS
10
359.2883809999999585
20
-244.0905520000000024
11
357.7668590000000108
21
-244.3863059999999905
0
LINE
8
BLACK
6
CONTINUOUS
10
359.3322670000000016
20
-244.3163270000000011
11
359.2883809999999585
21
-244.0905520000000024
0
LINE
8
BLACK
6
CONTINUOUS
10
359.9657530000000065
20
-247.5753289999999822
11
359.8760719999999651
21
-247.1139639999999815
0
ARC
8
BLACK
10
350.8844269999999597
20
-247.7615419999999915
40
1.9999927426480828
50
-259.00019538
51
-168.99981340
0
ARC
8
BLACK
10
355.5368119999999976
20
-251.3388899999999921
40
2.3493318320450176
50
100.97888691
51
178.47892959
0
ARC
8
BLACK
10
359.4749390000000062
20
-247.6707329999999843
40
0.5000003058119065
50
-78.99995242
51
10.99993509
0
LINE
8
BLACK
6
CONTINUOUS
10
318.2464529999999741
20
-263.6612349999999765
11
319.9045269999999732
21
-264.7796199999999658
0
LINE
8
BLACK
6
CONTINUOUS
10
320.4888169999999832
20
-260.3367939999999976
11
318.2464529999999741
21
-263.6612349999999765
0
LINE
8
BLACK
6
CONTINUOUS
10
322.1468919999999798
20
-261.4551799999999844
11
319.9045269999999732
21
-264.7796199999999658
0
LINE
8
BLACK
6
CONTINUOUS
10
361.361536000000001
20
-235.8739589999999851
11
363.0196100000000001
21
-236.9923440000000028
0
LINE
8
BLACK
6
CONTINUOUS
10
363.6039000000000101
20
-232.5495179999999777
11
361.361536000000001
21
-235.8739589999999851
0
LINE
8
BLACK
6
CONTINUOUS
10
365.2619750000000067
20
-233.6679039999999929
11
363.0196100000000001
21
-236.9923440000000028
0
LINE
8
BLACK
6
CONTINUOUS
10
286.5615449999999669
20
-250.4136039999999923
11
288.219618999999966
21
-251.5319889999999816
0
LINE
8
BLACK
6
CONTINUOUS
10
288.803908999999976
20
-247.089162999999985
11
286.5615449999999669
21
-250.4136039999999923
0
LINE
8
BLACK
6
CONTINUOUS
10
290.4619839999999726
20
-248.2075490000000002
11
288.219618999999966
21
-251.5319889999999816
0
LINE
8
BLACK
6
CONTINUOUS
10
439.5097399999999652
20
-132.3463109999999858
11
439.5097399999999652
21
-134.2463109999999915
0
LINE
8
BLACK
6
CONTINUOUS
10
439.5097399999999652
20
-136.1463109999999972
11
439.5097399999999652
21
-138.1463109999999972
0
LINE
8
BLACK
6
CONTINUOUS
10
448.9097399999999993
20
-132.3463109999999858
11
439.5097399999999652
21
-132.3463109999999858
0
LINE
8
BLACK
6
CONTINUOUS
10
448.9097399999999993
20
-132.3463109999999858
11
448.9097399999999993
21
-134.2463109999999915
0
LINE
8
BLACK
6
CONTINUOUS
10
448.9097399999999993
20
-136.1463109999999972
11
448.9097399999999993
21
-138.1463109999999972
0
LINE
8
BLACK
6
CONTINUOUS
10
475.8755789999999593
20
-212.779736999999983
11
476.1828610000000026
21
-212.779736999999983
0
LINE
8
BLACK
6
CONTINUOUS
10
475.8755789999999593
20
-213.5397370000000024
11
476.1828610000000026
21
-213.5397370000000024
0
LINE
8
BLACK
6
CONTINUOUS
10
246.5678039999999953
20
-216.2450319999999806
11
247.6861889999999846
21
-217.9031059999999798
0
LINE
8
BLACK
6
CONTINUOUS
10
249.8922439999999767
20
-214.0026670000000024
11
246.5678039999999953
21
-216.2450319999999806
0
LINE
8
BLACK
6
CONTINUOUS
10
251.0106299999999919
20
-215.6607419999999991
11
247.6861889999999846
21
-217.9031059999999798
0
LINE
8
BLACK
6
CONTINUOUS
10
197.2229859999999917
20
-245.4664779999999951
11
198.341370999999981
21
-247.1245519999999942
0
LINE
8
BLACK
6
CONTINUOUS
10
200.5474260000000015
20
-243.2241129999999885
11
197.2229859999999917
21
-245.4664779999999951
0
LINE
8
BLACK
6
CONTINUOUS
10
201.6658119999999883
20
-244.8821879999999851
11
198.341370999999981
21
-247.1245519999999942
0
LINE
8
BLACK
6
CONTINUOUS
10
173.5949410000000057
20
-215.8743969999999877
11
173.6407349999999781
21
-215.6388069999999857
0
LINE
8
BLACK
6
CONTINUOUS
10
174.3371889999999951
20
-212.0558680000000038
11
174.1845399999999984
21
-212.8411689999999794
0
LINE
8
BLACK
6
CONTINUOUS
10
179.7230779999999868
20
-215.1911479999999983
11
184.2040329999999813
21
-216.0621569999999849
0
LINE
8
BLACK
6
CONTINUOUS
10
182.4736599999999953
20
-211.6000039999999842
11
176.6820599999999786
21
-210.4742310000000032
0
LINE
8
BLACK
6
CONTINUOUS
10
184.7902509999999836
20
-215.6667479999999841
11
184.8799300000000017
21
-215.2053829999999834
0
LINE
8
BLACK
6
CONTINUOUS
10
185.4237369999999885
20
-212.4077460000000031
11
185.4676230000000032
21
-212.1819720000000018
0
LINE
8
BLACK
6
CONTINUOUS
10
185.4676230000000032
20
-212.1819720000000018
11
183.9461009999999987
21
-211.8862179999999853
0
ARC
8
BLACK
10
176.3004479999999887
20
-212.4374919999999918
40
2.0000056946061426
50
79.00020473
51
168.99985634
0
ARC
8
BLACK
10
179.2739559999999983
20
-217.4971539999999948
40
2.3493350206850021
50
78.97893660
51
156.47888690
0
ARC
8
BLACK
10
184.2994369999999833
20
-215.5713429999999846
40
0.5000004966207533
50
-100.99993509
51
-11.00004758
0
LINE
8
BLACK
6
CONTINUOUS
10
229.6949339999999893
20
-226.7791309999999783
11
229.7407279999999901
21
-226.5435409999999763
0
LINE
8
BLACK
6
CONTINUOUS
10
230.4371819999999786
20
-222.9606019999999944
11
230.2845329999999819
21
-223.7459029999999984
0
LINE
8
BLACK
6
CONTINUOUS
10
235.8230709999999988
20
-226.0958819999999889
11
240.3040259999999932
21
-226.9668909999999755
0
LINE
8
BLACK
6
CONTINUOUS
10
238.5736529999999789
20
-222.5047380000000032
11
232.7820529999999906
21
-221.3789649999999938
0
LINE
8
BLACK
6
CONTINUOUS
10
240.8902439999999956
20
-226.5714820000000032
11
240.9799229999999852
21
-226.1101170000000025
0
LINE
8
BLACK
6
CONTINUOUS
10
241.5237300000000005
20
-223.3124799999999937
11
241.5676159999999868
21
-223.0867059999999924
0
LINE
8
BLACK
6
CONTINUOUS
10
241.5676159999999868
20
-223.0867059999999924
11
240.0460939999999823
21
-222.7909519999999759
0
ARC
8
BLACK
10
232.4004410000000007
20
-223.3422259999999824
40
2.0000056946061426
50
79.00020473
51
168.99985634
0
ARC
8
BLACK
10
235.3739489999999819
20
-228.4018879999999854
40
2.3493350206850021
50
78.97893660
51
156.47888690
0
ARC
8
BLACK
10
240.3994299999999953
20
-226.4760770000000036
40
0.5000004966207533
50
-100.99993509
51
-11.00004758
0
LINE
8
BLACK
6
CONTINUOUS
10
443.7222399999999993
20
-145.7613110000000063
11
444.5222399999999539
21
-145.7613099999999804
0
LINE
8
BLACK
6
CONTINUOUS
10
443.7222399999999993
20
-148.8813109999999824
11
444.5222399999999539
21
-148.8813119999999799
0
LINE
8
BLACK
6
CONTINUOUS
10
445.3222399999999652
20
-145.7613110000000063
11
444.5222399999999539
21
-145.7613099999999804
0
LINE
8
BLACK
6
CONTINUOUS
10
445.3222399999999652
20
-148.8813109999999824
11
444.5222399999999539
21
-148.8813119999999799
0
LINE
8
BLACK
6
CONTINUOUS
10
446.0731139999999755
20
-145.4234739999999988
11
446.0762749999999528
21
-145.4229749999999797
0
LINE
8
BLACK
6
CONTINUOUS
10
446.0762749999999528
20
-145.4229749999999797
11
446.0784089999999651
21
-145.4245269999999834
0
LINE
8
BLACK
6
CONTINUOUS
10
446.0784089999999651
20
-145.4245269999999834
11
446.0852009999999837
21
-145.4258779999999831
0
LINE
8
BLACK
6
CONTINUOUS
10
446.0852009999999837
20
-145.4258779999999831
11
446.0983599999999569
21
-145.4390369999999848
0
LINE
8
BLACK
6
CONTINUOUS
10
446.0983599999999569
20
-145.4390369999999848
11
446.11341299999998
21
-145.4499849999999981
0
LINE
8
BLACK
6
CONTINUOUS
10
446.11341299999998
20
-145.4499849999999981
11
446.1141819999999711
21
-145.454858999999999
0
LINE
8
BLACK
6
CONTINUOUS
10
446.1141819999999711
20
-145.454858999999999
11
446.1176729999999679
21
-145.4583499999999958
0
LINE
8
BLACK
6
CONTINUOUS
10
446.1176729999999679
20
-145.4583499999999958
11
446.1176729999999679
21
-145.4769619999999861
0
LINE
8
BLACK
6
CONTINUOUS
10
446.1176729999999679
20
-145.4769619999999861
11
446.1205759999999714
21
-145.4953459999999836
0
LINE
8
BLACK
6
CONTINUOUS
10
446.1205759999999714
20
-145.4953459999999836
11
446.1176729999999679
21
-145.5016339999999957
0
LINE
8
BLACK
6
CONTINUOUS
10
446.1176729999999679
20
-145.5016339999999957
11
446.1176729999999679
21
-145.5042719999999861
0
LINE
8
BLACK
6
CONTINUOUS
10
446.1176729999999679
20
-145.5042719999999861
11
446.1154109999999946
21
-145.5065329999999904
0
LINE
8
BLACK
6
CONTINUOUS
10
446.1154109999999946
20
-145.5065329999999904
11
446.1107639999999606
21
-145.5166009999999801
0
LINE
8
BLACK
6
CONTINUOUS
10
446.1107639999999606
20
-145.5166009999999801
11
445.8707639999999515
21
-145.8466009999999926
0
LINE
8
BLACK
6
CONTINUOUS
10
445.8707639999999515
20
-145.8466009999999926
11
445.8535660000000007
21
-145.8624849999999924
0
LINE
8
BLACK
6
CONTINUOUS
10
445.8535660000000007
20
-145.8624849999999924
11
445.8440579999999613
21
-145.8639859999999828
0
LINE
8
BLACK
6
CONTINUOUS
10
445.8440579999999613
20
-145.8639859999999828
11
445.8362750000000005
21
-145.8696469999999863
0
LINE
8
BLACK
6
CONTINUOUS
10
445.8362750000000005
20
-145.8696469999999863
11
445.8222399999999652
21
-145.8674299999999846
0
LINE
8
BLACK
6
CONTINUOUS
10
445.8222399999999652
20
-145.8674299999999846
11
445.8082049999999867
21
-145.8696469999999863
0
LINE
8
BLACK
6
CONTINUOUS
10
445.8082049999999867
20
-145.8696469999999863
11
445.8004189999999767
21
-145.8639849999999853
0
LINE
8
BLACK
6
CONTINUOUS
10
445.8004189999999767
20
-145.8639849999999853
11
445.7909139999999866
21
-145.8624839999999949
0
LINE
8
BLACK
6
CONTINUOUS
10
445.7909139999999866
20
-145.8624839999999949
11
445.773715999999979
21
-145.8466009999999926
0
LINE
8
BLACK
6
CONTINUOUS
10
445.773715999999979
20
-145.8466009999999926
11
445.5337159999999699
21
-145.5166009999999801
0
LINE
8
BLACK
6
CONTINUOUS
10
445.5337159999999699
20
-145.5166009999999801
11
445.5290679999999952
21
-145.5065329999999904
0
LINE
8
BLACK
6
CONTINUOUS
10
445.5290679999999952
20
-145.5065329999999904
11
445.5268069999999625
21
-145.5042719999999861
0
LINE
8
BLACK
6
CONTINUOUS
10
445.5268069999999625
20
-145.5042719999999861
11
445.5268069999999625
21
-145.5016339999999957
0
LINE
8
BLACK
6
CONTINUOUS
10
445.5268069999999625
20
-145.5016339999999957
11
445.5239039999999591
21
-145.4953459999999836
0
LINE
8
BLACK
6
CONTINUOUS
10
445.5239039999999591
20
-145.4953459999999836
11
445.5268069999999625
21
-145.4769589999999937
0
LINE
8
BLACK
6
CONTINUOUS
10
445.5268069999999625
20
-145.4769589999999937
11
445.5268069999999625
21
-145.4583499999999958
0
LINE
8
BLACK
6
CONTINUOUS
10
445.5268069999999625
20
-145.4583499999999958
11
445.5302959999999644
21
-145.4548599999999965
0
LINE
8
BLACK
6
CONTINUOUS
10
445.5302959999999644
20
-145.4548599999999965
11
445.531065999999953
21
-145.4499849999999981
0
LINE
8
BLACK
6
CONTINUOUS
10
445.531065999999953
20
-145.4499849999999981
11
445.546120999999971
21
-145.4390349999999899
0
LINE
8
BLACK
6
CONTINUOUS
10
445.546120999999971
20
-145.4390349999999899
11
445.5592790000000036
21
-145.4258779999999831
0
LINE
8
BLACK
6
CONTINUOUS
10
445.5592790000000036
20
-145.4258779999999831
11
445.5660699999999679
21
-145.4245269999999834
0
LINE
8
BLACK
6
CONTINUOUS
10
445.5660699999999679
20
-145.4245269999999834
11
445.5682049999999776
21
-145.4229749999999797
0
LINE
8
BLACK
6
CONTINUOUS
10
445.5682049999999776
20
-145.4229749999999797
11
445.5713649999999575
21
-145.4234730000000013
0
LINE
8
BLACK
6
CONTINUOUS
10
445.5713649999999575
20
-145.4234730000000013
11
445.5822399999999561
21
-145.4213110000000029
0
LINE
8
BLACK
6
CONTINUOUS
10
445.5822399999999561
20
-145.4213110000000029
11
446.0622399999999743
21
-145.4213110000000029
0
LINE
8
BLACK
6
CONTINUOUS
10
446.0622399999999743
20
-145.4213110000000029
11
446.0731139999999755
21
-145.4234739999999988
0
LINE
8
BLACK
6
CONTINUOUS
10
458.0824719999999957
20
-251.2063330000000008
11
458.0824719999999957
21
-252.0063329999999837
0
LINE
8
BLACK
6
CONTINUOUS
10
458.0824719999999957
20
-255.0963329999999871
11
458.0824719999999957
21
-254.856332999999978
0
LINE
8
BLACK
6
CONTINUOUS
10
463.967647999999997
20
-253.2563329999999837
11
468.5324719999999843
21
-253.2563329999999837
0
LINE
8
BLACK
6
CONTINUOUS
10
465.9824719999999729
20
-249.2063330000000008
11
460.0824719999999957
21
-249.2063330000000008
0
LINE
8
BLACK
6
CONTINUOUS
10
469.0324719999999843
20
-249.2063330000000008
11
467.4824719999999729
21
-249.2063330000000008
0
LINE
8
BLACK
6
CONTINUOUS
10
469.0324719999999843
20
-249.4363329999999905
11
469.0324719999999843
21
-249.2063330000000008
0
LINE
8
BLACK
6
CONTINUOUS
10
469.0324719999999843
20
-252.7563329999999837
11
469.0324719999999843
21
-252.2863329999999848
0
ARC
8
BLACK
10
460.082476999999983
20
-251.2063379999999881
40
2.0000050000062499
50
90.00014324
51
179.99985676
0
ARC
8
BLACK
10
463.9667819999999665
20
-255.6056649999999877
40
2.3493317156502185
50
89.97887989
51
167.47892704
0
ARC
8
BLACK
10
468.5324709999999868
20
-252.7563319999999862
40
0.500001000001
50
-89.99988541
51
-0.00011459
0
LINE
8
BLACK
6
CONTINUOUS
10
409.4089419999999677
20
-245.9410419999999817
11
411.0670159999999669
21
-247.0594269999999995
0
LINE
8
BLACK
6
CONTINUOUS
10
411.6513059999999768
20
-242.6166010000000028
11
409.4089419999999677
21
-245.9410419999999817
0
LINE
8
BLACK
6
CONTINUOUS
10
413.3093809999999735
20
-243.7349869999999896
11
411.0670159999999669
21
-247.0594269999999995
0
LINE
8
BLACK
6
CONTINUOUS
10
177.4829000000000008
20
-222.2228409999999883
11
178.6012849999999901
21
-223.8809149999999875
0
LINE
8
BLACK
6
CONTINUOUS
10
180.8073399999999822
20
-219.9804759999999817
11
177.4829000000000008
21
-222.2228409999999883
0
LINE
8
BLACK
6
CONTINUOUS
10
181.9257259999999974
20
-221.6385509999999783
11
178.6012849999999901
21
-223.8809149999999875
0
LINE
8
BLACK
6
CONTINUOUS
10
167.8798529999999971
20
-195.3569439999999986
11
167.9256469999999979
21
-195.1213539999999966
0
LINE
8
BLACK
6
CONTINUOUS
10
168.6221009999999865
20
-191.5384149999999863
11
168.4694519999999898
21
-192.3237159999999903
0
LINE
8
BLACK
6
CONTINUOUS
10
174.0079899999999782
20
-194.6736949999999808
11
178.4889450000000011
21
-195.5447039999999959
0
LINE
8
BLACK
6
CONTINUOUS
10
176.7585719999999867
20
-191.0825509999999952
11
170.9669719999999984
21
-189.9567779999999857
0
LINE
8
BLACK
6
CONTINUOUS
10
179.0751630000000034
20
-195.1492949999999951
11
179.164841999999993
21
-194.6879299999999944
0
LINE
8
BLACK
6
CONTINUOUS
10
179.7086489999999799
20
-191.8902929999999856
11
179.7525349999999946
21
-191.6645189999999843
0
LINE
8
BLACK
6
CONTINUOUS
10
179.7525349999999946
20
-191.6645189999999843
11
178.2310129999999901
21
-191.3687649999999962
0
ARC
8
BLACK
10
170.5853599999999801
20
-191.9200390000000027
40
2.0000056946061426
50
79.00020473
51
168.99985634
0
ARC
8
BLACK
10
173.5588679999999897
20
-196.9797009999999773
40
2.3493350206850021
50
78.97893660
51
156.47888690
0
ARC
8
BLACK
10
178.5843490000000031
20
-195.0538899999999956
40
0.5000004966207533
50
-100.99993509
51
-11.00004758
0
LINE
8
BLACK
6
CONTINUOUS
10
463.1103379999999561
20
-184.3862780000000043
11
464.5245519999999715
21
-185.8004919999999913
0
LINE
8
BLACK
6
CONTINUOUS
10
465.9458359999999857
20
-181.5507800000000032
11
463.1103379999999561
21
-184.3862780000000043
0
LINE
8
BLACK
6
CONTINUOUS
10
467.3600500000000011
20
-182.9649939999999901
11
464.5245519999999715
21
-185.8004919999999913
0
LINE
8
BLACK
6
CONTINUOUS
10
134.3678170000000023
20
-194.4355639999999994
11
135.4862019999999916
21
-196.0936379999999986
0
LINE
8
BLACK
6
CONTINUOUS
10
137.6922569999999837
20
-192.1931989999999928
11
134.3678170000000023
21
-194.4355639999999994
0
LINE
8
BLACK
6
CONTINUOUS
10
138.8106429999999989
20
-193.8512739999999894
11
135.4862019999999916
21
-196.0936379999999986
0
LINE
8
BLACK
6
CONTINUOUS
10
390.7143419999999878
20
-162.2454160000000059
11
392.372415999999987
21
-163.3638009999999952
0
LINE
8
BLACK
6
CONTINUOUS
10
392.9567059999999969
20
-158.9209749999999985
11
390.7143419999999878
21
-162.2454160000000059
0
LINE
8
BLACK
6
CONTINUOUS
10
394.6147809999999936
20
-160.0393609999999853
11
392.372415999999987
21
-163.3638009999999952
0
LINE
8
BLACK
6
CONTINUOUS
10
187.3572189999999864
20
-170.0331309999999974
11
187.4030129999999872
21
-169.7975409999999954
0
LINE
8
BLACK
6
CONTINUOUS
10
188.0994670000000042
20
-166.2146019999999851
11
187.9468179999999791
21
-166.9999029999999891
0
LINE
8
BLACK
6
CONTINUOUS
10
193.4853559999999959
20
-169.3498819999999796
11
197.9663109999999904
21
-170.2208909999999946
0
LINE
8
BLACK
6
CONTINUOUS
10
196.2359380000000044
20
-165.7587379999999939
11
190.4443379999999877
21
-164.6329649999999845
0
LINE
8
BLACK
6
CONTINUOUS
10
198.5525289999999927
20
-169.8254819999999938
11
198.6422079999999823
21
-169.3641169999999931
0
LINE
8
BLACK
6
CONTINUOUS
10
199.1860149999999976
20
-166.5664799999999843
11
199.2299009999999839
21
-166.3407059999999831
0
LINE
8
BLACK
6
CONTINUOUS
10
199.2299009999999839
20
-166.3407059999999831
11
197.7083789999999794
21
-166.044951999999995
0
ARC
8
BLACK
10
190.0627259999999978
20
-166.5962260000000015
40
2.0000056946061426
50
79.00020473
51
168.99985634
0
ARC
8
BLACK
10
193.036233999999979
20
-171.6558880000000045
40
2.3493350206850021
50
78.97893660
51
156.47888690
0
ARC
8
BLACK
10
198.0617149999999924
20
-169.7300769999999943
40
0.5000004966207533
50
-100.99993509
51
-11.00004758
0
LINE
8
BLACK
6
CONTINUOUS
10
292.821187000000009
20
-259.0478989999999726
11
292.9738340000000107
21
-259.8332009999999741
0
LINE
8
BLACK
6
CONTINUOUS
10
293.5634339999999725
20
-262.8664289999999824
11
293.5176399999999717
21
-262.6308379999999829
0
LINE
8
BLACK
6
CONTINUOUS
10
298.9893940000000043
20
-259.9372899999999618
11
303.4703499999999963
21
-259.0662810000000036
0
LINE
8
BLACK
6
CONTINUOUS
10
300.1944239999999695
20
-255.5772539999999822
11
294.4028230000000121
21
-256.7030269999999632
0
LINE
8
BLACK
6
CONTINUOUS
10
303.1883869999999774
20
-254.995285999999993
11
301.666864999999973
21
-255.2910399999999811
0
LINE
8
BLACK
6
CONTINUOUS
10
303.2322729999999638
20
-255.2210609999999917
11
303.1883869999999774
21
-254.995285999999993
0
LINE
8
BLACK
6
CONTINUOUS
10
303.8657589999999686
20
-258.4800629999999728
11
303.7760779999999841
21
-258.0186979999999721
0
ARC
8
BLACK
10
294.7844329999999786
20
-258.6662759999999821
40
1.9999927426480828
50
-259.00019538
51
-168.99981340
0
ARC
8
BLACK
10
299.4368179999999597
20
-262.2436240000000112
40
2.3493318320450176
50
100.97888691
51
178.47892959
0
ARC
8
BLACK
10
303.3749449999999683
20
-258.5754670000000033
40
0.5000003058119065
50
-78.99995242
51
10.99993509
0
LINE
8
BLACK
6
CONTINUOUS
10
453.7797400000000039
20
-229.5939009999999882
11
453.7797400000000039
21
-229.2866190000000017
0
LINE
8
BLACK
6
CONTINUOUS
10
454.5397399999999948
20
-229.5939009999999882
11
454.5397399999999948
21
-229.2866190000000017
0
LINE
8
BLACK
6
CONTINUOUS
10
333.3414469999999596
20
-192.9518989999999974
11
333.4940939999999614
21
-193.7372009999999989
0
LINE
8
BLACK
6
CONTINUOUS
10
334.08369399999998
20
-196.7704289999999787
11
334.0378999999999792
21
-196.5348379999999793
0
LINE
8
BLACK
6
CONTINUOUS
10
339.5096540000000118
20
-193.8412899999999865
11
343.9906100000000038
21
-192.9702809999999999
0
LINE
8
BLACK
6
CONTINUOUS
10
340.714683999999977
20
-189.4812539999999785
11
334.9230829999999628
21
-190.607026999999988
0
LINE
8
BLACK
6
CONTINUOUS
10
343.7086469999999849
20
-188.8992859999999894
11
342.1871249999999804
21
-189.1950399999999775
0
LINE
8
BLACK
6
CONTINUOUS
10
343.7525329999999713
20
-189.1250609999999881
11
343.7086469999999849
21
-188.8992859999999894
0
LINE
8
BLACK
6
CONTINUOUS
10
344.3860189999999761
20
-192.3840629999999976
11
344.2963379999999916
21
-191.9226979999999969
0
ARC
8
BLACK
10
335.3046929999999861
20
-192.5702759999999785
40
1.9999927426480828
50
-259.00019538
51
-168.99981340
0
ARC
8
BLACK
10
339.9570779999999672
20
-196.1476239999999791
40
2.3493318320450176
50
100.97888691
51
178.47892959
0
ARC
8
BLACK
10
343.8952049999999758
20
-192.4794669999999996
40
0.5000003058119065
50
-78.99995242
51
10.99993509
0
LINE
8
BLACK
6
CONTINUOUS
10
224.7572139999999763
20
-177.3029530000000022
11
224.8030079999999771
21
-177.0673630000000003
0
LINE
8
BLACK
6
CONTINUOUS
10
225.4994619999999941
20
-173.48442399999999
11
225.3468129999999974
21
-174.269724999999994
0
LINE
8
BLACK
6
CONTINUOUS
10
230.8853509999999858
20
-176.6197039999999845
11
235.3663059999999803
21
-177.4907129999999995
0
LINE
8
BLACK
6
CONTINUOUS
10
233.6359329999999943
20
-173.0285599999999988
11
227.8443329999999776
21
-171.9027869999999893
0
LINE
8
BLACK
6
CONTINUOUS
10
235.9525239999999826
20
-177.0953039999999987
11
236.0422030000000007
21
-176.633938999999998
0
LINE
8
BLACK
6
CONTINUOUS
10
236.5860099999999875
20
-173.8363019999999892
11
236.6298960000000022
21
-173.610527999999988
0
LINE
8
BLACK
6
CONTINUOUS
10
236.6298960000000022
20
-173.610527999999988
11
235.1083739999999977
21
-173.3147739999999999
0
ARC
8
BLACK
10
227.4627209999999877
20
-173.8660479999999779
40
2.0000056946061426
50
79.00020473
51
168.99985634
0
ARC
8
BLACK
10
230.4362289999999973
20
-178.9257099999999809
40
2.3493350206850021
50
78.97893660
51
156.47888690
0
ARC
8
BLACK
10
235.4617099999999823
20
-176.9998989999999992
40
0.5000004966207533
50
-100.99993509
51
-11.00004758
0
LINE
8
BLACK
6
CONTINUOUS
10
402.6836739999999963
20
-237.6927939999999921
11
402.8363209999999981
21
-238.4780959999999936
0
LINE
8
BLACK
6
CONTINUOUS
10
403.4259209999999598
20
-241.5113240000000019
11
403.380126999999959
21
-241.2757330000000024
0
LINE
8
BLACK
6
CONTINUOUS
10
408.8518809999999917
20
-238.5821849999999813
11
413.3328369999999836
21
-237.7111759999999947
0
LINE
8
BLACK
6
CONTINUOUS
10
410.0569109999999569
20
-234.2221490000000017
11
404.2653099999999995
21
-235.3479219999999827
0
LINE
8
BLACK
6
CONTINUOUS
10
413.0508739999999648
20
-233.6401809999999841
11
411.5293519999999603
21
-233.9359350000000006
0
LINE
8
BLACK
6
CONTINUOUS
10
413.0947600000000079
20
-233.8659559999999829
11
413.0508739999999648
21
-233.6401809999999841
0
LINE
8
BLACK
6
CONTINUOUS
10
413.728245999999956
20
-237.1249579999999924
11
413.6385649999999714
21
-236.6635929999999917
0
ARC
8
BLACK
10
404.646919999999966
20
-237.3111710000000016
40
1.9999927426480828
50
-259.00019538
51
-168.99981340
0
ARC
8
BLACK
10
409.2993050000000039
20
-240.8885190000000023
40
2.3493318320450176
50
100.97888691
51
178.47892959
0
ARC
8
BLACK
10
413.2374319999999557
20
-237.2203619999999944
40
0.5000003058119065
50
-78.99995242
51
10.99993509
0
LINE
8
BLACK
6
CONTINUOUS
10
318.5390810000000101
20
-166.7193579999999997
11
318.6917280000000119
21
-167.5046600000000012
0
LINE
8
BLACK
6
CONTINUOUS
10
319.2813279999999736
20
-170.537887999999981
11
319.2355339999999728
21
-170.3022969999999816
0
LINE
8
BLACK
6
CONTINUOUS
10
324.7072880000000055
20
-167.6087489999999889
11
329.1882439999999974
21
-166.7377400000000023
0
LINE
8
BLACK
6
CONTINUOUS
10
325.9123179999999707
20
-163.2487129999999809
11
320.1207170000000133
21
-164.3744859999999903
0
LINE
8
BLACK
6
CONTINUOUS
10
328.9062809999999786
20
-162.6667449999999917
11
327.3847589999999741
21
-162.9624989999999798
0
LINE
8
BLACK
6
CONTINUOUS
10
328.9501669999999649
20
-162.8925199999999904
11
328.9062809999999786
21
-162.6667449999999917
0
LINE
8
BLACK
6
CONTINUOUS
10
329.5836529999999698
20
-166.1515219999999999
11
329.4939719999999852
21
-165.6901569999999992
0
ARC
8
BLACK
10
320.5023269999999798
20
-166.3377349999999808
40
1.9999927426480828
50
-259.00019538
51
-168.99981340
0
ARC
8
BLACK
10
325.1547119999999609
20
-169.9150829999999814
40
2.3493318320450176
50
100.97888691
51
178.47892959
0
ARC
8
BLACK
10
329.0928389999999695
20
-166.246926000000002
40
0.5000003058119065
50
-78.99995242
51
10.99993509
0
LINE
8
BLACK
6
CONTINUOUS
10
402.6890709999999558
20
-150.3622569999999996
11
402.8417179999999576
21
-151.1475590000000011
0
LINE
8
BLACK
6
CONTINUOUS
10
403.4313179999999761
20
-154.1807869999999809
11
403.3855239999999753
21
-153.9451959999999815
0
LINE
8
BLACK
6
CONTINUOUS
10
408.857278000000008
20
-151.2516479999999888
11
413.3382339999999999
21
-150.3806390000000022
0
LINE
8
BLACK
6
CONTINUOUS
10
410.0623079999999732
20
-146.8916119999999808
11
404.270706999999959
21
-148.0173849999999902
0
LINE
8
BLACK
6
CONTINUOUS
10
413.0562709999999811
20
-146.3096439999999916
11
411.5347489999999766
21
-146.6053979999999797
0
LINE
8
BLACK
6
CONTINUOUS
10
413.1001569999999674
20
-146.5354189999999903
11
413.0562709999999811
21
-146.3096439999999916
0
LINE
8
BLACK
6
CONTINUOUS
10
413.7336429999999723
20
-149.7944209999999998
11
413.6439619999999877
21
-149.3330559999999991
0
ARC
8
BLACK
10
404.6523169999999823
20
-149.9806339999999807
40
1.9999927426480828
50
-259.00019538
51
-168.99981340
0
ARC
8
BLACK
10
409.3047019999999634
20
-153.5579819999999813
40
2.3493318320450176
50
100.97888691
51
178.47892959
0
ARC
8
BLACK
10
413.242828999999972
20
-149.8898250000000019
40
0.5000003058119065
50
-78.99995242
51
10.99993509
0
LINE
8
BLACK
6
CONTINUOUS
10
355.6464489999999614
20
-256.3914120000000025
11
357.3045229999999606
21
-257.5097969999999918
0
LINE
8
BLACK
6
CONTINUOUS
10
357.8888129999999705
20
-253.0669709999999952
11
355.6464489999999614
21
-256.3914120000000025
0
LINE
8
BLACK
6
CONTINUOUS
10
359.5468879999999672
20
-254.185356999999982
11
357.3045229999999606
21
-257.5097969999999918
0
LINE
8
BLACK
6
CONTINUOUS
10
205.2798489999999845
20
-202.6267660000000035
11
205.3256429999999852
21
-202.3911760000000015
0
LINE
8
BLACK
6
CONTINUOUS
10
206.0220970000000023
20
-198.8082369999999912
11
205.8694479999999771
21
-199.5935379999999952
0
LINE
8
BLACK
6
CONTINUOUS
10
211.407985999999994
20
-201.9435169999999857
11
215.8889409999999884
21
-202.8145260000000007
0
LINE
8
BLACK
6
CONTINUOUS
10
214.1585680000000025
20
-198.352373
11
208.3669679999999858
21
-197.2265999999999906
0
LINE
8
BLACK
6
CONTINUOUS
10
216.4751589999999908
20
-202.419117
11
216.5648379999999804
21
-201.9577519999999993
0
LINE
8
BLACK
6
CONTINUOUS
10
217.1086449999999957
20
-199.1601149999999905
11
217.152530999999982
21
-198.9343409999999892
0
LINE
8
BLACK
6
CONTINUOUS
10
217.152530999999982
20
-198.9343409999999892
11
215.6310089999999775
21
-198.6385870000000011
0
ARC
8
BLACK
10
207.9853559999999959
20
-199.1898609999999792
40
2.0000056946061426
50
79.00020473
51
168.99985634
0
ARC
8
BLACK
10
210.9588639999999771
20
-204.2495229999999822
40
2.3493350206850021
50
78.97893660
51
156.47888690
0
ARC
8
BLACK
10
215.9843449999999905
20
-202.3237120000000004
40
0.5000004966207533
50
-100.99993509
51
-11.00004758
0
LINE
8
BLACK
6
CONTINUOUS
10
496.1824719999999616
20
-175.0063329999999837
11
496.1824719999999616
21
-175.8063329999999951
0
LINE
8
BLACK
6
CONTINUOUS
10
496.1824719999999616
20
-178.8963329999999985
11
496.1824719999999616
21
-178.6563329999999894
0
LINE
8
BLACK
6
CONTINUOUS
10
502.0676479999999628
20
-177.0563329999999951
11
506.6324719999999502
21
-177.0563329999999951
0
LINE
8
BLACK
6
CONTINUOUS
10
504.0824719999999957
20
-173.0063329999999837
11
498.1824719999999616
21
-173.0063329999999837
0
LINE
8
BLACK
6
CONTINUOUS
10
507.1324719999999502
20
-173.0063329999999837
11
505.5824719999999957
21
-173.0063329999999837
0
LINE
8
BLACK
6
CONTINUOUS
10
507.1324719999999502
20
-173.2363330000000019
11
507.1324719999999502
21
-173.0063329999999837
0
LINE
8
BLACK
6
CONTINUOUS
10
507.1324719999999502
20
-176.5563329999999951
11
507.1324719999999502
21
-176.0863329999999962
0
ARC
8
BLACK
10
498.1824770000000058
20
-175.0063379999999995
40
2.0000050000062499
50
90.00014324
51
179.99985676
0
ARC
8
BLACK
10
502.0667819999999892
20
-179.4056649999999991
40
2.3493317156502185
50
89.97887989
51
167.47892704
0
ARC
8
BLACK
10
506.6324709999999527
20
-176.5563319999999976
40
0.500001000001
50
-89.99988541
51
-0.00011459
0
LINE
8
BLACK
6
CONTINUOUS
10
433.0497399999999857
20
-163.7884750000000054
11
433.0497399999999857
21
-164.004146999999989
0
LINE
8
BLACK
6
CONTINUOUS
10
433.7697399999999561
20
-163.7884750000000054
11
433.7697399999999561
21
-164.004146999999989
0
LINE
8
BLACK
6
CONTINUOUS
10
323.9615410000000111
20
-243.1437809999999899
11
325.6196150000000102
21
-244.2621659999999792
0
LINE
8
BLACK
6
CONTINUOUS
10
326.2039049999999634
20
-239.8193399999999826
11
323.9615410000000111
21
-243.1437809999999899
0
LINE
8
BLACK
6
CONTINUOUS
10
327.86197999999996
20
-240.9377259999999978
11
325.6196150000000102
21
-244.2621659999999792
0
LINE
8
BLACK
6
CONTINUOUS
10
314.641448999999966
20
-196.5868099999999856
11
314.7940959999999677
21
-197.3721119999999871
0
LINE
8
BLACK
6
CONTINUOUS
10
315.3836959999999863
20
-200.4053399999999954
11
315.3379019999999855
21
-200.1697489999999959
0
LINE
8
BLACK
6
CONTINUOUS
10
320.8096559999999613
20
-197.4762010000000032
11
325.2906120000000101
21
-196.6051919999999882
0
LINE
8
BLACK
6
CONTINUOUS
10
322.0146859999999833
20
-193.1161649999999952
11
316.2230849999999691
21
-194.2419380000000046
0
LINE
8
BLACK
6
CONTINUOUS
10
325.0086489999999912
20
-192.5341969999999776
11
323.4871269999999868
21
-192.8299509999999941
0
LINE
8
BLACK
6
CONTINUOUS
10
325.0525349999999776
20
-192.7599720000000048
11
325.0086489999999912
21
-192.5341969999999776
0
LINE
8
BLACK
6
CONTINUOUS
10
325.6860209999999825
20
-196.0189739999999858
11
325.5963399999999979
21
-195.5576089999999851
0
ARC
8
BLACK
10
316.6046949999999924
20
-196.2051869999999951
40
1.9999927426480828
50
-259.00019538
51
-168.99981340
0
ARC
8
BLACK
10
321.2570799999999736
20
-199.7825349999999958
40
2.3493318320450176
50
100.97888691
51
178.47892959
0
ARC
8
BLACK
10
325.1952069999999821
20
-196.1143779999999879
40
0.5000003058119065
50
-78.99995242
51
10.99993509
0
LINE
8
BLACK
6
CONTINUOUS
10
383.9890739999999596
20
-153.9971679999999878
11
384.1417209999999614
21
-154.7824699999999893
0
LINE
8
BLACK
6
CONTINUOUS
10
384.7313209999999799
20
-157.8156979999999976
11
384.6855269999999791
21
-157.5801069999999982
0
LINE
8
BLACK
6
CONTINUOUS
10
390.1572809999999549
20
-154.8865590000000054
11
394.6382370000000037
21
-154.0155499999999904
0
LINE
8
BLACK
6
CONTINUOUS
10
391.362310999999977
20
-150.5265229999999974
11
385.5707099999999627
21
-151.6522960000000069
0
LINE
8
BLACK
6
CONTINUOUS
10
394.3562739999999849
20
-149.9445549999999798
11
392.8347519999999804
21
-150.2403089999999963
0
LINE
8
BLACK
6
CONTINUOUS
10
394.4001599999999712
20
-150.170330000000007
11
394.3562739999999849
21
-149.9445549999999798
0
LINE
8
BLACK
6
CONTINUOUS
10
395.0336459999999761
20
-153.4293319999999881
11
394.9439649999999915
21
-152.9679669999999874
0
ARC
8
BLACK
10
385.9523199999999861
20
-153.6155449999999973
40
1.9999927426480828
50
-259.00019538
51
-168.99981340
0
ARC
8
BLACK
10
390.6047049999999672
20
-157.192892999999998
40
2.3493318320450176
50
100.97888691
51
178.47892959
0
ARC
8
BLACK
10
394.5428319999999758
20
-153.5247359999999901
40
0.5000003058119065
50
-78.99995242
51
10.99993509
0
LINE
8
BLACK
6
CONTINUOUS
10
214.8828959999999881
20
-229.4926629999999932
11
216.0012809999999774
21
-231.1507369999999923
0
LINE
8
BLACK
6
CONTINUOUS
10
218.207335999999998
20
-227.2502979999999866
11
214.8828959999999881
21
-229.4926629999999932
0
LINE
8
BLACK
6
CONTINUOUS
10
219.3257219999999847
20
-228.9083729999999832
11
216.0012809999999774
21
-231.1507369999999923
0
LINE
8
BLACK
6
CONTINUOUS
10
496.1824719999999616
20
-146.4313329999999951
11
496.1824719999999616
21
-147.2313330000000065
0
LINE
8
BLACK
6
CONTINUOUS
10
496.1824719999999616
20
-150.3213329999999814
11
496.1824719999999616
21
-150.0813330000000008
0
LINE
8
BLACK
6
CONTINUOUS
10
502.0676479999999628
20
-148.4813330000000065
11
506.6324719999999502
21
-148.4813330000000065
0
LINE
8
BLACK
6
CONTINUOUS
10
504.0824719999999957
20
-144.4313329999999951
11
498.1824719999999616
21
-144.4313329999999951
0
LINE
8
BLACK
6
CONTINUOUS
10
507.1324719999999502
20
-144.4313329999999951
11
505.5824719999999957
21
-144.4313329999999951
0
LINE
8
BLACK
6
CONTINUOUS
10
507.1324719999999502
20
-144.6613329999999848
11
507.1324719999999502
21
-144.4313329999999951
0
LINE
8
BLACK
6
CONTINUOUS
10
507.1324719999999502
20
-147.9813330000000065
11
507.1324719999999502
21
-147.5113329999999792
0
ARC
8
BLACK
10
498.1824770000000058
20
-146.4313379999999825
40
2.0000050000062499
50
90.00014324
51
179.99985676
0
ARC
8
BLACK
10
502.0667819999999892
20
-150.830664999999982
40
2.3493317156502185
50
89.97887989
51
167.47892704
0
ARC
8
BLACK
10
506.6324709999999527
20
-147.9813319999999806
40
0.500001000001
50
-89.99988541
51
-0.00011459
0
LINE
8
BLACK
6
CONTINUOUS
10
131.5199460000000045
20
-207.6958469999999863
11
131.5657400000000052
21
-207.4602569999999844
0
LINE
8
BLACK
6
CONTINUOUS
10
132.2621939999999938
20
-203.8773180000000025
11
132.1095449999999971
21
-204.6626189999999781
0
LINE
8
BLACK
6
CONTINUOUS
10
137.6480829999999855
20
-207.012597999999997
11
142.12903799999998
21
-207.8836069999999836
0
LINE
8
BLACK
6
CONTINUOUS
10
140.3986649999999941
20
-203.4214539999999829
11
134.6070650000000057
21
-202.2956810000000019
0
LINE
8
BLACK
6
CONTINUOUS
10
142.7152559999999824
20
-207.4881979999999828
11
142.8049350000000004
21
-207.0268329999999821
0
LINE
8
BLACK
6
CONTINUOUS
10
143.3487419999999872
20
-204.2291960000000017
11
143.392628000000002
21
-204.0034220000000005
0
LINE
8
BLACK
6
CONTINUOUS
10
143.392628000000002
20
-204.0034220000000005
11
141.8711059999999975
21
-203.707667999999984
0
ARC
8
BLACK
10
134.2254529999999875
20
-204.2589419999999905
40
2.0000056946061426
50
79.00020473
51
168.99985634
0
ARC
8
BLACK
10
137.1989609999999971
20
-209.3186039999999934
40
2.3493350206850021
50
78.97893660
51
156.47888690
0
ARC
8
BLACK
10
142.224441999999982
20
-207.3927929999999833
40
0.5000004966207533
50
-100.99993509
51
-11.00004758
0
LINE
8
BLACK
6
CONTINUOUS
10
178.522987999999998
20
-241.8315659999999809
11
179.6413729999999873
21
-243.4896399999999801
0
LINE
8
BLACK
6
CONTINUOUS
10
181.8474279999999794
20
-239.5892010000000028
11
178.522987999999998
21
-241.8315659999999809
0
LINE
8
BLACK
6
CONTINUOUS
10
182.9658139999999946
20
-241.2472759999999994
11
179.6413729999999873
21
-243.4896399999999801
0
LINE
8
BLACK
6
CONTINUOUS
10
234.6229819999999791
20
-252.7363
11
235.7413669999999968
21
-254.3943739999999991
0
LINE
8
BLACK
6
CONTINUOUS
10
237.9474219999999889
20
-250.4939349999999934
11
234.6229819999999791
21
-252.7363
0
LINE
8
BLACK
6
CONTINUOUS
10
239.0658079999999757
20
-252.15200999999999
11
235.7413669999999968
21
-254.3943739999999991
0
LINE
8
BLACK
6
CONTINUOUS
10
453.738381000000004
20
-214.8477599999999939
11
453.4310989999999606
21
-214.8477599999999939
0
LINE
8
BLACK
6
CONTINUOUS
10
453.738381000000004
20
-215.6077599999999848
11
453.4310989999999606
21
-215.6077599999999848
0
LINE
8
BLACK
6
CONTINUOUS
10
271.5263659999999959
20
-224.3740870000000029
11
271.6790129999999976
21
-225.159388999999976
0
LINE
8
BLACK
6
CONTINUOUS
10
272.2686129999999594
20
-228.1926169999999843
11
272.2228190000000154
21
-227.9570259999999848
0
LINE
8
BLACK
6
CONTINUOUS
10
277.6945729999999912
20
-225.2634779999999921
11
282.1755289999999832
21
-224.3924689999999771
0
LINE
8
BLACK
6
CONTINUOUS
10
278.8996030000000133
20
-220.9034419999999841
11
273.108001999999999
21
-222.0292149999999936
0
LINE
8
BLACK
6
CONTINUOUS
10
281.8935659999999643
20
-220.3214739999999949
11
280.3720439999999599
21
-220.617227999999983
0
LINE
8
BLACK
6
CONTINUOUS
10
281.9374520000000075
20
-220.5472489999999937
11
281.8935659999999643
21
-220.3214739999999949
0
LINE
8
BLACK
6
CONTINUOUS
10
282.5709380000000124
20
-223.8062510000000032
11
282.481256999999971
21
-223.3448860000000025
0
ARC
8
BLACK
10
273.4896119999999655
20
-223.992463999999984
40
1.9999927426480828
50
-259.00019538
51
-168.99981340
0
ARC
8
BLACK
10
278.1419970000000035
20
-227.5698119999999847
40
2.3493318320450176
50
100.97888691
51
178.47892959
0
ARC
8
BLACK
10
282.0801240000000121
20
-223.9016549999999768
40
0.5000003058119065
50
-78.99995242
51
10.99993509
0
LINE
8
BLACK
6
CONTINUOUS
10
305.8060969999999656
20
-275.9304409999999734
11
305.9587439999999674
21
-276.7157429999999749
0
LINE
8
BLACK
6
CONTINUOUS
10
306.548343999999986
20
-279.7489709999999832
11
306.5025499999999852
21
-279.5133799999999837
0
LINE
8
BLACK
6
CONTINUOUS
10
311.974303999999961
20
-276.8198319999999626
11
316.4552600000000098
21
-275.9488230000000044
0
LINE
8
BLACK
6
CONTINUOUS
10
313.179333999999983
20
-272.459795999999983
11
307.3877329999999688
21
-273.585568999999964
0
LINE
8
BLACK
6
CONTINUOUS
10
316.1732969999999909
20
-271.8778279999999654
11
314.6517749999999864
21
-272.1735820000000103
0
LINE
8
BLACK
6
CONTINUOUS
10
316.2171829999999773
20
-272.1036029999999641
11
316.1732969999999909
21
-271.8778279999999654
0
LINE
8
BLACK
6
CONTINUOUS
10
316.8506689999999821
20
-275.3626049999999736
11
316.7609879999999976
21
-274.901239999999973
0
ARC
8
BLACK
10
307.7693429999999921
20
-275.5488179999999829
40
1.9999927426480828
50
-259.00019538
51
-168.99981340
0
ARC
8
BLACK
10
312.4217279999999732
20
-279.126166000000012
40
2.3493318320450176
50
100.97888691
51
178.47892959
0
ARC
8
BLACK
10
316.3598549999999818
20
-275.4580090000000041
40
0.5000003058119065
50
-78.99995242
51
10.99993509
0
LINE
8
BLACK
6
CONTINUOUS
10
172.5451799999999878
20
-172.7466619999999864
11
173.6635650000000055
21
-174.4047359999999856
0
LINE
8
BLACK
6
CONTINUOUS
10
175.8696199999999976
20
-170.5042969999999798
11
172.5451799999999878
21
-172.7466619999999864
0
LINE
8
BLACK
6
CONTINUOUS
10
176.9880059999999844
20
-172.1623720000000048
11
173.6635650000000055
21
-174.4047359999999856
0
LINE
8
BLACK
6
CONTINUOUS
10
227.8678060000000016
20
-212.6101209999999924
11
228.9861909999999909
21
-214.2681949999999915
0
LINE
8
BLACK
6
CONTINUOUS
10
231.192245999999983
20
-210.3677559999999858
11
227.8678060000000016
21
-212.6101209999999924
0
LINE
8
BLACK
6
CONTINUOUS
10
232.3106319999999982
20
-212.0258309999999824
11
228.9861909999999909
21
-214.2681949999999915
0
LINE
8
BLACK
6
CONTINUOUS
10
377.4667109999999752
20
-193.9303239999999846
11
379.1247849999999744
21
-195.0487090000000023
0
LINE
8
BLACK
6
CONTINUOUS
10
379.7090749999999844
20
-190.6058829999999773
11
377.4667109999999752
21
-193.9303239999999846
0
LINE
8
BLACK
6
CONTINUOUS
10
381.367149999999981
20
-191.7242689999999925
11
379.1247849999999744
21
-195.0487090000000023
0
LINE
8
BLACK
6
CONTINUOUS
10
327.6263599999999769
20
-213.4693519999999864
11
327.7790069999999787
21
-214.2546539999999879
0
LINE
8
BLACK
6
CONTINUOUS
10
328.3686069999999972
20
-217.2878819999999962
11
328.3228129999999965
21
-217.0522909999999968
0
LINE
8
BLACK
6
CONTINUOUS
10
333.7945669999999723
20
-214.358743000000004
11
338.2755229999999642
21
-213.487733999999989
0
LINE
8
BLACK
6
CONTINUOUS
10
334.9995969999999943
20
-209.998706999999996
11
329.2079959999999801
21
-211.1244799999999771
0
LINE
8
BLACK
6
CONTINUOUS
10
337.9935600000000022
20
-209.4167389999999784
11
336.4720379999999977
21
-209.7124929999999949
0
LINE
8
BLACK
6
CONTINUOUS
10
338.0374459999999885
20
-209.6425139999999772
11
337.9935600000000022
21
-209.4167389999999784
0
LINE
8
BLACK
6
CONTINUOUS
10
338.6709319999999934
20
-212.9015159999999867
11
338.5812510000000088
21
-212.440150999999986
0
ARC
8
BLACK
10
329.5896060000000034
20
-213.0877289999999959
40
1.9999927426480828
50
-259.00019538
51
-168.99981340
0
ARC
8
BLACK
10
334.2419909999999845
20
-216.6650769999999966
40
2.3493318320450176
50
100.97888691
51
178.47892959
0
ARC
8
BLACK
10
338.1801179999999931
20
-212.9969199999999887
40
0.5000003058119065
50
-78.99995242
51
10.99993509
0
LINE
8
BLACK
6
CONTINUOUS
10
202.9380740000000003
20
-265.9839309999999841
11
204.0564589999999896
21
-267.6420049999999833
0
LINE
8
BLACK
6
CONTINUOUS
10
206.2625139999999817
20
-263.7415659999999775
11
202.9380740000000003
21
-265.9839309999999841
0
LINE
8
BLACK
6
CONTINUOUS
10
207.3808999999999969
20
-265.3996409999999742
11
204.0564589999999896
21
-267.6420049999999833
0
LINE
8
BLACK
6
CONTINUOUS
10
398.7914399999999659
20
-180.2297089999999855
11
398.9440869999999677
21
-181.015010999999987
0
LINE
8
BLACK
6
CONTINUOUS
10
399.5336869999999863
20
-184.0482389999999953
11
399.4878929999999855
21
-183.8126479999999958
0
LINE
8
BLACK
6
CONTINUOUS
10
404.9596469999999613
20
-181.1191000000000031
11
409.4406029999999532
21
-180.2480909999999881
0
LINE
8
BLACK
6
CONTINUOUS
10
406.1646769999999833
20
-176.7590639999999951
11
400.3730759999999691
21
-177.8848370000000045
0
LINE
8
BLACK
6
CONTINUOUS
10
409.1586399999999912
20
-176.1770960000000059
11
407.6371179999999868
21
-176.472849999999994
0
LINE
8
BLACK
6
CONTINUOUS
10
409.2025259999999776
20
-176.4028710000000046
11
409.1586399999999912
21
-176.1770960000000059
0
LINE
8
BLACK
6
CONTINUOUS
10
409.8360119999999824
20
-179.6618729999999857
11
409.7463309999999979
21
-179.200507999999985
0
ARC
8
BLACK
10
400.7546859999999924
20
-179.848085999999995
40
1.9999927426480828
50
-259.00019538
51
-168.99981340
0
ARC
8
BLACK
10
405.4070709999999735
20
-183.4254339999999956
40
2.3493318320450176
50
100.97888691
51
178.47892959
0
ARC
8
BLACK
10
409.3451979999999821
20
-179.7572769999999878
40
0.5000003058119065
50
-78.99995242
51
10.99993509
0
LINE
8
BLACK
6
CONTINUOUS
10
436.3372400000000084
20
-148.8733749999999816
11
436.3372400000000084
21
-147.6692469999999844
0
LINE
8
BLACK
6
CONTINUOUS
10
438.1572400000000016
20
-148.8733749999999816
11
438.1572400000000016
21
-147.6692469999999844
0
LINE
8
BLACK
6
CONTINUOUS
10
456.1497399999999516
20
-217.8574239999999804
11
456.1497399999999516
21
-218.0730959999999925
0
LINE
8
BLACK
6
CONTINUOUS
10
456.8697399999999789
20
-217.8574239999999804
11
456.8697399999999789
21
-218.0730959999999925
0
LINE
8
BLACK
6
CONTINUOUS
10
413.8266179999999963
20
-206.2692270000000008
11
415.4846919999999955
21
-207.3876119999999901
0
LINE
8
BLACK
6
CONTINUOUS
10
416.0689820000000054
20
-202.9447859999999935
11
413.8266179999999963
21
-206.2692270000000008
0
LINE
8
BLACK
6
CONTINUOUS
10
417.7270570000000021
20
-204.0631719999999802
11
415.4846919999999955
21
-207.3876119999999901
0
LINE
8
BLACK
6
CONTINUOUS
10
281.1390849999999659
20
-173.9891810000000021
11
281.2917319999999677
21
-174.7744830000000036
0
LINE
8
BLACK
6
CONTINUOUS
10
281.8813319999999862
20
-177.8077109999999834
11
281.8355379999999855
21
-177.572119999999984
0
LINE
8
BLACK
6
CONTINUOUS
10
287.3072919999999613
20
-174.8785719999999912
11
291.7882480000000101
21
-174.0075630000000046
0
LINE
8
BLACK
6
CONTINUOUS
10
288.5123219999999833
20
-170.5185359999999832
11
282.7207209999999691
21
-171.6443089999999927
0
LINE
8
BLACK
6
CONTINUOUS
10
291.5062849999999912
20
-169.9365679999999941
11
289.9847629999999867
21
-170.2323219999999822
0
LINE
8
BLACK
6
CONTINUOUS
10
291.5501709999999775
20
-170.1623429999999928
11
291.5062849999999912
21
-169.9365679999999941
0
LINE
8
BLACK
6
CONTINUOUS
10
292.1836569999999824
20
-173.4213450000000023
11
292.0939759999999978
21
-172.9599800000000016
0
ARC
8
BLACK
10
283.1023309999999924
20
-173.6075579999999832
40
1.9999927426480828
50
-259.00019538
51
-168.99981340
0
ARC
8
BLACK
10
287.7547159999999735
20
-177.1849059999999838
40
2.3493318320450176
50
100.97888691
51
178.47892959
0
ARC
8
BLACK
10
291.6928429999999821
20
-173.5167490000000043
40
0.5000003058119065
50
-78.99995242
51
10.99993509
0
LINE
8
BLACK
6
CONTINUOUS
10
501.2103379999999788
20
-203.4362779999999873
11
502.6245519999999942
21
-204.8504920000000027
0
LINE
8
BLACK
6
CONTINUOUS
10
504.0458359999999516
20
-200.6007799999999861
11
501.2103379999999788
21
-203.4362779999999873
0
LINE
8
BLACK
6
CONTINUOUS
10
505.460049999999967
20
-202.0149940000000015
11
502.6245519999999942
21
-204.8504920000000027
0
LINE
8
BLACK
6
CONTINUOUS
10
371.751622999999995
20
-214.4477770000000021
11
373.4096969999999942
21
-215.5661619999999914
0
LINE
8
BLACK
6
CONTINUOUS
10
373.9939870000000042
20
-211.1233359999999948
11
371.751622999999995
21
-214.4477770000000021
0
LINE
8
BLACK
6
CONTINUOUS
10
375.6520620000000008
20
-212.2417219999999816
11
373.4096969999999942
21
-215.5661619999999914
0
LINE
8
BLACK
6
CONTINUOUS
10
217.7501120000000014
20
-263.2703989999999976
11
217.7959060000000022
21
-263.0348089999999956
0
LINE
8
BLACK
6
CONTINUOUS
10
218.4923599999999908
20
-259.4518699999999853
11
218.3397109999999941
21
-260.2371709999999894
0
LINE
8
BLACK
6
CONTINUOUS
10
223.8782489999999825
20
-262.5871500000000083
11
228.359203999999977
21
-263.4581589999999665
0
LINE
8
BLACK
6
CONTINUOUS
10
226.628830999999991
20
-258.9960059999999658
11
220.8372310000000027
21
-257.8702329999999847
0
LINE
8
BLACK
6
CONTINUOUS
10
228.9454219999999793
20
-263.0627499999999941
11
229.0351009999999974
21
-262.6013849999999934
0
LINE
8
BLACK
6
CONTINUOUS
10
229.5789079999999842
20
-259.8037479999999846
11
229.622793999999999
21
-259.5779739999999833
0
LINE
8
BLACK
6
CONTINUOUS
10
229.622793999999999
20
-259.5779739999999833
11
228.1012719999999945
21
-259.2822199999999953
0
ARC
8
BLACK
10
220.4556189999999845
20
-259.8334939999999733
40
2.0000056946061426
50
79.00020473
51
168.99985634
0
ARC
8
BLACK
10
223.429126999999994
20
-264.8931559999999763
40
2.3493350206850021
50
78.97893660
51
156.47888690
0
ARC
8
BLACK
10
228.454607999999979
20
-262.9673449999999661
40
0.5000004966207533
50
-100.99993509
51
-11.00004758
0
LINE
8
BLACK
6
CONTINUOUS
10
130.4798580000000072
20
-188.0871209999999962
11
130.525652000000008
21
-187.8515309999999943
0
LINE
8
BLACK
6
CONTINUOUS
10
131.2221059999999966
20
-184.268591999999984
11
131.0694569999999999
21
-185.053892999999988
0
LINE
8
BLACK
6
CONTINUOUS
10
136.6079949999999883
20
-187.4038719999999785
11
141.0889499999999828
21
-188.2748809999999935
0
LINE
8
BLACK
6
CONTINUOUS
10
139.3585769999999968
20
-183.8127279999999928
11
133.5669769999999801
21
-182.6869549999999833
0
LINE
8
BLACK
6
CONTINUOUS
10
141.6751679999999851
20
-187.8794719999999927
11
141.7648470000000032
21
-187.418106999999992
0
LINE
8
BLACK
6
CONTINUOUS
10
142.30865399999999
20
-184.6204699999999832
11
142.3525400000000047
21
-184.394695999999982
0
LINE
8
BLACK
6
CONTINUOUS
10
142.3525400000000047
20
-184.394695999999982
11
140.8310180000000003
21
-184.0989419999999939
0
ARC
8
BLACK
10
133.1853649999999902
20
-184.6502160000000003
40
2.0000056946061426
50
79.00020473
51
168.99985634
0
ARC
8
BLACK
10
136.1588729999999998
20
-189.7098780000000033
40
2.3493350206850021
50
78.97893660
51
156.47888690
0
ARC
8
BLACK
10
141.1843539999999848
20
-187.7840669999999932
40
0.5000004966207533
50
-100.99993509
51
-11.00004758
0
LINE
8
BLACK
6
CONTINUOUS
10
390.4516209999999887
20
-210.8128659999999854
11
392.1096949999999879
21
-211.9312510000000032
0
LINE
8
BLACK
6
CONTINUOUS
10
392.6939849999999979
20
-207.4884249999999781
11
390.4516209999999887
21
-210.8128659999999854
0
LINE
8
BLACK
6
CONTINUOUS
10
394.3520599999999945
20
-208.6068109999999933
11
392.1096949999999879
21
-211.9312510000000032
0
LINE
8
BLACK
6
CONTINUOUS
10
134.1104929999999911
20
-233.1986519999999814
11
135.2288779999999804
21
-234.8567259999999806
0
LINE
8
BLACK
6
CONTINUOUS
10
137.4349330000000009
20
-230.9562870000000032
11
134.1104929999999911
21
-233.1986519999999814
0
LINE
8
BLACK
6
CONTINUOUS
10
138.5533189999999877
20
-232.6143619999999999
11
135.2288779999999804
21
-234.8567259999999806
0
LINE
8
BLACK
6
CONTINUOUS
10
159.8229900000000043
20
-238.1966549999999927
11
160.9413749999999936
21
-239.8547289999999919
0
LINE
8
BLACK
6
CONTINUOUS
10
163.1474299999999857
20
-235.9542899999999861
11
159.8229900000000043
21
-238.1966549999999927
0
LINE
8
BLACK
6
CONTINUOUS
10
164.2658160000000009
20
-237.6123649999999827
11
160.9413749999999936
21
-239.8547289999999919
0
LINE
8
BLACK
6
CONTINUOUS
10
165.5380779999999845
20
-258.7141080000000102
11
166.6564630000000022
21
-260.3721820000000093
0
LINE
8
BLACK
6
CONTINUOUS
10
168.8625179999999943
20
-256.4717430000000036
11
165.5380779999999845
21
-258.7141080000000102
0
LINE
8
BLACK
6
CONTINUOUS
10
169.9809039999999811
20
-258.1298180000000002
11
166.6564630000000022
21
-260.3721820000000093
0
LINE
8
BLACK
6
CONTINUOUS
10
154.8949429999999836
20
-212.2394859999999994
11
154.9407369999999844
21
-212.0038959999999975
0
LINE
8
BLACK
6
CONTINUOUS
10
155.6371910000000014
20
-208.4209569999999871
11
155.4845420000000047
21
-209.2062579999999912
0
LINE
8
BLACK
6
CONTINUOUS
10
161.0230799999999931
20
-211.5562369999999817
11
165.5040349999999876
21
-212.4272459999999967
0
LINE
8
BLACK
6
CONTINUOUS
10
163.7736620000000016
20
-207.965092999999996
11
157.9820619999999849
21
-206.8393199999999865
0
LINE
8
BLACK
6
CONTINUOUS
10
166.0902529999999899
20
-212.0318369999999959
11
166.1799319999999796
21
-211.5704719999999952
0
LINE
8
BLACK
6
CONTINUOUS
10
166.7237389999999948
20
-208.7728349999999864
11
166.7676249999999811
21
-208.5470609999999851
0
LINE
8
BLACK
6
CONTINUOUS
10
166.7676249999999811
20
-208.5470609999999851
11
165.2461030000000051
21
-208.2513069999999971
0
ARC
8
BLACK
10
157.600449999999995
20
-208.8025810000000035
40
2.0000056946061426
50
79.00020473
51
168.99985634
0
ARC
8
BLACK
10
160.5739580000000046
20
-213.8622429999999781
40
2.3493350206850021
50
78.97893660
51
156.47888690
0
ARC
8
BLACK
10
165.5994389999999896
20
-211.9364319999999964
40
0.5000004966207533
50
-100.99993509
51
-11.00004758
0
LINE
8
BLACK
6
CONTINUOUS
10
206.0572169999999801
20
-173.6680419999999856
11
206.1030109999999809
21
-173.4324519999999836
0
LINE
8
BLACK
6
CONTINUOUS
10
206.7994649999999979
20
-169.8495130000000017
11
206.6468160000000012
21
-170.6348140000000058
0
LINE
8
BLACK
6
CONTINUOUS
10
212.1853539999999896
20
-172.9847929999999963
11
216.6663089999999841
21
-173.8558019999999829
0
LINE
8
BLACK
6
CONTINUOUS
10
214.9359359999999981
20
-169.3936489999999822
11
209.1443359999999814
21
-168.2678760000000011
0
LINE
8
BLACK
6
CONTINUOUS
10
217.2525269999999864
20
-173.4603929999999821
11
217.342205999999976
21
-172.9990279999999814
0
LINE
8
BLACK
6
CONTINUOUS
10
217.8860129999999913
20
-170.201391000000001
11
217.9298989999999776
21
-169.9756169999999997
0
LINE
8
BLACK
6
CONTINUOUS
10
217.9298989999999776
20
-169.9756169999999997
11
216.4083770000000015
21
-169.6798629999999832
0
ARC
8
BLACK
10
208.7627239999999915
20
-170.2311369999999897
40
2.0000056946061426
50
79.00020473
51
168.99985634
0
ARC
8
BLACK
10
211.7362320000000011
20
-175.2907989999999927
40
2.3493350206850021
50
78.97893660
51
156.47888690
0
ARC
8
BLACK
10
216.7617129999999861
20
-173.3649879999999825
40
0.5000004966207533
50
-100.99993509
51
-11.00004758
0
LINE
8
BLACK
6
CONTINUOUS
10
299.8390829999999596
20
-170.354268999999988
11
299.9917299999999614
21
-171.1395709999999895
0
LINE
8
BLACK
6
CONTINUOUS
10
300.5813299999999799
20
-174.1727989999999977
11
300.5355359999999791
21
-173.9372079999999983
0
LINE
8
BLACK
6
CONTINUOUS
10
306.0072900000000118
20
-171.2436600000000055
11
310.4882460000000037
21
-170.3726509999999905
0
LINE
8
BLACK
6
CONTINUOUS
10
307.212319999999977
20
-166.8836239999999975
11
301.4207189999999628
21
-168.0093969999999786
0
LINE
8
BLACK
6
CONTINUOUS
10
310.2062829999999849
20
-166.3016559999999799
11
308.6847609999999804
21
-166.5974099999999964
0
LINE
8
BLACK
6
CONTINUOUS
10
310.2501689999999712
20
-166.5274309999999787
11
310.2062829999999849
21
-166.3016559999999799
0
LINE
8
BLACK
6
CONTINUOUS
10
310.8836549999999761
20
-169.7864329999999882
11
310.7939739999999915
21
-169.3250679999999875
0
ARC
8
BLACK
10
301.8023289999999861
20
-169.9726459999999975
40
1.9999927426480828
50
-259.00019538
51
-168.99981340
0
ARC
8
BLACK
10
306.4547139999999672
20
-173.5499939999999981
40
2.3493318320450176
50
100.97888691
51
178.47892959
0
ARC
8
BLACK
10
310.3928409999999758
20
-169.8818369999999902
40
0.5000003058119065
50
-78.99995242
51
10.99993509
0
LINE
8
BLACK
6
CONTINUOUS
10
171.7678129999999896
20
-201.7053870000000018
11
172.8861979999999789
21
-203.3634610000000009
0
LINE
8
BLACK
6
CONTINUOUS
10
175.0922529999999995
20
-199.4630219999999952
11
171.7678129999999896
21
-201.7053870000000018
0
LINE
8
BLACK
6
CONTINUOUS
10
176.2106389999999863
20
-201.1210969999999918
11
172.8861979999999789
21
-203.3634610000000009
0
LINE
8
BLACK
6
CONTINUOUS
10
373.3063579999999888
20
-272.3652270000000044
11
374.964431999999988
21
-273.4836119999999937
0
LINE
8
BLACK
6
CONTINUOUS
10
375.5487219999999979
20
-269.0407859999999687
11
373.3063579999999888
21
-272.3652270000000044
0
LINE
8
BLACK
6
CONTINUOUS
10
377.2067969999999946
20
-270.1591720000000123
11
374.964431999999988
21
-273.4836119999999937
0
LINE
8
BLACK
6
CONTINUOUS
10
135.9322249999999883
20
-160.0371240000000057
11
135.9780189999999891
21
-159.8015340000000037
0
LINE
8
BLACK
6
CONTINUOUS
10
136.6744730000000061
20
-156.2185949999999934
11
136.521823999999981
21
-157.0038959999999975
0
LINE
8
BLACK
6
CONTINUOUS
10
142.0603619999999978
20
-159.3538749999999879
11
146.5413169999999923
21
-160.224884000000003
0
LINE
8
BLACK
6
CONTINUOUS
10
144.8109440000000063
20
-155.7627310000000023
11
139.0193439999999896
21
-154.6369579999999928
0
LINE
8
BLACK
6
CONTINUOUS
10
147.1275349999999946
20
-159.8294750000000022
11
147.2172139999999843
21
-159.3681100000000015
0
LINE
8
BLACK
6
CONTINUOUS
10
147.7610209999999995
20
-156.5704729999999927
11
147.8049069999999858
21
-156.3446989999999914
0
LINE
8
BLACK
6
CONTINUOUS
10
147.8049069999999858
20
-156.3446989999999914
11
146.2833849999999813
21
-156.0489450000000033
0
ARC
8
BLACK
10
138.6377319999999997
20
-156.6002189999999814
40
2.0000056946061426
50
79.00020473
51
168.99985634
0
ARC
8
BLACK
10
141.6112399999999809
20
-161.6598809999999844
40
2.3493350206850021
50
78.97893660
51
156.47888690
0
ARC
8
BLACK
10
146.6367209999999943
20
-159.7340700000000027
40
0.5000004966207533
50
-100.99993509
51
-11.00004758
0
LINE
8
BLACK
6
CONTINUOUS
10
430.1559429999999793
20
-159.6203899999999862
11
429.9402709999999956
21
-159.6203899999999862
0
LINE
8
BLACK
6
CONTINUOUS
10
430.1559429999999793
20
-160.3403899999999851
11
429.9402709999999956
21
-160.3403899999999851
0
LINE
8
BLACK
6
CONTINUOUS
10
477.1324719999999502
20
-194.0563329999999951
11
477.1324719999999502
21
-194.856332999999978
0
LINE
8
BLACK
6
CONTINUOUS
10
477.1324719999999502
20
-197.9463329999999814
11
477.1324719999999502
21
-197.7063330000000008
0
LINE
8
BLACK
6
CONTINUOUS
10
483.0176479999999515
20
-196.106332999999978
11
487.5824719999999957
21
-196.106332999999978
0
LINE
8
BLACK
6
CONTINUOUS
10
485.0324719999999843
20
-192.0563329999999951
11
479.1324719999999502
21
-192.0563329999999951
0
LINE
8
BLACK
6
CONTINUOUS
10
488.0824719999999957
20
-192.0563329999999951
11
486.5324719999999843
21
-192.0563329999999951
0
LINE
8
BLACK
6
CONTINUOUS
10
488.0824719999999957
20
-192.2863329999999848
11
488.0824719999999957
21
-192.0563329999999951
0
LINE
8
BLACK
6
CONTINUOUS
10
488.0824719999999957
20
-195.606332999999978
11
488.0824719999999957
21
-195.1363329999999792
0
ARC
8
BLACK
10
479.1324769999999944
20
-194.0563379999999825
40
2.0000050000062499
50
90.00014324
51
179.99985676
0
ARC
8
BLACK
10
483.0167819999999779
20
-198.455664999999982
40
2.3493317156502185
50
89.97887989
51
167.47892704
0
ARC
8
BLACK
10
487.5824709999999982
20
-195.6063319999999806
40
0.500001000001
50
-89.99988541
51
-0.00011459
0
LINE
8
BLACK
6
CONTINUOUS
10
455.3047399999999811
20
-240.0602599999999995
11
456.6347399999999652
21
-240.0602599999999995
0
LINE
8
BLACK
6
CONTINUOUS
10
455.3047399999999811
20
-241.3902599999999836
11
455.3047399999999811
21
-240.0602599999999995
0
LINE
8
BLACK
6
CONTINUOUS
10
457.9047410000000013
20
-242.7202599999999961
11
457.9047410000000013
21
-240.0602599999999995
0
LINE
8
BLACK
6
CONTINUOUS
10
468.1247399999999743
20
-240.0602599999999995
11
457.9047410000000013
21
-240.0602599999999995
0
LINE
8
BLACK
6
CONTINUOUS
10
468.1247399999999743
20
-242.7202599999999961
11
457.9047410000000013
21
-242.7202599999999961
0
LINE
8
BLACK
6
CONTINUOUS
10
468.1247399999999743
20
-242.7202599999999961
11
468.1247399999999743
21
-240.0602599999999995
0
LINE
8
BLACK
6
CONTINUOUS
10
345.5435929999999871
20
-268.2062540000000013
11
345.6962399999999889
21
-268.9915560000000028
0
LINE
8
BLACK
6
CONTINUOUS
10
346.2858400000000074
20
-272.024784000000011
11
346.2400460000000066
21
-271.7891930000000116
0
LINE
8
BLACK
6
CONTINUOUS
10
351.7117999999999824
20
-269.0956449999999904
11
356.1927559999999744
21
-268.2246359999999754
0
LINE
8
BLACK
6
CONTINUOUS
10
352.9168300000000045
20
-264.7356090000000108
11
347.1252289999999903
21
-265.8613819999999919
0
LINE
8
BLACK
6
CONTINUOUS
10
355.9107929999999556
20
-264.1536409999999933
11
354.3892710000000079
21
-264.4493949999999813
0
LINE
8
BLACK
6
CONTINUOUS
10
355.9546789999999987
20
-264.379415999999992
11
355.9107929999999556
21
-264.1536409999999933
0
LINE
8
BLACK
6
CONTINUOUS
10
356.5881650000000036
20
-267.6384180000000015
11
356.4984839999999622
21
-267.1770530000000008
0
ARC
8
BLACK
10
347.5068389999999567
20
-267.8246310000000108
40
1.9999927426480828
50
-259.00019538
51
-168.99981340
0
ARC
8
BLACK
10
352.1592239999999947
20
-271.401978999999983
40
2.3493318320450176
50
100.97888691
51
178.47892959
0
ARC
8
BLACK
10
356.0973510000000033
20
-267.7338219999999751
40
0.5000003058119065
50
-78.99995242
51
10.99993509
0
LINE
8
BLACK
6
CONTINUOUS
10
458.0824719999999957
20
-194.0563329999999951
11
458.0824719999999957
21
-194.856332999999978
0
LINE
8
BLACK
6
CONTINUOUS
10
458.0824719999999957
20
-197.9463329999999814
11
458.0824719999999957
21
-197.7063330000000008
0
LINE
8
BLACK
6
CONTINUOUS
10
463.967647999999997
20
-196.106332999999978
11
468.5324719999999843
21
-196.106332999999978
0
LINE
8
BLACK
6
CONTINUOUS
10
465.9824719999999729
20
-192.0563329999999951
11
460.0824719999999957
21
-192.0563329999999951
0
LINE
8
BLACK
6
CONTINUOUS
10
469.0324719999999843
20
-192.0563329999999951
11
467.4824719999999729
21
-192.0563329999999951
0
LINE
8
BLACK
6
CONTINUOUS
10
469.0324719999999843
20
-192.2863329999999848
11
469.0324719999999843
21
-192.0563329999999951
0
LINE
8
BLACK
6
CONTINUOUS
10
469.0324719999999843
20
-195.606332999999978
11
469.0324719999999843
21
-195.1363329999999792
0
ARC
8
BLACK
10
460.082476999999983
20
-194.0563379999999825
40
2.0000050000062499
50
90.00014324
51
179.99985676
0
ARC
8
BLACK
10
463.9667819999999665
20
-198.455664999999982
40
2.3493317156502185
50
89.97887989
51
167.47892704
0
ARC
8
BLACK
10
468.5324709999999868
20
-195.6063319999999806
40
0.500001000001
50
-89.99988541
51
-0.00011459
0
LINE
8
BLACK
6
CONTINUOUS
10
467.1175759999999855
20
-224.9302599999999757
11
466.9019040000000018
21
-224.9302599999999757
0
LINE
8
BLACK
6
CONTINUOUS
10
467.1175759999999855
20
-225.6502600000000029
11
466.9019040000000018
21
-225.6502600000000029
0
LINE
8
BLACK
6
CONTINUOUS
10
373.3362659999999664
20
-223.9907999999999788
11
373.4889129999999682
21
-224.7761019999999803
0
LINE
8
BLACK
6
CONTINUOUS
10
374.0785129999999867
20
-227.8093299999999886
11
374.032718999999986
21
-227.5737389999999891
0
LINE
8
BLACK
6
CONTINUOUS
10
379.5044729999999618
20
-224.8801909999999964
11
383.9854290000000105
21
-224.0091819999999814
0
LINE
8
BLACK
6
CONTINUOUS
10
380.7095029999999838
20
-220.5201549999999884
11
374.9179019999999696
21
-221.6459279999999978
0
LINE
8
BLACK
6
CONTINUOUS
10
383.7034659999999917
20
-219.9381869999999992
11
382.1819439999999872
21
-220.2339409999999873
0
LINE
8
BLACK
6
CONTINUOUS
10
383.747351999999978
20
-220.1639619999999979
11
383.7034659999999917
21
-219.9381869999999992
0
LINE
8
BLACK
6
CONTINUOUS
10
384.3808379999999829
20
-223.422963999999979
11
384.2911569999999983
21
-222.9615989999999783
0
ARC
8
BLACK
10
375.2995119999999929
20
-223.6091769999999883
40
1.9999927426480828
50
-259.00019538
51
-168.99981340
0
ARC
8
BLACK
10
379.951896999999974
20
-227.1865249999999889
40
2.3493318320450176
50
100.97888691
51
178.47892959
0
ARC
8
BLACK
10
383.8900239999999826
20
-223.5183679999999811
40
0.5000003058119065
50
-78.99995242
51
10.99993509
0
LINE
8
BLACK
6
CONTINUOUS
10
158.7829019999999787
20
-218.5879290000000026
11
159.9012869999999964
21
-220.2460030000000017
0
LINE
8
BLACK
6
CONTINUOUS
10
162.1073419999999885
20
-216.345563999999996
11
158.7829019999999787
21
-218.5879290000000026
0
LINE
8
BLACK
6
CONTINUOUS
10
163.2257280000000037
20
-218.0036389999999926
11
159.9012869999999964
21
-220.2460030000000017
0
LINE
8
BLACK
6
CONTINUOUS
10
367.6211779999999862
20
-244.5082529999999963
11
367.773824999999988
21
-245.2935549999999978
0
LINE
8
BLACK
6
CONTINUOUS
10
368.3634250000000065
20
-248.3267829999999776
11
368.3176310000000058
21
-248.0911919999999782
0
LINE
8
BLACK
6
CONTINUOUS
10
373.7893849999999816
20
-245.3976439999999855
11
378.2703409999999735
21
-244.5266349999999989
0
LINE
8
BLACK
6
CONTINUOUS
10
374.9944150000000036
20
-241.0376079999999774
11
369.2028139999999894
21
-242.1633809999999869
0
LINE
8
BLACK
6
CONTINUOUS
10
377.9883779999999547
20
-240.4556399999999883
11
376.466856000000007
21
-240.7513939999999764
0
LINE
8
BLACK
6
CONTINUOUS
10
378.0322639999999978
20
-240.681414999999987
11
377.9883779999999547
21
-240.4556399999999883
0
LINE
8
BLACK
6
CONTINUOUS
10
378.6657500000000027
20
-243.9404169999999965
11
378.5760689999999613
21
-243.4790519999999958
0
ARC
8
BLACK
10
369.5844239999999559
20
-244.1266299999999774
40
1.9999927426480828
50
-259.00019538
51
-168.99981340
0
ARC
8
BLACK
10
374.2368089999999938
20
-247.703977999999978
40
2.3493318320450176
50
100.97888691
51
178.47892959
0
ARC
8
BLACK
10
378.1749360000000024
20
-244.0358209999999985
40
0.5000003058119065
50
-78.99995242
51
10.99993509
0
LINE
8
BLACK
6
CONTINUOUS
10
295.9414509999999723
20
-200.2217219999999998
11
296.094097999999974
21
-201.0070240000000013
0
LINE
8
BLACK
6
CONTINUOUS
10
296.6836979999999926
20
-204.0402519999999811
11
296.6379039999999918
21
-203.8046609999999816
0
LINE
8
BLACK
6
CONTINUOUS
10
302.1096579999999676
20
-201.1111129999999889
11
306.5906139999999596
21
-200.2401040000000023
0
LINE
8
BLACK
6
CONTINUOUS
10
303.3146879999999896
20
-196.7510769999999809
11
297.5230869999999754
21
-197.8768499999999904
0
LINE
8
BLACK
6
CONTINUOUS
10
306.3086509999999976
20
-196.1691089999999917
11
304.7871289999999931
21
-196.4648629999999798
0
LINE
8
BLACK
6
CONTINUOUS
10
306.3525369999999839
20
-196.3948839999999905
11
306.3086509999999976
21
-196.1691089999999917
0
LINE
8
BLACK
6
CONTINUOUS
10
306.9860229999999888
20
-199.653886
11
306.8963420000000042
21
-199.1925209999999993
0
ARC
8
BLACK
10
297.9046969999999988
20
-199.8400989999999808
40
1.9999927426480828
50
-259.00019538
51
-168.99981340
0
ARC
8
BLACK
10
302.5570819999999799
20
-203.4174469999999815
40
2.3493318320450176
50
100.97888691
51
178.47892959
0
ARC
8
BLACK
10
306.4952089999999885
20
-199.749290000000002
40
0.5000003058119065
50
-78.99995242
51
10.99993509
0
LINE
8
BLACK
6
CONTINUOUS
10
466.5182059999999638
20
-234.1592079999999783
11
466.670708999999988
21
-234.0067049999999824
0
LINE
8
BLACK
6
CONTINUOUS
10
467.0273229999999671
20
-234.6683249999999816
11
467.1798259999999914
21
-234.5158219999999858
0
LINE
8
BLACK
6
CONTINUOUS
10
459.8289299999999571
20
-215.0185669999999902
11
459.9814329999999813
21
-215.1710699999999861
0
LINE
8
BLACK
6
CONTINUOUS
10
460.3380469999999605
20
-214.5094499999999869
11
460.4905499999999847
21
-214.6619529999999827
0
LINE
8
BLACK
6
CONTINUOUS
10
168.9156659999999874
20
-278.7771979999999985
11
170.0340510000000052
21
-280.4352719999999977
0
LINE
8
BLACK
6
CONTINUOUS
10
172.2401059999999973
20
-276.5348329999999919
11
168.9156659999999874
21
-278.7771979999999985
0
LINE
8
BLACK
6
CONTINUOUS
10
173.358491999999984
20
-278.1929079999999885
11
170.0340510000000052
21
-280.4352719999999977
0
LINE
8
BLACK
6
CONTINUOUS
10
405.5167079999999942
20
-188.4779570000000035
11
407.1747819999999933
21
-189.5963419999999928
0
LINE
8
BLACK
6
CONTINUOUS
10
407.7590720000000033
20
-185.1535159999999962
11
405.5167079999999942
21
-188.4779570000000035
0
LINE
8
BLACK
6
CONTINUOUS
10
409.4171469999999999
20
-186.271901999999983
11
407.1747819999999933
21
-189.5963419999999928
0
LINE
8
BLACK
6
CONTINUOUS
10
429.4063519999999698
20
-261.4604919999999879
11
431.064425999999969
21
-262.5788769999999772
0
LINE
8
BLACK
6
CONTINUOUS
10
431.648715999999979
20
-258.136051000000009
11
429.4063519999999698
21
-261.4604919999999879
0
LINE
8
BLACK
6
CONTINUOUS
10
433.3067909999999756
20
-259.2544369999999958
11
431.064425999999969
21
-262.5788769999999772
0
LINE
8
BLACK
6
CONTINUOUS
10
482.1603379999999675
20
-155.8112779999999873
11
483.5745519999999829
21
-157.2254920000000027
0
LINE
8
BLACK
6
CONTINUOUS
10
484.9958359999999971
20
-152.9757799999999861
11
482.1603379999999675
21
-155.8112779999999873
0
LINE
8
BLACK
6
CONTINUOUS
10
486.4100499999999556
20
-154.3899940000000015
11
483.5745519999999829
21
-157.2254920000000027
0
LINE
8
BLACK
6
CONTINUOUS
10
477.1324719999999502
20
-175.0063329999999837
11
477.1324719999999502
21
-175.8063329999999951
0
LINE
8
BLACK
6
CONTINUOUS
10
477.1324719999999502
20
-178.8963329999999985
11
477.1324719999999502
21
-178.6563329999999894
0
LINE
8
BLACK
6
CONTINUOUS
10
483.0176479999999515
20
-177.0563329999999951
11
487.5824719999999957
21
-177.0563329999999951
0
LINE
8
BLACK
6
CONTINUOUS
10
485.0324719999999843
20
-173.0063329999999837
11
479.1324719999999502
21
-173.0063329999999837
0
LINE
8
BLACK
6
CONTINUOUS
10
488.0824719999999957
20
-173.0063329999999837
11
486.5324719999999843
21
-173.0063329999999837
0
LINE
8
BLACK
6
CONTINUOUS
10
488.0824719999999957
20
-173.2363330000000019
11
488.0824719999999957
21
-173.0063329999999837
0
LINE
8
BLACK
6
CONTINUOUS
10
488.0824719999999957
20
-176.5563329999999951
11
488.0824719999999957
21
-176.0863329999999962
0
ARC
8
BLACK
10
479.1324769999999944
20
-175.0063379999999995
40
2.0000050000062499
50
90.00014324
51
179.99985676
0
ARC
8
BLACK
10
483.0167819999999779
20
-179.4056649999999991
40
2.3493317156502185
50
89.97887989
51
167.47892704
0
ARC
8
BLACK
10
487.5824709999999982
20
-176.5563319999999976
40
0.500001000001
50
-89.99988541
51
-0.00011459
0
LINE
8
BLACK
6
CONTINUOUS
10
477.1324719999999502
20
-146.4313329999999951
11
477.1324719999999502
21
-147.2313330000000065
0
LINE
8
BLACK
6
CONTINUOUS
10
477.1324719999999502
20
-150.3213329999999814
11
477.1324719999999502
21
-150.0813330000000008
0
LINE
8
BLACK
6
CONTINUOUS
10
483.0176479999999515
20
-148.4813330000000065
11
487.5824719999999957
21
-148.4813330000000065
0
LINE
8
BLACK
6
CONTINUOUS
10
485.0324719999999843
20
-144.4313329999999951
11
479.1324719999999502
21
-144.4313329999999951
0
LINE
8
BLACK
6
CONTINUOUS
10
488.0824719999999957
20
-144.4313329999999951
11
486.5324719999999843
21
-144.4313329999999951
0
LINE
8
BLACK
6
CONTINUOUS
10
488.0824719999999957
20
-144.6613329999999848
11
488.0824719999999957
21
-144.4313329999999951
0
LINE
8
BLACK
6
CONTINUOUS
10
488.0824719999999957
20
-147.9813330000000065
11
488.0824719999999957
21
-147.5113329999999792
0
ARC
8
BLACK
10
479.1324769999999944
20
-146.4313379999999825
40
2.0000050000062499
50
90.00014324
51
179.99985676
0
ARC
8
BLACK
10
483.0167819999999779
20
-150.830664999999982
40
2.3493317156502185
50
89.97887989
51
167.47892704
0
ARC
8
BLACK
10
487.5824709999999982
20
-147.9813319999999806
40
0.500001000001
50
-89.99988541
51
-0.00011459
0
LINE
8
BLACK
6
CONTINUOUS
10
353.3143460000000005
20
-169.5152379999999823
11
354.9724199999999996
21
-170.633623
0
LINE
8
BLACK
6
CONTINUOUS
10
355.5567100000000096
20
-166.1907970000000034
11
353.3143460000000005
21
-169.5152379999999823
0
LINE
8
BLACK
6
CONTINUOUS
10
357.2147850000000062
20
-167.3091829999999902
11
354.9724199999999996
21
-170.633623
0
LINE
8
BLACK
6
CONTINUOUS
10
306.5643509999999878
20
-178.602517000000006
11
308.222424999999987
21
-179.7209019999999953
0
LINE
8
BLACK
6
CONTINUOUS
10
308.806714999999997
20
-175.2780759999999987
11
306.5643509999999878
21
-178.602517000000006
0
LINE
8
BLACK
6
CONTINUOUS
10
310.4647899999999936
20
-176.3964619999999854
11
308.222424999999987
21
-179.7209019999999953
0
LINE
8
BLACK
6
CONTINUOUS
10
290.2263639999999896
20
-220.7391749999999888
11
290.3790109999999913
21
-221.5244769999999903
0
LINE
8
BLACK
6
CONTINUOUS
10
290.9686110000000099
20
-224.5577049999999986
11
290.9228170000000091
21
-224.3221139999999991
0
LINE
8
BLACK
6
CONTINUOUS
10
296.3945709999999849
20
-221.628565999999978
11
300.8755269999999769
21
-220.7575569999999914
0
LINE
8
BLACK
6
CONTINUOUS
10
297.5996010000000069
20
-217.2685299999999984
11
291.8079999999999927
21
-218.3943029999999794
0
LINE
8
BLACK
6
CONTINUOUS
10
300.593563999999958
20
-216.6865619999999808
11
299.0720420000000104
21
-216.9823159999999973
0
LINE
8
BLACK
6
CONTINUOUS
10
300.6374500000000012
20
-216.9123369999999795
11
300.593563999999958
21
-216.6865619999999808
0
LINE
8
BLACK
6
CONTINUOUS
10
301.2709360000000061
20
-220.171338999999989
11
301.1812549999999646
21
-219.7099739999999883
0
ARC
8
BLACK
10
292.1896099999999592
20
-220.3575519999999983
40
1.9999927426480828
50
-259.00019538
51
-168.99981340
0
ARC
8
BLACK
10
296.8419949999999972
20
-223.934899999999999
40
2.3493318320450176
50
100.97888691
51
178.47892959
0
ARC
8
BLACK
10
300.7801220000000058
20
-220.2667429999999911
40
0.5000003058119065
50
-78.99995242
51
10.99993509
0
LINE
8
BLACK
6
CONTINUOUS
10
403.9810860000000048
20
-256.847155999999984
11
404.1337330000000065
21
-257.6324579999999855
0
LINE
8
BLACK
6
CONTINUOUS
10
404.7233329999999683
20
-260.6656859999999938
11
404.6775389999999675
21
-260.4300949999999943
0
LINE
8
BLACK
6
CONTINUOUS
10
410.1492930000000001
20
-257.7365469999999732
11
414.6302489999999921
21
-256.865538000000015
0
LINE
8
BLACK
6
CONTINUOUS
10
411.3543229999999653
20
-253.3765109999999936
11
405.5627220000000079
21
-254.5022839999999746
0
LINE
8
BLACK
6
CONTINUOUS
10
414.3482859999999732
20
-252.794542999999976
11
412.8267639999999687
21
-253.0902969999999925
0
LINE
8
BLACK
6
CONTINUOUS
10
414.3921719999999596
20
-253.0203179999999747
11
414.3482859999999732
21
-252.794542999999976
0
LINE
8
BLACK
6
CONTINUOUS
10
415.0256579999999644
20
-256.2793199999999842
11
414.9359769999999799
21
-255.8179549999999836
0
ARC
8
BLACK
10
405.9443319999999744
20
-256.4655329999999935
40
1.9999927426480828
50
-259.00019538
51
-168.99981340
0
ARC
8
BLACK
10
410.5967169999999555
20
-260.0428809999999658
40
2.3493318320450176
50
100.97888691
51
178.47892959
0
ARC
8
BLACK
10
414.5348439999999641
20
-256.3747240000000147
40
0.5000003058119065
50
-78.99995242
51
10.99993509
0
LINE
8
BLACK
6
CONTINUOUS
10
335.9362699999999791
20
-231.2606219999999837
11
336.0889169999999808
21
-232.0459239999999852
0
LINE
8
BLACK
6
CONTINUOUS
10
336.6785169999999994
20
-235.0791519999999934
11
336.6327229999999986
21
-234.843560999999994
0
LINE
8
BLACK
6
CONTINUOUS
10
342.1044769999999744
20
-232.1500130000000013
11
346.5854329999999663
21
-231.2790039999999863
0
LINE
8
BLACK
6
CONTINUOUS
10
343.3095069999999964
20
-227.7899769999999933
11
337.5179059999999822
21
-228.9157500000000027
0
LINE
8
BLACK
6
CONTINUOUS
10
346.3034700000000043
20
-227.2080089999999757
11
344.7819479999999999
21
-227.5037629999999922
0
LINE
8
BLACK
6
CONTINUOUS
10
346.3473559999999907
20
-227.4337840000000028
11
346.3034700000000043
21
-227.2080089999999757
0
LINE
8
BLACK
6
CONTINUOUS
10
346.9808419999999956
20
-230.6927859999999839
11
346.891161000000011
21
-230.2314209999999832
0
ARC
8
BLACK
10
337.8995160000000055
20
-230.8789989999999932
40
1.9999927426480828
50
-259.00019538
51
-168.99981340
0
ARC
8
BLACK
10
342.5519009999999867
20
-234.4563469999999938
40
2.3493318320450176
50
100.97888691
51
178.47892959
0
ARC
8
BLACK
10
346.4900279999999952
20
-230.788189999999986
40
0.5000003058119065
50
-78.99995242
51
10.99993509
0
LINE
8
BLACK
6
CONTINUOUS
10
305.2615429999999606
20
-246.7786929999999757
11
306.9196169999999597
21
-247.8970779999999934
0
LINE
8
BLACK
6
CONTINUOUS
10
307.5039069999999697
20
-243.4542519999999968
11
305.2615429999999606
21
-246.7786929999999757
0
LINE
8
BLACK
6
CONTINUOUS
10
309.1619819999999663
20
-244.5726379999999835
11
306.9196169999999597
21
-247.8970779999999934
0
LINE
8
BLACK
6
CONTINUOUS
10
340.0667149999999879
20
-201.2001459999999895
11
341.724788999999987
21
-202.3185309999999788
0
LINE
8
BLACK
6
CONTINUOUS
10
342.309078999999997
20
-197.8757049999999822
11
340.0667149999999879
21
-201.2001459999999895
0
LINE
8
BLACK
6
CONTINUOUS
10
343.9671539999999936
20
-198.9940909999999974
11
341.724788999999987
21
-202.3185309999999788
0
LINE
8
BLACK
6
CONTINUOUS
10
209.1678079999999795
20
-208.9752100000000041
11
210.2861929999999973
21
-210.6332840000000033
0
LINE
8
BLACK
6
CONTINUOUS
10
212.4922479999999894
20
-206.7328449999999975
11
209.1678079999999795
21
-208.9752100000000041
0
LINE
8
BLACK
6
CONTINUOUS
10
213.6106339999999761
20
-208.3909199999999942
11
210.2861929999999973
21
-210.6332840000000033
0
LINE
8
BLACK
6
CONTINUOUS
10
392.0063559999999825
20
-268.7303149999999619
11
393.6644299999999816
21
-269.848700000000008
0
LINE
8
BLACK
6
CONTINUOUS
10
394.2487199999999916
20
-265.405873999999983
11
392.0063559999999825
21
-268.7303149999999619
0
LINE
8
BLACK
6
CONTINUOUS
10
395.9067949999999882
20
-266.5242599999999698
11
393.6644299999999816
21
-269.848700000000008
0
LINE
8
BLACK
6
CONTINUOUS
10
475.8755789999999593
20
-215.8528819999999939
11
476.1828610000000026
21
-215.8528819999999939
0
LINE
8
BLACK
6
CONTINUOUS
10
475.8755789999999593
20
-216.6128819999999848
11
476.1828610000000026
21
-216.6128819999999848
0
LINE
8
BLACK
6
CONTINUOUS
10
374.3464469999999551
20
-252.7565009999999859
11
376.0045210000000111
21
-253.8748859999999752
0
LINE
8
BLACK
6
CONTINUOUS
10
376.5888109999999642
20
-249.4320599999999786
11
374.3464469999999551
21
-252.7565009999999859
0
LINE
8
BLACK
6
CONTINUOUS
10
378.2468859999999609
20
-250.5504459999999938
11
376.0045210000000111
21
-253.8748859999999752
0
LINE
8
BLACK
6
CONTINUOUS
10
346.5890779999999722
20
-161.2669909999999902
11
346.741724999999974
21
-162.0522929999999917
0
LINE
8
BLACK
6
CONTINUOUS
10
347.3313249999999925
20
-165.085521
11
347.2855309999999918
21
-164.8499300000000005
0
LINE
8
BLACK
6
CONTINUOUS
10
352.7572849999999676
20
-162.1563819999999794
11
357.2382409999999595
21
-161.2853729999999928
0
LINE
8
BLACK
6
CONTINUOUS
10
353.9623149999999896
20
-157.7963459999999998
11
348.1707139999999754
21
-158.9221189999999808
0
LINE
8
BLACK
6
CONTINUOUS
10
356.9562779999999975
20
-157.2143779999999822
11
355.434755999999993
21
-157.5101319999999987
0
LINE
8
BLACK
6
CONTINUOUS
10
357.0001639999999838
20
-157.4401529999999809
11
356.9562779999999975
21
-157.2143779999999822
0
LINE
8
BLACK
6
CONTINUOUS
10
357.6336499999999887
20
-160.6991549999999904
11
357.5439690000000041
21
-160.2377899999999897
0
ARC
8
BLACK
10
348.5523239999999987
20
-160.8853679999999997
40
1.9999927426480828
50
-259.00019538
51
-168.99981340
0
ARC
8
BLACK
10
353.2047089999999798
20
-164.4627160000000003
40
2.3493318320450176
50
100.97888691
51
178.47892959
0
ARC
8
BLACK
10
357.1428359999999884
20
-160.7945589999999925
40
0.5000003058119065
50
-78.99995242
51
10.99993509
0
LINE
8
BLACK
6
CONTINUOUS
10
409.414338999999984
20
-158.6105039999999917
11
411.0724129999999832
21
-159.728888999999981
0
LINE
8
BLACK
6
CONTINUOUS
10
411.6567029999999932
20
-155.2860629999999844
11
409.414338999999984
21
-158.6105039999999917
0
LINE
8
BLACK
6
CONTINUOUS
10
413.3147779999999898
20
-156.4044489999999996
11
411.0724129999999832
21
-159.728888999999981
0
LINE
8
BLACK
6
CONTINUOUS
10
336.9464509999999677
20
-260.0263239999999882
11
338.6045249999999669
21
-261.1447089999999776
0
LINE
8
BLACK
6
CONTINUOUS
10
339.1888149999999769
20
-256.7018830000000094
11
336.9464509999999677
21
-260.0263239999999882
0
LINE
8
BLACK
6
CONTINUOUS
10
340.8468899999999735
20
-257.8202689999999961
11
338.6045249999999669
21
-261.1447089999999776
0
LINE
8
BLACK
6
CONTINUOUS
10
269.1643559999999979
20
-185.8723389999999824
11
270.8224299999999971
21
-186.9907240000000002
0
LINE
8
BLACK
6
CONTINUOUS
10
271.4067200000000071
20
-182.5478980000000035
11
269.1643559999999979
21
-185.8723389999999824
0
LINE
8
BLACK
6
CONTINUOUS
10
273.0647950000000037
20
-183.6662839999999903
11
270.8224299999999971
21
-186.9907240000000002
0
LINE
8
BLACK
6
CONTINUOUS
10
202.4277019999999823
20
-279.6985770000000002
11
202.473495999999983
21
-279.4629869999999983
0
LINE
8
BLACK
6
CONTINUOUS
10
203.16995
20
-275.880047999999988
11
203.0173010000000033
21
-276.665348999999992
0
LINE
8
BLACK
6
CONTINUOUS
10
208.5558389999999918
20
-279.0153280000000109
11
213.0367939999999862
21
-279.8863369999999691
0
LINE
8
BLACK
6
CONTINUOUS
10
211.3064210000000003
20
-275.4241839999999684
11
205.5148209999999835
21
-274.2984109999999873
0
LINE
8
BLACK
6
CONTINUOUS
10
213.6230119999999886
20
-279.4909279999999967
11
213.7126909999999782
21
-279.029562999999996
0
LINE
8
BLACK
6
CONTINUOUS
10
214.2564979999999935
20
-276.2319259999999872
11
214.3003839999999798
21
-276.0061519999999859
0
LINE
8
BLACK
6
CONTINUOUS
10
214.3003839999999798
20
-276.0061519999999859
11
212.7788620000000037
21
-275.7103979999999979
0
ARC
8
BLACK
10
205.1332089999999937
20
-276.2616719999999759
40
2.0000056946061426
50
79.00020473
51
168.99985634
0
ARC
8
BLACK
10
208.1067170000000033
20
-281.3213339999999789
40
2.3493350206850021
50
78.97893660
51
156.47888690
0
ARC
8
BLACK
10
213.1321979999999883
20
-279.3955229999999688
40
0.5000004966207533
50
-100.99993509
51
-11.00004758
0
LINE
8
BLACK
6
CONTINUOUS
10
447.3946469999999636
20
-143.3097740000000044
11
447.087364999999977
21
-143.3097740000000044
0
LINE
8
BLACK
6
CONTINUOUS
10
447.3946469999999636
20
-144.0697739999999953
11
447.087364999999977
21
-144.0697739999999953
0
LINE
8
BLACK
6
CONTINUOUS
10
464.6497399999999516
20
-219.1884749999999826
11
464.6497399999999516
21
-219.4041469999999947
0
LINE
8
BLACK
6
CONTINUOUS
10
465.3697399999999789
20
-219.1884749999999826
11
465.3697399999999789
21
-219.4041469999999947
0
LINE
8
BLACK
6
CONTINUOUS
10
482.1603379999999675
20
-241.5362779999999816
11
483.5745519999999829
21
-242.950491999999997
0
LINE
8
BLACK
6
CONTINUOUS
10
484.9958359999999971
20
-238.7007799999999804
11
482.1603379999999675
21
-241.5362779999999816
0
LINE
8
BLACK
6
CONTINUOUS
10
486.4100499999999556
20
-240.1149939999999958
11
483.5745519999999829
21
-242.950491999999997
0
LINE
8
BLACK
6
CONTINUOUS
10
441.7222399999999993
20
-152.0363109999999836
11
442.7122389999999541
21
-152.0363109999999836
0
LINE
8
BLACK
6
CONTINUOUS
10
442.7122389999999541
20
-150.9863110000000006
11
445.2122399999999516
21
-150.9863110000000006
0
LINE
8
BLACK
6
CONTINUOUS
10
442.7122389999999541
20
-152.0363109999999836
11
442.7122389999999541
21
-150.9863110000000006
0
LINE
8
BLACK
6
CONTINUOUS
10
442.7122389999999541
20
-156.1563109999999881
11
442.7122389999999541
21
-157.2063109999999995
0
LINE
8
BLACK
6
CONTINUOUS
10
442.7122389999999541
20
-157.2063109999999995
11
445.2122399999999516
21
-157.2063109999999995
0
LINE
8
BLACK
6
CONTINUOUS
10
447.1822399999999789
20
-156.0363109999999836
11
447.1822399999999789
21
-152.1563109999999881
0
LINE
8
BLACK
6
CONTINUOUS
10
161.6501189999999895
20
-252.3656649999999786
11
161.6959129999999902
21
-252.1300749999999766
0
LINE
8
BLACK
6
CONTINUOUS
10
162.3923669999999788
20
-248.5471359999999947
11
162.2397179999999821
21
-249.3324369999999988
0
LINE
8
BLACK
6
CONTINUOUS
10
167.7782559999999989
20
-251.6824159999999893
11
172.2592109999999934
21
-252.5534249999999759
0
LINE
8
BLACK
6
CONTINUOUS
10
170.528837999999979
20
-248.0912719999999752
11
164.7372379999999907
21
-246.9654989999999941
0
LINE
8
BLACK
6
CONTINUOUS
10
172.8454289999999958
20
-252.1580159999999751
11
172.9351079999999854
21
-251.6966510000000028
0
LINE
8
BLACK
6
CONTINUOUS
10
173.4789150000000006
20
-248.899013999999994
11
173.522800999999987
21
-248.6732399999999927
0
LINE
8
BLACK
6
CONTINUOUS
10
173.522800999999987
20
-248.6732399999999927
11
172.0012789999999825
21
-248.3774859999999762
0
ARC
8
BLACK
10
164.3556260000000009
20
-248.9287599999999827
40
2.0000056946061426
50
79.00020473
51
168.99985634
0
ARC
8
BLACK
10
167.3291339999999821
20
-253.9884219999999857
40
2.3493350206850021
50
78.97893660
51
156.47888690
0
ARC
8
BLACK
10
172.3546149999999955
20
-252.0626109999999755
40
0.5000004966207533
50
-100.99993509
51
-11.00004758
0
LINE
8
BLACK
6
CONTINUOUS
10
479.4694799999999759
20
-215.2865709999999808
11
479.4694799999999759
21
-213.2865709999999808
0
LINE
8
BLACK
6
CONTINUOUS
10
480.9694799999999759
20
-211.5365709999999808
11
480.5194799999999873
21
-211.9865709999999979
0
LINE
8
BLACK
6
CONTINUOUS
10
480.9694799999999759
20
-211.5365709999999808
11
483.4694799999999759
21
-211.5365709999999808
0
LINE
8
BLACK
6
CONTINUOUS
10
480.9694799999999759
20
-217.0365709999999808
11
480.5194799999999873
21
-216.5865709999999922
0
LINE
8
BLACK
6
CONTINUOUS
10
480.9694799999999759
20
-217.0365709999999808
11
483.4694799999999759
21
-217.0365709999999808
0
LINE
8
BLACK
6
CONTINUOUS
10
483.4694799999999759
20
-211.5365709999999808
11
483.9194799999999645
21
-211.9865709999999979
0
LINE
8
BLACK
6
CONTINUOUS
10
483.4694799999999759
20
-217.0365709999999808
11
483.9194799999999645
21
-216.5865709999999922
0
LINE
8
BLACK
6
CONTINUOUS
10
484.9694799999999759
20
-215.2865709999999808
11
484.9694799999999759
21
-213.2865709999999808
0
LINE
8
BLACK
6
CONTINUOUS
10
312.5313649999999939
20
-284.1786879999999655
11
314.189438999999993
21
-285.2970730000000117
0
LINE
8
BLACK
6
CONTINUOUS
10
314.773729000000003
20
-280.8542469999999867
11
312.5313649999999939
21
-284.1786879999999655
0
LINE
8
BLACK
6
CONTINUOUS
10
316.4318039999999996
20
-281.9726329999999734
11
314.189438999999993
21
-285.2970730000000117
0
LINE
8
BLACK
6
CONTINUOUS
10
458.0824719999999957
20
-146.4313329999999951
11
458.0824719999999957
21
-147.2313330000000065
0
LINE
8
BLACK
6
CONTINUOUS
10
458.0824719999999957
20
-150.3213329999999814
11
458.0824719999999957
21
-150.0813330000000008
0
LINE
8
BLACK
6
CONTINUOUS
10
463.967647999999997
20
-148.4813330000000065
11
468.5324719999999843
21
-148.4813330000000065
0
LINE
8
BLACK
6
CONTINUOUS
10
465.9824719999999729
20
-144.4313329999999951
11
460.0824719999999957
21
-144.4313329999999951
0
LINE
8
BLACK
6
CONTINUOUS
10
469.0324719999999843
20
-144.4313329999999951
11
467.4824719999999729
21
-144.4313329999999951
0
LINE
8
BLACK
6
CONTINUOUS
10
469.0324719999999843
20
-144.6613329999999848
11
469.0324719999999843
21
-144.4313329999999951
0
LINE
8
BLACK
6
CONTINUOUS
10
469.0324719999999843
20
-147.9813330000000065
11
469.0324719999999843
21
-147.5113329999999792
0
ARC
8
BLACK
10
460.082476999999983
20
-146.4313379999999825
40
2.0000050000062499
50
90.00014324
51
179.99985676
0
ARC
8
BLACK
10
463.9667819999999665
20
-150.830664999999982
40
2.3493317156502185
50
89.97887989
51
167.47892704
0
ARC
8
BLACK
10
468.5324709999999868
20
-147.9813319999999806
40
0.500001000001
50
-89.99988541
51
-0.00011459
0
LINE
8
BLACK
6
CONTINUOUS
10
410.7063539999999762
20
-265.0954039999999736
11
412.3644279999999753
21
-266.2137889999999629
0
LINE
8
BLACK
6
CONTINUOUS
10
412.9487179999999853
20
-261.7709629999999947
11
410.7063539999999762
21
-265.0954039999999736
0
LINE
8
BLACK
6
CONTINUOUS
10
414.6067929999999819
20
-262.8893489999999815
11
412.3644279999999753
21
-266.2137889999999629
0
LINE
8
BLACK
6
CONTINUOUS
10
210.9949369999999931
20
-223.14421999999999
11
211.0407309999999939
21
-222.9086299999999881
0
LINE
8
BLACK
6
CONTINUOUS
10
211.7371849999999824
20
-219.3256909999999777
11
211.5845359999999857
21
-220.1109919999999818
0
LINE
8
BLACK
6
CONTINUOUS
10
217.1230740000000026
20
-222.4609710000000007
11
221.604028999999997
21
-223.3319799999999873
0
LINE
8
BLACK
6
CONTINUOUS
10
219.8736559999999827
20
-218.8698269999999866
11
214.0820559999999944
21
-217.7440539999999771
0
LINE
8
BLACK
6
CONTINUOUS
10
222.1902469999999994
20
-222.9365709999999865
11
222.279925999999989
21
-222.4752059999999858
0
LINE
8
BLACK
6
CONTINUOUS
10
222.8237329999999758
20
-219.677568999999977
11
222.8676189999999906
21
-219.4517950000000042
0
LINE
8
BLACK
6
CONTINUOUS
10
222.8676189999999906
20
-219.4517950000000042
11
221.3460969999999861
21
-219.1560409999999877
0
ARC
8
BLACK
10
213.7004440000000045
20
-219.7073149999999941
40
2.0000056946061426
50
79.00020473
51
168.99985634
0
ARC
8
BLACK
10
216.6739519999999857
20
-224.7669769999999971
40
2.3493350206850021
50
78.97893660
51
156.47888690
0
ARC
8
BLACK
10
221.6994329999999991
20
-222.841165999999987
40
0.5000004966207533
50
-100.99993509
51
-11.00004758
0
LINE
8
BLACK
6
CONTINUOUS
10
383.7263529999999605
20
-202.5646179999999958
11
383.8789999999999623
21
-203.3499199999999973
0
LINE
8
BLACK
6
CONTINUOUS
10
384.4685999999999808
20
-206.3831479999999772
11
384.42280599999998
21
-206.1475569999999777
0
LINE
8
BLACK
6
CONTINUOUS
10
389.8945599999999558
20
-203.454008999999985
11
394.3755160000000046
21
-202.5829999999999984
0
LINE
8
BLACK
6
CONTINUOUS
10
391.0995899999999779
20
-199.093972999999977
11
385.3079889999999637
21
-200.2197459999999865
0
LINE
8
BLACK
6
CONTINUOUS
10
394.0935529999999858
20
-198.5120049999999878
11
392.5720309999999813
21
-198.8077590000000043
0
LINE
8
BLACK
6
CONTINUOUS
10
394.1374389999999721
20
-198.7377799999999866
11
394.0935529999999858
21
-198.5120049999999878
0
LINE
8
BLACK
6
CONTINUOUS
10
394.770924999999977
20
-201.9967819999999961
11
394.6812439999999924
21
-201.5354169999999954
0
ARC
8
BLACK
10
385.689598999999987
20
-202.1829949999999769
40
1.9999927426480828
50
-259.00019538
51
-168.99981340
0
ARC
8
BLACK
10
390.3419839999999681
20
-205.7603429999999776
40
2.3493318320450176
50
100.97888691
51
178.47892959
0
ARC
8
BLACK
10
394.2801109999999767
20
-202.0921859999999981
40
0.5000003058119065
50
-78.99995242
51
10.99993509
0
LINE
8
BLACK
6
CONTINUOUS
10
380.0615339999999946
20
-232.2390469999999993
11
381.7196079999999938
21
-233.3574319999999886
0
LINE
8
BLACK
6
CONTINUOUS
10
382.3038980000000038
20
-228.914605999999992
11
380.0615339999999946
21
-232.2390469999999993
0
LINE
8
BLACK
6
CONTINUOUS
10
383.9619730000000004
20
-230.0329919999999788
11
381.7196079999999938
21
-233.3574319999999886
0
LINE
8
BLACK
6
CONTINUOUS
10
174.635029000000003
20
-235.4831229999999778
11
174.6808230000000037
21
-235.2475329999999758
0
LINE
8
BLACK
6
CONTINUOUS
10
175.3772769999999923
20
-231.6645939999999939
11
175.2246279999999956
21
-232.4498949999999979
0
LINE
8
BLACK
6
CONTINUOUS
10
180.763165999999984
20
-234.7998739999999884
11
185.2441209999999785
21
-235.6708830000000034
0
LINE
8
BLACK
6
CONTINUOUS
10
183.5137479999999925
20
-231.2087300000000027
11
177.7221480000000042
21
-230.0829569999999933
0
LINE
8
BLACK
6
CONTINUOUS
10
185.8303389999999808
20
-235.2754740000000027
11
185.9200179999999989
21
-234.814109000000002
0
LINE
8
BLACK
6
CONTINUOUS
10
186.4638249999999857
20
-232.0164719999999932
11
186.5077110000000005
21
-231.7906979999999919
0
LINE
8
BLACK
6
CONTINUOUS
10
186.5077110000000005
20
-231.7906979999999919
11
184.986188999999996
21
-231.4949439999999754
0
ARC
8
BLACK
10
177.340535999999986
20
-232.0462179999999819
40
2.0000056946061426
50
79.00020473
51
168.99985634
0
ARC
8
BLACK
10
180.3140439999999955
20
-237.1058799999999849
40
2.3493350206850021
50
78.97893660
51
156.47888690
0
ARC
8
BLACK
10
185.3395249999999805
20
-235.1800690000000031
40
0.5000004966207533
50
-100.99993509
51
-11.00004758
0
LINE
8
BLACK
6
CONTINUOUS
10
370.7414430000000038
20
-185.682075999999995
11
370.8940900000000056
21
-186.4673779999999965
0
LINE
8
BLACK
6
CONTINUOUS
10
371.4836899999999673
20
-189.5006060000000048
11
371.4378959999999665
21
-189.2650150000000053
0
LINE
8
BLACK
6
CONTINUOUS
10
376.9096499999999992
20
-186.5714669999999842
11
381.3906059999999911
21
-185.7004579999999976
0
LINE
8
BLACK
6
CONTINUOUS
10
378.1146799999999644
20
-182.2114310000000046
11
372.323079000000007
21
-183.3372039999999856
0
LINE
8
BLACK
6
CONTINUOUS
10
381.1086429999999723
20
-181.629462999999987
11
379.5871209999999678
21
-181.9252170000000035
0
LINE
8
BLACK
6
CONTINUOUS
10
381.1525289999999586
20
-181.8552379999999857
11
381.1086429999999723
21
-181.629462999999987
0
LINE
8
BLACK
6
CONTINUOUS
10
381.7860149999999635
20
-185.1142399999999952
11
381.6963339999999789
21
-184.6528749999999945
0
ARC
8
BLACK
10
372.7046889999999735
20
-185.3004530000000045
40
1.9999927426480828
50
-259.00019538
51
-168.99981340
0
ARC
8
BLACK
10
377.3570739999999546
20
-188.8778010000000052
40
2.3493318320450176
50
100.97888691
51
178.47892959
0
ARC
8
BLACK
10
381.2952009999999632
20
-185.2096439999999973
40
0.5000003058119065
50
-78.99995242
51
10.99993509
0
LINE
8
BLACK
6
CONTINUOUS
10
501.2103379999999788
20
-155.8112779999999873
11
502.6245519999999942
21
-157.2254920000000027
0
LINE
8
BLACK
6
CONTINUOUS
10
504.0458359999999516
20
-152.9757799999999861
11
501.2103379999999788
21
-155.8112779999999873
0
LINE
8
BLACK
6
CONTINUOUS
10
505.460049999999967
20
-154.3899940000000015
11
502.6245519999999942
21
-157.2254920000000027
0
LINE
8
BLACK
6
CONTINUOUS
10
242.6798450000000003
20
-209.8965889999999774
11
242.725639000000001
21
-209.6609990000000039
0
LINE
8
BLACK
6
CONTINUOUS
10
243.4220929999999896
20
-206.0780599999999936
11
243.2694439999999929
21
-206.8633609999999976
0
LINE
8
BLACK
6
CONTINUOUS
10
248.8079819999999813
20
-209.2133399999999881
11
253.2889369999999758
21
-210.0843490000000031
0
LINE
8
BLACK
6
CONTINUOUS
10
251.5585639999999898
20
-205.6221960000000024
11
245.7669640000000015
21
-204.496422999999993
0
LINE
8
BLACK
6
CONTINUOUS
10
253.8751549999999781
20
-209.6889400000000023
11
253.9648339999999962
21
-209.2275750000000016
0
LINE
8
BLACK
6
CONTINUOUS
10
254.508640999999983
20
-206.4299379999999928
11
254.5525269999999978
21
-206.2041639999999916
0
LINE
8
BLACK
6
CONTINUOUS
10
254.5525269999999978
20
-206.2041639999999916
11
253.0310049999999933
21
-205.9084100000000035
0
ARC
8
BLACK
10
245.3853519999999833
20
-206.4596839999999816
40
2.0000056946061426
50
79.00020473
51
168.99985634
0
ARC
8
BLACK
10
248.3588599999999929
20
-211.5193459999999845
40
2.3493350206850021
50
78.97893660
51
156.47888690
0
ARC
8
BLACK
10
253.3843409999999778
20
-209.5935350000000028
40
0.5000004966207533
50
-100.99993509
51
-11.00004758
0
LINE
8
BLACK
6
CONTINUOUS
10
462.3537999999999784
20
-232.0677729999999883
11
465.1822269999999548
21
-234.8961999999999932
0
LINE
8
BLACK
6
CONTINUOUS
10
465.1822269999999548
20
-234.8961999999999932
11
467.5156799999999748
21
-232.5627470000000017
0
LINE
8
BLACK
6
CONTINUOUS
10
458.0824719999999957
20
-175.0063329999999837
11
458.0824719999999957
21
-175.8063329999999951
0
LINE
8
BLACK
6
CONTINUOUS
10
458.0824719999999957
20
-178.8963329999999985
11
458.0824719999999957
21
-178.6563329999999894
0
LINE
8
BLACK
6
CONTINUOUS
10
463.967647999999997
20
-177.0563329999999951
11
468.5324719999999843
21
-177.0563329999999951
0
LINE
8
BLACK
6
CONTINUOUS
10
465.9824719999999729
20
-173.0063329999999837
11
460.0824719999999957
21
-173.0063329999999837
0
LINE
8
BLACK
6
CONTINUOUS
10
469.0324719999999843
20
-173.0063329999999837
11
467.4824719999999729
21
-173.0063329999999837
0
LINE
8
BLACK
6
CONTINUOUS
10
469.0324719999999843
20
-173.2363330000000019
11
469.0324719999999843
21
-173.0063329999999837
0
LINE
8
BLACK
6
CONTINUOUS
10
469.0324719999999843
20
-176.5563329999999951
11
469.0324719999999843
21
-176.0863329999999962
0
ARC
8
BLACK
10
460.082476999999983
20
-175.0063379999999995
40
2.0000050000062499
50
90.00014324
51
179.99985676
0
ARC
8
BLACK
10
463.9667819999999665
20
-179.4056649999999991
40
2.3493317156502185
50
89.97887989
51
167.47892704
0
ARC
8
BLACK
10
468.5324709999999868
20
-176.5563319999999976
40
0.500001000001
50
-89.99988541
51
-0.00011459
0
LINE
8
BLACK
6
CONTINUOUS
10
358.7667129999999815
20
-197.5652350000000013
11
360.4247869999999807
21
-198.6836199999999906
0
LINE
8
BLACK
6
CONTINUOUS
10
361.0090769999999907
20
-194.240793999999994
11
358.7667129999999815
21
-197.5652350000000013
0
LINE
8
BLACK
6
CONTINUOUS
10
362.6671519999999873
20
-195.3591799999999807
11
360.4247869999999807
21
-198.6836199999999906
0
LINE
8
BLACK
6
CONTINUOUS
10
283.9667220000000043
20
-212.1048809999999776
11
285.6247960000000035
21
-213.2232659999999953
0
LINE
8
BLACK
6
CONTINUOUS
10
286.2090860000000134
20
-208.7804399999999987
11
283.9667220000000043
21
-212.1048809999999776
0
LINE
8
BLACK
6
CONTINUOUS
10
287.8671610000000101
20
-209.8988259999999855
11
285.6247960000000035
21
-213.2232659999999953
0
LINE
8
BLACK
6
CONTINUOUS
10
192.2949389999999994
20
-219.5093090000000018
11
192.3407330000000002
21
-219.2737189999999998
0
LINE
8
BLACK
6
CONTINUOUS
10
193.0371869999999888
20
-215.6907799999999895
11
192.8845379999999921
21
-216.4760809999999935
0
LINE
8
BLACK
6
CONTINUOUS
10
198.4230759999999805
20
-218.826059999999984
11
202.9040310000000034
21
-219.6970689999999991
0
LINE
8
BLACK
6
CONTINUOUS
10
201.173657999999989
20
-215.2349159999999983
11
195.3820580000000007
21
-214.1091429999999889
0
LINE
8
BLACK
6
CONTINUOUS
10
203.4902489999999773
20
-219.3016599999999983
11
203.5799279999999953
21
-218.8402949999999976
0
LINE
8
BLACK
6
CONTINUOUS
10
204.1237349999999822
20
-216.0426579999999888
11
204.1676209999999969
21
-215.8168839999999875
0
LINE
8
BLACK
6
CONTINUOUS
10
204.1676209999999969
20
-215.8168839999999875
11
202.6460989999999924
21
-215.5211299999999994
0
ARC
8
BLACK
10
195.0004459999999824
20
-216.0724039999999775
40
2.0000056946061426
50
79.00020473
51
168.99985634
0
ARC
8
BLACK
10
197.973953999999992
20
-221.1320659999999805
40
2.3493350206850021
50
78.97893660
51
156.47888690
0
ARC
8
BLACK
10
202.999434999999977
20
-219.2062549999999987
40
0.5000004966207533
50
-100.99993509
51
-11.00004758
0
LINE
8
BLACK
6
CONTINUOUS
10
308.9263619999999833
20
-217.1042640000000006
11
309.079008999999985
21
-217.8895660000000021
0
LINE
8
BLACK
6
CONTINUOUS
10
309.6686090000000036
20
-220.9227939999999819
11
309.6228150000000028
21
-220.6872029999999825
0
LINE
8
BLACK
6
CONTINUOUS
10
315.0945689999999786
20
-217.9936549999999897
11
319.5755249999999705
21
-217.1226460000000031
0
LINE
8
BLACK
6
CONTINUOUS
10
316.2995990000000006
20
-213.6336189999999817
11
310.5079979999999864
21
-214.7593919999999912
0
LINE
8
BLACK
6
CONTINUOUS
10
319.2935620000000085
20
-213.0516509999999926
11
317.7720400000000041
21
-213.3474049999999806
0
LINE
8
BLACK
6
CONTINUOUS
10
319.3374479999999949
20
-213.2774259999999913
11
319.2935620000000085
21
-213.0516509999999926
0
LINE
8
BLACK
6
CONTINUOUS
10
319.9709339999999997
20
-216.5364280000000008
11
319.8812529999999583
21
-216.0750630000000001
0
ARC
8
BLACK
10
310.8896080000000097
20
-216.7226409999999817
40
1.9999927426480828
50
-259.00019538
51
-168.99981340
0
ARC
8
BLACK
10
315.5419929999999908
20
-220.2999889999999823
40
2.3493318320450176
50
100.97888691
51
178.47892959
0
ARC
8
BLACK
10
319.4801199999999994
20
-216.6318320000000028
40
0.5000003058119065
50
-78.99995242
51
10.99993509
0
LINE
8
BLACK
6
CONTINUOUS
10
496.1824719999999616
20
-251.2063330000000008
11
496.1824719999999616
21
-252.0063329999999837
0
LINE
8
BLACK
6
CONTINUOUS
10
496.1824719999999616
20
-255.0963329999999871
11
496.1824719999999616
21
-254.856332999999978
0
LINE
8
BLACK
6
CONTINUOUS
10
502.0676479999999628
20
-253.2563329999999837
11
506.6324719999999502
21
-253.2563329999999837
0
LINE
8
BLACK
6
CONTINUOUS
10
504.0824719999999957
20
-249.2063330000000008
11
498.1824719999999616
21
-249.2063330000000008
0
LINE
8
BLACK
6
CONTINUOUS
10
507.1324719999999502
20
-249.2063330000000008
11
505.5824719999999957
21
-249.2063330000000008
0
LINE
8
BLACK
6
CONTINUOUS
10
507.1324719999999502
20
-249.4363329999999905
11
507.1324719999999502
21
-249.2063330000000008
0
LINE
8
BLACK
6
CONTINUOUS
10
507.1324719999999502
20
-252.7563329999999837
11
507.1324719999999502
21
-252.2863329999999848
0
ARC
8
BLACK
10
498.1824770000000058
20
-251.2063379999999881
40
2.0000050000062499
50
90.00014324
51
179.99985676
0
ARC
8
BLACK
10
502.0667819999999892
20
-255.6056649999999877
40
2.3493317156502185
50
89.97887989
51
167.47892704
0
ARC
8
BLACK
10
506.6324709999999527
20
-252.7563319999999862
40
0.500001000001
50
-89.99988541
51
-0.00011459
0
LINE
8
BLACK
6
CONTINUOUS
10
460.6289299999999685
20
-214.2185669999999789
11
460.7814329999999927
21
-214.3710700000000031
0
LINE
8
BLACK
6
CONTINUOUS
10
461.1380469999999718
20
-213.7094500000000039
11
461.2905499999999961
21
-213.8619529999999997
0
LINE
8
BLACK
6
CONTINUOUS
10
365.0263549999999668
20
-206.1995299999999816
11
365.1790019999999686
21
-206.9848319999999831
0
LINE
8
BLACK
6
CONTINUOUS
10
365.7686019999999871
20
-210.0180599999999913
11
365.7228079999999864
21
-209.7824689999999919
0
LINE
8
BLACK
6
CONTINUOUS
10
371.1945619999999622
20
-207.0889209999999991
11
375.6755180000000109
21
-206.2179119999999841
0
LINE
8
BLACK
6
CONTINUOUS
10
372.3995919999999842
20
-202.7288849999999911
11
366.60799099999997
21
-203.8546580000000006
0
LINE
8
BLACK
6
CONTINUOUS
10
375.3935549999999921
20
-202.146917000000002
11
373.8720329999999876
21
-202.44267099999999
0
LINE
8
BLACK
6
CONTINUOUS
10
375.4374409999999784
20
-202.3726920000000007
11
375.3935549999999921
21
-202.146917000000002
0
LINE
8
BLACK
6
CONTINUOUS
10
376.0709269999999833
20
-205.6316939999999818
11
375.9812459999999987
21
-205.1703289999999811
0
ARC
8
BLACK
10
366.9896009999999933
20
-205.8179069999999911
40
1.9999927426480828
50
-259.00019538
51
-168.99981340
0
ARC
8
BLACK
10
371.6419859999999744
20
-209.3952549999999917
40
2.3493318320450176
50
100.97888691
51
178.47892959
0
ARC
8
BLACK
10
375.580112999999983
20
-205.7270979999999838
40
0.5000003058119065
50
-78.99995242
51
10.99993509
0
LINE
8
BLACK
6
CONTINUOUS
10
196.1828979999999945
20
-225.8577519999999765
11
197.3012829999999838
21
-227.5158259999999757
0
LINE
8
BLACK
6
CONTINUOUS
10
199.5073380000000043
20
-223.6153869999999984
11
196.1828979999999945
21
-225.8577519999999765
0
LINE
8
BLACK
6
CONTINUOUS
10
200.6257239999999911
20
-225.273461999999995
11
197.3012829999999838
21
-227.5158259999999757
0
LINE
8
BLACK
6
CONTINUOUS
10
410.4490309999999909
20
-226.3323159999999916
11
412.10710499999999
21
-227.4507009999999809
0
LINE
8
BLACK
6
CONTINUOUS
10
412.691395
20
-223.0078749999999843
11
410.4490309999999909
21
-226.3323159999999916
0
LINE
8
BLACK
6
CONTINUOUS
10
414.3494699999999966
20
-224.1262609999999995
11
412.10710499999999
21
-227.4507009999999809
0
LINE
8
BLACK
6
CONTINUOUS
10
463.1103379999999561
20
-155.8112779999999873
11
464.5245519999999715
21
-157.2254920000000027
0
LINE
8
BLACK
6
CONTINUOUS
10
465.9458359999999857
20
-152.9757799999999861
11
463.1103379999999561
21
-155.8112779999999873
0
LINE
8
BLACK
6
CONTINUOUS
10
467.3600500000000011
20
-154.3899940000000015
11
464.5245519999999715
21
-157.2254920000000027
0
LINE
8
BLACK
6
CONTINUOUS
10
139.8201839999999834
20
-166.3855669999999805
11
140.9385690000000011
21
-168.0436409999999796
0
LINE
8
BLACK
6
CONTINUOUS
10
143.1446239999999932
20
-164.1432020000000023
11
139.8201839999999834
21
-166.3855669999999805
0
LINE
8
BLACK
6
CONTINUOUS
10
144.26300999999998
20
-165.8012769999999989
11
140.9385690000000011
21
-168.0436409999999796
0
LINE
8
BLACK
6
CONTINUOUS
10
456.6094799999999623
20
-220.6765709999999956
11
457.2594799999999964
21
-220.6765709999999956
0
LINE
8
BLACK
6
CONTINUOUS
10
456.6094799999999623
20
-221.3265710000000013
11
456.6094799999999623
21
-220.6765709999999956
0
LINE
8
BLACK
6
CONTINUOUS
10
456.6094799999999623
20
-227.2465709999999888
11
456.6094799999999623
21
-227.8965709999999945
0
LINE
8
BLACK
6
CONTINUOUS
10
456.6094799999999623
20
-227.8965709999999945
11
457.2594799999999964
21
-227.8965709999999945
0
LINE
8
BLACK
6
CONTINUOUS
10
463.5294799999999782
20
-220.6765709999999956
11
463.1794799999999555
21
-220.6765709999999956
0
LINE
8
BLACK
6
CONTINUOUS
10
463.8294799999999896
20
-220.9165709999999763
11
463.8294799999999896
21
-221.3265710000000013
0
LINE
8
BLACK
6
CONTINUOUS
10
463.8294799999999896
20
-227.2465709999999888
11
463.8294799999999896
21
-227.8965709999999945
0
LINE
8
BLACK
6
CONTINUOUS
10
463.8294799999999896
20
-227.8965709999999945
11
463.1794799999999555
21
-227.8965709999999945
0
LINE
8
BLACK
6
CONTINUOUS
10
464.0803539999999998
20
-220.2887339999999767
11
464.0835149999999771
21
-220.288234999999986
0
LINE
8
BLACK
6
CONTINUOUS
10
464.0835149999999771
20
-220.288234999999986
11
464.0856489999999894
21
-220.2897869999999898
0
LINE
8
BLACK
6
CONTINUOUS
10
464.0856489999999894
20
-220.2897869999999898
11
464.0924409999999511
21
-220.2911379999999895
0
LINE
8
BLACK
6
CONTINUOUS
10
464.0924409999999511
20
-220.2911379999999895
11
464.1055999999999813
21
-220.3042969999999912
0
LINE
8
BLACK
6
CONTINUOUS
10
464.1055999999999813
20
-220.3042969999999912
11
464.1206530000000043
21
-220.315244999999976
0
LINE
8
BLACK
6
CONTINUOUS
10
464.1206530000000043
20
-220.315244999999976
11
464.1214219999999955
21
-220.3201189999999769
0
LINE
8
BLACK
6
CONTINUOUS
10
464.1214219999999955
20
-220.3201189999999769
11
464.1249129999999923
21
-220.3236100000000022
0
LINE
8
BLACK
6
CONTINUOUS
10
464.1249129999999923
20
-220.3236100000000022
11
464.1249129999999923
21
-220.3422219999999925
0
LINE
8
BLACK
6
CONTINUOUS
10
464.1249129999999923
20
-220.3422219999999925
11
464.1278159999999957
21
-220.36060599999999
0
LINE
8
BLACK
6
CONTINUOUS
10
464.1278159999999957
20
-220.36060599999999
11
464.1249129999999923
21
-220.3668940000000021
0
LINE
8
BLACK
6
CONTINUOUS
10
464.1249129999999923
20
-220.3668940000000021
11
464.1249129999999923
21
-220.3695319999999924
0
LINE
8
BLACK
6
CONTINUOUS
10
464.1249129999999923
20
-220.3695319999999924
11
464.1226509999999621
21
-220.3717929999999967
0
LINE
8
BLACK
6
CONTINUOUS
10
464.1226509999999621
20
-220.3717929999999967
11
464.1180039999999849
21
-220.3818609999999865
0
LINE
8
BLACK
6
CONTINUOUS
10
464.1180039999999849
20
-220.3818609999999865
11
463.8780039999999758
21
-220.711860999999999
0
LINE
8
BLACK
6
CONTINUOUS
10
463.8780039999999758
20
-220.711860999999999
11
463.8608059999999682
21
-220.7277449999999988
0
LINE
8
BLACK
6
CONTINUOUS
10
463.8608059999999682
20
-220.7277449999999988
11
463.8512979999999857
21
-220.7292459999999892
0
LINE
8
BLACK
6
CONTINUOUS
10
463.8512979999999857
20
-220.7292459999999892
11
463.843514999999968
21
-220.7349069999999926
0
LINE
8
BLACK
6
CONTINUOUS
10
463.843514999999968
20
-220.7349069999999926
11
463.8294799999999896
21
-220.732689999999991
0
LINE
8
BLACK
6
CONTINUOUS
10
463.8294799999999896
20
-220.732689999999991
11
463.8154449999999542
21
-220.7349069999999926
0
LINE
8
BLACK
6
CONTINUOUS
10
463.8154449999999542
20
-220.7349069999999926
11
463.807659000000001
21
-220.7292449999999917
0
LINE
8
BLACK
6
CONTINUOUS
10
463.807659000000001
20
-220.7292449999999917
11
463.7981539999999541
21
-220.7277440000000013
0
LINE
8
BLACK
6
CONTINUOUS
10
463.7981539999999541
20
-220.7277440000000013
11
463.7809560000000033
21
-220.711860999999999
0
LINE
8
BLACK
6
CONTINUOUS
10
463.7809560000000033
20
-220.711860999999999
11
463.5409559999999942
21
-220.3818609999999865
0
LINE
8
BLACK
6
CONTINUOUS
10
463.5409559999999942
20
-220.3818609999999865
11
463.5363079999999627
21
-220.3717929999999967
0
LINE
8
BLACK
6
CONTINUOUS
10
463.5363079999999627
20
-220.3717929999999967
11
463.5340469999999868
21
-220.3695319999999924
0
LINE
8
BLACK
6
CONTINUOUS
10
463.5340469999999868
20
-220.3695319999999924
11
463.5340469999999868
21
-220.3668940000000021
0
LINE
8
BLACK
6
CONTINUOUS
10
463.5340469999999868
20
-220.3668940000000021
11
463.5311439999999834
21
-220.36060599999999
0
LINE
8
BLACK
6
CONTINUOUS
10
463.5311439999999834
20
-220.36060599999999
11
463.5340469999999868
21
-220.3422190000000001
0
LINE
8
BLACK
6
CONTINUOUS
10
463.5340469999999868
20
-220.3422190000000001
11
463.5340469999999868
21
-220.3236100000000022
0
LINE
8
BLACK
6
CONTINUOUS
10
463.5340469999999868
20
-220.3236100000000022
11
463.5375359999999887
21
-220.3201200000000028
0
LINE
8
BLACK
6
CONTINUOUS
10
463.5375359999999887
20
-220.3201200000000028
11
463.5383059999999773
21
-220.315244999999976
0
LINE
8
BLACK
6
CONTINUOUS
10
463.5383059999999773
20
-220.315244999999976
11
463.5533609999999953
21
-220.3042949999999962
0
LINE
8
BLACK
6
CONTINUOUS
10
463.5533609999999953
20
-220.3042949999999962
11
463.5665189999999711
21
-220.2911379999999895
0
LINE
8
BLACK
6
CONTINUOUS
10
463.5665189999999711
20
-220.2911379999999895
11
463.5733099999999922
21
-220.2897869999999898
0
LINE
8
BLACK
6
CONTINUOUS
10
463.5733099999999922
20
-220.2897869999999898
11
463.575445000000002
21
-220.288234999999986
0
LINE
8
BLACK
6
CONTINUOUS
10
463.575445000000002
20
-220.288234999999986
11
463.5786049999999818
21
-220.2887329999999793
0
LINE
8
BLACK
6
CONTINUOUS
10
463.5786049999999818
20
-220.2887329999999793
11
463.5894799999999805
21
-220.2865709999999808
0
LINE
8
BLACK
6
CONTINUOUS
10
463.5894799999999805
20
-220.2865709999999808
11
464.0694799999999987
21
-220.2865709999999808
0
LINE
8
BLACK
6
CONTINUOUS
10
464.0694799999999987
20
-220.2865709999999808
11
464.0803539999999998
21
-220.2887339999999767
0
LINE
8
BLACK
6
CONTINUOUS
10
186.5798509999999908
20
-198.9918549999999868
11
186.6256449999999916
21
-198.7562649999999849
0
LINE
8
BLACK
6
CONTINUOUS
10
187.3220989999999802
20
-195.173326000000003
11
187.1694499999999834
21
-195.9586269999999786
0
LINE
8
BLACK
6
CONTINUOUS
10
192.7079880000000003
20
-198.3086059999999975
11
197.1889429999999948
21
-199.1796149999999841
0
LINE
8
BLACK
6
CONTINUOUS
10
195.4585699999999804
20
-194.7174619999999834
11
189.6669699999999921
21
-193.5916890000000024
0
LINE
8
BLACK
6
CONTINUOUS
10
197.7751609999999971
20
-198.7842059999999833
11
197.8648399999999867
21
-198.3228409999999826
0
LINE
8
BLACK
6
CONTINUOUS
10
198.408647000000002
20
-195.5252040000000022
11
198.4525329999999883
21
-195.299430000000001
0
LINE
8
BLACK
6
CONTINUOUS
10
198.4525329999999883
20
-195.299430000000001
11
196.9310109999999838
21
-195.0036759999999845
0
ARC
8
BLACK
10
189.2853580000000022
20
-195.554949999999991
40
2.0000056946061426
50
79.00020473
51
168.99985634
0
ARC
8
BLACK
10
192.2588659999999834
20
-200.6146119999999939
40
2.3493350206850021
50
78.97893660
51
156.47888690
0
ARC
8
BLACK
10
197.2843469999999968
20
-198.6888009999999838
40
0.5000004966207533
50
-100.99993509
51
-11.00004758
0
LINE
8
BLACK
6
CONTINUOUS
10
482.1603379999999675
20
-203.4362779999999873
11
483.5745519999999829
21
-204.8504920000000027
0
LINE
8
BLACK
6
CONTINUOUS
10
484.9958359999999971
20
-200.6007799999999861
11
482.1603379999999675
21
-203.4362779999999873
0
LINE
8
BLACK
6
CONTINUOUS
10
486.4100499999999556
20
-202.0149940000000015
11
483.5745519999999829
21
-204.8504920000000027
0
LINE
8
BLACK
6
CONTINUOUS
10
385.2810879999999543
20
-260.4820679999999697
11
385.433734999999956
21
-261.2673699999999712
0
LINE
8
BLACK
6
CONTINUOUS
10
386.0233349999999746
20
-264.3005979999999795
11
385.9775409999999738
21
-264.0650069999999801
0
LINE
8
BLACK
6
CONTINUOUS
10
391.4492950000000064
20
-261.3714590000000157
11
395.9302509999999984
21
-260.5004500000000007
0
LINE
8
BLACK
6
CONTINUOUS
10
392.6543249999999716
20
-257.0114229999999793
11
386.8627239999999574
21
-258.1371959999999603
0
LINE
8
BLACK
6
CONTINUOUS
10
395.6482879999999795
20
-256.4294549999999617
11
394.1267659999999751
21
-256.7252090000000067
0
LINE
8
BLACK
6
CONTINUOUS
10
395.6921739999999659
20
-256.6552299999999605
11
395.6482879999999795
21
-256.4294549999999617
0
LINE
8
BLACK
6
CONTINUOUS
10
396.3256599999999708
20
-259.91423199999997
11
396.2359789999999862
21
-259.4528669999999693
0
ARC
8
BLACK
10
387.2443339999999807
20
-260.1004449999999792
40
1.9999927426480828
50
-259.00019538
51
-168.99981340
0
ARC
8
BLACK
10
391.8967189999999619
20
-263.6777930000000083
40
2.3493318320450176
50
100.97888691
51
178.47892959
0
ARC
8
BLACK
10
395.8348459999999704
20
-260.0096360000000004
40
0.5000003058119065
50
-78.99995242
51
10.99993509
0
LINE
8
BLACK
6
CONTINUOUS
10
209.9451760000000036
20
-180.0164849999999888
11
211.0635609999999929
21
-181.6745589999999879
0
LINE
8
BLACK
6
CONTINUOUS
10
213.269615999999985
20
-177.7741199999999822
11
209.9451760000000036
21
-180.0164849999999888
0
LINE
8
BLACK
6
CONTINUOUS
10
214.3880020000000002
20
-179.4321949999999788
11
211.0635609999999929
21
-181.6745589999999879
0
LINE
8
BLACK
6
CONTINUOUS
10
296.951631999999961
20
-228.9874229999999784
11
298.6097059999999601
21
-230.1058079999999961
0
LINE
8
BLACK
6
CONTINUOUS
10
299.1939959999999701
20
-225.6629819999999995
11
296.951631999999961
21
-228.9874229999999784
0
LINE
8
BLACK
6
CONTINUOUS
10
300.8520709999999667
20
-226.7813679999999863
11
298.6097059999999601
21
-230.1058079999999961
0
LINE
8
BLACK
6
CONTINUOUS
10
450.4691589999999906
20
-216.7052599999999813
11
450.7503209999999854
21
-216.7052599999999813
0
LINE
8
BLACK
6
CONTINUOUS
10
450.4691589999999906
20
-217.7252599999999916
11
450.7503209999999854
21
-217.7252599999999916
0
LINE
8
BLACK
6
CONTINUOUS
10
240.3380689999999902
20
-273.2537540000000149
11
241.4564539999999795
21
-274.9118280000000141
0
LINE
8
BLACK
6
CONTINUOUS
10
243.662509
20
-271.0113890000000083
11
240.3380689999999902
21
-273.2537540000000149
0
LINE
8
BLACK
6
CONTINUOUS
10
244.7808949999999868
20
-272.6694640000000049
11
241.4564539999999795
21
-274.9118280000000141
0
LINE
8
BLACK
6
CONTINUOUS
10
501.2103379999999788
20
-260.586277999999993
11
502.6245519999999942
21
-262.0004920000000084
0
LINE
8
BLACK
6
CONTINUOUS
10
504.0458359999999516
20
-257.7507799999999634
11
501.2103379999999788
21
-260.586277999999993
0
LINE
8
BLACK
6
CONTINUOUS
10
505.460049999999967
20
-259.1649939999999788
11
502.6245519999999942
21
-262.0004920000000084
0
LINE
8
BLACK
6
CONTINUOUS
10
191.2451779999999815
20
-176.3815740000000005
11
192.3635629999999992
21
-178.0396479999999997
0
LINE
8
BLACK
6
CONTINUOUS
10
194.5696179999999913
20
-174.1392089999999939
11
191.2451779999999815
21
-176.3815740000000005
0
LINE
8
BLACK
6
CONTINUOUS
10
195.6880039999999781
20
-175.7972839999999906
11
192.3635629999999992
21
-178.0396479999999997
0
LINE
8
BLACK
6
CONTINUOUS
10
496.1824719999999616
20
-194.0563329999999951
11
496.1824719999999616
21
-194.856332999999978
0
LINE
8
BLACK
6
CONTINUOUS
10
496.1824719999999616
20
-197.9463329999999814
11
496.1824719999999616
21
-197.7063330000000008
0
LINE
8
BLACK
6
CONTINUOUS
10
502.0676479999999628
20
-196.106332999999978
11
506.6324719999999502
21
-196.106332999999978
0
LINE
8
BLACK
6
CONTINUOUS
10
504.0824719999999957
20
-192.0563329999999951
11
498.1824719999999616
21
-192.0563329999999951
0
LINE
8
BLACK
6
CONTINUOUS
10
507.1324719999999502
20
-192.0563329999999951
11
505.5824719999999957
21
-192.0563329999999951
0
LINE
8
BLACK
6
CONTINUOUS
10
507.1324719999999502
20
-192.2863329999999848
11
507.1324719999999502
21
-192.0563329999999951
0
LINE
8
BLACK
6
CONTINUOUS
10
507.1324719999999502
20
-195.606332999999978
11
507.1324719999999502
21
-195.1363329999999792
0
ARC
8
BLACK
10
498.1824770000000058
20
-194.0563379999999825
40
2.0000050000062499
50
90.00014324
51
179.99985676
0
ARC
8
BLACK
10
502.0667819999999892
20
-198.455664999999982
40
2.3493317156502185
50
89.97887989
51
167.47892704
0
ARC
8
BLACK
10
506.6324709999999527
20
-195.6063319999999806
40
0.500001000001
50
-89.99988541
51
-0.00011459
0
LINE
8
BLACK
6
CONTINUOUS
10
193.3350269999999966
20
-239.1180339999999944
11
193.3808209999999974
21
-238.8824439999999925
0
LINE
8
BLACK
6
CONTINUOUS
10
194.077274999999986
20
-235.2995049999999821
11
193.9246259999999893
21
-236.0848059999999862
0
LINE
8
BLACK
6
CONTINUOUS
10
199.4631639999999777
20
-238.4347849999999767
11
203.9441190000000006
21
-239.3057939999999917
0
LINE
8
BLACK
6
CONTINUOUS
10
202.2137459999999862
20
-234.843640999999991
11
196.4221459999999979
21
-233.7178679999999815
0
LINE
8
BLACK
6
CONTINUOUS
10
204.5303370000000029
20
-238.9103849999999909
11
204.6200159999999926
21
-238.4490199999999902
0
LINE
8
BLACK
6
CONTINUOUS
10
205.1638229999999794
20
-235.6513829999999814
11
205.2077089999999941
21
-235.4256089999999801
0
LINE
8
BLACK
6
CONTINUOUS
10
205.2077089999999941
20
-235.4256089999999801
11
203.6861869999999897
21
-235.1298549999999921
0
ARC
8
BLACK
10
196.0405339999999796
20
-235.6811289999999985
40
2.0000056946061426
50
79.00020473
51
168.99985634
0
ARC
8
BLACK
10
199.0140419999999892
20
-240.7407910000000015
40
2.3493350206850021
50
78.97893660
51
156.47888690
0
ARC
8
BLACK
10
204.0395230000000026
20
-238.8149799999999914
40
0.5000004966207533
50
-100.99993509
51
-11.00004758
0
LINE
8
BLACK
6
CONTINUOUS
10
221.638071999999994
20
-269.6188419999999724
11
222.7564569999999833
21
-271.2769159999999715
0
LINE
8
BLACK
6
CONTINUOUS
10
224.9625120000000038
20
-267.3764769999999658
11
221.638071999999994
21
-269.6188419999999724
0
LINE
8
BLACK
6
CONTINUOUS
10
226.0808979999999906
20
-269.0345519999999624
11
222.7564569999999833
21
-271.2769159999999715
0
LINE
8
BLACK
6
CONTINUOUS
10
365.2890759999999659
20
-157.6320790000000045
11
365.4417229999999677
21
-158.417381000000006
0
LINE
8
BLACK
6
CONTINUOUS
10
366.0313229999999862
20
-161.4506089999999858
11
365.9855289999999854
21
-161.2150179999999864
0
LINE
8
BLACK
6
CONTINUOUS
10
371.4572829999999612
20
-158.5214699999999937
11
375.93823900000001
21
-157.6504610000000071
0
LINE
8
BLACK
6
CONTINUOUS
10
372.6623129999999833
20
-154.1614339999999856
11
366.8707119999999691
21
-155.2872069999999951
0
LINE
8
BLACK
6
CONTINUOUS
10
375.6562759999999912
20
-153.5794659999999965
11
374.1347539999999867
21
-153.8752199999999846
0
LINE
8
BLACK
6
CONTINUOUS
10
375.7001619999999775
20
-153.8052409999999952
11
375.6562759999999912
21
-153.5794659999999965
0
LINE
8
BLACK
6
CONTINUOUS
10
376.3336479999999824
20
-157.0642430000000047
11
376.2439669999999978
21
-156.602878000000004
0
ARC
8
BLACK
10
367.2523219999999924
20
-157.2504559999999856
40
1.9999927426480828
50
-259.00019538
51
-168.99981340
0
ARC
8
BLACK
10
371.9047069999999735
20
-160.8278039999999862
40
2.3493318320450176
50
100.97888691
51
178.47892959
0
ARC
8
BLACK
10
375.8428339999999821
20
-157.1596470000000068
40
0.5000003058119065
50
-78.99995242
51
10.99993509
0
LINE
8
BLACK
6
CONTINUOUS
10
165.0277069999999924
20
-272.4287549999999669
11
165.0735009999999932
21
-272.1931649999999649
0
LINE
8
BLACK
6
CONTINUOUS
10
165.7699549999999817
20
-268.6102260000000115
11
165.617305999999985
21
-269.3955270000000155
0
LINE
8
BLACK
6
CONTINUOUS
10
171.1558440000000019
20
-271.7455059999999776
11
175.6367989999999963
21
-272.6165149999999926
0
LINE
8
BLACK
6
CONTINUOUS
10
173.906425999999982
20
-268.1543619999999919
11
168.1148259999999937
21
-267.0285890000000109
0
LINE
8
BLACK
6
CONTINUOUS
10
176.2230169999999987
20
-272.2211059999999634
11
176.3126959999999883
21
-271.7597409999999627
0
LINE
8
BLACK
6
CONTINUOUS
10
176.8565030000000036
20
-268.9621040000000107
11
176.9003889999999899
21
-268.7363300000000095
0
LINE
8
BLACK
6
CONTINUOUS
10
176.9003889999999899
20
-268.7363300000000095
11
175.3788669999999854
21
-268.4405759999999646
0
ARC
8
BLACK
10
167.7332140000000038
20
-268.9918499999999995
40
2.0000056946061426
50
79.00020473
51
168.99985634
0
ARC
8
BLACK
10
170.706721999999985
20
-274.0515120000000024
40
2.3493350206850021
50
78.97893660
51
156.47888690
0
ARC
8
BLACK
10
175.7322029999999984
20
-272.1257009999999923
40
0.5000004966207533
50
-100.99993509
51
-11.00004758
0
LINE
8
BLACK
6
CONTINUOUS
10
352.0414450000000102
20
-189.3169879999999807
11
352.1940920000000119
21
-190.1022899999999822
0
LINE
8
BLACK
6
CONTINUOUS
10
352.7836919999999736
20
-193.1355179999999905
11
352.7378979999999729
21
-192.899926999999991
0
LINE
8
BLACK
6
CONTINUOUS
10
358.2096520000000055
20
-190.2063789999999983
11
362.6906079999999974
21
-189.3353699999999833
0
LINE
8
BLACK
6
CONTINUOUS
10
359.4146819999999707
20
-185.8463429999999903
11
353.6230809999999565
21
-186.9721159999999998
0
LINE
8
BLACK
6
CONTINUOUS
10
362.4086449999999786
20
-185.2643750000000011
11
360.8871229999999741
21
-185.5601289999999892
0
LINE
8
BLACK
6
CONTINUOUS
10
362.4525309999999649
20
-185.4901499999999999
11
362.4086449999999786
21
-185.2643750000000011
0
LINE
8
BLACK
6
CONTINUOUS
10
363.0860169999999698
20
-188.7491519999999809
11
362.9963359999999852
21
-188.2877869999999803
0
ARC
8
BLACK
10
354.0046909999999798
20
-188.9353649999999902
40
1.9999927426480828
50
-259.00019538
51
-168.99981340
0
ARC
8
BLACK
10
358.6570759999999609
20
-192.5127129999999909
40
2.3493318320450176
50
100.97888691
51
178.47892959
0
ARC
8
BLACK
10
362.5952029999999695
20
-188.844555999999983
40
0.5000003058119065
50
-78.99995242
51
10.99993509
0
LINE
8
BLACK
6
CONTINUOUS
10
446.2847399999999993
20
-231.0902600000000007
11
446.2847399999999993
21
-233.0902600000000007
0
LINE
8
BLACK
6
CONTINUOUS
10
447.7847399999999993
20
-229.3402600000000007
11
447.3347399999999539
21
-229.7902599999999893
0
LINE
8
BLACK
6
CONTINUOUS
10
447.7847399999999993
20
-234.8402600000000007
11
447.3347399999999539
21
-234.3902599999999836
0
LINE
8
BLACK
6
CONTINUOUS
10
450.2847399999999993
20
-229.3402600000000007
11
447.7847399999999993
21
-229.3402600000000007
0
LINE
8
BLACK
6
CONTINUOUS
10
450.2847399999999993
20
-229.3402600000000007
11
450.734739999999988
21
-229.7902599999999893
0
LINE
8
BLACK
6
CONTINUOUS
10
450.2847399999999993
20
-234.8402600000000007
11
447.7847399999999993
21
-234.8402600000000007
0
LINE
8
BLACK
6
CONTINUOUS
10
450.2847399999999993
20
-234.8402600000000007
11
450.734739999999988
21
-234.3902599999999836
0
LINE
8
BLACK
6
CONTINUOUS
10
451.7847399999999993
20
-231.0902600000000007
11
451.7847399999999993
21
-233.0902600000000007
0
LINE
8
BLACK
6
CONTINUOUS
10
279.8362769999999955
20
-242.1653570000000002
11
279.9889239999999972
21
-242.9506590000000017
0
LINE
8
BLACK
6
CONTINUOUS
10
280.578523999999959
20
-245.9838869999999815
11
280.532730000000015
21
-245.7482959999999821
0
LINE
8
BLACK
6
CONTINUOUS
10
286.0044839999999908
20
-243.0547479999999894
11
290.4854399999999828
21
-242.1837390000000028
0
LINE
8
BLACK
6
CONTINUOUS
10
287.2095140000000129
20
-238.6947119999999813
11
281.4179129999999986
21
-239.8204849999999908
0
LINE
8
BLACK
6
CONTINUOUS
10
290.2034769999999639
20
-238.1127439999999922
11
288.6819549999999595
21
-238.4084979999999803
0
LINE
8
BLACK
6
CONTINUOUS
10
290.2473630000000071
20
-238.3385189999999909
11
290.2034769999999639
21
-238.1127439999999922
0
LINE
8
BLACK
6
CONTINUOUS
10
290.880849000000012
20
-241.5975210000000004
11
290.7911679999999706
21
-241.1361559999999997
0
ARC
8
BLACK
10
281.7995229999999651
20
-241.7837339999999813
40
1.9999927426480828
50
-259.00019538
51
-168.99981340
0
ARC
8
BLACK
10
286.4519080000000031
20
-245.3610819999999819
40
2.3493318320450176
50
100.97888691
51
178.47892959
0
ARC
8
BLACK
10
290.3900350000000117
20
-241.6929250000000025
40
0.5000003058119065
50
-78.99995242
51
10.99993509
0
LINE
8
BLACK
6
CONTINUOUS
10
135.1505819999999858
20
-252.8073770000000025
11
136.2689670000000035
21
-254.4654510000000016
0
LINE
8
BLACK
6
CONTINUOUS
10
138.4750219999999956
20
-250.5650119999999959
11
135.1505819999999858
21
-252.8073770000000025
0
LINE
8
BLACK
6
CONTINUOUS
10
139.5934079999999824
20
-252.2230869999999925
11
136.2689670000000035
21
-254.4654510000000016
0
LINE
8
BLACK
6
CONTINUOUS
10
317.2362729999999829
20
-234.8955339999999978
11
317.3889199999999846
21
-235.6808359999999993
0
LINE
8
BLACK
6
CONTINUOUS
10
317.9785200000000032
20
-238.7140639999999792
11
317.9327260000000024
21
-238.4784729999999797
0
LINE
8
BLACK
6
CONTINUOUS
10
323.4044799999999782
20
-235.784924999999987
11
327.8854359999999701
21
-234.9139160000000004
0
LINE
8
BLACK
6
CONTINUOUS
10
324.6095100000000002
20
-231.424888999999979
11
318.817908999999986
21
-232.5506619999999884
0
LINE
8
BLACK
6
CONTINUOUS
10
327.6034730000000081
20
-230.8429209999999898
11
326.0819510000000037
21
-231.1386749999999779
0
LINE
8
BLACK
6
CONTINUOUS
10
327.6473589999999945
20
-231.0686959999999885
11
327.6034730000000081
21
-230.8429209999999898
0
LINE
8
BLACK
6
CONTINUOUS
10
328.2808449999999993
20
-234.327697999999998
11
328.1911639999999579
21
-233.8663329999999974
0
ARC
8
BLACK
10
319.1995190000000093
20
-234.5139109999999789
40
1.9999927426480828
50
-259.00019538
51
-168.99981340
0
ARC
8
BLACK
10
323.8519039999999904
20
-238.0912589999999796
40
2.3493318320450176
50
100.97888691
51
178.47892959
0
ARC
8
BLACK
10
327.790030999999999
20
-234.4231020000000001
40
0.5000003058119065
50
-78.99995242
51
10.99993509
0
LINE
8
BLACK
6
CONTINUOUS
10
462.8504639999999881
20
-234.1244360000000029
11
463.0677450000000022
21
-234.3417169999999885
0
LINE
8
BLACK
6
CONTINUOUS
10
463.3878649999999766
20
-233.587034999999986
11
463.6051459999999906
21
-233.804316
0
LINE
8
BLACK
6
CONTINUOUS
10
463.1103379999999561
20
-203.4362779999999873
11
464.5245519999999715
21
-204.8504920000000027
0
LINE
8
BLACK
6
CONTINUOUS
10
465.9458359999999857
20
-200.6007799999999861
11
463.1103379999999561
21
-203.4362779999999873
0
LINE
8
BLACK
6
CONTINUOUS
10
467.3600500000000011
20
-202.0149940000000015
11
464.5245519999999715
21
-204.8504920000000027
0
LINE
8
BLACK
6
CONTINUOUS
10
407.1013499999999681
20
-198.0209789999999828
11
407.2539969999999698
21
-198.8062809999999843
0
LINE
8
BLACK
6
CONTINUOUS
10
407.8435969999999884
20
-201.8395089999999925
11
407.7978029999999876
21
-201.6039179999999931
0
LINE
8
BLACK
6
CONTINUOUS
10
413.2695569999999634
20
-198.9103700000000003
11
417.7505129999999554
21
-198.0393609999999853
0
LINE
8
BLACK
6
CONTINUOUS
10
414.4745869999999854
20
-194.5503339999999923
11
408.6829859999999712
21
-195.6761070000000018
0
LINE
8
BLACK
6
CONTINUOUS
10
417.4685499999999934
20
-193.9683660000000032
11
415.9470279999999889
21
-194.2641199999999913
0
LINE
8
BLACK
6
CONTINUOUS
10
417.5124359999999797
20
-194.1941410000000019
11
417.4685499999999934
21
-193.9683660000000032
0
LINE
8
BLACK
6
CONTINUOUS
10
418.1459219999999846
20
-197.453142999999983
11
418.056241
21
-196.9917779999999823
0
ARC
8
BLACK
10
409.0645959999999945
20
-197.6393559999999923
40
1.9999927426480828
50
-259.00019538
51
-168.99981340
0
ARC
8
BLACK
10
413.7169809999999757
20
-201.2167039999999929
40
2.3493318320450176
50
100.97888691
51
178.47892959
0
ARC
8
BLACK
10
417.6551079999999843
20
-197.548546999999985
40
0.5000003058119065
50
-78.99995242
51
10.99993509
0
LINE
8
BLACK
6
CONTINUOUS
10
262.4390879999999697
20
-177.6240919999999903
11
262.5917349999999715
21
-178.4093939999999918
0
LINE
8
BLACK
6
CONTINUOUS
10
263.18133499999999
20
-181.4426220000000001
11
263.1355409999999893
21
-181.2070310000000006
0
LINE
8
BLACK
6
CONTINUOUS
10
268.6072949999999651
20
-178.5134829999999795
11
273.0882510000000138
21
-177.6424739999999929
0
LINE
8
BLACK
6
CONTINUOUS
10
269.8123249999999871
20
-174.1534469999999999
11
264.0207239999999729
21
-175.2792199999999809
0
LINE
8
BLACK
6
CONTINUOUS
10
272.806287999999995
20
-173.5714789999999823
11
271.2847659999999905
21
-173.8672329999999988
0
LINE
8
BLACK
6
CONTINUOUS
10
272.8501739999999813
20
-173.797253999999981
11
272.806287999999995
21
-173.5714789999999823
0
LINE
8
BLACK
6
CONTINUOUS
10
273.4836599999999862
20
-177.0562559999999905
11
273.3939790000000016
21
-176.5948909999999898
0
ARC
8
BLACK
10
264.4023339999999962
20
-177.2424689999999998
40
1.9999927426480828
50
-259.00019538
51
-168.99981340
0
ARC
8
BLACK
10
269.0547189999999773
20
-180.8198170000000005
40
2.3493318320450176
50
100.97888691
51
178.47892959
0
ARC
8
BLACK
10
272.9928459999999859
20
-177.1516599999999926
40
0.5000003058119065
50
-78.99995242
51
10.99993509
0
LINE
8
BLACK
6
CONTINUOUS
10
460.0997399999999971
20
-230.9480959999999925
11
460.0997399999999971
21
-230.7324239999999804
0
LINE
8
BLACK
6
CONTINUOUS
10
460.8197399999999675
20
-230.9480959999999925
11
460.8197399999999675
21
-230.7324239999999804
0
LINE
8
BLACK
6
CONTINUOUS
10
141.6527089999999873
20
-267.8851159999999823
11
141.6985029999999881
21
-267.6495259999999803
0
LINE
8
BLACK
6
CONTINUOUS
10
142.3949570000000051
20
-264.06658699999997
11
142.24230799999998
21
-264.851887999999974
0
LINE
8
BLACK
6
CONTINUOUS
10
147.7808459999999968
20
-267.2018669999999929
11
152.2618009999999913
21
-268.0728760000000079
0
LINE
8
BLACK
6
CONTINUOUS
10
150.5314280000000053
20
-263.6107230000000072
11
144.7398279999999886
21
-262.4849499999999694
0
LINE
8
BLACK
6
CONTINUOUS
10
152.8480189999999936
20
-267.6774669999999787
11
152.9376979999999833
21
-267.216101999999978
0
LINE
8
BLACK
6
CONTINUOUS
10
153.4815049999999985
20
-264.4184649999999692
11
153.5253909999999848
21
-264.192690999999968
0
LINE
8
BLACK
6
CONTINUOUS
10
153.5253909999999848
20
-264.192690999999968
11
152.0038689999999804
21
-263.8969369999999799
0
ARC
8
BLACK
10
144.3582159999999988
20
-264.4482110000000148
40
2.0000056946061426
50
79.00020473
51
168.99985634
0
ARC
8
BLACK
10
147.3317239999999799
20
-269.5078729999999609
40
2.3493350206850021
50
78.97893660
51
156.47888690
0
ARC
8
BLACK
10
152.3572049999999933
20
-267.5820620000000076
40
0.5000004966207533
50
-100.99993509
51
-11.00004758
0
LINE
8
BLACK
6
CONTINUOUS
10
302.6667190000000005
20
-208.4699689999999919
11
304.3247929999999997
21
-209.5883539999999812
0
LINE
8
BLACK
6
CONTINUOUS
10
304.9090830000000096
20
-205.1455279999999846
11
302.6667190000000005
21
-208.4699689999999919
0
LINE
8
BLACK
6
CONTINUOUS
10
306.5671580000000063
20
-206.2639139999999998
11
304.3247929999999997
21
-209.5883539999999812
0
LINE
8
BLACK
6
CONTINUOUS
10
135.4079049999999995
20
-214.0442899999999895
11
136.5262899999999888
21
-215.7023639999999887
0
LINE
8
BLACK
6
CONTINUOUS
10
138.7323449999999809
20
-211.8019249999999829
11
135.4079049999999995
21
-214.0442899999999895
0
LINE
8
BLACK
6
CONTINUOUS
10
139.8507309999999961
20
-213.4599999999999795
11
136.5262899999999888
21
-215.7023639999999887
0
LINE
8
BLACK
6
CONTINUOUS
10
482.1603379999999675
20
-260.586277999999993
11
483.5745519999999829
21
-262.0004920000000084
0
LINE
8
BLACK
6
CONTINUOUS
10
484.9958359999999971
20
-257.7507799999999634
11
482.1603379999999675
21
-260.586277999999993
0
LINE
8
BLACK
6
CONTINUOUS
10
486.4100499999999556
20
-259.1649939999999788
11
483.5745519999999829
21
-262.0004920000000084
0
LINE
8
BLACK
6
CONTINUOUS
10
230.735022999999984
20
-246.3878569999999968
11
230.7808169999999848
21
-246.1522669999999948
0
LINE
8
BLACK
6
CONTINUOUS
10
231.4772710000000018
20
-242.5693279999999845
11
231.3246219999999767
21
-243.3546289999999885
0
LINE
8
BLACK
6
CONTINUOUS
10
236.8631599999999935
20
-245.704607999999979
11
241.344114999999988
21
-246.5756169999999941
0
LINE
8
BLACK
6
CONTINUOUS
10
239.613742000000002
20
-242.1134639999999933
11
233.8221419999999853
21
-240.9876909999999839
0
LINE
8
BLACK
6
CONTINUOUS
10
241.9303329999999903
20
-246.1802079999999933
11
242.0200119999999799
21
-245.7188429999999926
0
LINE
8
BLACK
6
CONTINUOUS
10
242.5638189999999952
20
-242.9212059999999838
11
242.6077049999999815
21
-242.6954319999999825
0
LINE
8
BLACK
6
CONTINUOUS
10
242.6077049999999815
20
-242.6954319999999825
11
241.086182999999977
21
-242.3996779999999944
0
ARC
8
BLACK
10
233.4405299999999954
20
-242.9509520000000009
40
2.0000056946061426
50
79.00020473
51
168.99985634
0
ARC
8
BLACK
10
236.4140379999999766
20
-248.0106139999999755
40
2.3493350206850021
50
78.97893660
51
156.47888690
0
ARC
8
BLACK
10
241.43951899999999
20
-246.0848029999999937
40
0.5000004966207533
50
-100.99993509
51
-11.00004758
0
LINE
8
BLACK
6
CONTINUOUS
10
145.5406689999999799
20
-274.2335590000000138
11
146.6590539999999976
21
-275.891633000000013
0
LINE
8
BLACK
6
CONTINUOUS
10
148.8651089999999897
20
-271.9911940000000072
11
145.5406689999999799
21
-274.2335590000000138
0
LINE
8
BLACK
6
CONTINUOUS
10
149.9834950000000049
20
-273.6492690000000039
11
146.6590539999999976
21
-275.891633000000013
0
LINE
8
BLACK
6
CONTINUOUS
10
325.2643489999999815
20
-174.9676049999999918
11
326.9224229999999807
21
-176.0859899999999811
0
LINE
8
BLACK
6
CONTINUOUS
10
327.5067129999999906
20
-171.6431639999999845
11
325.2643489999999815
21
-174.9676049999999918
0
LINE
8
BLACK
6
CONTINUOUS
10
329.1647879999999873
20
-172.7615499999999997
11
326.9224229999999807
21
-176.0859899999999811
0
LINE
8
BLACK
6
CONTINUOUS
10
274.1211890000000153
20
-262.6828099999999608
11
274.2738359999999602
21
-263.4681119999999623
0
LINE
8
BLACK
6
CONTINUOUS
10
274.8634359999999788
20
-266.5013399999999706
11
274.817641999999978
21
-266.2657489999999711
0
LINE
8
BLACK
6
CONTINUOUS
10
280.2893960000000106
20
-263.5722010000000068
11
284.7703520000000026
21
-262.7011919999999918
0
LINE
8
BLACK
6
CONTINUOUS
10
281.4944259999999758
20
-259.2121649999999704
11
275.7028249999999616
21
-260.3379380000000083
0
LINE
8
BLACK
6
CONTINUOUS
10
284.4883889999999838
20
-258.6301970000000097
11
282.9668669999999793
21
-258.9259509999999977
0
LINE
8
BLACK
6
CONTINUOUS
10
284.5322749999999701
20
-258.8559720000000084
11
284.4883889999999838
21
-258.6301970000000097
0
LINE
8
BLACK
6
CONTINUOUS
10
285.165760999999975
20
-262.1149739999999611
11
285.0760799999999904
21
-261.6536089999999604
0
ARC
8
BLACK
10
276.0844349999999849
20
-262.3011869999999703
40
1.9999927426480828
50
-259.00019538
51
-168.99981340
0
ARC
8
BLACK
10
280.7368199999999661
20
-265.8785349999999994
40
2.3493318320450176
50
100.97888691
51
178.47892959
0
ARC
8
BLACK
10
284.6749469999999747
20
-262.2103779999999915
40
0.5000003058119065
50
-78.99995242
51
10.99993509
0
LINE
8
BLACK
6
CONTINUOUS
10
477.1324719999999502
20
-232.1563329999999894
11
477.1324719999999502
21
-232.9563330000000008
0
LINE
8
BLACK
6
CONTINUOUS
10
477.1324719999999502
20
-236.0463329999999758
11
477.1324719999999502
21
-235.8063329999999951
0
LINE
8
BLACK
6
CONTINUOUS
10
483.0176479999999515
20
-234.2063330000000008
11
487.5824719999999957
21
-234.2063330000000008
0
LINE
8
BLACK
6
CONTINUOUS
10
485.0324719999999843
20
-230.1563329999999894
11
479.1324719999999502
21
-230.1563329999999894
0
LINE
8
BLACK
6
CONTINUOUS
10
488.0824719999999957
20
-230.1563329999999894
11
486.5324719999999843
21
-230.1563329999999894
0
LINE
8
BLACK
6
CONTINUOUS
10
488.0824719999999957
20
-230.3863329999999792
11
488.0824719999999957
21
-230.1563329999999894
0
LINE
8
BLACK
6
CONTINUOUS
10
488.0824719999999957
20
-233.7063330000000008
11
488.0824719999999957
21
-233.2363330000000019
0
ARC
8
BLACK
10
479.1324769999999944
20
-232.1563379999999768
40
2.0000050000062499
50
90.00014324
51
179.99985676
0
ARC
8
BLACK
10
483.0167819999999779
20
-236.5556649999999763
40
2.3493317156502185
50
89.97887989
51
167.47892704
0
ARC
8
BLACK
10
487.5824709999999982
20
-233.7063320000000033
40
0.500001000001
50
-89.99988541
51
-0.00011459
0
LINE
8
BLACK
6
CONTINUOUS
10
311.5211850000000027
20
-255.4129869999999869
11
311.6738320000000044
21
-256.1982889999999884
0
LINE
8
BLACK
6
CONTINUOUS
10
312.2634319999999661
20
-259.2315169999999966
11
312.2176379999999654
21
-258.9959259999999972
0
LINE
8
BLACK
6
CONTINUOUS
10
317.689391999999998
20
-256.3023779999999761
11
322.17034799999999
21
-255.4313689999999895
0
LINE
8
BLACK
6
CONTINUOUS
10
318.8944219999999632
20
-251.9423419999999965
11
313.1028210000000058
21
-253.0681149999999775
0
LINE
8
BLACK
6
CONTINUOUS
10
321.8883849999999711
20
-251.3603739999999789
11
320.3668629999999666
21
-251.6561279999999954
0
LINE
8
BLACK
6
CONTINUOUS
10
321.9322709999999574
20
-251.5861489999999776
11
321.8883849999999711
21
-251.3603739999999789
0
LINE
8
BLACK
6
CONTINUOUS
10
322.5657569999999623
20
-254.8451509999999871
11
322.4760759999999777
21
-254.3837859999999864
0
ARC
8
BLACK
10
313.4844309999999723
20
-255.0313639999999964
40
1.9999927426480828
50
-259.00019538
51
-168.99981340
0
ARC
8
BLACK
10
318.1368160000000103
20
-258.6087119999999686
40
2.3493318320450176
50
100.97888691
51
178.47892959
0
ARC
8
BLACK
10
322.074942999999962
20
-254.9405549999999891
40
0.5000003058119065
50
-78.99995242
51
10.99993509
0
LINE
8
BLACK
6
CONTINUOUS
10
206.3156620000000032
20
-286.0470209999999724
11
207.4340469999999925
21
-287.7050949999999716
0
LINE
8
BLACK
6
CONTINUOUS
10
209.6401019999999846
20
-283.8046559999999658
11
206.3156620000000032
21
-286.0470209999999724
0
LINE
8
BLACK
6
CONTINUOUS
10
210.7584879999999998
20
-285.4627309999999625
11
207.4340469999999925
21
-287.7050949999999716
0
LINE
8
BLACK
6
CONTINUOUS
10
190.4678109999999833
20
-205.34029799999999
11
191.586196000000001
21
-206.9983719999999892
0
LINE
8
BLACK
6
CONTINUOUS
10
193.7922509999999932
20
-203.0979329999999834
11
190.4678109999999833
21
-205.34029799999999
0
LINE
8
BLACK
6
CONTINUOUS
10
194.9106369999999799
20
-204.75600799999998
11
191.586196000000001
21
-206.9983719999999892
0
LINE
8
BLACK
6
CONTINUOUS
10
299.5464549999999804
20
-267.2961459999999647
11
301.2045289999999795
21
-268.4145310000000109
0
LINE
8
BLACK
6
CONTINUOUS
10
301.7888189999999895
20
-263.9717049999999858
11
299.5464549999999804
21
-267.2961459999999647
0
LINE
8
BLACK
6
CONTINUOUS
10
303.4468939999999861
20
-265.0900909999999726
11
301.2045289999999795
21
-268.4145310000000109
0
LINE
8
BLACK
6
CONTINUOUS
10
233.5828939999999818
20
-233.1275749999999789
11
234.7012789999999995
21
-234.7856489999999781
0
LINE
8
BLACK
6
CONTINUOUS
10
236.9073339999999916
20
-230.8852100000000007
11
233.5828939999999818
21
-233.1275749999999789
0
LINE
8
BLACK
6
CONTINUOUS
10
238.0257199999999784
20
-232.5432849999999974
11
234.7012789999999995
21
-234.7856489999999781
0
LINE
8
BLACK
6
CONTINUOUS
10
130.222533999999996
20
-226.8502079999999808
11
130.2683279999999968
21
-226.6146179999999788
0
LINE
8
BLACK
6
CONTINUOUS
10
130.9647819999999854
20
-223.0316789999999969
11
130.8121329999999887
21
-223.8169800000000009
0
LINE
8
BLACK
6
CONTINUOUS
10
136.3506710000000055
20
-226.1669589999999914
11
140.831626
21
-227.037967999999978
0
LINE
8
BLACK
6
CONTINUOUS
10
139.1012529999999856
20
-222.5758149999999773
11
133.3096529999999973
21
-221.4500419999999963
0
LINE
8
BLACK
6
CONTINUOUS
10
141.4178440000000023
20
-226.6425589999999772
11
141.507522999999992
21
-226.1811939999999765
0
LINE
8
BLACK
6
CONTINUOUS
10
142.0513300000000072
20
-223.3835569999999962
11
142.0952159999999935
21
-223.1577829999999949
0
LINE
8
BLACK
6
CONTINUOUS
10
142.0952159999999935
20
-223.1577829999999949
11
140.573693999999989
21
-222.8620289999999784
0
ARC
8
BLACK
10
132.9280410000000074
20
-223.4133029999999849
40
2.0000056946061426
50
79.00020473
51
168.99985634
0
ARC
8
BLACK
10
135.9015489999999886
20
-228.4729649999999879
40
2.3493350206850021
50
78.97893660
51
156.47888690
0
ARC
8
BLACK
10
140.927030000000002
20
-226.5471539999999777
40
0.5000004966207533
50
-100.99993509
51
-11.00004758
0
LINE
8
BLACK
6
CONTINUOUS
10
429.2535059999999589
20
-161.9922739999999806
11
430.0535059999999703
21
-161.9922729999999831
0
LINE
8
BLACK
6
CONTINUOUS
10
429.2535059999999589
20
-165.1122739999999851
11
430.0535059999999703
21
-165.1122749999999826
0
LINE
8
BLACK
6
CONTINUOUS
10
430.8535059999999817
20
-161.9922739999999806
11
430.0535059999999703
21
-161.9922729999999831
0
LINE
8
BLACK
6
CONTINUOUS
10
430.8535059999999817
20
-165.1122739999999851
11
430.0535059999999703
21
-165.1122749999999826
0
LINE
8
BLACK
6
CONTINUOUS
10
431.6043799999999919
20
-161.6544370000000015
11
431.6075409999999692
21
-161.6539379999999824
0
LINE
8
BLACK
6
CONTINUOUS
10
431.6075409999999692
20
-161.6539379999999824
11
431.6096749999999815
21
-161.6554899999999861
0
LINE
8
BLACK
6
CONTINUOUS
10
431.6096749999999815
20
-161.6554899999999861
11
431.6164670000000001
21
-161.6568409999999858
0
LINE
8
BLACK
6
CONTINUOUS
10
431.6164670000000001
20
-161.6568409999999858
11
431.6296259999999734
21
-161.6699999999999875
0
LINE
8
BLACK
6
CONTINUOUS
10
431.6296259999999734
20
-161.6699999999999875
11
431.6446789999999964
21
-161.6809480000000008
0
LINE
8
BLACK
6
CONTINUOUS
10
431.6446789999999964
20
-161.6809480000000008
11
431.6454479999999876
21
-161.6858220000000017
0
LINE
8
BLACK
6
CONTINUOUS
10
431.6454479999999876
20
-161.6858220000000017
11
431.6489389999999844
21
-161.6893129999999985
0
LINE
8
BLACK
6
CONTINUOUS
10
431.6489389999999844
20
-161.6893129999999985
11
431.6489389999999844
21
-161.7079249999999888
0
LINE
8
BLACK
6
CONTINUOUS
10
431.6489389999999844
20
-161.7079249999999888
11
431.6518419999999878
21
-161.7263089999999863
0
LINE
8
BLACK
6
CONTINUOUS
10
431.6518419999999878
20
-161.7263089999999863
11
431.6489389999999844
21
-161.7325969999999984
0
LINE
8
BLACK
6
CONTINUOUS
10
431.6489389999999844
20
-161.7325969999999984
11
431.6489389999999844
21
-161.7352349999999888
0
LINE
8
BLACK
6
CONTINUOUS
10
431.6489389999999844
20
-161.7352349999999888
11
431.6466769999999542
21
-161.737495999999993
0
LINE
8
BLACK
6
CONTINUOUS
10
431.6466769999999542
20
-161.737495999999993
11
431.642029999999977
21
-161.7475639999999828
0
LINE
8
BLACK
6
CONTINUOUS
10
431.642029999999977
20
-161.7475639999999828
11
431.4020299999999679
21
-162.0775639999999953
0
LINE
8
BLACK
6
CONTINUOUS
10
431.4020299999999679
20
-162.0775639999999953
11
431.3848319999999603
21
-162.0934479999999951
0
LINE
8
BLACK
6
CONTINUOUS
10
431.3848319999999603
20
-162.0934479999999951
11
431.3753239999999778
21
-162.0949489999999855
0
LINE
8
BLACK
6
CONTINUOUS
10
431.3753239999999778
20
-162.0949489999999855
11
431.3675409999999601
21
-162.100609999999989
0
LINE
8
BLACK
6
CONTINUOUS
10
431.3675409999999601
20
-162.100609999999989
11
431.3535059999999817
21
-162.0983929999999873
0
LINE
8
BLACK
6
CONTINUOUS
10
431.3535059999999817
20
-162.0983929999999873
11
431.3394710000000032
21
-162.100609999999989
0
LINE
8
BLACK
6
CONTINUOUS
10
431.3394710000000032
20
-162.100609999999989
11
431.3316849999999931
21
-162.094947999999988
0
LINE
8
BLACK
6
CONTINUOUS
10
431.3316849999999931
20
-162.094947999999988
11
431.322180000000003
21
-162.0934469999999976
0
LINE
8
BLACK
6
CONTINUOUS
10
431.322180000000003
20
-162.0934469999999976
11
431.3049819999999954
21
-162.0775639999999953
0
LINE
8
BLACK
6
CONTINUOUS
10
431.3049819999999954
20
-162.0775639999999953
11
431.0649819999999863
21
-161.7475639999999828
0
LINE
8
BLACK
6
CONTINUOUS
10
431.0649819999999863
20
-161.7475639999999828
11
431.0603339999999548
21
-161.737495999999993
0
LINE
8
BLACK
6
CONTINUOUS
10
431.0603339999999548
20
-161.737495999999993
11
431.0580729999999789
21
-161.7352349999999888
0
LINE
8
BLACK
6
CONTINUOUS
10
431.0580729999999789
20
-161.7352349999999888
11
431.0580729999999789
21
-161.7325969999999984
0
LINE
8
BLACK
6
CONTINUOUS
10
431.0580729999999789
20
-161.7325969999999984
11
431.0551699999999755
21
-161.7263089999999863
0
LINE
8
BLACK
6
CONTINUOUS
10
431.0551699999999755
20
-161.7263089999999863
11
431.0580729999999789
21
-161.7079219999999964
0
LINE
8
BLACK
6
CONTINUOUS
10
431.0580729999999789
20
-161.7079219999999964
11
431.0580729999999789
21
-161.6893129999999985
0
LINE
8
BLACK
6
CONTINUOUS
10
431.0580729999999789
20
-161.6893129999999985
11
431.0615619999999808
21
-161.6858229999999992
0
LINE
8
BLACK
6
CONTINUOUS
10
431.0615619999999808
20
-161.6858229999999992
11
431.0623319999999694
21
-161.6809480000000008
0
LINE
8
BLACK
6
CONTINUOUS
10
431.0623319999999694
20
-161.6809480000000008
11
431.0773869999999874
21
-161.6699979999999925
0
LINE
8
BLACK
6
CONTINUOUS
10
431.0773869999999874
20
-161.6699979999999925
11
431.0905449999999632
21
-161.6568409999999858
0
LINE
8
BLACK
6
CONTINUOUS
10
431.0905449999999632
20
-161.6568409999999858
11
431.0973359999999843
21
-161.6554899999999861
0
LINE
8
BLACK
6
CONTINUOUS
10
431.0973359999999843
20
-161.6554899999999861
11
431.0994709999999941
21
-161.6539379999999824
0
LINE
8
BLACK
6
CONTINUOUS
10
431.0994709999999941
20
-161.6539379999999824
11
431.1026309999999739
21
-161.654436000000004
0
LINE
8
BLACK
6
CONTINUOUS
10
431.1026309999999739
20
-161.654436000000004
11
431.1135059999999726
21
-161.6522740000000056
0
LINE
8
BLACK
6
CONTINUOUS
10
431.1135059999999726
20
-161.6522740000000056
11
431.5935059999999908
21
-161.6522740000000056
0
LINE
8
BLACK
6
CONTINUOUS
10
431.5935059999999908
20
-161.6522740000000056
11
431.6043799999999919
21
-161.6544370000000015
0
LINE
8
BLACK
6
CONTINUOUS
10
422.6810839999999985
20
-253.2122449999999958
11
422.8337310000000002
21
-253.9975469999999973
0
LINE
8
BLACK
6
CONTINUOUS
10
423.4233309999999619
20
-257.0307750000000055
11
423.3775369999999612
21
-256.7951840000000061
0
LINE
8
BLACK
6
CONTINUOUS
10
428.8492909999999938
20
-254.101635999999985
11
433.3302469999999857
21
-253.2306269999999984
0
LINE
8
BLACK
6
CONTINUOUS
10
430.054320999999959
20
-249.7415999999999769
11
424.2627200000000016
21
-250.8673729999999864
0
LINE
8
BLACK
6
CONTINUOUS
10
433.0482839999999669
20
-249.1596319999999878
11
431.5267619999999624
21
-249.4553859999999759
0
LINE
8
BLACK
6
CONTINUOUS
10
433.0921699999999532
20
-249.3854069999999865
11
433.0482839999999669
21
-249.1596319999999878
0
LINE
8
BLACK
6
CONTINUOUS
10
433.7256559999999581
20
-252.644408999999996
11
433.6359749999999735
21
-252.1830439999999953
0
ARC
8
BLACK
10
424.6443299999999681
20
-252.8306219999999769
40
1.9999927426480828
50
-259.00019538
51
-168.99981340
0
ARC
8
BLACK
10
429.2967150000000061
20
-256.4079699999999775
40
2.3493318320450176
50
100.97888691
51
178.47892959
0
ARC
8
BLACK
10
433.2348419999999578
20
-252.7398129999999981
40
0.5000003058119065
50
-78.99995242
51
10.99993509
0
LINE
8
BLACK
6
CONTINUOUS
10
153.067814999999996
20
-198.0704759999999851
11
154.1861999999999853
21
-199.7285499999999843
0
LINE
8
BLACK
6
CONTINUOUS
10
156.3922550000000058
20
-195.8281109999999785
11
153.067814999999996
21
-198.0704759999999851
0
LINE
8
BLACK
6
CONTINUOUS
10
157.5106409999999926
20
-197.4861860000000036
11
154.1861999999999853
21
-199.7285499999999843
0
CIRCLE
8
BLACK
10
341.8097399999999766
20
-181.1963109999999801
40
1.5
0
CIRCLE
8
BLACK
10
442.8097399999999766
20
-176.7963110000000029
40
3.
0
CIRCLE
8
BLACK
10
261.2097400000000107
20
-249.3963109999999972
40
2.9410879999999997
0
CIRCLE
8
BLACK
10
258.109739999999988
20
-229.4963109999999915
40
1.5
0
CIRCLE
8
BLACK
10
115.5097399999999936
20
-252.7963109999999745
40
1.5
0
CIRCLE
8
BLACK
10
187.7097399999999823
20
-276.3963109999999688
40
1.5
0
CIRCLE
8
BLACK
10
259.0097399999999652
20
-287.3963109999999688
40
1.5
0
CIRCLE
8
BLACK
10
447.2097399999999539
20
-255.1963109999999801
40
1.5
0
CIRCLE
8
BLACK
10
504.109739999999988
20
-226.2963110000000029
40
1.5
0
CIRCLE
8
BLACK
10
503.8097399999999766
20
-165.4963109999999915
40
1.5
0
CIRCLE
8
BLACK
10
425.9097399999999993
20
-147.6963109999999801
40
1.5
0
CIRCLE
8
BLACK
10
133.5097399999999936
20
-175.1963109999999801
40
1.5
0
CIRCLE
8
BLACK
10
250.5097399999999936
20
-183.0963109999999858
40
1.5
0
CIRCLE
8
BLACK
10
158.109739999999988
20
-165.1963109999999801
40
1.5
0
LINE
8
BLACK
6
CONTINUOUS
10
518.2097400000000107
20
-265.4963109999999915
11
518.2097400000000107
21
-266.8963109999999688
0
ARC
8
BLACK
10
258.3736000000000104
20
-271.009900000000016
40
37.0000541361826762
50
-100.89687657
51
-78.99323421
0
ARC
8
BLACK
10
130.9673999999999978
20
-147.7609999999999957
40
4.9999702920698441
50
78.97952744
51
169.04569094
0
LINE
8
BLACK
6
CONTINUOUS
10
518.2097400000000107
20
-141.6963109999999801
11
518.2097400000000107
21
-265.4963109999999915
0
ARC
8
BLACK
10
513.209699999999998
20
-138.6963000000000079
40
4.9999890001600003
50
-0.00012605
51
89.99954163
0
LINE
8
BLACK
6
CONTINUOUS
10
108.8097399999999908
20
-279.8963109999999688
11
105.5097569999999934
21
-279.2524119999999925
0
ARC
8
BLACK
10
256.4200000000000159
20
-102.9147999999999996
40
62.9999824303914835
50
-101.02010710
51
-78.99821129
0
LINE
8
BLACK
6
CONTINUOUS
10
441.6514259999999581
20
-273.0552220000000148
11
265.4378320000000144
21
-307.329324999999983
0
LINE
8
BLACK
6
CONTINUOUS
10
431.7730070000000069
20
-133.6963109999999801
11
513.2097400000000107
21
-133.6963109999999801
0
LINE
8
BLACK
6
CONTINUOUS
10
424.7119609999999739
20
-134.3763219999999876
11
268.442893999999967
21
-164.7569199999999796
0
ARC
8
BLACK
10
431.7729999999999677
20
-170.6962999999999795
40
36.9999874821601153
50
89.99998916
51
101.00174878
0
ARC
8
BLACK
10
513.209699999999998
20
-266.8962999999999965
40
5.0000400000120999
50
-89.99954163
51
-0.00012605
0
LINE
8
BLACK
6
CONTINUOUS
10
101.558409999999995
20
-273.3948499999999626
11
126.0585339999999945
21
-146.8108749999999816
0
LINE
8
BLACK
6
CONTINUOUS
10
513.2097400000000107
20
-271.8963109999999688
11
511.8097399999999766
21
-271.8963109999999688
0
LINE
8
BLACK
6
CONTINUOUS
10
518.2097400000000107
20
-141.6963109999999801
11
518.2097400000000107
21
-138.6963109999999801
0
ARC
8
BLACK
10
106.4672999999999945
20
-274.3449999999999704
40
4.9999581132838502
50
-190.95453806
51
-101.04093113
0
ARC
8
BLACK
10
453.6796999999999684
20
-334.8962999999999965
40
62.9999865366744274
50
89.99998727
51
101.00677251
0
LINE
8
BLACK
6
CONTINUOUS
10
244.3773369999999829
20
-164.7530610000000024
11
131.9232030000000009
21
-142.8531830000000014
0
LINE
8
BLACK
6
CONTINUOUS
10
251.3790389999999775
20
-307.3428069999999934
11
108.8097399999999908
21
-279.8963109999999688
0
LINE
8
BLACK
6
CONTINUOUS
10
511.8097399999999766
20
-271.8963109999999688
11
453.6797139999999899
21
-271.8963109999999688
  0
ENDSEC
  0
EOF
