  0
SECTION
  2
HEADER
  9
$ANGBASE
  50
0.0
  9
$ANGDIR
  70
1
  9
$MEASUREMENT
  70
1
  0
ENDSEC
  0
SECTION
  2
TABLES
  0
TABLE
  2
LTYPE
  70
4
  0
LTYPE
  5
40F
  2
CONTINUOUS
  70
0
  3
Solid line
  72
65
  73
0
  40
0.0
  0
LTYPE
  5
410
  2
DASHDOT
 70
0
  3
Dash Dot ____ _ ____ _
 72
65
 73
4
 40
2.0
 49
1.25
 49
-0.25
 49
0.25
 49
-0.25
  0
LTYPE
  5
411
  2
DASHED
 70
0
  3
Dashed __ __ __ __ __
 72
65
 73
2
 40
0.75
 49
0.5
 49
-0.25
  0
LTYPE
  5
43B
  2
DOTTED
 70
0
  3
Dotted .  .  .  .
 72
65
 73
2
 40
0.2
 49
0.0
 49
-0.2
  0
ENDTAB
  0
TABLE
  2
STYLE
  70
4
  0
STYLE
  2
KICAD
  70
0
  40
0
  41
1
  42
1
  50
0
  71
0
  3
isocp.shx
  0
STYLE
  2
KICADB
  70
0
  40
0
  41
1
  42
1
  50
0
  71
0
  3
isocp.shx
  0
STYLE
  2
KICADI
  70
0
  40
0
  41
1
  42
1
  50
15
  71
0
  3
isocp.shx
  0
STYLE
  2
KICADBI
  70
0
  40
0
  41
1
  42
1
  50
15
  71
0
  3
isocp.shx
  0
ENDTAB
  0
TABLE
  2
LAYER
  70
1
  0
LAYER
  2
BLACK
  70
0
  62
7
  6
CONTINUOUS
  0
ENDTAB
  0
ENDSEC
  0
SECTION
  2
ENTITIES
0
CIRCLE
8
BLACK
10
341.8097399999999766
20
-181.1963109999999801
40
1.5
0
CIRCLE
8
BLACK
10
442.8097399999999766
20
-176.7963110000000029
40
3.
0
CIRCLE
8
BLACK
10
261.2097400000000107
20
-249.3963109999999972
40
2.9410879999999997
0
CIRCLE
8
BLACK
10
258.109739999999988
20
-229.4963109999999915
40
1.5
0
CIRCLE
8
BLACK
10
115.5097399999999936
20
-252.7963109999999745
40
1.5
0
CIRCLE
8
BLACK
10
187.7097399999999823
20
-276.3963109999999688
40
1.5
0
CIRCLE
8
BLACK
10
259.0097399999999652
20
-287.3963109999999688
40
1.5
0
CIRCLE
8
BLACK
10
447.2097399999999539
20
-255.1963109999999801
40
1.5
0
CIRCLE
8
BLACK
10
504.109739999999988
20
-226.2963110000000029
40
1.5
0
CIRCLE
8
BLACK
10
503.8097399999999766
20
-165.4963109999999915
40
1.5
0
CIRCLE
8
BLACK
10
425.9097399999999993
20
-147.6963109999999801
40
1.5
0
CIRCLE
8
BLACK
10
133.5097399999999936
20
-175.1963109999999801
40
1.5
0
CIRCLE
8
BLACK
10
250.5097399999999936
20
-183.0963109999999858
40
1.5
0
CIRCLE
8
BLACK
10
158.109739999999988
20
-165.1963109999999801
40
1.5
0
LINE
8
BLACK
6
CONTINUOUS
10
518.2097400000000107
20
-265.4963109999999915
11
518.2097400000000107
21
-266.8963109999999688
0
ARC
8
BLACK
10
258.3736000000000104
20
-271.009900000000016
40
37.0000541361826762
50
-100.89687657
51
-78.99323421
0
ARC
8
BLACK
10
130.9673999999999978
20
-147.7609999999999957
40
4.9999702920698441
50
78.97952744
51
169.04569094
0
LINE
8
BLACK
6
CONTINUOUS
10
518.2097400000000107
20
-141.6963109999999801
11
518.2097400000000107
21
-265.4963109999999915
0
ARC
8
BLACK
10
513.209699999999998
20
-138.6963000000000079
40
4.9999890001600003
50
-0.00012605
51
89.99954163
0
LINE
8
BLACK
6
CONTINUOUS
10
108.8097399999999908
20
-279.8963109999999688
11
105.5097569999999934
21
-279.2524119999999925
0
ARC
8
BLACK
10
256.4200000000000159
20
-102.9147999999999996
40
62.9999824303914835
50
-101.02010710
51
-78.99821129
0
LINE
8
BLACK
6
CONTINUOUS
10
441.6514259999999581
20
-273.0552220000000148
11
265.4378320000000144
21
-307.329324999999983
0
LINE
8
BLACK
6
CONTINUOUS
10
431.7730070000000069
20
-133.6963109999999801
11
513.2097400000000107
21
-133.6963109999999801
0
LINE
8
BLACK
6
CONTINUOUS
10
424.7119609999999739
20
-134.3763219999999876
11
268.442893999999967
21
-164.7569199999999796
0
ARC
8
BLACK
10
431.7729999999999677
20
-170.6962999999999795
40
36.9999874821601153
50
89.99998916
51
101.00174878
0
ARC
8
BLACK
10
513.209699999999998
20
-266.8962999999999965
40
5.0000400000120999
50
-89.99954163
51
-0.00012605
0
LINE
8
BLACK
6
CONTINUOUS
10
101.558409999999995
20
-273.3948499999999626
11
126.0585339999999945
21
-146.8108749999999816
0
LINE
8
BLACK
6
CONTINUOUS
10
513.2097400000000107
20
-271.8963109999999688
11
511.8097399999999766
21
-271.8963109999999688
0
LINE
8
BLACK
6
CONTINUOUS
10
518.2097400000000107
20
-141.6963109999999801
11
518.2097400000000107
21
-138.6963109999999801
0
ARC
8
BLACK
10
106.4672999999999945
20
-274.3449999999999704
40
4.9999581132838502
50
-190.95453806
51
-101.04093113
0
ARC
8
BLACK
10
453.6796999999999684
20
-334.8962999999999965
40
62.9999865366744274
50
89.99998727
51
101.00677251
0
LINE
8
BLACK
6
CONTINUOUS
10
244.3773369999999829
20
-164.7530610000000024
11
131.9232030000000009
21
-142.8531830000000014
0
LINE
8
BLACK
6
CONTINUOUS
10
251.3790389999999775
20
-307.3428069999999934
11
108.8097399999999908
21
-279.8963109999999688
0
LINE
8
BLACK
6
CONTINUOUS
10
511.8097399999999766
20
-271.8963109999999688
11
453.6797139999999899
21
-271.8963109999999688
  0
ENDSEC
  0
EOF
