  0
SECTION
  2
HEADER
  9
$ANGBASE
  50
0.0
  9
$ANGDIR
  70
1
  9
$MEASUREMENT
  70
1
  0
ENDSEC
  0
SECTION
  2
TABLES
  0
TABLE
  2
LTYPE
  70
4
  0
LTYPE
  5
40F
  2
CONTINUOUS
  70
0
  3
Solid line
  72
65
  73
0
  40
0.0
  0
LTYPE
  5
410
  2
DASHDOT
 70
0
  3
Dash Dot ____ _ ____ _
 72
65
 73
4
 40
2.0
 49
1.25
 49
-0.25
 49
0.25
 49
-0.25
  0
LTYPE
  5
411
  2
DASHED
 70
0
  3
Dashed __ __ __ __ __
 72
65
 73
2
 40
0.75
 49
0.5
 49
-0.25
  0
LTYPE
  5
43B
  2
DOTTED
 70
0
  3
Dotted .  .  .  .
 72
65
 73
2
 40
0.2
 49
0.0
 49
-0.2
  0
ENDTAB
  0
TABLE
  2
STYLE
  70
4
  0
STYLE
  2
KICAD
  70
0
  40
0
  41
1
  42
1
  50
0
  71
0
  3
isocp.shx
  0
STYLE
  2
KICADB
  70
0
  40
0
  41
1
  42
1
  50
0
  71
0
  3
isocp.shx
  0
STYLE
  2
KICADI
  70
0
  40
0
  41
1
  42
1
  50
15
  71
0
  3
isocp.shx
  0
STYLE
  2
KICADBI
  70
0
  40
0
  41
1
  42
1
  50
15
  71
0
  3
isocp.shx
  0
ENDTAB
  0
TABLE
  2
LAYER
  70
1
  0
LAYER
  2
BLACK
  70
0
  62
7
  6
CONTINUOUS
  0
ENDTAB
  0
ENDSEC
  0
SECTION
  2
ENTITIES
0
LINE
8
BLACK
6
CONTINUOUS
10
396.6536699999999769
20
-229.9004249999999843
11
394.1719640000000027
21
-217.1395029999999906
0
LINE
8
BLACK
6
CONTINUOUS
10
400.2117289999999912
20
-215.4561329999999941
11
394.567372999999975
21
-216.5532849999999883
0
LINE
8
BLACK
6
CONTINUOUS
10
402.8830549999999562
20
-229.198914000000002
11
397.2398880000000077
21
-230.2958349999999825
0
LINE
8
BLACK
6
CONTINUOUS
10
403.2784639999999854
20
-228.6126959999999997
11
400.7979469999999651
21
-215.8515409999999974
0
LINE
8
BLACK
6
CONTINUOUS
10
420.0274779999999737
20
-225.3570169999999848
11
417.5469609999999534
21
-212.5958639999999775
0
LINE
8
BLACK
6
CONTINUOUS
10
423.5867269999999962
20
-210.912493999999981
11
417.9423699999999826
21
-212.0096460000000036
0
LINE
8
BLACK
6
CONTINUOUS
10
426.2580529999999612
20
-224.6552749999999889
11
420.6136960000000045
21
-225.7524259999999856
0
LINE
8
BLACK
6
CONTINUOUS
10
426.6534619999999904
20
-224.0690569999999866
11
424.1729449999999702
21
-211.3079029999999818
0
ARC
8
BLACK
10
394.6628269999999929
20
-217.0440899999999829
40
0.5000501228257024
50
-258.99424383
51
-169.00012391
0
ARC
8
BLACK
10
397.1445219999999949
20
-229.8050139999999999
40
0.4999999279969948
50
-169.00010837
51
-79.00449244
0
ARC
8
BLACK
10
400.3070849999999723
20
-215.9469569999999976
40
0.5000009657110674
50
11.00023538
51
100.99431711
0
ARC
8
BLACK
10
402.7876979999999776
20
-228.7081330000000037
40
0.4999594860836225
50
-79.00463059
51
11.00469704
0
ARC
8
BLACK
10
418.037776000000008
20
-212.5004600000000039
40
0.5000012874393425
50
-258.99983994
51
-169.00008677
0
ARC
8
BLACK
10
420.5182929999999715
20
-225.2616119999999853
40
0.5000001150049868
50
-168.99997429
51
-79.00017740
0
ARC
8
BLACK
10
423.6821299999999724
20
-211.4033089999999788
40
0.5000010966327973
50
11.00013820
51
100.99980074
0
ARC
8
BLACK
10
426.1626479999999901
20
-224.1644609999999886
40
0.5000003058119065
50
-78.99995242
51
10.99993509
0
LINE
8
BLACK
6
CONTINUOUS
10
291.7235039999999913
20
-289.1098890000000097
11
289.2417990000000145
21
-276.3489669999999592
0
LINE
8
BLACK
6
CONTINUOUS
10
295.281564000000003
20
-274.6655969999999911
11
289.6372079999999869
21
-275.7627489999999852
0
LINE
8
BLACK
6
CONTINUOUS
10
297.952889999999968
20
-288.4083779999999706
11
292.3097239999999601
21
-289.505297999999982
0
LINE
8
BLACK
6
CONTINUOUS
10
298.3482989999999972
20
-287.8221599999999967
11
295.867781999999977
21
-275.0610059999999635
0
LINE
8
BLACK
6
CONTINUOUS
10
329.1223109999999679
20
-281.8402979999999616
11
326.6417940000000044
21
-269.0791439999999852
0
LINE
8
BLACK
6
CONTINUOUS
10
332.6815599999999904
20
-267.3957739999999603
11
327.0372039999999743
21
-268.4929260000000113
0
LINE
8
BLACK
6
CONTINUOUS
10
335.3528860000000122
20
-281.1385549999999967
11
329.7085280000000012
21
-282.2357069999999908
0
LINE
8
BLACK
6
CONTINUOUS
10
335.7482949999999846
20
-280.5523369999999659
11
333.2677779999999643
21
-267.7911829999999895
0
ARC
8
BLACK
10
289.7326130000000148
20
-276.2535629999999855
40
0.5000003058119065
50
-258.99995242
51
-169.00006491
0
ARC
8
BLACK
10
292.2143069999999625
20
-289.0144879999999716
40
0.4999988599877003
50
-169.00016186
51
-78.99851513
0
ARC
8
BLACK
10
295.3769689999999741
20
-275.1564119999999889
40
0.5000014782478148
50
11.00018193
51
101.00002571
0
ARC
8
BLACK
10
297.8574859999999944
20
-287.9175649999999678
40
0.4999995149937647
50
-79.00004305
51
11.00006944
0
ARC
8
BLACK
10
327.1325999999999681
20
-268.9837339999999699
40
0.4999935976950104
50
-259.00083362
51
-168.99921506
0
ARC
8
BLACK
10
329.6131259999999656
20
-281.744891999999993
40
0.5000009058281795
50
-168.99986180
51
-79.00031175
0
ARC
8
BLACK
10
332.776963999999964
20
-267.8865879999999606
40
0.5000003058119065
50
11.00004758
51
100.99993509
0
ARC
8
BLACK
10
335.2574809999999843
20
-280.6477409999999963
40
0.5000003058119065
50
-78.99995242
51
10.99993509
0
LINE
8
BLACK
6
CONTINUOUS
10
391.7213469999999802
20
-192.0460649999999987
11
389.239641000000006
21
-179.285143000000005
0
LINE
8
BLACK
6
CONTINUOUS
10
395.2794059999999945
20
-177.6017729999999801
11
389.6350499999999784
21
-178.6989250000000027
0
LINE
8
BLACK
6
CONTINUOUS
10
397.9507319999999595
20
-191.344553999999988
11
392.3075649999999541
21
-192.441474999999997
0
LINE
8
BLACK
6
CONTINUOUS
10
398.3461409999999887
20
-190.7583359999999857
11
395.8656239999999684
21
-177.9971809999999834
0
LINE
8
BLACK
6
CONTINUOUS
10
415.095154999999977
20
-187.5026569999999992
11
412.6146379999999567
21
-174.7415039999999919
0
LINE
8
BLACK
6
CONTINUOUS
10
418.6544039999999995
20
-173.0581339999999955
11
413.0100469999999859
21
-174.1552859999999896
0
LINE
8
BLACK
6
CONTINUOUS
10
421.3257299999999645
20
-186.8009150000000034
11
415.6813730000000078
21
-187.898066
0
LINE
8
BLACK
6
CONTINUOUS
10
421.7211389999999938
20
-186.214697000000001
11
419.2406219999999735
21
-173.4535429999999963
0
ARC
8
BLACK
10
389.7305039999999963
20
-179.1897299999999973
40
0.5000501228257024
50
-258.99424383
51
-169.00012391
0
ARC
8
BLACK
10
392.2121989999999983
20
-191.9506539999999859
40
0.4999999279969948
50
-169.00010837
51
-79.00449244
0
ARC
8
BLACK
10
395.3747619999999756
20
-178.0925969999999836
40
0.5000009657110674
50
11.00023538
51
100.99431711
0
ARC
8
BLACK
10
397.8553749999999809
20
-190.8537729999999897
40
0.4999594860836225
50
-79.00463059
51
11.00469704
0
ARC
8
BLACK
10
413.1054529999999545
20
-174.6460999999999899
40
0.5000012874393425
50
-258.99983994
51
-169.00008677
0
ARC
8
BLACK
10
415.5859699999999748
20
-187.4072519999999997
40
0.5000001150049868
50
-168.99997429
51
-79.00017740
0
ARC
8
BLACK
10
418.7498069999999757
20
-173.5489489999999932
40
0.5000010966327973
50
11.00013820
51
100.99980074
0
ARC
8
BLACK
10
421.2303249999999935
20
-186.3101010000000031
40
0.5000003058119065
50
-78.99995242
51
10.99993509
0
LINE
8
BLACK
6
CONTINUOUS
10
192.1881869999999992
20
-284.1874789999999962
11
194.6675149999999803
21
-271.4260939999999778
0
LINE
8
BLACK
6
CONTINUOUS
10
198.2267640000000029
20
-285.8706169999999815
11
192.583596
21
-284.7736969999999701
0
LINE
8
BLACK
6
CONTINUOUS
10
198.8129820000000052
20
-285.4752080000000092
11
201.2934989999999971
21
-272.7140549999999735
0
LINE
8
BLACK
6
CONTINUOUS
10
200.8980899999999963
20
-272.1278369999999995
11
195.2537329999999827
21
-271.0306850000000054
0
LINE
8
BLACK
6
CONTINUOUS
10
215.5619959999999935
20
-288.7308869999999956
11
218.0425129999999854
21
-275.969731999999965
0
LINE
8
BLACK
6
CONTINUOUS
10
221.601760999999982
20
-290.4142569999999637
11
215.9574049999999943
21
-289.3171049999999696
0
LINE
8
BLACK
6
CONTINUOUS
10
222.1879789999999844
20
-290.0188469999999938
11
224.6684959999999762
21
-277.257694000000015
0
LINE
8
BLACK
6
CONTINUOUS
10
224.2730870000000039
20
-276.6714759999999842
11
218.6287309999999877
21
-275.5743239999999901
0
ARC
8
BLACK
10
192.6790389999999888
20
-284.2828920000000039
40
0.4999989142728212
50
-191.00011658
51
-101.00451885
0
ARC
8
BLACK
10
195.158377999999999
20
-271.5215089999999805
40
0.5000505044433011
50
79.00579538
51
168.99989896
0
ARC
8
BLACK
10
198.3221999999999809
20
-285.3798519999999712
40
0.4999597366388617
50
-101.00460642
51
-10.99523505
0
ARC
8
BLACK
10
200.8026359999999784
20
-272.6186419999999657
40
0.5000010141399714
50
-10.99987609
51
78.99424383
0
ARC
8
BLACK
10
216.0528070000000014
20
-288.8262929999999642
40
0.4999979609438422
50
-191.00022566
51
-100.99975385
0
ARC
8
BLACK
10
218.5333269999999857
20
-276.0651389999999878
40
0.5000008782442287
50
79.00008677
51
168.99972745
0
ARC
8
BLACK
10
221.697164999999984
20
-289.9234419999999659
40
0.5000004966207533
50
-100.99991323
51
-11.00004758
0
ARC
8
BLACK
10
224.1776809999999784
20
-277.1622899999999845
40
0.5000006874315274
50
-10.99991323
51
78.99983994
0
LINE
8
BLACK
6
CONTINUOUS
10
395.6135809999999537
20
-249.5091499999999769
11
393.1318749999999795
21
-236.7482279999999832
0
LINE
8
BLACK
6
CONTINUOUS
10
399.171639999999968
20
-235.0648579999999868
11
393.5272840000000087
21
-236.1620099999999809
0
LINE
8
BLACK
6
CONTINUOUS
10
401.8429659999999899
20
-248.8076389999999947
11
396.1997989999999845
21
-249.9045599999999752
0
LINE
8
BLACK
6
CONTINUOUS
10
402.2383749999999623
20
-248.2214209999999923
11
399.7578579999999988
21
-235.4602659999999901
0
LINE
8
BLACK
6
CONTINUOUS
10
418.9873890000000074
20
-244.9657419999999775
11
416.5068719999999871
21
-232.2045889999999986
0
LINE
8
BLACK
6
CONTINUOUS
10
422.5466379999999731
20
-230.5212190000000021
11
416.9022809999999595
21
-231.6183709999999962
0
LINE
8
BLACK
6
CONTINUOUS
10
425.2179639999999949
20
-244.2639999999999816
11
419.5736069999999813
21
-245.3611509999999782
0
LINE
8
BLACK
6
CONTINUOUS
10
425.6133729999999673
20
-243.6777819999999792
11
423.1328560000000039
21
-230.9166280000000029
0
ARC
8
BLACK
10
393.6227379999999698
20
-236.6528149999999755
40
0.5000501228257024
50
-258.99424383
51
-169.00012391
0
ARC
8
BLACK
10
396.1044329999999718
20
-249.4137389999999925
40
0.4999999279969948
50
-169.00010837
51
-79.00449244
0
ARC
8
BLACK
10
399.266996000000006
20
-235.5556819999999902
40
0.5000009657110674
50
11.00023538
51
100.99431711
0
ARC
8
BLACK
10
401.7476089999999544
20
-248.3168579999999963
40
0.4999594860836225
50
-79.00463059
51
11.00469704
0
ARC
8
BLACK
10
416.9976869999999849
20
-232.1091849999999965
40
0.5000012874393425
50
-258.99983994
51
-169.00008677
0
ARC
8
BLACK
10
419.4782040000000052
20
-244.8703369999999779
40
0.5000001150049868
50
-168.99997429
51
-79.00017740
0
ARC
8
BLACK
10
422.6420410000000061
20
-231.0120339999999999
40
0.5000010966327973
50
11.00013820
51
100.99980074
0
ARC
8
BLACK
10
425.122558999999967
20
-243.7731859999999813
40
0.5000003058119065
50
-78.99995242
51
10.99993509
0
LINE
8
BLACK
6
CONTINUOUS
10
121.023106999999996
20
-250.9478359999999952
11
123.5024349999999913
21
-238.1864509999999768
0
LINE
8
BLACK
6
CONTINUOUS
10
127.0616839999999996
20
-252.6309739999999806
11
121.4185159999999968
21
-251.5340539999999976
0
LINE
8
BLACK
6
CONTINUOUS
10
127.6479019999999878
20
-252.2355649999999798
11
130.1284190000000081
21
-239.4744120000000009
0
LINE
8
BLACK
6
CONTINUOUS
10
129.7330100000000073
20
-238.8881939999999986
11
124.0886529999999937
21
-237.791041999999976
0
LINE
8
BLACK
6
CONTINUOUS
10
144.3969160000000045
20
-255.4912439999999947
11
146.8774329999999964
21
-242.7300889999999924
0
LINE
8
BLACK
6
CONTINUOUS
10
150.436680999999993
20
-257.1746139999999627
11
144.7923250000000053
21
-256.0774619999999686
0
LINE
8
BLACK
6
CONTINUOUS
10
151.0228989999999953
20
-256.7792039999999929
11
153.5034159999999872
21
-244.0180509999999856
0
LINE
8
BLACK
6
CONTINUOUS
10
153.1080069999999864
20
-243.4318329999999833
11
147.4636509999999987
21
-242.3346809999999891
0
ARC
8
BLACK
10
121.5139589999999998
20
-251.0432489999999746
40
0.4999989142728212
50
-191.00011658
51
-101.00451885
0
ARC
8
BLACK
10
123.9932979999999958
20
-238.2818659999999795
40
0.5000505044433011
50
79.00579538
51
168.99989896
0
ARC
8
BLACK
10
127.1571199999999919
20
-252.1402089999999987
40
0.4999597366388617
50
-101.00460642
51
-10.99523505
0
ARC
8
BLACK
10
129.6375559999999894
20
-239.3789989999999932
40
0.5000010141399714
50
-10.99987609
51
78.99424383
0
ARC
8
BLACK
10
144.8877269999999839
20
-255.5866499999999917
40
0.4999979609438422
50
-191.00022566
51
-100.99975385
0
ARC
8
BLACK
10
147.3682469999999967
20
-242.8254959999999869
40
0.5000008782442287
50
79.00008677
51
168.99972745
0
ARC
8
BLACK
10
150.532084999999995
20
-256.683798999999965
40
0.5000004966207533
50
-100.99991323
51
-11.00004758
0
ARC
8
BLACK
10
153.0126009999999894
20
-243.9226469999999836
40
0.5000006874315274
50
-10.99991323
51
78.99983994
0
LINE
8
BLACK
6
CONTINUOUS
10
154.0280269999999803
20
-239.4848659999999825
11
166.789180999999985
21
-241.9653830000000028
0
LINE
8
BLACK
6
CONTINUOUS
10
156.1131349999999998
20
-226.1374940000000038
11
153.6326179999999795
21
-238.8986479999999801
0
LINE
8
BLACK
6
CONTINUOUS
10
167.3753989999999874
20
-241.569974000000002
11
169.8559159999999792
21
-228.8088199999999972
0
LINE
8
BLACK
6
CONTINUOUS
10
169.4605069999999785
20
-228.2226019999999949
11
156.6993530000000021
21
-225.742085000000003
0
ARC
8
BLACK
10
154.1234319999999798
20
-238.9940519999999822
40
0.5000004966207533
50
-190.99993509
51
-101.00004758
0
ARC
8
BLACK
10
156.6039490000000001
20
-226.2328990000000033
40
0.5000004966207533
50
79.00006491
51
168.99995242
0
ARC
8
BLACK
10
166.8820839999999919
20
-241.4729449999999815
40
0.5000016690582142
50
-100.99991323
51
-11.00013820
0
ARC
8
BLACK
10
169.3651019999999789
20
-228.7134159999999952
40
0.5000004966207533
50
-10.99993509
51
78.99995242
0
LINE
8
BLACK
6
CONTINUOUS
10
166.7502169999999921
20
-174.0348730000000046
11
179.5113709999999969
21
-176.5153899999999965
0
LINE
8
BLACK
6
CONTINUOUS
10
168.8353249999999832
20
-160.6875009999999975
11
166.3548079999999914
21
-173.4486550000000022
0
LINE
8
BLACK
6
CONTINUOUS
10
180.0975889999999993
20
-176.1199809999999957
11
182.5781059999999911
21
-163.3588269999999909
0
LINE
8
BLACK
6
CONTINUOUS
10
182.1826969999999903
20
-162.7726089999999886
11
169.4215429999999856
21
-160.2920919999999967
0
ARC
8
BLACK
10
166.8456219999999917
20
-173.5440590000000043
40
0.5000004966207533
50
-190.99993509
51
-101.00004758
0
ARC
8
BLACK
10
169.3261389999999835
20
-160.782905999999997
40
0.5000004966207533
50
79.00006491
51
168.99995242
0
ARC
8
BLACK
10
179.6042740000000038
20
-176.0229520000000036
40
0.5000016690582142
50
-100.99991323
51
-11.00013820
0
ARC
8
BLACK
10
182.0872919999999908
20
-163.2634229999999889
40
0.5000004966207533
50
-10.99993509
51
78.99995242
0
LINE
8
BLACK
6
CONTINUOUS
10
210.1280209999999897
20
-250.3896000000000015
11
222.8891749999999945
21
-252.8701169999999934
0
LINE
8
BLACK
6
CONTINUOUS
10
212.2131289999999808
20
-237.0422279999999944
11
209.7326119999999889
21
-249.8033819999999992
0
LINE
8
BLACK
6
CONTINUOUS
10
223.4753929999999968
20
-252.4747079999999926
11
225.9559099999999887
21
-239.7135539999999878
0
LINE
8
BLACK
6
CONTINUOUS
10
225.5605009999999879
20
-239.1273359999999855
11
212.7993469999999832
21
-236.6468189999999936
0
ARC
8
BLACK
10
210.2234259999999892
20
-249.8987860000000012
40
0.5000004966207533
50
-190.99993509
51
-101.00004758
0
ARC
8
BLACK
10
212.7039429999999811
20
-237.1376329999999939
40
0.5000004966207533
50
79.00006491
51
168.99995242
0
ARC
8
BLACK
10
222.9820780000000013
20
-252.3776790000000005
40
0.5000016690582142
50
-100.99991323
51
-11.00013820
0
ARC
8
BLACK
10
225.4650959999999884
20
-239.6181499999999858
40
0.5000004966207533
50
-10.99993509
51
78.99995242
0
LINE
8
BLACK
6
CONTINUOUS
10
147.2728520000000003
20
-199.3586859999999774
11
160.0340060000000051
21
-201.8392029999999977
0
LINE
8
BLACK
6
CONTINUOUS
10
149.3579599999999914
20
-186.0113139999999987
11
146.8774429999999995
21
-198.7724680000000035
0
LINE
8
BLACK
6
CONTINUOUS
10
160.620223999999979
20
-201.4437939999999969
11
163.1007409999999993
21
-188.6826399999999921
0
LINE
8
BLACK
6
CONTINUOUS
10
162.7053319999999985
20
-188.0964219999999898
11
149.9441779999999937
21
-185.6159049999999979
0
ARC
8
BLACK
10
147.3682569999999998
20
-198.8678719999999771
40
0.5000004966207533
50
-190.99993509
51
-101.00004758
0
ARC
8
BLACK
10
149.8487739999999917
20
-186.1067189999999982
40
0.5000004966207533
50
79.00006491
51
168.99995242
0
ARC
8
BLACK
10
160.1269089999999835
20
-201.3467650000000049
40
0.5000016690582142
50
-100.99991323
51
-11.00013820
0
ARC
8
BLACK
10
162.609926999999999
20
-188.5872359999999901
40
0.5000004966207533
50
-10.99993509
51
78.99995242
0
LINE
8
BLACK
6
CONTINUOUS
10
276.0095640000000117
20
-202.3135580000000004
11
278.4900809999999751
21
-215.0747119999999768
0
LINE
8
BLACK
6
CONTINUOUS
10
279.0762990000000059
20
-215.4701209999999776
11
291.8374529999999822
21
-212.9896039999999857
0
LINE
8
BLACK
6
CONTINUOUS
10
289.1661269999999604
20
-199.2468229999999778
11
276.404972999999984
21
-201.7273399999999981
0
LINE
8
BLACK
6
CONTINUOUS
10
292.2328620000000114
20
-212.4033859999999834
11
289.7523449999999912
21
-199.6422319999999786
0
ARC
8
BLACK
10
276.500378000000012
20
-202.2181539999999984
40
0.5000003058119065
50
-258.99995242
51
-169.00006491
0
ARC
8
BLACK
10
278.9808949999999754
20
-214.9793069999999773
40
0.5000003058119065
50
-168.99995242
51
-79.00006491
0
ARC
8
BLACK
10
289.2615309999999909
20
-199.7376369999999781
40
0.5000003058119065
50
11.00004758
51
100.99993509
0
ARC
8
BLACK
10
291.7391269999999963
20
-212.4982249999999908
40
0.49999597011376
50
-79.00056175
51
11.00038188
0
LINE
8
BLACK
6
CONTINUOUS
10
234.5431059999999945
20
-274.5419650000000047
11
247.3042599999999993
21
-277.0224819999999681
0
LINE
8
BLACK
6
CONTINUOUS
10
236.6282139999999856
20
-261.1945929999999976
11
234.1476969999999937
21
-273.9557469999999739
0
LINE
8
BLACK
6
CONTINUOUS
10
247.8904780000000017
20
-276.6270729999999958
11
250.3709949999999935
21
-263.8659189999999626
0
LINE
8
BLACK
6
CONTINUOUS
10
249.9755859999999927
20
-263.2797009999999887
11
237.214431999999988
21
-260.7991839999999684
0
ARC
8
BLACK
10
234.6385109999999941
20
-274.0511510000000044
40
0.5000004966207533
50
-190.99993509
51
-101.00004758
0
ARC
8
BLACK
10
237.1190279999999859
20
-261.2899979999999687
40
0.5000004966207533
50
79.00006491
51
168.99995242
0
ARC
8
BLACK
10
247.3971629999999777
20
-276.5300439999999753
40
0.5000016690582142
50
-100.99991323
51
-11.00013820
0
ARC
8
BLACK
10
249.8801809999999932
20
-263.770514999999989
40
0.5000004966207533
50
-10.99993509
51
78.99995242
0
LINE
8
BLACK
6
CONTINUOUS
10
178.4431129999999825
20
-263.6372299999999882
11
191.2042669999999873
21
-266.1177470000000085
0
LINE
8
BLACK
6
CONTINUOUS
10
180.5282210000000021
20
-250.2898579999999811
11
178.0477039999999818
21
-263.0510120000000143
0
LINE
8
BLACK
6
CONTINUOUS
10
191.7904849999999897
20
-265.7223379999999793
11
194.2710019999999815
21
-252.9611839999999745
0
LINE
8
BLACK
6
CONTINUOUS
10
193.8755929999999807
20
-252.3749660000000006
11
181.1144390000000044
21
-249.8944489999999803
0
ARC
8
BLACK
10
178.5385179999999821
20
-263.1464159999999879
40
0.5000004966207533
50
-190.99993509
51
-101.00004758
0
ARC
8
BLACK
10
181.0190350000000024
20
-250.3852629999999806
40
0.5000004966207533
50
79.00006491
51
168.99995242
0
ARC
8
BLACK
10
191.2971699999999942
20
-265.6253090000000157
40
0.5000016690582142
50
-100.99991323
51
-11.00013820
0
ARC
8
BLACK
10
193.7801879999999812
20
-252.8657800000000009
40
0.5000004966207533
50
-10.99993509
51
78.99995242
0
LINE
8
BLACK
6
CONTINUOUS
10
365.3491999999999962
20
-262.5739039999999704
11
367.8297169999999596
21
-275.3350580000000036
0
LINE
8
BLACK
6
CONTINUOUS
10
368.4159349999999904
20
-275.730466999999976
11
381.1770889999999667
21
-273.2499500000000126
0
LINE
8
BLACK
6
CONTINUOUS
10
378.5057630000000017
20
-259.5071689999999762
11
365.7446089999999685
21
-261.9876859999999965
0
LINE
8
BLACK
6
CONTINUOUS
10
381.572497999999996
20
-272.6637319999999818
11
379.0919809999999757
21
-259.9025780000000054
0
ARC
8
BLACK
10
365.8400139999999965
20
-262.4784999999999968
40
0.5000003058119065
50
-258.99995242
51
-169.00006491
0
ARC
8
BLACK
10
368.3205309999999599
20
-275.2396529999999757
40
0.5000003058119065
50
-168.99995242
51
-79.00006491
0
ARC
8
BLACK
10
378.6011669999999754
20
-259.9979829999999765
40
0.5000003058119065
50
11.00004758
51
100.99993509
0
ARC
8
BLACK
10
381.0787629999999808
20
-272.7585709999999608
40
0.49999597011376
50
-79.00056175
51
11.00038188
0
LINE
8
BLACK
6
CONTINUOUS
10
297.3043849999999679
20
-236.9873699999999985
11
299.7849019999999882
21
-249.7485239999999749
0
LINE
8
BLACK
6
CONTINUOUS
10
300.3711199999999621
20
-250.1439329999999757
11
313.1322739999999953
21
-247.6634159999999838
0
LINE
8
BLACK
6
CONTINUOUS
10
310.4609479999999735
20
-233.9206349999999759
11
297.6997939999999971
21
-236.4011519999999962
0
LINE
8
BLACK
6
CONTINUOUS
10
313.5276829999999677
20
-247.0771979999999814
11
311.0471660000000043
21
-234.3160439999999767
0
ARC
8
BLACK
10
297.7951989999999682
20
-236.8919659999999965
40
0.5000003058119065
50
-258.99995242
51
-169.00006491
0
ARC
8
BLACK
10
300.2757159999999885
20
-249.6531189999999754
40
0.5000003058119065
50
-168.99995242
51
-79.00006491
0
ARC
8
BLACK
10
310.556352000000004
20
-234.4114489999999762
40
0.5000003058119065
50
11.00004758
51
100.99993509
0
ARC
8
BLACK
10
313.0339480000000094
20
-247.1720369999999889
40
0.49999597011376
50
-79.00056175
51
11.00038188
0
LINE
8
BLACK
6
CONTINUOUS
10
129.3556179999999927
20
-254.0955879999999922
11
142.1167719999999974
21
-256.5761049999999841
0
LINE
8
BLACK
6
CONTINUOUS
10
131.4407259999999837
20
-240.7482159999999851
11
128.9602089999999919
21
-253.5093699999999899
0
LINE
8
BLACK
6
CONTINUOUS
10
142.7029899999999998
20
-256.1806960000000117
11
145.1835069999999916
21
-243.4195419999999785
0
LINE
8
BLACK
6
CONTINUOUS
10
144.7880979999999909
20
-242.8333239999999762
11
132.0269439999999861
21
-240.3528069999999843
0
ARC
8
BLACK
10
129.4510229999999922
20
-253.6047739999999919
40
0.5000004966207533
50
-190.99993509
51
-101.00004758
0
ARC
8
BLACK
10
131.931539999999984
20
-240.8436209999999846
40
0.5000004966207533
50
79.00006491
51
168.99995242
0
ARC
8
BLACK
10
142.2096750000000043
20
-256.0836669999999913
40
0.5000016690582142
50
-100.99991323
51
-11.00013820
0
ARC
8
BLACK
10
144.6926929999999913
20
-243.3241379999999765
40
0.5000004966207533
50
-10.99993509
51
78.99995242
0
LINE
8
BLACK
6
CONTINUOUS
10
116.3707079999999934
20
-270.9781299999999646
11
129.1318619999999839
21
-273.4586469999999849
0
LINE
8
BLACK
6
CONTINUOUS
10
118.4558159999999987
20
-257.6307580000000144
11
115.9752989999999926
21
-270.3919119999999907
0
LINE
8
BLACK
6
CONTINUOUS
10
129.7180799999999863
20
-273.0632380000000126
11
132.1985970000000066
21
-260.3020839999999794
0
LINE
8
BLACK
6
CONTINUOUS
10
131.8031880000000058
20
-259.7158660000000054
11
119.042034000000001
21
-257.2353489999999852
0
ARC
8
BLACK
10
116.4661129999999929
20
-270.4873159999999643
40
0.5000004966207533
50
-190.99993509
51
-101.00004758
0
ARC
8
BLACK
10
118.946629999999999
20
-257.7261629999999855
40
0.5000004966207533
50
79.00006491
51
168.99995242
0
ARC
8
BLACK
10
129.2247649999999908
20
-272.9662089999999921
40
0.5000016690582142
50
-100.99991323
51
-11.00013820
0
ARC
8
BLACK
10
131.7077830000000063
20
-260.2066800000000057
40
0.5000004966207533
50
-10.99993509
51
78.99995242
0
LINE
8
BLACK
6
CONTINUOUS
10
328.9892929999999751
20
-250.2350009999999827
11
331.4698099999999954
21
-262.9961549999999875
0
LINE
8
BLACK
6
CONTINUOUS
10
332.0560279999999693
20
-263.3915639999999598
11
344.8171820000000025
21
-260.9110469999999964
0
LINE
8
BLACK
6
CONTINUOUS
10
342.1458559999999807
20
-247.1682659999999885
11
329.3847020000000043
21
-249.6487829999999803
0
LINE
8
BLACK
6
CONTINUOUS
10
345.2125909999999749
20
-260.3248289999999656
11
342.7320740000000114
21
-247.5636749999999893
0
ARC
8
BLACK
10
329.4801069999999754
20
-250.1395969999999807
40
0.5000003058119065
50
-258.99995242
51
-169.00006491
0
ARC
8
BLACK
10
331.9606239999999957
20
-262.9007500000000164
40
0.5000003058119065
50
-168.99995242
51
-79.00006491
0
ARC
8
BLACK
10
342.2412600000000111
20
-247.6590799999999888
40
0.5000003058119065
50
11.00004758
51
100.99993509
0
ARC
8
BLACK
10
344.7188559999999597
20
-260.4196680000000015
40
0.49999597011376
50
-79.00056175
51
11.00038188
0
LINE
8
BLACK
6
CONTINUOUS
10
353.4043780000000083
20
-226.0826359999999795
11
355.8848949999999718
21
-238.8437899999999843
0
LINE
8
BLACK
6
CONTINUOUS
10
356.4711130000000026
20
-239.2391989999999851
11
369.2322669999999789
21
-236.7586819999999932
0
LINE
8
BLACK
6
CONTINUOUS
10
366.5609409999999571
20
-223.0159009999999853
11
353.7997869999999807
21
-225.4964179999999772
0
LINE
8
BLACK
6
CONTINUOUS
10
369.6276760000000081
20
-236.1724639999999908
11
367.1471589999999878
21
-223.4113099999999861
0
ARC
8
BLACK
10
353.8951920000000086
20
-225.9872319999999775
40
0.5000003058119065
50
-258.99995242
51
-169.00006491
0
ARC
8
BLACK
10
356.3757089999999721
20
-238.7483849999999848
40
0.5000003058119065
50
-168.99995242
51
-79.00006491
0
ARC
8
BLACK
10
366.6563449999999875
20
-223.5067149999999856
40
0.5000003058119065
50
11.00004758
51
100.99993509
0
ARC
8
BLACK
10
369.133940999999993
20
-236.2673029999999983
40
0.49999597011376
50
-79.00056175
51
11.00038188
0
LINE
8
BLACK
6
CONTINUOUS
10
402.4918729999999982
20
-216.5409939999999835
11
404.9723899999999617
21
-229.3021479999999883
0
LINE
8
BLACK
6
CONTINUOUS
10
405.5586079999999924
20
-229.6975569999999891
11
418.3197619999999688
21
-227.2170399999999972
0
LINE
8
BLACK
6
CONTINUOUS
10
415.6484360000000038
20
-213.4742589999999893
11
402.8872819999999706
21
-215.9547759999999812
0
LINE
8
BLACK
6
CONTINUOUS
10
418.715170999999998
20
-226.6308219999999949
11
416.2346539999999777
21
-213.8696679999999901
0
ARC
8
BLACK
10
402.9826869999999985
20
-216.4455899999999815
40
0.5000003058119065
50
-258.99995242
51
-169.00006491
0
ARC
8
BLACK
10
405.463203999999962
20
-229.2067429999999888
40
0.5000003058119065
50
-168.99995242
51
-79.00006491
0
ARC
8
BLACK
10
415.7438399999999774
20
-213.9650729999999896
40
0.5000003058119065
50
11.00004758
51
100.99993509
0
ARC
8
BLACK
10
418.2214359999999829
20
-226.7256610000000023
40
0.49999597011376
50
-79.00056175
51
11.00038188
0
LINE
8
BLACK
6
CONTINUOUS
10
476.217647999999997
20
-249.4565529999999853
11
476.217647999999997
21
-262.4565529999999853
0
LINE
8
BLACK
6
CONTINUOUS
10
476.717647999999997
20
-262.9565529999999853
11
489.717647999999997
21
-262.9565529999999853
0
LINE
8
BLACK
6
CONTINUOUS
10
489.717647999999997
20
-248.9565529999999853
11
476.717647999999997
21
-248.9565529999999853
0
LINE
8
BLACK
6
CONTINUOUS
10
490.217647999999997
20
-262.4565529999999853
11
490.217647999999997
21
-249.4565529999999853
0
ARC
8
BLACK
10
476.717647999999997
20
-249.4565529999999853
40
0.5
50
90.00000000
51
180.00000000
0
ARC
8
BLACK
10
476.717647999999997
20
-262.4565529999999853
40
0.5
50
-180.00000000
51
-90.00000000
0
ARC
8
BLACK
10
489.7176469999999995
20
-249.4565539999999828
40
0.500001000001
50
0.00011459
51
89.99988541
0
ARC
8
BLACK
10
489.7148829999999862
20
-262.4554359999999633
40
0.500001000001
50
-89.99988541
51
-0.00011459
0
LINE
8
BLACK
6
CONTINUOUS
10
222.0728429999999776
20
-213.8983319999999821
11
234.8339969999999823
21
-216.3788490000000024
0
LINE
8
BLACK
6
CONTINUOUS
10
224.1579509999999971
20
-200.5509600000000034
11
221.6774339999999768
21
-213.3121139999999798
0
LINE
8
BLACK
6
CONTINUOUS
10
235.4202149999999847
20
-215.9834400000000016
11
237.9007319999999766
21
-203.2222859999999969
0
LINE
8
BLACK
6
CONTINUOUS
10
237.5053229999999758
20
-202.6360679999999945
11
224.7441689999999994
21
-200.1555510000000027
0
ARC
8
BLACK
10
222.1682479999999771
20
-213.4075179999999818
40
0.5000004966207533
50
-190.99993509
51
-101.00004758
0
ARC
8
BLACK
10
224.6487649999999974
20
-200.646365000000003
40
0.5000004966207533
50
79.00006491
51
168.99995242
0
ARC
8
BLACK
10
234.9268999999999892
20
-215.8864109999999812
40
0.5000016690582142
50
-100.99991323
51
-11.00013820
0
ARC
8
BLACK
10
237.4099179999999762
20
-203.1268819999999948
40
0.5000004966207533
50
-10.99993509
51
78.99995242
0
LINE
8
BLACK
6
CONTINUOUS
10
345.0944670000000087
20
-208.2913659999999823
11
347.5749839999999722
21
-221.052519999999987
0
LINE
8
BLACK
6
CONTINUOUS
10
348.161202000000003
20
-221.4479289999999878
11
360.9223559999999793
21
-218.9674119999999959
0
LINE
8
BLACK
6
CONTINUOUS
10
358.2510299999999575
20
-205.224630999999988
11
345.4898759999999811
21
-207.7051479999999799
0
LINE
8
BLACK
6
CONTINUOUS
10
361.3177650000000085
20
-218.3811939999999936
11
358.8372479999999882
21
-205.6200399999999888
0
ARC
8
BLACK
10
345.585281000000009
20
-208.1959619999999802
40
0.5000003058119065
50
-258.99995242
51
-169.00006491
0
ARC
8
BLACK
10
348.0657979999999725
20
-220.9571149999999875
40
0.5000003058119065
50
-168.99995242
51
-79.00006491
0
ARC
8
BLACK
10
358.3464339999999879
20
-205.7154449999999883
40
0.5000003058119065
50
11.00004758
51
100.99993509
0
ARC
8
BLACK
10
360.8240299999999934
20
-218.476033000000001
40
0.49999597011376
50
-79.00056175
51
11.00038188
0
LINE
8
BLACK
6
CONTINUOUS
10
197.1431099999999788
20
-267.2721419999999739
11
209.9042639999999835
21
-269.7526589999999942
0
LINE
8
BLACK
6
CONTINUOUS
10
199.2282179999999983
20
-253.9247699999999952
11
196.747700999999978
21
-266.685924
0
LINE
8
BLACK
6
CONTINUOUS
10
210.4904819999999859
20
-269.357249999999965
11
212.9709989999999777
21
-256.5960959999999886
0
LINE
8
BLACK
6
CONTINUOUS
10
212.575589999999977
20
-256.0098780000000147
11
199.8144360000000006
21
-253.5293609999999944
0
ARC
8
BLACK
10
197.2385149999999783
20
-266.7813279999999736
40
0.5000004966207533
50
-190.99993509
51
-101.00004758
0
ARC
8
BLACK
10
199.7190319999999986
20
-254.0201749999999947
40
0.5000004966207533
50
79.00006491
51
168.99995242
0
ARC
8
BLACK
10
209.9971669999999904
20
-269.2602210000000014
40
0.5000016690582142
50
-100.99991323
51
-11.00013820
0
ARC
8
BLACK
10
212.4801849999999774
20
-256.500692000000015
40
0.5000004966207533
50
-10.99993509
51
78.99995242
0
LINE
8
BLACK
6
CONTINUOUS
10
347.6892909999999688
20
-246.6000899999999945
11
350.1698079999999891
21
-259.3612439999999992
0
LINE
8
BLACK
6
CONTINUOUS
10
350.756025999999963
20
-259.7566529999999716
11
363.5171799999999962
21
-257.2761360000000082
0
LINE
8
BLACK
6
CONTINUOUS
10
360.8458539999999743
20
-243.5333550000000002
11
348.084699999999998
21
-246.0138719999999921
0
LINE
8
BLACK
6
CONTINUOUS
10
363.9125889999999686
20
-256.6899179999999774
11
361.4320720000000051
21
-243.928764000000001
0
ARC
8
BLACK
10
348.1801049999999691
20
-246.5046859999999924
40
0.5000003058119065
50
-258.99995242
51
-169.00006491
0
ARC
8
BLACK
10
350.6606219999999894
20
-259.2658389999999713
40
0.5000003058119065
50
-168.99995242
51
-79.00006491
0
ARC
8
BLACK
10
360.9412580000000048
20
-244.0241690000000006
40
0.5000003058119065
50
11.00004758
51
100.99993509
0
ARC
8
BLACK
10
363.4188540000000103
20
-256.7847570000000132
40
0.49999597011376
50
-79.00056175
51
11.00038188
0
LINE
8
BLACK
6
CONTINUOUS
10
171.6879370000000051
20
-223.5110509999999806
11
184.4490909999999815
21
-225.9915680000000009
0
LINE
8
BLACK
6
CONTINUOUS
10
173.7730449999999962
20
-210.1636790000000019
11
171.2925280000000043
21
-222.9248329999999783
0
LINE
8
BLACK
6
CONTINUOUS
10
185.0353089999999838
20
-225.5961590000000001
11
187.5158260000000041
21
-212.8350049999999953
0
LINE
8
BLACK
6
CONTINUOUS
10
187.1204170000000033
20
-212.248786999999993
11
174.3592629999999986
21
-209.7682700000000011
0
ARC
8
BLACK
10
171.7833420000000046
20
-223.0202369999999803
40
0.5000004966207533
50
-190.99993509
51
-101.00004758
0
ARC
8
BLACK
10
174.2638589999999965
20
-210.2590840000000014
40
0.5000004966207533
50
79.00006491
51
168.99995242
0
ARC
8
BLACK
10
184.5419939999999883
20
-225.4991299999999796
40
0.5000016690582142
50
-100.99991323
51
-11.00013820
0
ARC
8
BLACK
10
187.0250120000000038
20
-212.7396009999999933
40
0.5000004966207533
50
-10.99993509
51
78.99995242
0
LINE
8
BLACK
6
CONTINUOUS
10
227.7879299999999887
20
-234.4157849999999996
11
240.5490839999999935
21
-236.8963019999999915
0
LINE
8
BLACK
6
CONTINUOUS
10
229.8730379999999798
20
-221.0684129999999925
11
227.3925209999999879
21
-233.8295669999999973
0
LINE
8
BLACK
6
CONTINUOUS
10
241.1353019999999958
20
-236.5008929999999907
11
243.6158189999999877
21
-223.7397389999999859
0
LINE
8
BLACK
6
CONTINUOUS
10
243.2204099999999869
20
-223.1535209999999836
11
230.4592559999999821
21
-220.6730039999999917
0
ARC
8
BLACK
10
227.8833349999999882
20
-233.9249709999999993
40
0.5000004966207533
50
-190.99993509
51
-101.00004758
0
ARC
8
BLACK
10
230.3638519999999801
20
-221.163817999999992
40
0.5000004966207533
50
79.00006491
51
168.99995242
0
ARC
8
BLACK
10
240.6419870000000003
20
-236.4038639999999987
40
0.5000016690582142
50
-100.99991323
51
-11.00013820
0
ARC
8
BLACK
10
243.1250049999999874
20
-223.6443349999999839
40
0.5000004966207533
50
-10.99993509
51
78.99995242
0
LINE
8
BLACK
6
CONTINUOUS
10
457.1676479999999856
20
-249.4565529999999853
11
457.1676479999999856
21
-262.4565529999999853
0
LINE
8
BLACK
6
CONTINUOUS
10
457.6676479999999856
20
-262.9565529999999853
11
470.6676479999999856
21
-262.9565529999999853
0
LINE
8
BLACK
6
CONTINUOUS
10
470.6676479999999856
20
-248.9565529999999853
11
457.6676479999999856
21
-248.9565529999999853
0
LINE
8
BLACK
6
CONTINUOUS
10
471.1676479999999856
20
-262.4565529999999853
11
471.1676479999999856
21
-249.4565529999999853
0
ARC
8
BLACK
10
457.6676479999999856
20
-249.4565529999999853
40
0.5
50
90.00000000
51
180.00000000
0
ARC
8
BLACK
10
457.6676479999999856
20
-262.4565529999999853
40
0.5
50
-180.00000000
51
-90.00000000
0
ARC
8
BLACK
10
470.6676469999999881
20
-249.4565539999999828
40
0.500001000001
50
0.00011459
51
89.99988541
0
ARC
8
BLACK
10
470.6648829999999748
20
-262.4554359999999633
40
0.500001000001
50
-89.99988541
51
-0.00011459
0
LINE
8
BLACK
6
CONTINUOUS
10
165.9728489999999965
20
-202.9935979999999915
11
178.7340030000000013
21
-205.4741149999999834
0
LINE
8
BLACK
6
CONTINUOUS
10
168.0579569999999876
20
-189.6462259999999844
11
165.5774399999999957
21
-202.4073799999999892
0
LINE
8
BLACK
6
CONTINUOUS
10
179.3202210000000036
20
-205.0787059999999826
11
181.8007379999999955
21
-192.3175519999999779
0
LINE
8
BLACK
6
CONTINUOUS
10
181.4053289999999947
20
-191.7313340000000039
11
168.64417499999999
21
-189.2508169999999836
0
ARC
8
BLACK
10
166.068253999999996
20
-202.5027839999999912
40
0.5000004966207533
50
-190.99993509
51
-101.00004758
0
ARC
8
BLACK
10
168.5487709999999879
20
-189.7416309999999839
40
0.5000004966207533
50
79.00006491
51
168.99995242
0
ARC
8
BLACK
10
178.8269059999999797
20
-204.9816769999999906
40
0.5000016690582142
50
-100.99991323
51
-11.00013820
0
ARC
8
BLACK
10
181.3099239999999952
20
-192.2221480000000042
40
0.5000004966207533
50
-10.99993509
51
78.99995242
0
LINE
8
BLACK
6
CONTINUOUS
10
185.4502149999999858
20
-177.6697849999999903
11
198.2113689999999906
21
-180.1503019999999822
0
LINE
8
BLACK
6
CONTINUOUS
10
187.5353230000000053
20
-164.3224129999999832
11
185.054805999999985
21
-177.083566999999988
0
LINE
8
BLACK
6
CONTINUOUS
10
198.7975869999999929
20
-179.7548929999999814
11
201.2781039999999848
21
-166.993739000000005
0
LINE
8
BLACK
6
CONTINUOUS
10
200.882694999999984
20
-166.4075210000000027
11
188.1215409999999792
21
-163.9270039999999824
0
ARC
8
BLACK
10
185.5456199999999853
20
-177.17897099999999
40
0.5000004966207533
50
-190.99993509
51
-101.00004758
0
ARC
8
BLACK
10
188.0261370000000056
20
-164.4178179999999827
40
0.5000004966207533
50
79.00006491
51
168.99995242
0
ARC
8
BLACK
10
198.3042719999999974
20
-179.6578639999999893
40
0.5000016690582142
50
-100.99991323
51
-11.00013820
0
ARC
8
BLACK
10
200.7872899999999845
20
-166.898335000000003
40
0.5000004966207533
50
-10.99993509
51
78.99995242
0
LINE
8
BLACK
6
CONTINUOUS
10
291.5892969999999877
20
-257.5048239999999851
11
294.069814000000008
21
-270.2659779999999614
0
LINE
8
BLACK
6
CONTINUOUS
10
294.656031999999982
20
-270.6613869999999906
11
307.4171859999999583
21
-268.1808699999999703
0
LINE
8
BLACK
6
CONTINUOUS
10
304.7458599999999933
20
-254.4380889999999908
11
291.9847059999999601
21
-256.9186060000000111
0
LINE
8
BLACK
6
CONTINUOUS
10
307.8125949999999875
20
-267.5946519999999964
11
305.3320779999999672
21
-254.8334979999999916
0
ARC
8
BLACK
10
292.0801109999999881
20
-257.4094200000000114
40
0.5000003058119065
50
-258.99995242
51
-169.00006491
0
ARC
8
BLACK
10
294.5606280000000083
20
-270.1705729999999903
40
0.5000003058119065
50
-168.99995242
51
-79.00006491
0
ARC
8
BLACK
10
304.8412639999999669
20
-254.9289029999999912
40
0.5000003058119065
50
11.00004758
51
100.99993509
0
ARC
8
BLACK
10
307.3188599999999724
20
-267.6894909999999754
40
0.49999597011376
50
-79.00056175
51
11.00038188
0
LINE
8
BLACK
6
CONTINUOUS
10
332.1095569999999952
20
-191.4088239999999814
11
334.5900739999999587
21
-204.1699779999999862
0
LINE
8
BLACK
6
CONTINUOUS
10
335.1762919999999895
20
-204.565386999999987
11
347.9374459999999658
21
-202.0848699999999951
0
LINE
8
BLACK
6
CONTINUOUS
10
345.2661200000000008
20
-188.3420889999999872
11
332.5049659999999676
21
-190.8226059999999791
0
LINE
8
BLACK
6
CONTINUOUS
10
348.332854999999995
20
-201.4986519999999928
11
345.8523379999999747
21
-188.737497999999988
0
ARC
8
BLACK
10
332.6003709999999955
20
-191.3134199999999794
40
0.5000003058119065
50
-258.99995242
51
-169.00006491
0
ARC
8
BLACK
10
335.080887999999959
20
-204.0745729999999867
40
0.5000003058119065
50
-168.99995242
51
-79.00006491
0
ARC
8
BLACK
10
345.3615239999999744
20
-188.8329029999999875
40
0.5000003058119065
50
11.00004758
51
100.99993509
0
ARC
8
BLACK
10
347.8391199999999799
20
-201.5934910000000002
40
0.49999597011376
50
-79.00056175
51
11.00038188
0
LINE
8
BLACK
6
CONTINUOUS
10
222.8502099999999757
20
-184.9396069999999952
11
235.6113639999999805
21
-187.4201239999999871
0
LINE
8
BLACK
6
CONTINUOUS
10
224.9353179999999952
20
-171.5922349999999881
11
222.4548010000000033
21
-184.3533889999999928
0
LINE
8
BLACK
6
CONTINUOUS
10
236.1975819999999828
20
-187.0247149999999863
11
238.6780990000000031
21
-174.2635609999999815
0
LINE
8
BLACK
6
CONTINUOUS
10
238.2826900000000023
20
-173.6773429999999792
11
225.5215359999999976
21
-171.1968259999999873
0
ARC
8
BLACK
10
222.9456150000000036
20
-184.4487929999999949
40
0.5000004966207533
50
-190.99993509
51
-101.00004758
0
ARC
8
BLACK
10
225.4261319999999955
20
-171.6876399999999876
40
0.5000004966207533
50
79.00006491
51
168.99995242
0
ARC
8
BLACK
10
235.7042669999999873
20
-186.9276859999999942
40
0.5000016690582142
50
-100.99991323
51
-11.00013820
0
ARC
8
BLACK
10
238.1872850000000028
20
-174.1681569999999795
40
0.5000004966207533
50
-10.99993509
51
78.99995242
0
LINE
8
BLACK
6
CONTINUOUS
10
401.4517839999999751
20
-236.1497189999999762
11
403.9323009999999954
21
-248.9108729999999809
0
LINE
8
BLACK
6
CONTINUOUS
10
404.5185189999999693
20
-249.3062819999999817
11
417.2796730000000025
21
-246.8257649999999899
0
LINE
8
BLACK
6
CONTINUOUS
10
414.6083469999999807
20
-233.082983999999982
11
401.8471930000000043
21
-235.5635010000000023
0
LINE
8
BLACK
6
CONTINUOUS
10
417.6750819999999749
20
-246.2395469999999875
11
415.1945649999999546
21
-233.4783929999999827
0
ARC
8
BLACK
10
401.9425979999999754
20
-236.0543150000000026
40
0.5000003058119065
50
-258.99995242
51
-169.00006491
0
ARC
8
BLACK
10
404.4231149999999957
20
-248.8154679999999814
40
0.5000003058119065
50
-168.99995242
51
-79.00006491
0
ARC
8
BLACK
10
414.7037509999999543
20
-233.5737979999999823
40
0.5000003058119065
50
11.00004758
51
100.99993509
0
ARC
8
BLACK
10
417.1813469999999597
20
-246.334385999999995
40
0.49999597011376
50
-79.00056175
51
11.00038188
0
LINE
8
BLACK
6
CONTINUOUS
10
317.3071909999999889
20
-165.1762829999999838
11
319.7877080000000092
21
-177.9374369999999885
0
LINE
8
BLACK
6
CONTINUOUS
10
320.3739259999999831
20
-178.3328459999999893
11
333.1350799999999595
21
-175.8523289999999974
0
LINE
8
BLACK
6
CONTINUOUS
10
330.4637539999999944
20
-162.1095479999999895
11
317.7025999999999613
21
-164.5900649999999814
0
LINE
8
BLACK
6
CONTINUOUS
10
333.5304889999999887
20
-175.2661109999999951
11
331.0499719999999684
21
-162.5049569999999903
0
ARC
8
BLACK
10
317.7980049999999892
20
-165.0808789999999817
40
0.5000003058119065
50
-258.99995242
51
-169.00006491
0
ARC
8
BLACK
10
320.2785220000000095
20
-177.842031999999989
40
0.5000003058119065
50
-168.99995242
51
-79.00006491
0
ARC
8
BLACK
10
330.5591579999999681
20
-162.6003619999999898
40
0.5000003058119065
50
11.00004758
51
100.99993509
0
ARC
8
BLACK
10
333.0367539999999735
20
-175.3609500000000025
40
0.49999597011376
50
-79.00056175
51
11.00038188
0
LINE
8
BLACK
6
CONTINUOUS
10
401.4571809999999914
20
-148.8191819999999836
11
403.9376979999999548
21
-161.5803359999999884
0
LINE
8
BLACK
6
CONTINUOUS
10
404.5239159999999856
20
-161.9757449999999892
11
417.285069999999962
21
-159.4952279999999973
0
LINE
8
BLACK
6
CONTINUOUS
10
414.613743999999997
20
-145.7524469999999894
11
401.8525899999999638
21
-148.2329639999999813
0
LINE
8
BLACK
6
CONTINUOUS
10
417.6804789999999912
20
-158.909009999999995
11
415.1999619999999709
21
-146.1478559999999902
0
ARC
8
BLACK
10
401.9479949999999917
20
-148.7237779999999816
40
0.5000003058119065
50
-258.99995242
51
-169.00006491
0
ARC
8
BLACK
10
404.4285119999999552
20
-161.4849309999999889
40
0.5000003058119065
50
-168.99995242
51
-79.00006491
0
ARC
8
BLACK
10
414.7091479999999706
20
-146.2432609999999897
40
0.5000003058119065
50
11.00004758
51
100.99993509
0
ARC
8
BLACK
10
417.186743999999976
20
-159.0038490000000024
40
0.49999597011376
50
-79.00056175
51
11.00038188
0
LINE
8
BLACK
6
CONTINUOUS
10
203.3728449999999839
20
-210.2634199999999964
11
216.1339989999999887
21
-212.7439369999999883
0
LINE
8
BLACK
6
CONTINUOUS
10
205.4579530000000034
20
-196.9160479999999893
11
202.9774359999999831
21
-209.6772019999999941
0
LINE
8
BLACK
6
CONTINUOUS
10
216.720216999999991
20
-212.3485279999999875
11
219.2007339999999829
21
-199.5873739999999827
0
LINE
8
BLACK
6
CONTINUOUS
10
218.8053249999999821
20
-199.0011559999999804
11
206.0441709999999773
21
-196.5206389999999885
0
ARC
8
BLACK
10
203.4682499999999834
20
-209.7726059999999961
40
0.5000004966207533
50
-190.99993509
51
-101.00004758
0
ARC
8
BLACK
10
205.9487670000000037
20
-197.0114529999999888
40
0.5000004966207533
50
79.00006491
51
168.99995242
0
ARC
8
BLACK
10
216.2269019999999955
20
-212.2514989999999955
40
0.5000016690582142
50
-100.99991323
51
-11.00013820
0
ARC
8
BLACK
10
218.7099199999999826
20
-199.4919699999999807
40
0.5000004966207533
50
-10.99993509
51
78.99995242
0
LINE
8
BLACK
6
CONTINUOUS
10
495.2676479999999515
20
-173.2565529999999967
11
495.2676479999999515
21
-186.2565529999999967
0
LINE
8
BLACK
6
CONTINUOUS
10
495.7676479999999515
20
-186.7565529999999967
11
508.7676479999999515
21
-186.7565529999999967
0
LINE
8
BLACK
6
CONTINUOUS
10
508.7676479999999515
20
-172.7565529999999967
11
495.7676479999999515
21
-172.7565529999999967
0
LINE
8
BLACK
6
CONTINUOUS
10
509.2676479999999515
20
-186.2565529999999967
11
509.2676479999999515
21
-173.2565529999999967
0
ARC
8
BLACK
10
495.7676479999999515
20
-173.2565529999999967
40
0.5
50
90.00000000
51
180.00000000
0
ARC
8
BLACK
10
495.7676479999999515
20
-186.2565529999999967
40
0.5
50
-180.00000000
51
-90.00000000
0
ARC
8
BLACK
10
508.767646999999954
20
-173.2565539999999942
40
0.500001000001
50
0.00011459
51
89.99988541
0
ARC
8
BLACK
10
508.7648829999999975
20
-186.2554360000000031
40
0.500001000001
50
-89.99988541
51
-0.00011459
0
LINE
8
BLACK
6
CONTINUOUS
10
313.4095590000000016
20
-195.0437349999999981
11
315.890075999999965
21
-207.8048890000000029
0
LINE
8
BLACK
6
CONTINUOUS
10
316.4762939999999958
20
-208.2002980000000036
11
329.2374479999999721
21
-205.7197809999999834
0
LINE
8
BLACK
6
CONTINUOUS
10
326.5661220000000071
20
-191.9770000000000039
11
313.8049679999999739
21
-194.4575169999999957
0
LINE
8
BLACK
6
CONTINUOUS
10
329.6328570000000013
20
-205.133562999999981
11
327.152339999999981
21
-192.3724090000000047
0
ARC
8
BLACK
10
313.9003730000000019
20
-194.948330999999996
40
0.5000003058119065
50
-258.99995242
51
-169.00006491
0
ARC
8
BLACK
10
316.3808899999999653
20
-207.7094840000000033
40
0.5000003058119065
50
-168.99995242
51
-79.00006491
0
ARC
8
BLACK
10
326.6615259999999807
20
-192.4678140000000042
40
0.5000003058119065
50
11.00004758
51
100.99993509
0
ARC
8
BLACK
10
329.1391219999999862
20
-205.2284019999999884
40
0.49999597011376
50
-79.00056175
51
11.00038188
0
LINE
8
BLACK
6
CONTINUOUS
10
382.7571839999999952
20
-152.4540930000000003
11
385.2377009999999586
21
-165.2152470000000051
0
LINE
8
BLACK
6
CONTINUOUS
10
385.8239189999999894
20
-165.6106560000000059
11
398.5850729999999658
21
-163.1301389999999856
0
LINE
8
BLACK
6
CONTINUOUS
10
395.9137470000000008
20
-149.3873580000000061
11
383.1525929999999676
21
-151.867874999999998
0
LINE
8
BLACK
6
CONTINUOUS
10
398.980481999999995
20
-162.5439209999999832
11
396.4999649999999747
21
-149.7827670000000069
0
ARC
8
BLACK
10
383.2479979999999955
20
-152.3586889999999983
40
0.5000003058119065
50
-258.99995242
51
-169.00006491
0
ARC
8
BLACK
10
385.7285149999999589
20
-165.1198420000000056
40
0.5000003058119065
50
-168.99995242
51
-79.00006491
0
ARC
8
BLACK
10
396.0091509999999744
20
-149.8781720000000064
40
0.5000003058119065
50
11.00004758
51
100.99993509
0
ARC
8
BLACK
10
398.4867469999999798
20
-162.6387599999999907
40
0.49999597011376
50
-79.00056175
51
11.00038188
0
LINE
8
BLACK
6
CONTINUOUS
10
495.2676479999999515
20
-144.6815529999999796
11
495.2676479999999515
21
-157.6815529999999796
0
LINE
8
BLACK
6
CONTINUOUS
10
495.7676479999999515
20
-158.1815529999999796
11
508.7676479999999515
21
-158.1815529999999796
0
LINE
8
BLACK
6
CONTINUOUS
10
508.7676479999999515
20
-144.1815529999999796
11
495.7676479999999515
21
-144.1815529999999796
0
LINE
8
BLACK
6
CONTINUOUS
10
509.2676479999999515
20
-157.6815529999999796
11
509.2676479999999515
21
-144.6815529999999796
0
ARC
8
BLACK
10
495.7676479999999515
20
-144.6815529999999796
40
0.5
50
90.00000000
51
180.00000000
0
ARC
8
BLACK
10
495.7676479999999515
20
-157.6815529999999796
40
0.5
50
-180.00000000
51
-90.00000000
0
ARC
8
BLACK
10
508.767646999999954
20
-144.6815540000000055
40
0.500001000001
50
0.00011459
51
89.99988541
0
ARC
8
BLACK
10
508.7648829999999975
20
-157.6804359999999861
40
0.500001000001
50
-89.99988541
51
-0.00011459
0
LINE
8
BLACK
6
CONTINUOUS
10
129.6129420000000039
20
-215.3325009999999793
11
142.3740959999999802
21
-217.8130179999999996
0
LINE
8
BLACK
6
CONTINUOUS
10
131.698049999999995
20
-201.9851290000000006
11
129.2175330000000031
21
-214.7462829999999769
0
LINE
8
BLACK
6
CONTINUOUS
10
142.9603139999999826
20
-217.4176089999999988
11
145.4408310000000029
21
-204.656454999999994
0
LINE
8
BLACK
6
CONTINUOUS
10
145.0454220000000021
20
-204.0702369999999917
11
132.2842679999999973
21
-201.5897199999999998
0
ARC
8
BLACK
10
129.7083470000000034
20
-214.841686999999979
40
0.5000004966207533
50
-190.99993509
51
-101.00004758
0
ARC
8
BLACK
10
132.1888639999999953
20
-202.0805340000000001
40
0.5000004966207533
50
79.00006491
51
168.99995242
0
ARC
8
BLACK
10
142.4669989999999871
20
-217.3205799999999783
40
0.5000016690582142
50
-100.99991323
51
-11.00013820
0
ARC
8
BLACK
10
144.9500170000000026
20
-204.561050999999992
40
0.5000004966207533
50
-10.99993509
51
78.99995242
0
LINE
8
BLACK
6
CONTINUOUS
10
270.2944759999999746
20
-222.831011999999987
11
272.7749929999999949
21
-235.5921659999999918
0
LINE
8
BLACK
6
CONTINUOUS
10
273.3612109999999689
20
-235.9875749999999925
11
286.1223650000000021
21
-233.5070580000000007
0
LINE
8
BLACK
6
CONTINUOUS
10
283.4510389999999802
20
-219.7642769999999928
11
270.6898850000000039
21
-222.2447939999999846
0
LINE
8
BLACK
6
CONTINUOUS
10
286.5177739999999744
20
-232.9208399999999983
11
284.037257000000011
21
-220.1596859999999936
0
ARC
8
BLACK
10
270.785289999999975
20
-222.7356079999999849
40
0.5000003058119065
50
-258.99995242
51
-169.00006491
0
ARC
8
BLACK
10
273.2658069999999952
20
-235.4967609999999922
40
0.5000003058119065
50
-168.99995242
51
-79.00006491
0
ARC
8
BLACK
10
283.5464430000000107
20
-220.2550909999999931
40
0.5000003058119065
50
11.00004758
51
100.99993509
0
ARC
8
BLACK
10
286.0240389999999593
20
-233.0156789999999773
40
0.49999597011376
50
-79.00056175
51
11.00038188
0
LINE
8
BLACK
6
CONTINUOUS
10
304.5742070000000012
20
-274.3873659999999859
11
307.0547239999999647
21
-287.1485199999999622
0
LINE
8
BLACK
6
CONTINUOUS
10
307.6409419999999955
20
-287.5439289999999914
11
320.4020959999999718
21
-285.0634119999999712
0
LINE
8
BLACK
6
CONTINUOUS
10
317.7307700000000068
20
-271.3206309999999917
11
304.9696159999999736
21
-273.801148000000012
0
LINE
8
BLACK
6
CONTINUOUS
10
320.797505000000001
20
-284.4771939999999972
11
318.3169879999999807
21
-271.716039999999964
0
ARC
8
BLACK
10
305.0650210000000015
20
-274.2919620000000123
40
0.5000003058119065
50
-258.99995242
51
-169.00006491
0
ARC
8
BLACK
10
307.545537999999965
20
-287.0531149999999911
40
0.5000003058119065
50
-168.99995242
51
-79.00006491
0
ARC
8
BLACK
10
317.8261739999999804
20
-271.811444999999992
40
0.5000003058119065
50
11.00004758
51
100.99993509
0
ARC
8
BLACK
10
320.3037699999999859
20
-284.5720329999999763
40
0.49999597011376
50
-79.00056175
51
11.00038188
0
LINE
8
BLACK
6
CONTINUOUS
10
326.3944700000000125
20
-211.9262769999999989
11
328.874986999999976
21
-224.6874310000000037
0
LINE
8
BLACK
6
CONTINUOUS
10
329.4612050000000067
20
-225.082839999999976
11
342.2223589999999831
21
-222.6023229999999842
0
LINE
8
BLACK
6
CONTINUOUS
10
339.5510329999999612
20
-208.8595420000000047
11
326.7898789999999849
21
-211.3400589999999966
0
LINE
8
BLACK
6
CONTINUOUS
10
342.6177680000000123
20
-222.0161049999999818
11
340.137250999999992
21
-209.2549509999999771
0
ARC
8
BLACK
10
326.8852840000000128
20
-211.8308729999999969
40
0.5000003058119065
50
-258.99995242
51
-169.00006491
0
ARC
8
BLACK
10
329.3658009999999763
20
-224.5920259999999757
40
0.5000003058119065
50
-168.99995242
51
-79.00006491
0
ARC
8
BLACK
10
339.6464369999999917
20
-209.3503559999999766
40
0.5000003058119065
50
11.00004758
51
100.99993509
0
ARC
8
BLACK
10
342.1240329999999972
20
-222.1109439999999893
40
0.49999597011376
50
-79.00056175
51
11.00038188
0
LINE
8
BLACK
6
CONTINUOUS
10
397.5595500000000015
20
-178.686633999999998
11
400.040066999999965
21
-191.4477880000000027
0
LINE
8
BLACK
6
CONTINUOUS
10
400.6262849999999958
20
-191.8431970000000035
11
413.3874389999999721
21
-189.3626799999999832
0
LINE
8
BLACK
6
CONTINUOUS
10
410.7161130000000071
20
-175.6198990000000038
11
397.9549589999999739
21
-178.1004159999999956
0
LINE
8
BLACK
6
CONTINUOUS
10
413.7828480000000013
20
-188.7764619999999809
11
411.302330999999981
21
-176.0153080000000045
0
ARC
8
BLACK
10
398.0503640000000019
20
-178.5912299999999959
40
0.5000003058119065
50
-258.99995242
51
-169.00006491
0
ARC
8
BLACK
10
400.5308809999999653
20
-191.3523830000000032
40
0.5000003058119065
50
-168.99995242
51
-79.00006491
0
ARC
8
BLACK
10
410.8115169999999807
20
-176.1107130000000041
40
0.5000003058119065
50
11.00004758
51
100.99993509
0
ARC
8
BLACK
10
413.2891129999999862
20
-188.8713009999999883
40
0.49999597011376
50
-79.00056175
51
11.00038188
0
LINE
8
BLACK
6
CONTINUOUS
10
279.9071950000000015
20
-172.4461059999999861
11
282.387711999999965
21
-185.2072599999999909
0
LINE
8
BLACK
6
CONTINUOUS
10
282.9739299999999957
20
-185.6026689999999917
11
295.7350839999999721
21
-183.1221519999999998
0
LINE
8
BLACK
6
CONTINUOUS
10
293.0637580000000071
20
-169.3793709999999919
11
280.3026039999999739
21
-171.8598879999999838
0
LINE
8
BLACK
6
CONTINUOUS
10
296.1304930000000013
20
-182.5359339999999975
11
293.649975999999981
21
-169.7747799999999927
0
ARC
8
BLACK
10
280.3980090000000018
20
-172.3507019999999841
40
0.5000003058119065
50
-258.99995242
51
-169.00006491
0
ARC
8
BLACK
10
282.8785259999999653
20
-185.1118549999999914
40
0.5000003058119065
50
-168.99995242
51
-79.00006491
0
ARC
8
BLACK
10
293.1591619999999807
20
-169.8701849999999922
40
0.5000003058119065
50
11.00004758
51
100.99993509
0
ARC
8
BLACK
10
295.6367579999999862
20
-182.6307730000000049
40
0.49999597011376
50
-79.00056175
51
11.00038188
0
LINE
8
BLACK
6
CONTINUOUS
10
215.8431080000000009
20
-270.9070529999999621
11
228.6042619999999772
21
-273.3875699999999824
0
LINE
8
BLACK
6
CONTINUOUS
10
217.9282159999999919
20
-257.5596810000000119
11
215.4476990000000001
21
-270.3208349999999882
0
LINE
8
BLACK
6
CONTINUOUS
10
229.1904799999999796
20
-272.9921610000000101
11
231.6709969999999998
21
-260.2310069999999769
0
LINE
8
BLACK
6
CONTINUOUS
10
231.2755879999999991
20
-259.6447890000000029
11
218.5144339999999943
21
-257.1642719999999827
0
ARC
8
BLACK
10
215.9385130000000004
20
-270.4162389999999618
40
0.5000004966207533
50
-190.99993509
51
-101.00004758
0
ARC
8
BLACK
10
218.4190299999999922
20
-257.655085999999983
40
0.5000004966207533
50
79.00006491
51
168.99995242
0
ARC
8
BLACK
10
228.697164999999984
20
-272.8951319999999896
40
0.5000016690582142
50
-100.99991323
51
-11.00013820
0
ARC
8
BLACK
10
231.1801829999999995
20
-260.1356030000000032
40
0.5000004966207533
50
-10.99993509
51
78.99995242
0
LINE
8
BLACK
6
CONTINUOUS
10
128.5728540000000066
20
-195.7237749999999892
11
141.334007999999983
21
-198.204291999999981
0
LINE
8
BLACK
6
CONTINUOUS
10
130.6579619999999977
20
-182.3764029999999821
11
128.1774450000000058
21
-195.1375569999999868
0
LINE
8
BLACK
6
CONTINUOUS
10
141.9202259999999853
20
-197.8088829999999803
11
144.4007430000000056
21
-185.0477290000000039
0
LINE
8
BLACK
6
CONTINUOUS
10
144.0053340000000048
20
-184.4615110000000016
11
131.2441800000000001
21
-181.9809939999999813
0
ARC
8
BLACK
10
128.6682590000000062
20
-195.2329609999999889
40
0.5000004966207533
50
-190.99993509
51
-101.00004758
0
ARC
8
BLACK
10
131.148775999999998
20
-182.4718079999999816
40
0.5000004966207533
50
79.00006491
51
168.99995242
0
ARC
8
BLACK
10
141.4269109999999898
20
-197.7118539999999882
40
0.5000016690582142
50
-100.99991323
51
-11.00013820
0
ARC
8
BLACK
10
143.9099290000000053
20
-184.9523250000000019
40
0.5000004966207533
50
-10.99993509
51
78.99995242
0
LINE
8
BLACK
6
CONTINUOUS
10
152.987938999999983
20
-219.8761399999999924
11
165.7490929999999878
21
-222.3566569999999842
0
LINE
8
BLACK
6
CONTINUOUS
10
155.0730470000000025
20
-206.5287679999999852
11
152.5925299999999822
21
-219.28992199999999
0
LINE
8
BLACK
6
CONTINUOUS
10
166.3353109999999901
20
-221.9612479999999834
11
168.815827999999982
21
-209.2000939999999787
0
LINE
8
BLACK
6
CONTINUOUS
10
168.4204189999999812
20
-208.6138760000000048
11
155.6592650000000049
21
-206.1333589999999845
0
ARC
8
BLACK
10
153.0833439999999825
20
-219.3853259999999921
40
0.5000004966207533
50
-190.99993509
51
-101.00004758
0
ARC
8
BLACK
10
155.5638610000000028
20
-206.6241729999999848
40
0.5000004966207533
50
79.00006491
51
168.99995242
0
ARC
8
BLACK
10
165.8419959999999946
20
-221.8642189999999914
40
0.5000016690582142
50
-100.99991323
51
-11.00013820
0
ARC
8
BLACK
10
168.3250139999999817
20
-209.1046899999999766
40
0.5000004966207533
50
-10.99993509
51
78.99995242
0
LINE
8
BLACK
6
CONTINUOUS
10
204.1502129999999795
20
-181.3046959999999785
11
216.9113669999999843
21
-183.7852129999999988
0
LINE
8
BLACK
6
CONTINUOUS
10
206.235320999999999
20
-167.9573239999999998
11
203.7548039999999787
21
-180.7184780000000046
0
LINE
8
BLACK
6
CONTINUOUS
10
217.4975849999999866
20
-183.389803999999998
11
219.9781019999999785
21
-170.6286499999999933
0
LINE
8
BLACK
6
CONTINUOUS
10
219.5826929999999777
20
-170.0424319999999909
11
206.8215390000000014
21
-167.5619149999999991
0
ARC
8
BLACK
10
204.245617999999979
20
-180.8138819999999782
40
0.5000004966207533
50
-190.99993509
51
-101.00004758
0
ARC
8
BLACK
10
206.7261349999999993
20
-168.0527289999999994
40
0.5000004966207533
50
79.00006491
51
168.99995242
0
ARC
8
BLACK
10
217.0042699999999911
20
-183.2927749999999776
40
0.5000016690582142
50
-100.99991323
51
-11.00013820
0
ARC
8
BLACK
10
219.4872879999999782
20
-170.5332459999999912
40
0.5000004966207533
50
-10.99993509
51
78.99995242
0
LINE
8
BLACK
6
CONTINUOUS
10
298.6071929999999952
20
-168.8111940000000004
11
301.0877099999999587
21
-181.5723480000000052
0
LINE
8
BLACK
6
CONTINUOUS
10
301.6739279999999894
20
-181.967757000000006
11
314.4350819999999658
21
-179.4872399999999857
0
LINE
8
BLACK
6
CONTINUOUS
10
311.7637560000000008
20
-165.7444590000000062
11
299.0026019999999676
21
-168.2249759999999981
0
LINE
8
BLACK
6
CONTINUOUS
10
314.830490999999995
20
-178.9010219999999833
11
312.3499739999999747
21
-166.1398679999999786
0
ARC
8
BLACK
10
299.0980069999999955
20
-168.7157899999999984
40
0.5000003058119065
50
-258.99995242
51
-169.00006491
0
ARC
8
BLACK
10
301.578523999999959
20
-181.4769430000000057
40
0.5000003058119065
50
-168.99995242
51
-79.00006491
0
ARC
8
BLACK
10
311.8591599999999744
20
-166.2352730000000065
40
0.5000003058119065
50
11.00004758
51
100.99993509
0
ARC
8
BLACK
10
314.3367559999999798
20
-178.9958609999999908
40
0.49999597011376
50
-79.00056175
51
11.00038188
0
LINE
8
BLACK
6
CONTINUOUS
10
134.0252209999999877
20
-167.6737779999999987
11
146.7863749999999925
21
-170.1542949999999905
0
LINE
8
BLACK
6
CONTINUOUS
10
136.1103290000000072
20
-154.3264059999999915
11
133.6298119999999869
21
-167.0875599999999963
0
LINE
8
BLACK
6
CONTINUOUS
10
147.3725929999999948
20
-169.7588859999999897
11
149.8531099999999867
21
-156.997731999999985
0
LINE
8
BLACK
6
CONTINUOUS
10
149.4577009999999859
20
-156.4115139999999826
11
136.6965469999999812
21
-153.9309969999999907
0
ARC
8
BLACK
10
134.1206259999999872
20
-167.1829639999999984
40
0.5000004966207533
50
-190.99993509
51
-101.00004758
0
ARC
8
BLACK
10
136.6011430000000075
20
-154.4218109999999911
40
0.5000004966207533
50
79.00006491
51
168.99995242
0
ARC
8
BLACK
10
146.8792779999999993
20
-169.6618569999999977
40
0.5000016690582142
50
-100.99991323
51
-11.00013820
0
ARC
8
BLACK
10
149.3622959999999864
20
-156.9023279999999829
40
0.5000004966207533
50
-10.99993509
51
78.99995242
0
LINE
8
BLACK
6
CONTINUOUS
10
476.217647999999997
20
-192.3065529999999796
11
476.217647999999997
21
-205.3065529999999796
0
LINE
8
BLACK
6
CONTINUOUS
10
476.717647999999997
20
-205.8065529999999796
11
489.717647999999997
21
-205.8065529999999796
0
LINE
8
BLACK
6
CONTINUOUS
10
489.717647999999997
20
-191.8065529999999796
11
476.717647999999997
21
-191.8065529999999796
0
LINE
8
BLACK
6
CONTINUOUS
10
490.217647999999997
20
-205.3065529999999796
11
490.217647999999997
21
-192.3065529999999796
0
ARC
8
BLACK
10
476.717647999999997
20
-192.3065529999999796
40
0.5
50
90.00000000
51
180.00000000
0
ARC
8
BLACK
10
476.717647999999997
20
-205.3065529999999796
40
0.5
50
-180.00000000
51
-90.00000000
0
ARC
8
BLACK
10
489.7176469999999995
20
-192.3065539999999771
40
0.500001000001
50
0.00011459
51
89.99988541
0
ARC
8
BLACK
10
489.7148829999999862
20
-205.3054359999999861
40
0.500001000001
50
-89.99988541
51
-0.00011459
0
LINE
8
BLACK
6
CONTINUOUS
10
344.3117029999999659
20
-266.6631790000000137
11
346.7922199999999862
21
-279.4243329999999901
0
LINE
8
BLACK
6
CONTINUOUS
10
347.3784379999999601
20
-279.8197419999999624
11
360.1395919999999933
21
-277.339224999999999
0
LINE
8
BLACK
6
CONTINUOUS
10
357.4682659999999714
20
-263.5964439999999627
11
344.7071119999999951
21
-266.076960999999983
0
LINE
8
BLACK
6
CONTINUOUS
10
360.5350009999999656
20
-276.7530069999999682
11
358.0544840000000022
21
-263.9918529999999919
0
ARC
8
BLACK
10
344.8025169999999662
20
-266.5677749999999833
40
0.5000003058119065
50
-258.99995242
51
-169.00006491
0
ARC
8
BLACK
10
347.2830339999999865
20
-279.3289279999999621
40
0.5000003058119065
50
-168.99995242
51
-79.00006491
0
ARC
8
BLACK
10
357.5636700000000019
20
-264.087257999999963
40
0.5000003058119065
50
11.00004758
51
100.99993509
0
ARC
8
BLACK
10
360.0412660000000074
20
-276.8478460000000041
40
0.49999597011376
50
-79.00056175
51
11.00038188
0
LINE
8
BLACK
6
CONTINUOUS
10
457.1676479999999856
20
-192.3065529999999796
11
457.1676479999999856
21
-205.3065529999999796
0
LINE
8
BLACK
6
CONTINUOUS
10
457.6676479999999856
20
-205.8065529999999796
11
470.6676479999999856
21
-205.8065529999999796
0
LINE
8
BLACK
6
CONTINUOUS
10
470.6676479999999856
20
-191.8065529999999796
11
457.6676479999999856
21
-191.8065529999999796
0
LINE
8
BLACK
6
CONTINUOUS
10
471.1676479999999856
20
-205.3065529999999796
11
471.1676479999999856
21
-192.3065529999999796
0
ARC
8
BLACK
10
457.6676479999999856
20
-192.3065529999999796
40
0.5
50
90.00000000
51
180.00000000
0
ARC
8
BLACK
10
457.6676479999999856
20
-205.3065529999999796
40
0.5
50
-180.00000000
51
-90.00000000
0
ARC
8
BLACK
10
470.6676469999999881
20
-192.3065539999999771
40
0.500001000001
50
0.00011459
51
89.99988541
0
ARC
8
BLACK
10
470.6648829999999748
20
-205.3054359999999861
40
0.500001000001
50
-89.99988541
51
-0.00011459
0
LINE
8
BLACK
6
CONTINUOUS
10
372.104376000000002
20
-222.4477249999999913
11
374.5848929999999655
21
-235.208878999999996
0
LINE
8
BLACK
6
CONTINUOUS
10
375.1711109999999962
20
-235.6042879999999968
11
387.9322649999999726
21
-233.1237709999999765
0
LINE
8
BLACK
6
CONTINUOUS
10
385.2609390000000076
20
-219.3809899999999971
11
372.4997849999999744
21
-221.8615069999999889
0
LINE
8
BLACK
6
CONTINUOUS
10
388.3276740000000018
20
-232.5375530000000026
11
385.8471569999999815
21
-219.7763989999999978
0
ARC
8
BLACK
10
372.5951900000000023
20
-222.3523209999999892
40
0.5000003058119065
50
-258.99995242
51
-169.00006491
0
ARC
8
BLACK
10
375.0757069999999658
20
-235.1134739999999965
40
0.5000003058119065
50
-168.99995242
51
-79.00006491
0
ARC
8
BLACK
10
385.3563429999999812
20
-219.8718039999999974
40
0.5000003058119065
50
11.00004758
51
100.99993509
0
ARC
8
BLACK
10
387.8339389999999867
20
-232.6323919999999816
40
0.49999597011376
50
-79.00056175
51
11.00038188
0
LINE
8
BLACK
6
CONTINUOUS
10
366.389287999999965
20
-242.9651779999999803
11
368.8698049999999853
21
-255.7263319999999851
0
LINE
8
BLACK
6
CONTINUOUS
10
369.4560229999999592
20
-256.1217409999999859
11
382.2171769999999924
21
-253.641223999999994
0
LINE
8
BLACK
6
CONTINUOUS
10
379.5458509999999706
20
-239.8984429999999861
11
366.7846969999999942
21
-242.378959999999978
0
LINE
8
BLACK
6
CONTINUOUS
10
382.6125859999999648
20
-253.0550059999999917
11
380.1320690000000013
21
-240.2938519999999869
0
ARC
8
BLACK
10
366.8801019999999653
20
-242.8697739999999783
40
0.5000003058119065
50
-258.99995242
51
-169.00006491
0
ARC
8
BLACK
10
369.3606189999999856
20
-255.6309269999999856
40
0.5000003058119065
50
-168.99995242
51
-79.00006491
0
ARC
8
BLACK
10
379.641255000000001
20
-240.3892569999999864
40
0.5000003058119065
50
11.00004758
51
100.99993509
0
ARC
8
BLACK
10
382.1188510000000065
20
-253.1498449999999991
40
0.49999597011376
50
-79.00056175
51
11.00038188
0
LINE
8
BLACK
6
CONTINUOUS
10
294.7095610000000079
20
-198.6786469999999838
11
297.1900779999999713
21
-211.4398009999999886
0
LINE
8
BLACK
6
CONTINUOUS
10
297.7762960000000021
20
-211.8352099999999893
11
310.5374499999999784
21
-209.3546929999999975
0
LINE
8
BLACK
6
CONTINUOUS
10
307.8661240000000134
20
-195.6119119999999896
11
295.1049699999999802
21
-198.0924289999999814
0
LINE
8
BLACK
6
CONTINUOUS
10
310.9328590000000077
20
-208.7684749999999951
11
308.4523419999999874
21
-196.0073209999999904
0
ARC
8
BLACK
10
295.2003750000000082
20
-198.5832429999999817
40
0.5000003058119065
50
-258.99995242
51
-169.00006491
0
ARC
8
BLACK
10
297.6808919999999716
20
-211.344395999999989
40
0.5000003058119065
50
-168.99995242
51
-79.00006491
0
ARC
8
BLACK
10
307.9615279999999871
20
-196.1027259999999899
40
0.5000003058119065
50
11.00004758
51
100.99993509
0
ARC
8
BLACK
10
310.4391239999999925
20
-208.8633140000000026
40
0.49999597011376
50
-79.00056175
51
11.00038188
0
LINE
8
BLACK
6
CONTINUOUS
10
476.217647999999997
20
-173.2565529999999967
11
476.217647999999997
21
-186.2565529999999967
0
LINE
8
BLACK
6
CONTINUOUS
10
476.717647999999997
20
-186.7565529999999967
11
489.717647999999997
21
-186.7565529999999967
0
LINE
8
BLACK
6
CONTINUOUS
10
489.717647999999997
20
-172.7565529999999967
11
476.717647999999997
21
-172.7565529999999967
0
LINE
8
BLACK
6
CONTINUOUS
10
490.217647999999997
20
-186.2565529999999967
11
490.217647999999997
21
-173.2565529999999967
0
ARC
8
BLACK
10
476.717647999999997
20
-173.2565529999999967
40
0.5
50
90.00000000
51
180.00000000
0
ARC
8
BLACK
10
476.717647999999997
20
-186.2565529999999967
40
0.5
50
-180.00000000
51
-90.00000000
0
ARC
8
BLACK
10
489.7176469999999995
20
-173.2565539999999942
40
0.500001000001
50
0.00011459
51
89.99988541
0
ARC
8
BLACK
10
489.7148829999999862
20
-186.2554360000000031
40
0.500001000001
50
-89.99988541
51
-0.00011459
0
LINE
8
BLACK
6
CONTINUOUS
10
476.217647999999997
20
-144.6815529999999796
11
476.217647999999997
21
-157.6815529999999796
0
LINE
8
BLACK
6
CONTINUOUS
10
476.717647999999997
20
-158.1815529999999796
11
489.717647999999997
21
-158.1815529999999796
0
LINE
8
BLACK
6
CONTINUOUS
10
489.717647999999997
20
-144.1815529999999796
11
476.717647999999997
21
-144.1815529999999796
0
LINE
8
BLACK
6
CONTINUOUS
10
490.217647999999997
20
-157.6815529999999796
11
490.217647999999997
21
-144.6815529999999796
0
ARC
8
BLACK
10
476.717647999999997
20
-144.6815529999999796
40
0.5
50
90.00000000
51
180.00000000
0
ARC
8
BLACK
10
476.717647999999997
20
-157.6815529999999796
40
0.5
50
-180.00000000
51
-90.00000000
0
ARC
8
BLACK
10
489.7176469999999995
20
-144.6815540000000055
40
0.500001000001
50
0.00011459
51
89.99988541
0
ARC
8
BLACK
10
489.7148829999999862
20
-157.6804359999999861
40
0.500001000001
50
-89.99988541
51
-0.00011459
0
LINE
8
BLACK
6
CONTINUOUS
10
288.9944739999999683
20
-219.1961000000000013
11
291.4749909999999886
21
-231.9572539999999776
0
LINE
8
BLACK
6
CONTINUOUS
10
292.0612089999999625
20
-232.3526629999999784
11
304.8223629999999957
21
-229.8721459999999865
0
LINE
8
BLACK
6
CONTINUOUS
10
302.1510369999999739
20
-216.1293649999999786
11
289.3898829999999975
21
-218.6098819999999989
0
LINE
8
BLACK
6
CONTINUOUS
10
305.2177719999999681
20
-229.2859279999999842
11
302.7372550000000047
21
-216.5247739999999794
0
ARC
8
BLACK
10
289.4852879999999686
20
-219.1006959999999992
40
0.5000003058119065
50
-258.99995242
51
-169.00006491
0
ARC
8
BLACK
10
291.9658049999999889
20
-231.8618489999999781
40
0.5000003058119065
50
-168.99995242
51
-79.00006491
0
ARC
8
BLACK
10
302.2464410000000044
20
-216.6201789999999789
40
0.5000003058119065
50
11.00004758
51
100.99993509
0
ARC
8
BLACK
10
304.7240370000000098
20
-229.3807669999999916
40
0.49999597011376
50
-79.00056175
51
11.00038188
0
LINE
8
BLACK
6
CONTINUOUS
10
402.7491959999999835
20
-255.3040809999999965
11
405.2297130000000038
21
-268.0652349999999728
0
LINE
8
BLACK
6
CONTINUOUS
10
405.8159309999999778
20
-268.4606440000000021
11
418.5770849999999541
21
-265.9801269999999818
0
LINE
8
BLACK
6
CONTINUOUS
10
415.9057589999999891
20
-252.2373460000000023
11
403.1446049999999559
21
-254.7178629999999941
0
LINE
8
BLACK
6
CONTINUOUS
10
418.9724939999999833
20
-265.3939090000000078
11
416.491976999999963
21
-252.6327549999999746
0
ARC
8
BLACK
10
403.2400099999999838
20
-255.2086769999999945
40
0.5000003058119065
50
-258.99995242
51
-169.00006491
0
ARC
8
BLACK
10
405.7205270000000041
20
-267.9698300000000017
40
0.5000003058119065
50
-168.99995242
51
-79.00006491
0
ARC
8
BLACK
10
416.0011629999999627
20
-252.7281600000000026
40
0.5000003058119065
50
11.00004758
51
100.99993509
0
ARC
8
BLACK
10
418.4787589999999682
20
-265.4887479999999869
40
0.49999597011376
50
-79.00056175
51
11.00038188
0
LINE
8
BLACK
6
CONTINUOUS
10
334.7043799999999578
20
-229.7175469999999962
11
337.1848969999999781
21
-242.4787010000000009
0
LINE
8
BLACK
6
CONTINUOUS
10
337.7711150000000089
20
-242.8741100000000017
11
350.5322689999999852
21
-240.3935929999999814
0
LINE
8
BLACK
6
CONTINUOUS
10
347.8609429999999634
20
-226.6508120000000019
11
335.099788999999987
21
-229.1313289999999938
0
LINE
8
BLACK
6
CONTINUOUS
10
350.9276779999999576
20
-239.8073749999999791
11
348.4471609999999941
21
-227.0462210000000027
0
ARC
8
BLACK
10
335.1951939999999581
20
-229.6221429999999941
40
0.5000003058119065
50
-258.99995242
51
-169.00006491
0
ARC
8
BLACK
10
337.6757109999999784
20
-242.3832960000000014
40
0.5000003058119065
50
-168.99995242
51
-79.00006491
0
ARC
8
BLACK
10
347.9563469999999938
20
-227.1416260000000023
40
0.5000003058119065
50
11.00004758
51
100.99993509
0
ARC
8
BLACK
10
350.4339429999999993
20
-239.9022139999999865
40
0.49999597011376
50
-79.00056175
51
11.00038188
0
LINE
8
BLACK
6
CONTINUOUS
10
345.3571880000000078
20
-159.7239160000000027
11
347.8377049999999713
21
-172.485069999999979
0
LINE
8
BLACK
6
CONTINUOUS
10
348.423923000000002
20
-172.8804789999999798
11
361.1850769999999784
21
-170.3999619999999879
0
LINE
8
BLACK
6
CONTINUOUS
10
358.5137509999999565
20
-156.65718099999998
11
345.7525969999999802
21
-159.1376980000000003
0
LINE
8
BLACK
6
CONTINUOUS
10
361.5804860000000076
20
-169.8137439999999856
11
359.0999689999999873
21
-157.0525899999999808
0
ARC
8
BLACK
10
345.8480020000000081
20
-159.6285120000000006
40
0.5000003058119065
50
-258.99995242
51
-169.00006491
0
ARC
8
BLACK
10
348.3285189999999716
20
-172.3896649999999795
40
0.5000003058119065
50
-168.99995242
51
-79.00006491
0
ARC
8
BLACK
10
358.609154999999987
20
-157.1479949999999803
40
0.5000003058119065
50
11.00004758
51
100.99993509
0
ARC
8
BLACK
10
361.0867509999999925
20
-169.908582999999993
40
0.49999597011376
50
-79.00056175
51
11.00038188
0
LINE
8
BLACK
6
CONTINUOUS
10
200.5206979999999817
20
-287.3352309999999648
11
213.2818519999999864
21
-289.815747999999985
0
LINE
8
BLACK
6
CONTINUOUS
10
202.6058060000000012
20
-273.9878590000000145
11
200.1252889999999809
21
-286.7490129999999908
0
LINE
8
BLACK
6
CONTINUOUS
10
213.8680699999999888
20
-289.4203390000000127
11
216.3485869999999807
21
-276.6591849999999795
0
LINE
8
BLACK
6
CONTINUOUS
10
215.9531779999999799
20
-276.0729670000000056
11
203.1920240000000035
21
-273.5924499999999853
0
ARC
8
BLACK
10
200.6161029999999812
20
-286.8444169999999644
40
0.5000004966207533
50
-190.99993509
51
-101.00004758
0
ARC
8
BLACK
10
203.0966200000000015
20
-274.0832639999999856
40
0.5000004966207533
50
79.00006491
51
168.99995242
0
ARC
8
BLACK
10
213.3747549999999933
20
-289.3233099999999922
40
0.5000016690582142
50
-100.99991323
51
-11.00013820
0
ARC
8
BLACK
10
215.8577729999999804
20
-276.5637810000000059
40
0.5000004966207533
50
-10.99993509
51
78.99995242
0
LINE
8
BLACK
6
CONTINUOUS
10
159.7431149999999889
20
-260.002319
11
172.5042689999999936
21
-262.4828359999999634
0
LINE
8
BLACK
6
CONTINUOUS
10
161.8282229999999799
20
-246.6549469999999928
11
159.3477059999999881
21
-259.4161009999999692
0
LINE
8
BLACK
6
CONTINUOUS
10
173.090486999999996
20
-262.087426999999991
11
175.5710039999999879
21
-249.3262729999999863
0
LINE
8
BLACK
6
CONTINUOUS
10
175.1755949999999871
20
-248.7400549999999839
11
162.4144409999999823
21
-246.2595379999999921
0
ARC
8
BLACK
10
159.8385199999999884
20
-259.5115049999999997
40
0.5000004966207533
50
-190.99993509
51
-101.00004758
0
ARC
8
BLACK
10
162.3190369999999803
20
-246.7503519999999924
40
0.5000004966207533
50
79.00006491
51
168.99995242
0
ARC
8
BLACK
10
172.5971720000000005
20
-261.9903979999999706
40
0.5000016690582142
50
-100.99991323
51
-11.00013820
0
ARC
8
BLACK
10
175.0801899999999875
20
-249.2308689999999842
40
0.5000004966207533
50
-10.99993509
51
78.99995242
0
LINE
8
BLACK
6
CONTINUOUS
10
457.1676479999999856
20
-144.6815529999999796
11
457.1676479999999856
21
-157.6815529999999796
0
LINE
8
BLACK
6
CONTINUOUS
10
457.6676479999999856
20
-158.1815529999999796
11
470.6676479999999856
21
-158.1815529999999796
0
LINE
8
BLACK
6
CONTINUOUS
10
470.6676479999999856
20
-144.1815529999999796
11
457.6676479999999856
21
-144.1815529999999796
0
LINE
8
BLACK
6
CONTINUOUS
10
471.1676479999999856
20
-157.6815529999999796
11
471.1676479999999856
21
-144.6815529999999796
0
ARC
8
BLACK
10
457.6676479999999856
20
-144.6815529999999796
40
0.5
50
90.00000000
51
180.00000000
0
ARC
8
BLACK
10
457.6676479999999856
20
-157.6815529999999796
40
0.5
50
-180.00000000
51
-90.00000000
0
ARC
8
BLACK
10
470.6676469999999881
20
-144.6815540000000055
40
0.500001000001
50
0.00011459
51
89.99988541
0
ARC
8
BLACK
10
470.6648829999999748
20
-157.6804359999999861
40
0.500001000001
50
-89.99988541
51
-0.00011459
0
LINE
8
BLACK
6
CONTINUOUS
10
209.0879329999999925
20
-230.780873999999983
11
221.8490869999999973
21
-233.2613910000000033
0
LINE
8
BLACK
6
CONTINUOUS
10
211.1730409999999836
20
-217.4335020000000043
11
208.6925239999999917
21
-230.1946559999999806
0
LINE
8
BLACK
6
CONTINUOUS
10
222.4353049999999996
20
-232.8659820000000025
11
224.9158219999999915
21
-220.1048279999999977
0
LINE
8
BLACK
6
CONTINUOUS
10
224.5204129999999907
20
-219.5186099999999954
11
211.7592589999999859
21
-217.0380930000000035
0
ARC
8
BLACK
10
209.183337999999992
20
-230.2900599999999827
40
0.5000004966207533
50
-190.99993509
51
-101.00004758
0
ARC
8
BLACK
10
211.6638549999999839
20
-217.5289070000000038
40
0.5000004966207533
50
79.00006491
51
168.99995242
0
ARC
8
BLACK
10
221.9419900000000041
20
-232.768952999999982
40
0.5000016690582142
50
-100.99991323
51
-11.00013820
0
ARC
8
BLACK
10
224.4250079999999912
20
-220.0094239999999957
40
0.5000004966207533
50
-10.99993509
51
78.99995242
0
LINE
8
BLACK
6
CONTINUOUS
10
382.4944629999999961
20
-201.0215429999999799
11
384.9749799999999595
21
-213.7826969999999847
0
LINE
8
BLACK
6
CONTINUOUS
10
385.5611979999999903
20
-214.1781059999999854
11
398.3223519999999667
21
-211.6975889999999936
0
LINE
8
BLACK
6
CONTINUOUS
10
395.6510260000000017
20
-197.9548079999999857
11
382.8898719999999685
21
-200.4353249999999775
0
LINE
8
BLACK
6
CONTINUOUS
10
398.7177609999999959
20
-211.1113709999999912
11
396.2372439999999756
21
-198.3502169999999865
0
ARC
8
BLACK
10
382.9852769999999964
20
-200.9261389999999778
40
0.5000003058119065
50
-258.99995242
51
-169.00006491
0
ARC
8
BLACK
10
385.4657939999999599
20
-213.6872919999999851
40
0.5000003058119065
50
-168.99995242
51
-79.00006491
0
ARC
8
BLACK
10
395.7464299999999753
20
-198.445621999999986
40
0.5000003058119065
50
11.00004758
51
100.99993509
0
ARC
8
BLACK
10
398.2240259999999807
20
-211.2062099999999987
40
0.49999597011376
50
-79.00056175
51
11.00038188
0
LINE
8
BLACK
6
CONTINUOUS
10
172.7280250000000024
20
-243.1197769999999991
11
185.4891789999999787
21
-245.600293999999991
0
LINE
8
BLACK
6
CONTINUOUS
10
174.8131329999999934
20
-229.772404999999992
11
172.3326160000000016
21
-242.5335589999999968
0
LINE
8
BLACK
6
CONTINUOUS
10
186.0753969999999811
20
-245.2048849999999902
11
188.5559140000000014
21
-232.4437309999999854
0
LINE
8
BLACK
6
CONTINUOUS
10
188.1605050000000006
20
-231.8575129999999831
11
175.3993509999999958
21
-229.3769959999999912
0
ARC
8
BLACK
10
172.8234300000000019
20
-242.6289629999999988
40
0.5000004966207533
50
-190.99993509
51
-101.00004758
0
ARC
8
BLACK
10
175.3039469999999937
20
-229.8678099999999915
40
0.5000004966207533
50
79.00006491
51
168.99995242
0
ARC
8
BLACK
10
185.5820819999999856
20
-245.1078559999999982
40
0.5000016690582142
50
-100.99991323
51
-11.00013820
0
ARC
8
BLACK
10
188.065100000000001
20
-232.3483269999999834
40
0.5000004966207533
50
-10.99993509
51
78.99995242
0
LINE
8
BLACK
6
CONTINUOUS
10
369.5095529999999826
20
-184.1390009999999791
11
371.9900700000000029
21
-196.9001549999999838
0
LINE
8
BLACK
6
CONTINUOUS
10
372.5762879999999768
20
-197.2955639999999846
11
385.33744200000001
21
-194.8150469999999927
0
LINE
8
BLACK
6
CONTINUOUS
10
382.6661159999999882
20
-181.0722659999999848
11
369.904961999999955
21
-183.5527830000000051
0
LINE
8
BLACK
6
CONTINUOUS
10
385.7328509999999824
20
-194.2288289999999904
11
383.2523339999999621
21
-181.4676749999999856
0
ARC
8
BLACK
10
370.0003669999999829
20
-184.0435970000000054
40
0.5000003058119065
50
-258.99995242
51
-169.00006491
0
ARC
8
BLACK
10
372.4808840000000032
20
-196.8047499999999843
40
0.5000003058119065
50
-168.99995242
51
-79.00006491
0
ARC
8
BLACK
10
382.7615199999999618
20
-181.5630799999999851
40
0.5000003058119065
50
11.00004758
51
100.99993509
0
ARC
8
BLACK
10
385.2391159999999672
20
-194.3236679999999978
40
0.49999597011376
50
-79.00056175
51
11.00038188
0
LINE
8
BLACK
6
CONTINUOUS
10
240.7728409999999997
20
-217.5332429999999988
11
253.533994999999976
21
-220.0137599999999907
0
LINE
8
BLACK
6
CONTINUOUS
10
242.8579489999999907
20
-204.1858709999999917
11
240.3774319999999989
21
-216.9470249999999965
0
LINE
8
BLACK
6
CONTINUOUS
10
254.1202129999999784
20
-219.6183509999999899
11
256.6007299999999987
21
-206.8571969999999851
0
LINE
8
BLACK
6
CONTINUOUS
10
256.2053209999999694
20
-206.2709789999999828
11
243.4441669999999931
21
-203.7904619999999909
0
ARC
8
BLACK
10
240.8682459999999992
20
-217.0424289999999985
40
0.5000004966207533
50
-190.99993509
51
-101.00004758
0
ARC
8
BLACK
10
243.3487629999999911
20
-204.2812759999999912
40
0.5000004966207533
50
79.00006491
51
168.99995242
0
ARC
8
BLACK
10
253.6268979999999829
20
-219.5213219999999978
40
0.5000016690582142
50
-100.99991323
51
-11.00013820
0
ARC
8
BLACK
10
256.1099159999999983
20
-206.7617929999999831
40
0.5000004966207533
50
-10.99993509
51
78.99995242
0
LINE
8
BLACK
6
CONTINUOUS
10
457.1676479999999856
20
-173.2565529999999967
11
457.1676479999999856
21
-186.2565529999999967
0
LINE
8
BLACK
6
CONTINUOUS
10
457.6676479999999856
20
-186.7565529999999967
11
470.6676479999999856
21
-186.7565529999999967
0
LINE
8
BLACK
6
CONTINUOUS
10
470.6676479999999856
20
-172.7565529999999967
11
457.6676479999999856
21
-172.7565529999999967
0
LINE
8
BLACK
6
CONTINUOUS
10
471.1676479999999856
20
-186.2565529999999967
11
471.1676479999999856
21
-173.2565529999999967
0
ARC
8
BLACK
10
457.6676479999999856
20
-173.2565529999999967
40
0.5
50
90.00000000
51
180.00000000
0
ARC
8
BLACK
10
457.6676479999999856
20
-186.2565529999999967
40
0.5
50
-180.00000000
51
-90.00000000
0
ARC
8
BLACK
10
470.6676469999999881
20
-173.2565539999999942
40
0.500001000001
50
0.00011459
51
89.99988541
0
ARC
8
BLACK
10
470.6648829999999748
20
-186.2554360000000031
40
0.500001000001
50
-89.99988541
51
-0.00011459
0
LINE
8
BLACK
6
CONTINUOUS
10
190.3879349999999988
20
-227.1459629999999947
11
203.1490890000000036
21
-229.6264799999999866
0
LINE
8
BLACK
6
CONTINUOUS
10
192.4730429999999899
20
-213.7985909999999876
11
189.992525999999998
21
-226.5597449999999924
0
LINE
8
BLACK
6
CONTINUOUS
10
203.7353069999999775
20
-229.2310709999999858
11
206.2158239999999978
21
-216.469916999999981
0
LINE
8
BLACK
6
CONTINUOUS
10
205.820414999999997
20
-215.8836989999999787
11
193.0592609999999922
21
-213.4031819999999868
0
ARC
8
BLACK
10
190.4833399999999983
20
-226.6551489999999944
40
0.5000004966207533
50
-190.99993509
51
-101.00004758
0
ARC
8
BLACK
10
192.9638569999999902
20
-213.8939959999999871
40
0.5000004966207533
50
79.00006491
51
168.99995242
0
ARC
8
BLACK
10
203.241991999999982
20
-229.1340419999999938
40
0.5000016690582142
50
-100.99991323
51
-11.00013820
0
ARC
8
BLACK
10
205.7250099999999975
20
-216.374512999999979
40
0.5000004966207533
50
-10.99993509
51
78.99995242
0
LINE
8
BLACK
6
CONTINUOUS
10
307.694471999999962
20
-215.5611889999999846
11
310.1749889999999823
21
-228.3223429999999894
0
LINE
8
BLACK
6
CONTINUOUS
10
310.7612070000000131
20
-228.7177519999999902
11
323.5223609999999894
21
-226.2372349999999983
0
LINE
8
BLACK
6
CONTINUOUS
10
320.8510349999999676
20
-212.4944539999999904
11
308.0898809999999912
21
-214.9749709999999823
0
LINE
8
BLACK
6
CONTINUOUS
10
323.9177699999999618
20
-225.651016999999996
11
321.4372529999999983
21
-212.8898629999999912
0
ARC
8
BLACK
10
308.1852859999999623
20
-215.4657849999999826
40
0.5000003058119065
50
-258.99995242
51
-169.00006491
0
ARC
8
BLACK
10
310.6658029999999826
20
-228.2269379999999899
40
0.5000003058119065
50
-168.99995242
51
-79.00006491
0
ARC
8
BLACK
10
320.946438999999998
20
-212.9852679999999907
40
0.5000003058119065
50
11.00004758
51
100.99993509
0
ARC
8
BLACK
10
323.4240350000000035
20
-225.7458560000000034
40
0.49999597011376
50
-79.00056175
51
11.00038188
0
LINE
8
BLACK
6
CONTINUOUS
10
495.2676479999999515
20
-249.4565529999999853
11
495.2676479999999515
21
-262.4565529999999853
0
LINE
8
BLACK
6
CONTINUOUS
10
495.7676479999999515
20
-262.9565529999999853
11
508.7676479999999515
21
-262.9565529999999853
0
LINE
8
BLACK
6
CONTINUOUS
10
508.7676479999999515
20
-248.9565529999999853
11
495.7676479999999515
21
-248.9565529999999853
0
LINE
8
BLACK
6
CONTINUOUS
10
509.2676479999999515
20
-262.4565529999999853
11
509.2676479999999515
21
-249.4565529999999853
0
ARC
8
BLACK
10
495.7676479999999515
20
-249.4565529999999853
40
0.5
50
90.00000000
51
180.00000000
0
ARC
8
BLACK
10
495.7676479999999515
20
-262.4565529999999853
40
0.5
50
-180.00000000
51
-90.00000000
0
ARC
8
BLACK
10
508.767646999999954
20
-249.4565539999999828
40
0.500001000001
50
0.00011459
51
89.99988541
0
ARC
8
BLACK
10
508.7648829999999975
20
-262.4554359999999633
40
0.500001000001
50
-89.99988541
51
-0.00011459
0
LINE
8
BLACK
6
CONTINUOUS
10
363.7944650000000024
20
-204.656454999999994
11
366.2749819999999659
21
-217.4176089999999988
0
LINE
8
BLACK
6
CONTINUOUS
10
366.8611999999999966
20
-217.8130179999999996
11
379.622353999999973
21
-215.3325009999999793
0
LINE
8
BLACK
6
CONTINUOUS
10
376.951028000000008
20
-201.5897199999999998
11
364.1898739999999748
21
-204.0702369999999917
0
LINE
8
BLACK
6
CONTINUOUS
10
380.0177630000000022
20
-214.7462829999999769
11
377.5372459999999819
21
-201.9851290000000006
0
ARC
8
BLACK
10
364.2852790000000027
20
-204.561050999999992
40
0.5000003058119065
50
-258.99995242
51
-169.00006491
0
ARC
8
BLACK
10
366.7657959999999662
20
-217.3222039999999993
40
0.5000003058119065
50
-168.99995242
51
-79.00006491
0
ARC
8
BLACK
10
377.0464319999999816
20
-202.0805340000000001
40
0.5000003058119065
50
11.00004758
51
100.99993509
0
ARC
8
BLACK
10
379.5240279999999871
20
-214.8411219999999844
40
0.49999597011376
50
-79.00056175
51
11.00038188
0
LINE
8
BLACK
6
CONTINUOUS
10
184.6728469999999902
20
-206.6285089999999798
11
197.434000999999995
21
-209.1090260000000001
0
LINE
8
BLACK
6
CONTINUOUS
10
186.7579549999999813
20
-193.2811370000000011
11
184.2774379999999894
21
-206.0422909999999774
0
LINE
8
BLACK
6
CONTINUOUS
10
198.0202189999999973
20
-208.7136169999999993
11
200.5007359999999892
21
-195.9524629999999945
0
LINE
8
BLACK
6
CONTINUOUS
10
200.1053269999999884
20
-195.3662449999999922
11
187.3441729999999836
21
-192.8857280000000003
0
ARC
8
BLACK
10
184.7682519999999897
20
-206.1376949999999795
40
0.5000004966207533
50
-190.99993509
51
-101.00004758
0
ARC
8
BLACK
10
187.2487689999999816
20
-193.3765420000000006
40
0.5000004966207533
50
79.00006491
51
168.99995242
0
ARC
8
BLACK
10
197.5269040000000018
20
-208.6165879999999788
40
0.5000016690582142
50
-100.99991323
51
-11.00013820
0
ARC
8
BLACK
10
200.0099219999999889
20
-195.8570589999999925
40
0.5000004966207533
50
-10.99993509
51
78.99995242
0
LINE
8
BLACK
6
CONTINUOUS
10
384.0491979999999899
20
-258.9389929999999822
11
386.5297150000000101
21
-271.7001470000000154
0
LINE
8
BLACK
6
CONTINUOUS
10
387.1159329999999841
20
-272.0955559999999878
11
399.8770869999999604
21
-269.6150389999999675
0
LINE
8
BLACK
6
CONTINUOUS
10
397.2057609999999954
20
-255.872257999999988
11
384.4446069999999622
21
-258.3527750000000083
0
LINE
8
BLACK
6
CONTINUOUS
10
400.2724959999999896
20
-269.0288209999999935
11
397.7919789999999693
21
-256.2676669999999604
0
ARC
8
BLACK
10
384.5400119999999902
20
-258.8435890000000086
40
0.5000003058119065
50
-258.99995242
51
-169.00006491
0
ARC
8
BLACK
10
387.0205290000000105
20
-271.6047419999999875
40
0.5000003058119065
50
-168.99995242
51
-79.00006491
0
ARC
8
BLACK
10
397.301164999999969
20
-256.3630719999999883
40
0.5000003058119065
50
11.00004758
51
100.99993509
0
ARC
8
BLACK
10
399.7787609999999745
20
-269.1236599999999726
40
0.49999597011376
50
-79.00056175
51
11.00038188
0
LINE
8
BLACK
6
CONTINUOUS
10
495.2676479999999515
20
-192.3065529999999796
11
495.2676479999999515
21
-205.3065529999999796
0
LINE
8
BLACK
6
CONTINUOUS
10
495.7676479999999515
20
-205.8065529999999796
11
508.7676479999999515
21
-205.8065529999999796
0
LINE
8
BLACK
6
CONTINUOUS
10
508.7676479999999515
20
-191.8065529999999796
11
495.7676479999999515
21
-191.8065529999999796
0
LINE
8
BLACK
6
CONTINUOUS
10
509.2676479999999515
20
-205.3065529999999796
11
509.2676479999999515
21
-192.3065529999999796
0
ARC
8
BLACK
10
495.7676479999999515
20
-192.3065529999999796
40
0.5
50
90.00000000
51
180.00000000
0
ARC
8
BLACK
10
495.7676479999999515
20
-205.3065529999999796
40
0.5
50
-180.00000000
51
-90.00000000
0
ARC
8
BLACK
10
508.767646999999954
20
-192.3065539999999771
40
0.500001000001
50
0.00011459
51
89.99988541
0
ARC
8
BLACK
10
508.7648829999999975
20
-205.3054359999999861
40
0.500001000001
50
-89.99988541
51
-0.00011459
0
LINE
8
BLACK
6
CONTINUOUS
10
191.428022999999996
20
-246.7546879999999874
11
204.1891770000000008
21
-249.2352049999999792
0
LINE
8
BLACK
6
CONTINUOUS
10
193.5131309999999871
20
-233.4073159999999802
11
191.0326139999999953
21
-246.168469999999985
0
LINE
8
BLACK
6
CONTINUOUS
10
204.7753950000000032
20
-248.8397959999999784
11
207.255911999999995
21
-236.0786420000000021
0
LINE
8
BLACK
6
CONTINUOUS
10
206.8605029999999942
20
-235.4924239999999998
11
194.0993489999999895
21
-233.0119069999999795
0
ARC
8
BLACK
10
191.5234279999999956
20
-246.2638739999999871
40
0.5000004966207533
50
-190.99993509
51
-101.00004758
0
ARC
8
BLACK
10
194.0039449999999874
20
-233.5027209999999798
40
0.5000004966207533
50
79.00006491
51
168.99995242
0
ARC
8
BLACK
10
204.2820799999999792
20
-248.7427669999999864
40
0.5000016690582142
50
-100.99991323
51
-11.00013820
0
ARC
8
BLACK
10
206.7650979999999947
20
-235.9832380000000001
40
0.5000004966207533
50
-10.99993509
51
78.99995242
0
LINE
8
BLACK
6
CONTINUOUS
10
364.0571860000000015
20
-156.0890039999999885
11
366.537702999999965
21
-168.8501579999999933
0
LINE
8
BLACK
6
CONTINUOUS
10
367.1239209999999957
20
-169.2455669999999941
11
379.8850749999999721
21
-166.7650500000000022
0
LINE
8
BLACK
6
CONTINUOUS
10
377.2137490000000071
20
-153.0222689999999943
11
364.4525949999999739
21
-155.5027859999999862
0
LINE
8
BLACK
6
CONTINUOUS
10
380.2804840000000013
20
-166.1788319999999999
11
377.799966999999981
21
-153.4176779999999951
0
ARC
8
BLACK
10
364.5480000000000018
20
-155.9935999999999865
40
0.5000003058119065
50
-258.99995242
51
-169.00006491
0
ARC
8
BLACK
10
367.0285169999999653
20
-168.7547529999999938
40
0.5000003058119065
50
-168.99995242
51
-79.00006491
0
ARC
8
BLACK
10
377.3091529999999807
20
-153.5130829999999946
40
0.5000003058119065
50
11.00004758
51
100.99993509
0
ARC
8
BLACK
10
379.7867489999999862
20
-166.2736709999999789
40
0.49999597011376
50
-79.00056175
51
11.00038188
0
LINE
8
BLACK
6
CONTINUOUS
10
163.1207029999999918
20
-280.0654089999999883
11
175.8818569999999966
21
-282.5459260000000086
0
LINE
8
BLACK
6
CONTINUOUS
10
165.2058109999999829
20
-266.7180369999999812
11
162.725293999999991
21
-279.4791910000000144
0
LINE
8
BLACK
6
CONTINUOUS
10
176.4680749999999989
20
-282.1505169999999794
11
178.9485919999999908
21
-269.389363000000003
0
LINE
8
BLACK
6
CONTINUOUS
10
178.55318299999999
20
-268.8031449999999722
11
165.7920289999999852
21
-266.3226280000000088
0
ARC
8
BLACK
10
163.2161079999999913
20
-279.574594999999988
40
0.5000004966207533
50
-190.99993509
51
-101.00004758
0
ARC
8
BLACK
10
165.6966249999999832
20
-266.8134420000000091
40
0.5000004966207533
50
79.00006491
51
168.99995242
0
ARC
8
BLACK
10
175.9747600000000034
20
-282.0534879999999589
40
0.5000016690582142
50
-100.99991323
51
-11.00013820
0
ARC
8
BLACK
10
178.4577779999999905
20
-269.2939589999999725
40
0.5000004966207533
50
-10.99993509
51
78.99995242
0
LINE
8
BLACK
6
CONTINUOUS
10
350.8095549999999889
20
-187.7739129999999932
11
353.2900720000000092
21
-200.535066999999998
0
LINE
8
BLACK
6
CONTINUOUS
10
353.8762899999999831
20
-200.9304759999999987
11
366.6374439999999595
21
-198.4499589999999785
0
LINE
8
BLACK
6
CONTINUOUS
10
363.9661179999999945
20
-184.707177999999999
11
351.2049639999999613
21
-187.1876949999999908
0
LINE
8
BLACK
6
CONTINUOUS
10
367.0328529999999887
20
-197.8637410000000045
11
364.5523359999999684
21
-185.1025869999999998
0
ARC
8
BLACK
10
351.3003689999999892
20
-187.6785089999999911
40
0.5000003058119065
50
-258.99995242
51
-169.00006491
0
ARC
8
BLACK
10
353.7808860000000095
20
-200.4396619999999984
40
0.5000003058119065
50
-168.99995242
51
-79.00006491
0
ARC
8
BLACK
10
364.0615219999999681
20
-185.1979919999999993
40
0.5000003058119065
50
11.00004758
51
100.99993509
0
ARC
8
BLACK
10
366.5391179999999736
20
-197.9585799999999836
40
0.49999597011376
50
-79.00056175
51
11.00038188
0
LINE
8
BLACK
6
CONTINUOUS
10
278.6043869999999743
20
-240.6222819999999842
11
281.0849039999999945
21
-253.383435999999989
0
LINE
8
BLACK
6
CONTINUOUS
10
281.6711219999999685
20
-253.7788449999999898
11
294.4322760000000017
21
-251.2983279999999979
0
LINE
8
BLACK
6
CONTINUOUS
10
291.7609499999999798
20
-237.55554699999999
11
278.9997960000000035
21
-240.0360639999999819
0
LINE
8
BLACK
6
CONTINUOUS
10
294.827684999999974
20
-250.7121099999999956
11
292.3471680000000106
21
-237.9509559999999908
0
ARC
8
BLACK
10
279.0952009999999746
20
-240.5268779999999822
40
0.5000003058119065
50
-258.99995242
51
-169.00006491
0
ARC
8
BLACK
10
281.5757179999999948
20
-253.2880309999999895
40
0.5000003058119065
50
-168.99995242
51
-79.00006491
0
ARC
8
BLACK
10
291.8563540000000103
20
-238.0463609999999903
40
0.5000003058119065
50
11.00004758
51
100.99993509
0
ARC
8
BLACK
10
294.3339499999999589
20
-250.8069489999999746
40
0.49999597011376
50
-79.00056175
51
11.00038188
0
LINE
8
BLACK
6
CONTINUOUS
10
316.0043829999999616
20
-233.3524589999999819
11
318.4848999999999819
21
-246.1136129999999866
0
LINE
8
BLACK
6
CONTINUOUS
10
319.0711180000000127
20
-246.5090219999999874
11
331.832271999999989
21
-244.0285049999999956
0
LINE
8
BLACK
6
CONTINUOUS
10
329.1609459999999672
20
-230.2857239999999877
11
316.3997919999999908
21
-232.7662409999999795
0
LINE
8
BLACK
6
CONTINUOUS
10
332.2276809999999614
20
-243.4422869999999932
11
329.7471639999999979
21
-230.6811329999999884
0
ARC
8
BLACK
10
316.4951969999999619
20
-233.2570549999999798
40
0.5000003058119065
50
-258.99995242
51
-169.00006491
0
ARC
8
BLACK
10
318.9757139999999822
20
-246.0182079999999871
40
0.5000003058119065
50
-168.99995242
51
-79.00006491
0
ARC
8
BLACK
10
329.2563499999999976
20
-230.776537999999988
40
0.5000003058119065
50
11.00004758
51
100.99993509
0
ARC
8
BLACK
10
331.7339460000000031
20
-243.5371260000000007
40
0.49999597011376
50
-79.00056175
51
11.00038188
0
LINE
8
BLACK
6
CONTINUOUS
10
405.8694600000000037
20
-196.4779039999999952
11
408.3499769999999671
21
-209.239058
0
LINE
8
BLACK
6
CONTINUOUS
10
408.9361949999999979
20
-209.6344670000000008
11
421.6973489999999742
21
-207.1539499999999805
0
LINE
8
BLACK
6
CONTINUOUS
10
419.0260230000000092
20
-193.411169000000001
11
406.264868999999976
21
-195.8916859999999929
0
LINE
8
BLACK
6
CONTINUOUS
10
422.0927580000000034
20
-206.5677319999999781
11
419.6122409999999832
21
-193.8065780000000018
0
ARC
8
BLACK
10
406.360274000000004
20
-196.3824999999999932
40
0.5000003058119065
50
-258.99995242
51
-169.00006491
0
ARC
8
BLACK
10
408.8407909999999674
20
-209.1436530000000005
40
0.5000003058119065
50
-168.99995242
51
-79.00006491
0
ARC
8
BLACK
10
419.1214269999999829
20
-193.9019830000000013
40
0.5000003058119065
50
11.00004758
51
100.99993509
0
ARC
8
BLACK
10
421.5990229999999883
20
-206.6625709999999856
40
0.49999597011376
50
-79.00056175
51
11.00038188
0
LINE
8
BLACK
6
CONTINUOUS
10
261.2071980000000053
20
-176.0810170000000028
11
263.6877149999999688
21
-188.8421709999999791
0
LINE
8
BLACK
6
CONTINUOUS
10
264.2739329999999995
20
-189.2375799999999799
11
277.0350869999999759
21
-186.7570629999999881
0
LINE
8
BLACK
6
CONTINUOUS
10
274.3637610000000109
20
-173.0142819999999801
11
261.6026069999999777
21
-175.4947990000000004
0
LINE
8
BLACK
6
CONTINUOUS
10
277.4304960000000051
20
-186.1708449999999857
11
274.9499789999999848
21
-173.4096909999999809
0
ARC
8
BLACK
10
261.6980120000000056
20
-175.9856130000000007
40
0.5000003058119065
50
-258.99995242
51
-169.00006491
0
ARC
8
BLACK
10
264.1785289999999691
20
-188.7467659999999796
40
0.5000003058119065
50
-168.99995242
51
-79.00006491
0
ARC
8
BLACK
10
274.4591649999999845
20
-173.5050959999999804
40
0.5000003058119065
50
11.00004758
51
100.99993509
0
ARC
8
BLACK
10
276.93676099999999
20
-186.2656839999999931
40
0.49999597011376
50
-79.00056175
51
11.00038188
0
LINE
8
BLACK
6
CONTINUOUS
10
139.7457049999999867
20
-275.5217700000000036
11
152.5068589999999915
21
-278.0022869999999671
0
LINE
8
BLACK
6
CONTINUOUS
10
141.8308130000000062
20
-262.1743979999999965
11
139.350295999999986
21
-274.9355519999999728
0
LINE
8
BLACK
6
CONTINUOUS
10
153.0930769999999939
20
-277.6068779999999947
11
155.5735939999999857
21
-264.8457239999999615
0
LINE
8
BLACK
6
CONTINUOUS
10
155.1781849999999849
20
-264.2595059999999876
11
142.4170309999999802
21
-261.7789889999999673
0
ARC
8
BLACK
10
139.8411099999999863
20
-275.0309560000000033
40
0.5000004966207533
50
-190.99993509
51
-101.00004758
0
ARC
8
BLACK
10
142.3216270000000065
20
-262.2698029999999676
40
0.5000004966207533
50
79.00006491
51
168.99995242
0
ARC
8
BLACK
10
152.5997619999999984
20
-277.5098489999999742
40
0.5000016690582142
50
-100.99991323
51
-11.00013820
0
ARC
8
BLACK
10
155.0827799999999854
20
-264.7503199999999879
40
0.5000004966207533
50
-10.99993509
51
78.99995242
0
LINE
8
BLACK
6
CONTINUOUS
10
228.8280189999999834
20
-254.0245109999999897
11
241.5891729999999882
21
-256.5050279999999816
0
LINE
8
BLACK
6
CONTINUOUS
10
230.9131270000000029
20
-240.6771389999999826
11
228.4326099999999826
21
-253.4382929999999874
0
LINE
8
BLACK
6
CONTINUOUS
10
242.1753909999999905
20
-256.1096190000000092
11
244.6559079999999824
21
-243.348464999999976
0
LINE
8
BLACK
6
CONTINUOUS
10
244.2604989999999816
20
-242.7622470000000021
11
231.4993449999999768
21
-240.2817299999999818
0
ARC
8
BLACK
10
228.9234239999999829
20
-253.5336969999999894
40
0.5000004966207533
50
-190.99993509
51
-101.00004758
0
ARC
8
BLACK
10
231.4039410000000032
20
-240.7725439999999821
40
0.5000004966207533
50
79.00006491
51
168.99995242
0
ARC
8
BLACK
10
241.682075999999995
20
-256.0125899999999888
40
0.5000016690582142
50
-100.99991323
51
-11.00013820
0
ARC
8
BLACK
10
244.1650939999999821
20
-243.2530610000000024
40
0.5000004966207533
50
-10.99993509
51
78.99995242
0
LINE
8
BLACK
6
CONTINUOUS
10
272.8892989999999941
20
-261.1397349999999733
11
275.3698160000000144
21
-273.9008890000000065
0
LINE
8
BLACK
6
CONTINUOUS
10
275.9560339999999883
20
-274.2962979999999789
11
288.7171879999999646
21
-271.8157810000000154
0
LINE
8
BLACK
6
CONTINUOUS
10
286.0458619999999996
20
-258.0729999999999791
11
273.2847079999999664
21
-260.5535169999999994
0
LINE
8
BLACK
6
CONTINUOUS
10
289.1125969999999938
20
-271.2295629999999846
11
286.6320799999999736
21
-258.4684090000000083
0
ARC
8
BLACK
10
273.3801129999999944
20
-261.0443309999999997
40
0.5000003058119065
50
-258.99995242
51
-169.00006491
0
ARC
8
BLACK
10
275.8606300000000147
20
-273.8054839999999786
40
0.5000003058119065
50
-168.99995242
51
-79.00006491
0
ARC
8
BLACK
10
286.1412659999999732
20
-258.5638139999999794
40
0.5000003058119065
50
11.00004758
51
100.99993509
0
ARC
8
BLACK
10
288.6188619999999787
20
-271.3244019999999637
40
0.49999597011376
50
-79.00056175
51
11.00038188
0
LINE
8
BLACK
6
CONTINUOUS
10
476.217647999999997
20
-230.4065530000000024
11
476.217647999999997
21
-243.4065530000000024
0
LINE
8
BLACK
6
CONTINUOUS
10
476.717647999999997
20
-243.9065530000000024
11
489.717647999999997
21
-243.9065530000000024
0
LINE
8
BLACK
6
CONTINUOUS
10
489.717647999999997
20
-229.9065530000000024
11
476.717647999999997
21
-229.9065530000000024
0
LINE
8
BLACK
6
CONTINUOUS
10
490.217647999999997
20
-243.4065530000000024
11
490.217647999999997
21
-230.4065530000000024
0
ARC
8
BLACK
10
476.717647999999997
20
-230.4065530000000024
40
0.5
50
90.00000000
51
180.00000000
0
ARC
8
BLACK
10
476.717647999999997
20
-243.4065530000000024
40
0.5
50
-180.00000000
51
-90.00000000
0
ARC
8
BLACK
10
489.7176469999999995
20
-230.4065539999999999
40
0.500001000001
50
0.00011459
51
89.99988541
0
ARC
8
BLACK
10
489.7148829999999862
20
-243.4054359999999804
40
0.500001000001
50
-89.99988541
51
-0.00011459
0
LINE
8
BLACK
6
CONTINUOUS
10
310.2892949999999814
20
-253.8699119999999994
11
312.7698120000000017
21
-266.6310659999999757
0
LINE
8
BLACK
6
CONTINUOUS
10
313.3560299999999756
20
-267.0264750000000049
11
326.1171840000000088
21
-264.5459579999999846
0
LINE
8
BLACK
6
CONTINUOUS
10
323.445857999999987
20
-250.8031769999999767
11
310.6847040000000106
21
-253.283693999999997
0
LINE
8
BLACK
6
CONTINUOUS
10
326.5125929999999812
20
-263.9597400000000107
11
324.0320759999999609
21
-251.1985859999999775
0
ARC
8
BLACK
10
310.7801089999999817
20
-253.7745079999999973
40
0.5000003058119065
50
-258.99995242
51
-169.00006491
0
ARC
8
BLACK
10
313.260626000000002
20
-266.5356610000000046
40
0.5000003058119065
50
-168.99995242
51
-79.00006491
0
ARC
8
BLACK
10
323.5412619999999606
20
-251.293990999999977
40
0.5000003058119065
50
11.00004758
51
100.99993509
0
ARC
8
BLACK
10
326.0188579999999661
20
-264.0545789999999897
40
0.49999597011376
50
-79.00056175
51
11.00038188
0
LINE
8
BLACK
6
CONTINUOUS
10
128.3155299999999954
20
-234.4868620000000021
11
141.0766840000000002
21
-236.967378999999994
0
LINE
8
BLACK
6
CONTINUOUS
10
130.4006379999999865
20
-221.139489999999995
11
127.9201209999999946
21
-233.9006439999999998
0
LINE
8
BLACK
6
CONTINUOUS
10
141.6629020000000025
20
-236.5719699999999932
11
144.1434189999999944
21
-223.8108159999999884
0
LINE
8
BLACK
6
CONTINUOUS
10
143.7480099999999936
20
-223.2245979999999861
11
130.9868559999999889
21
-220.7440809999999942
0
ARC
8
BLACK
10
128.4109349999999949
20
-233.9960480000000018
40
0.5000004966207533
50
-190.99993509
51
-101.00004758
0
ARC
8
BLACK
10
130.8914519999999868
20
-221.2348949999999945
40
0.5000004966207533
50
79.00006491
51
168.99995242
0
ARC
8
BLACK
10
141.169587000000007
20
-236.4749410000000012
40
0.5000016690582142
50
-100.99991323
51
-11.00013820
0
ARC
8
BLACK
10
143.6526049999999941
20
-223.7154119999999864
40
0.5000004966207533
50
-10.99993509
51
78.99995242
0
LINE
8
BLACK
6
CONTINUOUS
10
421.4491939999999772
20
-251.6691699999999798
11
423.9297109999999975
21
-264.4303239999999846
0
LINE
8
BLACK
6
CONTINUOUS
10
424.5159289999999714
20
-264.8257330000000138
11
437.2770830000000046
21
-262.3452159999999935
0
LINE
8
BLACK
6
CONTINUOUS
10
434.6057569999999828
20
-248.6024349999999856
11
421.8446030000000064
21
-251.0829519999999775
0
LINE
8
BLACK
6
CONTINUOUS
10
437.672491999999977
20
-261.7589979999999628
11
435.1919749999999567
21
-248.9978439999999864
0
ARC
8
BLACK
10
421.9400079999999775
20
-251.5737659999999778
40
0.5000003058119065
50
-258.99995242
51
-169.00006491
0
ARC
8
BLACK
10
424.4205249999999978
20
-264.3349190000000135
40
0.5000003058119065
50
-168.99995242
51
-79.00006491
0
ARC
8
BLACK
10
434.7011609999999564
20
-249.0932489999999859
40
0.5000003058119065
50
11.00004758
51
100.99993509
0
ARC
8
BLACK
10
437.1787569999999619
20
-261.8538369999999986
40
0.49999597011376
50
-79.00056175
51
11.00038188
0
CIRCLE
8
BLACK
10
341.8097399999999766
20
-181.1963109999999801
40
1.5
0
CIRCLE
8
BLACK
10
442.8097399999999766
20
-176.7963110000000029
40
3.
0
CIRCLE
8
BLACK
10
261.2097400000000107
20
-249.3963109999999972
40
2.9410879999999997
0
CIRCLE
8
BLACK
10
258.109739999999988
20
-229.4963109999999915
40
1.5
0
CIRCLE
8
BLACK
10
115.5097399999999936
20
-252.7963109999999745
40
1.5
0
CIRCLE
8
BLACK
10
187.7097399999999823
20
-276.3963109999999688
40
1.5
0
CIRCLE
8
BLACK
10
259.0097399999999652
20
-287.3963109999999688
40
1.5
0
CIRCLE
8
BLACK
10
447.2097399999999539
20
-255.1963109999999801
40
1.5
0
CIRCLE
8
BLACK
10
504.109739999999988
20
-226.2963110000000029
40
1.5
0
CIRCLE
8
BLACK
10
503.8097399999999766
20
-165.4963109999999915
40
1.5
0
CIRCLE
8
BLACK
10
425.9097399999999993
20
-147.6963109999999801
40
1.5
0
CIRCLE
8
BLACK
10
133.5097399999999936
20
-175.1963109999999801
40
1.5
0
CIRCLE
8
BLACK
10
250.5097399999999936
20
-183.0963109999999858
40
1.5
0
CIRCLE
8
BLACK
10
158.109739999999988
20
-165.1963109999999801
40
1.5
0
LINE
8
BLACK
6
CONTINUOUS
10
518.2097400000000107
20
-265.4963109999999915
11
518.2097400000000107
21
-266.8963109999999688
0
ARC
8
BLACK
10
258.3736000000000104
20
-271.009900000000016
40
37.0000541361826762
50
-100.89687657
51
-78.99323421
0
ARC
8
BLACK
10
130.9673999999999978
20
-147.7609999999999957
40
4.9999702920698441
50
78.97952744
51
169.04569094
0
LINE
8
BLACK
6
CONTINUOUS
10
518.2097400000000107
20
-141.6963109999999801
11
518.2097400000000107
21
-265.4963109999999915
0
ARC
8
BLACK
10
513.209699999999998
20
-138.6963000000000079
40
4.9999890001600003
50
-0.00012605
51
89.99954163
0
LINE
8
BLACK
6
CONTINUOUS
10
108.8097399999999908
20
-279.8963109999999688
11
105.5097569999999934
21
-279.2524119999999925
0
ARC
8
BLACK
10
256.4200000000000159
20
-102.9147999999999996
40
62.9999824303914835
50
-101.02010710
51
-78.99821129
0
LINE
8
BLACK
6
CONTINUOUS
10
441.6514259999999581
20
-273.0552220000000148
11
265.4378320000000144
21
-307.329324999999983
0
LINE
8
BLACK
6
CONTINUOUS
10
431.7730070000000069
20
-133.6963109999999801
11
513.2097400000000107
21
-133.6963109999999801
0
LINE
8
BLACK
6
CONTINUOUS
10
424.7119609999999739
20
-134.3763219999999876
11
268.442893999999967
21
-164.7569199999999796
0
ARC
8
BLACK
10
431.7729999999999677
20
-170.6962999999999795
40
36.9999874821601153
50
89.99998916
51
101.00174878
0
ARC
8
BLACK
10
513.209699999999998
20
-266.8962999999999965
40
5.0000400000120999
50
-89.99954163
51
-0.00012605
0
LINE
8
BLACK
6
CONTINUOUS
10
101.558409999999995
20
-273.3948499999999626
11
126.0585339999999945
21
-146.8108749999999816
0
LINE
8
BLACK
6
CONTINUOUS
10
513.2097400000000107
20
-271.8963109999999688
11
511.8097399999999766
21
-271.8963109999999688
0
LINE
8
BLACK
6
CONTINUOUS
10
518.2097400000000107
20
-141.6963109999999801
11
518.2097400000000107
21
-138.6963109999999801
0
ARC
8
BLACK
10
106.4672999999999945
20
-274.3449999999999704
40
4.9999581132838502
50
-190.95453806
51
-101.04093113
0
ARC
8
BLACK
10
453.6796999999999684
20
-334.8962999999999965
40
62.9999865366744274
50
89.99998727
51
101.00677251
0
LINE
8
BLACK
6
CONTINUOUS
10
244.3773369999999829
20
-164.7530610000000024
11
131.9232030000000009
21
-142.8531830000000014
0
LINE
8
BLACK
6
CONTINUOUS
10
251.3790389999999775
20
-307.3428069999999934
11
108.8097399999999908
21
-279.8963109999999688
0
LINE
8
BLACK
6
CONTINUOUS
10
511.8097399999999766
20
-271.8963109999999688
11
453.6797139999999899
21
-271.8963109999999688
  0
ENDSEC
  0
EOF
