%TF.GenerationSoftware,KiCad,Pcbnew,8.0.4*%
%TF.CreationDate,2024-08-17T15:03:33+09:00*%
%TF.ProjectId,ttaelgam,74746165-6c67-4616-9d2e-6b696361645f,rev?*%
%TF.SameCoordinates,Original*%
%TF.FileFunction,OtherDrawing,Comment*%
%FSLAX46Y46*%
G04 Gerber Fmt 4.6, Leading zero omitted, Abs format (unit mm)*
G04 Created by KiCad (PCBNEW 8.0.4) date 2024-08-17 15:03:33*
%MOMM*%
%LPD*%
G01*
G04 APERTURE LIST*
%ADD10C,0.120000*%
%ADD11C,0.100000*%
%TA.AperFunction,Profile*%
%ADD12C,0.050000*%
%TD*%
G04 APERTURE END LIST*
D10*
%TO.C,S63*%
X391383480Y-235025182D02*
X387748569Y-216325184D01*
X402396469Y-216050181D02*
X402778087Y-218013435D01*
X404359723Y-215668563D02*
X402396469Y-216050181D01*
X405067795Y-229792961D02*
X404686177Y-227829707D01*
X407031049Y-229411343D02*
X405067795Y-229792961D01*
X414175995Y-213760473D02*
X416139249Y-213378855D01*
X416139249Y-213378855D02*
X416520867Y-215342109D01*
X418428957Y-225158381D02*
X418810575Y-227121635D01*
X418810575Y-227121635D02*
X416847321Y-227503253D01*
X429823564Y-208146634D02*
X387748569Y-216325184D01*
X433458475Y-226846632D02*
X391383480Y-235025182D01*
X433458475Y-226846632D02*
X429823564Y-208146634D01*
%TO.C,S82*%
X286453315Y-294234646D02*
X282818404Y-275534648D01*
X304478803Y-273896553D02*
X304860421Y-275859807D01*
X306442057Y-273514935D02*
X304478803Y-273896553D01*
X307150129Y-287639333D02*
X306768511Y-285676079D01*
X309113383Y-287257715D02*
X307150129Y-287639333D01*
X316258329Y-271606845D02*
X318221583Y-271225227D01*
X318221583Y-271225227D02*
X318603201Y-273188481D01*
X320511291Y-283004753D02*
X320892909Y-284968007D01*
X320892909Y-284968007D02*
X318929655Y-285349625D01*
X338918397Y-264629914D02*
X282818404Y-275534648D01*
X342553308Y-283329912D02*
X286453315Y-294234646D01*
X342553308Y-283329912D02*
X338918397Y-264629914D01*
%TO.C,S30*%
X388788657Y-196716458D02*
X385153745Y-178016458D01*
X397464146Y-178195821D02*
X397845764Y-180159075D01*
X399427400Y-177814203D02*
X397464146Y-178195821D01*
X400135472Y-191938601D02*
X399753854Y-189975347D01*
X402098726Y-191556983D02*
X400135472Y-191938601D01*
X409243672Y-175906113D02*
X411206926Y-175524495D01*
X411206926Y-175524495D02*
X411588544Y-177487749D01*
X413496634Y-187304021D02*
X413878252Y-189267275D01*
X413878252Y-189267275D02*
X411914998Y-189648893D01*
X422553741Y-170746638D02*
X385153745Y-178016458D01*
X426188653Y-189446638D02*
X388788657Y-196716458D01*
X426188653Y-189446638D02*
X422553741Y-170746638D01*
%TO.C,S81*%
X180706985Y-286056094D02*
X184341897Y-267356097D01*
X200029885Y-287239826D02*
X200411503Y-285276572D01*
X201993139Y-287621444D02*
X200029885Y-287239826D01*
X202701211Y-273497046D02*
X202319593Y-275460300D01*
X204664465Y-273878664D02*
X202701211Y-273497046D01*
X213772665Y-289911152D02*
X211809411Y-289529534D01*
X214154283Y-287947898D02*
X213772665Y-289911152D01*
X214480737Y-275786754D02*
X216443991Y-276168372D01*
X216443991Y-276168372D02*
X216062373Y-278131626D01*
X232131979Y-296052101D02*
X180706985Y-286056094D01*
X232131979Y-296052101D02*
X235766891Y-277352104D01*
X235766891Y-277352104D02*
X184341897Y-267356097D01*
%TO.C,S76*%
X385668392Y-255542635D02*
X382033480Y-236842638D01*
X401356380Y-235658906D02*
X401737998Y-237622160D01*
X403319634Y-235277288D02*
X401356380Y-235658906D01*
X404027706Y-249401686D02*
X403646088Y-247438432D01*
X405990960Y-249020068D02*
X404027706Y-249401686D01*
X413135906Y-233369198D02*
X415099160Y-232987580D01*
X415099160Y-232987580D02*
X415480778Y-234950834D01*
X417388868Y-244767106D02*
X417770486Y-246730360D01*
X417770486Y-246730360D02*
X415807232Y-247111978D01*
X433458474Y-226846631D02*
X382033480Y-236842638D01*
X437093386Y-245546628D02*
X385668392Y-255542635D01*
X437093386Y-245546628D02*
X433458474Y-226846631D01*
%TO.C,S64*%
X114216905Y-253725180D02*
X117851816Y-235025182D01*
X128864805Y-254000183D02*
X129246423Y-252036929D01*
X130828059Y-254381801D02*
X128864805Y-254000183D01*
X131536131Y-240257403D02*
X131154513Y-242220657D01*
X133499385Y-240639021D02*
X131536131Y-240257403D01*
X142607585Y-256671509D02*
X140644331Y-256289891D01*
X142989203Y-254708255D02*
X142607585Y-256671509D01*
X143315657Y-242547111D02*
X145278911Y-242928729D01*
X145278911Y-242928729D02*
X144897293Y-244891983D01*
X156291900Y-261903730D02*
X114216905Y-253725180D01*
X156291900Y-261903730D02*
X159926811Y-243203732D01*
X159926811Y-243203732D02*
X117851816Y-235025182D01*
D11*
%TO.C,MX52*%
X172911722Y-226321191D02*
X169276810Y-245021189D01*
X150576812Y-241386277D01*
X154211724Y-222686279D01*
X172911722Y-226321191D01*
%TO.C,MX2*%
X185633912Y-160871198D02*
X181999000Y-179571196D01*
X163299002Y-175936284D01*
X166933914Y-157236286D01*
X185633912Y-160871198D01*
%TO.C,MX55*%
X229011716Y-237225925D02*
X225376804Y-255925923D01*
X206676806Y-252291011D01*
X210311718Y-233591013D01*
X229011716Y-237225925D01*
%TO.C,MX18*%
X166156547Y-186195011D02*
X162521635Y-204895009D01*
X143821637Y-201260097D01*
X147456549Y-182560099D01*
X166156547Y-186195011D01*
%TO.C,MX24*%
X295288668Y-214891015D02*
X276588670Y-218525927D01*
X272953758Y-199825929D01*
X291653756Y-196191017D01*
X295288668Y-214891015D01*
%TO.C,MX69*%
X253426801Y-261378290D02*
X249791889Y-280078288D01*
X231091891Y-276443376D01*
X234726803Y-257743378D01*
X253426801Y-261378290D01*
%TO.C,MX66*%
X197326808Y-250473555D02*
X193691896Y-269173553D01*
X174991898Y-265538641D01*
X178626810Y-246838643D01*
X197326808Y-250473555D01*
%TO.C,MX84*%
X384628304Y-275151361D02*
X365928306Y-278786273D01*
X362293394Y-260086275D01*
X380993392Y-256451363D01*
X384628304Y-275151361D01*
%TO.C,MX58*%
X316583489Y-249564827D02*
X297883491Y-253199739D01*
X294248579Y-234499741D01*
X312948577Y-230864829D01*
X316583489Y-249564827D01*
%TO.C,MX64*%
X148239313Y-240931913D02*
X144604401Y-259631911D01*
X125904403Y-255996999D01*
X129539315Y-237297001D01*
X148239313Y-240931913D01*
%TO.C,MX78*%
X137591902Y-258268819D02*
X133956991Y-276968817D01*
X110581994Y-272425177D01*
X114216905Y-253725179D01*
X137591902Y-258268819D01*
%TO.C,MX73*%
X348268397Y-262812458D02*
X329568399Y-266447370D01*
X325933487Y-247747372D01*
X344633485Y-244112460D01*
X348268397Y-262812458D01*
%TO.C,MX61*%
X372683482Y-238660093D02*
X353983484Y-242295005D01*
X350348572Y-223595007D01*
X369048570Y-219960095D01*
X372683482Y-238660093D01*
%TO.C,MX63*%
X421770977Y-229118451D02*
X403070979Y-232753363D01*
X399436067Y-214053365D01*
X418136065Y-210418453D01*
X421770977Y-229118451D01*
%TO.C,MX89*%
X473692648Y-265481553D02*
X492742648Y-265481553D01*
X492742648Y-246431553D01*
X473692648Y-246431553D01*
X473692648Y-265481553D01*
%TO.C,MX22*%
X240956538Y-200734657D02*
X237321626Y-219434655D01*
X218621628Y-215799743D01*
X222256540Y-197099745D01*
X240956538Y-200734657D01*
%TO.C,MX44*%
X364373571Y-220868823D02*
X345673573Y-224503735D01*
X342038661Y-205803737D01*
X360738659Y-202168825D01*
X364373571Y-220868823D01*
%TO.C,MX67*%
X216026805Y-254108467D02*
X212391893Y-272808465D01*
X193691895Y-269173553D01*
X197326807Y-250473555D01*
X216026805Y-254108467D01*
%TO.C,MX74*%
X366968395Y-259177547D02*
X348268397Y-262812459D01*
X344633485Y-244112461D01*
X363333483Y-240477549D01*
X366968395Y-259177547D01*
%TO.C,MX36*%
X190571632Y-210347376D02*
X186936720Y-229047374D01*
X168236722Y-225412462D01*
X171871634Y-206712464D01*
X190571632Y-210347376D01*
%TO.C,MX39*%
X246671625Y-221252110D02*
X243036713Y-239952108D01*
X224336715Y-236317196D01*
X227971627Y-217617198D01*
X246671625Y-221252110D01*
%TO.C,MX88*%
X454642648Y-265481553D02*
X473692648Y-265481553D01*
X473692648Y-246431553D01*
X454642648Y-246431553D01*
X454642648Y-265481553D01*
%TO.C,MX19*%
X184856544Y-189829923D02*
X181221632Y-208529921D01*
X162521634Y-204895009D01*
X166156546Y-186195011D01*
X184856544Y-189829923D01*
%TO.C,MX3*%
X204333910Y-164506110D02*
X200698998Y-183206108D01*
X181999000Y-179571196D01*
X185633912Y-160871198D01*
X204333910Y-164506110D01*
%TO.C,MX71*%
X310868401Y-270082281D02*
X292168403Y-273717193D01*
X288533491Y-255017195D01*
X307233489Y-251382283D01*
X310868401Y-270082281D01*
%TO.C,MX27*%
X351388661Y-203986281D02*
X332688663Y-207621193D01*
X329053751Y-188921195D01*
X347753749Y-185286283D01*
X351388661Y-203986281D01*
%TO.C,MX5*%
X241733905Y-171775932D02*
X238098993Y-190475930D01*
X219398995Y-186841018D01*
X223033907Y-168141020D01*
X241733905Y-171775932D01*
%TO.C,MX76*%
X420730888Y-248727176D02*
X402030890Y-252362088D01*
X398395978Y-233662090D01*
X417095976Y-230027178D01*
X420730888Y-248727176D01*
%TO.C,MX9*%
X336586295Y-177753740D02*
X317886297Y-181388652D01*
X314251385Y-162688654D01*
X332951383Y-159053742D01*
X336586295Y-177753740D01*
%TO.C,MX13*%
X420736285Y-161396639D02*
X402036287Y-165031551D01*
X398401375Y-146331553D01*
X417101373Y-142696641D01*
X420736285Y-161396639D01*
%TO.C,MX21*%
X222256540Y-197099745D02*
X218621628Y-215799743D01*
X199921630Y-212164831D01*
X203556542Y-193464833D01*
X222256540Y-197099745D01*
%TO.C,MX33*%
X492742648Y-189281553D02*
X511792648Y-189281553D01*
X511792648Y-170231553D01*
X492742648Y-170231553D01*
X492742648Y-189281553D01*
%TO.C,MX26*%
X332688663Y-207621192D02*
X313988665Y-211256104D01*
X310353753Y-192556106D01*
X329053751Y-188921194D01*
X332688663Y-207621192D01*
%TO.C,MX12*%
X402036288Y-165031550D02*
X383336290Y-168666462D01*
X379701378Y-149966464D01*
X398401376Y-146331552D01*
X402036288Y-165031550D01*
%TO.C,MX16*%
X492742648Y-160706553D02*
X511792648Y-160706553D01*
X511792648Y-141656553D01*
X492742648Y-141656553D01*
X492742648Y-160706553D01*
%TO.C,MX34*%
X153171636Y-203077554D02*
X149536725Y-221777551D01*
X121486728Y-216325184D01*
X125121639Y-197625187D01*
X153171636Y-203077554D01*
%TO.C,MX40*%
X289573580Y-235408469D02*
X270873582Y-239043381D01*
X267238670Y-220343383D01*
X285938668Y-216708471D01*
X289573580Y-235408469D01*
%TO.C,MX82*%
X323853311Y-286964823D02*
X305153313Y-290599735D01*
X301518401Y-271899737D01*
X320218399Y-268264825D01*
X323853311Y-286964823D01*
%TO.C,MX43*%
X345673574Y-224503734D02*
X326973576Y-228138646D01*
X323338664Y-209438648D01*
X342038662Y-205803736D01*
X345673574Y-224503734D01*
%TO.C,MX30*%
X416838654Y-191264091D02*
X398138656Y-194899003D01*
X394503744Y-176199005D01*
X413203742Y-172564093D01*
X416838654Y-191264091D01*
%TO.C,MX7*%
X299186299Y-185023563D02*
X280486301Y-188658475D01*
X276851389Y-169958477D01*
X295551387Y-166323565D01*
X299186299Y-185023563D01*
%TO.C,MX68*%
X234726803Y-257743378D02*
X231091891Y-276443376D01*
X212391893Y-272808464D01*
X216026805Y-254108466D01*
X234726803Y-257743378D01*
%TO.C,MX17*%
X147456549Y-182560100D02*
X143821637Y-201260098D01*
X125121639Y-197625186D01*
X128756551Y-178925188D01*
X147456549Y-182560100D01*
%TO.C,MX35*%
X171871634Y-206712465D02*
X168236722Y-225412463D01*
X149536724Y-221777551D01*
X153171636Y-203077553D01*
X171871634Y-206712465D01*
%TO.C,MX4*%
X223033908Y-168141021D02*
X219398996Y-186841019D01*
X200698998Y-183206107D01*
X204333910Y-164506109D01*
X223033908Y-168141021D01*
%TO.C,MX8*%
X317886297Y-181388651D02*
X299186299Y-185023563D01*
X295551387Y-166323565D01*
X314251385Y-162688653D01*
X317886297Y-181388651D01*
%TO.C,MX1*%
X152908916Y-154510103D02*
X149274004Y-173210101D01*
X130574006Y-169575189D01*
X134208918Y-150875191D01*
X152908916Y-154510103D01*
%TO.C,MX49*%
X473692648Y-208331553D02*
X492742648Y-208331553D01*
X492742648Y-189281553D01*
X473692648Y-189281553D01*
X473692648Y-208331553D01*
%TO.C,MX83*%
X365928306Y-278786272D02*
X342553309Y-283329912D01*
X338918398Y-264629914D01*
X362293395Y-260086274D01*
X365928306Y-278786272D01*
%TO.C,MX48*%
X454642648Y-208331553D02*
X473692648Y-208331553D01*
X473692648Y-189281553D01*
X454642648Y-189281553D01*
X454642648Y-208331553D01*
%TO.C,MX62*%
X391383480Y-235025182D02*
X372683482Y-238660094D01*
X369048570Y-219960096D01*
X387748568Y-216325184D01*
X391383480Y-235025182D01*
%TO.C,MX75*%
X385668392Y-255542635D02*
X366968394Y-259177547D01*
X363333482Y-240477549D01*
X382033480Y-236842637D01*
X385668392Y-255542635D01*
%TO.C,MX25*%
X313988665Y-211256104D02*
X295288667Y-214891016D01*
X291653755Y-196191018D01*
X310353753Y-192556106D01*
X313988665Y-211256104D01*
%TO.C,MX32*%
X473692648Y-189281553D02*
X492742648Y-189281553D01*
X492742648Y-170231553D01*
X473692648Y-170231553D01*
X473692648Y-189281553D01*
%TO.C,MX15*%
X473692648Y-160706553D02*
X492742648Y-160706553D01*
X492742648Y-141656553D01*
X473692648Y-141656553D01*
X473692648Y-160706553D01*
%TO.C,MX41*%
X308273578Y-231773557D02*
X289573580Y-235408469D01*
X285938668Y-216708471D01*
X304638666Y-213073559D01*
X308273578Y-231773557D01*
%TO.C,MX86*%
X422028300Y-267881538D02*
X403328302Y-271516450D01*
X399693390Y-252816452D01*
X418393388Y-249181540D01*
X422028300Y-267881538D01*
%TO.C,MX60*%
X353983484Y-242295004D02*
X335283486Y-245929916D01*
X331648574Y-227229918D01*
X350348572Y-223595006D01*
X353983484Y-242295004D01*
%TO.C,MX10*%
X364636292Y-172301373D02*
X345936294Y-175936285D01*
X342301382Y-157236287D01*
X361001380Y-153601375D01*
X364636292Y-172301373D01*
%TO.C,MX81*%
X219404393Y-274171556D02*
X215769481Y-292871554D01*
X197069483Y-289236642D01*
X200704395Y-270536644D01*
X219404393Y-274171556D01*
%TO.C,MX65*%
X178626810Y-246838644D02*
X174991898Y-265538642D01*
X156291900Y-261903730D01*
X159926812Y-243203732D01*
X178626810Y-246838644D01*
%TO.C,MX14*%
X454642648Y-160706553D02*
X473692648Y-160706553D01*
X473692648Y-141656553D01*
X454642648Y-141656553D01*
X454642648Y-160706553D01*
%TO.C,MX38*%
X227971628Y-217617199D02*
X224336716Y-236317197D01*
X205636718Y-232682285D01*
X209271630Y-213982287D01*
X227971628Y-217617199D01*
%TO.C,MX46*%
X401773567Y-213599000D02*
X383073569Y-217233912D01*
X379438657Y-198533914D01*
X398138655Y-194899002D01*
X401773567Y-213599000D01*
%TO.C,MX53*%
X191611720Y-229956102D02*
X187976808Y-248656100D01*
X169276810Y-245021188D01*
X172911722Y-226321190D01*
X191611720Y-229956102D01*
%TO.C,MX29*%
X388788657Y-196716458D02*
X370088659Y-200351370D01*
X366453747Y-181651372D01*
X385153745Y-178016460D01*
X388788657Y-196716458D01*
%TO.C,MX23*%
X259656536Y-204369568D02*
X256021624Y-223069566D01*
X237321626Y-219434654D01*
X240956538Y-200734656D01*
X259656536Y-204369568D01*
%TO.C,MX31*%
X454642648Y-189281553D02*
X473692648Y-189281553D01*
X473692648Y-170231553D01*
X454642648Y-170231553D01*
X454642648Y-189281553D01*
%TO.C,MX37*%
X209271630Y-213982288D02*
X205636718Y-232682286D01*
X186936720Y-229047374D01*
X190571632Y-210347376D01*
X209271630Y-213982288D01*
%TO.C,MX42*%
X326973576Y-228138646D02*
X308273578Y-231773558D01*
X304638666Y-213073560D01*
X323338664Y-209438648D01*
X326973576Y-228138646D01*
%TO.C,MX90*%
X492742648Y-265481553D02*
X511792648Y-265481553D01*
X511792648Y-246431553D01*
X492742648Y-246431553D01*
X492742648Y-265481553D01*
%TO.C,MX45*%
X383073569Y-217233912D02*
X364373571Y-220868824D01*
X360738659Y-202168826D01*
X379438657Y-198533914D01*
X383073569Y-217233912D01*
%TO.C,MX20*%
X203556542Y-193464834D02*
X199921630Y-212164832D01*
X181221632Y-208529920D01*
X184856544Y-189829922D01*
X203556542Y-193464834D01*
%TO.C,MX85*%
X403328302Y-271516450D02*
X384628304Y-275151362D01*
X380993392Y-256451364D01*
X399693390Y-252816452D01*
X403328302Y-271516450D01*
%TO.C,MX50*%
X492742648Y-208331553D02*
X511792648Y-208331553D01*
X511792648Y-189281553D01*
X492742648Y-189281553D01*
X492742648Y-208331553D01*
%TO.C,MX54*%
X210311718Y-233591013D02*
X206676806Y-252291011D01*
X187976808Y-248656099D01*
X191611720Y-229956101D01*
X210311718Y-233591013D01*
%TO.C,MX11*%
X383336290Y-168666461D02*
X364636292Y-172301373D01*
X361001380Y-153601375D01*
X379701378Y-149966463D01*
X383336290Y-168666461D01*
%TO.C,MX80*%
X184341897Y-267356098D02*
X180706986Y-286056096D01*
X157331989Y-281512456D01*
X160966900Y-262812458D01*
X184341897Y-267356098D01*
%TO.C,MX28*%
X370088659Y-200351370D02*
X351388661Y-203986282D01*
X347753749Y-185286284D01*
X366453747Y-181651372D01*
X370088659Y-200351370D01*
%TO.C,MX57*%
X297883491Y-253199739D02*
X279183493Y-256834651D01*
X275548581Y-238134653D01*
X294248579Y-234499741D01*
X297883491Y-253199739D01*
%TO.C,MX59*%
X335283487Y-245929916D02*
X316583489Y-249564828D01*
X312948577Y-230864830D01*
X331648575Y-227229918D01*
X335283487Y-245929916D01*
%TO.C,MX47*%
X429823563Y-208146633D02*
X401773566Y-213599000D01*
X398138655Y-194899003D01*
X426188652Y-189446636D01*
X429823563Y-208146633D01*
%TO.C,MX6*%
X280486302Y-188658474D02*
X261786304Y-192293386D01*
X258151392Y-173593388D01*
X276851390Y-169958476D01*
X280486302Y-188658474D01*
%TO.C,MX79*%
X160966899Y-262812459D02*
X157331988Y-281512457D01*
X133956991Y-276968817D01*
X137591902Y-258268819D01*
X160966899Y-262812459D01*
%TO.C,MX56*%
X247711714Y-240860836D02*
X244076802Y-259560834D01*
X225376804Y-255925922D01*
X229011716Y-237225924D01*
X247711714Y-240860836D01*
%TO.C,MX70*%
X292168403Y-273717192D02*
X273468405Y-277352104D01*
X269833493Y-258652106D01*
X288533491Y-255017194D01*
X292168403Y-273717192D01*
%TO.C,MX77*%
X473692648Y-246431553D02*
X492742648Y-246431553D01*
X492742648Y-227381553D01*
X473692648Y-227381553D01*
X473692648Y-246431553D01*
%TO.C,MX72*%
X329568399Y-266447369D02*
X310868401Y-270082281D01*
X307233489Y-251382283D01*
X325933487Y-247747371D01*
X329568399Y-266447369D01*
%TO.C,MX51*%
X158886723Y-223595006D02*
X155251812Y-242295004D01*
X122526816Y-235933909D01*
X126161727Y-217233911D01*
X158886723Y-223595006D01*
%TO.C,MX87*%
X440728298Y-264246627D02*
X422028300Y-267881539D01*
X418393388Y-249181541D01*
X437093386Y-245546629D01*
X440728298Y-264246627D01*
%TD*%
D12*
X518209740Y-265496311D02*
X518209740Y-266896311D01*
X259609740Y-229496311D02*
G75*
G02*
X256609740Y-229496311I-1500000J0D01*
G01*
X256609740Y-229496311D02*
G75*
G02*
X259609740Y-229496311I1500000J0D01*
G01*
X265437832Y-307329325D02*
G75*
G02*
X251379039Y-307342807I-7064232J36319425D01*
G01*
X135009740Y-175196311D02*
G75*
G02*
X132009740Y-175196311I-1500000J0D01*
G01*
X132009740Y-175196311D02*
G75*
G02*
X135009740Y-175196311I1500000J0D01*
G01*
X126058534Y-146810875D02*
G75*
G02*
X131923193Y-142853234I4908866J-950125D01*
G01*
X518209740Y-141696311D02*
X518209740Y-265496311D01*
X513209740Y-133696311D02*
G75*
G02*
X518209689Y-138696311I-40J-4999989D01*
G01*
X108809740Y-279896311D02*
X105509757Y-279252412D01*
X268442894Y-164756920D02*
G75*
G02*
X244377335Y-164753073I-12022894J61842120D01*
G01*
X448709740Y-255196311D02*
G75*
G02*
X445709740Y-255196311I-1500000J0D01*
G01*
X445709740Y-255196311D02*
G75*
G02*
X448709740Y-255196311I1500000J0D01*
G01*
X159609740Y-165196311D02*
G75*
G02*
X156609740Y-165196311I-1500000J0D01*
G01*
X156609740Y-165196311D02*
G75*
G02*
X159609740Y-165196311I1500000J0D01*
G01*
X441651426Y-273055222D02*
X265437832Y-307329325D01*
X431773007Y-133696311D02*
X513209740Y-133696311D01*
X424711961Y-134376322D02*
X268442894Y-164756920D01*
X424711961Y-134376322D02*
G75*
G02*
X431773007Y-133696313I7061039J-36319978D01*
G01*
X518209740Y-266896311D02*
G75*
G02*
X513209740Y-271896340I-5000040J11D01*
G01*
X505609740Y-226296311D02*
G75*
G02*
X502609740Y-226296311I-1500000J0D01*
G01*
X502609740Y-226296311D02*
G75*
G02*
X505609740Y-226296311I1500000J0D01*
G01*
X101558410Y-273394850D02*
X126058534Y-146810875D01*
X513209740Y-271896311D02*
X511809740Y-271896311D01*
X505309740Y-165496311D02*
G75*
G02*
X502309740Y-165496311I-1500000J0D01*
G01*
X502309740Y-165496311D02*
G75*
G02*
X505309740Y-165496311I1500000J0D01*
G01*
X117009740Y-252796311D02*
G75*
G02*
X114009740Y-252796311I-1500000J0D01*
G01*
X114009740Y-252796311D02*
G75*
G02*
X117009740Y-252796311I1500000J0D01*
G01*
X518209740Y-141696311D02*
X518209740Y-138696311D01*
X252009740Y-183096311D02*
G75*
G02*
X249009740Y-183096311I-1500000J0D01*
G01*
X249009740Y-183096311D02*
G75*
G02*
X252009740Y-183096311I1500000J0D01*
G01*
X445809740Y-176796311D02*
G75*
G02*
X439809740Y-176796311I-3000000J0D01*
G01*
X439809740Y-176796311D02*
G75*
G02*
X445809740Y-176796311I3000000J0D01*
G01*
X260509740Y-287396311D02*
G75*
G02*
X257509740Y-287396311I-1500000J0D01*
G01*
X257509740Y-287396311D02*
G75*
G02*
X260509740Y-287396311I1500000J0D01*
G01*
X105509757Y-279252412D02*
G75*
G02*
X101558450Y-273394858I957543J4907412D01*
G01*
X189209740Y-276396311D02*
G75*
G02*
X186209740Y-276396311I-1500000J0D01*
G01*
X186209740Y-276396311D02*
G75*
G02*
X189209740Y-276396311I1500000J0D01*
G01*
X264150828Y-249396311D02*
G75*
G02*
X258268652Y-249396311I-2941088J0D01*
G01*
X258268652Y-249396311D02*
G75*
G02*
X264150828Y-249396311I2941088J0D01*
G01*
X343309740Y-181196311D02*
G75*
G02*
X340309740Y-181196311I-1500000J0D01*
G01*
X340309740Y-181196311D02*
G75*
G02*
X343309740Y-181196311I1500000J0D01*
G01*
X441651426Y-273055222D02*
G75*
G02*
X453679714Y-271896313I12028274J-61841078D01*
G01*
X427409740Y-147696311D02*
G75*
G02*
X424409740Y-147696311I-1500000J0D01*
G01*
X424409740Y-147696311D02*
G75*
G02*
X427409740Y-147696311I1500000J0D01*
G01*
X244377337Y-164753061D02*
X131923203Y-142853183D01*
X251379039Y-307342807D02*
X108809740Y-279896311D01*
X511809740Y-271896311D02*
X453679714Y-271896311D01*
M02*
