%TF.GenerationSoftware,KiCad,Pcbnew,8.0.4*%
%TF.CreationDate,2024-08-17T15:03:33+09:00*%
%TF.ProjectId,ttaelgam,74746165-6c67-4616-9d2e-6b696361645f,rev?*%
%TF.SameCoordinates,Original*%
%TF.FileFunction,Legend,Bot*%
%TF.FilePolarity,Positive*%
%FSLAX46Y46*%
G04 Gerber Fmt 4.6, Leading zero omitted, Abs format (unit mm)*
G04 Created by KiCad (PCBNEW 8.0.4) date 2024-08-17 15:03:33*
%MOMM*%
%LPD*%
G01*
G04 APERTURE LIST*
%ADD10C,0.150000*%
%ADD11C,0.120000*%
%TA.AperFunction,Profile*%
%ADD12C,0.050000*%
%TD*%
G04 APERTURE END LIST*
D10*
%TO.C,MX52*%
X155935031Y-231848212D02*
X155980825Y-231612622D01*
X156677279Y-228029683D02*
X156524630Y-228814984D01*
X162063168Y-231164963D02*
X166544123Y-232035972D01*
X164813750Y-227573819D02*
X159022150Y-226448046D01*
X167130341Y-231640563D02*
X167220020Y-231179198D01*
X167763827Y-228381561D02*
X167807713Y-228155787D01*
X167807713Y-228155787D02*
X166286191Y-227860033D01*
X156677279Y-228029683D02*
G75*
G02*
X159022150Y-226448046I1963259J-381624D01*
G01*
X159459910Y-232533380D02*
G75*
G02*
X162063168Y-231164963I2154136J-937589D01*
G01*
X167130341Y-231640563D02*
G75*
G02*
X166544123Y-232035972I-490814J95405D01*
G01*
D11*
%TO.C,D88*%
X463110338Y-260586278D02*
X464524552Y-262000492D01*
X465945836Y-257750780D02*
X463110338Y-260586278D01*
X467360050Y-259164994D02*
X464524552Y-262000492D01*
%TO.C,D7*%
X287864353Y-182237428D02*
X289522427Y-183355813D01*
X290106717Y-178912987D02*
X287864353Y-182237428D01*
X291764792Y-180031373D02*
X289522427Y-183355813D01*
D10*
%TO.C,MX2*%
X168657221Y-166398219D02*
X168703015Y-166162629D01*
X169399469Y-162579690D02*
X169246820Y-163364991D01*
X174785358Y-165714970D02*
X179266313Y-166585979D01*
X177535940Y-162123826D02*
X171744340Y-160998053D01*
X179852531Y-166190570D02*
X179942210Y-165729205D01*
X180486017Y-162931568D02*
X180529903Y-162705794D01*
X180529903Y-162705794D02*
X179008381Y-162410040D01*
X169399469Y-162579690D02*
G75*
G02*
X171744340Y-160998053I1963259J-381624D01*
G01*
X172182100Y-167083387D02*
G75*
G02*
X174785358Y-165714970I2154136J-937589D01*
G01*
X179852531Y-166190570D02*
G75*
G02*
X179266313Y-166585979I-490814J95405D01*
G01*
%TO.C,MX55*%
X212035025Y-242752946D02*
X212080819Y-242517356D01*
X212777273Y-238934417D02*
X212624624Y-239719718D01*
X218163162Y-242069697D02*
X222644117Y-242940706D01*
X220913744Y-238478553D02*
X215122144Y-237352780D01*
X223230335Y-242545297D02*
X223320014Y-242083932D01*
X223863821Y-239286295D02*
X223907707Y-239060521D01*
X223907707Y-239060521D02*
X222386185Y-238764767D01*
X212777273Y-238934417D02*
G75*
G02*
X215122144Y-237352780I1963259J-381624D01*
G01*
X215559904Y-243438114D02*
G75*
G02*
X218163162Y-242069697I2154136J-937589D01*
G01*
X223230335Y-242545297D02*
G75*
G02*
X222644117Y-242940706I-490814J95405D01*
G01*
D11*
%TO.C,D33*%
X501210338Y-184386278D02*
X502624552Y-185800492D01*
X504045836Y-181550780D02*
X501210338Y-184386278D01*
X505460050Y-182964994D02*
X502624552Y-185800492D01*
%TO.C,D5*%
X228645174Y-183651396D02*
X229763559Y-185309470D01*
X231969614Y-181409031D02*
X228645174Y-183651396D01*
X233088000Y-183067106D02*
X229763559Y-185309470D01*
D10*
%TO.C,MX18*%
X149179856Y-191722032D02*
X149225650Y-191486442D01*
X149922104Y-187903503D02*
X149769455Y-188688804D01*
X155307993Y-191038783D02*
X159788948Y-191909792D01*
X158058575Y-187447639D02*
X152266975Y-186321866D01*
X160375166Y-191514383D02*
X160464845Y-191053018D01*
X161008652Y-188255381D02*
X161052538Y-188029607D01*
X161052538Y-188029607D02*
X159531016Y-187733853D01*
X149922104Y-187903503D02*
G75*
G02*
X152266975Y-186321866I1963259J-381624D01*
G01*
X152704735Y-192407200D02*
G75*
G02*
X155307993Y-191038783I2154136J-937589D01*
G01*
X160375166Y-191514383D02*
G75*
G02*
X159788948Y-191909792I-490814J95405D01*
G01*
D11*
%TO.C,C3*%
X457649740Y-217857424D02*
X457649740Y-218073096D01*
X458369740Y-217857424D02*
X458369740Y-218073096D01*
D10*
%TO.C,MX24*%
X277241454Y-203856633D02*
X277394101Y-204641935D01*
X277983701Y-207675163D02*
X277937907Y-207439572D01*
X283409661Y-204746024D02*
X287890617Y-203875015D01*
X284614691Y-200385988D02*
X278823090Y-201511761D01*
X287608654Y-199804020D02*
X286087132Y-200099774D01*
X287652540Y-200029795D02*
X287608654Y-199804020D01*
X288286026Y-203288797D02*
X288196345Y-202827432D01*
X277241454Y-203856633D02*
G75*
G02*
X278823090Y-201511761I1963246J381623D01*
G01*
X281508581Y-206989996D02*
G75*
G02*
X283409661Y-204746025I2348504J-62362D01*
G01*
X288286026Y-203288797D02*
G75*
G02*
X287890617Y-203875015I-490814J-95404D01*
G01*
D11*
%TO.C,C6*%
X466257465Y-230776841D02*
X466409968Y-230929344D01*
X466766582Y-230267724D02*
X466919085Y-230420227D01*
D10*
%TO.C,MX69*%
X236450110Y-266905311D02*
X236495904Y-266669721D01*
X237192358Y-263086782D02*
X237039709Y-263872083D01*
X242578247Y-266222062D02*
X247059202Y-267093071D01*
X245328829Y-262630918D02*
X239537229Y-261505145D01*
X247645420Y-266697662D02*
X247735099Y-266236297D01*
X248278906Y-263438660D02*
X248322792Y-263212886D01*
X248322792Y-263212886D02*
X246801270Y-262917132D01*
X237192358Y-263086782D02*
G75*
G02*
X239537229Y-261505145I1963259J-381624D01*
G01*
X239974989Y-267590479D02*
G75*
G02*
X242578247Y-266222062I2154136J-937589D01*
G01*
X247645420Y-266697662D02*
G75*
G02*
X247059202Y-267093071I-490814J95405D01*
G01*
%TO.C,MX66*%
X180350117Y-256000576D02*
X180395911Y-255764986D01*
X181092365Y-252182047D02*
X180939716Y-252967348D01*
X186478254Y-255317327D02*
X190959209Y-256188336D01*
X189228836Y-251726183D02*
X183437236Y-250600410D01*
X191545427Y-255792927D02*
X191635106Y-255331562D01*
X192178913Y-252533925D02*
X192222799Y-252308151D01*
X192222799Y-252308151D02*
X190701277Y-252012397D01*
X181092365Y-252182047D02*
G75*
G02*
X183437236Y-250600410I1963259J-381624D01*
G01*
X183874996Y-256685744D02*
G75*
G02*
X186478254Y-255317327I2154136J-937589D01*
G01*
X191545427Y-255792927D02*
G75*
G02*
X190959209Y-256188336I-490814J95405D01*
G01*
D11*
%TO.C,D55*%
X215922984Y-249101389D02*
X217041369Y-250759463D01*
X219247424Y-246859024D02*
X215922984Y-249101389D01*
X220365810Y-248517099D02*
X217041369Y-250759463D01*
%TO.C,D83*%
X352268861Y-276454502D02*
X353926935Y-277572887D01*
X354511225Y-273130061D02*
X352268861Y-276454502D01*
X356169300Y-274248447D02*
X353926935Y-277572887D01*
%TO.C,C11*%
X458678930Y-216168567D02*
X458831433Y-216321070D01*
X459188047Y-215659450D02*
X459340550Y-215811953D01*
%TO.C,D43*%
X334351628Y-221717600D02*
X336009702Y-222835985D01*
X336593992Y-218393159D02*
X334351628Y-221717600D01*
X338252067Y-219511545D02*
X336009702Y-222835985D01*
%TO.C,D70*%
X280846457Y-270931058D02*
X282504531Y-272049443D01*
X283088821Y-267606617D02*
X280846457Y-270931058D01*
X284746896Y-268725003D02*
X282504531Y-272049443D01*
%TO.C,R5*%
X476182861Y-214379737D02*
X475875579Y-214379737D01*
X476182861Y-215139737D02*
X475875579Y-215139737D01*
%TO.C,D42*%
X315651630Y-225352511D02*
X317309704Y-226470896D01*
X317893994Y-222028070D02*
X315651630Y-225352511D01*
X319552069Y-223146456D02*
X317309704Y-226470896D01*
D10*
%TO.C,MX84*%
X366581090Y-264116979D02*
X366733737Y-264902281D01*
X367323337Y-267935509D02*
X367277543Y-267699918D01*
X372749297Y-265006370D02*
X377230253Y-264135361D01*
X373954327Y-260646334D02*
X368162726Y-261772107D01*
X376948290Y-260064366D02*
X375426768Y-260360120D01*
X376992176Y-260290141D02*
X376948290Y-260064366D01*
X377625662Y-263549143D02*
X377535981Y-263087778D01*
X366581090Y-264116979D02*
G75*
G02*
X368162726Y-261772107I1963246J381623D01*
G01*
X370848217Y-267250342D02*
G75*
G02*
X372749297Y-265006371I2348504J-62362D01*
G01*
X377625662Y-263549143D02*
G75*
G02*
X377230253Y-264135361I-490814J-95404D01*
G01*
%TO.C,MX58*%
X298536275Y-238530445D02*
X298688922Y-239315747D01*
X299278522Y-242348975D02*
X299232728Y-242113384D01*
X304704482Y-239419836D02*
X309185438Y-238548827D01*
X305909512Y-235059800D02*
X300117911Y-236185573D01*
X308903475Y-234477832D02*
X307381953Y-234773586D01*
X308947361Y-234703607D02*
X308903475Y-234477832D01*
X309580847Y-237962609D02*
X309491166Y-237501244D01*
X298536275Y-238530445D02*
G75*
G02*
X300117911Y-236185573I1963246J381623D01*
G01*
X302803402Y-241663808D02*
G75*
G02*
X304704482Y-239419837I2348504J-62362D01*
G01*
X309580847Y-237962609D02*
G75*
G02*
X309185438Y-238548827I-490814J-95404D01*
G01*
D11*
%TO.C,D60*%
X342661538Y-239508870D02*
X344319612Y-240627255D01*
X344903902Y-236184429D02*
X342661538Y-239508870D01*
X346561977Y-237302815D02*
X344319612Y-240627255D01*
D10*
%TO.C,MX64*%
X131262622Y-246458934D02*
X131308416Y-246223344D01*
X132004870Y-242640405D02*
X131852221Y-243425706D01*
X137390759Y-245775685D02*
X141871714Y-246646694D01*
X140141341Y-242184541D02*
X134349741Y-241058768D01*
X142457932Y-246251285D02*
X142547611Y-245789920D01*
X143091418Y-242992283D02*
X143135304Y-242766509D01*
X143135304Y-242766509D02*
X141613782Y-242470755D01*
X132004870Y-242640405D02*
G75*
G02*
X134349741Y-241058768I1963259J-381624D01*
G01*
X134787501Y-247144102D02*
G75*
G02*
X137390759Y-245775685I2154136J-937589D01*
G01*
X142457932Y-246251285D02*
G75*
G02*
X141871714Y-246646694I-490814J95405D01*
G01*
%TO.C,MX78*%
X118277712Y-263341476D02*
X118323506Y-263105886D01*
X119019960Y-259522947D02*
X118867311Y-260308248D01*
X124405849Y-262658227D02*
X128886804Y-263529236D01*
X127156431Y-259067083D02*
X121364831Y-257941310D01*
X129473022Y-263133827D02*
X129562701Y-262672462D01*
X130106508Y-259874825D02*
X130150394Y-259649051D01*
X130150394Y-259649051D02*
X128628872Y-259353297D01*
X119019960Y-259522947D02*
G75*
G02*
X121364831Y-257941310I1963259J-381624D01*
G01*
X121802591Y-264026644D02*
G75*
G02*
X124405849Y-262658227I2154136J-937589D01*
G01*
X129473022Y-263133827D02*
G75*
G02*
X128886804Y-263529236I-490814J95405D01*
G01*
%TO.C,MX73*%
X330221183Y-251778076D02*
X330373830Y-252563378D01*
X330963430Y-255596606D02*
X330917636Y-255361015D01*
X336389390Y-252667467D02*
X340870346Y-251796458D01*
X337594420Y-248307431D02*
X331802819Y-249433204D01*
X340588383Y-247725463D02*
X339066861Y-248021217D01*
X340632269Y-247951238D02*
X340588383Y-247725463D01*
X341265755Y-251210240D02*
X341176074Y-250748875D01*
X330221183Y-251778076D02*
G75*
G02*
X331802819Y-249433204I1963246J381623D01*
G01*
X334488310Y-254911439D02*
G75*
G02*
X336389390Y-252667468I2348504J-62362D01*
G01*
X341265755Y-251210240D02*
G75*
G02*
X340870346Y-251796458I-490814J-95404D01*
G01*
D11*
%TO.C,U4*%
X465909740Y-211265260D02*
X468634740Y-211265260D01*
X465909740Y-211525260D02*
X465909740Y-211265260D01*
X465909740Y-216455260D02*
X465909740Y-216715260D01*
X465909740Y-216715260D02*
X468634740Y-216715260D01*
X471359740Y-211265260D02*
X468634740Y-211265260D01*
X471359740Y-211525260D02*
X471359740Y-211265260D01*
X471359740Y-216455260D02*
X471359740Y-216715260D01*
X471359740Y-216715260D02*
X468634740Y-216715260D01*
X472142240Y-211525260D02*
X471902240Y-211195260D01*
X472382240Y-211195260D01*
X472142240Y-211525260D01*
G36*
X472142240Y-211525260D02*
G01*
X471902240Y-211195260D01*
X472382240Y-211195260D01*
X472142240Y-211525260D01*
G37*
%TO.C,D26*%
X321366717Y-204835058D02*
X323024791Y-205953443D01*
X323609081Y-201510617D02*
X321366717Y-204835058D01*
X325267156Y-202629003D02*
X323024791Y-205953443D01*
D10*
%TO.C,MX61*%
X354636268Y-227625711D02*
X354788915Y-228411013D01*
X355378515Y-231444241D02*
X355332721Y-231208650D01*
X360804475Y-228515102D02*
X365285431Y-227644093D01*
X362009505Y-224155066D02*
X356217904Y-225280839D01*
X365003468Y-223573098D02*
X363481946Y-223868852D01*
X365047354Y-223798873D02*
X365003468Y-223573098D01*
X365680840Y-227057875D02*
X365591159Y-226596510D01*
X354636268Y-227625711D02*
G75*
G02*
X356217904Y-225280839I1963246J381623D01*
G01*
X358903395Y-230759074D02*
G75*
G02*
X360804475Y-228515103I2348504J-62362D01*
G01*
X365680840Y-227057875D02*
G75*
G02*
X365285431Y-227644093I-490814J-95404D01*
G01*
D11*
%TO.C,D11*%
X372014344Y-165880327D02*
X373672418Y-166998712D01*
X374256708Y-162555886D02*
X372014344Y-165880327D01*
X375914783Y-163674272D02*
X373672418Y-166998712D01*
%TO.C,C9*%
X453976904Y-220255260D02*
X454192576Y-220255260D01*
X453976904Y-220975260D02*
X454192576Y-220975260D01*
D10*
%TO.C,MX63*%
X403723763Y-218084069D02*
X403876410Y-218869371D01*
X404466010Y-221902599D02*
X404420216Y-221667008D01*
X409891970Y-218973460D02*
X414372926Y-218102451D01*
X411097000Y-214613424D02*
X405305399Y-215739197D01*
X414090963Y-214031456D02*
X412569441Y-214327210D01*
X414134849Y-214257231D02*
X414090963Y-214031456D01*
X414768335Y-217516233D02*
X414678654Y-217054868D01*
X403723763Y-218084069D02*
G75*
G02*
X405305399Y-215739197I1963246J381623D01*
G01*
X407990890Y-221217432D02*
G75*
G02*
X409891970Y-218973461I2348504J-62362D01*
G01*
X414768335Y-217516233D02*
G75*
G02*
X414372926Y-218102451I-490814J-95404D01*
G01*
D11*
%TO.C,R7*%
X453431099Y-213260260D02*
X453738381Y-213260260D01*
X453431099Y-214020260D02*
X453738381Y-214020260D01*
%TO.C,D40*%
X278251634Y-232622334D02*
X279909708Y-233740719D01*
X280493998Y-229297893D02*
X278251634Y-232622334D01*
X282152073Y-230416279D02*
X279909708Y-233740719D01*
%TO.C,C13*%
X450478930Y-220274618D02*
X450631433Y-220427121D01*
X450988047Y-219765501D02*
X451140550Y-219918004D01*
D10*
%TO.C,MX89*%
X477132472Y-251206333D02*
X477132472Y-252006333D01*
X477132472Y-255096333D02*
X477132472Y-254856333D01*
X483017648Y-253256333D02*
X487582472Y-253256333D01*
X485032472Y-249206333D02*
X479132472Y-249206333D01*
X488082472Y-249206333D02*
X486532472Y-249206333D01*
X488082472Y-249436333D02*
X488082472Y-249206333D01*
X488082472Y-252756333D02*
X488082472Y-252286333D01*
X477132472Y-251206333D02*
G75*
G02*
X479132472Y-249206333I2000005J-5D01*
G01*
X480723326Y-255096333D02*
G75*
G02*
X483017648Y-253256333I2293456J-509332D01*
G01*
X488082472Y-252756333D02*
G75*
G02*
X487582472Y-253256333I-500001J1D01*
G01*
%TO.C,MX22*%
X223979847Y-206261678D02*
X224025641Y-206026088D01*
X224722095Y-202443149D02*
X224569446Y-203228450D01*
X230107984Y-205578429D02*
X234588939Y-206449438D01*
X232858566Y-201987285D02*
X227066966Y-200861512D01*
X235175157Y-206054029D02*
X235264836Y-205592664D01*
X235808643Y-202795027D02*
X235852529Y-202569253D01*
X235852529Y-202569253D02*
X234331007Y-202273499D01*
X224722095Y-202443149D02*
G75*
G02*
X227066966Y-200861512I1963259J-381624D01*
G01*
X227504726Y-206946846D02*
G75*
G02*
X230107984Y-205578429I2154136J-937589D01*
G01*
X235175157Y-206054029D02*
G75*
G02*
X234588939Y-206449438I-490814J95405D01*
G01*
%TO.C,MX44*%
X346326357Y-209834441D02*
X346479004Y-210619743D01*
X347068604Y-213652971D02*
X347022810Y-213417380D01*
X352494564Y-210723832D02*
X356975520Y-209852823D01*
X353699594Y-206363796D02*
X347907993Y-207489569D01*
X356693557Y-205781828D02*
X355172035Y-206077582D01*
X356737443Y-206007603D02*
X356693557Y-205781828D01*
X357370929Y-209266605D02*
X357281248Y-208805240D01*
X346326357Y-209834441D02*
G75*
G02*
X347907993Y-207489569I1963246J381623D01*
G01*
X350593484Y-212967804D02*
G75*
G02*
X352494564Y-210723833I2348504J-62362D01*
G01*
X357370929Y-209266605D02*
G75*
G02*
X356975520Y-209852823I-490814J-95404D01*
G01*
%TO.C,MX67*%
X199050114Y-259635488D02*
X199095908Y-259399898D01*
X199792362Y-255816959D02*
X199639713Y-256602260D01*
X205178251Y-258952239D02*
X209659206Y-259823248D01*
X207928833Y-255361095D02*
X202137233Y-254235322D01*
X210245424Y-259427839D02*
X210335103Y-258966474D01*
X210878910Y-256168837D02*
X210922796Y-255943063D01*
X210922796Y-255943063D02*
X209401274Y-255647309D01*
X199792362Y-255816959D02*
G75*
G02*
X202137233Y-254235322I1963259J-381624D01*
G01*
X202574993Y-260320656D02*
G75*
G02*
X205178251Y-258952239I2154136J-937589D01*
G01*
X210245424Y-259427839D02*
G75*
G02*
X209659206Y-259823248I-490814J95405D01*
G01*
D11*
%TO.C,D44*%
X353051625Y-218082689D02*
X354709699Y-219201074D01*
X355293989Y-214758248D02*
X353051625Y-218082689D01*
X356952064Y-215876634D02*
X354709699Y-219201074D01*
%TO.C,C16*%
X458624740Y-230973096D02*
X458624740Y-230757424D01*
X459344740Y-230973096D02*
X459344740Y-230757424D01*
%TO.C,D66*%
X184238076Y-262349020D02*
X185356461Y-264007094D01*
X187562516Y-260106655D02*
X184238076Y-262349020D01*
X188680902Y-261764730D02*
X185356461Y-264007094D01*
%TO.C,D78*%
X122165671Y-269689920D02*
X123284056Y-271347994D01*
X125490111Y-267447555D02*
X122165671Y-269689920D01*
X126608497Y-269105630D02*
X123284056Y-271347994D01*
%TO.C,D32*%
X482160338Y-184386278D02*
X483574552Y-185800492D01*
X484995836Y-181550780D02*
X482160338Y-184386278D01*
X486410050Y-182964994D02*
X483574552Y-185800492D01*
D10*
%TO.C,MX74*%
X348921181Y-248143165D02*
X349073828Y-248928467D01*
X349663428Y-251961695D02*
X349617634Y-251726104D01*
X355089388Y-249032556D02*
X359570344Y-248161547D01*
X356294418Y-244672520D02*
X350502817Y-245798293D01*
X359288381Y-244090552D02*
X357766859Y-244386306D01*
X359332267Y-244316327D02*
X359288381Y-244090552D01*
X359965753Y-247575329D02*
X359876072Y-247113964D01*
X348921181Y-248143165D02*
G75*
G02*
X350502817Y-245798293I1963246J381623D01*
G01*
X353188308Y-251276528D02*
G75*
G02*
X355089388Y-249032557I2348504J-62362D01*
G01*
X359965753Y-247575329D02*
G75*
G02*
X359570344Y-248161547I-490814J-95404D01*
G01*
D11*
%TO.C,D72*%
X318246453Y-263661235D02*
X319904527Y-264779620D01*
X320488817Y-260336794D02*
X318246453Y-263661235D01*
X322146892Y-261455180D02*
X319904527Y-264779620D01*
%TO.C,D61*%
X361361536Y-235873959D02*
X363019610Y-236992344D01*
X363603900Y-232549518D02*
X361361536Y-235873959D01*
X365261975Y-233667904D02*
X363019610Y-236992344D01*
%TO.C,D57*%
X286561545Y-250413604D02*
X288219619Y-251531989D01*
X288803909Y-247089163D02*
X286561545Y-250413604D01*
X290461984Y-248207549D02*
X288219619Y-251531989D01*
%TO.C,R3*%
X475875579Y-212779737D02*
X476182861Y-212779737D01*
X475875579Y-213539737D02*
X476182861Y-213539737D01*
%TO.C,D23*%
X246567804Y-216245032D02*
X247686189Y-217903106D01*
X249892244Y-214002667D02*
X246567804Y-216245032D01*
X251010630Y-215660742D02*
X247686189Y-217903106D01*
%TO.C,D54*%
X197222986Y-245466478D02*
X198341371Y-247124552D01*
X200547426Y-243224113D02*
X197222986Y-245466478D01*
X201665812Y-244882188D02*
X198341371Y-247124552D01*
D10*
%TO.C,MX36*%
X173594941Y-215874397D02*
X173640735Y-215638807D01*
X174337189Y-212055868D02*
X174184540Y-212841169D01*
X179723078Y-215191148D02*
X184204033Y-216062157D01*
X182473660Y-211600004D02*
X176682060Y-210474231D01*
X184790251Y-215666748D02*
X184879930Y-215205383D01*
X185423737Y-212407746D02*
X185467623Y-212181972D01*
X185467623Y-212181972D02*
X183946101Y-211886218D01*
X174337189Y-212055868D02*
G75*
G02*
X176682060Y-210474231I1963259J-381624D01*
G01*
X177119820Y-216559565D02*
G75*
G02*
X179723078Y-215191148I2154136J-937589D01*
G01*
X184790251Y-215666748D02*
G75*
G02*
X184204033Y-216062157I-490814J95405D01*
G01*
%TO.C,MX39*%
X229694934Y-226779131D02*
X229740728Y-226543541D01*
X230437182Y-222960602D02*
X230284533Y-223745903D01*
X235823071Y-226095882D02*
X240304026Y-226966891D01*
X238573653Y-222504738D02*
X232782053Y-221378965D01*
X240890244Y-226571482D02*
X240979923Y-226110117D01*
X241523730Y-223312480D02*
X241567616Y-223086706D01*
X241567616Y-223086706D02*
X240046094Y-222790952D01*
X230437182Y-222960602D02*
G75*
G02*
X232782053Y-221378965I1963259J-381624D01*
G01*
X233219813Y-227464299D02*
G75*
G02*
X235823071Y-226095882I2154136J-937589D01*
G01*
X240890244Y-226571482D02*
G75*
G02*
X240304026Y-226966891I-490814J95405D01*
G01*
%TO.C,MX88*%
X458082472Y-251206333D02*
X458082472Y-252006333D01*
X458082472Y-255096333D02*
X458082472Y-254856333D01*
X463967648Y-253256333D02*
X468532472Y-253256333D01*
X465982472Y-249206333D02*
X460082472Y-249206333D01*
X469032472Y-249206333D02*
X467482472Y-249206333D01*
X469032472Y-249436333D02*
X469032472Y-249206333D01*
X469032472Y-252756333D02*
X469032472Y-252286333D01*
X458082472Y-251206333D02*
G75*
G02*
X460082472Y-249206333I2000005J-5D01*
G01*
X461673326Y-255096333D02*
G75*
G02*
X463967648Y-253256333I2293456J-509332D01*
G01*
X469032472Y-252756333D02*
G75*
G02*
X468532472Y-253256333I-500001J1D01*
G01*
D11*
%TO.C,D76*%
X409408942Y-245941042D02*
X411067016Y-247059427D01*
X411651306Y-242616601D02*
X409408942Y-245941042D01*
X413309381Y-243734987D02*
X411067016Y-247059427D01*
%TO.C,D36*%
X177482900Y-222222841D02*
X178601285Y-223880915D01*
X180807340Y-219980476D02*
X177482900Y-222222841D01*
X181925726Y-221638551D02*
X178601285Y-223880915D01*
D10*
%TO.C,MX19*%
X167879853Y-195356944D02*
X167925647Y-195121354D01*
X168622101Y-191538415D02*
X168469452Y-192323716D01*
X174007990Y-194673695D02*
X178488945Y-195544704D01*
X176758572Y-191082551D02*
X170966972Y-189956778D01*
X179075163Y-195149295D02*
X179164842Y-194687930D01*
X179708649Y-191890293D02*
X179752535Y-191664519D01*
X179752535Y-191664519D02*
X178231013Y-191368765D01*
X168622101Y-191538415D02*
G75*
G02*
X170966972Y-189956778I1963259J-381624D01*
G01*
X171404732Y-196042112D02*
G75*
G02*
X174007990Y-194673695I2154136J-937589D01*
G01*
X179075163Y-195149295D02*
G75*
G02*
X178488945Y-195544704I-490814J95405D01*
G01*
D11*
%TO.C,D31*%
X463110338Y-184386278D02*
X464524552Y-185800492D01*
X465945836Y-181550780D02*
X463110338Y-184386278D01*
X467360050Y-182964994D02*
X464524552Y-185800492D01*
%TO.C,D17*%
X134367817Y-194435564D02*
X135486202Y-196093638D01*
X137692257Y-192193199D02*
X134367817Y-194435564D01*
X138810643Y-193851274D02*
X135486202Y-196093638D01*
%TO.C,D12*%
X390714342Y-162245416D02*
X392372416Y-163363801D01*
X392956706Y-158920975D02*
X390714342Y-162245416D01*
X394614781Y-160039361D02*
X392372416Y-163363801D01*
D10*
%TO.C,MX3*%
X187357219Y-170033131D02*
X187403013Y-169797541D01*
X188099467Y-166214602D02*
X187946818Y-166999903D01*
X193485356Y-169349882D02*
X197966311Y-170220891D01*
X196235938Y-165758738D02*
X190444338Y-164632965D01*
X198552529Y-169825482D02*
X198642208Y-169364117D01*
X199186015Y-166566480D02*
X199229901Y-166340706D01*
X199229901Y-166340706D02*
X197708379Y-166044952D01*
X188099467Y-166214602D02*
G75*
G02*
X190444338Y-164632965I1963259J-381624D01*
G01*
X190882098Y-170718299D02*
G75*
G02*
X193485356Y-169349882I2154136J-937589D01*
G01*
X198552529Y-169825482D02*
G75*
G02*
X197966311Y-170220891I-490814J95405D01*
G01*
%TO.C,MX71*%
X292821187Y-259047899D02*
X292973834Y-259833201D01*
X293563434Y-262866429D02*
X293517640Y-262630838D01*
X298989394Y-259937290D02*
X303470350Y-259066281D01*
X300194424Y-255577254D02*
X294402823Y-256703027D01*
X303188387Y-254995286D02*
X301666865Y-255291040D01*
X303232273Y-255221061D02*
X303188387Y-254995286D01*
X303865759Y-258480063D02*
X303776078Y-258018698D01*
X292821187Y-259047899D02*
G75*
G02*
X294402823Y-256703027I1963246J381623D01*
G01*
X297088314Y-262181262D02*
G75*
G02*
X298989394Y-259937291I2348504J-62362D01*
G01*
X303865759Y-258480063D02*
G75*
G02*
X303470350Y-259066281I-490814J-95404D01*
G01*
D11*
%TO.C,R4*%
X453779740Y-229593901D02*
X453779740Y-229286619D01*
X454539740Y-229593901D02*
X454539740Y-229286619D01*
D10*
%TO.C,MX27*%
X333341447Y-192951899D02*
X333494094Y-193737201D01*
X334083694Y-196770429D02*
X334037900Y-196534838D01*
X339509654Y-193841290D02*
X343990610Y-192970281D01*
X340714684Y-189481254D02*
X334923083Y-190607027D01*
X343708647Y-188899286D02*
X342187125Y-189195040D01*
X343752533Y-189125061D02*
X343708647Y-188899286D01*
X344386019Y-192384063D02*
X344296338Y-191922698D01*
X333341447Y-192951899D02*
G75*
G02*
X334923083Y-190607027I1963246J381623D01*
G01*
X337608574Y-196085262D02*
G75*
G02*
X339509654Y-193841291I2348504J-62362D01*
G01*
X344386019Y-192384063D02*
G75*
G02*
X343990610Y-192970281I-490814J-95404D01*
G01*
%TO.C,MX5*%
X224757214Y-177302953D02*
X224803008Y-177067363D01*
X225499462Y-173484424D02*
X225346813Y-174269725D01*
X230885351Y-176619704D02*
X235366306Y-177490713D01*
X233635933Y-173028560D02*
X227844333Y-171902787D01*
X235952524Y-177095304D02*
X236042203Y-176633939D01*
X236586010Y-173836302D02*
X236629896Y-173610528D01*
X236629896Y-173610528D02*
X235108374Y-173314774D01*
X225499462Y-173484424D02*
G75*
G02*
X227844333Y-171902787I1963259J-381624D01*
G01*
X228282093Y-177988121D02*
G75*
G02*
X230885351Y-176619704I2154136J-937589D01*
G01*
X235952524Y-177095304D02*
G75*
G02*
X235366306Y-177490713I-490814J95405D01*
G01*
%TO.C,MX76*%
X402683674Y-237692794D02*
X402836321Y-238478096D01*
X403425921Y-241511324D02*
X403380127Y-241275733D01*
X408851881Y-238582185D02*
X413332837Y-237711176D01*
X410056911Y-234222149D02*
X404265310Y-235347922D01*
X413050874Y-233640181D02*
X411529352Y-233935935D01*
X413094760Y-233865956D02*
X413050874Y-233640181D01*
X413728246Y-237124958D02*
X413638565Y-236663593D01*
X402683674Y-237692794D02*
G75*
G02*
X404265310Y-235347922I1963246J381623D01*
G01*
X406950801Y-240826157D02*
G75*
G02*
X408851881Y-238582186I2348504J-62362D01*
G01*
X413728246Y-237124958D02*
G75*
G02*
X413332837Y-237711176I-490814J-95404D01*
G01*
%TO.C,MX9*%
X318539081Y-166719358D02*
X318691728Y-167504660D01*
X319281328Y-170537888D02*
X319235534Y-170302297D01*
X324707288Y-167608749D02*
X329188244Y-166737740D01*
X325912318Y-163248713D02*
X320120717Y-164374486D01*
X328906281Y-162666745D02*
X327384759Y-162962499D01*
X328950167Y-162892520D02*
X328906281Y-162666745D01*
X329583653Y-166151522D02*
X329493972Y-165690157D01*
X318539081Y-166719358D02*
G75*
G02*
X320120717Y-164374486I1963246J381623D01*
G01*
X322806208Y-169852721D02*
G75*
G02*
X324707288Y-167608750I2348504J-62362D01*
G01*
X329583653Y-166151522D02*
G75*
G02*
X329188244Y-166737740I-490814J-95404D01*
G01*
%TO.C,MX13*%
X402689071Y-150362257D02*
X402841718Y-151147559D01*
X403431318Y-154180787D02*
X403385524Y-153945196D01*
X408857278Y-151251648D02*
X413338234Y-150380639D01*
X410062308Y-146891612D02*
X404270707Y-148017385D01*
X413056271Y-146309644D02*
X411534749Y-146605398D01*
X413100157Y-146535419D02*
X413056271Y-146309644D01*
X413733643Y-149794421D02*
X413643962Y-149333056D01*
X402689071Y-150362257D02*
G75*
G02*
X404270707Y-148017385I1963246J381623D01*
G01*
X406956198Y-153495620D02*
G75*
G02*
X408857278Y-151251649I2348504J-62362D01*
G01*
X413733643Y-149794421D02*
G75*
G02*
X413338234Y-150380639I-490814J-95404D01*
G01*
D11*
%TO.C,D74*%
X355646449Y-256391412D02*
X357304523Y-257509797D01*
X357888813Y-253066971D02*
X355646449Y-256391412D01*
X359546888Y-254185357D02*
X357304523Y-257509797D01*
D10*
%TO.C,MX21*%
X205279849Y-202626766D02*
X205325643Y-202391176D01*
X206022097Y-198808237D02*
X205869448Y-199593538D01*
X211407986Y-201943517D02*
X215888941Y-202814526D01*
X214158568Y-198352373D02*
X208366968Y-197226600D01*
X216475159Y-202419117D02*
X216564838Y-201957752D01*
X217108645Y-199160115D02*
X217152531Y-198934341D01*
X217152531Y-198934341D02*
X215631009Y-198638587D01*
X206022097Y-198808237D02*
G75*
G02*
X208366968Y-197226600I1963259J-381624D01*
G01*
X208804728Y-203311934D02*
G75*
G02*
X211407986Y-201943517I2154136J-937589D01*
G01*
X216475159Y-202419117D02*
G75*
G02*
X215888941Y-202814526I-490814J95405D01*
G01*
%TO.C,MX33*%
X496182472Y-175006333D02*
X496182472Y-175806333D01*
X496182472Y-178896333D02*
X496182472Y-178656333D01*
X502067648Y-177056333D02*
X506632472Y-177056333D01*
X504082472Y-173006333D02*
X498182472Y-173006333D01*
X507132472Y-173006333D02*
X505582472Y-173006333D01*
X507132472Y-173236333D02*
X507132472Y-173006333D01*
X507132472Y-176556333D02*
X507132472Y-176086333D01*
X496182472Y-175006333D02*
G75*
G02*
X498182472Y-173006333I2000005J-5D01*
G01*
X499773326Y-178896333D02*
G75*
G02*
X502067648Y-177056333I2293456J-509332D01*
G01*
X507132472Y-176556333D02*
G75*
G02*
X506632472Y-177056333I-500001J1D01*
G01*
D11*
%TO.C,C2*%
X433049740Y-163788475D02*
X433049740Y-164004147D01*
X433769740Y-163788475D02*
X433769740Y-164004147D01*
%TO.C,D59*%
X323961541Y-243143781D02*
X325619615Y-244262166D01*
X326203905Y-239819340D02*
X323961541Y-243143781D01*
X327861980Y-240937726D02*
X325619615Y-244262166D01*
D10*
%TO.C,MX26*%
X314641449Y-196586810D02*
X314794096Y-197372112D01*
X315383696Y-200405340D02*
X315337902Y-200169749D01*
X320809656Y-197476201D02*
X325290612Y-196605192D01*
X322014686Y-193116165D02*
X316223085Y-194241938D01*
X325008649Y-192534197D02*
X323487127Y-192829951D01*
X325052535Y-192759972D02*
X325008649Y-192534197D01*
X325686021Y-196018974D02*
X325596340Y-195557609D01*
X314641449Y-196586810D02*
G75*
G02*
X316223085Y-194241938I1963246J381623D01*
G01*
X318908576Y-199720173D02*
G75*
G02*
X320809656Y-197476202I2348504J-62362D01*
G01*
X325686021Y-196018974D02*
G75*
G02*
X325290612Y-196605192I-490814J-95404D01*
G01*
%TO.C,MX12*%
X383989074Y-153997168D02*
X384141721Y-154782470D01*
X384731321Y-157815698D02*
X384685527Y-157580107D01*
X390157281Y-154886559D02*
X394638237Y-154015550D01*
X391362311Y-150526523D02*
X385570710Y-151652296D01*
X394356274Y-149944555D02*
X392834752Y-150240309D01*
X394400160Y-150170330D02*
X394356274Y-149944555D01*
X395033646Y-153429332D02*
X394943965Y-152967967D01*
X383989074Y-153997168D02*
G75*
G02*
X385570710Y-151652296I1963246J381623D01*
G01*
X388256201Y-157130531D02*
G75*
G02*
X390157281Y-154886560I2348504J-62362D01*
G01*
X395033646Y-153429332D02*
G75*
G02*
X394638237Y-154015550I-490814J-95404D01*
G01*
D11*
%TO.C,D38*%
X214882896Y-229492663D02*
X216001281Y-231150737D01*
X218207336Y-227250298D02*
X214882896Y-229492663D01*
X219325722Y-228908373D02*
X216001281Y-231150737D01*
D10*
%TO.C,MX16*%
X496182472Y-146431333D02*
X496182472Y-147231333D01*
X496182472Y-150321333D02*
X496182472Y-150081333D01*
X502067648Y-148481333D02*
X506632472Y-148481333D01*
X504082472Y-144431333D02*
X498182472Y-144431333D01*
X507132472Y-144431333D02*
X505582472Y-144431333D01*
X507132472Y-144661333D02*
X507132472Y-144431333D01*
X507132472Y-147981333D02*
X507132472Y-147511333D01*
X496182472Y-146431333D02*
G75*
G02*
X498182472Y-144431333I2000005J-5D01*
G01*
X499773326Y-150321333D02*
G75*
G02*
X502067648Y-148481333I2293456J-509332D01*
G01*
X507132472Y-147981333D02*
G75*
G02*
X506632472Y-148481333I-500001J1D01*
G01*
%TO.C,MX34*%
X131519946Y-207695847D02*
X131565740Y-207460257D01*
X132262194Y-203877318D02*
X132109545Y-204662619D01*
X137648083Y-207012598D02*
X142129038Y-207883607D01*
X140398665Y-203421454D02*
X134607065Y-202295681D01*
X142715256Y-207488198D02*
X142804935Y-207026833D01*
X143348742Y-204229196D02*
X143392628Y-204003422D01*
X143392628Y-204003422D02*
X141871106Y-203707668D01*
X132262194Y-203877318D02*
G75*
G02*
X134607065Y-202295681I1963259J-381624D01*
G01*
X135044825Y-208381015D02*
G75*
G02*
X137648083Y-207012598I2154136J-937589D01*
G01*
X142715256Y-207488198D02*
G75*
G02*
X142129038Y-207883607I-490814J95405D01*
G01*
D11*
%TO.C,D53*%
X178522988Y-241831566D02*
X179641373Y-243489640D01*
X181847428Y-239589201D02*
X178522988Y-241831566D01*
X182965814Y-241247276D02*
X179641373Y-243489640D01*
%TO.C,D56*%
X234622982Y-252736300D02*
X235741367Y-254394374D01*
X237947422Y-250493935D02*
X234622982Y-252736300D01*
X239065808Y-252152010D02*
X235741367Y-254394374D01*
%TO.C,R8*%
X453738381Y-214847760D02*
X453431099Y-214847760D01*
X453738381Y-215607760D02*
X453431099Y-215607760D01*
D10*
%TO.C,MX40*%
X271526366Y-224374087D02*
X271679013Y-225159389D01*
X272268613Y-228192617D02*
X272222819Y-227957026D01*
X277694573Y-225263478D02*
X282175529Y-224392469D01*
X278899603Y-220903442D02*
X273108002Y-222029215D01*
X281893566Y-220321474D02*
X280372044Y-220617228D01*
X281937452Y-220547249D02*
X281893566Y-220321474D01*
X282570938Y-223806251D02*
X282481257Y-223344886D01*
X271526366Y-224374087D02*
G75*
G02*
X273108002Y-222029215I1963246J381623D01*
G01*
X275793493Y-227507450D02*
G75*
G02*
X277694573Y-225263479I2348504J-62362D01*
G01*
X282570938Y-223806251D02*
G75*
G02*
X282175529Y-224392469I-490814J-95404D01*
G01*
%TO.C,MX82*%
X305806097Y-275930441D02*
X305958744Y-276715743D01*
X306548344Y-279748971D02*
X306502550Y-279513380D01*
X311974304Y-276819832D02*
X316455260Y-275948823D01*
X313179334Y-272459796D02*
X307387733Y-273585569D01*
X316173297Y-271877828D02*
X314651775Y-272173582D01*
X316217183Y-272103603D02*
X316173297Y-271877828D01*
X316850669Y-275362605D02*
X316760988Y-274901240D01*
X305806097Y-275930441D02*
G75*
G02*
X307387733Y-273585569I1963246J381623D01*
G01*
X310073224Y-279063804D02*
G75*
G02*
X311974304Y-276819833I2348504J-62362D01*
G01*
X316850669Y-275362605D02*
G75*
G02*
X316455260Y-275948823I-490814J-95404D01*
G01*
D11*
%TO.C,D2*%
X172545180Y-172746662D02*
X173663565Y-174404736D01*
X175869620Y-170504297D02*
X172545180Y-172746662D01*
X176988006Y-172162372D02*
X173663565Y-174404736D01*
%TO.C,D22*%
X227867806Y-212610121D02*
X228986191Y-214268195D01*
X231192246Y-210367756D02*
X227867806Y-212610121D01*
X232310632Y-212025831D02*
X228986191Y-214268195D01*
%TO.C,D29*%
X377466711Y-193930324D02*
X379124785Y-195048709D01*
X379709075Y-190605883D02*
X377466711Y-193930324D01*
X381367150Y-191724269D02*
X379124785Y-195048709D01*
D10*
%TO.C,MX43*%
X327626360Y-213469352D02*
X327779007Y-214254654D01*
X328368607Y-217287882D02*
X328322813Y-217052291D01*
X333794567Y-214358743D02*
X338275523Y-213487734D01*
X334999597Y-209998707D02*
X329207996Y-211124480D01*
X337993560Y-209416739D02*
X336472038Y-209712493D01*
X338037446Y-209642514D02*
X337993560Y-209416739D01*
X338670932Y-212901516D02*
X338581251Y-212440151D01*
X327626360Y-213469352D02*
G75*
G02*
X329207996Y-211124480I1963246J381623D01*
G01*
X331893487Y-216602715D02*
G75*
G02*
X333794567Y-214358744I2348504J-62362D01*
G01*
X338670932Y-212901516D02*
G75*
G02*
X338275523Y-213487734I-490814J-95404D01*
G01*
D11*
%TO.C,D67*%
X202938074Y-265983931D02*
X204056459Y-267642005D01*
X206262514Y-263741566D02*
X202938074Y-265983931D01*
X207380900Y-265399641D02*
X204056459Y-267642005D01*
D10*
%TO.C,MX30*%
X398791440Y-180229709D02*
X398944087Y-181015011D01*
X399533687Y-184048239D02*
X399487893Y-183812648D01*
X404959647Y-181119100D02*
X409440603Y-180248091D01*
X406164677Y-176759064D02*
X400373076Y-177884837D01*
X409158640Y-176177096D02*
X407637118Y-176472850D01*
X409202526Y-176402871D02*
X409158640Y-176177096D01*
X409836012Y-179661873D02*
X409746331Y-179200508D01*
X398791440Y-180229709D02*
G75*
G02*
X400373076Y-177884837I1963246J381623D01*
G01*
X403058567Y-183363072D02*
G75*
G02*
X404959647Y-181119101I2348504J-62362D01*
G01*
X409836012Y-179661873D02*
G75*
G02*
X409440603Y-180248091I-490814J-95404D01*
G01*
D11*
%TO.C,C14*%
X456149740Y-217857424D02*
X456149740Y-218073096D01*
X456869740Y-217857424D02*
X456869740Y-218073096D01*
%TO.C,D47*%
X413826618Y-206269227D02*
X415484692Y-207387612D01*
X416068982Y-202944786D02*
X413826618Y-206269227D01*
X417727057Y-204063172D02*
X415484692Y-207387612D01*
D10*
%TO.C,MX7*%
X281139085Y-173989181D02*
X281291732Y-174774483D01*
X281881332Y-177807711D02*
X281835538Y-177572120D01*
X287307292Y-174878572D02*
X291788248Y-174007563D01*
X288512322Y-170518536D02*
X282720721Y-171644309D01*
X291506285Y-169936568D02*
X289984763Y-170232322D01*
X291550171Y-170162343D02*
X291506285Y-169936568D01*
X292183657Y-173421345D02*
X292093976Y-172959980D01*
X281139085Y-173989181D02*
G75*
G02*
X282720721Y-171644309I1963246J381623D01*
G01*
X285406212Y-177122544D02*
G75*
G02*
X287307292Y-174878573I2348504J-62362D01*
G01*
X292183657Y-173421345D02*
G75*
G02*
X291788248Y-174007563I-490814J-95404D01*
G01*
D11*
%TO.C,D50*%
X501210338Y-203436278D02*
X502624552Y-204850492D01*
X504045836Y-200600780D02*
X501210338Y-203436278D01*
X505460050Y-202014994D02*
X502624552Y-204850492D01*
%TO.C,D45*%
X371751623Y-214447777D02*
X373409697Y-215566162D01*
X373993987Y-211123336D02*
X371751623Y-214447777D01*
X375652062Y-212241722D02*
X373409697Y-215566162D01*
D10*
%TO.C,MX68*%
X217750112Y-263270399D02*
X217795906Y-263034809D01*
X218492360Y-259451870D02*
X218339711Y-260237171D01*
X223878249Y-262587150D02*
X228359204Y-263458159D01*
X226628831Y-258996006D02*
X220837231Y-257870233D01*
X228945422Y-263062750D02*
X229035101Y-262601385D01*
X229578908Y-259803748D02*
X229622794Y-259577974D01*
X229622794Y-259577974D02*
X228101272Y-259282220D01*
X218492360Y-259451870D02*
G75*
G02*
X220837231Y-257870233I1963259J-381624D01*
G01*
X221274991Y-263955567D02*
G75*
G02*
X223878249Y-262587150I2154136J-937589D01*
G01*
X228945422Y-263062750D02*
G75*
G02*
X228359204Y-263458159I-490814J95405D01*
G01*
%TO.C,MX17*%
X130479858Y-188087121D02*
X130525652Y-187851531D01*
X131222106Y-184268592D02*
X131069457Y-185053893D01*
X136607995Y-187403872D02*
X141088950Y-188274881D01*
X139358577Y-183812728D02*
X133566977Y-182686955D01*
X141675168Y-187879472D02*
X141764847Y-187418107D01*
X142308654Y-184620470D02*
X142352540Y-184394696D01*
X142352540Y-184394696D02*
X140831018Y-184098942D01*
X131222106Y-184268592D02*
G75*
G02*
X133566977Y-182686955I1963259J-381624D01*
G01*
X134004737Y-188772289D02*
G75*
G02*
X136607995Y-187403872I2154136J-937589D01*
G01*
X141675168Y-187879472D02*
G75*
G02*
X141088950Y-188274881I-490814J95405D01*
G01*
D11*
%TO.C,D46*%
X390451621Y-210812866D02*
X392109695Y-211931251D01*
X392693985Y-207488425D02*
X390451621Y-210812866D01*
X394352060Y-208606811D02*
X392109695Y-211931251D01*
%TO.C,D51*%
X134110493Y-233198652D02*
X135228878Y-234856726D01*
X137434933Y-230956287D02*
X134110493Y-233198652D01*
X138553319Y-232614362D02*
X135228878Y-234856726D01*
%TO.C,D52*%
X159822990Y-238196655D02*
X160941375Y-239854729D01*
X163147430Y-235954290D02*
X159822990Y-238196655D01*
X164265816Y-237612365D02*
X160941375Y-239854729D01*
%TO.C,D65*%
X165538078Y-258714108D02*
X166656463Y-260372182D01*
X168862518Y-256471743D02*
X165538078Y-258714108D01*
X169980904Y-258129818D02*
X166656463Y-260372182D01*
D10*
%TO.C,MX35*%
X154894943Y-212239486D02*
X154940737Y-212003896D01*
X155637191Y-208420957D02*
X155484542Y-209206258D01*
X161023080Y-211556237D02*
X165504035Y-212427246D01*
X163773662Y-207965093D02*
X157982062Y-206839320D01*
X166090253Y-212031837D02*
X166179932Y-211570472D01*
X166723739Y-208772835D02*
X166767625Y-208547061D01*
X166767625Y-208547061D02*
X165246103Y-208251307D01*
X155637191Y-208420957D02*
G75*
G02*
X157982062Y-206839320I1963259J-381624D01*
G01*
X158419822Y-212924654D02*
G75*
G02*
X161023080Y-211556237I2154136J-937589D01*
G01*
X166090253Y-212031837D02*
G75*
G02*
X165504035Y-212427246I-490814J95405D01*
G01*
%TO.C,MX4*%
X206057217Y-173668042D02*
X206103011Y-173432452D01*
X206799465Y-169849513D02*
X206646816Y-170634814D01*
X212185354Y-172984793D02*
X216666309Y-173855802D01*
X214935936Y-169393649D02*
X209144336Y-168267876D01*
X217252527Y-173460393D02*
X217342206Y-172999028D01*
X217886013Y-170201391D02*
X217929899Y-169975617D01*
X217929899Y-169975617D02*
X216408377Y-169679863D01*
X206799465Y-169849513D02*
G75*
G02*
X209144336Y-168267876I1963259J-381624D01*
G01*
X209582096Y-174353210D02*
G75*
G02*
X212185354Y-172984793I2154136J-937589D01*
G01*
X217252527Y-173460393D02*
G75*
G02*
X216666309Y-173855802I-490814J95405D01*
G01*
%TO.C,MX8*%
X299839083Y-170354269D02*
X299991730Y-171139571D01*
X300581330Y-174172799D02*
X300535536Y-173937208D01*
X306007290Y-171243660D02*
X310488246Y-170372651D01*
X307212320Y-166883624D02*
X301420719Y-168009397D01*
X310206283Y-166301656D02*
X308684761Y-166597410D01*
X310250169Y-166527431D02*
X310206283Y-166301656D01*
X310883655Y-169786433D02*
X310793974Y-169325068D01*
X299839083Y-170354269D02*
G75*
G02*
X301420719Y-168009397I1963246J381623D01*
G01*
X304106210Y-173487632D02*
G75*
G02*
X306007290Y-171243661I2348504J-62362D01*
G01*
X310883655Y-169786433D02*
G75*
G02*
X310488246Y-170372651I-490814J-95404D01*
G01*
D11*
%TO.C,D19*%
X171767813Y-201705387D02*
X172886198Y-203363461D01*
X175092253Y-199463022D02*
X171767813Y-201705387D01*
X176210639Y-201121097D02*
X172886198Y-203363461D01*
%TO.C,D84*%
X373306358Y-272365227D02*
X374964432Y-273483612D01*
X375548722Y-269040786D02*
X373306358Y-272365227D01*
X377206797Y-270159172D02*
X374964432Y-273483612D01*
D10*
%TO.C,MX1*%
X135932225Y-160037124D02*
X135978019Y-159801534D01*
X136674473Y-156218595D02*
X136521824Y-157003896D01*
X142060362Y-159353875D02*
X146541317Y-160224884D01*
X144810944Y-155762731D02*
X139019344Y-154636958D01*
X147127535Y-159829475D02*
X147217214Y-159368110D01*
X147761021Y-156570473D02*
X147804907Y-156344699D01*
X147804907Y-156344699D02*
X146283385Y-156048945D01*
X136674473Y-156218595D02*
G75*
G02*
X139019344Y-154636958I1963259J-381624D01*
G01*
X139457104Y-160722292D02*
G75*
G02*
X142060362Y-159353875I2154136J-937589D01*
G01*
X147127535Y-159829475D02*
G75*
G02*
X146541317Y-160224884I-490814J95405D01*
G01*
D11*
%TO.C,C1*%
X430155943Y-159620390D02*
X429940271Y-159620390D01*
X430155943Y-160340390D02*
X429940271Y-160340390D01*
D10*
%TO.C,MX49*%
X477132472Y-194056333D02*
X477132472Y-194856333D01*
X477132472Y-197946333D02*
X477132472Y-197706333D01*
X483017648Y-196106333D02*
X487582472Y-196106333D01*
X485032472Y-192056333D02*
X479132472Y-192056333D01*
X488082472Y-192056333D02*
X486532472Y-192056333D01*
X488082472Y-192286333D02*
X488082472Y-192056333D01*
X488082472Y-195606333D02*
X488082472Y-195136333D01*
X477132472Y-194056333D02*
G75*
G02*
X479132472Y-192056333I2000005J-5D01*
G01*
X480723326Y-197946333D02*
G75*
G02*
X483017648Y-196106333I2293456J-509332D01*
G01*
X488082472Y-195606333D02*
G75*
G02*
X487582472Y-196106333I-500001J1D01*
G01*
D11*
%TO.C,J3*%
X455304740Y-240060260D02*
X456634740Y-240060260D01*
X455304740Y-241390260D02*
X455304740Y-240060260D01*
X457904741Y-242720260D02*
X457904741Y-240060260D01*
X468124740Y-240060260D02*
X457904741Y-240060260D01*
X468124740Y-242720260D02*
X457904741Y-242720260D01*
X468124740Y-242720260D02*
X468124740Y-240060260D01*
D10*
%TO.C,MX83*%
X345543593Y-268206254D02*
X345696240Y-268991556D01*
X346285840Y-272024784D02*
X346240046Y-271789193D01*
X351711800Y-269095645D02*
X356192756Y-268224636D01*
X352916830Y-264735609D02*
X347125229Y-265861382D01*
X355910793Y-264153641D02*
X354389271Y-264449395D01*
X355954679Y-264379416D02*
X355910793Y-264153641D01*
X356588165Y-267638418D02*
X356498484Y-267177053D01*
X345543593Y-268206254D02*
G75*
G02*
X347125229Y-265861382I1963246J381623D01*
G01*
X349810720Y-271339617D02*
G75*
G02*
X351711800Y-269095646I2348504J-62362D01*
G01*
X356588165Y-267638418D02*
G75*
G02*
X356192756Y-268224636I-490814J-95404D01*
G01*
%TO.C,MX48*%
X458082472Y-194056333D02*
X458082472Y-194856333D01*
X458082472Y-197946333D02*
X458082472Y-197706333D01*
X463967648Y-196106333D02*
X468532472Y-196106333D01*
X465982472Y-192056333D02*
X460082472Y-192056333D01*
X469032472Y-192056333D02*
X467482472Y-192056333D01*
X469032472Y-192286333D02*
X469032472Y-192056333D01*
X469032472Y-195606333D02*
X469032472Y-195136333D01*
X458082472Y-194056333D02*
G75*
G02*
X460082472Y-192056333I2000005J-5D01*
G01*
X461673326Y-197946333D02*
G75*
G02*
X463967648Y-196106333I2293456J-509332D01*
G01*
X469032472Y-195606333D02*
G75*
G02*
X468532472Y-196106333I-500001J1D01*
G01*
D11*
%TO.C,C12*%
X467117576Y-224930260D02*
X466901904Y-224930260D01*
X467117576Y-225650260D02*
X466901904Y-225650260D01*
D10*
%TO.C,MX62*%
X373336266Y-223990800D02*
X373488913Y-224776102D01*
X374078513Y-227809330D02*
X374032719Y-227573739D01*
X379504473Y-224880191D02*
X383985429Y-224009182D01*
X380709503Y-220520155D02*
X374917902Y-221645928D01*
X383703466Y-219938187D02*
X382181944Y-220233941D01*
X383747352Y-220163962D02*
X383703466Y-219938187D01*
X384380838Y-223422964D02*
X384291157Y-222961599D01*
X373336266Y-223990800D02*
G75*
G02*
X374917902Y-221645928I1963246J381623D01*
G01*
X377603393Y-227124163D02*
G75*
G02*
X379504473Y-224880192I2348504J-62362D01*
G01*
X384380838Y-223422964D02*
G75*
G02*
X383985429Y-224009182I-490814J-95404D01*
G01*
D11*
%TO.C,D35*%
X158782902Y-218587929D02*
X159901287Y-220246003D01*
X162107342Y-216345564D02*
X158782902Y-218587929D01*
X163225728Y-218003639D02*
X159901287Y-220246003D01*
D10*
%TO.C,MX75*%
X367621178Y-244508253D02*
X367773825Y-245293555D01*
X368363425Y-248326783D02*
X368317631Y-248091192D01*
X373789385Y-245397644D02*
X378270341Y-244526635D01*
X374994415Y-241037608D02*
X369202814Y-242163381D01*
X377988378Y-240455640D02*
X376466856Y-240751394D01*
X378032264Y-240681415D02*
X377988378Y-240455640D01*
X378665750Y-243940417D02*
X378576069Y-243479052D01*
X367621178Y-244508253D02*
G75*
G02*
X369202814Y-242163381I1963246J381623D01*
G01*
X371888305Y-247641616D02*
G75*
G02*
X373789385Y-245397645I2348504J-62362D01*
G01*
X378665750Y-243940417D02*
G75*
G02*
X378270341Y-244526635I-490814J-95404D01*
G01*
%TO.C,MX25*%
X295941451Y-200221722D02*
X296094098Y-201007024D01*
X296683698Y-204040252D02*
X296637904Y-203804661D01*
X302109658Y-201111113D02*
X306590614Y-200240104D01*
X303314688Y-196751077D02*
X297523087Y-197876850D01*
X306308651Y-196169109D02*
X304787129Y-196464863D01*
X306352537Y-196394884D02*
X306308651Y-196169109D01*
X306986023Y-199653886D02*
X306896342Y-199192521D01*
X295941451Y-200221722D02*
G75*
G02*
X297523087Y-197876850I1963246J381623D01*
G01*
X300208578Y-203355085D02*
G75*
G02*
X302109658Y-201111114I2348504J-62362D01*
G01*
X306986023Y-199653886D02*
G75*
G02*
X306590614Y-200240104I-490814J-95404D01*
G01*
D11*
%TO.C,C7*%
X466518206Y-234159208D02*
X466670709Y-234006705D01*
X467027323Y-234668325D02*
X467179826Y-234515822D01*
%TO.C,C4*%
X459828930Y-215018567D02*
X459981433Y-215171070D01*
X460338047Y-214509450D02*
X460490550Y-214661953D01*
%TO.C,D80*%
X168915666Y-278777198D02*
X170034051Y-280435272D01*
X172240106Y-276534833D02*
X168915666Y-278777198D01*
X173358492Y-278192908D02*
X170034051Y-280435272D01*
%TO.C,D30*%
X405516708Y-188477957D02*
X407174782Y-189596342D01*
X407759072Y-185153516D02*
X405516708Y-188477957D01*
X409417147Y-186271902D02*
X407174782Y-189596342D01*
%TO.C,D87*%
X429406352Y-261460492D02*
X431064426Y-262578877D01*
X431648716Y-258136051D02*
X429406352Y-261460492D01*
X433306791Y-259254437D02*
X431064426Y-262578877D01*
%TO.C,D15*%
X482160338Y-155811278D02*
X483574552Y-157225492D01*
X484995836Y-152975780D02*
X482160338Y-155811278D01*
X486410050Y-154389994D02*
X483574552Y-157225492D01*
D10*
%TO.C,MX32*%
X477132472Y-175006333D02*
X477132472Y-175806333D01*
X477132472Y-178896333D02*
X477132472Y-178656333D01*
X483017648Y-177056333D02*
X487582472Y-177056333D01*
X485032472Y-173006333D02*
X479132472Y-173006333D01*
X488082472Y-173006333D02*
X486532472Y-173006333D01*
X488082472Y-173236333D02*
X488082472Y-173006333D01*
X488082472Y-176556333D02*
X488082472Y-176086333D01*
X477132472Y-175006333D02*
G75*
G02*
X479132472Y-173006333I2000005J-5D01*
G01*
X480723326Y-178896333D02*
G75*
G02*
X483017648Y-177056333I2293456J-509332D01*
G01*
X488082472Y-176556333D02*
G75*
G02*
X487582472Y-177056333I-500001J1D01*
G01*
%TO.C,MX15*%
X477132472Y-146431333D02*
X477132472Y-147231333D01*
X477132472Y-150321333D02*
X477132472Y-150081333D01*
X483017648Y-148481333D02*
X487582472Y-148481333D01*
X485032472Y-144431333D02*
X479132472Y-144431333D01*
X488082472Y-144431333D02*
X486532472Y-144431333D01*
X488082472Y-144661333D02*
X488082472Y-144431333D01*
X488082472Y-147981333D02*
X488082472Y-147511333D01*
X477132472Y-146431333D02*
G75*
G02*
X479132472Y-144431333I2000005J-5D01*
G01*
X480723326Y-150321333D02*
G75*
G02*
X483017648Y-148481333I2293456J-509332D01*
G01*
X488082472Y-147981333D02*
G75*
G02*
X487582472Y-148481333I-500001J1D01*
G01*
D11*
%TO.C,D10*%
X353314346Y-169515238D02*
X354972420Y-170633623D01*
X355556710Y-166190797D02*
X353314346Y-169515238D01*
X357214785Y-167309183D02*
X354972420Y-170633623D01*
%TO.C,D8*%
X306564351Y-178602517D02*
X308222425Y-179720902D01*
X308806715Y-175278076D02*
X306564351Y-178602517D01*
X310464790Y-176396462D02*
X308222425Y-179720902D01*
D10*
%TO.C,MX41*%
X290226364Y-220739175D02*
X290379011Y-221524477D01*
X290968611Y-224557705D02*
X290922817Y-224322114D01*
X296394571Y-221628566D02*
X300875527Y-220757557D01*
X297599601Y-217268530D02*
X291808000Y-218394303D01*
X300593564Y-216686562D02*
X299072042Y-216982316D01*
X300637450Y-216912337D02*
X300593564Y-216686562D01*
X301270936Y-220171339D02*
X301181255Y-219709974D01*
X290226364Y-220739175D02*
G75*
G02*
X291808000Y-218394303I1963246J381623D01*
G01*
X294493491Y-223872538D02*
G75*
G02*
X296394571Y-221628567I2348504J-62362D01*
G01*
X301270936Y-220171339D02*
G75*
G02*
X300875527Y-220757557I-490814J-95404D01*
G01*
%TO.C,MX86*%
X403981086Y-256847156D02*
X404133733Y-257632458D01*
X404723333Y-260665686D02*
X404677539Y-260430095D01*
X410149293Y-257736547D02*
X414630249Y-256865538D01*
X411354323Y-253376511D02*
X405562722Y-254502284D01*
X414348286Y-252794543D02*
X412826764Y-253090297D01*
X414392172Y-253020318D02*
X414348286Y-252794543D01*
X415025658Y-256279320D02*
X414935977Y-255817955D01*
X403981086Y-256847156D02*
G75*
G02*
X405562722Y-254502284I1963246J381623D01*
G01*
X408248213Y-259980519D02*
G75*
G02*
X410149293Y-257736548I2348504J-62362D01*
G01*
X415025658Y-256279320D02*
G75*
G02*
X414630249Y-256865538I-490814J-95404D01*
G01*
%TO.C,MX60*%
X335936270Y-231260622D02*
X336088917Y-232045924D01*
X336678517Y-235079152D02*
X336632723Y-234843561D01*
X342104477Y-232150013D02*
X346585433Y-231279004D01*
X343309507Y-227789977D02*
X337517906Y-228915750D01*
X346303470Y-227208009D02*
X344781948Y-227503763D01*
X346347356Y-227433784D02*
X346303470Y-227208009D01*
X346980842Y-230692786D02*
X346891161Y-230231421D01*
X335936270Y-231260622D02*
G75*
G02*
X337517906Y-228915750I1963246J381623D01*
G01*
X340203397Y-234393985D02*
G75*
G02*
X342104477Y-232150014I2348504J-62362D01*
G01*
X346980842Y-230692786D02*
G75*
G02*
X346585433Y-231279004I-490814J-95404D01*
G01*
D11*
%TO.C,D58*%
X305261543Y-246778693D02*
X306919617Y-247897078D01*
X307503907Y-243454252D02*
X305261543Y-246778693D01*
X309161982Y-244572638D02*
X306919617Y-247897078D01*
%TO.C,D27*%
X340066715Y-201200146D02*
X341724789Y-202318531D01*
X342309079Y-197875705D02*
X340066715Y-201200146D01*
X343967154Y-198994091D02*
X341724789Y-202318531D01*
%TO.C,D21*%
X209167808Y-208975210D02*
X210286193Y-210633284D01*
X212492248Y-206732845D02*
X209167808Y-208975210D01*
X213610634Y-208390920D02*
X210286193Y-210633284D01*
%TO.C,D85*%
X392006356Y-268730315D02*
X393664430Y-269848700D01*
X394248720Y-265405874D02*
X392006356Y-268730315D01*
X395906795Y-266524260D02*
X393664430Y-269848700D01*
%TO.C,R6*%
X475875579Y-215852882D02*
X476182861Y-215852882D01*
X475875579Y-216612882D02*
X476182861Y-216612882D01*
%TO.C,D75*%
X374346447Y-252756501D02*
X376004521Y-253874886D01*
X376588811Y-249432060D02*
X374346447Y-252756501D01*
X378246886Y-250550446D02*
X376004521Y-253874886D01*
D10*
%TO.C,MX10*%
X346589078Y-161266991D02*
X346741725Y-162052293D01*
X347331325Y-165085521D02*
X347285531Y-164849930D01*
X352757285Y-162156382D02*
X357238241Y-161285373D01*
X353962315Y-157796346D02*
X348170714Y-158922119D01*
X356956278Y-157214378D02*
X355434756Y-157510132D01*
X357000164Y-157440153D02*
X356956278Y-157214378D01*
X357633650Y-160699155D02*
X357543969Y-160237790D01*
X346589078Y-161266991D02*
G75*
G02*
X348170714Y-158922119I1963246J381623D01*
G01*
X350856205Y-164400354D02*
G75*
G02*
X352757285Y-162156383I2348504J-62362D01*
G01*
X357633650Y-160699155D02*
G75*
G02*
X357238241Y-161285373I-490814J-95404D01*
G01*
D11*
%TO.C,D13*%
X409414339Y-158610504D02*
X411072413Y-159728889D01*
X411656703Y-155286063D02*
X409414339Y-158610504D01*
X413314778Y-156404449D02*
X411072413Y-159728889D01*
%TO.C,D73*%
X336946451Y-260026324D02*
X338604525Y-261144709D01*
X339188815Y-256701883D02*
X336946451Y-260026324D01*
X340846890Y-257820269D02*
X338604525Y-261144709D01*
%TO.C,D6*%
X269164356Y-185872339D02*
X270822430Y-186990724D01*
X271406720Y-182547898D02*
X269164356Y-185872339D01*
X273064795Y-183666284D02*
X270822430Y-186990724D01*
D10*
%TO.C,MX81*%
X202427702Y-279698577D02*
X202473496Y-279462987D01*
X203169950Y-275880048D02*
X203017301Y-276665349D01*
X208555839Y-279015328D02*
X213036794Y-279886337D01*
X211306421Y-275424184D02*
X205514821Y-274298411D01*
X213623012Y-279490928D02*
X213712691Y-279029563D01*
X214256498Y-276231926D02*
X214300384Y-276006152D01*
X214300384Y-276006152D02*
X212778862Y-275710398D01*
X203169950Y-275880048D02*
G75*
G02*
X205514821Y-274298411I1963259J-381624D01*
G01*
X205952581Y-280383745D02*
G75*
G02*
X208555839Y-279015328I2154136J-937589D01*
G01*
X213623012Y-279490928D02*
G75*
G02*
X213036794Y-279886337I-490814J95405D01*
G01*
D11*
%TO.C,C10*%
X464649740Y-219188475D02*
X464649740Y-219404147D01*
X465369740Y-219188475D02*
X465369740Y-219404147D01*
%TO.C,D77*%
X482160338Y-241536278D02*
X483574552Y-242950492D01*
X484995836Y-238700780D02*
X482160338Y-241536278D01*
X486410050Y-240114994D02*
X483574552Y-242950492D01*
D10*
%TO.C,MX65*%
X161650119Y-252365665D02*
X161695913Y-252130075D01*
X162392367Y-248547136D02*
X162239718Y-249332437D01*
X167778256Y-251682416D02*
X172259211Y-252553425D01*
X170528838Y-248091272D02*
X164737238Y-246965499D01*
X172845429Y-252158016D02*
X172935108Y-251696651D01*
X173478915Y-248899014D02*
X173522801Y-248673240D01*
X173522801Y-248673240D02*
X172001279Y-248377486D01*
X162392367Y-248547136D02*
G75*
G02*
X164737238Y-246965499I1963259J-381624D01*
G01*
X165174998Y-253050833D02*
G75*
G02*
X167778256Y-251682416I2154136J-937589D01*
G01*
X172845429Y-252158016D02*
G75*
G02*
X172259211Y-252553425I-490814J95405D01*
G01*
D11*
%TO.C,BOOT1*%
X479469480Y-215286571D02*
X479469480Y-213286571D01*
X480969480Y-211536571D02*
X480519480Y-211986571D01*
X480969480Y-211536571D02*
X483469480Y-211536571D01*
X480969480Y-217036571D02*
X480519480Y-216586571D01*
X480969480Y-217036571D02*
X483469480Y-217036571D01*
X483469480Y-211536571D02*
X483919480Y-211986571D01*
X483469480Y-217036571D02*
X483919480Y-216586571D01*
X484969480Y-215286571D02*
X484969480Y-213286571D01*
%TO.C,D82*%
X312531365Y-284178688D02*
X314189439Y-285297073D01*
X314773729Y-280854247D02*
X312531365Y-284178688D01*
X316431804Y-281972633D02*
X314189439Y-285297073D01*
D10*
%TO.C,MX14*%
X458082472Y-146431333D02*
X458082472Y-147231333D01*
X458082472Y-150321333D02*
X458082472Y-150081333D01*
X463967648Y-148481333D02*
X468532472Y-148481333D01*
X465982472Y-144431333D02*
X460082472Y-144431333D01*
X469032472Y-144431333D02*
X467482472Y-144431333D01*
X469032472Y-144661333D02*
X469032472Y-144431333D01*
X469032472Y-147981333D02*
X469032472Y-147511333D01*
X458082472Y-146431333D02*
G75*
G02*
X460082472Y-144431333I2000005J-5D01*
G01*
X461673326Y-150321333D02*
G75*
G02*
X463967648Y-148481333I2293456J-509332D01*
G01*
X469032472Y-147981333D02*
G75*
G02*
X468532472Y-148481333I-500001J1D01*
G01*
D11*
%TO.C,D86*%
X410706354Y-265095404D02*
X412364428Y-266213789D01*
X412948718Y-261770963D02*
X410706354Y-265095404D01*
X414606793Y-262889349D02*
X412364428Y-266213789D01*
D10*
%TO.C,MX38*%
X210994937Y-223144220D02*
X211040731Y-222908630D01*
X211737185Y-219325691D02*
X211584536Y-220110992D01*
X217123074Y-222460971D02*
X221604029Y-223331980D01*
X219873656Y-218869827D02*
X214082056Y-217744054D01*
X222190247Y-222936571D02*
X222279926Y-222475206D01*
X222823733Y-219677569D02*
X222867619Y-219451795D01*
X222867619Y-219451795D02*
X221346097Y-219156041D01*
X211737185Y-219325691D02*
G75*
G02*
X214082056Y-217744054I1963259J-381624D01*
G01*
X214519816Y-223829388D02*
G75*
G02*
X217123074Y-222460971I2154136J-937589D01*
G01*
X222190247Y-222936571D02*
G75*
G02*
X221604029Y-223331980I-490814J95405D01*
G01*
%TO.C,MX46*%
X383726353Y-202564618D02*
X383879000Y-203349920D01*
X384468600Y-206383148D02*
X384422806Y-206147557D01*
X389894560Y-203454009D02*
X394375516Y-202583000D01*
X391099590Y-199093973D02*
X385307989Y-200219746D01*
X394093553Y-198512005D02*
X392572031Y-198807759D01*
X394137439Y-198737780D02*
X394093553Y-198512005D01*
X394770925Y-201996782D02*
X394681244Y-201535417D01*
X383726353Y-202564618D02*
G75*
G02*
X385307989Y-200219746I1963246J381623D01*
G01*
X387993480Y-205697981D02*
G75*
G02*
X389894560Y-203454010I2348504J-62362D01*
G01*
X394770925Y-201996782D02*
G75*
G02*
X394375516Y-202583000I-490814J-95404D01*
G01*
D11*
%TO.C,D62*%
X380061534Y-232239047D02*
X381719608Y-233357432D01*
X382303898Y-228914606D02*
X380061534Y-232239047D01*
X383961973Y-230032992D02*
X381719608Y-233357432D01*
D10*
%TO.C,MX53*%
X174635029Y-235483123D02*
X174680823Y-235247533D01*
X175377277Y-231664594D02*
X175224628Y-232449895D01*
X180763166Y-234799874D02*
X185244121Y-235670883D01*
X183513748Y-231208730D02*
X177722148Y-230082957D01*
X185830339Y-235275474D02*
X185920018Y-234814109D01*
X186463825Y-232016472D02*
X186507711Y-231790698D01*
X186507711Y-231790698D02*
X184986189Y-231494944D01*
X175377277Y-231664594D02*
G75*
G02*
X177722148Y-230082957I1963259J-381624D01*
G01*
X178159908Y-236168291D02*
G75*
G02*
X180763166Y-234799874I2154136J-937589D01*
G01*
X185830339Y-235275474D02*
G75*
G02*
X185244121Y-235670883I-490814J95405D01*
G01*
%TO.C,MX29*%
X370741443Y-185682076D02*
X370894090Y-186467378D01*
X371483690Y-189500606D02*
X371437896Y-189265015D01*
X376909650Y-186571467D02*
X381390606Y-185700458D01*
X378114680Y-182211431D02*
X372323079Y-183337204D01*
X381108643Y-181629463D02*
X379587121Y-181925217D01*
X381152529Y-181855238D02*
X381108643Y-181629463D01*
X381786015Y-185114240D02*
X381696334Y-184652875D01*
X370741443Y-185682076D02*
G75*
G02*
X372323079Y-183337204I1963246J381623D01*
G01*
X375008570Y-188815439D02*
G75*
G02*
X376909650Y-186571468I2348504J-62362D01*
G01*
X381786015Y-185114240D02*
G75*
G02*
X381390606Y-185700458I-490814J-95404D01*
G01*
D11*
%TO.C,D16*%
X501210338Y-155811278D02*
X502624552Y-157225492D01*
X504045836Y-152975780D02*
X501210338Y-155811278D01*
X505460050Y-154389994D02*
X502624552Y-157225492D01*
D10*
%TO.C,MX23*%
X242679845Y-209896589D02*
X242725639Y-209660999D01*
X243422093Y-206078060D02*
X243269444Y-206863361D01*
X248807982Y-209213340D02*
X253288937Y-210084349D01*
X251558564Y-205622196D02*
X245766964Y-204496423D01*
X253875155Y-209688940D02*
X253964834Y-209227575D01*
X254508641Y-206429938D02*
X254552527Y-206204164D01*
X254552527Y-206204164D02*
X253031005Y-205908410D01*
X243422093Y-206078060D02*
G75*
G02*
X245766964Y-204496423I1963259J-381624D01*
G01*
X246204724Y-210581757D02*
G75*
G02*
X248807982Y-209213340I2154136J-937589D01*
G01*
X253875155Y-209688940D02*
G75*
G02*
X253288937Y-210084349I-490814J95405D01*
G01*
D11*
%TO.C,Y1*%
X462353800Y-232067773D02*
X465182227Y-234896200D01*
X465182227Y-234896200D02*
X467515680Y-232562747D01*
D10*
%TO.C,MX31*%
X458082472Y-175006333D02*
X458082472Y-175806333D01*
X458082472Y-178896333D02*
X458082472Y-178656333D01*
X463967648Y-177056333D02*
X468532472Y-177056333D01*
X465982472Y-173006333D02*
X460082472Y-173006333D01*
X469032472Y-173006333D02*
X467482472Y-173006333D01*
X469032472Y-173236333D02*
X469032472Y-173006333D01*
X469032472Y-176556333D02*
X469032472Y-176086333D01*
X458082472Y-175006333D02*
G75*
G02*
X460082472Y-173006333I2000005J-5D01*
G01*
X461673326Y-178896333D02*
G75*
G02*
X463967648Y-177056333I2293456J-509332D01*
G01*
X469032472Y-176556333D02*
G75*
G02*
X468532472Y-177056333I-500001J1D01*
G01*
D11*
%TO.C,D28*%
X358766713Y-197565235D02*
X360424787Y-198683620D01*
X361009077Y-194240794D02*
X358766713Y-197565235D01*
X362667152Y-195359180D02*
X360424787Y-198683620D01*
%TO.C,D24*%
X283966722Y-212104881D02*
X285624796Y-213223266D01*
X286209086Y-208780440D02*
X283966722Y-212104881D01*
X287867161Y-209898826D02*
X285624796Y-213223266D01*
D10*
%TO.C,MX37*%
X192294939Y-219509309D02*
X192340733Y-219273719D01*
X193037187Y-215690780D02*
X192884538Y-216476081D01*
X198423076Y-218826060D02*
X202904031Y-219697069D01*
X201173658Y-215234916D02*
X195382058Y-214109143D01*
X203490249Y-219301660D02*
X203579928Y-218840295D01*
X204123735Y-216042658D02*
X204167621Y-215816884D01*
X204167621Y-215816884D02*
X202646099Y-215521130D01*
X193037187Y-215690780D02*
G75*
G02*
X195382058Y-214109143I1963259J-381624D01*
G01*
X195819818Y-220194477D02*
G75*
G02*
X198423076Y-218826060I2154136J-937589D01*
G01*
X203490249Y-219301660D02*
G75*
G02*
X202904031Y-219697069I-490814J95405D01*
G01*
%TO.C,MX42*%
X308926362Y-217104264D02*
X309079009Y-217889566D01*
X309668609Y-220922794D02*
X309622815Y-220687203D01*
X315094569Y-217993655D02*
X319575525Y-217122646D01*
X316299599Y-213633619D02*
X310507998Y-214759392D01*
X319293562Y-213051651D02*
X317772040Y-213347405D01*
X319337448Y-213277426D02*
X319293562Y-213051651D01*
X319970934Y-216536428D02*
X319881253Y-216075063D01*
X308926362Y-217104264D02*
G75*
G02*
X310507998Y-214759392I1963246J381623D01*
G01*
X313193489Y-220237627D02*
G75*
G02*
X315094569Y-217993656I2348504J-62362D01*
G01*
X319970934Y-216536428D02*
G75*
G02*
X319575525Y-217122646I-490814J-95404D01*
G01*
D11*
%TO.C,J4*%
X439056187Y-151546311D02*
X439056187Y-152046311D01*
X439056187Y-152046311D02*
X439409740Y-151796311D01*
X439409740Y-151796311D02*
X439056187Y-151546311D01*
X439909739Y-151236311D02*
X440119740Y-151236311D01*
X440119740Y-150186311D02*
X443449740Y-150186310D01*
X440119740Y-151236311D02*
X440119740Y-150186311D01*
X440119740Y-155956311D02*
X440119740Y-157006311D01*
X440119740Y-157006311D02*
X443449740Y-157006312D01*
X444339740Y-152056311D02*
X444839740Y-151756311D01*
X444339740Y-155136311D02*
X444339740Y-152056311D01*
X444839740Y-151756311D02*
X444839740Y-151256311D01*
X444839740Y-155436311D02*
X444339740Y-155136311D01*
X444839740Y-155936311D02*
X444839740Y-155436311D01*
D10*
%TO.C,MX90*%
X496182472Y-251206333D02*
X496182472Y-252006333D01*
X496182472Y-255096333D02*
X496182472Y-254856333D01*
X502067648Y-253256333D02*
X506632472Y-253256333D01*
X504082472Y-249206333D02*
X498182472Y-249206333D01*
X507132472Y-249206333D02*
X505582472Y-249206333D01*
X507132472Y-249436333D02*
X507132472Y-249206333D01*
X507132472Y-252756333D02*
X507132472Y-252286333D01*
X496182472Y-251206333D02*
G75*
G02*
X498182472Y-249206333I2000005J-5D01*
G01*
X499773326Y-255096333D02*
G75*
G02*
X502067648Y-253256333I2293456J-509332D01*
G01*
X507132472Y-252756333D02*
G75*
G02*
X506632472Y-253256333I-500001J1D01*
G01*
D11*
%TO.C,C5*%
X460628930Y-214218567D02*
X460781433Y-214371070D01*
X461138047Y-213709450D02*
X461290550Y-213861953D01*
D10*
%TO.C,MX45*%
X365026355Y-206199530D02*
X365179002Y-206984832D01*
X365768602Y-210018060D02*
X365722808Y-209782469D01*
X371194562Y-207088921D02*
X375675518Y-206217912D01*
X372399592Y-202728885D02*
X366607991Y-203854658D01*
X375393555Y-202146917D02*
X373872033Y-202442671D01*
X375437441Y-202372692D02*
X375393555Y-202146917D01*
X376070927Y-205631694D02*
X375981246Y-205170329D01*
X365026355Y-206199530D02*
G75*
G02*
X366607991Y-203854658I1963246J381623D01*
G01*
X369293482Y-209332893D02*
G75*
G02*
X371194562Y-207088922I2348504J-62362D01*
G01*
X376070927Y-205631694D02*
G75*
G02*
X375675518Y-206217912I-490814J-95404D01*
G01*
D11*
%TO.C,D37*%
X196182898Y-225857752D02*
X197301283Y-227515826D01*
X199507338Y-223615387D02*
X196182898Y-225857752D01*
X200625724Y-225273462D02*
X197301283Y-227515826D01*
%TO.C,D63*%
X410449031Y-226332316D02*
X412107105Y-227450701D01*
X412691395Y-223007875D02*
X410449031Y-226332316D01*
X414349470Y-224126261D02*
X412107105Y-227450701D01*
%TO.C,D14*%
X463110338Y-155811278D02*
X464524552Y-157225492D01*
X465945836Y-152975780D02*
X463110338Y-155811278D01*
X467360050Y-154389994D02*
X464524552Y-157225492D01*
%TO.C,D1*%
X139820184Y-166385567D02*
X140938569Y-168043641D01*
X143144624Y-164143202D02*
X139820184Y-166385567D01*
X144263010Y-165801277D02*
X140938569Y-168043641D01*
%TO.C,U2*%
X456609480Y-220676571D02*
X457259480Y-220676571D01*
X456609480Y-221326571D02*
X456609480Y-220676571D01*
X456609480Y-227246571D02*
X456609480Y-227896571D01*
X456609480Y-227896571D02*
X457259480Y-227896571D01*
X463529480Y-220676571D02*
X463179480Y-220676571D01*
X463829480Y-220916571D02*
X463829480Y-221326571D01*
X463829480Y-227246571D02*
X463829480Y-227896571D01*
X463829480Y-227896571D02*
X463179480Y-227896571D01*
X463829480Y-220676571D02*
X463589480Y-220346571D01*
X464069480Y-220346571D01*
X463829480Y-220676571D01*
G36*
X463829480Y-220676571D02*
G01*
X463589480Y-220346571D01*
X464069480Y-220346571D01*
X463829480Y-220676571D01*
G37*
D10*
%TO.C,MX20*%
X186579851Y-198991855D02*
X186625645Y-198756265D01*
X187322099Y-195173326D02*
X187169450Y-195958627D01*
X192707988Y-198308606D02*
X197188943Y-199179615D01*
X195458570Y-194717462D02*
X189666970Y-193591689D01*
X197775161Y-198784206D02*
X197864840Y-198322841D01*
X198408647Y-195525204D02*
X198452533Y-195299430D01*
X198452533Y-195299430D02*
X196931011Y-195003676D01*
X187322099Y-195173326D02*
G75*
G02*
X189666970Y-193591689I1963259J-381624D01*
G01*
X190104730Y-199677023D02*
G75*
G02*
X192707988Y-198308606I2154136J-937589D01*
G01*
X197775161Y-198784206D02*
G75*
G02*
X197188943Y-199179615I-490814J95405D01*
G01*
D11*
%TO.C,D49*%
X482160338Y-203436278D02*
X483574552Y-204850492D01*
X484995836Y-200600780D02*
X482160338Y-203436278D01*
X486410050Y-202014994D02*
X483574552Y-204850492D01*
D10*
%TO.C,MX85*%
X385281088Y-260482068D02*
X385433735Y-261267370D01*
X386023335Y-264300598D02*
X385977541Y-264065007D01*
X391449295Y-261371459D02*
X395930251Y-260500450D01*
X392654325Y-257011423D02*
X386862724Y-258137196D01*
X395648288Y-256429455D02*
X394126766Y-256725209D01*
X395692174Y-256655230D02*
X395648288Y-256429455D01*
X396325660Y-259914232D02*
X396235979Y-259452867D01*
X385281088Y-260482068D02*
G75*
G02*
X386862724Y-258137196I1963246J381623D01*
G01*
X389548215Y-263615431D02*
G75*
G02*
X391449295Y-261371460I2348504J-62362D01*
G01*
X396325660Y-259914232D02*
G75*
G02*
X395930251Y-260500450I-490814J-95404D01*
G01*
D11*
%TO.C,D4*%
X209945176Y-180016485D02*
X211063561Y-181674559D01*
X213269616Y-177774120D02*
X209945176Y-180016485D01*
X214388002Y-179432195D02*
X211063561Y-181674559D01*
%TO.C,D41*%
X296951632Y-228987423D02*
X298609706Y-230105808D01*
X299193996Y-225662982D02*
X296951632Y-228987423D01*
X300852071Y-226781368D02*
X298609706Y-230105808D01*
%TO.C,C8*%
X450469159Y-216705260D02*
X450750321Y-216705260D01*
X450469159Y-217725260D02*
X450750321Y-217725260D01*
%TO.C,D69*%
X240338069Y-273253754D02*
X241456454Y-274911828D01*
X243662509Y-271011389D02*
X240338069Y-273253754D01*
X244780895Y-272669464D02*
X241456454Y-274911828D01*
%TO.C,D90*%
X501210338Y-260586278D02*
X502624552Y-262000492D01*
X504045836Y-257750780D02*
X501210338Y-260586278D01*
X505460050Y-259164994D02*
X502624552Y-262000492D01*
%TO.C,D3*%
X191245178Y-176381574D02*
X192363563Y-178039648D01*
X194569618Y-174139209D02*
X191245178Y-176381574D01*
X195688004Y-175797284D02*
X192363563Y-178039648D01*
D10*
%TO.C,MX50*%
X496182472Y-194056333D02*
X496182472Y-194856333D01*
X496182472Y-197946333D02*
X496182472Y-197706333D01*
X502067648Y-196106333D02*
X506632472Y-196106333D01*
X504082472Y-192056333D02*
X498182472Y-192056333D01*
X507132472Y-192056333D02*
X505582472Y-192056333D01*
X507132472Y-192286333D02*
X507132472Y-192056333D01*
X507132472Y-195606333D02*
X507132472Y-195136333D01*
X496182472Y-194056333D02*
G75*
G02*
X498182472Y-192056333I2000005J-5D01*
G01*
X499773326Y-197946333D02*
G75*
G02*
X502067648Y-196106333I2293456J-509332D01*
G01*
X507132472Y-195606333D02*
G75*
G02*
X506632472Y-196106333I-500001J1D01*
G01*
%TO.C,MX54*%
X193335027Y-239118034D02*
X193380821Y-238882444D01*
X194077275Y-235299505D02*
X193924626Y-236084806D01*
X199463164Y-238434785D02*
X203944119Y-239305794D01*
X202213746Y-234843641D02*
X196422146Y-233717868D01*
X204530337Y-238910385D02*
X204620016Y-238449020D01*
X205163823Y-235651383D02*
X205207709Y-235425609D01*
X205207709Y-235425609D02*
X203686187Y-235129855D01*
X194077275Y-235299505D02*
G75*
G02*
X196422146Y-233717868I1963259J-381624D01*
G01*
X196859906Y-239803202D02*
G75*
G02*
X199463164Y-238434785I2154136J-937589D01*
G01*
X204530337Y-238910385D02*
G75*
G02*
X203944119Y-239305794I-490814J95405D01*
G01*
D11*
%TO.C,D68*%
X221638072Y-269618842D02*
X222756457Y-271276916D01*
X224962512Y-267376477D02*
X221638072Y-269618842D01*
X226080898Y-269034552D02*
X222756457Y-271276916D01*
D10*
%TO.C,MX11*%
X365289076Y-157632079D02*
X365441723Y-158417381D01*
X366031323Y-161450609D02*
X365985529Y-161215018D01*
X371457283Y-158521470D02*
X375938239Y-157650461D01*
X372662313Y-154161434D02*
X366870712Y-155287207D01*
X375656276Y-153579466D02*
X374134754Y-153875220D01*
X375700162Y-153805241D02*
X375656276Y-153579466D01*
X376333648Y-157064243D02*
X376243967Y-156602878D01*
X365289076Y-157632079D02*
G75*
G02*
X366870712Y-155287207I1963246J381623D01*
G01*
X369556203Y-160765442D02*
G75*
G02*
X371457283Y-158521471I2348504J-62362D01*
G01*
X376333648Y-157064243D02*
G75*
G02*
X375938239Y-157650461I-490814J-95404D01*
G01*
%TO.C,MX80*%
X165027707Y-272428755D02*
X165073501Y-272193165D01*
X165769955Y-268610226D02*
X165617306Y-269395527D01*
X171155844Y-271745506D02*
X175636799Y-272616515D01*
X173906426Y-268154362D02*
X168114826Y-267028589D01*
X176223017Y-272221106D02*
X176312696Y-271759741D01*
X176856503Y-268962104D02*
X176900389Y-268736330D01*
X176900389Y-268736330D02*
X175378867Y-268440576D01*
X165769955Y-268610226D02*
G75*
G02*
X168114826Y-267028589I1963259J-381624D01*
G01*
X168552586Y-273113923D02*
G75*
G02*
X171155844Y-271745506I2154136J-937589D01*
G01*
X176223017Y-272221106D02*
G75*
G02*
X175636799Y-272616515I-490814J95405D01*
G01*
%TO.C,MX28*%
X352041445Y-189316988D02*
X352194092Y-190102290D01*
X352783692Y-193135518D02*
X352737898Y-192899927D01*
X358209652Y-190206379D02*
X362690608Y-189335370D01*
X359414682Y-185846343D02*
X353623081Y-186972116D01*
X362408645Y-185264375D02*
X360887123Y-185560129D01*
X362452531Y-185490150D02*
X362408645Y-185264375D01*
X363086017Y-188749152D02*
X362996336Y-188287787D01*
X352041445Y-189316988D02*
G75*
G02*
X353623081Y-186972116I1963246J381623D01*
G01*
X356308572Y-192450351D02*
G75*
G02*
X358209652Y-190206380I2348504J-62362D01*
G01*
X363086017Y-188749152D02*
G75*
G02*
X362690608Y-189335370I-490814J-95404D01*
G01*
D11*
%TO.C,RST1*%
X446284740Y-231090260D02*
X446284740Y-233090260D01*
X447784740Y-229340260D02*
X447334740Y-229790260D01*
X447784740Y-234840260D02*
X447334740Y-234390260D01*
X450284740Y-229340260D02*
X447784740Y-229340260D01*
X450284740Y-229340260D02*
X450734740Y-229790260D01*
X450284740Y-234840260D02*
X447784740Y-234840260D01*
X450284740Y-234840260D02*
X450734740Y-234390260D01*
X451784740Y-231090260D02*
X451784740Y-233090260D01*
D10*
%TO.C,MX57*%
X279836277Y-242165357D02*
X279988924Y-242950659D01*
X280578524Y-245983887D02*
X280532730Y-245748296D01*
X286004484Y-243054748D02*
X290485440Y-242183739D01*
X287209514Y-238694712D02*
X281417913Y-239820485D01*
X290203477Y-238112744D02*
X288681955Y-238408498D01*
X290247363Y-238338519D02*
X290203477Y-238112744D01*
X290880849Y-241597521D02*
X290791168Y-241136156D01*
X279836277Y-242165357D02*
G75*
G02*
X281417913Y-239820485I1963246J381623D01*
G01*
X284103404Y-245298720D02*
G75*
G02*
X286004484Y-243054749I2348504J-62362D01*
G01*
X290880849Y-241597521D02*
G75*
G02*
X290485440Y-242183739I-490814J-95404D01*
G01*
D11*
%TO.C,D64*%
X135150582Y-252807377D02*
X136268967Y-254465451D01*
X138475022Y-250565012D02*
X135150582Y-252807377D01*
X139593408Y-252223087D02*
X136268967Y-254465451D01*
D10*
%TO.C,MX59*%
X317236273Y-234895534D02*
X317388920Y-235680836D01*
X317978520Y-238714064D02*
X317932726Y-238478473D01*
X323404480Y-235784925D02*
X327885436Y-234913916D01*
X324609510Y-231424889D02*
X318817909Y-232550662D01*
X327603473Y-230842921D02*
X326081951Y-231138675D01*
X327647359Y-231068696D02*
X327603473Y-230842921D01*
X328280845Y-234327698D02*
X328191164Y-233866333D01*
X317236273Y-234895534D02*
G75*
G02*
X318817909Y-232550662I1963246J381623D01*
G01*
X321503400Y-238028897D02*
G75*
G02*
X323404480Y-235784926I2348504J-62362D01*
G01*
X328280845Y-234327698D02*
G75*
G02*
X327885436Y-234913916I-490814J-95404D01*
G01*
D11*
%TO.C,R9*%
X462850464Y-234124436D02*
X463067745Y-234341717D01*
X463387865Y-233587035D02*
X463605146Y-233804316D01*
%TO.C,D48*%
X463110338Y-203436278D02*
X464524552Y-204850492D01*
X465945836Y-200600780D02*
X463110338Y-203436278D01*
X467360050Y-202014994D02*
X464524552Y-204850492D01*
D10*
%TO.C,MX47*%
X407101350Y-198020979D02*
X407253997Y-198806281D01*
X407843597Y-201839509D02*
X407797803Y-201603918D01*
X413269557Y-198910370D02*
X417750513Y-198039361D01*
X414474587Y-194550334D02*
X408682986Y-195676107D01*
X417468550Y-193968366D02*
X415947028Y-194264120D01*
X417512436Y-194194141D02*
X417468550Y-193968366D01*
X418145922Y-197453143D02*
X418056241Y-196991778D01*
X407101350Y-198020979D02*
G75*
G02*
X408682986Y-195676107I1963246J381623D01*
G01*
X411368477Y-201154342D02*
G75*
G02*
X413269557Y-198910371I2348504J-62362D01*
G01*
X418145922Y-197453143D02*
G75*
G02*
X417750513Y-198039361I-490814J-95404D01*
G01*
%TO.C,MX6*%
X262439088Y-177624092D02*
X262591735Y-178409394D01*
X263181335Y-181442622D02*
X263135541Y-181207031D01*
X268607295Y-178513483D02*
X273088251Y-177642474D01*
X269812325Y-174153447D02*
X264020724Y-175279220D01*
X272806288Y-173571479D02*
X271284766Y-173867233D01*
X272850174Y-173797254D02*
X272806288Y-173571479D01*
X273483660Y-177056256D02*
X273393979Y-176594891D01*
X262439088Y-177624092D02*
G75*
G02*
X264020724Y-175279220I1963246J381623D01*
G01*
X266706215Y-180757455D02*
G75*
G02*
X268607295Y-178513484I2348504J-62362D01*
G01*
X273483660Y-177056256D02*
G75*
G02*
X273088251Y-177642474I-490814J-95404D01*
G01*
D11*
%TO.C,C15*%
X460099740Y-230948096D02*
X460099740Y-230732424D01*
X460819740Y-230948096D02*
X460819740Y-230732424D01*
D10*
%TO.C,MX79*%
X141652709Y-267885116D02*
X141698503Y-267649526D01*
X142394957Y-264066587D02*
X142242308Y-264851888D01*
X147780846Y-267201867D02*
X152261801Y-268072876D01*
X150531428Y-263610723D02*
X144739828Y-262484950D01*
X152848019Y-267677467D02*
X152937698Y-267216102D01*
X153481505Y-264418465D02*
X153525391Y-264192691D01*
X153525391Y-264192691D02*
X152003869Y-263896937D01*
X142394957Y-264066587D02*
G75*
G02*
X144739828Y-262484950I1963259J-381624D01*
G01*
X145177588Y-268570284D02*
G75*
G02*
X147780846Y-267201867I2154136J-937589D01*
G01*
X152848019Y-267677467D02*
G75*
G02*
X152261801Y-268072876I-490814J95405D01*
G01*
D11*
%TO.C,D25*%
X302666719Y-208469969D02*
X304324793Y-209588354D01*
X304909083Y-205145528D02*
X302666719Y-208469969D01*
X306567158Y-206263914D02*
X304324793Y-209588354D01*
%TO.C,D34*%
X135407905Y-214044290D02*
X136526290Y-215702364D01*
X138732345Y-211801925D02*
X135407905Y-214044290D01*
X139850731Y-213460000D02*
X136526290Y-215702364D01*
%TO.C,D89*%
X482160338Y-260586278D02*
X483574552Y-262000492D01*
X484995836Y-257750780D02*
X482160338Y-260586278D01*
X486410050Y-259164994D02*
X483574552Y-262000492D01*
D10*
%TO.C,MX56*%
X230735023Y-246387857D02*
X230780817Y-246152267D01*
X231477271Y-242569328D02*
X231324622Y-243354629D01*
X236863160Y-245704608D02*
X241344115Y-246575617D01*
X239613742Y-242113464D02*
X233822142Y-240987691D01*
X241930333Y-246180208D02*
X242020012Y-245718843D01*
X242563819Y-242921206D02*
X242607705Y-242695432D01*
X242607705Y-242695432D02*
X241086183Y-242399678D01*
X231477271Y-242569328D02*
G75*
G02*
X233822142Y-240987691I1963259J-381624D01*
G01*
X234259902Y-247073025D02*
G75*
G02*
X236863160Y-245704608I2154136J-937589D01*
G01*
X241930333Y-246180208D02*
G75*
G02*
X241344115Y-246575617I-490814J95405D01*
G01*
D11*
%TO.C,D79*%
X145540669Y-274233559D02*
X146659054Y-275891633D01*
X148865109Y-271991194D02*
X145540669Y-274233559D01*
X149983495Y-273649269D02*
X146659054Y-275891633D01*
%TO.C,D9*%
X325264349Y-174967605D02*
X326922423Y-176085990D01*
X327506713Y-171643164D02*
X325264349Y-174967605D01*
X329164788Y-172761550D02*
X326922423Y-176085990D01*
D10*
%TO.C,MX70*%
X274121189Y-262682810D02*
X274273836Y-263468112D01*
X274863436Y-266501340D02*
X274817642Y-266265749D01*
X280289396Y-263572201D02*
X284770352Y-262701192D01*
X281494426Y-259212165D02*
X275702825Y-260337938D01*
X284488389Y-258630197D02*
X282966867Y-258925951D01*
X284532275Y-258855972D02*
X284488389Y-258630197D01*
X285165761Y-262114974D02*
X285076080Y-261653609D01*
X274121189Y-262682810D02*
G75*
G02*
X275702825Y-260337938I1963246J381623D01*
G01*
X278388316Y-265816173D02*
G75*
G02*
X280289396Y-263572202I2348504J-62362D01*
G01*
X285165761Y-262114974D02*
G75*
G02*
X284770352Y-262701192I-490814J-95404D01*
G01*
%TO.C,MX77*%
X477132472Y-232156333D02*
X477132472Y-232956333D01*
X477132472Y-236046333D02*
X477132472Y-235806333D01*
X483017648Y-234206333D02*
X487582472Y-234206333D01*
X485032472Y-230156333D02*
X479132472Y-230156333D01*
X488082472Y-230156333D02*
X486532472Y-230156333D01*
X488082472Y-230386333D02*
X488082472Y-230156333D01*
X488082472Y-233706333D02*
X488082472Y-233236333D01*
X477132472Y-232156333D02*
G75*
G02*
X479132472Y-230156333I2000005J-5D01*
G01*
X480723326Y-236046333D02*
G75*
G02*
X483017648Y-234206333I2293456J-509332D01*
G01*
X488082472Y-233706333D02*
G75*
G02*
X487582472Y-234206333I-500001J1D01*
G01*
%TO.C,MX72*%
X311521185Y-255412987D02*
X311673832Y-256198289D01*
X312263432Y-259231517D02*
X312217638Y-258995926D01*
X317689392Y-256302378D02*
X322170348Y-255431369D01*
X318894422Y-251942342D02*
X313102821Y-253068115D01*
X321888385Y-251360374D02*
X320366863Y-251656128D01*
X321932271Y-251586149D02*
X321888385Y-251360374D01*
X322565757Y-254845151D02*
X322476076Y-254383786D01*
X311521185Y-255412987D02*
G75*
G02*
X313102821Y-253068115I1963246J381623D01*
G01*
X315788312Y-258546350D02*
G75*
G02*
X317689392Y-256302379I2348504J-62362D01*
G01*
X322565757Y-254845151D02*
G75*
G02*
X322170348Y-255431369I-490814J-95404D01*
G01*
D11*
%TO.C,D81*%
X206315662Y-286047021D02*
X207434047Y-287705095D01*
X209640102Y-283804656D02*
X206315662Y-286047021D01*
X210758488Y-285462731D02*
X207434047Y-287705095D01*
%TO.C,D20*%
X190467811Y-205340298D02*
X191586196Y-206998372D01*
X193792251Y-203097933D02*
X190467811Y-205340298D01*
X194910637Y-204756008D02*
X191586196Y-206998372D01*
%TO.C,D71*%
X299546455Y-267296146D02*
X301204529Y-268414531D01*
X301788819Y-263971705D02*
X299546455Y-267296146D01*
X303446894Y-265090091D02*
X301204529Y-268414531D01*
%TO.C,D39*%
X233582894Y-233127575D02*
X234701279Y-234785649D01*
X236907334Y-230885210D02*
X233582894Y-233127575D01*
X238025720Y-232543285D02*
X234701279Y-234785649D01*
D10*
%TO.C,MX51*%
X130222534Y-226850208D02*
X130268328Y-226614618D01*
X130964782Y-223031679D02*
X130812133Y-223816980D01*
X136350671Y-226166959D02*
X140831626Y-227037968D01*
X139101253Y-222575815D02*
X133309653Y-221450042D01*
X141417844Y-226642559D02*
X141507523Y-226181194D01*
X142051330Y-223383557D02*
X142095216Y-223157783D01*
X142095216Y-223157783D02*
X140573694Y-222862029D01*
X130964782Y-223031679D02*
G75*
G02*
X133309653Y-221450042I1963259J-381624D01*
G01*
X133747413Y-227535376D02*
G75*
G02*
X136350671Y-226166959I2154136J-937589D01*
G01*
X141417844Y-226642559D02*
G75*
G02*
X140831626Y-227037968I-490814J95405D01*
G01*
D11*
%TO.C,U1*%
X429253506Y-161992274D02*
X430053506Y-161992273D01*
X429253506Y-165112274D02*
X430053506Y-165112275D01*
X430853506Y-161992274D02*
X430053506Y-161992273D01*
X430853506Y-165112274D02*
X430053506Y-165112275D01*
X431353506Y-162042274D02*
X431113506Y-161712274D01*
X431593506Y-161712274D01*
X431353506Y-162042274D01*
G36*
X431353506Y-162042274D02*
G01*
X431113506Y-161712274D01*
X431593506Y-161712274D01*
X431353506Y-162042274D01*
G37*
D10*
%TO.C,MX87*%
X422681084Y-253212245D02*
X422833731Y-253997547D01*
X423423331Y-257030775D02*
X423377537Y-256795184D01*
X428849291Y-254101636D02*
X433330247Y-253230627D01*
X430054321Y-249741600D02*
X424262720Y-250867373D01*
X433048284Y-249159632D02*
X431526762Y-249455386D01*
X433092170Y-249385407D02*
X433048284Y-249159632D01*
X433725656Y-252644409D02*
X433635975Y-252183044D01*
X422681084Y-253212245D02*
G75*
G02*
X424262720Y-250867373I1963246J381623D01*
G01*
X426948211Y-256345608D02*
G75*
G02*
X428849291Y-254101637I2348504J-62362D01*
G01*
X433725656Y-252644409D02*
G75*
G02*
X433330247Y-253230627I-490814J-95404D01*
G01*
D11*
%TO.C,D18*%
X153067815Y-198070476D02*
X154186200Y-199728550D01*
X156392255Y-195828111D02*
X153067815Y-198070476D01*
X157510641Y-197486186D02*
X154186200Y-199728550D01*
%TD*%
D12*
X518209740Y-265496311D02*
X518209740Y-266896311D01*
X259609740Y-229496311D02*
G75*
G02*
X256609740Y-229496311I-1500000J0D01*
G01*
X256609740Y-229496311D02*
G75*
G02*
X259609740Y-229496311I1500000J0D01*
G01*
X265437832Y-307329325D02*
G75*
G02*
X251379039Y-307342807I-7064232J36319425D01*
G01*
X135009740Y-175196311D02*
G75*
G02*
X132009740Y-175196311I-1500000J0D01*
G01*
X132009740Y-175196311D02*
G75*
G02*
X135009740Y-175196311I1500000J0D01*
G01*
X126058534Y-146810875D02*
G75*
G02*
X131923193Y-142853234I4908866J-950125D01*
G01*
X518209740Y-141696311D02*
X518209740Y-265496311D01*
X513209740Y-133696311D02*
G75*
G02*
X518209689Y-138696311I-40J-4999989D01*
G01*
X108809740Y-279896311D02*
X105509757Y-279252412D01*
X268442894Y-164756920D02*
G75*
G02*
X244377335Y-164753073I-12022894J61842120D01*
G01*
X448709740Y-255196311D02*
G75*
G02*
X445709740Y-255196311I-1500000J0D01*
G01*
X445709740Y-255196311D02*
G75*
G02*
X448709740Y-255196311I1500000J0D01*
G01*
X159609740Y-165196311D02*
G75*
G02*
X156609740Y-165196311I-1500000J0D01*
G01*
X156609740Y-165196311D02*
G75*
G02*
X159609740Y-165196311I1500000J0D01*
G01*
X441651426Y-273055222D02*
X265437832Y-307329325D01*
X431773007Y-133696311D02*
X513209740Y-133696311D01*
X424711961Y-134376322D02*
X268442894Y-164756920D01*
X424711961Y-134376322D02*
G75*
G02*
X431773007Y-133696313I7061039J-36319978D01*
G01*
X518209740Y-266896311D02*
G75*
G02*
X513209740Y-271896340I-5000040J11D01*
G01*
X505609740Y-226296311D02*
G75*
G02*
X502609740Y-226296311I-1500000J0D01*
G01*
X502609740Y-226296311D02*
G75*
G02*
X505609740Y-226296311I1500000J0D01*
G01*
X101558410Y-273394850D02*
X126058534Y-146810875D01*
X513209740Y-271896311D02*
X511809740Y-271896311D01*
X505309740Y-165496311D02*
G75*
G02*
X502309740Y-165496311I-1500000J0D01*
G01*
X502309740Y-165496311D02*
G75*
G02*
X505309740Y-165496311I1500000J0D01*
G01*
X117009740Y-252796311D02*
G75*
G02*
X114009740Y-252796311I-1500000J0D01*
G01*
X114009740Y-252796311D02*
G75*
G02*
X117009740Y-252796311I1500000J0D01*
G01*
X518209740Y-141696311D02*
X518209740Y-138696311D01*
X252009740Y-183096311D02*
G75*
G02*
X249009740Y-183096311I-1500000J0D01*
G01*
X249009740Y-183096311D02*
G75*
G02*
X252009740Y-183096311I1500000J0D01*
G01*
X445809740Y-176796311D02*
G75*
G02*
X439809740Y-176796311I-3000000J0D01*
G01*
X439809740Y-176796311D02*
G75*
G02*
X445809740Y-176796311I3000000J0D01*
G01*
X260509740Y-287396311D02*
G75*
G02*
X257509740Y-287396311I-1500000J0D01*
G01*
X257509740Y-287396311D02*
G75*
G02*
X260509740Y-287396311I1500000J0D01*
G01*
X105509757Y-279252412D02*
G75*
G02*
X101558450Y-273394858I957543J4907412D01*
G01*
X189209740Y-276396311D02*
G75*
G02*
X186209740Y-276396311I-1500000J0D01*
G01*
X186209740Y-276396311D02*
G75*
G02*
X189209740Y-276396311I1500000J0D01*
G01*
X264150828Y-249396311D02*
G75*
G02*
X258268652Y-249396311I-2941088J0D01*
G01*
X258268652Y-249396311D02*
G75*
G02*
X264150828Y-249396311I2941088J0D01*
G01*
X343309740Y-181196311D02*
G75*
G02*
X340309740Y-181196311I-1500000J0D01*
G01*
X340309740Y-181196311D02*
G75*
G02*
X343309740Y-181196311I1500000J0D01*
G01*
X441651426Y-273055222D02*
G75*
G02*
X453679714Y-271896313I12028274J-61841078D01*
G01*
X427409740Y-147696311D02*
G75*
G02*
X424409740Y-147696311I-1500000J0D01*
G01*
X424409740Y-147696311D02*
G75*
G02*
X427409740Y-147696311I1500000J0D01*
G01*
X244377337Y-164753061D02*
X131923203Y-142853183D01*
X251379039Y-307342807D02*
X108809740Y-279896311D01*
X511809740Y-271896311D02*
X453679714Y-271896311D01*
M02*
