%TF.GenerationSoftware,KiCad,Pcbnew,8.0.4*%
%TF.CreationDate,2024-09-01T12:40:52+09:00*%
%TF.ProjectId,ttaelgam,74746165-6c67-4616-9d2e-6b696361645f,rev?*%
%TF.SameCoordinates,Original*%
%TF.FileFunction,Paste,Bot*%
%TF.FilePolarity,Positive*%
%FSLAX46Y46*%
G04 Gerber Fmt 4.6, Leading zero omitted, Abs format (unit mm)*
G04 Created by KiCad (PCBNEW 8.0.4) date 2024-09-01 12:40:52*
%MOMM*%
%LPD*%
G01*
G04 APERTURE LIST*
G04 Aperture macros list*
%AMRoundRect*
0 Rectangle with rounded corners*
0 $1 Rounding radius*
0 $2 $3 $4 $5 $6 $7 $8 $9 X,Y pos of 4 corners*
0 Add a 4 corners polygon primitive as box body*
4,1,4,$2,$3,$4,$5,$6,$7,$8,$9,$2,$3,0*
0 Add four circle primitives for the rounded corners*
1,1,$1+$1,$2,$3*
1,1,$1+$1,$4,$5*
1,1,$1+$1,$6,$7*
1,1,$1+$1,$8,$9*
0 Add four rect primitives between the rounded corners*
20,1,$1+$1,$2,$3,$4,$5,0*
20,1,$1+$1,$4,$5,$6,$7,0*
20,1,$1+$1,$6,$7,$8,$9,0*
20,1,$1+$1,$8,$9,$2,$3,0*%
%AMRotRect*
0 Rectangle, with rotation*
0 The origin of the aperture is its center*
0 $1 length*
0 $2 width*
0 $3 Rotation angle, in degrees counterclockwise*
0 Add horizontal line*
21,1,$1,$2,0,0,$3*%
G04 Aperture macros list end*
%ADD10RoundRect,0.250000X1.196977X0.786048X-0.815359X1.177206X-1.196977X-0.786048X0.815359X-1.177206X0*%
%ADD11RoundRect,0.225000X0.106066X-0.424264X0.424264X-0.106066X-0.106066X0.424264X-0.424264X0.106066X0*%
%ADD12RoundRect,0.225000X0.185071X-0.396231X0.436707X-0.023164X-0.185071X0.396231X-0.436707X0.023164X0*%
%ADD13RoundRect,0.225000X0.023164X-0.436707X0.396231X-0.185071X-0.023164X0.436707X-0.396231X0.185071X0*%
%ADD14RoundRect,0.140000X-0.170000X0.140000X-0.170000X-0.140000X0.170000X-0.140000X0.170000X0.140000X0*%
%ADD15RoundRect,0.250000X0.815359X1.177206X-1.196977X0.786048X-0.815359X-1.177206X1.196977X-0.786048X0*%
%ADD16RoundRect,0.140000X-0.219203X-0.021213X-0.021213X-0.219203X0.219203X0.021213X0.021213X0.219203X0*%
%ADD17RoundRect,0.135000X0.135000X0.185000X-0.135000X0.185000X-0.135000X-0.185000X0.135000X-0.185000X0*%
%ADD18RoundRect,0.150000X-0.650000X-0.150000X0.650000X-0.150000X0.650000X0.150000X-0.650000X0.150000X0*%
%ADD19RoundRect,0.140000X-0.140000X-0.170000X0.140000X-0.170000X0.140000X0.170000X-0.140000X0.170000X0*%
%ADD20RoundRect,0.135000X-0.135000X-0.185000X0.135000X-0.185000X0.135000X0.185000X-0.135000X0.185000X0*%
%ADD21RoundRect,0.250000X1.025000X1.000000X-1.025000X1.000000X-1.025000X-1.000000X1.025000X-1.000000X0*%
%ADD22RoundRect,0.140000X0.170000X-0.140000X0.170000X0.140000X-0.170000X0.140000X-0.170000X-0.140000X0*%
%ADD23RoundRect,0.135000X0.185000X-0.135000X0.185000X0.135000X-0.185000X0.135000X-0.185000X-0.135000X0*%
%ADD24RoundRect,0.140000X0.140000X0.170000X-0.140000X0.170000X-0.140000X-0.170000X0.140000X-0.170000X0*%
%ADD25RoundRect,0.140000X0.021213X-0.219203X0.219203X-0.021213X-0.021213X0.219203X-0.219203X0.021213X0*%
%ADD26R,1.700000X1.000000*%
%ADD27RotRect,1.400000X1.200000X315.000000*%
%ADD28RoundRect,0.150000X-0.275000X0.150000X-0.275000X-0.150000X0.275000X-0.150000X0.275000X0.150000X0*%
%ADD29RoundRect,0.175000X-0.225000X0.175000X-0.225000X-0.175000X0.225000X-0.175000X0.225000X0.175000X0*%
%ADD30RoundRect,0.249999X-0.395001X-0.395001X0.395001X-0.395001X0.395001X0.395001X-0.395001X0.395001X0*%
%ADD31RoundRect,0.050000X-0.387500X-0.050000X0.387500X-0.050000X0.387500X0.050000X-0.387500X0.050000X0*%
%ADD32RoundRect,0.050000X-0.050000X-0.387500X0.050000X-0.387500X0.050000X0.387500X-0.050000X0.387500X0*%
%ADD33RoundRect,0.225000X-0.225000X-0.250000X0.225000X-0.250000X0.225000X0.250000X-0.225000X0.250000X0*%
%ADD34RoundRect,0.135000X-0.226274X-0.035355X-0.035355X-0.226274X0.226274X0.035355X0.035355X0.226274X0*%
%ADD35RoundRect,0.150000X0.512500X0.150000X-0.512500X0.150000X-0.512500X-0.150000X0.512500X-0.150000X0*%
G04 APERTURE END LIST*
D10*
%TO.C,MX52*%
X155004146Y-229956047D03*
X168691686Y-230029095D03*
%TD*%
D11*
%TO.C,D88*%
X464319491Y-260791339D03*
X466652943Y-258457887D03*
%TD*%
D12*
%TO.C,D7*%
X289090418Y-182208004D03*
X290935754Y-179472180D03*
%TD*%
D10*
%TO.C,MX2*%
X167726336Y-164506054D03*
X181413876Y-164579102D03*
%TD*%
%TO.C,MX55*%
X211104140Y-240860781D03*
X224791680Y-240933829D03*
%TD*%
D11*
%TO.C,D33*%
X502419491Y-184591339D03*
X504752943Y-182257887D03*
%TD*%
D13*
%TO.C,D5*%
X229792983Y-184083405D03*
X232528807Y-182238069D03*
%TD*%
D10*
%TO.C,MX18*%
X148248971Y-189829867D03*
X161936511Y-189902915D03*
%TD*%
D14*
%TO.C,C3*%
X268219480Y-294437622D03*
X268219480Y-295397622D03*
%TD*%
D15*
%TO.C,MX24*%
X276411782Y-206269493D03*
X289130013Y-201209779D03*
%TD*%
D16*
%TO.C,C6*%
X259270329Y-281956900D03*
X259949151Y-282635722D03*
%TD*%
D10*
%TO.C,MX69*%
X235519225Y-265013146D03*
X249206765Y-265086194D03*
%TD*%
%TO.C,MX66*%
X179419232Y-254108411D03*
X193106772Y-254181459D03*
%TD*%
D13*
%TO.C,D55*%
X217070793Y-249533398D03*
X219806617Y-247688062D03*
%TD*%
D12*
%TO.C,D83*%
X353494926Y-276425078D03*
X355340262Y-273689254D03*
%TD*%
D16*
%TO.C,C11*%
X266880069Y-296553211D03*
X267558891Y-297232033D03*
%TD*%
D12*
%TO.C,D43*%
X335577693Y-221688176D03*
X337423029Y-218952352D03*
%TD*%
%TO.C,D70*%
X282072522Y-270901634D03*
X283917858Y-268165810D03*
%TD*%
D17*
%TO.C,R5*%
X250709999Y-298123146D03*
X249690001Y-298123146D03*
%TD*%
D12*
%TO.C,D42*%
X316877695Y-225323087D03*
X318723031Y-222587263D03*
%TD*%
D15*
%TO.C,MX84*%
X365751418Y-266529839D03*
X378469649Y-261470125D03*
%TD*%
%TO.C,MX58*%
X297706603Y-240943305D03*
X310424834Y-235883591D03*
%TD*%
D12*
%TO.C,D60*%
X343887603Y-239479446D03*
X345732939Y-236743622D03*
%TD*%
D10*
%TO.C,MX64*%
X130331737Y-244566769D03*
X144019277Y-244639817D03*
%TD*%
%TO.C,MX78*%
X117346827Y-261449311D03*
X131034367Y-261522359D03*
%TD*%
D15*
%TO.C,MX73*%
X329391511Y-254190936D03*
X342109742Y-249131222D03*
%TD*%
D18*
%TO.C,U4*%
X261194479Y-300797622D03*
X261194479Y-299527622D03*
X261194479Y-298257622D03*
X261194479Y-296987622D03*
X253994479Y-296987622D03*
X253994479Y-298257622D03*
X253994479Y-299527622D03*
X253994479Y-300797622D03*
%TD*%
D12*
%TO.C,D26*%
X322592782Y-204805634D03*
X324438118Y-202069810D03*
%TD*%
D15*
%TO.C,MX61*%
X353806596Y-230038571D03*
X366524827Y-224978857D03*
%TD*%
D12*
%TO.C,D11*%
X373240409Y-165850903D03*
X375085745Y-163115079D03*
%TD*%
D19*
%TO.C,C9*%
X271664480Y-292267622D03*
X272624480Y-292267622D03*
%TD*%
D15*
%TO.C,MX63*%
X402894091Y-220496929D03*
X415612322Y-215437215D03*
%TD*%
D20*
%TO.C,R7*%
X272134482Y-299242622D03*
X273154480Y-299242622D03*
%TD*%
D12*
%TO.C,D40*%
X279477699Y-232592910D03*
X281323035Y-229857086D03*
%TD*%
D19*
%TO.C,C13*%
X275529740Y-287600615D03*
X276489740Y-287600615D03*
%TD*%
D21*
%TO.C,MX89*%
X475857648Y-253416553D03*
X489307648Y-250876553D03*
%TD*%
D10*
%TO.C,MX22*%
X223048962Y-204369513D03*
X236736502Y-204442561D03*
%TD*%
D15*
%TO.C,MX44*%
X345496685Y-212247301D03*
X358214916Y-207187587D03*
%TD*%
D10*
%TO.C,MX67*%
X198119229Y-257743323D03*
X211806769Y-257816371D03*
%TD*%
D12*
%TO.C,D44*%
X354277690Y-218053265D03*
X356123026Y-215317441D03*
%TD*%
D22*
%TO.C,C16*%
X267244480Y-282497623D03*
X267244480Y-281537623D03*
%TD*%
D13*
%TO.C,D66*%
X185385885Y-262781029D03*
X188121709Y-260935693D03*
%TD*%
%TO.C,D78*%
X123313480Y-270121929D03*
X126049304Y-268276593D03*
%TD*%
D11*
%TO.C,D32*%
X483369491Y-184591339D03*
X485702943Y-182257887D03*
%TD*%
D15*
%TO.C,MX74*%
X348091509Y-250556025D03*
X360809740Y-245496311D03*
%TD*%
D12*
%TO.C,D72*%
X319472518Y-263631811D03*
X321317854Y-260895987D03*
%TD*%
%TO.C,D61*%
X362587601Y-235844535D03*
X364432937Y-233108711D03*
%TD*%
%TO.C,D57*%
X287787610Y-250384180D03*
X289632946Y-247648356D03*
%TD*%
D20*
%TO.C,R3*%
X249690001Y-299723146D03*
X250709999Y-299723146D03*
%TD*%
D13*
%TO.C,D23*%
X247715613Y-216677041D03*
X250451437Y-214831705D03*
%TD*%
%TO.C,D54*%
X198370795Y-245898487D03*
X201106619Y-244053151D03*
%TD*%
D10*
%TO.C,MX36*%
X172664056Y-213982232D03*
X186351596Y-214055280D03*
%TD*%
%TO.C,MX39*%
X228764049Y-224886966D03*
X242451589Y-224960014D03*
%TD*%
D21*
%TO.C,MX88*%
X456807648Y-253416553D03*
X470257648Y-250876553D03*
%TD*%
D12*
%TO.C,D76*%
X410635007Y-245911618D03*
X412480343Y-243175794D03*
%TD*%
D13*
%TO.C,D36*%
X178630709Y-222654850D03*
X181366533Y-220809514D03*
%TD*%
D10*
%TO.C,MX19*%
X166948968Y-193464779D03*
X180636508Y-193537827D03*
%TD*%
D11*
%TO.C,D31*%
X464319491Y-184591339D03*
X466652943Y-182257887D03*
%TD*%
D13*
%TO.C,D17*%
X135515626Y-194867573D03*
X138251450Y-193022237D03*
%TD*%
D12*
%TO.C,D12*%
X391940407Y-162215992D03*
X393785743Y-159480168D03*
%TD*%
D10*
%TO.C,MX3*%
X186426334Y-168140966D03*
X200113874Y-168214014D03*
%TD*%
D15*
%TO.C,MX71*%
X291991515Y-261460759D03*
X304709746Y-256401045D03*
%TD*%
D23*
%TO.C,R4*%
X272069480Y-282932622D03*
X272069480Y-283952620D03*
%TD*%
D15*
%TO.C,MX27*%
X332511775Y-195364759D03*
X345230006Y-190305045D03*
%TD*%
D10*
%TO.C,MX5*%
X223826329Y-175410788D03*
X237513869Y-175483836D03*
%TD*%
D15*
%TO.C,MX76*%
X401854002Y-240105654D03*
X414572233Y-235045940D03*
%TD*%
%TO.C,MX9*%
X317709409Y-169132218D03*
X330427640Y-164072504D03*
%TD*%
%TO.C,MX13*%
X401859399Y-152775117D03*
X414577630Y-147715403D03*
%TD*%
D12*
%TO.C,D74*%
X356872514Y-256361988D03*
X358717850Y-253626164D03*
%TD*%
D10*
%TO.C,MX21*%
X204348964Y-200734601D03*
X218036504Y-200807649D03*
%TD*%
D21*
%TO.C,MX33*%
X494907648Y-177216553D03*
X508357648Y-174676553D03*
%TD*%
D22*
%TO.C,C2*%
X433409740Y-164376311D03*
X433409740Y-163416311D03*
%TD*%
D12*
%TO.C,D59*%
X325187606Y-243114357D03*
X327032942Y-240378533D03*
%TD*%
D15*
%TO.C,MX26*%
X313811777Y-198999670D03*
X326530008Y-193939956D03*
%TD*%
%TO.C,MX12*%
X383159402Y-156410028D03*
X395877633Y-151350314D03*
%TD*%
D13*
%TO.C,D38*%
X216030705Y-229924672D03*
X218766529Y-228079336D03*
%TD*%
D21*
%TO.C,MX16*%
X494907648Y-148641553D03*
X508357648Y-146101553D03*
%TD*%
D10*
%TO.C,MX34*%
X130589061Y-205803682D03*
X144276601Y-205876730D03*
%TD*%
D13*
%TO.C,D53*%
X179670797Y-242263575D03*
X182406621Y-240418239D03*
%TD*%
%TO.C,D56*%
X235770791Y-253168309D03*
X238506615Y-251322973D03*
%TD*%
D17*
%TO.C,R8*%
X273154480Y-297655122D03*
X272134482Y-297655122D03*
%TD*%
D15*
%TO.C,MX40*%
X270696694Y-226786947D03*
X283414925Y-221727233D03*
%TD*%
%TO.C,MX82*%
X304976425Y-278343301D03*
X317694656Y-273283587D03*
%TD*%
D13*
%TO.C,D2*%
X173692989Y-173178671D03*
X176428813Y-171333335D03*
%TD*%
%TO.C,D22*%
X229015615Y-213042130D03*
X231751439Y-211196794D03*
%TD*%
D12*
%TO.C,D29*%
X378692776Y-193900900D03*
X380538112Y-191165076D03*
%TD*%
D15*
%TO.C,MX43*%
X326796688Y-215882212D03*
X339514919Y-210822498D03*
%TD*%
D13*
%TO.C,D67*%
X204085883Y-266415940D03*
X206821707Y-264570604D03*
%TD*%
D15*
%TO.C,MX30*%
X397961768Y-182642569D03*
X410679999Y-177582855D03*
%TD*%
D14*
%TO.C,C14*%
X269719479Y-294437622D03*
X269719479Y-295397622D03*
%TD*%
D12*
%TO.C,D47*%
X415052683Y-206239803D03*
X416898019Y-203503979D03*
%TD*%
D15*
%TO.C,MX7*%
X280309413Y-176402041D03*
X293027644Y-171342327D03*
%TD*%
D11*
%TO.C,D50*%
X502419491Y-203641339D03*
X504752943Y-201307887D03*
%TD*%
D12*
%TO.C,D45*%
X372977688Y-214418353D03*
X374823024Y-211682529D03*
%TD*%
D10*
%TO.C,MX68*%
X216819227Y-261378234D03*
X230506767Y-261451282D03*
%TD*%
%TO.C,MX17*%
X129548973Y-186194956D03*
X143236513Y-186268004D03*
%TD*%
D12*
%TO.C,D46*%
X391677686Y-210783442D03*
X393523022Y-208047618D03*
%TD*%
D13*
%TO.C,D51*%
X135258302Y-233630661D03*
X137994126Y-231785325D03*
%TD*%
%TO.C,D52*%
X160970799Y-238628664D03*
X163706623Y-236783328D03*
%TD*%
%TO.C,D65*%
X166685887Y-259146117D03*
X169421711Y-257300781D03*
%TD*%
D10*
%TO.C,MX35*%
X153964058Y-210347321D03*
X167651598Y-210420369D03*
%TD*%
%TO.C,MX4*%
X205126332Y-171775877D03*
X218813872Y-171848925D03*
%TD*%
D15*
%TO.C,MX8*%
X299009411Y-172767129D03*
X311727642Y-167707415D03*
%TD*%
D13*
%TO.C,D19*%
X172915622Y-202137396D03*
X175651446Y-200292060D03*
%TD*%
D12*
%TO.C,D84*%
X374532423Y-272335803D03*
X376377759Y-269599979D03*
%TD*%
D10*
%TO.C,MX1*%
X135001340Y-158144959D03*
X148688880Y-158218007D03*
%TD*%
D19*
%TO.C,C1*%
X429568107Y-159980390D03*
X430528107Y-159980390D03*
%TD*%
D21*
%TO.C,MX49*%
X475857648Y-196266553D03*
X489307648Y-193726553D03*
%TD*%
D15*
%TO.C,MX83*%
X344713921Y-270619114D03*
X357432152Y-265559400D03*
%TD*%
D21*
%TO.C,MX48*%
X456807648Y-196266553D03*
X470257648Y-193726553D03*
%TD*%
D24*
%TO.C,C12*%
X259379740Y-287592622D03*
X260339740Y-287592622D03*
%TD*%
D15*
%TO.C,MX62*%
X372506594Y-226403660D03*
X385224825Y-221343946D03*
%TD*%
D13*
%TO.C,D35*%
X159930711Y-219019938D03*
X162666535Y-217174602D03*
%TD*%
D15*
%TO.C,MX75*%
X366791506Y-246921113D03*
X379509737Y-241861399D03*
%TD*%
%TO.C,MX25*%
X295111779Y-202634582D03*
X307830010Y-197574868D03*
%TD*%
D25*
%TO.C,C7*%
X259040793Y-278884779D03*
X259719615Y-278205957D03*
%TD*%
D16*
%TO.C,C4*%
X265730069Y-297703211D03*
X266408891Y-298382033D03*
%TD*%
D13*
%TO.C,D80*%
X170063475Y-279209207D03*
X172799299Y-277363871D03*
%TD*%
D12*
%TO.C,D30*%
X406742773Y-188448533D03*
X408588109Y-185712709D03*
%TD*%
%TO.C,D87*%
X430632417Y-261431068D03*
X432477753Y-258695244D03*
%TD*%
D11*
%TO.C,D15*%
X483369491Y-156016339D03*
X485702943Y-153682887D03*
%TD*%
D21*
%TO.C,MX32*%
X475857648Y-177216553D03*
X489307648Y-174676553D03*
%TD*%
%TO.C,MX15*%
X475857648Y-148641553D03*
X489307648Y-146101553D03*
%TD*%
D12*
%TO.C,D10*%
X354540411Y-169485814D03*
X356385747Y-166749990D03*
%TD*%
%TO.C,D8*%
X307790416Y-178573093D03*
X309635752Y-175837269D03*
%TD*%
D15*
%TO.C,MX41*%
X289396692Y-223152035D03*
X302114923Y-218092321D03*
%TD*%
%TO.C,MX86*%
X403151414Y-259260016D03*
X415869645Y-254200302D03*
%TD*%
%TO.C,MX60*%
X335106598Y-233673482D03*
X347824829Y-228613768D03*
%TD*%
D12*
%TO.C,D58*%
X306487608Y-246749269D03*
X308332944Y-244013445D03*
%TD*%
%TO.C,D27*%
X341292780Y-201170722D03*
X343138116Y-198434898D03*
%TD*%
D13*
%TO.C,D21*%
X210315617Y-209407219D03*
X213051441Y-207561883D03*
%TD*%
D12*
%TO.C,D85*%
X393232421Y-268700891D03*
X395077757Y-265965067D03*
%TD*%
D20*
%TO.C,R6*%
X249690001Y-296649999D03*
X250709999Y-296649999D03*
%TD*%
D12*
%TO.C,D75*%
X375572512Y-252727077D03*
X377417848Y-249991253D03*
%TD*%
D15*
%TO.C,MX10*%
X345759406Y-163679851D03*
X358477637Y-158620137D03*
%TD*%
D12*
%TO.C,D13*%
X410640404Y-158581080D03*
X412485740Y-155845256D03*
%TD*%
%TO.C,D73*%
X338172516Y-259996900D03*
X340017852Y-257261076D03*
%TD*%
%TO.C,D6*%
X270390421Y-185842915D03*
X272235757Y-183107091D03*
%TD*%
D10*
%TO.C,MX81*%
X201496817Y-277806412D03*
X215184357Y-277879460D03*
%TD*%
D14*
%TO.C,C10*%
X261219481Y-293106571D03*
X261219481Y-294066571D03*
%TD*%
D11*
%TO.C,D77*%
X483369491Y-241741339D03*
X485702943Y-239407887D03*
%TD*%
D10*
%TO.C,MX65*%
X160719234Y-250473500D03*
X174406774Y-250546548D03*
%TD*%
D26*
%TO.C,BOOT1*%
X240859740Y-300496311D03*
X247159738Y-300496311D03*
X240859740Y-296696311D03*
X247159738Y-296696311D03*
%TD*%
D12*
%TO.C,D82*%
X313757430Y-284149264D03*
X315602766Y-281413440D03*
%TD*%
D21*
%TO.C,MX14*%
X456807648Y-148641553D03*
X470257648Y-146101553D03*
%TD*%
D12*
%TO.C,D86*%
X411932419Y-265065980D03*
X413777755Y-262330156D03*
%TD*%
D10*
%TO.C,MX38*%
X210064052Y-221252055D03*
X223751592Y-221325103D03*
%TD*%
D15*
%TO.C,MX46*%
X382896681Y-204977478D03*
X395614912Y-199917764D03*
%TD*%
D12*
%TO.C,D62*%
X381287599Y-232209623D03*
X383132935Y-229473799D03*
%TD*%
D10*
%TO.C,MX53*%
X173704144Y-233590958D03*
X187391684Y-233664006D03*
%TD*%
D15*
%TO.C,MX29*%
X369911771Y-188094936D03*
X382630002Y-183035222D03*
%TD*%
D11*
%TO.C,D16*%
X502419491Y-156016339D03*
X504752943Y-153682887D03*
%TD*%
D10*
%TO.C,MX23*%
X241748960Y-208004424D03*
X255436500Y-208077472D03*
%TD*%
D27*
%TO.C,Y1*%
X261117704Y-279188764D03*
X262673339Y-280744399D03*
X261471258Y-281946480D03*
X259915623Y-280390845D03*
%TD*%
D21*
%TO.C,MX31*%
X456807648Y-177216553D03*
X470257648Y-174676553D03*
%TD*%
D12*
%TO.C,D28*%
X359992778Y-197535811D03*
X361838114Y-194799987D03*
%TD*%
%TO.C,D24*%
X285192787Y-212075457D03*
X287038123Y-209339633D03*
%TD*%
D10*
%TO.C,MX37*%
X191364054Y-217617144D03*
X205051594Y-217690192D03*
%TD*%
D15*
%TO.C,MX42*%
X308096690Y-219517124D03*
X320814921Y-214457410D03*
%TD*%
D28*
%TO.C,J4*%
X440334740Y-151796311D03*
X440334740Y-152996311D03*
X440334740Y-154196311D03*
X440334740Y-155396311D03*
D29*
X444109740Y-150646311D03*
X444109740Y-156546311D03*
%TD*%
D21*
%TO.C,MX90*%
X494907648Y-253416553D03*
X508357648Y-250876553D03*
%TD*%
D15*
%TO.C,MX45*%
X364196683Y-208612390D03*
X376914914Y-203552676D03*
%TD*%
D13*
%TO.C,D37*%
X197330707Y-226289761D03*
X200066531Y-224444425D03*
%TD*%
D12*
%TO.C,D63*%
X411675096Y-226302892D03*
X413520432Y-223567068D03*
%TD*%
D11*
%TO.C,D14*%
X464319491Y-156016339D03*
X466652943Y-153682887D03*
%TD*%
D13*
%TO.C,D1*%
X140967993Y-166817576D03*
X143703817Y-164972240D03*
%TD*%
D30*
%TO.C,U2*%
X265209740Y-287796311D03*
X265209740Y-289396311D03*
X266809740Y-287796311D03*
X266809740Y-289396311D03*
D31*
X262572240Y-291196311D03*
X262572240Y-290796310D03*
X262572240Y-290396311D03*
X262572240Y-289996311D03*
X262572240Y-289596311D03*
X262572240Y-289196312D03*
X262572240Y-288796311D03*
X262572240Y-288396311D03*
X262572240Y-287996310D03*
X262572240Y-287596311D03*
X262572240Y-287196311D03*
X262572240Y-286796311D03*
X262572240Y-286396312D03*
X262572240Y-285996311D03*
D32*
X263409740Y-285158811D03*
X263809741Y-285158811D03*
X264209740Y-285158811D03*
X264609740Y-285158811D03*
X265009740Y-285158811D03*
X265409739Y-285158811D03*
X265809740Y-285158811D03*
X266209740Y-285158811D03*
X266609741Y-285158811D03*
X267009740Y-285158811D03*
X267409740Y-285158811D03*
X267809740Y-285158811D03*
X268209739Y-285158811D03*
X268609740Y-285158811D03*
D31*
X269447240Y-285996311D03*
X269447240Y-286396312D03*
X269447240Y-286796311D03*
X269447240Y-287196311D03*
X269447240Y-287596311D03*
X269447240Y-287996310D03*
X269447240Y-288396311D03*
X269447240Y-288796311D03*
X269447240Y-289196312D03*
X269447240Y-289596311D03*
X269447240Y-289996311D03*
X269447240Y-290396311D03*
X269447240Y-290796310D03*
X269447240Y-291196311D03*
D32*
X268609740Y-292033811D03*
X268209739Y-292033811D03*
X267809740Y-292033811D03*
X267409740Y-292033811D03*
X267009740Y-292033811D03*
X266609741Y-292033811D03*
X266209740Y-292033811D03*
X265809740Y-292033811D03*
X265409739Y-292033811D03*
X265009740Y-292033811D03*
X264609740Y-292033811D03*
X264209740Y-292033811D03*
X263809741Y-292033811D03*
X263409740Y-292033811D03*
%TD*%
D10*
%TO.C,MX20*%
X185648966Y-197099690D03*
X199336506Y-197172738D03*
%TD*%
D11*
%TO.C,D49*%
X483369491Y-203641339D03*
X485702943Y-201307887D03*
%TD*%
D15*
%TO.C,MX85*%
X384451416Y-262894928D03*
X397169647Y-257835214D03*
%TD*%
D13*
%TO.C,D4*%
X211092985Y-180448494D03*
X213828809Y-178603158D03*
%TD*%
D12*
%TO.C,D41*%
X298177697Y-228957999D03*
X300023033Y-226222175D03*
%TD*%
D33*
%TO.C,C8*%
X274844480Y-295667623D03*
X276394480Y-295667623D03*
%TD*%
D13*
%TO.C,D69*%
X241485878Y-273685763D03*
X244221702Y-271840427D03*
%TD*%
D11*
%TO.C,D90*%
X502419491Y-260791339D03*
X504752943Y-258457887D03*
%TD*%
D13*
%TO.C,D3*%
X192392987Y-176813583D03*
X195128811Y-174968247D03*
%TD*%
D21*
%TO.C,MX50*%
X494907648Y-196266553D03*
X508357648Y-193726553D03*
%TD*%
D10*
%TO.C,MX54*%
X192404142Y-237225869D03*
X206091682Y-237298917D03*
%TD*%
D13*
%TO.C,D68*%
X222785881Y-270050851D03*
X225521705Y-268205515D03*
%TD*%
D15*
%TO.C,MX11*%
X364459404Y-160044939D03*
X377177635Y-154985225D03*
%TD*%
D10*
%TO.C,MX80*%
X164096822Y-270536590D03*
X177784362Y-270609638D03*
%TD*%
D15*
%TO.C,MX28*%
X351211773Y-191729848D03*
X363930004Y-186670134D03*
%TD*%
D26*
%TO.C,RST1*%
X240897038Y-292900615D03*
X247197036Y-292900615D03*
X240897038Y-289100615D03*
X247197036Y-289100615D03*
%TD*%
D15*
%TO.C,MX57*%
X279006605Y-244578217D03*
X291724836Y-239518503D03*
%TD*%
D13*
%TO.C,D64*%
X136298391Y-253239386D03*
X139034215Y-251394050D03*
%TD*%
D15*
%TO.C,MX59*%
X316406601Y-237308394D03*
X329124832Y-232248680D03*
%TD*%
D34*
%TO.C,R9*%
X262640791Y-278557883D03*
X263362039Y-279279131D03*
%TD*%
D11*
%TO.C,D48*%
X464319491Y-203641339D03*
X466652943Y-201307887D03*
%TD*%
D15*
%TO.C,MX47*%
X406271678Y-200433839D03*
X418989909Y-195374125D03*
%TD*%
%TO.C,MX6*%
X261609416Y-180036952D03*
X274327647Y-174977238D03*
%TD*%
D22*
%TO.C,C15*%
X265769480Y-282522621D03*
X265769480Y-281562621D03*
%TD*%
D10*
%TO.C,MX79*%
X140721824Y-265992951D03*
X154409364Y-266065999D03*
%TD*%
D12*
%TO.C,D25*%
X303892784Y-208440545D03*
X305738120Y-205704721D03*
%TD*%
D13*
%TO.C,D34*%
X136555714Y-214476299D03*
X139291538Y-212630963D03*
%TD*%
D11*
%TO.C,D89*%
X483369491Y-260791339D03*
X485702943Y-258457887D03*
%TD*%
D10*
%TO.C,MX56*%
X229804138Y-244495692D03*
X243491678Y-244568740D03*
%TD*%
D13*
%TO.C,D79*%
X146688478Y-274665568D03*
X149424302Y-272820232D03*
%TD*%
D12*
%TO.C,D9*%
X326490414Y-174938181D03*
X328335750Y-172202357D03*
%TD*%
D15*
%TO.C,MX70*%
X273291517Y-265095670D03*
X286009748Y-260035956D03*
%TD*%
D21*
%TO.C,MX77*%
X475857648Y-234366553D03*
X489307648Y-231826553D03*
%TD*%
D15*
%TO.C,MX72*%
X310691513Y-257825847D03*
X323409744Y-252766133D03*
%TD*%
D13*
%TO.C,D81*%
X207463471Y-286479030D03*
X210199295Y-284633694D03*
%TD*%
%TO.C,D20*%
X191615620Y-205772307D03*
X194351444Y-203926971D03*
%TD*%
D12*
%TO.C,D71*%
X300772520Y-267266722D03*
X302617856Y-264530898D03*
%TD*%
D13*
%TO.C,D39*%
X234730703Y-233559584D03*
X237466527Y-231714248D03*
%TD*%
D10*
%TO.C,MX51*%
X129291649Y-224958043D03*
X142979189Y-225031091D03*
%TD*%
D35*
%TO.C,U1*%
X431191006Y-162602275D03*
X431191006Y-164502273D03*
X428916006Y-163552274D03*
%TD*%
D15*
%TO.C,MX87*%
X421851412Y-255625105D03*
X434569643Y-250565391D03*
%TD*%
D13*
%TO.C,D18*%
X154215624Y-198502485D03*
X156951448Y-196657149D03*
%TD*%
D16*
%TO.C,C5*%
X264930069Y-298503211D03*
X265608891Y-299182033D03*
%TD*%
M02*
