M48
; DRILL file {KiCad 8.0.4} date 2024-08-26T22:50:22+0900
; FORMAT={-:-/ absolute / inch / decimal}
; #@! TF.CreationDate,2024-08-26T22:50:22+09:00
; #@! TF.GenerationSoftware,Kicad,Pcbnew,8.0.4
; #@! TF.FileFunction,Plated,1,4,PTH
FMAT,2
INCH
; #@! TA.AperFunction,Plated,PTH,ViaDrill
T1C0.0118
; #@! TA.AperFunction,Plated,PTH,ComponentDrill
T2C0.0394
; #@! TA.AperFunction,Plated,PTH,ComponentDrill
T3C0.1181
%
G90
G05
T1
X5.5831Y-8.7203
X6.4098Y-8.8227
X7.087Y-8.9408
X7.8272Y-9.0747
X8.6461Y-9.2164
X9.276Y-9.3424
X9.8508Y-10.0195
X11.1106Y-8.6022
X11.9925Y-9.1928
X12.6382Y-9.5786
X13.2996Y-10.3345
X14.1106Y-10.303
X15.3626Y-9.9093
X15.7563Y-9.618
X16.8035Y-6.24
X16.9925Y-7.5707
X17.0319Y-10.4211
X17.0326Y-6.2968
X17.1342Y-8.1219
X17.1815Y-7.5707
X17.209Y-6.118
X17.2287Y-6.24
X17.4177Y-8.1219
X17.6115Y-8.8809
X17.6382Y-8.555
X17.6618Y-8.8778
X17.6927Y-8.6095
X17.6998Y-8.8825
X17.7484Y-8.8699
X17.8429Y-8.8384
X17.8587Y-8.6416
X17.8665Y-8.8069
X17.8705Y-9.2132
X17.9059Y-8.8069
X17.9378Y-9.0507
X17.9856Y-8.5262
X18.0122Y-8.6404
X18.0289Y-9.1069
X18.0506Y-8.41
X18.0525Y-8.4455
X18.0716Y-8.7829
X18.0716Y-8.8774
X18.0977Y-8.3835
X18.1099Y-9.1967
X18.1189Y-8.8302
X18.1661Y-8.7829
X18.1661Y-8.8774
X18.2209Y-8.4189
X18.2346Y-9.0677
X18.3075Y-8.5786
X18.3232Y-8.8936
X18.4325Y-9.1532
X18.4511Y-8.8758
X18.4571Y-8.5943
X18.4886Y-8.6258
X18.4886Y-8.8699
X18.5043Y-8.8306
X18.5122Y-8.4999
X18.5122Y-8.6652
X18.5122Y-8.7046
X18.5122Y-8.7518
X18.5122Y-8.7912
X18.5279Y-8.8699
X18.5988Y-9.6495
X18.5988Y-9.7597
X18.6618Y-8.9093
X18.7169Y-8.0904
X18.7169Y-8.9093
X18.7878Y-8.9093
X19.1264Y-8.8621
X19.1843Y-8.3615
X19.339Y-7.3739
X19.4571Y-6.2006
T2
X17.9777Y-9.5036
X18.0777Y-9.5036
X18.1777Y-9.5036
X18.2777Y-9.5036
X18.3777Y-9.5036
T3
X4.7571Y-10.3199
X5.0216Y-10.2695
X5.2274Y-8.8833
X5.2375Y-7.3572
X5.2684Y-9.6553
X5.2785Y-8.1292
X5.4522Y-6.2528
X5.4919Y-8.8328
X5.502Y-7.3067
X5.5329Y-9.6048
X5.543Y-8.0787
X5.6774Y-10.4988
X5.7167Y-6.2024
X5.9419Y-10.4484
X5.9738Y-7.5003
X6.1988Y-8.3081
X6.2383Y-7.4498
X6.2397Y-9.0801
X6.4633Y-8.2576
X6.4647Y-9.8878
X6.5042Y-9.0296
X6.5977Y-10.6777
X6.71Y-7.6434
X6.7292Y-9.8374
X6.7406Y-6.5033
X6.8622Y-10.6273
X6.935Y-8.4512
X6.9745Y-7.5929
X6.9759Y-9.2232
X7.0051Y-6.4528
X7.1995Y-8.4007
X7.2009Y-10.0309
X7.2404Y-9.1727
X7.4462Y-7.7865
X7.4654Y-9.9805
X7.4768Y-6.6464
X7.6712Y-8.5943
X7.7107Y-7.736
X7.7122Y-9.3663
X7.7413Y-6.5959
X7.9357Y-8.5438
X7.9372Y-10.174
X7.9766Y-9.3158
X8.0701Y-10.9639
X8.1824Y-7.9296
X8.2017Y-10.1236
X8.213Y-6.7895
X8.3346Y-10.9135
X8.4074Y-8.7374
X8.4469Y-7.8791
X8.4484Y-9.5094
X8.4775Y-6.739
X8.6719Y-8.6869
X8.6734Y-10.3171
X8.7129Y-9.4589
X8.9187Y-8.0727
X8.9379Y-10.2667
X8.9493Y-6.9326
X9.1437Y-8.8805
X9.1831Y-8.0223
X9.1846Y-9.6525
X9.2137Y-6.8821
X9.4081Y-8.83
X9.4096Y-10.4603
X9.4491Y-9.602
X9.6549Y-8.2158
X9.6741Y-10.4098
X9.9194Y-8.1654
X10.4368Y-7.0614
X10.6631Y-6.9155
X10.7945Y-8.902
X10.8967Y-10.4102
X11.0195Y-8.0942
X11.0209Y-8.7561
X11.1217Y-9.6024
X11.123Y-10.2643
X11.173Y-6.9183
X11.2459Y-7.9483
X11.348Y-9.4565
X11.3993Y-6.7724
X11.5308Y-8.7588
X11.6329Y-10.2671
X11.7558Y-7.9511
X11.7571Y-8.613
X11.8579Y-9.4593
X11.8593Y-10.1212
X11.9092Y-6.7752
X11.9821Y-7.8052
X12.0843Y-9.3134
X12.1355Y-6.6293
X12.1441Y-10.9317
X12.267Y-8.6157
X12.3691Y-10.124
X12.3705Y-10.7859
X12.492Y-7.808
X12.4933Y-8.4699
X12.5941Y-9.3162
X12.5955Y-9.9781
X12.6454Y-6.6321
X12.7183Y-7.6621
X12.8205Y-9.1703
X12.8718Y-6.4862
X13.0032Y-8.4726
X13.1054Y-9.9808
X13.2282Y-7.6649
X13.2295Y-8.3268
X13.3304Y-9.1731
X13.3317Y-9.835
X13.4545Y-7.519
X13.5567Y-9.0272
X13.7086Y-10.6276
X13.7394Y-8.3295
X13.7498Y-6.4174
X13.8416Y-9.8377
X13.9349Y-10.4818
X13.9644Y-7.5218
X13.9658Y-8.1837
X13.9761Y-6.2716
X14.0666Y-9.03
X14.0679Y-9.6919
X14.1908Y-7.3759
X14.2929Y-8.8841
X14.4756Y-8.1864
X14.486Y-6.2743
X14.5369Y-10.4666
X14.5778Y-9.6946
X14.7007Y-7.3786
X14.702Y-8.0406
X14.7123Y-6.1284
X14.7632Y-10.3208
X14.8028Y-8.8869
X14.8041Y-9.5488
X14.927Y-7.2328
X15.0291Y-8.741
X15.2119Y-8.0433
X15.2222Y-6.1312
X15.2731Y-10.3235
X15.4382Y-7.8974
X15.4485Y-5.9853
X15.4994Y-10.1777
X15.805Y-7.164
X15.9582Y-9.4263
X15.9584Y-5.9881
X15.9992Y-8.6543
X16.0093Y-10.1804
X16.0313Y-7.0181
X16.1321Y-7.8644
X16.1845Y-9.2804
X16.1848Y-5.8422
X16.2255Y-8.5084
X16.2356Y-10.0346
X16.3585Y-7.7186
X16.7455Y-10.0373
X16.9718Y-9.8914
X18.1243Y-5.852
X18.1243Y-6.977
X18.1243Y-7.727
X18.1243Y-9.977
X18.3743Y-5.752
X18.3743Y-6.877
X18.3743Y-7.627
X18.3743Y-9.877
X18.8743Y-5.852
X18.8743Y-6.977
X18.8743Y-7.727
X18.8743Y-9.227
X18.8743Y-9.977
X19.1243Y-5.752
X19.1243Y-6.877
X19.1243Y-7.627
X19.1243Y-9.127
X19.1243Y-9.877
X19.6243Y-5.852
X19.6243Y-6.977
X19.6243Y-7.727
X19.6243Y-9.977
X19.8743Y-5.752
X19.8743Y-6.877
X19.8743Y-7.627
X19.8743Y-9.877
M30
