%TF.GenerationSoftware,KiCad,Pcbnew,8.0.5*%
%TF.CreationDate,2024-09-16T13:01:27+09:00*%
%TF.ProjectId,ttaelgam,74746165-6c67-4616-9d2e-6b696361645f,rev?*%
%TF.SameCoordinates,Original*%
%TF.FileFunction,Copper,L3,Inr*%
%TF.FilePolarity,Positive*%
%FSLAX46Y46*%
G04 Gerber Fmt 4.6, Leading zero omitted, Abs format (unit mm)*
G04 Created by KiCad (PCBNEW 8.0.5) date 2024-09-16 13:01:27*
%MOMM*%
%LPD*%
G01*
G04 APERTURE LIST*
%TA.AperFunction,ComponentPad*%
%ADD10C,3.300000*%
%TD*%
%TA.AperFunction,ComponentPad*%
%ADD11O,1.700000X1.700000*%
%TD*%
%TA.AperFunction,ComponentPad*%
%ADD12R,1.700000X1.700000*%
%TD*%
%TA.AperFunction,ViaPad*%
%ADD13C,0.600000*%
%TD*%
%TA.AperFunction,Conductor*%
%ADD14C,0.250000*%
%TD*%
G04 APERTURE END LIST*
D10*
%TO.N,COL1*%
%TO.C,MX52*%
X158488922Y-230633419D03*
%TO.N,Net-(D52-A)*%
X165206910Y-229351723D03*
%TD*%
%TO.N,COL1*%
%TO.C,MX2*%
X171211112Y-165183426D03*
%TO.N,Net-(D2-A)*%
X177929100Y-163901730D03*
%TD*%
%TO.N,COL4*%
%TO.C,MX55*%
X214588916Y-241538153D03*
%TO.N,Net-(D55-A)*%
X221306904Y-240256457D03*
%TD*%
%TO.N,COL1*%
%TO.C,MX18*%
X151733747Y-190507239D03*
%TO.N,Net-(D18-A)*%
X158451735Y-189225543D03*
%TD*%
%TO.N,COL5*%
%TO.C,MX24*%
X279896559Y-205592121D03*
%TO.N,Net-(D24-A)*%
X285645236Y-201887151D03*
%TD*%
%TO.N,COL17*%
%TO.C,MX69*%
X239004001Y-265690518D03*
%TO.N,Net-(D69-A)*%
X245721989Y-264408822D03*
%TD*%
%TO.N,COL2*%
%TO.C,MX66*%
X182904008Y-254785783D03*
%TO.N,Net-(D66-A)*%
X189621996Y-253504087D03*
%TD*%
%TO.N,COL7*%
%TO.C,MX84*%
X369236195Y-265852467D03*
%TO.N,Net-(D84-A)*%
X374984872Y-262147497D03*
%TD*%
%TO.N,COL6*%
%TO.C,MX58*%
X301191380Y-240265933D03*
%TO.N,Net-(D58-A)*%
X306940057Y-236560963D03*
%TD*%
%TO.N,COL0*%
%TO.C,MX64*%
X133816513Y-245244141D03*
%TO.N,Net-(D64-A)*%
X140534501Y-243962445D03*
%TD*%
%TO.N,COL0*%
%TO.C,MX78*%
X120831603Y-262126683D03*
%TO.N,Net-(D78-A)*%
X127549591Y-260844987D03*
%TD*%
%TO.N,COL8*%
%TO.C,MX73*%
X332876288Y-253513564D03*
%TO.N,Net-(D73-A)*%
X338624965Y-249808594D03*
%TD*%
%TO.N,COL9*%
%TO.C,MX61*%
X357291373Y-229361199D03*
%TO.N,Net-(D61-A)*%
X363040050Y-225656229D03*
%TD*%
%TO.N,COL12*%
%TO.C,MX63*%
X406378868Y-219819557D03*
%TO.N,Net-(D63-A)*%
X412127545Y-216114587D03*
%TD*%
%TO.N,COL14*%
%TO.C,MX89*%
X479407648Y-253416553D03*
%TO.N,Net-(D89-A)*%
X485757648Y-250876553D03*
%TD*%
%TO.N,COL16*%
%TO.C,MX22*%
X226533738Y-205046885D03*
%TO.N,Net-(D22-A)*%
X233251726Y-203765189D03*
%TD*%
%TO.N,COL9*%
%TO.C,MX44*%
X348981462Y-211569929D03*
%TO.N,Net-(D44-A)*%
X354730139Y-207864959D03*
%TD*%
%TO.N,COL3*%
%TO.C,MX67*%
X201604005Y-258420695D03*
%TO.N,Net-(D67-A)*%
X208321993Y-257138999D03*
%TD*%
%TO.N,COL9*%
%TO.C,MX74*%
X351576286Y-249878653D03*
%TO.N,Net-(D74-A)*%
X357324963Y-246173683D03*
%TD*%
%TO.N,COL2*%
%TO.C,MX36*%
X176148832Y-214659604D03*
%TO.N,Net-(D36-A)*%
X182866820Y-213377908D03*
%TD*%
%TO.N,COL16*%
%TO.C,MX39*%
X232248825Y-225564338D03*
%TO.N,Net-(D39-A)*%
X238966813Y-224282642D03*
%TD*%
%TO.N,COL13*%
%TO.C,MX88*%
X460357648Y-253416553D03*
%TO.N,Net-(D88-A)*%
X466707648Y-250876553D03*
%TD*%
%TO.N,COL2*%
%TO.C,MX19*%
X170433744Y-194142151D03*
%TO.N,Net-(D19-A)*%
X177151732Y-192860455D03*
%TD*%
%TO.N,COL2*%
%TO.C,MX3*%
X189911110Y-168818338D03*
%TO.N,Net-(D3-A)*%
X196629098Y-167536642D03*
%TD*%
%TO.N,COL6*%
%TO.C,MX71*%
X295476292Y-260783387D03*
%TO.N,Net-(D71-A)*%
X301224969Y-257078417D03*
%TD*%
%TO.N,COL8*%
%TO.C,MX27*%
X335996552Y-194687387D03*
%TO.N,Net-(D27-A)*%
X341745229Y-190982417D03*
%TD*%
%TO.N,COL4*%
%TO.C,MX5*%
X227311105Y-176088160D03*
%TO.N,Net-(D5-A)*%
X234029093Y-174806464D03*
%TD*%
%TO.N,COL12*%
%TO.C,MX76*%
X405338779Y-239428282D03*
%TO.N,Net-(D76-A)*%
X411087456Y-235723312D03*
%TD*%
%TO.N,COL8*%
%TO.C,MX9*%
X321194186Y-168454846D03*
%TO.N,Net-(D9-A)*%
X326942863Y-164749876D03*
%TD*%
%TO.N,COL12*%
%TO.C,MX13*%
X405344176Y-152097745D03*
%TO.N,Net-(D13-A)*%
X411092853Y-148392775D03*
%TD*%
%TO.N,COL4*%
%TO.C,MX21*%
X207833740Y-201411973D03*
%TO.N,Net-(D21-A)*%
X214551728Y-200130277D03*
%TD*%
%TO.N,COL15*%
%TO.C,MX33*%
X498457648Y-177216553D03*
%TO.N,Net-(D33-A)*%
X504807648Y-174676553D03*
%TD*%
%TO.N,COL7*%
%TO.C,MX26*%
X317296554Y-198322298D03*
%TO.N,Net-(D26-A)*%
X323045231Y-194617328D03*
%TD*%
%TO.N,COL11*%
%TO.C,MX12*%
X386644179Y-155732656D03*
%TO.N,Net-(D12-A)*%
X392392856Y-152027686D03*
%TD*%
%TO.N,COL15*%
%TO.C,MX16*%
X498457648Y-148641553D03*
%TO.N,Net-(D16-A)*%
X504807648Y-146101553D03*
%TD*%
%TO.N,COL0*%
%TO.C,MX34*%
X134073837Y-206481054D03*
%TO.N,Net-(D34-A)*%
X140791825Y-205199358D03*
%TD*%
%TO.N,COL5*%
%TO.C,MX40*%
X274181471Y-226109575D03*
%TO.N,Net-(D40-A)*%
X279930148Y-222404605D03*
%TD*%
%TO.N,COL5*%
%TO.C,MX82*%
X308461202Y-277665929D03*
%TO.N,Net-(D82-A)*%
X314209879Y-273960959D03*
%TD*%
%TO.N,COL8*%
%TO.C,MX43*%
X330281465Y-215204840D03*
%TO.N,Net-(D43-A)*%
X336030142Y-211499870D03*
%TD*%
%TO.N,COL12*%
%TO.C,MX30*%
X401446545Y-181965197D03*
%TO.N,Net-(D30-A)*%
X407195222Y-178260227D03*
%TD*%
%TO.N,COL6*%
%TO.C,MX7*%
X283794190Y-175724669D03*
%TO.N,Net-(D7-A)*%
X289542867Y-172019699D03*
%TD*%
%TO.N,COL4*%
%TO.C,MX68*%
X220304003Y-262055606D03*
%TO.N,Net-(D68-A)*%
X227021991Y-260773910D03*
%TD*%
%TO.N,COL0*%
%TO.C,MX17*%
X133033749Y-186872328D03*
%TO.N,Net-(D17-A)*%
X139751737Y-185590632D03*
%TD*%
%TO.N,COL1*%
%TO.C,MX35*%
X157448834Y-211024693D03*
%TO.N,Net-(D35-A)*%
X164166822Y-209742997D03*
%TD*%
%TO.N,COL3*%
%TO.C,MX4*%
X208611108Y-172453249D03*
%TO.N,Net-(D4-A)*%
X215329096Y-171171553D03*
%TD*%
%TO.N,COL7*%
%TO.C,MX8*%
X302494188Y-172089757D03*
%TO.N,Net-(D8-A)*%
X308242865Y-168384787D03*
%TD*%
%TO.N,COL0*%
%TO.C,MX1*%
X138486116Y-158822331D03*
%TO.N,Net-(D1-A)*%
X145204104Y-157540635D03*
%TD*%
%TO.N,COL14*%
%TO.C,MX49*%
X479407648Y-196266553D03*
%TO.N,Net-(D49-A)*%
X485757648Y-193726553D03*
%TD*%
D11*
%TO.N,SWC*%
%TO.C,J3*%
X266007036Y-276600614D03*
%TO.N,SWD*%
X268547036Y-276600614D03*
%TO.N,RESET*%
X271087037Y-276600614D03*
%TO.N,+3V3*%
X273627036Y-276600614D03*
D12*
%TO.N,GND*%
X276167036Y-276600614D03*
%TD*%
D10*
%TO.N,COL6*%
%TO.C,MX83*%
X348198698Y-269941742D03*
%TO.N,Net-(D83-A)*%
X353947375Y-266236772D03*
%TD*%
%TO.N,COL13*%
%TO.C,MX48*%
X460357648Y-196266553D03*
%TO.N,Net-(D48-A)*%
X466707648Y-193726553D03*
%TD*%
%TO.N,COL10*%
%TO.C,MX62*%
X375991371Y-225726288D03*
%TO.N,Net-(D62-A)*%
X381740048Y-222021318D03*
%TD*%
%TO.N,COL10*%
%TO.C,MX75*%
X370276283Y-246243741D03*
%TO.N,Net-(D75-A)*%
X376024960Y-242538771D03*
%TD*%
%TO.N,COL6*%
%TO.C,MX25*%
X298596556Y-201957210D03*
%TO.N,Net-(D25-A)*%
X304345233Y-198252240D03*
%TD*%
%TO.N,COL14*%
%TO.C,MX32*%
X479407648Y-177216553D03*
%TO.N,Net-(D32-A)*%
X485757648Y-174676553D03*
%TD*%
%TO.N,COL14*%
%TO.C,MX15*%
X479407648Y-148641553D03*
%TO.N,Net-(D15-A)*%
X485757648Y-146101553D03*
%TD*%
%TO.N,COL6*%
%TO.C,MX41*%
X292881469Y-222474663D03*
%TO.N,Net-(D41-A)*%
X298630146Y-218769693D03*
%TD*%
%TO.N,COL11*%
%TO.C,MX86*%
X406636191Y-258582644D03*
%TO.N,Net-(D86-A)*%
X412384868Y-254877674D03*
%TD*%
%TO.N,COL8*%
%TO.C,MX60*%
X338591375Y-232996110D03*
%TO.N,Net-(D60-A)*%
X344340052Y-229291140D03*
%TD*%
%TO.N,COL9*%
%TO.C,MX10*%
X349244183Y-163002479D03*
%TO.N,Net-(D10-A)*%
X354992860Y-159297509D03*
%TD*%
%TO.N,COL3*%
%TO.C,MX81*%
X204981593Y-278483784D03*
%TO.N,Net-(D81-A)*%
X211699581Y-277202088D03*
%TD*%
%TO.N,COL1*%
%TO.C,MX65*%
X164204010Y-251150872D03*
%TO.N,Net-(D65-A)*%
X170921998Y-249869176D03*
%TD*%
%TO.N,COL13*%
%TO.C,MX14*%
X460357648Y-148641553D03*
%TO.N,Net-(D14-A)*%
X466707648Y-146101553D03*
%TD*%
%TO.N,COL4*%
%TO.C,MX38*%
X213548828Y-221929427D03*
%TO.N,Net-(D38-A)*%
X220266816Y-220647731D03*
%TD*%
%TO.N,COL11*%
%TO.C,MX46*%
X386381458Y-204300106D03*
%TO.N,Net-(D46-A)*%
X392130135Y-200595136D03*
%TD*%
%TO.N,COL2*%
%TO.C,MX53*%
X177188920Y-234268330D03*
%TO.N,Net-(D53-A)*%
X183906908Y-232986634D03*
%TD*%
%TO.N,COL10*%
%TO.C,MX29*%
X373396548Y-187417564D03*
%TO.N,Net-(D29-A)*%
X379145225Y-183712594D03*
%TD*%
%TO.N,COL17*%
%TO.C,MX23*%
X245233736Y-208681796D03*
%TO.N,Net-(D23-A)*%
X251951724Y-207400100D03*
%TD*%
%TO.N,COL13*%
%TO.C,MX31*%
X460357648Y-177216553D03*
%TO.N,Net-(D31-A)*%
X466707648Y-174676553D03*
%TD*%
%TO.N,COL3*%
%TO.C,MX37*%
X194848830Y-218294516D03*
%TO.N,Net-(D37-A)*%
X201566818Y-217012820D03*
%TD*%
%TO.N,COL7*%
%TO.C,MX42*%
X311581467Y-218839752D03*
%TO.N,Net-(D42-A)*%
X317330144Y-215134782D03*
%TD*%
%TO.N,COL15*%
%TO.C,MX90*%
X498457648Y-253416553D03*
%TO.N,Net-(D90-A)*%
X504807648Y-250876553D03*
%TD*%
%TO.N,COL10*%
%TO.C,MX45*%
X367681460Y-207935018D03*
%TO.N,Net-(D45-A)*%
X373430137Y-204230048D03*
%TD*%
%TO.N,COL3*%
%TO.C,MX20*%
X189133742Y-197777062D03*
%TO.N,Net-(D20-A)*%
X195851730Y-196495366D03*
%TD*%
%TO.N,COL10*%
%TO.C,MX85*%
X387936193Y-262217556D03*
%TO.N,Net-(D85-A)*%
X393684870Y-258512586D03*
%TD*%
%TO.N,COL15*%
%TO.C,MX50*%
X498457648Y-196266553D03*
%TO.N,Net-(D50-A)*%
X504807648Y-193726553D03*
%TD*%
%TO.N,COL3*%
%TO.C,MX54*%
X195888918Y-237903241D03*
%TO.N,Net-(D54-A)*%
X202606906Y-236621545D03*
%TD*%
%TO.N,COL10*%
%TO.C,MX11*%
X367944181Y-159367567D03*
%TO.N,Net-(D11-A)*%
X373692858Y-155662597D03*
%TD*%
%TO.N,COL2*%
%TO.C,MX80*%
X167581598Y-271213962D03*
%TO.N,Net-(D80-A)*%
X174299586Y-269932266D03*
%TD*%
%TO.N,COL9*%
%TO.C,MX28*%
X354696550Y-191052476D03*
%TO.N,Net-(D28-A)*%
X360445227Y-187347506D03*
%TD*%
%TO.N,COL5*%
%TO.C,MX57*%
X282491382Y-243900845D03*
%TO.N,Net-(D57-A)*%
X288240059Y-240195875D03*
%TD*%
%TO.N,COL7*%
%TO.C,MX59*%
X319891378Y-236631022D03*
%TO.N,Net-(D59-A)*%
X325640055Y-232926052D03*
%TD*%
%TO.N,COL12*%
%TO.C,MX47*%
X409756455Y-199756467D03*
%TO.N,Net-(D47-A)*%
X415505132Y-196051497D03*
%TD*%
%TO.N,COL5*%
%TO.C,MX6*%
X265094193Y-179359580D03*
%TO.N,Net-(D6-A)*%
X270842870Y-175654610D03*
%TD*%
%TO.N,COL1*%
%TO.C,MX79*%
X144206600Y-266670323D03*
%TO.N,Net-(D79-A)*%
X150924588Y-265388627D03*
%TD*%
%TO.N,COL16*%
%TO.C,MX56*%
X233288914Y-245173064D03*
%TO.N,Net-(D56-A)*%
X240006902Y-243891368D03*
%TD*%
%TO.N,COL5*%
%TO.C,MX70*%
X276776294Y-264418298D03*
%TO.N,Net-(D70-A)*%
X282524971Y-260713328D03*
%TD*%
%TO.N,COL14*%
%TO.C,MX77*%
X479407648Y-234366553D03*
%TO.N,Net-(D77-A)*%
X485757648Y-231826553D03*
%TD*%
%TO.N,COL7*%
%TO.C,MX72*%
X314176290Y-257148475D03*
%TO.N,Net-(D72-A)*%
X319924967Y-253443505D03*
%TD*%
%TO.N,COL0*%
%TO.C,MX51*%
X132776425Y-225635415D03*
%TO.N,Net-(D51-A)*%
X139494413Y-224353719D03*
%TD*%
%TO.N,COL12*%
%TO.C,MX87*%
X425336189Y-254947733D03*
%TO.N,Net-(D87-A)*%
X431084866Y-251242763D03*
%TD*%
D13*
%TO.N,GND*%
X238947037Y-300500615D03*
X277709740Y-295667622D03*
X258367273Y-287592623D03*
X238947037Y-292900614D03*
X258044480Y-280392623D03*
X272619480Y-293386572D03*
X278009740Y-287600613D03*
X267209740Y-287396311D03*
X437109740Y-155396311D03*
X264809739Y-287396311D03*
X266009760Y-288596301D03*
X432628506Y-159939774D03*
X264847037Y-279400614D03*
X264809740Y-289796311D03*
X267744479Y-299267622D03*
X269394480Y-296317622D03*
X263069480Y-282563638D03*
X256019479Y-296986571D03*
X261219480Y-294986570D03*
X267209741Y-289796311D03*
%TO.N,+3V3*%
X266546572Y-299942622D03*
X435509740Y-265296311D03*
X270609740Y-282996311D03*
X437109740Y-245296311D03*
X267694480Y-298367623D03*
%TO.N,+1V1*%
X263419479Y-299042622D03*
X268719479Y-293417622D03*
X268294480Y-281567623D03*
%TO.N,ROW0*%
X260609740Y-190596311D03*
X252009740Y-274496311D03*
X437609740Y-158496311D03*
X426809740Y-158496311D03*
%TO.N,ROW1*%
X431609740Y-192296311D03*
X436409740Y-192296311D03*
X261909740Y-219196311D03*
X253109740Y-274496311D03*
%TO.N,ROW2*%
X263209740Y-234896311D03*
X254109740Y-274496311D03*
X442409740Y-206296311D03*
X435209740Y-206296311D03*
%TO.N,ROW3*%
X264609740Y-254696311D03*
X280109740Y-275096311D03*
%TO.N,ROW5*%
X259809740Y-294996311D03*
X284909740Y-296096311D03*
X215409740Y-293896311D03*
%TO.N,COL0*%
X242859740Y-287146311D03*
%TO.N,COL1*%
X243859740Y-286396311D03*
%TO.N,COL2*%
X244859740Y-285821311D03*
%TO.N,COL3*%
X245859740Y-284896311D03*
%TO.N,COL4*%
X246859745Y-284146306D03*
%TO.N,COL5*%
X280609740Y-280096311D03*
%TO.N,COL6*%
X288209736Y-286096311D03*
%TO.N,COL7*%
X287409740Y-287096311D03*
%TO.N,COL8*%
X286409740Y-288096311D03*
%TO.N,COL9*%
X285609740Y-289096311D03*
%TO.N,COL10*%
X284809740Y-290096311D03*
%TO.N,COL11*%
X284009740Y-291096311D03*
%TO.N,COL12*%
X283209740Y-292096311D03*
%TO.N,COL13*%
X282609740Y-292896437D03*
%TO.N,COL14*%
X281859740Y-293646311D03*
%TO.N,COL15*%
X281109740Y-294396311D03*
%TO.N,COL16*%
X247859740Y-283396311D03*
%TO.N,COL17*%
X248609740Y-282646311D03*
%TO.N,D-*%
X435509740Y-266496311D03*
X438309740Y-245196311D03*
%TO.N,D+*%
X435509740Y-267396311D03*
X439672240Y-245133811D03*
%TO.N,RESET*%
X249147036Y-289100614D03*
X273709740Y-283496311D03*
%TD*%
D14*
%TO.N,ROW0*%
X426809740Y-158496311D02*
X437609740Y-158496311D01*
X260609740Y-265896311D02*
X252009740Y-274496311D01*
X260609740Y-190596311D02*
X260609740Y-265896311D01*
%TO.N,ROW1*%
X261909740Y-265696311D02*
X261909740Y-219196311D01*
X431609740Y-192296311D02*
X436409740Y-192296311D01*
X253109740Y-274496311D02*
X261909740Y-265696311D01*
%TO.N,ROW2*%
X435209740Y-206296311D02*
X442409740Y-206296311D01*
X263209740Y-265396311D02*
X254109740Y-274496311D01*
X263209740Y-234896311D02*
X263209740Y-265396311D01*
%TO.N,ROW3*%
X264609740Y-259596311D02*
X280109740Y-275096311D01*
X264609740Y-254696311D02*
X264609740Y-259596311D01*
%TD*%
M02*
