%TF.GenerationSoftware,KiCad,Pcbnew,8.0.5*%
%TF.CreationDate,2024-09-16T13:01:27+09:00*%
%TF.ProjectId,ttaelgam,74746165-6c67-4616-9d2e-6b696361645f,rev?*%
%TF.SameCoordinates,Original*%
%TF.FileFunction,Other,Comment*%
%FSLAX46Y46*%
G04 Gerber Fmt 4.6, Leading zero omitted, Abs format (unit mm)*
G04 Created by KiCad (PCBNEW 8.0.5) date 2024-09-16 13:01:27*
%MOMM*%
%LPD*%
G01*
G04 APERTURE LIST*
%ADD10C,0.150000*%
G04 APERTURE END LIST*
D10*
X406404876Y-214585244D02*
X406214067Y-213603616D01*
X406214067Y-213603616D02*
X406677568Y-214241176D01*
X406677568Y-214241176D02*
X406868485Y-213476410D01*
X406868485Y-213476410D02*
X407059294Y-214458038D01*
X407242438Y-213403721D02*
X408087665Y-214258143D01*
X407896856Y-213276515D02*
X407433247Y-214385349D01*
X408246070Y-214324372D02*
X408993976Y-214178994D01*
X409153695Y-214002417D02*
X409256269Y-214030989D01*
X409256269Y-214030989D02*
X409443246Y-213994644D01*
X409443246Y-213994644D02*
X409527648Y-213929728D01*
X409527648Y-213929728D02*
X409556220Y-213827153D01*
X409556220Y-213827153D02*
X409547134Y-213780409D01*
X409547134Y-213780409D02*
X409482217Y-213696007D01*
X409482217Y-213696007D02*
X409379643Y-213667435D01*
X409379643Y-213667435D02*
X409239410Y-213694694D01*
X409239410Y-213694694D02*
X409136836Y-213666122D01*
X409136836Y-213666122D02*
X409071919Y-213581720D01*
X409071919Y-213581720D02*
X409062833Y-213534976D01*
X409062833Y-213534976D02*
X409091405Y-213432401D01*
X409091405Y-213432401D02*
X409175807Y-213367485D01*
X409175807Y-213367485D02*
X409316040Y-213340226D01*
X409316040Y-213340226D02*
X409418614Y-213368798D01*
X409736737Y-213258451D02*
X410110690Y-213185762D01*
X409813367Y-212903983D02*
X409976917Y-213745378D01*
X409976917Y-213745378D02*
X410041834Y-213829780D01*
X410041834Y-213829780D02*
X410144408Y-213858352D01*
X410144408Y-213858352D02*
X410237896Y-213840180D01*
X410985803Y-213694802D02*
X410885856Y-213180616D01*
X410885856Y-213180616D02*
X410820939Y-213096214D01*
X410820939Y-213096214D02*
X410718365Y-213067642D01*
X410718365Y-213067642D02*
X410531388Y-213103986D01*
X410531388Y-213103986D02*
X410446986Y-213168903D01*
X410976717Y-213648057D02*
X410892315Y-213712974D01*
X410892315Y-213712974D02*
X410658594Y-213758405D01*
X410658594Y-213758405D02*
X410556020Y-213729833D01*
X410556020Y-213729833D02*
X410491103Y-213645431D01*
X410491103Y-213645431D02*
X410472931Y-213551942D01*
X410472931Y-213551942D02*
X410501503Y-213449368D01*
X410501503Y-213449368D02*
X410585905Y-213384451D01*
X410585905Y-213384451D02*
X410819626Y-213339021D01*
X410819626Y-213339021D02*
X410904028Y-213274104D01*
X411453245Y-213603940D02*
X411262436Y-212622313D01*
X411335125Y-212996266D02*
X411419527Y-212931350D01*
X411419527Y-212931350D02*
X411606504Y-212895005D01*
X411606504Y-212895005D02*
X411709078Y-212923577D01*
X411709078Y-212923577D02*
X411764909Y-212961235D01*
X411764909Y-212961235D02*
X411829825Y-213045637D01*
X411829825Y-213045637D02*
X411884342Y-213326102D01*
X411884342Y-213326102D02*
X411855770Y-213428677D01*
X411855770Y-213428677D02*
X411818112Y-213484507D01*
X411818112Y-213484507D02*
X411733710Y-213549423D01*
X411733710Y-213549423D02*
X411546733Y-213585768D01*
X411546733Y-213585768D02*
X411444159Y-213557196D01*
X308487210Y-272431616D02*
X308296401Y-271449988D01*
X308296401Y-271449988D02*
X308759902Y-272087548D01*
X308759902Y-272087548D02*
X308950819Y-271322782D01*
X308950819Y-271322782D02*
X309141628Y-272304410D01*
X309324772Y-271250093D02*
X310169999Y-272104515D01*
X309979190Y-271122887D02*
X309515581Y-272231721D01*
X310328404Y-272170744D02*
X311076310Y-272025366D01*
X311236029Y-271848789D02*
X311338603Y-271877361D01*
X311338603Y-271877361D02*
X311525580Y-271841016D01*
X311525580Y-271841016D02*
X311609982Y-271776100D01*
X311609982Y-271776100D02*
X311638554Y-271673525D01*
X311638554Y-271673525D02*
X311629468Y-271626781D01*
X311629468Y-271626781D02*
X311564551Y-271542379D01*
X311564551Y-271542379D02*
X311461977Y-271513807D01*
X311461977Y-271513807D02*
X311321744Y-271541066D01*
X311321744Y-271541066D02*
X311219170Y-271512494D01*
X311219170Y-271512494D02*
X311154253Y-271428092D01*
X311154253Y-271428092D02*
X311145167Y-271381348D01*
X311145167Y-271381348D02*
X311173739Y-271278773D01*
X311173739Y-271278773D02*
X311258141Y-271213857D01*
X311258141Y-271213857D02*
X311398374Y-271186598D01*
X311398374Y-271186598D02*
X311500948Y-271215170D01*
X311819071Y-271104823D02*
X312193024Y-271032134D01*
X311895701Y-270750355D02*
X312059251Y-271591750D01*
X312059251Y-271591750D02*
X312124168Y-271676152D01*
X312124168Y-271676152D02*
X312226742Y-271704724D01*
X312226742Y-271704724D02*
X312320230Y-271686552D01*
X313068137Y-271541174D02*
X312968190Y-271026988D01*
X312968190Y-271026988D02*
X312903273Y-270942586D01*
X312903273Y-270942586D02*
X312800699Y-270914014D01*
X312800699Y-270914014D02*
X312613722Y-270950358D01*
X312613722Y-270950358D02*
X312529320Y-271015275D01*
X313059051Y-271494429D02*
X312974649Y-271559346D01*
X312974649Y-271559346D02*
X312740928Y-271604777D01*
X312740928Y-271604777D02*
X312638354Y-271576205D01*
X312638354Y-271576205D02*
X312573437Y-271491803D01*
X312573437Y-271491803D02*
X312555265Y-271398314D01*
X312555265Y-271398314D02*
X312583837Y-271295740D01*
X312583837Y-271295740D02*
X312668239Y-271230823D01*
X312668239Y-271230823D02*
X312901960Y-271185393D01*
X312901960Y-271185393D02*
X312986362Y-271120476D01*
X313535579Y-271450312D02*
X313344770Y-270468685D01*
X313417459Y-270842638D02*
X313501861Y-270777722D01*
X313501861Y-270777722D02*
X313688838Y-270741377D01*
X313688838Y-270741377D02*
X313791412Y-270769949D01*
X313791412Y-270769949D02*
X313847243Y-270807607D01*
X313847243Y-270807607D02*
X313912159Y-270892009D01*
X313912159Y-270892009D02*
X313966676Y-271172474D01*
X313966676Y-271172474D02*
X313938104Y-271275049D01*
X313938104Y-271275049D02*
X313900446Y-271330879D01*
X313900446Y-271330879D02*
X313816044Y-271395795D01*
X313816044Y-271395795D02*
X313629067Y-271432140D01*
X313629067Y-271432140D02*
X313526493Y-271403568D01*
X401472553Y-176730884D02*
X401281744Y-175749256D01*
X401281744Y-175749256D02*
X401745245Y-176386816D01*
X401745245Y-176386816D02*
X401936162Y-175622050D01*
X401936162Y-175622050D02*
X402126971Y-176603678D01*
X402310115Y-175549361D02*
X403155342Y-176403783D01*
X402964533Y-175422155D02*
X402500924Y-176530989D01*
X403313747Y-176470012D02*
X404061653Y-176324634D01*
X404221372Y-176148057D02*
X404323946Y-176176629D01*
X404323946Y-176176629D02*
X404510923Y-176140284D01*
X404510923Y-176140284D02*
X404595325Y-176075368D01*
X404595325Y-176075368D02*
X404623897Y-175972793D01*
X404623897Y-175972793D02*
X404614811Y-175926049D01*
X404614811Y-175926049D02*
X404549894Y-175841647D01*
X404549894Y-175841647D02*
X404447320Y-175813075D01*
X404447320Y-175813075D02*
X404307087Y-175840334D01*
X404307087Y-175840334D02*
X404204513Y-175811762D01*
X404204513Y-175811762D02*
X404139596Y-175727360D01*
X404139596Y-175727360D02*
X404130510Y-175680616D01*
X404130510Y-175680616D02*
X404159082Y-175578041D01*
X404159082Y-175578041D02*
X404243484Y-175513125D01*
X404243484Y-175513125D02*
X404383717Y-175485866D01*
X404383717Y-175485866D02*
X404486291Y-175514438D01*
X404804414Y-175404091D02*
X405178367Y-175331402D01*
X404881044Y-175049623D02*
X405044594Y-175891018D01*
X405044594Y-175891018D02*
X405109511Y-175975420D01*
X405109511Y-175975420D02*
X405212085Y-176003992D01*
X405212085Y-176003992D02*
X405305573Y-175985820D01*
X406053480Y-175840442D02*
X405953533Y-175326256D01*
X405953533Y-175326256D02*
X405888616Y-175241854D01*
X405888616Y-175241854D02*
X405786042Y-175213282D01*
X405786042Y-175213282D02*
X405599065Y-175249626D01*
X405599065Y-175249626D02*
X405514663Y-175314543D01*
X406044394Y-175793697D02*
X405959992Y-175858614D01*
X405959992Y-175858614D02*
X405726271Y-175904045D01*
X405726271Y-175904045D02*
X405623697Y-175875473D01*
X405623697Y-175875473D02*
X405558780Y-175791071D01*
X405558780Y-175791071D02*
X405540608Y-175697582D01*
X405540608Y-175697582D02*
X405569180Y-175595008D01*
X405569180Y-175595008D02*
X405653582Y-175530091D01*
X405653582Y-175530091D02*
X405887303Y-175484661D01*
X405887303Y-175484661D02*
X405971705Y-175419744D01*
X406520922Y-175749580D02*
X406330113Y-174767953D01*
X406402802Y-175141906D02*
X406487204Y-175076990D01*
X406487204Y-175076990D02*
X406674181Y-175040645D01*
X406674181Y-175040645D02*
X406776755Y-175069217D01*
X406776755Y-175069217D02*
X406832586Y-175106875D01*
X406832586Y-175106875D02*
X406897502Y-175191277D01*
X406897502Y-175191277D02*
X406952019Y-175471742D01*
X406952019Y-175471742D02*
X406923447Y-175574317D01*
X406923447Y-175574317D02*
X406885789Y-175630147D01*
X406885789Y-175630147D02*
X406801387Y-175695063D01*
X406801387Y-175695063D02*
X406614410Y-175731408D01*
X406614410Y-175731408D02*
X406511836Y-175702836D01*
X206966517Y-273640356D02*
X207157326Y-272658729D01*
X207157326Y-272658729D02*
X207348243Y-273423494D01*
X207348243Y-273423494D02*
X207811744Y-272785935D01*
X207811744Y-272785935D02*
X207620935Y-273767562D01*
X208185697Y-272858624D02*
X208649306Y-273967457D01*
X208840115Y-272985830D02*
X207994888Y-273840251D01*
X208771366Y-274088204D02*
X209519273Y-274233582D01*
X209733508Y-274129694D02*
X209817910Y-274194611D01*
X209817910Y-274194611D02*
X210004887Y-274230955D01*
X210004887Y-274230955D02*
X210107461Y-274202383D01*
X210107461Y-274202383D02*
X210172377Y-274117981D01*
X210172377Y-274117981D02*
X210181464Y-274071237D01*
X210181464Y-274071237D02*
X210152892Y-273968662D01*
X210152892Y-273968662D02*
X210068490Y-273903746D01*
X210068490Y-273903746D02*
X209928257Y-273876488D01*
X209928257Y-273876488D02*
X209843855Y-273811571D01*
X209843855Y-273811571D02*
X209815283Y-273708997D01*
X209815283Y-273708997D02*
X209824369Y-273662253D01*
X209824369Y-273662253D02*
X209889286Y-273577850D01*
X209889286Y-273577850D02*
X209991860Y-273549279D01*
X209991860Y-273549279D02*
X210132093Y-273576537D01*
X210132093Y-273576537D02*
X210216495Y-273641453D01*
X210552790Y-273658312D02*
X210926743Y-273731001D01*
X210756626Y-273358362D02*
X210593075Y-274199756D01*
X210593075Y-274199756D02*
X210621647Y-274302331D01*
X210621647Y-274302331D02*
X210706049Y-274367247D01*
X210706049Y-274367247D02*
X210799537Y-274385420D01*
X211547444Y-274530798D02*
X211647392Y-274016612D01*
X211647392Y-274016612D02*
X211618820Y-273914038D01*
X211618820Y-273914038D02*
X211534418Y-273849121D01*
X211534418Y-273849121D02*
X211347441Y-273812777D01*
X211347441Y-273812777D02*
X211244867Y-273841349D01*
X211556530Y-274484054D02*
X211453956Y-274512626D01*
X211453956Y-274512626D02*
X211220235Y-274467195D01*
X211220235Y-274467195D02*
X211135833Y-274402278D01*
X211135833Y-274402278D02*
X211107261Y-274299704D01*
X211107261Y-274299704D02*
X211125433Y-274206216D01*
X211125433Y-274206216D02*
X211190350Y-274121814D01*
X211190350Y-274121814D02*
X211292924Y-274093242D01*
X211292924Y-274093242D02*
X211526645Y-274138672D01*
X211526645Y-274138672D02*
X211629219Y-274110101D01*
X212014886Y-274621659D02*
X212205695Y-273640032D01*
X212133006Y-274013985D02*
X212235580Y-273985414D01*
X212235580Y-273985414D02*
X212422557Y-274021758D01*
X212422557Y-274021758D02*
X212506959Y-274086675D01*
X212506959Y-274086675D02*
X212544617Y-274142505D01*
X212544617Y-274142505D02*
X212573189Y-274245079D01*
X212573189Y-274245079D02*
X212518672Y-274525544D01*
X212518672Y-274525544D02*
X212453755Y-274609946D01*
X212453755Y-274609946D02*
X212397925Y-274647604D01*
X212397925Y-274647604D02*
X212295351Y-274676176D01*
X212295351Y-274676176D02*
X212108374Y-274639832D01*
X212108374Y-274639832D02*
X212023972Y-274574915D01*
X405364787Y-234193969D02*
X405173978Y-233212341D01*
X405173978Y-233212341D02*
X405637479Y-233849901D01*
X405637479Y-233849901D02*
X405828396Y-233085135D01*
X405828396Y-233085135D02*
X406019205Y-234066763D01*
X406202349Y-233012446D02*
X407047576Y-233866868D01*
X406856767Y-232885240D02*
X406393158Y-233994074D01*
X407205981Y-233933097D02*
X407953887Y-233787719D01*
X408113606Y-233611142D02*
X408216180Y-233639714D01*
X408216180Y-233639714D02*
X408403157Y-233603369D01*
X408403157Y-233603369D02*
X408487559Y-233538453D01*
X408487559Y-233538453D02*
X408516131Y-233435878D01*
X408516131Y-233435878D02*
X408507045Y-233389134D01*
X408507045Y-233389134D02*
X408442128Y-233304732D01*
X408442128Y-233304732D02*
X408339554Y-233276160D01*
X408339554Y-233276160D02*
X408199321Y-233303419D01*
X408199321Y-233303419D02*
X408096747Y-233274847D01*
X408096747Y-233274847D02*
X408031830Y-233190445D01*
X408031830Y-233190445D02*
X408022744Y-233143701D01*
X408022744Y-233143701D02*
X408051316Y-233041126D01*
X408051316Y-233041126D02*
X408135718Y-232976210D01*
X408135718Y-232976210D02*
X408275951Y-232948951D01*
X408275951Y-232948951D02*
X408378525Y-232977523D01*
X408696648Y-232867176D02*
X409070601Y-232794487D01*
X408773278Y-232512708D02*
X408936828Y-233354103D01*
X408936828Y-233354103D02*
X409001745Y-233438505D01*
X409001745Y-233438505D02*
X409104319Y-233467077D01*
X409104319Y-233467077D02*
X409197807Y-233448905D01*
X409945714Y-233303527D02*
X409845767Y-232789341D01*
X409845767Y-232789341D02*
X409780850Y-232704939D01*
X409780850Y-232704939D02*
X409678276Y-232676367D01*
X409678276Y-232676367D02*
X409491299Y-232712711D01*
X409491299Y-232712711D02*
X409406897Y-232777628D01*
X409936628Y-233256782D02*
X409852226Y-233321699D01*
X409852226Y-233321699D02*
X409618505Y-233367130D01*
X409618505Y-233367130D02*
X409515931Y-233338558D01*
X409515931Y-233338558D02*
X409451014Y-233254156D01*
X409451014Y-233254156D02*
X409432842Y-233160667D01*
X409432842Y-233160667D02*
X409461414Y-233058093D01*
X409461414Y-233058093D02*
X409545816Y-232993176D01*
X409545816Y-232993176D02*
X409779537Y-232947746D01*
X409779537Y-232947746D02*
X409863939Y-232882829D01*
X410413156Y-233212665D02*
X410222347Y-232231038D01*
X410295036Y-232604991D02*
X410379438Y-232540075D01*
X410379438Y-232540075D02*
X410566415Y-232503730D01*
X410566415Y-232503730D02*
X410668989Y-232532302D01*
X410668989Y-232532302D02*
X410724820Y-232569960D01*
X410724820Y-232569960D02*
X410789736Y-232654362D01*
X410789736Y-232654362D02*
X410844253Y-232934827D01*
X410844253Y-232934827D02*
X410815681Y-233037402D01*
X410815681Y-233037402D02*
X410778023Y-233093232D01*
X410778023Y-233093232D02*
X410693621Y-233158148D01*
X410693621Y-233158148D02*
X410506644Y-233194493D01*
X410506644Y-233194493D02*
X410404070Y-233165921D01*
X135801437Y-240400713D02*
X135992246Y-239419086D01*
X135992246Y-239419086D02*
X136183163Y-240183851D01*
X136183163Y-240183851D02*
X136646664Y-239546292D01*
X136646664Y-239546292D02*
X136455855Y-240527919D01*
X137020617Y-239618981D02*
X137484226Y-240727814D01*
X137675035Y-239746187D02*
X136829808Y-240600608D01*
X137606286Y-240848561D02*
X138354193Y-240993939D01*
X138568428Y-240890051D02*
X138652830Y-240954968D01*
X138652830Y-240954968D02*
X138839807Y-240991312D01*
X138839807Y-240991312D02*
X138942381Y-240962740D01*
X138942381Y-240962740D02*
X139007297Y-240878338D01*
X139007297Y-240878338D02*
X139016384Y-240831594D01*
X139016384Y-240831594D02*
X138987812Y-240729019D01*
X138987812Y-240729019D02*
X138903410Y-240664103D01*
X138903410Y-240664103D02*
X138763177Y-240636845D01*
X138763177Y-240636845D02*
X138678775Y-240571928D01*
X138678775Y-240571928D02*
X138650203Y-240469354D01*
X138650203Y-240469354D02*
X138659289Y-240422610D01*
X138659289Y-240422610D02*
X138724206Y-240338207D01*
X138724206Y-240338207D02*
X138826780Y-240309636D01*
X138826780Y-240309636D02*
X138967013Y-240336894D01*
X138967013Y-240336894D02*
X139051415Y-240401810D01*
X139387710Y-240418669D02*
X139761663Y-240491358D01*
X139591546Y-240118719D02*
X139427995Y-240960113D01*
X139427995Y-240960113D02*
X139456567Y-241062688D01*
X139456567Y-241062688D02*
X139540969Y-241127604D01*
X139540969Y-241127604D02*
X139634457Y-241145777D01*
X140382364Y-241291155D02*
X140482312Y-240776969D01*
X140482312Y-240776969D02*
X140453740Y-240674395D01*
X140453740Y-240674395D02*
X140369338Y-240609478D01*
X140369338Y-240609478D02*
X140182361Y-240573134D01*
X140182361Y-240573134D02*
X140079787Y-240601706D01*
X140391450Y-241244411D02*
X140288876Y-241272983D01*
X140288876Y-241272983D02*
X140055155Y-241227552D01*
X140055155Y-241227552D02*
X139970753Y-241162635D01*
X139970753Y-241162635D02*
X139942181Y-241060061D01*
X139942181Y-241060061D02*
X139960353Y-240966573D01*
X139960353Y-240966573D02*
X140025270Y-240882171D01*
X140025270Y-240882171D02*
X140127844Y-240853599D01*
X140127844Y-240853599D02*
X140361565Y-240899029D01*
X140361565Y-240899029D02*
X140464139Y-240870458D01*
X140849806Y-241382016D02*
X141040615Y-240400389D01*
X140967926Y-240774342D02*
X141070500Y-240745771D01*
X141070500Y-240745771D02*
X141257477Y-240782115D01*
X141257477Y-240782115D02*
X141341879Y-240847032D01*
X141341879Y-240847032D02*
X141379537Y-240902862D01*
X141379537Y-240902862D02*
X141408109Y-241005436D01*
X141408109Y-241005436D02*
X141353592Y-241285901D01*
X141353592Y-241285901D02*
X141288675Y-241370303D01*
X141288675Y-241370303D02*
X141232845Y-241407961D01*
X141232845Y-241407961D02*
X141130271Y-241436533D01*
X141130271Y-241436533D02*
X140943294Y-241400189D01*
X140943294Y-241400189D02*
X140858892Y-241335272D01*
M02*
