%TF.GenerationSoftware,KiCad,Pcbnew,8.0.4*%
%TF.CreationDate,2024-09-01T12:40:52+09:00*%
%TF.ProjectId,ttaelgam,74746165-6c67-4616-9d2e-6b696361645f,rev?*%
%TF.SameCoordinates,Original*%
%TF.FileFunction,Legend,Top*%
%TF.FilePolarity,Positive*%
%FSLAX46Y46*%
G04 Gerber Fmt 4.6, Leading zero omitted, Abs format (unit mm)*
G04 Created by KiCad (PCBNEW 8.0.4) date 2024-09-01 12:40:52*
%MOMM*%
%LPD*%
G01*
G04 APERTURE LIST*
%ADD10C,0.300000*%
%ADD11C,3.048000*%
%ADD12C,3.987800*%
%ADD13C,1.750000*%
%ADD14C,3.300000*%
%ADD15O,1.700000X1.700000*%
%ADD16R,1.700000X1.700000*%
%ADD17C,0.600000*%
G04 APERTURE END LIST*
D10*
G36*
X506136481Y-242686401D02*
G01*
X506136481Y-242555941D01*
X506136481Y-242432007D01*
X506136481Y-242314599D01*
X506136481Y-242203716D01*
X506136481Y-242099360D01*
X506136481Y-242001529D01*
X506136481Y-241881239D01*
X506136481Y-241772551D01*
X506136481Y-241653006D01*
X506136481Y-241631272D01*
X506136481Y-241532148D01*
X506136481Y-241429314D01*
X506136481Y-241322771D01*
X506136481Y-241212518D01*
X506136481Y-241098556D01*
X506136481Y-241059744D01*
X506136481Y-240958383D01*
X506136481Y-240877050D01*
X506137946Y-240785215D01*
X506239278Y-240771719D01*
X506343738Y-240761243D01*
X506353857Y-240760302D01*
X506555601Y-240739786D01*
X506605427Y-240785215D01*
X506541924Y-240851160D01*
X506453781Y-240902505D01*
X506377419Y-240965069D01*
X506357765Y-240985006D01*
X506296892Y-241067280D01*
X506258989Y-241161147D01*
X506255671Y-241174538D01*
X506240192Y-241275288D01*
X506233271Y-241376817D01*
X506230493Y-241485749D01*
X506230270Y-241531133D01*
X506328140Y-241539698D01*
X506436249Y-241546159D01*
X506537062Y-241550023D01*
X506645397Y-241552342D01*
X506761254Y-241553114D01*
X506862524Y-241552816D01*
X506962697Y-241551922D01*
X507061773Y-241550431D01*
X507159751Y-241548344D01*
X507275877Y-241545052D01*
X507390423Y-241540902D01*
X507495547Y-241535968D01*
X507596833Y-241529777D01*
X507701629Y-241520122D01*
X507755811Y-241510616D01*
X507841374Y-241457798D01*
X507847158Y-241450044D01*
X507876314Y-241351698D01*
X507887213Y-241249276D01*
X507918476Y-241195543D01*
X507949740Y-241242438D01*
X507949740Y-241280539D01*
X507949740Y-241565327D01*
X507949740Y-241680737D01*
X507949740Y-241792245D01*
X507949740Y-241898999D01*
X507949740Y-241969304D01*
X507952670Y-242142228D01*
X507949740Y-242227225D01*
X507920919Y-242258976D01*
X507887213Y-242206708D01*
X507875943Y-242105529D01*
X507835922Y-242023038D01*
X507753832Y-241966245D01*
X507673257Y-241946834D01*
X507565805Y-241938491D01*
X507465270Y-241934984D01*
X507359191Y-241933095D01*
X507256754Y-241932308D01*
X507189167Y-241932179D01*
X507080636Y-241932493D01*
X506975960Y-241933433D01*
X506875140Y-241935000D01*
X506746710Y-241938065D01*
X506625135Y-241942243D01*
X506510413Y-241947537D01*
X506402545Y-241953944D01*
X506301532Y-241961466D01*
X506230270Y-241967839D01*
X506231399Y-242073321D01*
X506235371Y-242173231D01*
X506245114Y-242275550D01*
X506248344Y-242295613D01*
X506279027Y-242388692D01*
X506332455Y-242472467D01*
X506347018Y-242490030D01*
X506420009Y-242560193D01*
X506501411Y-242614942D01*
X506555113Y-242642438D01*
X506605427Y-242696171D01*
X506566836Y-242742577D01*
X506467369Y-242732960D01*
X506397820Y-242725480D01*
X506295974Y-242713149D01*
X506199219Y-242698380D01*
X506136481Y-242686401D01*
G37*
G36*
X506136481Y-240587867D02*
G01*
X506136481Y-240457407D01*
X506136481Y-240333472D01*
X506136481Y-240216064D01*
X506136481Y-240105182D01*
X506136481Y-240000825D01*
X506136481Y-239902994D01*
X506136481Y-239782705D01*
X506136481Y-239674017D01*
X506136481Y-239554471D01*
X506136481Y-239532738D01*
X506136481Y-239433613D01*
X506136481Y-239330779D01*
X506136481Y-239224236D01*
X506136481Y-239113983D01*
X506136481Y-239000021D01*
X506136481Y-238961209D01*
X506136481Y-238859849D01*
X506136481Y-238778516D01*
X506137946Y-238686680D01*
X506239278Y-238673185D01*
X506343738Y-238662709D01*
X506353857Y-238661768D01*
X506555601Y-238641251D01*
X506605427Y-238686680D01*
X506541924Y-238752626D01*
X506453781Y-238803970D01*
X506377419Y-238866535D01*
X506357765Y-238886471D01*
X506296892Y-238968746D01*
X506258989Y-239062612D01*
X506255671Y-239076003D01*
X506240192Y-239176754D01*
X506233271Y-239278282D01*
X506230493Y-239387215D01*
X506230270Y-239432598D01*
X506328140Y-239441163D01*
X506436249Y-239447625D01*
X506537062Y-239451489D01*
X506645397Y-239453807D01*
X506761254Y-239454580D01*
X506862524Y-239454282D01*
X506962697Y-239453387D01*
X507061773Y-239451897D01*
X507159751Y-239449809D01*
X507275877Y-239446518D01*
X507390423Y-239442368D01*
X507495547Y-239437433D01*
X507596833Y-239431242D01*
X507701629Y-239421587D01*
X507755811Y-239412082D01*
X507841374Y-239359263D01*
X507847158Y-239351509D01*
X507876314Y-239253163D01*
X507887213Y-239150742D01*
X507918476Y-239097008D01*
X507949740Y-239143903D01*
X507949740Y-239182005D01*
X507949740Y-239466792D01*
X507949740Y-239582202D01*
X507949740Y-239693710D01*
X507949740Y-239800464D01*
X507949740Y-239870770D01*
X507952670Y-240043694D01*
X507949740Y-240128690D01*
X507920919Y-240160442D01*
X507887213Y-240108174D01*
X507875943Y-240006994D01*
X507835922Y-239924503D01*
X507753832Y-239867710D01*
X507673257Y-239848299D01*
X507565805Y-239839956D01*
X507465270Y-239836450D01*
X507359191Y-239834561D01*
X507256754Y-239833774D01*
X507189167Y-239833645D01*
X507080636Y-239833958D01*
X506975960Y-239834898D01*
X506875140Y-239836465D01*
X506746710Y-239839530D01*
X506625135Y-239843709D01*
X506510413Y-239849002D01*
X506402545Y-239855410D01*
X506301532Y-239862931D01*
X506230270Y-239869304D01*
X506231399Y-239974787D01*
X506235371Y-240074697D01*
X506245114Y-240177015D01*
X506248344Y-240197078D01*
X506279027Y-240290158D01*
X506332455Y-240373933D01*
X506347018Y-240391495D01*
X506420009Y-240461659D01*
X506501411Y-240516408D01*
X506555113Y-240543903D01*
X506605427Y-240597636D01*
X506566836Y-240644043D01*
X506467369Y-240634425D01*
X506397820Y-240626946D01*
X506295974Y-240614614D01*
X506199219Y-240599845D01*
X506136481Y-240587867D01*
G37*
G36*
X507908218Y-237367769D02*
G01*
X507941658Y-237461948D01*
X507953159Y-237508941D01*
X507972193Y-237607222D01*
X507980894Y-237709011D01*
X507981003Y-237720944D01*
X507968801Y-237819659D01*
X507952670Y-237850881D01*
X507861132Y-237892436D01*
X507856927Y-237892891D01*
X507911149Y-237978254D01*
X507949740Y-238064350D01*
X507975019Y-238162083D01*
X507981003Y-238238739D01*
X507966975Y-238342087D01*
X507920492Y-238429762D01*
X507896006Y-238455138D01*
X507807814Y-238509835D01*
X507710975Y-238530672D01*
X507688400Y-238531342D01*
X507588674Y-238516813D01*
X507519872Y-238485424D01*
X507443583Y-238423148D01*
X507405078Y-238371607D01*
X507360015Y-238281237D01*
X507320929Y-238184609D01*
X507306892Y-238146904D01*
X507272096Y-238054173D01*
X507233131Y-237970560D01*
X507163891Y-237901141D01*
X507154485Y-237895334D01*
X507086251Y-237874817D01*
X507261952Y-237874817D01*
X507326943Y-237951792D01*
X507376746Y-238032598D01*
X507431122Y-238118030D01*
X507492517Y-238185006D01*
X507586089Y-238219827D01*
X507642970Y-238223596D01*
X507744654Y-238210767D01*
X507801728Y-238183052D01*
X507855103Y-238097887D01*
X507855950Y-238083401D01*
X507824847Y-237988260D01*
X507776327Y-237935389D01*
X507683376Y-237888306D01*
X507577677Y-237869809D01*
X507495448Y-237866513D01*
X507390794Y-237869140D01*
X507293055Y-237873333D01*
X507261952Y-237874817D01*
X507086251Y-237874817D01*
X507060054Y-237866940D01*
X507021128Y-237865047D01*
X506923317Y-237882793D01*
X506878002Y-237910477D01*
X506827627Y-237997854D01*
X506824268Y-238035529D01*
X506855180Y-238129467D01*
X506859439Y-238133226D01*
X506952214Y-238172124D01*
X506976188Y-238177190D01*
X507067687Y-238211487D01*
X507129209Y-238291202D01*
X507136899Y-238346206D01*
X507104809Y-238439918D01*
X507102705Y-238442438D01*
X507011916Y-238481850D01*
X507004031Y-238482005D01*
X506903635Y-238458303D01*
X506826297Y-238387197D01*
X506798379Y-238338390D01*
X506762572Y-238243193D01*
X506740028Y-238137119D01*
X506731076Y-238032353D01*
X506730479Y-237995473D01*
X506735488Y-237894513D01*
X506752568Y-237797782D01*
X506781770Y-237716059D01*
X506833505Y-237632024D01*
X506900961Y-237578306D01*
X507000909Y-237553817D01*
X507103085Y-237548050D01*
X507111987Y-237548020D01*
X507432433Y-237550463D01*
X507534464Y-237549645D01*
X507640162Y-237546188D01*
X507742219Y-237536421D01*
X507757276Y-237533366D01*
X507828803Y-237466533D01*
X507829084Y-237459604D01*
X507827618Y-237437622D01*
X507824687Y-237400498D01*
X507864255Y-237344322D01*
X507908218Y-237367769D01*
G37*
G36*
X507306404Y-236103080D02*
G01*
X507315401Y-236200608D01*
X507316174Y-236271607D01*
X507324478Y-236868048D01*
X507383096Y-236869025D01*
X507489627Y-236861490D01*
X507586652Y-236838886D01*
X507683309Y-236796096D01*
X507718686Y-236773770D01*
X507791071Y-236707443D01*
X507839731Y-236619497D01*
X507855950Y-236515850D01*
X507840685Y-236412571D01*
X507800843Y-236320518D01*
X507744667Y-236239407D01*
X507699635Y-236189053D01*
X507668372Y-236142158D01*
X507707939Y-236106499D01*
X507790840Y-236160998D01*
X507819314Y-236189053D01*
X507881932Y-236268394D01*
X507929589Y-236361946D01*
X507940458Y-236391286D01*
X507966709Y-236489499D01*
X507979577Y-236590453D01*
X507981003Y-236637971D01*
X507974906Y-236738842D01*
X507952383Y-236845715D01*
X507913263Y-236940947D01*
X507857548Y-237024539D01*
X507807590Y-237077120D01*
X507728540Y-237138980D01*
X507630927Y-237191072D01*
X507525559Y-237223320D01*
X507427001Y-237235258D01*
X507397751Y-237235878D01*
X507294716Y-237229489D01*
X507198105Y-237210324D01*
X507093509Y-237171816D01*
X506997656Y-237115916D01*
X506922454Y-237054161D01*
X506847651Y-236970145D01*
X506791221Y-236877528D01*
X506753164Y-236776308D01*
X506733479Y-236666487D01*
X506731293Y-236617943D01*
X506824268Y-236617943D01*
X506849670Y-236712374D01*
X506925873Y-236784151D01*
X507016365Y-236823117D01*
X507113605Y-236845855D01*
X507230689Y-236859744D01*
X507232105Y-236759001D01*
X507233388Y-236656205D01*
X507233619Y-236624782D01*
X507230460Y-236525246D01*
X507211149Y-236434761D01*
X507118825Y-236399590D01*
X507015843Y-236413758D01*
X506924881Y-236456262D01*
X506913661Y-236464070D01*
X506843910Y-236539612D01*
X506824268Y-236617943D01*
X506731293Y-236617943D01*
X506730479Y-236599869D01*
X506738964Y-236493918D01*
X506769441Y-236387085D01*
X506822083Y-236295456D01*
X506896890Y-236219030D01*
X506907800Y-236210546D01*
X506995361Y-236151989D01*
X507091239Y-236106111D01*
X507194508Y-236079969D01*
X507244855Y-236076701D01*
X507306404Y-236103080D01*
G37*
G36*
X506073954Y-235432389D02*
G01*
X507228246Y-235428481D01*
X507327518Y-235427978D01*
X507446163Y-235426601D01*
X507549130Y-235424414D01*
X507655793Y-235420543D01*
X507763968Y-235412999D01*
X507832503Y-235399660D01*
X507884847Y-235314201D01*
X507887213Y-235289751D01*
X507912267Y-235194365D01*
X507917011Y-235193519D01*
X507949740Y-235252626D01*
X507949740Y-235300498D01*
X507949740Y-235399347D01*
X507949740Y-235503799D01*
X507949740Y-235558906D01*
X507949740Y-235664866D01*
X507949740Y-235763021D01*
X507949740Y-235859814D01*
X507949740Y-235909151D01*
X507919453Y-235971188D01*
X507887213Y-235901335D01*
X507867493Y-235805386D01*
X507859370Y-235790937D01*
X507792936Y-235748439D01*
X507694933Y-235741722D01*
X507593633Y-235740623D01*
X507043599Y-235745996D01*
X506607381Y-235741600D01*
X506498962Y-235742839D01*
X506400013Y-235747289D01*
X506301507Y-235760031D01*
X506278141Y-235767490D01*
X506215760Y-235849286D01*
X506199007Y-235917455D01*
X506166767Y-235993170D01*
X506146250Y-235976073D01*
X506136481Y-235891565D01*
X506127882Y-235789544D01*
X506116028Y-235679810D01*
X506102210Y-235580079D01*
X506084014Y-235478352D01*
X506073954Y-235432389D01*
G37*
G36*
X507245832Y-234363582D02*
G01*
X507205287Y-234356255D01*
X507199425Y-234297636D01*
X507199425Y-233515571D01*
X507205287Y-233457929D01*
X507245832Y-233449625D01*
X507371861Y-233449625D01*
X507412894Y-233457441D01*
X507418267Y-233515571D01*
X507418267Y-234297636D01*
X507412894Y-234356255D01*
X507371861Y-234363582D01*
X507245832Y-234363582D01*
G37*
G36*
X506252740Y-230704824D02*
G01*
X506645483Y-230665257D01*
X506688469Y-230662326D01*
X506730479Y-230699451D01*
X506683585Y-230757092D01*
X506593385Y-230807168D01*
X506510851Y-230863788D01*
X506435985Y-230926953D01*
X506359812Y-231007157D01*
X506333829Y-231039437D01*
X506274844Y-231130387D01*
X506232712Y-231227870D01*
X506207433Y-231331887D01*
X506199007Y-231442438D01*
X506207714Y-231548197D01*
X506233834Y-231644922D01*
X506277369Y-231732615D01*
X506338317Y-231811275D01*
X506416679Y-231880901D01*
X506446669Y-231902103D01*
X506542536Y-231958380D01*
X506644758Y-232003013D01*
X506753333Y-232036003D01*
X506868263Y-232057349D01*
X506968891Y-232066244D01*
X507031386Y-232067699D01*
X507145601Y-232063227D01*
X507253161Y-232049810D01*
X507354066Y-232027449D01*
X507448317Y-231996144D01*
X507552633Y-231946770D01*
X507647367Y-231884517D01*
X507728877Y-231813357D01*
X507793523Y-231737628D01*
X507847629Y-231643504D01*
X507878781Y-231543163D01*
X507887213Y-231452207D01*
X507876587Y-231352538D01*
X507847496Y-231258157D01*
X507838853Y-231237762D01*
X507790911Y-231152461D01*
X507731386Y-231097567D01*
X507632361Y-231069998D01*
X507562859Y-231066304D01*
X507452675Y-231067464D01*
X507347145Y-231072177D01*
X507259509Y-231084866D01*
X507178995Y-231140708D01*
X507175978Y-231145927D01*
X507148790Y-231239783D01*
X507136899Y-231319339D01*
X507105636Y-231370142D01*
X507074373Y-231322270D01*
X507074373Y-231114664D01*
X507074373Y-230481098D01*
X507098797Y-230438599D01*
X507117848Y-230455208D01*
X507134325Y-230552710D01*
X507136899Y-230570491D01*
X507180764Y-230659288D01*
X507189167Y-230665257D01*
X507290013Y-230681432D01*
X507393309Y-230688187D01*
X507509905Y-230693271D01*
X507626850Y-230697008D01*
X507724768Y-230702321D01*
X507727479Y-230702870D01*
X507779518Y-230787891D01*
X507819802Y-230865536D01*
X507862405Y-230956198D01*
X507898439Y-231048483D01*
X507927904Y-231142391D01*
X507941435Y-231195264D01*
X507962301Y-231301013D01*
X507975438Y-231406381D01*
X507980848Y-231511367D01*
X507981003Y-231532319D01*
X507977104Y-231636269D01*
X507965409Y-231735995D01*
X507941911Y-231847001D01*
X507907800Y-231952258D01*
X507870116Y-232037902D01*
X507817042Y-232131027D01*
X507755273Y-232215924D01*
X507684808Y-232292593D01*
X507605647Y-232361035D01*
X507556509Y-232396450D01*
X507464338Y-232449364D01*
X507364782Y-232489281D01*
X507257839Y-232516203D01*
X507160294Y-232528934D01*
X507074862Y-232532249D01*
X506954002Y-232525594D01*
X506838414Y-232505630D01*
X506728096Y-232472357D01*
X506623051Y-232425774D01*
X506523276Y-232365883D01*
X506428773Y-232292681D01*
X506392447Y-232259674D01*
X506325128Y-232188271D01*
X506253601Y-232090195D01*
X506196099Y-231982315D01*
X506160195Y-231888954D01*
X506133267Y-231789318D01*
X506115315Y-231683408D01*
X506106340Y-231571224D01*
X506105218Y-231512779D01*
X506108843Y-231411209D01*
X506121206Y-231306754D01*
X506142342Y-231209918D01*
X506171340Y-231112563D01*
X506204312Y-231016545D01*
X506239372Y-230924011D01*
X506247855Y-230902661D01*
X506261533Y-230843554D01*
X506220989Y-230801056D01*
X506167744Y-230750253D01*
X506252740Y-230704824D01*
G37*
G36*
X507908218Y-229106499D02*
G01*
X507941658Y-229200678D01*
X507953159Y-229247671D01*
X507972193Y-229345952D01*
X507980894Y-229447741D01*
X507981003Y-229459674D01*
X507968801Y-229558389D01*
X507952670Y-229589611D01*
X507861132Y-229631166D01*
X507856927Y-229631621D01*
X507911149Y-229716984D01*
X507949740Y-229803080D01*
X507975019Y-229900813D01*
X507981003Y-229977469D01*
X507966975Y-230080817D01*
X507920492Y-230168492D01*
X507896006Y-230193868D01*
X507807814Y-230248565D01*
X507710975Y-230269402D01*
X507688400Y-230270072D01*
X507588674Y-230255543D01*
X507519872Y-230224154D01*
X507443583Y-230161878D01*
X507405078Y-230110337D01*
X507360015Y-230019967D01*
X507320929Y-229923339D01*
X507306892Y-229885634D01*
X507272096Y-229792903D01*
X507233131Y-229709290D01*
X507163891Y-229639871D01*
X507154485Y-229634063D01*
X507086252Y-229613547D01*
X507261952Y-229613547D01*
X507326943Y-229690522D01*
X507376746Y-229771328D01*
X507431122Y-229856760D01*
X507492517Y-229923735D01*
X507586089Y-229958557D01*
X507642970Y-229962326D01*
X507744654Y-229949497D01*
X507801728Y-229921782D01*
X507855103Y-229836617D01*
X507855950Y-229822130D01*
X507824847Y-229726990D01*
X507776327Y-229674119D01*
X507683376Y-229627036D01*
X507577677Y-229608539D01*
X507495448Y-229605243D01*
X507390794Y-229607870D01*
X507293055Y-229612063D01*
X507261952Y-229613547D01*
X507086252Y-229613547D01*
X507060054Y-229605670D01*
X507021128Y-229603777D01*
X506923317Y-229621523D01*
X506878002Y-229649207D01*
X506827627Y-229736584D01*
X506824268Y-229774259D01*
X506855180Y-229868197D01*
X506859439Y-229871956D01*
X506952214Y-229910854D01*
X506976188Y-229915920D01*
X507067687Y-229950217D01*
X507129209Y-230029932D01*
X507136899Y-230084936D01*
X507104809Y-230178648D01*
X507102705Y-230181167D01*
X507011916Y-230220580D01*
X507004031Y-230220735D01*
X506903635Y-230197033D01*
X506826297Y-230125927D01*
X506798379Y-230077120D01*
X506762572Y-229981923D01*
X506740028Y-229875849D01*
X506731076Y-229771083D01*
X506730479Y-229734203D01*
X506735488Y-229633243D01*
X506752568Y-229536512D01*
X506781770Y-229454789D01*
X506833505Y-229370754D01*
X506900961Y-229317036D01*
X507000909Y-229292547D01*
X507103085Y-229286780D01*
X507111987Y-229286750D01*
X507432433Y-229289193D01*
X507534464Y-229288374D01*
X507640162Y-229284918D01*
X507742219Y-229275151D01*
X507757276Y-229272096D01*
X507828803Y-229205263D01*
X507829084Y-229198334D01*
X507827618Y-229176352D01*
X507824687Y-229139227D01*
X507864255Y-229083052D01*
X507908218Y-229106499D01*
G37*
G36*
X506945901Y-228467071D02*
G01*
X506872331Y-228392493D01*
X506810149Y-228311235D01*
X506784213Y-228267280D01*
X506745644Y-228171732D01*
X506730689Y-228074682D01*
X506730479Y-228061628D01*
X506743733Y-227960809D01*
X506761254Y-227905313D01*
X506812178Y-227818973D01*
X506883948Y-227743246D01*
X506904380Y-227725061D01*
X506840908Y-227643686D01*
X506788602Y-227554247D01*
X506773954Y-227521851D01*
X506742749Y-227422668D01*
X506730649Y-227321124D01*
X506730479Y-227307406D01*
X506738632Y-227209303D01*
X506770741Y-227111020D01*
X506833550Y-227030923D01*
X506926400Y-226978235D01*
X507025290Y-226952905D01*
X507131013Y-226944546D01*
X507143738Y-226944461D01*
X507615127Y-226951300D01*
X507713865Y-226949793D01*
X507814310Y-226941458D01*
X507844715Y-226932249D01*
X507884682Y-226843075D01*
X507887213Y-226827713D01*
X507916522Y-226779842D01*
X507949740Y-226836017D01*
X507949740Y-226863861D01*
X507949740Y-226968660D01*
X507949740Y-227073006D01*
X507949740Y-227114943D01*
X507949740Y-227213791D01*
X507949740Y-227293729D01*
X507949740Y-227367490D01*
X507918965Y-227436366D01*
X507887213Y-227390937D01*
X507861349Y-227296352D01*
X507860347Y-227295194D01*
X507760222Y-227270296D01*
X507734317Y-227267839D01*
X507630797Y-227261885D01*
X507525477Y-227259223D01*
X507427159Y-227258222D01*
X507364534Y-227258069D01*
X507254716Y-227258863D01*
X507153578Y-227261654D01*
X507055633Y-227268500D01*
X507037737Y-227270770D01*
X506943436Y-227298438D01*
X506902426Y-227326946D01*
X506856676Y-227416783D01*
X506855532Y-227436855D01*
X506881007Y-227534193D01*
X506894122Y-227557022D01*
X506958007Y-227634684D01*
X507011358Y-227682563D01*
X507114722Y-227699122D01*
X507217831Y-227710079D01*
X507334334Y-227718048D01*
X507441653Y-227722405D01*
X507558275Y-227724688D01*
X507632712Y-227725061D01*
X507734937Y-227722175D01*
X507833237Y-227705002D01*
X507841296Y-227700637D01*
X507884359Y-227608794D01*
X507887213Y-227587797D01*
X507915546Y-227535529D01*
X507949740Y-227601474D01*
X507949740Y-227701413D01*
X507949740Y-227706987D01*
X507949740Y-227808231D01*
X507949740Y-227884308D01*
X507949740Y-227988525D01*
X507949740Y-228088221D01*
X507949740Y-228095822D01*
X507949740Y-228143694D01*
X507918476Y-228204266D01*
X507887213Y-228145159D01*
X507835464Y-228060346D01*
X507798797Y-228046485D01*
X507692249Y-228034804D01*
X507592724Y-228030477D01*
X507487458Y-228027972D01*
X507388632Y-228026690D01*
X507276814Y-228026049D01*
X507216034Y-228025969D01*
X507110714Y-228028789D01*
X507009382Y-228039898D01*
X506933201Y-228061628D01*
X506863116Y-228132132D01*
X506855532Y-228178376D01*
X506876689Y-228275211D01*
X506940162Y-228355422D01*
X507005985Y-228399660D01*
X507098645Y-228435136D01*
X507208723Y-228457863D01*
X507324620Y-228471167D01*
X507436393Y-228477898D01*
X507535754Y-228480432D01*
X507588749Y-228480749D01*
X507690574Y-228478739D01*
X507793586Y-228468743D01*
X507837388Y-228455347D01*
X507886504Y-228368221D01*
X507887213Y-228359604D01*
X507915057Y-228307336D01*
X507949740Y-228363512D01*
X507949740Y-228402103D01*
X507949740Y-228506692D01*
X507949740Y-228605076D01*
X507949740Y-228646834D01*
X507949740Y-228752415D01*
X507949740Y-228850763D01*
X507949740Y-228884726D01*
X507949740Y-228934063D01*
X507918476Y-228979493D01*
X507887213Y-228928690D01*
X507863438Y-228832840D01*
X507857416Y-228827085D01*
X507761674Y-228802816D01*
X507714778Y-228798264D01*
X507609819Y-228792702D01*
X507502887Y-228790107D01*
X507388183Y-228788838D01*
X507274164Y-228788495D01*
X507172697Y-228788799D01*
X507068756Y-228790082D01*
X506966361Y-228794076D01*
X506957625Y-228794845D01*
X506866514Y-228832750D01*
X506859928Y-228839786D01*
X506824831Y-228935089D01*
X506824268Y-228947741D01*
X506793494Y-229003917D01*
X506761742Y-228947741D01*
X506754255Y-228843757D01*
X506745002Y-228741166D01*
X506744157Y-228732319D01*
X506735822Y-228630401D01*
X506731134Y-228532238D01*
X506730479Y-228484657D01*
X506830869Y-228469103D01*
X506863836Y-228468537D01*
X506945901Y-228467071D01*
G37*
G36*
X513880102Y-240716155D02*
G01*
X513979021Y-240731726D01*
X514074520Y-240757677D01*
X514166599Y-240794008D01*
X514253153Y-240840231D01*
X514341986Y-240903471D01*
X514421778Y-240978613D01*
X514469949Y-241035320D01*
X514532271Y-241123878D01*
X514581301Y-241212050D01*
X514620189Y-241309566D01*
X514631149Y-241348439D01*
X514651500Y-241450868D01*
X514663371Y-241552191D01*
X514669137Y-241662169D01*
X514669740Y-241713826D01*
X514669740Y-241811943D01*
X514669740Y-241917841D01*
X514669740Y-242037150D01*
X514669740Y-242156698D01*
X514669740Y-242209639D01*
X514671205Y-242512012D01*
X514668763Y-242689332D01*
X514662901Y-242768467D01*
X514637499Y-242784098D01*
X514607213Y-242724992D01*
X514597688Y-242627294D01*
X514569111Y-242559883D01*
X514486035Y-242506255D01*
X514428428Y-242493938D01*
X514322915Y-242483954D01*
X514220821Y-242477604D01*
X514110652Y-242472248D01*
X514020054Y-242468537D01*
X513906950Y-242464552D01*
X513797350Y-242461392D01*
X513691253Y-242459057D01*
X513588660Y-242457546D01*
X513489570Y-242456859D01*
X513457318Y-242456813D01*
X513351025Y-242457672D01*
X513241482Y-242460969D01*
X513138512Y-242467941D01*
X513037800Y-242483741D01*
X513012796Y-242491984D01*
X512943484Y-242564318D01*
X512922915Y-242665885D01*
X512887744Y-242715222D01*
X512856481Y-242671258D01*
X512856481Y-242569187D01*
X512856481Y-242493938D01*
X512856481Y-242390753D01*
X512856481Y-242288743D01*
X512856481Y-242260442D01*
X512856481Y-241876980D01*
X512950270Y-241876980D01*
X512954443Y-241976277D01*
X512963459Y-242013756D01*
X512989837Y-242042089D01*
X513092001Y-242049834D01*
X513193469Y-242054368D01*
X513292210Y-242058209D01*
X513750409Y-242074817D01*
X513851857Y-242076942D01*
X513952736Y-242078248D01*
X514063691Y-242079003D01*
X514169042Y-242079214D01*
X514275135Y-242077592D01*
X514378823Y-242070634D01*
X514427939Y-242062605D01*
X514516050Y-242015436D01*
X514537360Y-241989821D01*
X514570523Y-241891895D01*
X514575950Y-241807127D01*
X514568978Y-241703125D01*
X514548061Y-241607642D01*
X514506033Y-241507010D01*
X514445025Y-241417972D01*
X514377625Y-241350881D01*
X514297076Y-241293940D01*
X514204541Y-241248780D01*
X514100018Y-241215401D01*
X514003759Y-241196584D01*
X513899176Y-241185949D01*
X513809516Y-241183331D01*
X513695805Y-241187743D01*
X513588534Y-241200981D01*
X513487702Y-241223044D01*
X513393311Y-241253932D01*
X513288542Y-241302647D01*
X513193047Y-241364070D01*
X513110541Y-241437172D01*
X513045105Y-241520920D01*
X512996739Y-241615316D01*
X512965443Y-241720360D01*
X512951218Y-241836051D01*
X512950270Y-241876980D01*
X512856481Y-241876980D01*
X512856481Y-241739716D01*
X512861179Y-241626505D01*
X512875274Y-241515117D01*
X512898766Y-241405553D01*
X512931654Y-241297812D01*
X512954666Y-241237064D01*
X513003369Y-241136045D01*
X513063994Y-241044563D01*
X513136539Y-240962617D01*
X513221005Y-240890209D01*
X513274624Y-240853114D01*
X513360033Y-240804806D01*
X513464886Y-240761078D01*
X513559225Y-240734425D01*
X513657685Y-240717767D01*
X513760267Y-240711104D01*
X513777765Y-240710965D01*
X513880102Y-240716155D01*
G37*
G36*
X514026404Y-239334901D02*
G01*
X514035401Y-239432430D01*
X514036174Y-239503428D01*
X514044478Y-240099869D01*
X514103096Y-240100846D01*
X514209627Y-240093312D01*
X514306652Y-240070707D01*
X514403309Y-240027917D01*
X514438686Y-240005592D01*
X514511071Y-239939265D01*
X514559731Y-239851318D01*
X514575950Y-239747671D01*
X514560685Y-239644393D01*
X514520843Y-239552339D01*
X514464667Y-239471228D01*
X514419635Y-239420874D01*
X514388372Y-239373980D01*
X514427939Y-239338320D01*
X514510840Y-239392819D01*
X514539314Y-239420874D01*
X514601932Y-239500215D01*
X514649589Y-239593768D01*
X514660458Y-239623107D01*
X514686709Y-239721320D01*
X514699577Y-239822274D01*
X514701003Y-239869793D01*
X514694906Y-239970663D01*
X514672383Y-240077536D01*
X514633263Y-240172768D01*
X514577548Y-240256360D01*
X514527590Y-240308941D01*
X514448540Y-240370801D01*
X514350927Y-240422894D01*
X514245559Y-240455141D01*
X514147001Y-240467079D01*
X514117751Y-240467699D01*
X514014716Y-240461311D01*
X513918105Y-240442145D01*
X513813509Y-240403637D01*
X513717656Y-240347738D01*
X513642454Y-240285983D01*
X513567651Y-240201967D01*
X513511221Y-240109349D01*
X513473164Y-240008130D01*
X513453479Y-239898308D01*
X513451293Y-239849765D01*
X513544268Y-239849765D01*
X513569670Y-239944195D01*
X513645873Y-240015972D01*
X513736365Y-240054938D01*
X513833605Y-240077676D01*
X513950689Y-240091565D01*
X513952105Y-239990822D01*
X513953388Y-239888026D01*
X513953619Y-239856604D01*
X513950460Y-239757067D01*
X513931149Y-239666583D01*
X513838825Y-239631412D01*
X513735843Y-239645580D01*
X513644881Y-239688084D01*
X513633661Y-239695892D01*
X513563910Y-239771433D01*
X513544268Y-239849765D01*
X513451293Y-239849765D01*
X513450479Y-239831691D01*
X513458964Y-239725740D01*
X513489441Y-239618906D01*
X513542083Y-239527277D01*
X513616890Y-239450852D01*
X513627800Y-239442368D01*
X513715361Y-239383811D01*
X513811239Y-239337932D01*
X513914508Y-239311790D01*
X513964855Y-239308523D01*
X514026404Y-239334901D01*
G37*
G36*
X514286278Y-238186471D02*
G01*
X514385441Y-238199416D01*
X514481673Y-238238250D01*
X514563432Y-238297928D01*
X514626958Y-238374544D01*
X514638965Y-238393589D01*
X514679132Y-238483535D01*
X514698822Y-238585091D01*
X514701003Y-238635878D01*
X514693322Y-238738756D01*
X514667132Y-238839910D01*
X514622356Y-238928481D01*
X514589139Y-238995892D01*
X514613075Y-239023247D01*
X514669740Y-239075515D01*
X514656550Y-239100916D01*
X514556821Y-239112191D01*
X514537848Y-239113128D01*
X514438045Y-239116468D01*
X514331975Y-239117894D01*
X514287744Y-239118013D01*
X514232056Y-239084796D01*
X514308156Y-239017259D01*
X514313145Y-239014943D01*
X514413082Y-238962100D01*
X514492343Y-238902492D01*
X514558681Y-238824397D01*
X514600034Y-238723868D01*
X514607213Y-238654929D01*
X514588050Y-238556760D01*
X514566669Y-238519618D01*
X514480957Y-238466596D01*
X514448944Y-238463931D01*
X514355153Y-238498113D01*
X514337081Y-238515710D01*
X514279948Y-238596815D01*
X514230821Y-238686105D01*
X514217402Y-238712570D01*
X514170435Y-238802102D01*
X514120022Y-238888167D01*
X514061900Y-238971363D01*
X514024450Y-239013477D01*
X513942077Y-239069911D01*
X513846667Y-239094016D01*
X513805120Y-239096031D01*
X513703687Y-239081947D01*
X513609097Y-239034457D01*
X513549153Y-238976841D01*
X513492975Y-238888039D01*
X513460115Y-238786192D01*
X513450479Y-238682284D01*
X513462913Y-238577687D01*
X513496155Y-238480841D01*
X513538895Y-238400916D01*
X513550619Y-238369165D01*
X513520333Y-238341809D01*
X513481742Y-238301754D01*
X513494931Y-238277329D01*
X513594262Y-238261487D01*
X513629753Y-238257790D01*
X513728328Y-238249442D01*
X513826909Y-238245590D01*
X513831987Y-238245578D01*
X513888162Y-238277329D01*
X513813438Y-238342116D01*
X513808539Y-238344252D01*
X513718728Y-238391656D01*
X513637434Y-238456120D01*
X513575496Y-238541872D01*
X513546591Y-238640508D01*
X513544268Y-238680819D01*
X513564204Y-238779883D01*
X513582859Y-238810267D01*
X513665413Y-238859604D01*
X513753602Y-238814743D01*
X513768483Y-238796590D01*
X513821628Y-238710866D01*
X513871105Y-238614713D01*
X513901840Y-238550393D01*
X513944134Y-238461998D01*
X513989560Y-238374898D01*
X514014680Y-238333017D01*
X514081759Y-238260438D01*
X514128986Y-238228969D01*
X514220493Y-238193485D01*
X514286278Y-238186471D01*
G37*
G36*
X512981533Y-237506987D02*
G01*
X513077057Y-237534694D01*
X513113913Y-237565606D01*
X513162589Y-237651789D01*
X513169111Y-237704824D01*
X513145339Y-237802447D01*
X513113913Y-237845020D01*
X513027414Y-237897032D01*
X512981533Y-237902661D01*
X512885149Y-237875416D01*
X512848665Y-237845020D01*
X512800419Y-237758636D01*
X512793954Y-237704824D01*
X512817516Y-237608283D01*
X512848665Y-237565606D01*
X512934974Y-237512712D01*
X512981533Y-237506987D01*
G37*
G36*
X513450479Y-237487448D02*
G01*
X513550383Y-237485354D01*
X513659308Y-237483969D01*
X513766503Y-237483103D01*
X513888629Y-237482500D01*
X513997080Y-237482206D01*
X514115088Y-237482080D01*
X514146083Y-237482075D01*
X514445525Y-237485983D01*
X514544644Y-237470841D01*
X514566669Y-237456673D01*
X514606582Y-237364100D01*
X514607213Y-237359953D01*
X514640919Y-237282772D01*
X514669740Y-237343345D01*
X514669740Y-237443484D01*
X514669740Y-237546968D01*
X514669740Y-237649875D01*
X514669740Y-237742926D01*
X514669740Y-237844390D01*
X514669740Y-237891426D01*
X514669740Y-237952975D01*
X514640430Y-238013547D01*
X514607213Y-237933924D01*
X514574202Y-237838478D01*
X514534429Y-237816199D01*
X514431080Y-237806289D01*
X514325418Y-237803697D01*
X514279439Y-237803498D01*
X514172410Y-237803872D01*
X514069307Y-237804994D01*
X513970131Y-237806864D01*
X513861595Y-237809917D01*
X513822217Y-237811314D01*
X513719031Y-237816479D01*
X513619919Y-237827623D01*
X513583836Y-237839158D01*
X513546276Y-237930504D01*
X513544268Y-237946136D01*
X513513494Y-238013547D01*
X513483696Y-237944671D01*
X513481742Y-237915850D01*
X513450479Y-237487448D01*
G37*
G36*
X513704003Y-236670211D02*
G01*
X513624248Y-236604220D01*
X513554490Y-236528016D01*
X513513982Y-236467978D01*
X513472867Y-236376494D01*
X513452712Y-236279850D01*
X513450479Y-236233505D01*
X513464157Y-236133488D01*
X513505190Y-236042507D01*
X513568866Y-235966358D01*
X513635127Y-235925271D01*
X513732840Y-235900877D01*
X513831561Y-235894130D01*
X513848595Y-235894008D01*
X514405957Y-235906708D01*
X514506144Y-235900918D01*
X514558365Y-235886192D01*
X514607213Y-235799241D01*
X514641896Y-235744531D01*
X514669740Y-235798264D01*
X514669740Y-235896992D01*
X514669740Y-235997078D01*
X514669740Y-236084029D01*
X514669740Y-236183121D01*
X514669740Y-236265257D01*
X514669740Y-236332668D01*
X514639453Y-236388844D01*
X514607213Y-236338041D01*
X514574973Y-236263791D01*
X514477200Y-236236848D01*
X514376507Y-236228815D01*
X514352224Y-236227643D01*
X514252481Y-236223583D01*
X514153044Y-236220682D01*
X514053912Y-236218942D01*
X513955085Y-236218362D01*
X513854732Y-236220469D01*
X513753419Y-236229027D01*
X513656620Y-236252068D01*
X513585113Y-236322603D01*
X513575532Y-236380539D01*
X513609191Y-236479421D01*
X513682865Y-236552523D01*
X513751386Y-236596939D01*
X513851221Y-236640536D01*
X513958110Y-236668465D01*
X514064241Y-236684814D01*
X514162917Y-236693086D01*
X514270894Y-236696492D01*
X514293606Y-236696590D01*
X514395887Y-236694332D01*
X514495183Y-236683754D01*
X514499258Y-236682912D01*
X514579858Y-236649207D01*
X514607213Y-236564698D01*
X514638965Y-236526108D01*
X514669740Y-236582284D01*
X514669740Y-236642856D01*
X514669740Y-236744583D01*
X514669740Y-236785983D01*
X514669740Y-236891586D01*
X514669740Y-236995599D01*
X514669740Y-237093814D01*
X514669740Y-237109849D01*
X514669740Y-237143066D01*
X514638476Y-237193868D01*
X514607213Y-237148439D01*
X514570494Y-237055732D01*
X514568623Y-237054161D01*
X514472272Y-237027143D01*
X514377137Y-237017525D01*
X514270633Y-237011342D01*
X514164421Y-237007736D01*
X514061770Y-237006087D01*
X513993675Y-237005801D01*
X513894854Y-237006522D01*
X513786762Y-237009728D01*
X513682301Y-237018323D01*
X513642454Y-237026317D01*
X513564477Y-237085840D01*
X513544268Y-237125480D01*
X513509097Y-237181656D01*
X513481742Y-237100567D01*
X513479788Y-236991910D01*
X513473927Y-236894060D01*
X513462661Y-236796898D01*
X513450479Y-236730784D01*
X513546993Y-236695572D01*
X513643953Y-236675948D01*
X513704003Y-236670211D01*
G37*
G36*
X513691303Y-234188216D02*
G01*
X513731689Y-234278261D01*
X513731847Y-234285913D01*
X513691245Y-234378777D01*
X513637569Y-234410965D01*
X513575532Y-234461768D01*
X513625647Y-234551099D01*
X513640989Y-234570211D01*
X513732237Y-234523086D01*
X513828968Y-234499986D01*
X513875462Y-234497427D01*
X513976298Y-234509681D01*
X514070039Y-234546444D01*
X514110912Y-234571677D01*
X514187674Y-234637084D01*
X514247620Y-234718882D01*
X514263319Y-234750951D01*
X514295319Y-234850956D01*
X514313790Y-234947852D01*
X514325846Y-235049904D01*
X514339861Y-235148676D01*
X514374002Y-235243816D01*
X514381044Y-235251649D01*
X514470437Y-235288774D01*
X514545256Y-235222227D01*
X514547618Y-235213059D01*
X514561013Y-235109438D01*
X514567974Y-235002635D01*
X514572426Y-234903847D01*
X514794792Y-234903847D01*
X514801322Y-235011112D01*
X514823895Y-235115068D01*
X514867349Y-235210906D01*
X514877346Y-235226248D01*
X514945535Y-235299475D01*
X515040023Y-235342191D01*
X515085441Y-235346415D01*
X515180932Y-235320221D01*
X515253968Y-235253603D01*
X515300777Y-235165616D01*
X515322805Y-235062073D01*
X515326264Y-234991775D01*
X515320219Y-234893772D01*
X515298967Y-234793883D01*
X515257408Y-234695767D01*
X515229544Y-234651789D01*
X515159229Y-234574751D01*
X515073042Y-234527181D01*
X515001910Y-234516478D01*
X514904619Y-234547084D01*
X514845106Y-234624922D01*
X514812529Y-234723271D01*
X514797936Y-234822484D01*
X514794792Y-234903847D01*
X514572426Y-234903847D01*
X514572554Y-234901015D01*
X514575950Y-234802242D01*
X514584857Y-234681227D01*
X514603275Y-234576348D01*
X514639670Y-234467939D01*
X514690926Y-234384741D01*
X514772047Y-234318183D01*
X514874566Y-234287930D01*
X514913494Y-234285913D01*
X515018030Y-234297972D01*
X515113285Y-234334151D01*
X515199258Y-234394448D01*
X515266871Y-234466994D01*
X515275950Y-234478865D01*
X515332100Y-234572724D01*
X515369251Y-234668208D01*
X515396271Y-234777568D01*
X515411047Y-234879301D01*
X515418787Y-234990670D01*
X515420054Y-235062117D01*
X515416928Y-235166639D01*
X515405381Y-235274040D01*
X515381766Y-235377606D01*
X515341915Y-235469668D01*
X515331149Y-235486611D01*
X515266669Y-235560867D01*
X515180940Y-235608885D01*
X515123054Y-235617036D01*
X515026708Y-235599461D01*
X514943261Y-235546736D01*
X514909097Y-235510546D01*
X514853706Y-235424751D01*
X514810963Y-235324917D01*
X514781990Y-235230074D01*
X514772321Y-235191077D01*
X514756737Y-235292992D01*
X514726709Y-235388730D01*
X514701980Y-235434343D01*
X514629319Y-235499910D01*
X514555922Y-235515431D01*
X514455510Y-235491629D01*
X514391303Y-235440204D01*
X514335539Y-235352907D01*
X514300975Y-235259575D01*
X514289209Y-235214524D01*
X514251102Y-235313149D01*
X514197682Y-235399806D01*
X514149502Y-235450463D01*
X514060117Y-235504225D01*
X513961712Y-235527189D01*
X513919914Y-235529109D01*
X513813104Y-235516512D01*
X513716341Y-235478722D01*
X513629625Y-235415739D01*
X513585790Y-235369862D01*
X513526591Y-235285385D01*
X513484307Y-235191687D01*
X513458936Y-235088770D01*
X513452330Y-235011314D01*
X513544268Y-235011314D01*
X513582136Y-235106613D01*
X513632196Y-235146625D01*
X513728689Y-235184492D01*
X513826130Y-235198093D01*
X513872042Y-235199381D01*
X513971924Y-235193561D01*
X514071759Y-235171213D01*
X514138267Y-235139786D01*
X514211448Y-235069743D01*
X514232056Y-234997636D01*
X514197345Y-234903950D01*
X514151456Y-234869653D01*
X514058184Y-234839149D01*
X513958063Y-234828192D01*
X513909656Y-234827155D01*
X513810003Y-234832211D01*
X513709436Y-234851629D01*
X513641477Y-234878934D01*
X513565628Y-234941841D01*
X513544268Y-235011314D01*
X513452330Y-235011314D01*
X513450611Y-234991153D01*
X513450479Y-234976632D01*
X513457456Y-234877155D01*
X513480277Y-234781931D01*
X513482231Y-234776352D01*
X513524960Y-234687576D01*
X513578462Y-234619548D01*
X513516596Y-234531608D01*
X513471601Y-234441601D01*
X513450604Y-234344297D01*
X513450479Y-234336715D01*
X513472182Y-234239302D01*
X513496397Y-234204336D01*
X513582448Y-234153820D01*
X513600444Y-234152556D01*
X513691303Y-234188216D01*
G37*
G36*
X514026404Y-232892752D02*
G01*
X514035401Y-232990280D01*
X514036174Y-233061279D01*
X514044478Y-233657720D01*
X514103096Y-233658697D01*
X514209627Y-233651162D01*
X514306652Y-233628558D01*
X514403309Y-233585768D01*
X514438686Y-233563442D01*
X514511071Y-233497115D01*
X514559731Y-233409169D01*
X514575950Y-233305522D01*
X514560685Y-233202243D01*
X514520843Y-233110190D01*
X514464667Y-233029079D01*
X514419635Y-232978725D01*
X514388372Y-232931830D01*
X514427939Y-232896171D01*
X514510840Y-232950670D01*
X514539314Y-232978725D01*
X514601932Y-233058066D01*
X514649589Y-233151618D01*
X514660458Y-233180958D01*
X514686709Y-233279171D01*
X514699577Y-233380125D01*
X514701003Y-233427643D01*
X514694906Y-233528514D01*
X514672383Y-233635387D01*
X514633263Y-233730619D01*
X514577548Y-233814211D01*
X514527590Y-233866792D01*
X514448540Y-233928652D01*
X514350927Y-233980744D01*
X514245559Y-234012992D01*
X514147001Y-234024930D01*
X514117751Y-234025550D01*
X514014716Y-234019161D01*
X513918105Y-233999996D01*
X513813509Y-233961488D01*
X513717656Y-233905588D01*
X513642454Y-233843833D01*
X513567651Y-233759817D01*
X513511221Y-233667200D01*
X513473164Y-233565980D01*
X513453479Y-233456159D01*
X513451293Y-233407615D01*
X513544268Y-233407615D01*
X513569670Y-233502046D01*
X513645873Y-233573823D01*
X513736365Y-233612789D01*
X513833605Y-233635527D01*
X513950689Y-233649416D01*
X513952105Y-233548673D01*
X513953388Y-233445877D01*
X513953619Y-233414454D01*
X513950460Y-233314918D01*
X513931149Y-233224433D01*
X513838825Y-233189262D01*
X513735843Y-233203430D01*
X513644881Y-233245934D01*
X513633661Y-233253742D01*
X513563910Y-233329284D01*
X513544268Y-233407615D01*
X513451293Y-233407615D01*
X513450479Y-233389541D01*
X513458964Y-233283590D01*
X513489441Y-233176757D01*
X513542083Y-233085128D01*
X513616890Y-233008702D01*
X513627800Y-233000218D01*
X513715361Y-232941661D01*
X513811239Y-232895783D01*
X513914508Y-232869641D01*
X513964855Y-232866373D01*
X514026404Y-232892752D01*
G37*
G36*
X514669740Y-231365257D02*
G01*
X514669740Y-231810267D01*
X514481184Y-231810267D01*
X514564585Y-231867035D01*
X514633193Y-231939062D01*
X514644338Y-231954859D01*
X514686836Y-232046694D01*
X514700947Y-232145212D01*
X514701003Y-232152207D01*
X514690653Y-232254026D01*
X514659603Y-232349433D01*
X514607854Y-232438429D01*
X514535406Y-232521014D01*
X514458139Y-232582874D01*
X514371662Y-232629540D01*
X514275976Y-232661012D01*
X514171080Y-232677291D01*
X514107004Y-232679772D01*
X514002899Y-232673400D01*
X513906007Y-232654287D01*
X513802083Y-232615882D01*
X513707976Y-232560133D01*
X513635127Y-232498544D01*
X513563179Y-232417269D01*
X513508903Y-232332021D01*
X513468511Y-232229730D01*
X513451200Y-232122247D01*
X513450479Y-232094566D01*
X513454494Y-232061349D01*
X513544268Y-232061349D01*
X513569420Y-232158040D01*
X513644874Y-232230983D01*
X513675671Y-232247462D01*
X513770630Y-232279920D01*
X513878036Y-232298853D01*
X513975947Y-232306847D01*
X514069879Y-232309011D01*
X514178101Y-232305692D01*
X514285240Y-232293770D01*
X514384678Y-232269993D01*
X514454317Y-232239646D01*
X514533070Y-232176999D01*
X514574881Y-232082629D01*
X514575950Y-232062814D01*
X514546885Y-231967193D01*
X514473769Y-231895747D01*
X514459691Y-231886471D01*
X514368710Y-231847573D01*
X514269548Y-231826828D01*
X514163546Y-231816239D01*
X514058400Y-231812782D01*
X514039593Y-231812710D01*
X513937178Y-231815678D01*
X513834672Y-231826341D01*
X513737892Y-231847606D01*
X513668344Y-231874747D01*
X513588010Y-231935237D01*
X513546207Y-232031078D01*
X513544268Y-232061349D01*
X513454494Y-232061349D01*
X513462501Y-231995113D01*
X513481254Y-231940204D01*
X513531934Y-231856246D01*
X513574066Y-231810267D01*
X513456999Y-231810375D01*
X513352788Y-231810697D01*
X513244705Y-231811366D01*
X513142006Y-231812538D01*
X513046990Y-231814664D01*
X512947385Y-231821440D01*
X512892629Y-231836645D01*
X512857344Y-231928938D01*
X512856481Y-231933854D01*
X512824241Y-231987588D01*
X512799328Y-231969025D01*
X512794002Y-231868382D01*
X512793954Y-231850323D01*
X512793954Y-231487378D01*
X513772880Y-231489821D01*
X514381044Y-231497148D01*
X514484321Y-231492566D01*
X514558853Y-231473212D01*
X514604000Y-231382972D01*
X514607213Y-231362326D01*
X514639453Y-231311523D01*
X514669740Y-231365257D01*
G37*
G36*
X514167006Y-229080521D02*
G01*
X514267021Y-229103705D01*
X514360644Y-229142345D01*
X514378602Y-229151928D01*
X514462599Y-229206997D01*
X514536291Y-229273897D01*
X514599680Y-229352627D01*
X514611121Y-229369793D01*
X514658520Y-229460649D01*
X514688363Y-229559806D01*
X514700651Y-229667263D01*
X514701003Y-229689751D01*
X514694364Y-229791905D01*
X514672518Y-229888076D01*
X514666320Y-229905662D01*
X514622750Y-230000022D01*
X514571974Y-230087411D01*
X514546641Y-230126946D01*
X514535406Y-230154301D01*
X514596467Y-230196799D01*
X514688650Y-230233304D01*
X514701003Y-230254440D01*
X514679998Y-230285703D01*
X514576314Y-230291102D01*
X514495350Y-230291565D01*
X513487116Y-230280330D01*
X513364887Y-230280506D01*
X513257344Y-230281032D01*
X513143566Y-230282184D01*
X513037320Y-230284291D01*
X512933670Y-230289557D01*
X512920472Y-230291565D01*
X512864907Y-230373577D01*
X512861854Y-230395613D01*
X512826194Y-230454719D01*
X512793954Y-230400986D01*
X512793954Y-230300149D01*
X512793954Y-230270560D01*
X512797553Y-230171814D01*
X512797862Y-230138669D01*
X512793954Y-230001405D01*
X512831079Y-229950602D01*
X512895559Y-229949137D01*
X512993891Y-229949175D01*
X513112631Y-229949347D01*
X513217236Y-229949656D01*
X513328114Y-229950236D01*
X513432012Y-229951215D01*
X513534499Y-229953533D01*
X513491782Y-229861727D01*
X513471484Y-229796729D01*
X513456738Y-229714175D01*
X513544268Y-229714175D01*
X513565623Y-229809833D01*
X513604841Y-229868537D01*
X513689391Y-229918746D01*
X513788939Y-229942817D01*
X513892070Y-229954999D01*
X513999110Y-229962692D01*
X514104494Y-229968720D01*
X514202916Y-229972155D01*
X514244757Y-229972584D01*
X514348222Y-229966904D01*
X514448967Y-229944534D01*
X514526613Y-229900777D01*
X514587063Y-229821764D01*
X514607213Y-229729318D01*
X514578977Y-229629207D01*
X514509825Y-229557537D01*
X514459691Y-229526597D01*
X514359713Y-229485123D01*
X514256437Y-229460930D01*
X514154061Y-229449870D01*
X514085022Y-229447950D01*
X513975662Y-229452347D01*
X513875218Y-229465536D01*
X513772873Y-229490884D01*
X513701072Y-229518292D01*
X513611798Y-229572955D01*
X513554069Y-229654671D01*
X513544268Y-229714175D01*
X513456738Y-229714175D01*
X513453946Y-229698542D01*
X513450479Y-229629179D01*
X513458847Y-229529936D01*
X513488905Y-229425217D01*
X513540821Y-229329779D01*
X513604180Y-229253884D01*
X513625357Y-229233505D01*
X513705957Y-229170884D01*
X513794738Y-229123644D01*
X513891700Y-229091784D01*
X513996843Y-229075305D01*
X514060598Y-229072793D01*
X514167006Y-229080521D01*
G37*
G36*
X514368344Y-228181795D02*
G01*
X514052294Y-228068955D01*
X513954898Y-228037746D01*
X513857158Y-228009496D01*
X513756634Y-227986088D01*
X513678114Y-227977120D01*
X513582679Y-228013516D01*
X513544268Y-228106080D01*
X513512517Y-228163722D01*
X513481742Y-228107546D01*
X513481742Y-228027923D01*
X513481742Y-227929494D01*
X513481742Y-227884796D01*
X513481742Y-227785000D01*
X513481742Y-227751928D01*
X513481742Y-227676213D01*
X513515936Y-227610267D01*
X513544268Y-227652765D01*
X513587499Y-227744967D01*
X513660528Y-227809569D01*
X513752672Y-227852293D01*
X513843954Y-227888460D01*
X513940645Y-227924634D01*
X514056083Y-227966293D01*
X514161932Y-228003571D01*
X514219356Y-228023526D01*
X514330552Y-228062429D01*
X514434612Y-228099272D01*
X514531537Y-228134054D01*
X514649670Y-228177224D01*
X514755118Y-228216730D01*
X514847881Y-228252572D01*
X514945995Y-228292224D01*
X515037569Y-228332249D01*
X515133465Y-228381189D01*
X515223612Y-228439385D01*
X515301751Y-228507945D01*
X515332126Y-228543763D01*
X515385707Y-228632859D01*
X515414558Y-228726488D01*
X515420054Y-228791426D01*
X515407174Y-228890981D01*
X515361435Y-228976562D01*
X515279944Y-229032032D01*
X515210493Y-229042996D01*
X515117843Y-229011716D01*
X515097653Y-228995613D01*
X515048194Y-228908052D01*
X515044897Y-228871537D01*
X515076882Y-228775288D01*
X515164451Y-228721673D01*
X515190465Y-228714733D01*
X515263738Y-228660023D01*
X515221449Y-228569090D01*
X515146268Y-228505129D01*
X515071275Y-228458767D01*
X514981760Y-228411536D01*
X514888757Y-228371475D01*
X514793815Y-228350812D01*
X514697181Y-228375076D01*
X514597575Y-228412017D01*
X514535894Y-228436785D01*
X514437847Y-228477227D01*
X514344356Y-228516393D01*
X514242140Y-228559716D01*
X514150296Y-228598993D01*
X514052394Y-228641156D01*
X513990744Y-228667839D01*
X513893143Y-228710472D01*
X513794407Y-228754893D01*
X513704568Y-228797429D01*
X513618553Y-228844057D01*
X513606795Y-228852486D01*
X513548024Y-228931453D01*
X513544268Y-228944322D01*
X513513494Y-228998055D01*
X513481742Y-228928202D01*
X513481742Y-228828367D01*
X513481742Y-228816827D01*
X513481742Y-228716610D01*
X513481742Y-228668327D01*
X513481742Y-228569613D01*
X513481742Y-228464262D01*
X513481742Y-228405522D01*
X513481742Y-228346904D01*
X513509097Y-228291705D01*
X513544268Y-228357650D01*
X513585790Y-228426527D01*
X513647827Y-228450951D01*
X513746259Y-228425120D01*
X513847315Y-228390773D01*
X513884255Y-228377678D01*
X513977543Y-228343094D01*
X514077891Y-228303881D01*
X514169523Y-228266586D01*
X514266340Y-228225891D01*
X514368344Y-228181795D01*
G37*
G36*
X514295125Y-225280273D02*
G01*
X514388162Y-225317157D01*
X514466529Y-225372026D01*
X514540130Y-225448764D01*
X514595028Y-225536584D01*
X514628707Y-225626038D01*
X514650345Y-225733381D01*
X514661886Y-225838421D01*
X514667776Y-225944305D01*
X514669699Y-226045445D01*
X514669740Y-226063233D01*
X514669740Y-226167406D01*
X514669740Y-226273787D01*
X514669740Y-226283052D01*
X514669740Y-226381239D01*
X514669740Y-226476980D01*
X514669740Y-226578725D01*
X514669740Y-226680678D01*
X514669740Y-226728551D01*
X514669740Y-226818920D01*
X514637011Y-226872654D01*
X514607213Y-226830156D01*
X514588302Y-226733666D01*
X514577416Y-226704615D01*
X514514890Y-226641112D01*
X514418169Y-226618672D01*
X514372252Y-226617176D01*
X513729893Y-226606429D01*
X513621827Y-226606670D01*
X513522210Y-226607391D01*
X513416670Y-226608840D01*
X513310134Y-226611298D01*
X513251177Y-226613268D01*
X513151324Y-226618544D01*
X513053524Y-226629296D01*
X513019635Y-226637204D01*
X512946850Y-226685075D01*
X512921938Y-226777888D01*
X512912168Y-226848718D01*
X512888232Y-226864350D01*
X512861854Y-226832110D01*
X512857005Y-226732136D01*
X512856481Y-226649904D01*
X512855776Y-226548192D01*
X512853664Y-226448954D01*
X512849420Y-226336300D01*
X512843259Y-226227013D01*
X512836453Y-226136017D01*
X512829606Y-226037969D01*
X512828861Y-226019758D01*
X512919007Y-226019758D01*
X512931372Y-226120153D01*
X512958086Y-226213198D01*
X513057256Y-226219595D01*
X513159313Y-226223336D01*
X513254596Y-226224433D01*
X513354192Y-226223336D01*
X513459904Y-226220878D01*
X513571385Y-226217576D01*
X513681042Y-226213889D01*
X513700584Y-226213198D01*
X513694073Y-226102487D01*
X513691452Y-226089611D01*
X513787534Y-226089611D01*
X513792403Y-226189573D01*
X513794373Y-226213198D01*
X513895541Y-226217016D01*
X514005366Y-226220472D01*
X514106355Y-226222853D01*
X514210952Y-226224258D01*
X514258923Y-226224433D01*
X514368649Y-226223151D01*
X514468884Y-226217942D01*
X514540291Y-226203917D01*
X514574697Y-226111565D01*
X514575950Y-226073491D01*
X514567913Y-225969855D01*
X514540131Y-225873283D01*
X514486649Y-225789645D01*
X514474345Y-225776980D01*
X514387357Y-225717149D01*
X514288669Y-225686561D01*
X514194443Y-225678795D01*
X514089256Y-225688717D01*
X513987987Y-225722552D01*
X513901840Y-225780400D01*
X513836762Y-225862779D01*
X513801041Y-225959407D01*
X513787981Y-226064075D01*
X513787534Y-226089611D01*
X513691452Y-226089611D01*
X513674541Y-226006538D01*
X513631816Y-225907360D01*
X513568744Y-225831246D01*
X513485327Y-225778197D01*
X513381565Y-225748213D01*
X513283906Y-225740832D01*
X513178223Y-225749038D01*
X513083019Y-225777017D01*
X513009865Y-225824852D01*
X512947755Y-225903271D01*
X512919805Y-225999120D01*
X512919007Y-226019758D01*
X512828861Y-226019758D01*
X512825492Y-225937434D01*
X512825218Y-225909360D01*
X512830687Y-225803733D01*
X512850334Y-225694922D01*
X512884268Y-225598813D01*
X512939523Y-225505871D01*
X513009689Y-225432670D01*
X513102062Y-225379432D01*
X513198169Y-225356806D01*
X513244827Y-225354440D01*
X513343335Y-225366187D01*
X513449580Y-225411296D01*
X513528148Y-225474730D01*
X513597653Y-225561658D01*
X513646730Y-225648116D01*
X513690007Y-225749610D01*
X513718658Y-225835599D01*
X513742420Y-225734001D01*
X513775569Y-225628147D01*
X513814561Y-225535943D01*
X513866280Y-225447283D01*
X513895001Y-225409639D01*
X513966717Y-225341161D01*
X514058003Y-225291358D01*
X514161501Y-225269223D01*
X514194931Y-225267978D01*
X514295125Y-225280273D01*
G37*
G36*
X514628218Y-223871886D02*
G01*
X514661658Y-223966065D01*
X514673159Y-224013059D01*
X514692193Y-224111340D01*
X514700894Y-224213128D01*
X514701003Y-224225061D01*
X514688801Y-224323777D01*
X514672670Y-224354999D01*
X514581132Y-224396553D01*
X514576927Y-224397008D01*
X514631149Y-224482371D01*
X514669740Y-224568467D01*
X514695019Y-224666200D01*
X514701003Y-224742856D01*
X514686975Y-224846204D01*
X514640492Y-224933879D01*
X514616006Y-224959255D01*
X514527814Y-225013952D01*
X514430975Y-225034789D01*
X514408400Y-225035459D01*
X514308674Y-225020931D01*
X514239872Y-224989541D01*
X514163583Y-224927265D01*
X514125078Y-224875724D01*
X514080015Y-224785354D01*
X514040929Y-224688726D01*
X514026892Y-224651021D01*
X513992096Y-224558290D01*
X513953131Y-224474678D01*
X513883891Y-224405258D01*
X513874485Y-224399451D01*
X513806248Y-224378934D01*
X513981952Y-224378934D01*
X514046943Y-224455909D01*
X514096746Y-224536715D01*
X514151122Y-224622147D01*
X514212517Y-224689123D01*
X514306089Y-224723945D01*
X514362970Y-224727713D01*
X514464654Y-224714885D01*
X514521728Y-224687169D01*
X514575103Y-224602004D01*
X514575950Y-224587518D01*
X514544847Y-224492378D01*
X514496327Y-224439507D01*
X514403376Y-224392423D01*
X514297677Y-224373926D01*
X514215448Y-224370630D01*
X514110794Y-224373258D01*
X514013055Y-224377450D01*
X513981952Y-224378934D01*
X513806248Y-224378934D01*
X513780054Y-224371058D01*
X513741128Y-224369165D01*
X513643317Y-224386910D01*
X513598002Y-224414594D01*
X513547627Y-224501972D01*
X513544268Y-224539646D01*
X513575180Y-224633584D01*
X513579439Y-224637343D01*
X513672214Y-224676241D01*
X513696188Y-224681307D01*
X513787687Y-224715604D01*
X513849209Y-224795319D01*
X513856899Y-224850323D01*
X513824809Y-224944036D01*
X513822705Y-224946555D01*
X513731916Y-224985968D01*
X513724031Y-224986122D01*
X513623635Y-224962420D01*
X513546297Y-224891314D01*
X513518379Y-224842507D01*
X513482572Y-224747310D01*
X513460028Y-224641236D01*
X513451076Y-224536470D01*
X513450479Y-224499590D01*
X513455488Y-224398630D01*
X513472568Y-224301900D01*
X513501770Y-224220177D01*
X513553505Y-224136142D01*
X513620961Y-224082424D01*
X513720909Y-224057934D01*
X513823085Y-224052167D01*
X513831987Y-224052137D01*
X514152433Y-224054580D01*
X514254464Y-224053762D01*
X514360162Y-224050306D01*
X514462219Y-224040538D01*
X514477276Y-224037483D01*
X514548803Y-223970650D01*
X514549084Y-223963722D01*
X514547618Y-223941740D01*
X514544687Y-223904615D01*
X514584255Y-223848439D01*
X514628218Y-223871886D01*
G37*
G36*
X514026404Y-222562256D02*
G01*
X514035401Y-222659785D01*
X514036174Y-222730784D01*
X514044478Y-223327225D01*
X514103096Y-223328202D01*
X514209627Y-223320667D01*
X514306652Y-223298062D01*
X514403309Y-223255272D01*
X514438686Y-223232947D01*
X514511071Y-223166620D01*
X514559731Y-223078673D01*
X514575950Y-222975026D01*
X514560685Y-222871748D01*
X514520843Y-222779695D01*
X514464667Y-222698583D01*
X514419635Y-222648230D01*
X514388372Y-222601335D01*
X514427939Y-222565675D01*
X514510840Y-222620174D01*
X514539314Y-222648230D01*
X514601932Y-222727570D01*
X514649589Y-222821123D01*
X514660458Y-222850463D01*
X514686709Y-222948675D01*
X514699577Y-223049629D01*
X514701003Y-223097148D01*
X514694906Y-223198018D01*
X514672383Y-223304891D01*
X514633263Y-223400124D01*
X514577548Y-223483715D01*
X514527590Y-223536297D01*
X514448540Y-223598156D01*
X514350927Y-223650249D01*
X514245559Y-223682496D01*
X514147001Y-223694434D01*
X514117751Y-223695054D01*
X514014716Y-223688666D01*
X513918105Y-223669500D01*
X513813509Y-223630992D01*
X513717656Y-223575093D01*
X513642454Y-223513338D01*
X513567651Y-223429322D01*
X513511221Y-223336704D01*
X513473164Y-223235485D01*
X513453479Y-223125663D01*
X513451293Y-223077120D01*
X513544268Y-223077120D01*
X513569670Y-223171550D01*
X513645873Y-223243327D01*
X513736365Y-223282294D01*
X513833605Y-223305031D01*
X513950689Y-223318920D01*
X513952105Y-223218177D01*
X513953388Y-223115382D01*
X513953619Y-223083959D01*
X513950460Y-222984422D01*
X513931149Y-222893938D01*
X513838825Y-222858767D01*
X513735843Y-222872935D01*
X513644881Y-222915439D01*
X513633661Y-222923247D01*
X513563910Y-222998788D01*
X513544268Y-223077120D01*
X513451293Y-223077120D01*
X513450479Y-223059046D01*
X513458964Y-222953095D01*
X513489441Y-222846261D01*
X513542083Y-222754632D01*
X513616890Y-222678207D01*
X513627800Y-222669723D01*
X513715361Y-222611166D01*
X513811239Y-222565287D01*
X513914508Y-222539146D01*
X513964855Y-222535878D01*
X514026404Y-222562256D01*
G37*
G36*
X514167006Y-221043955D02*
G01*
X514267021Y-221067139D01*
X514360644Y-221105779D01*
X514378602Y-221115361D01*
X514462599Y-221170431D01*
X514536291Y-221237330D01*
X514599680Y-221316060D01*
X514611121Y-221333226D01*
X514658520Y-221424082D01*
X514688363Y-221523239D01*
X514700651Y-221630697D01*
X514701003Y-221653184D01*
X514694364Y-221755339D01*
X514672518Y-221851509D01*
X514666320Y-221869095D01*
X514622750Y-221963455D01*
X514571974Y-222050844D01*
X514546641Y-222090379D01*
X514535406Y-222117734D01*
X514596467Y-222160232D01*
X514688650Y-222196737D01*
X514701003Y-222217874D01*
X514679998Y-222249137D01*
X514576314Y-222254535D01*
X514495350Y-222254999D01*
X513487116Y-222243763D01*
X513364887Y-222243939D01*
X513257344Y-222244466D01*
X513143566Y-222245618D01*
X513037320Y-222247724D01*
X512933670Y-222252991D01*
X512920472Y-222254999D01*
X512864907Y-222337011D01*
X512861854Y-222359046D01*
X512826194Y-222418153D01*
X512793954Y-222364419D01*
X512793954Y-222263582D01*
X512793954Y-222233994D01*
X512797553Y-222135247D01*
X512797862Y-222102103D01*
X512793954Y-221964838D01*
X512831079Y-221914036D01*
X512895559Y-221912570D01*
X512993891Y-221912609D01*
X513112631Y-221912780D01*
X513217236Y-221913090D01*
X513328114Y-221913669D01*
X513432012Y-221914648D01*
X513534499Y-221916966D01*
X513491782Y-221825160D01*
X513471484Y-221760163D01*
X513456738Y-221677608D01*
X513544268Y-221677608D01*
X513565623Y-221773267D01*
X513604841Y-221831970D01*
X513689391Y-221882179D01*
X513788939Y-221906250D01*
X513892070Y-221918432D01*
X513999110Y-221926126D01*
X514104494Y-221932153D01*
X514202916Y-221935588D01*
X514244757Y-221936017D01*
X514348222Y-221930337D01*
X514448967Y-221907968D01*
X514526613Y-221864210D01*
X514587063Y-221785197D01*
X514607213Y-221692752D01*
X514578977Y-221592641D01*
X514509825Y-221520971D01*
X514459691Y-221490030D01*
X514359713Y-221448556D01*
X514256437Y-221424363D01*
X514154061Y-221413304D01*
X514085022Y-221411384D01*
X513975662Y-221415780D01*
X513875218Y-221428969D01*
X513772873Y-221454317D01*
X513701072Y-221481726D01*
X513611798Y-221536388D01*
X513554069Y-221618105D01*
X513544268Y-221677608D01*
X513456738Y-221677608D01*
X513453946Y-221661976D01*
X513450479Y-221592612D01*
X513458847Y-221493369D01*
X513488905Y-221388650D01*
X513540821Y-221293212D01*
X513604180Y-221217318D01*
X513625357Y-221196939D01*
X513705957Y-221134317D01*
X513794738Y-221087077D01*
X513891700Y-221055217D01*
X513996843Y-221038738D01*
X514060598Y-221036227D01*
X514167006Y-221043955D01*
G37*
G36*
X512793954Y-220394845D02*
G01*
X513948246Y-220390937D01*
X514047518Y-220390435D01*
X514166163Y-220389057D01*
X514269130Y-220386870D01*
X514375793Y-220382999D01*
X514483968Y-220375456D01*
X514552503Y-220362117D01*
X514604847Y-220276658D01*
X514607213Y-220252207D01*
X514632267Y-220156821D01*
X514637011Y-220155976D01*
X514669740Y-220215082D01*
X514669740Y-220262954D01*
X514669740Y-220361804D01*
X514669740Y-220466255D01*
X514669740Y-220521363D01*
X514669740Y-220627322D01*
X514669740Y-220725477D01*
X514669740Y-220822270D01*
X514669740Y-220871607D01*
X514639453Y-220933645D01*
X514607213Y-220863791D01*
X514587493Y-220767842D01*
X514579370Y-220753394D01*
X514512936Y-220710895D01*
X514414933Y-220704179D01*
X514313633Y-220703080D01*
X513763599Y-220708453D01*
X513327381Y-220704056D01*
X513218962Y-220705295D01*
X513120013Y-220709745D01*
X513021507Y-220722488D01*
X512998141Y-220729946D01*
X512935760Y-220811743D01*
X512919007Y-220879911D01*
X512886767Y-220955627D01*
X512866250Y-220938530D01*
X512856481Y-220854022D01*
X512847882Y-220752001D01*
X512836028Y-220642266D01*
X512822210Y-220542536D01*
X512804014Y-220440808D01*
X512793954Y-220394845D01*
G37*
G36*
X512981533Y-219591286D02*
G01*
X513077057Y-219618992D01*
X513113913Y-219649904D01*
X513162589Y-219736087D01*
X513169111Y-219789123D01*
X513145339Y-219886746D01*
X513113913Y-219929318D01*
X513027414Y-219981330D01*
X512981533Y-219986959D01*
X512885149Y-219959715D01*
X512848665Y-219929318D01*
X512800419Y-219842935D01*
X512793954Y-219789123D01*
X512817516Y-219692582D01*
X512848665Y-219649904D01*
X512934974Y-219597011D01*
X512981533Y-219591286D01*
G37*
G36*
X513450479Y-219571747D02*
G01*
X513550383Y-219569653D01*
X513659308Y-219568268D01*
X513766503Y-219567402D01*
X513888629Y-219566798D01*
X513997080Y-219566504D01*
X514115088Y-219566379D01*
X514146083Y-219566373D01*
X514445525Y-219570281D01*
X514544644Y-219555140D01*
X514566669Y-219540972D01*
X514606582Y-219448398D01*
X514607213Y-219444252D01*
X514640919Y-219367071D01*
X514669740Y-219427643D01*
X514669740Y-219527783D01*
X514669740Y-219631267D01*
X514669740Y-219734174D01*
X514669740Y-219827225D01*
X514669740Y-219928688D01*
X514669740Y-219975724D01*
X514669740Y-220037274D01*
X514640430Y-220097846D01*
X514607213Y-220018223D01*
X514574202Y-219922777D01*
X514534429Y-219900498D01*
X514431080Y-219890588D01*
X514325418Y-219887995D01*
X514279439Y-219887797D01*
X514172410Y-219888171D01*
X514069307Y-219889293D01*
X513970131Y-219891163D01*
X513861595Y-219894216D01*
X513822217Y-219895613D01*
X513719031Y-219900778D01*
X513619919Y-219911922D01*
X513583836Y-219923456D01*
X513546276Y-220014803D01*
X513544268Y-220030435D01*
X513513494Y-220097846D01*
X513483696Y-220028969D01*
X513481742Y-220000149D01*
X513450479Y-219571747D01*
G37*
G36*
X513704003Y-218754510D02*
G01*
X513624248Y-218688519D01*
X513554490Y-218612315D01*
X513513982Y-218552277D01*
X513472867Y-218460793D01*
X513452712Y-218364149D01*
X513450479Y-218317804D01*
X513464157Y-218217786D01*
X513505190Y-218126806D01*
X513568866Y-218050657D01*
X513635127Y-218009569D01*
X513732840Y-217985176D01*
X513831561Y-217978428D01*
X513848595Y-217978306D01*
X514405957Y-217991007D01*
X514506144Y-217985217D01*
X514558365Y-217970491D01*
X514607213Y-217883540D01*
X514641896Y-217828830D01*
X514669740Y-217882563D01*
X514669740Y-217981291D01*
X514669740Y-218081377D01*
X514669740Y-218168327D01*
X514669740Y-218267419D01*
X514669740Y-218349555D01*
X514669740Y-218416966D01*
X514639453Y-218473142D01*
X514607213Y-218422340D01*
X514574973Y-218348090D01*
X514477200Y-218321147D01*
X514376507Y-218313114D01*
X514352224Y-218311942D01*
X514252481Y-218307882D01*
X514153044Y-218304981D01*
X514053912Y-218303241D01*
X513955085Y-218302661D01*
X513854732Y-218304767D01*
X513753419Y-218313325D01*
X513656620Y-218336366D01*
X513585113Y-218406901D01*
X513575532Y-218464838D01*
X513609191Y-218563720D01*
X513682865Y-218636822D01*
X513751386Y-218681237D01*
X513851221Y-218724835D01*
X513958110Y-218752764D01*
X514064241Y-218769113D01*
X514162917Y-218777385D01*
X514270894Y-218780791D01*
X514293606Y-218780888D01*
X514395887Y-218778631D01*
X514495183Y-218768052D01*
X514499258Y-218767211D01*
X514579858Y-218733505D01*
X514607213Y-218648997D01*
X514638965Y-218610407D01*
X514669740Y-218666583D01*
X514669740Y-218727155D01*
X514669740Y-218828882D01*
X514669740Y-218870281D01*
X514669740Y-218975884D01*
X514669740Y-219079897D01*
X514669740Y-219178113D01*
X514669740Y-219194147D01*
X514669740Y-219227364D01*
X514638476Y-219278167D01*
X514607213Y-219232738D01*
X514570494Y-219140031D01*
X514568623Y-219138460D01*
X514472272Y-219111442D01*
X514377137Y-219101823D01*
X514270633Y-219095641D01*
X514164421Y-219092035D01*
X514061770Y-219090386D01*
X513993675Y-219090100D01*
X513894854Y-219090821D01*
X513786762Y-219094027D01*
X513682301Y-219102622D01*
X513642454Y-219110616D01*
X513564477Y-219170138D01*
X513544268Y-219209779D01*
X513509097Y-219265955D01*
X513481742Y-219184866D01*
X513479788Y-219076208D01*
X513473927Y-218978359D01*
X513462661Y-218881196D01*
X513450479Y-218815082D01*
X513546993Y-218779870D01*
X513643953Y-218760247D01*
X513704003Y-218754510D01*
G37*
G36*
X513691303Y-216272514D02*
G01*
X513731689Y-216362560D01*
X513731847Y-216370211D01*
X513691245Y-216463076D01*
X513637569Y-216495264D01*
X513575532Y-216546066D01*
X513625647Y-216635398D01*
X513640989Y-216654510D01*
X513732237Y-216607385D01*
X513828968Y-216584285D01*
X513875462Y-216581726D01*
X513976298Y-216593980D01*
X514070039Y-216630742D01*
X514110912Y-216655976D01*
X514187674Y-216721383D01*
X514247620Y-216803181D01*
X514263319Y-216835250D01*
X514295319Y-216935255D01*
X514313790Y-217032151D01*
X514325846Y-217134203D01*
X514339861Y-217232975D01*
X514374002Y-217328115D01*
X514381044Y-217335948D01*
X514470437Y-217373073D01*
X514545256Y-217306526D01*
X514547618Y-217297357D01*
X514561013Y-217193737D01*
X514567974Y-217086934D01*
X514572426Y-216988146D01*
X514794792Y-216988146D01*
X514801322Y-217095410D01*
X514823895Y-217199366D01*
X514867349Y-217295205D01*
X514877346Y-217310546D01*
X514945535Y-217383773D01*
X515040023Y-217426489D01*
X515085441Y-217430714D01*
X515180932Y-217404520D01*
X515253968Y-217337902D01*
X515300777Y-217249915D01*
X515322805Y-217146371D01*
X515326264Y-217076073D01*
X515320219Y-216978071D01*
X515298967Y-216878182D01*
X515257408Y-216780065D01*
X515229544Y-216736087D01*
X515159229Y-216659050D01*
X515073042Y-216611480D01*
X515001910Y-216600777D01*
X514904619Y-216631382D01*
X514845106Y-216709220D01*
X514812529Y-216807570D01*
X514797936Y-216906782D01*
X514794792Y-216988146D01*
X514572426Y-216988146D01*
X514572554Y-216985314D01*
X514575950Y-216886541D01*
X514584857Y-216765526D01*
X514603275Y-216660647D01*
X514639670Y-216552238D01*
X514690926Y-216469040D01*
X514772047Y-216402482D01*
X514874566Y-216372228D01*
X514913494Y-216370211D01*
X515018030Y-216382271D01*
X515113285Y-216418449D01*
X515199258Y-216478747D01*
X515266871Y-216551292D01*
X515275950Y-216563163D01*
X515332100Y-216657023D01*
X515369251Y-216752507D01*
X515396271Y-216861867D01*
X515411047Y-216963599D01*
X515418787Y-217074968D01*
X515420054Y-217146415D01*
X515416928Y-217250938D01*
X515405381Y-217358338D01*
X515381766Y-217461905D01*
X515341915Y-217553967D01*
X515331149Y-217570909D01*
X515266669Y-217645165D01*
X515180940Y-217693183D01*
X515123054Y-217701335D01*
X515026708Y-217683760D01*
X514943261Y-217631035D01*
X514909097Y-217594845D01*
X514853706Y-217509050D01*
X514810963Y-217409216D01*
X514781990Y-217314373D01*
X514772321Y-217275375D01*
X514756737Y-217377290D01*
X514726709Y-217473029D01*
X514701980Y-217518641D01*
X514629319Y-217584209D01*
X514555922Y-217599730D01*
X514455510Y-217575928D01*
X514391303Y-217524503D01*
X514335539Y-217437205D01*
X514300975Y-217343874D01*
X514289209Y-217298823D01*
X514251102Y-217397448D01*
X514197682Y-217484104D01*
X514149502Y-217534761D01*
X514060117Y-217588523D01*
X513961712Y-217611487D01*
X513919914Y-217613407D01*
X513813104Y-217600811D01*
X513716341Y-217563021D01*
X513629625Y-217500038D01*
X513585790Y-217454161D01*
X513526591Y-217369684D01*
X513484307Y-217275986D01*
X513458936Y-217173068D01*
X513452330Y-217095613D01*
X513544268Y-217095613D01*
X513582136Y-217190912D01*
X513632196Y-217230923D01*
X513728689Y-217268790D01*
X513826130Y-217282392D01*
X513872042Y-217283680D01*
X513971924Y-217277860D01*
X514071759Y-217255512D01*
X514138267Y-217224084D01*
X514211448Y-217154042D01*
X514232056Y-217081935D01*
X514197345Y-216988249D01*
X514151456Y-216953952D01*
X514058184Y-216923448D01*
X513958063Y-216912491D01*
X513909656Y-216911454D01*
X513810003Y-216916510D01*
X513709436Y-216935927D01*
X513641477Y-216963233D01*
X513565628Y-217026139D01*
X513544268Y-217095613D01*
X513452330Y-217095613D01*
X513450611Y-217075452D01*
X513450479Y-217060930D01*
X513457456Y-216961454D01*
X513480277Y-216866230D01*
X513482231Y-216860651D01*
X513524960Y-216771875D01*
X513578462Y-216703847D01*
X513516596Y-216615907D01*
X513471601Y-216525900D01*
X513450604Y-216428595D01*
X513450479Y-216421014D01*
X513472182Y-216323601D01*
X513496397Y-216288634D01*
X513582448Y-216238119D01*
X513600444Y-216236855D01*
X513691303Y-216272514D01*
G37*
G36*
X514567014Y-213540803D02*
G01*
X514616006Y-213618083D01*
X514660828Y-213708653D01*
X514690959Y-213806628D01*
X514701003Y-213902870D01*
X514683173Y-214004475D01*
X514629684Y-214091426D01*
X514554043Y-214161096D01*
X514468817Y-214220813D01*
X514419146Y-214250672D01*
X514485206Y-214331051D01*
X514555395Y-214429528D01*
X514611822Y-214525787D01*
X514654485Y-214619827D01*
X514687515Y-214729748D01*
X514700727Y-214836475D01*
X514701003Y-214853952D01*
X514693187Y-214956167D01*
X514665709Y-215059774D01*
X514618449Y-215151325D01*
X514575950Y-215205662D01*
X514498765Y-215272015D01*
X514408442Y-215316653D01*
X514304981Y-215339575D01*
X514241826Y-215342926D01*
X514143520Y-215332042D01*
X514048769Y-215302676D01*
X513991721Y-215276980D01*
X513909337Y-215218479D01*
X513834307Y-215143380D01*
X513762368Y-215058395D01*
X513697040Y-214973038D01*
X513626823Y-214874468D01*
X513544236Y-214949504D01*
X513463539Y-215009015D01*
X513371779Y-215058824D01*
X513270060Y-215089873D01*
X513208190Y-215095264D01*
X513106580Y-215081295D01*
X513014666Y-215039389D01*
X512939523Y-214977050D01*
X512879245Y-214897824D01*
X512838724Y-214798333D01*
X512825329Y-214696667D01*
X512825319Y-214695682D01*
X512919007Y-214695682D01*
X512950932Y-214789821D01*
X512967367Y-214808523D01*
X513054745Y-214853402D01*
X513090465Y-214856394D01*
X513191341Y-214829265D01*
X513215216Y-214812431D01*
X513692768Y-214812431D01*
X513765574Y-214890659D01*
X513852273Y-214956536D01*
X513942696Y-214997317D01*
X514048874Y-215013198D01*
X514152269Y-215000788D01*
X514252893Y-214963558D01*
X514341966Y-214908174D01*
X514415897Y-214836284D01*
X514465595Y-214742770D01*
X514482024Y-214644634D01*
X514482161Y-214634133D01*
X514467850Y-214535005D01*
X514430498Y-214440732D01*
X514377833Y-214352911D01*
X514335615Y-214296101D01*
X514243078Y-214348300D01*
X514154021Y-214404026D01*
X514068444Y-214463278D01*
X513986348Y-214526056D01*
X513907732Y-214592360D01*
X513832597Y-214662191D01*
X513760942Y-214735547D01*
X513692768Y-214812431D01*
X513215216Y-214812431D01*
X513280059Y-214766711D01*
X513352908Y-214692947D01*
X513407004Y-214626806D01*
X513325612Y-214556739D01*
X513233546Y-214509638D01*
X513138825Y-214493938D01*
X513039499Y-214511860D01*
X512975671Y-214557441D01*
X512925702Y-214645407D01*
X512919007Y-214695682D01*
X512825319Y-214695682D01*
X512825218Y-214685913D01*
X512835723Y-214583646D01*
X512871146Y-214488540D01*
X512914122Y-214428481D01*
X512989823Y-214364909D01*
X513085786Y-214331829D01*
X513112936Y-214330295D01*
X513209390Y-214347992D01*
X513298370Y-214393437D01*
X513378733Y-214456141D01*
X513449476Y-214526930D01*
X513473438Y-214554022D01*
X513542320Y-214473798D01*
X513620432Y-214395245D01*
X513707775Y-214318361D01*
X513804349Y-214243146D01*
X513888254Y-214184177D01*
X513978067Y-214126276D01*
X514073787Y-214069444D01*
X513978288Y-214018153D01*
X513884743Y-213981516D01*
X513781840Y-213957817D01*
X513703515Y-213952207D01*
X513605829Y-213975587D01*
X513549214Y-214060666D01*
X513544268Y-214093868D01*
X513511540Y-214151509D01*
X513481742Y-214073352D01*
X513481742Y-213798334D01*
X513481742Y-213698918D01*
X513481742Y-213610267D01*
X513481742Y-213541391D01*
X513527171Y-213493519D01*
X513575532Y-213548718D01*
X513608771Y-213645270D01*
X513633661Y-213687448D01*
X513705188Y-213758317D01*
X513710354Y-213761698D01*
X513796689Y-213809472D01*
X513887402Y-213856507D01*
X513943850Y-213885285D01*
X514031090Y-213933370D01*
X514116609Y-213987323D01*
X514158783Y-214017176D01*
X514260950Y-213963311D01*
X514345801Y-213910711D01*
X514424764Y-213849259D01*
X514491259Y-213770155D01*
X514513424Y-213694287D01*
X514490893Y-213598208D01*
X514473368Y-213563861D01*
X514450898Y-213511593D01*
X514490465Y-213471537D01*
X514567014Y-213540803D01*
G37*
G36*
X512856481Y-211950881D02*
G01*
X512949926Y-211908085D01*
X513040029Y-211863320D01*
X513126125Y-211818990D01*
X513218784Y-211770996D01*
X513312116Y-211723247D01*
X513406119Y-211675742D01*
X513500793Y-211628481D01*
X513597025Y-211579846D01*
X513695699Y-211528219D01*
X513784042Y-211480591D01*
X513874256Y-211430673D01*
X513900375Y-211415989D01*
X513990773Y-211364823D01*
X514079647Y-211316493D01*
X514095280Y-211309011D01*
X514000224Y-211266557D01*
X513907519Y-211225411D01*
X513817164Y-211185575D01*
X513686040Y-211128275D01*
X513560205Y-211073920D01*
X513439660Y-211022510D01*
X513324404Y-210974045D01*
X513214438Y-210928526D01*
X513109760Y-210885952D01*
X513010373Y-210846323D01*
X512916274Y-210809639D01*
X512856481Y-210786820D01*
X512856481Y-210685020D01*
X512856481Y-210585701D01*
X512856481Y-210469793D01*
X512856481Y-210357456D01*
X512856481Y-210248692D01*
X512856481Y-210178167D01*
X512856481Y-210139576D01*
X512889698Y-210083401D01*
X512919007Y-210127364D01*
X512934119Y-210229786D01*
X512989952Y-210310903D01*
X513026474Y-210333017D01*
X513123741Y-210358777D01*
X513227649Y-210371132D01*
X513340192Y-210378001D01*
X513450533Y-210381102D01*
X513549642Y-210381865D01*
X514228637Y-210383331D01*
X514335798Y-210379042D01*
X514439907Y-210362150D01*
X514519774Y-210329109D01*
X514585811Y-210252197D01*
X514607213Y-210152277D01*
X514641896Y-210093170D01*
X514672182Y-210118083D01*
X514669740Y-210503987D01*
X514669740Y-210614046D01*
X514669740Y-210713913D01*
X514669740Y-210826263D01*
X514669740Y-210932497D01*
X514669740Y-210989053D01*
X514639942Y-211014943D01*
X514607213Y-210943624D01*
X514578607Y-210849664D01*
X514571554Y-210838599D01*
X514484115Y-210789751D01*
X514381266Y-210775478D01*
X514297025Y-210773142D01*
X513678602Y-210767769D01*
X513566197Y-210767746D01*
X513466386Y-210767677D01*
X513359331Y-210767527D01*
X513256841Y-210767252D01*
X513156235Y-210766647D01*
X513131987Y-210766304D01*
X513237919Y-210811904D01*
X513338952Y-210855284D01*
X513435084Y-210896443D01*
X513526317Y-210935381D01*
X513653977Y-210989623D01*
X513770613Y-211038867D01*
X513876223Y-211083114D01*
X513970808Y-211122364D01*
X514079771Y-211166923D01*
X514188411Y-211210128D01*
X514238895Y-211229388D01*
X514610633Y-211368118D01*
X514669740Y-211415013D01*
X514596955Y-211474119D01*
X514507265Y-211517995D01*
X514401321Y-211571213D01*
X514301917Y-211621695D01*
X514185418Y-211681237D01*
X514098254Y-211725964D01*
X514003491Y-211774717D01*
X513901131Y-211827496D01*
X513791172Y-211884302D01*
X513673615Y-211945134D01*
X513548459Y-212009991D01*
X513415706Y-212078876D01*
X513275354Y-212151786D01*
X513202328Y-212189751D01*
X513315157Y-212191721D01*
X513413801Y-212193057D01*
X513519894Y-212194179D01*
X513633436Y-212195087D01*
X513754428Y-212195782D01*
X513882869Y-212196262D01*
X513984089Y-212196483D01*
X514089499Y-212196583D01*
X514125566Y-212196590D01*
X514232505Y-212195388D01*
X514337254Y-212190946D01*
X514440264Y-212180428D01*
X514512936Y-212162396D01*
X514579686Y-212090804D01*
X514605242Y-211989174D01*
X514607213Y-211969932D01*
X514639453Y-211917664D01*
X514669740Y-211960163D01*
X514669740Y-211993380D01*
X514669740Y-212095589D01*
X514669740Y-212193950D01*
X514669740Y-212229807D01*
X514669740Y-212331945D01*
X514669740Y-212436421D01*
X514669740Y-212524852D01*
X514669740Y-212554161D01*
X514636034Y-212602033D01*
X514613564Y-212590309D01*
X514595978Y-212527783D01*
X514565484Y-212429863D01*
X514500723Y-212355347D01*
X514407789Y-212324939D01*
X514308436Y-212315437D01*
X514269670Y-212314803D01*
X513480277Y-212307964D01*
X513371050Y-212308619D01*
X513267628Y-212310970D01*
X513162712Y-212316994D01*
X513123682Y-212321642D01*
X513030641Y-212354386D01*
X512989837Y-212389053D01*
X512942008Y-212476454D01*
X512919007Y-212563442D01*
X512885301Y-212608872D01*
X512856481Y-212559535D01*
X512856481Y-212529248D01*
X512856481Y-212426818D01*
X512856481Y-212314559D01*
X512856481Y-212195639D01*
X512856481Y-212080535D01*
X512856481Y-211977976D01*
X512856481Y-211950881D01*
G37*
G36*
X512981533Y-209473770D02*
G01*
X513077057Y-209501477D01*
X513113913Y-209532389D01*
X513162589Y-209618572D01*
X513169111Y-209671607D01*
X513145339Y-209769230D01*
X513113913Y-209811802D01*
X513027414Y-209863815D01*
X512981533Y-209869444D01*
X512885149Y-209842199D01*
X512848665Y-209811802D01*
X512800419Y-209725419D01*
X512793954Y-209671607D01*
X512817516Y-209575066D01*
X512848665Y-209532389D01*
X512934974Y-209479495D01*
X512981533Y-209473770D01*
G37*
G36*
X513450479Y-209454231D02*
G01*
X513550383Y-209452137D01*
X513659308Y-209450752D01*
X513766503Y-209449886D01*
X513888629Y-209449283D01*
X513997080Y-209448989D01*
X514115088Y-209448863D01*
X514146083Y-209448858D01*
X514445525Y-209452765D01*
X514544644Y-209437624D01*
X514566669Y-209423456D01*
X514606582Y-209330883D01*
X514607213Y-209326736D01*
X514640919Y-209249555D01*
X514669740Y-209310128D01*
X514669740Y-209410267D01*
X514669740Y-209513751D01*
X514669740Y-209616658D01*
X514669740Y-209709709D01*
X514669740Y-209811173D01*
X514669740Y-209858209D01*
X514669740Y-209919758D01*
X514640430Y-209980330D01*
X514607213Y-209900707D01*
X514574202Y-209805261D01*
X514534429Y-209782982D01*
X514431080Y-209773072D01*
X514325418Y-209770480D01*
X514279439Y-209770281D01*
X514172410Y-209770655D01*
X514069307Y-209771777D01*
X513970131Y-209773647D01*
X513861595Y-209776700D01*
X513822217Y-209778097D01*
X513719031Y-209783262D01*
X513619919Y-209794406D01*
X513583836Y-209805941D01*
X513546276Y-209897287D01*
X513544268Y-209912919D01*
X513513494Y-209980330D01*
X513483696Y-209911454D01*
X513481742Y-209882633D01*
X513450479Y-209454231D01*
G37*
G36*
X513704003Y-208636994D02*
G01*
X513624248Y-208571003D01*
X513554490Y-208494799D01*
X513513982Y-208434761D01*
X513472867Y-208343277D01*
X513452712Y-208246633D01*
X513450479Y-208200288D01*
X513464157Y-208100271D01*
X513505190Y-208009290D01*
X513568866Y-207933141D01*
X513635127Y-207892054D01*
X513732840Y-207867660D01*
X513831561Y-207860913D01*
X513848595Y-207860791D01*
X514405957Y-207873491D01*
X514506144Y-207867701D01*
X514558365Y-207852975D01*
X514607213Y-207766024D01*
X514641896Y-207711314D01*
X514669740Y-207765047D01*
X514669740Y-207863775D01*
X514669740Y-207963861D01*
X514669740Y-208050812D01*
X514669740Y-208149904D01*
X514669740Y-208232040D01*
X514669740Y-208299451D01*
X514639453Y-208355627D01*
X514607213Y-208304824D01*
X514574973Y-208230574D01*
X514477200Y-208203631D01*
X514376507Y-208195598D01*
X514352224Y-208194426D01*
X514252481Y-208190366D01*
X514153044Y-208187465D01*
X514053912Y-208185725D01*
X513955085Y-208185145D01*
X513854732Y-208187252D01*
X513753419Y-208195810D01*
X513656620Y-208218851D01*
X513585113Y-208289386D01*
X513575532Y-208347322D01*
X513609191Y-208446204D01*
X513682865Y-208519306D01*
X513751386Y-208563722D01*
X513851221Y-208607319D01*
X513958110Y-208635248D01*
X514064241Y-208651597D01*
X514162917Y-208659869D01*
X514270894Y-208663275D01*
X514293606Y-208663373D01*
X514395887Y-208661115D01*
X514495183Y-208650537D01*
X514499258Y-208649695D01*
X514579858Y-208615989D01*
X514607213Y-208531481D01*
X514638965Y-208492891D01*
X514669740Y-208549067D01*
X514669740Y-208609639D01*
X514669740Y-208711366D01*
X514669740Y-208752765D01*
X514669740Y-208858369D01*
X514669740Y-208962382D01*
X514669740Y-209060597D01*
X514669740Y-209076632D01*
X514669740Y-209109849D01*
X514638476Y-209160651D01*
X514607213Y-209115222D01*
X514570494Y-209022515D01*
X514568623Y-209020944D01*
X514472272Y-208993926D01*
X514377137Y-208984308D01*
X514270633Y-208978125D01*
X514164421Y-208974519D01*
X514061770Y-208972870D01*
X513993675Y-208972584D01*
X513894854Y-208973305D01*
X513786762Y-208976511D01*
X513682301Y-208985106D01*
X513642454Y-208993100D01*
X513564477Y-209052623D01*
X513544268Y-209092263D01*
X513509097Y-209148439D01*
X513481742Y-209067350D01*
X513479788Y-208958693D01*
X513473927Y-208860843D01*
X513462661Y-208763681D01*
X513450479Y-208697567D01*
X513546993Y-208662355D01*
X513643953Y-208642731D01*
X513704003Y-208636994D01*
G37*
G36*
X513704003Y-207120735D02*
G01*
X513624248Y-207054743D01*
X513554490Y-206978540D01*
X513513982Y-206918502D01*
X513472867Y-206827017D01*
X513452712Y-206730374D01*
X513450479Y-206684029D01*
X513464157Y-206584011D01*
X513505190Y-206493031D01*
X513568866Y-206416881D01*
X513635127Y-206375794D01*
X513732840Y-206351400D01*
X513831561Y-206344653D01*
X513848595Y-206344531D01*
X514405957Y-206357232D01*
X514506144Y-206351441D01*
X514558365Y-206336715D01*
X514607213Y-206249765D01*
X514641896Y-206195054D01*
X514669740Y-206248788D01*
X514669740Y-206347515D01*
X514669740Y-206447601D01*
X514669740Y-206534552D01*
X514669740Y-206633644D01*
X514669740Y-206715780D01*
X514669740Y-206783191D01*
X514639453Y-206839367D01*
X514607213Y-206788565D01*
X514574973Y-206714315D01*
X514477200Y-206687372D01*
X514376507Y-206679338D01*
X514352224Y-206678167D01*
X514252481Y-206674106D01*
X514153044Y-206671206D01*
X514053912Y-206669466D01*
X513955085Y-206668886D01*
X513854732Y-206670992D01*
X513753419Y-206679550D01*
X513656620Y-206702591D01*
X513585113Y-206773126D01*
X513575532Y-206831063D01*
X513609191Y-206929945D01*
X513682865Y-207003046D01*
X513751386Y-207047462D01*
X513851221Y-207091059D01*
X513958110Y-207118989D01*
X514064241Y-207135338D01*
X514162917Y-207143610D01*
X514270894Y-207147016D01*
X514293606Y-207147113D01*
X514395887Y-207144856D01*
X514495183Y-207134277D01*
X514499258Y-207133435D01*
X514579858Y-207099730D01*
X514607213Y-207015222D01*
X514638965Y-206976632D01*
X514669740Y-207032807D01*
X514669740Y-207093380D01*
X514669740Y-207195107D01*
X514669740Y-207236506D01*
X514669740Y-207342109D01*
X514669740Y-207446122D01*
X514669740Y-207544338D01*
X514669740Y-207560372D01*
X514669740Y-207593589D01*
X514638476Y-207644391D01*
X514607213Y-207598962D01*
X514570494Y-207506255D01*
X514568623Y-207504685D01*
X514472272Y-207477667D01*
X514377137Y-207468048D01*
X514270633Y-207461866D01*
X514164421Y-207458259D01*
X514061770Y-207456611D01*
X513993675Y-207456324D01*
X513894854Y-207457046D01*
X513786762Y-207460251D01*
X513682301Y-207468847D01*
X513642454Y-207476841D01*
X513564477Y-207536363D01*
X513544268Y-207576003D01*
X513509097Y-207632179D01*
X513481742Y-207551091D01*
X513479788Y-207442433D01*
X513473927Y-207344583D01*
X513462661Y-207247421D01*
X513450479Y-207181307D01*
X513546993Y-207146095D01*
X513643953Y-207126472D01*
X513704003Y-207120735D01*
G37*
G36*
X514153392Y-204763044D02*
G01*
X514257814Y-204790112D01*
X514356767Y-204835226D01*
X514450249Y-204898384D01*
X514501212Y-204942577D01*
X514569110Y-205016674D01*
X514630569Y-205112150D01*
X514672907Y-205217350D01*
X514693979Y-205315261D01*
X514701003Y-205420316D01*
X514692985Y-205532936D01*
X514668932Y-205637421D01*
X514628845Y-205733772D01*
X514572722Y-205821989D01*
X514533452Y-205868746D01*
X514454582Y-205939361D01*
X514365006Y-205992632D01*
X514264725Y-206028559D01*
X514153738Y-206047142D01*
X514085511Y-206049974D01*
X513982894Y-206043242D01*
X513872812Y-206018371D01*
X513773109Y-205975175D01*
X513683784Y-205913652D01*
X513626334Y-205858488D01*
X513557812Y-205770525D01*
X513506121Y-205674615D01*
X513471259Y-205570757D01*
X513453227Y-205458952D01*
X513451772Y-205423247D01*
X513544268Y-205423247D01*
X513568859Y-205520633D01*
X513642630Y-205596514D01*
X513672740Y-205614245D01*
X513772966Y-205652624D01*
X513873172Y-205672176D01*
X513975998Y-205680603D01*
X514032266Y-205681656D01*
X514138217Y-205678009D01*
X514235520Y-205667070D01*
X514336132Y-205645638D01*
X514435819Y-205610140D01*
X514446013Y-205605452D01*
X514531021Y-205552243D01*
X514591471Y-205473658D01*
X514607213Y-205395892D01*
X514582530Y-205294111D01*
X514515405Y-205221703D01*
X514478253Y-205199521D01*
X514379953Y-205161975D01*
X514273860Y-205141367D01*
X514164754Y-205133833D01*
X514138756Y-205133575D01*
X514027900Y-205138277D01*
X513922479Y-205152382D01*
X513822492Y-205175890D01*
X513727939Y-205208802D01*
X513639153Y-205255981D01*
X513570097Y-205327603D01*
X513544268Y-205423247D01*
X513451772Y-205423247D01*
X513450479Y-205391495D01*
X513456318Y-205290402D01*
X513477890Y-205181315D01*
X513515356Y-205081765D01*
X513568718Y-204991752D01*
X513616564Y-204933296D01*
X513693594Y-204863442D01*
X513779787Y-204810745D01*
X513875143Y-204775205D01*
X513979662Y-204756823D01*
X514043501Y-204754022D01*
X514153392Y-204763044D01*
G37*
G36*
X513704003Y-204088216D02*
G01*
X513624248Y-204022224D01*
X513554490Y-203946020D01*
X513513982Y-203885983D01*
X513472867Y-203794498D01*
X513452712Y-203697854D01*
X513450479Y-203651509D01*
X513464157Y-203551492D01*
X513505190Y-203460511D01*
X513568866Y-203384362D01*
X513635127Y-203343275D01*
X513732840Y-203318881D01*
X513831561Y-203312134D01*
X513848595Y-203312012D01*
X514405957Y-203324712D01*
X514506144Y-203318922D01*
X514558365Y-203304196D01*
X514607213Y-203217246D01*
X514641896Y-203162535D01*
X514669740Y-203216269D01*
X514669740Y-203314996D01*
X514669740Y-203415082D01*
X514669740Y-203502033D01*
X514669740Y-203601125D01*
X514669740Y-203683261D01*
X514669740Y-203750672D01*
X514639453Y-203806848D01*
X514607213Y-203756045D01*
X514574973Y-203681795D01*
X514477200Y-203654852D01*
X514376507Y-203646819D01*
X514352224Y-203645648D01*
X514252481Y-203641587D01*
X514153044Y-203638687D01*
X514053912Y-203636946D01*
X513955085Y-203636366D01*
X513854732Y-203638473D01*
X513753419Y-203647031D01*
X513656620Y-203670072D01*
X513585113Y-203740607D01*
X513575532Y-203798544D01*
X513609191Y-203897426D01*
X513682865Y-203970527D01*
X513751386Y-204014943D01*
X513851221Y-204058540D01*
X513958110Y-204086470D01*
X514064241Y-204102819D01*
X514162917Y-204111090D01*
X514270894Y-204114497D01*
X514293606Y-204114594D01*
X514395887Y-204112336D01*
X514495183Y-204101758D01*
X514499258Y-204100916D01*
X514579858Y-204067211D01*
X514607213Y-203982703D01*
X514638965Y-203944112D01*
X514669740Y-204000288D01*
X514669740Y-204060860D01*
X514669740Y-204162588D01*
X514669740Y-204203987D01*
X514669740Y-204309590D01*
X514669740Y-204413603D01*
X514669740Y-204511819D01*
X514669740Y-204527853D01*
X514669740Y-204561070D01*
X514638476Y-204611872D01*
X514607213Y-204566443D01*
X514570494Y-204473736D01*
X514568623Y-204472165D01*
X514472272Y-204445147D01*
X514377137Y-204435529D01*
X514270633Y-204429347D01*
X514164421Y-204425740D01*
X514061770Y-204424091D01*
X513993675Y-204423805D01*
X513894854Y-204424527D01*
X513786762Y-204427732D01*
X513682301Y-204436327D01*
X513642454Y-204444322D01*
X513564477Y-204503844D01*
X513544268Y-204543484D01*
X513509097Y-204599660D01*
X513481742Y-204518571D01*
X513479788Y-204409914D01*
X513473927Y-204312064D01*
X513462661Y-204214902D01*
X513450479Y-204148788D01*
X513546993Y-204113576D01*
X513643953Y-204093952D01*
X513704003Y-204088216D01*
G37*
G36*
X513691303Y-201606220D02*
G01*
X513731689Y-201696265D01*
X513731847Y-201703917D01*
X513691245Y-201796782D01*
X513637569Y-201828969D01*
X513575532Y-201879772D01*
X513625647Y-201969104D01*
X513640989Y-201988216D01*
X513732237Y-201941091D01*
X513828968Y-201917990D01*
X513875462Y-201915431D01*
X513976298Y-201927685D01*
X514070039Y-201964448D01*
X514110912Y-201989681D01*
X514187674Y-202055088D01*
X514247620Y-202136887D01*
X514263319Y-202168955D01*
X514295319Y-202268960D01*
X514313790Y-202365856D01*
X514325846Y-202467909D01*
X514339861Y-202566680D01*
X514374002Y-202661821D01*
X514381044Y-202669653D01*
X514470437Y-202706778D01*
X514545256Y-202640231D01*
X514547618Y-202631063D01*
X514561013Y-202527442D01*
X514567974Y-202420639D01*
X514572426Y-202321851D01*
X514794792Y-202321851D01*
X514801322Y-202429116D01*
X514823895Y-202533072D01*
X514867349Y-202628910D01*
X514877346Y-202644252D01*
X514945535Y-202717479D01*
X515040023Y-202760195D01*
X515085441Y-202764419D01*
X515180932Y-202738225D01*
X515253968Y-202671607D01*
X515300777Y-202583621D01*
X515322805Y-202480077D01*
X515326264Y-202409779D01*
X515320219Y-202311776D01*
X515298967Y-202211888D01*
X515257408Y-202113771D01*
X515229544Y-202069793D01*
X515159229Y-201992756D01*
X515073042Y-201945185D01*
X515001910Y-201934482D01*
X514904619Y-201965088D01*
X514845106Y-202042926D01*
X514812529Y-202141275D01*
X514797936Y-202240488D01*
X514794792Y-202321851D01*
X514572426Y-202321851D01*
X514572554Y-202319019D01*
X514575950Y-202220246D01*
X514584857Y-202099232D01*
X514603275Y-201994352D01*
X514639670Y-201885943D01*
X514690926Y-201802746D01*
X514772047Y-201736188D01*
X514874566Y-201705934D01*
X514913494Y-201703917D01*
X515018030Y-201715976D01*
X515113285Y-201752155D01*
X515199258Y-201812452D01*
X515266871Y-201884998D01*
X515275950Y-201896869D01*
X515332100Y-201990729D01*
X515369251Y-202086212D01*
X515396271Y-202195572D01*
X515411047Y-202297305D01*
X515418787Y-202408674D01*
X515420054Y-202480121D01*
X515416928Y-202584643D01*
X515405381Y-202692044D01*
X515381766Y-202795610D01*
X515341915Y-202887672D01*
X515331149Y-202904615D01*
X515266669Y-202978871D01*
X515180940Y-203026889D01*
X515123054Y-203035040D01*
X515026708Y-203017465D01*
X514943261Y-202964740D01*
X514909097Y-202928551D01*
X514853706Y-202842755D01*
X514810963Y-202742921D01*
X514781990Y-202648079D01*
X514772321Y-202609081D01*
X514756737Y-202710996D01*
X514726709Y-202806734D01*
X514701980Y-202852347D01*
X514629319Y-202917915D01*
X514555922Y-202933435D01*
X514455510Y-202909633D01*
X514391303Y-202858209D01*
X514335539Y-202770911D01*
X514300975Y-202677580D01*
X514289209Y-202632528D01*
X514251102Y-202731153D01*
X514197682Y-202817810D01*
X514149502Y-202868467D01*
X514060117Y-202922229D01*
X513961712Y-202945193D01*
X513919914Y-202947113D01*
X513813104Y-202934516D01*
X513716341Y-202896726D01*
X513629625Y-202833743D01*
X513585790Y-202787867D01*
X513526591Y-202703389D01*
X513484307Y-202609692D01*
X513458936Y-202506774D01*
X513452330Y-202429318D01*
X513544268Y-202429318D01*
X513582136Y-202524617D01*
X513632196Y-202564629D01*
X513728689Y-202602496D01*
X513826130Y-202616097D01*
X513872042Y-202617385D01*
X513971924Y-202611565D01*
X514071759Y-202589217D01*
X514138267Y-202557790D01*
X514211448Y-202487747D01*
X514232056Y-202415641D01*
X514197345Y-202321954D01*
X514151456Y-202287657D01*
X514058184Y-202257153D01*
X513958063Y-202246197D01*
X513909656Y-202245159D01*
X513810003Y-202250216D01*
X513709436Y-202269633D01*
X513641477Y-202296939D01*
X513565628Y-202359845D01*
X513544268Y-202429318D01*
X513452330Y-202429318D01*
X513450611Y-202409157D01*
X513450479Y-202394636D01*
X513457456Y-202295159D01*
X513480277Y-202199935D01*
X513482231Y-202194357D01*
X513524960Y-202105580D01*
X513578462Y-202037553D01*
X513516596Y-201949612D01*
X513471601Y-201859605D01*
X513450604Y-201762301D01*
X513450479Y-201754719D01*
X513472182Y-201657307D01*
X513496397Y-201622340D01*
X513582448Y-201571824D01*
X513600444Y-201570560D01*
X513691303Y-201606220D01*
G37*
%LPC*%
D11*
%TO.C,S63*%
X423623821Y-226170754D03*
D12*
X420715892Y-211210756D03*
D11*
X400248824Y-230714392D03*
D12*
X397340895Y-215754395D03*
%TD*%
D11*
%TO.C,S82*%
X332718655Y-282654035D03*
D12*
X329810726Y-267694036D03*
D11*
X295318659Y-289923857D03*
D12*
X292410730Y-274963859D03*
%TD*%
D11*
%TO.C,S30*%
X418691498Y-188316394D03*
D12*
X415783569Y-173356396D03*
D11*
X395316501Y-192860032D03*
D12*
X392408572Y-177900035D03*
%TD*%
D11*
%TO.C,S81*%
X218591636Y-290832583D03*
D12*
X221499565Y-275872586D03*
D11*
X195216639Y-286288945D03*
D12*
X198124568Y-271328947D03*
%TD*%
D11*
%TO.C,S76*%
X422583732Y-245779479D03*
D12*
X419675803Y-230819481D03*
D11*
X399208735Y-250323117D03*
D12*
X396300806Y-235363120D03*
%TD*%
D11*
%TO.C,S64*%
X147426556Y-257592940D03*
D12*
X150334485Y-242632943D03*
D11*
X124051559Y-253049302D03*
D12*
X126959488Y-238089304D03*
%TD*%
D13*
%TO.C,MX52*%
X166730933Y-234823044D03*
D12*
X161744267Y-233853734D03*
D13*
X156757601Y-232884424D03*
D14*
X158488922Y-230633419D03*
X165206910Y-229351723D03*
%TD*%
D13*
%TO.C,MX2*%
X179453123Y-169373051D03*
D12*
X174466457Y-168403741D03*
D13*
X169479791Y-167434431D03*
D14*
X171211112Y-165183426D03*
X177929100Y-163901730D03*
%TD*%
D13*
%TO.C,MX55*%
X222830927Y-245727778D03*
D12*
X217844261Y-244758468D03*
D13*
X212857595Y-243789158D03*
D14*
X214588916Y-241538153D03*
X221306904Y-240256457D03*
%TD*%
D13*
%TO.C,MX18*%
X159975758Y-194696864D03*
D12*
X154989092Y-193727554D03*
D13*
X150002426Y-192758244D03*
D14*
X151733747Y-190507239D03*
X158451735Y-189225543D03*
%TD*%
D13*
%TO.C,MX24*%
X289107879Y-206389162D03*
D12*
X284121213Y-207358472D03*
D13*
X279134547Y-208327782D03*
D14*
X279896559Y-205592121D03*
X285645236Y-201887151D03*
%TD*%
D13*
%TO.C,MX69*%
X247246012Y-269880143D03*
D12*
X242259346Y-268910833D03*
D13*
X237272680Y-267941523D03*
D14*
X239004001Y-265690518D03*
X245721989Y-264408822D03*
%TD*%
D13*
%TO.C,MX66*%
X191146019Y-258975408D03*
D12*
X186159353Y-258006098D03*
D13*
X181172687Y-257036788D03*
D14*
X182904008Y-254785783D03*
X189621996Y-253504087D03*
%TD*%
D13*
%TO.C,MX84*%
X378447515Y-266649508D03*
D12*
X373460849Y-267618818D03*
D13*
X368474183Y-268588128D03*
D14*
X369236195Y-265852467D03*
X374984872Y-262147497D03*
%TD*%
D13*
%TO.C,MX58*%
X310402700Y-241062974D03*
D12*
X305416034Y-242032284D03*
D13*
X300429368Y-243001594D03*
D14*
X301191380Y-240265933D03*
X306940057Y-236560963D03*
%TD*%
D13*
%TO.C,MX64*%
X142058524Y-249433766D03*
D12*
X137071858Y-248464456D03*
D13*
X132085192Y-247495146D03*
D14*
X133816513Y-245244141D03*
X140534501Y-243962445D03*
%TD*%
D13*
%TO.C,MX78*%
X129073614Y-266316308D03*
D12*
X124086948Y-265346998D03*
D13*
X119100282Y-264377688D03*
D14*
X120831603Y-262126683D03*
X127549591Y-260844987D03*
%TD*%
D13*
%TO.C,MX73*%
X342087608Y-254310605D03*
D12*
X337100942Y-255279915D03*
D13*
X332114276Y-256249225D03*
D14*
X332876288Y-253513564D03*
X338624965Y-249808594D03*
%TD*%
D13*
%TO.C,MX61*%
X366502693Y-230158240D03*
D12*
X361516027Y-231127550D03*
D13*
X356529361Y-232096860D03*
D14*
X357291373Y-229361199D03*
X363040050Y-225656229D03*
%TD*%
D13*
%TO.C,MX63*%
X415590188Y-220616598D03*
D12*
X410603522Y-221585908D03*
D13*
X405616856Y-222555218D03*
D14*
X406378868Y-219819557D03*
X412127545Y-216114587D03*
%TD*%
D13*
%TO.C,MX89*%
X488297648Y-255956553D03*
D12*
X483217648Y-255956553D03*
D13*
X478137648Y-255956553D03*
D14*
X479407648Y-253416553D03*
X485757648Y-250876553D03*
%TD*%
D13*
%TO.C,MX22*%
X234775749Y-209236510D03*
D12*
X229789083Y-208267200D03*
D13*
X224802417Y-207297890D03*
D14*
X226533738Y-205046885D03*
X233251726Y-203765189D03*
%TD*%
D13*
%TO.C,MX44*%
X358192782Y-212366970D03*
D12*
X353206116Y-213336280D03*
D13*
X348219450Y-214305590D03*
D14*
X348981462Y-211569929D03*
X354730139Y-207864959D03*
%TD*%
D13*
%TO.C,MX67*%
X209846016Y-262610320D03*
D12*
X204859350Y-261641010D03*
D13*
X199872684Y-260671700D03*
D14*
X201604005Y-258420695D03*
X208321993Y-257138999D03*
%TD*%
D13*
%TO.C,MX74*%
X360787606Y-250675694D03*
D12*
X355800940Y-251645004D03*
D13*
X350814274Y-252614314D03*
D14*
X351576286Y-249878653D03*
X357324963Y-246173683D03*
%TD*%
D13*
%TO.C,MX36*%
X184390843Y-218849229D03*
D12*
X179404177Y-217879919D03*
D13*
X174417511Y-216910609D03*
D14*
X176148832Y-214659604D03*
X182866820Y-213377908D03*
%TD*%
D13*
%TO.C,MX39*%
X240490836Y-229753963D03*
D12*
X235504170Y-228784653D03*
D13*
X230517504Y-227815343D03*
D14*
X232248825Y-225564338D03*
X238966813Y-224282642D03*
%TD*%
D13*
%TO.C,MX88*%
X469247648Y-255956553D03*
D12*
X464167648Y-255956553D03*
D13*
X459087648Y-255956553D03*
D14*
X460357648Y-253416553D03*
X466707648Y-250876553D03*
%TD*%
D13*
%TO.C,MX19*%
X178675755Y-198331776D03*
D12*
X173689089Y-197362466D03*
D13*
X168702423Y-196393156D03*
D14*
X170433744Y-194142151D03*
X177151732Y-192860455D03*
%TD*%
D13*
%TO.C,MX3*%
X198153121Y-173007963D03*
D12*
X193166455Y-172038653D03*
D13*
X188179789Y-171069343D03*
D14*
X189911110Y-168818338D03*
X196629098Y-167536642D03*
%TD*%
D13*
%TO.C,MX71*%
X304687612Y-261580428D03*
D12*
X299700946Y-262549738D03*
D13*
X294714280Y-263519048D03*
D14*
X295476292Y-260783387D03*
X301224969Y-257078417D03*
%TD*%
D13*
%TO.C,MX27*%
X345207872Y-195484428D03*
D12*
X340221206Y-196453738D03*
D13*
X335234540Y-197423048D03*
D14*
X335996552Y-194687387D03*
X341745229Y-190982417D03*
%TD*%
D13*
%TO.C,MX5*%
X235553116Y-180277785D03*
D12*
X230566450Y-179308475D03*
D13*
X225579784Y-178339165D03*
D14*
X227311105Y-176088160D03*
X234029093Y-174806464D03*
%TD*%
D13*
%TO.C,MX76*%
X414550099Y-240225323D03*
D12*
X409563433Y-241194633D03*
D13*
X404576767Y-242163943D03*
D14*
X405338779Y-239428282D03*
X411087456Y-235723312D03*
%TD*%
D13*
%TO.C,MX9*%
X330405506Y-169251887D03*
D12*
X325418840Y-170221197D03*
D13*
X320432174Y-171190507D03*
D14*
X321194186Y-168454846D03*
X326942863Y-164749876D03*
%TD*%
D13*
%TO.C,MX13*%
X414555496Y-152894786D03*
D12*
X409568830Y-153864096D03*
D13*
X404582164Y-154833406D03*
D14*
X405344176Y-152097745D03*
X411092853Y-148392775D03*
%TD*%
D13*
%TO.C,MX21*%
X216075751Y-205601598D03*
D12*
X211089085Y-204632288D03*
D13*
X206102419Y-203662978D03*
D14*
X207833740Y-201411973D03*
X214551728Y-200130277D03*
%TD*%
D13*
%TO.C,MX33*%
X507347648Y-179756553D03*
D12*
X502267648Y-179756553D03*
D13*
X497187648Y-179756553D03*
D14*
X498457648Y-177216553D03*
X504807648Y-174676553D03*
%TD*%
D13*
%TO.C,MX26*%
X326507874Y-199119339D03*
D12*
X321521208Y-200088649D03*
D13*
X316534542Y-201057959D03*
D14*
X317296554Y-198322298D03*
X323045231Y-194617328D03*
%TD*%
D13*
%TO.C,MX12*%
X395855499Y-156529697D03*
D12*
X390868833Y-157499007D03*
D13*
X385882167Y-158468317D03*
D14*
X386644179Y-155732656D03*
X392392856Y-152027686D03*
%TD*%
D13*
%TO.C,MX16*%
X507347648Y-151181553D03*
D12*
X502267648Y-151181553D03*
D13*
X497187648Y-151181553D03*
D14*
X498457648Y-148641553D03*
X504807648Y-146101553D03*
%TD*%
D13*
%TO.C,MX34*%
X142315848Y-210670679D03*
D12*
X137329182Y-209701369D03*
D13*
X132342516Y-208732059D03*
D14*
X134073837Y-206481054D03*
X140791825Y-205199358D03*
%TD*%
D13*
%TO.C,MX40*%
X283392791Y-226906616D03*
D12*
X278406125Y-227875926D03*
D13*
X273419459Y-228845236D03*
D14*
X274181471Y-226109575D03*
X279930148Y-222404605D03*
%TD*%
D13*
%TO.C,MX82*%
X317672522Y-278462970D03*
D12*
X312685856Y-279432280D03*
D13*
X307699190Y-280401590D03*
D14*
X308461202Y-277665929D03*
X314209879Y-273960959D03*
%TD*%
D13*
%TO.C,MX43*%
X339492785Y-216001881D03*
D12*
X334506119Y-216971191D03*
D13*
X329519453Y-217940501D03*
D14*
X330281465Y-215204840D03*
X336030142Y-211499870D03*
%TD*%
D13*
%TO.C,MX30*%
X410657865Y-182762238D03*
D12*
X405671199Y-183731548D03*
D13*
X400684533Y-184700858D03*
D14*
X401446545Y-181965197D03*
X407195222Y-178260227D03*
%TD*%
D13*
%TO.C,MX7*%
X293005510Y-176521710D03*
D12*
X288018844Y-177491020D03*
D13*
X283032178Y-178460330D03*
D14*
X283794190Y-175724669D03*
X289542867Y-172019699D03*
%TD*%
D13*
%TO.C,MX68*%
X228546014Y-266245231D03*
D12*
X223559348Y-265275921D03*
D13*
X218572682Y-264306611D03*
D14*
X220304003Y-262055606D03*
X227021991Y-260773910D03*
%TD*%
D13*
%TO.C,MX17*%
X141275760Y-191061953D03*
D12*
X136289094Y-190092643D03*
D13*
X131302428Y-189123333D03*
D14*
X133033749Y-186872328D03*
X139751737Y-185590632D03*
%TD*%
D13*
%TO.C,MX35*%
X165690845Y-215214318D03*
D12*
X160704179Y-214245008D03*
D13*
X155717513Y-213275698D03*
D14*
X157448834Y-211024693D03*
X164166822Y-209742997D03*
%TD*%
D13*
%TO.C,MX4*%
X216853119Y-176642874D03*
D12*
X211866453Y-175673564D03*
D13*
X206879787Y-174704254D03*
D14*
X208611108Y-172453249D03*
X215329096Y-171171553D03*
%TD*%
D13*
%TO.C,MX8*%
X311705508Y-172886798D03*
D12*
X306718842Y-173856108D03*
D13*
X301732176Y-174825418D03*
D14*
X302494188Y-172089757D03*
X308242865Y-168384787D03*
%TD*%
D13*
%TO.C,MX1*%
X146728127Y-163011956D03*
D12*
X141741461Y-162042646D03*
D13*
X136754795Y-161073336D03*
D14*
X138486116Y-158822331D03*
X145204104Y-157540635D03*
%TD*%
D13*
%TO.C,MX49*%
X488297648Y-198806553D03*
D12*
X483217648Y-198806553D03*
D13*
X478137648Y-198806553D03*
D14*
X479407648Y-196266553D03*
X485757648Y-193726553D03*
%TD*%
D15*
%TO.C,J3*%
X266007036Y-276600614D03*
X268547036Y-276600614D03*
X271087037Y-276600614D03*
X273627036Y-276600614D03*
D16*
X276167036Y-276600614D03*
%TD*%
D13*
%TO.C,MX83*%
X357410018Y-270738783D03*
D12*
X352423352Y-271708093D03*
D13*
X347436686Y-272677403D03*
D14*
X348198698Y-269941742D03*
X353947375Y-266236772D03*
%TD*%
D13*
%TO.C,MX48*%
X469247648Y-198806553D03*
D12*
X464167648Y-198806553D03*
D13*
X459087648Y-198806553D03*
D14*
X460357648Y-196266553D03*
X466707648Y-193726553D03*
%TD*%
D13*
%TO.C,MX62*%
X385202691Y-226523329D03*
D12*
X380216025Y-227492639D03*
D13*
X375229359Y-228461949D03*
D14*
X375991371Y-225726288D03*
X381740048Y-222021318D03*
%TD*%
D13*
%TO.C,MX75*%
X379487603Y-247040782D03*
D12*
X374500937Y-248010092D03*
D13*
X369514271Y-248979402D03*
D14*
X370276283Y-246243741D03*
X376024960Y-242538771D03*
%TD*%
D13*
%TO.C,MX25*%
X307807876Y-202754251D03*
D12*
X302821210Y-203723561D03*
D13*
X297834544Y-204692871D03*
D14*
X298596556Y-201957210D03*
X304345233Y-198252240D03*
%TD*%
D13*
%TO.C,MX32*%
X488297648Y-179756553D03*
D12*
X483217648Y-179756553D03*
D13*
X478137648Y-179756553D03*
D14*
X479407648Y-177216553D03*
X485757648Y-174676553D03*
%TD*%
D13*
%TO.C,MX15*%
X488297648Y-151181553D03*
D12*
X483217648Y-151181553D03*
D13*
X478137648Y-151181553D03*
D14*
X479407648Y-148641553D03*
X485757648Y-146101553D03*
%TD*%
D13*
%TO.C,MX41*%
X302092789Y-223271704D03*
D12*
X297106123Y-224241014D03*
D13*
X292119457Y-225210324D03*
D14*
X292881469Y-222474663D03*
X298630146Y-218769693D03*
%TD*%
D13*
%TO.C,MX86*%
X415847511Y-259379685D03*
D12*
X410860845Y-260348995D03*
D13*
X405874179Y-261318305D03*
D14*
X406636191Y-258582644D03*
X412384868Y-254877674D03*
%TD*%
D13*
%TO.C,MX60*%
X347802695Y-233793151D03*
D12*
X342816029Y-234762461D03*
D13*
X337829363Y-235731771D03*
D14*
X338591375Y-232996110D03*
X344340052Y-229291140D03*
%TD*%
D13*
%TO.C,MX10*%
X358455503Y-163799520D03*
D12*
X353468837Y-164768830D03*
D13*
X348482171Y-165738140D03*
D14*
X349244183Y-163002479D03*
X354992860Y-159297509D03*
%TD*%
D13*
%TO.C,MX81*%
X213223604Y-282673409D03*
D12*
X208236938Y-281704099D03*
D13*
X203250272Y-280734789D03*
D14*
X204981593Y-278483784D03*
X211699581Y-277202088D03*
%TD*%
D13*
%TO.C,MX65*%
X172446021Y-255340497D03*
D12*
X167459355Y-254371187D03*
D13*
X162472689Y-253401877D03*
D14*
X164204010Y-251150872D03*
X170921998Y-249869176D03*
%TD*%
D13*
%TO.C,MX14*%
X469247648Y-151181553D03*
D12*
X464167648Y-151181553D03*
D13*
X459087648Y-151181553D03*
D14*
X460357648Y-148641553D03*
X466707648Y-146101553D03*
%TD*%
D13*
%TO.C,MX38*%
X221790839Y-226119052D03*
D12*
X216804173Y-225149742D03*
D13*
X211817507Y-224180432D03*
D14*
X213548828Y-221929427D03*
X220266816Y-220647731D03*
%TD*%
D13*
%TO.C,MX46*%
X395592778Y-205097147D03*
D12*
X390606112Y-206066457D03*
D13*
X385619446Y-207035767D03*
D14*
X386381458Y-204300106D03*
X392130135Y-200595136D03*
%TD*%
D13*
%TO.C,MX53*%
X185430931Y-238457955D03*
D12*
X180444265Y-237488645D03*
D13*
X175457599Y-236519335D03*
D14*
X177188920Y-234268330D03*
X183906908Y-232986634D03*
%TD*%
D13*
%TO.C,MX29*%
X382607868Y-188214605D03*
D12*
X377621202Y-189183915D03*
D13*
X372634536Y-190153225D03*
D14*
X373396548Y-187417564D03*
X379145225Y-183712594D03*
%TD*%
D13*
%TO.C,MX23*%
X253475747Y-212871421D03*
D12*
X248489081Y-211902111D03*
D13*
X243502415Y-210932801D03*
D14*
X245233736Y-208681796D03*
X251951724Y-207400100D03*
%TD*%
D13*
%TO.C,MX31*%
X469247648Y-179756553D03*
D12*
X464167648Y-179756553D03*
D13*
X459087648Y-179756553D03*
D14*
X460357648Y-177216553D03*
X466707648Y-174676553D03*
%TD*%
D13*
%TO.C,MX37*%
X203090841Y-222484141D03*
D12*
X198104175Y-221514831D03*
D13*
X193117509Y-220545521D03*
D14*
X194848830Y-218294516D03*
X201566818Y-217012820D03*
%TD*%
D13*
%TO.C,MX42*%
X320792787Y-219636793D03*
D12*
X315806121Y-220606103D03*
D13*
X310819455Y-221575413D03*
D14*
X311581467Y-218839752D03*
X317330144Y-215134782D03*
%TD*%
D13*
%TO.C,MX90*%
X507347648Y-255956553D03*
D12*
X502267648Y-255956553D03*
D13*
X497187648Y-255956553D03*
D14*
X498457648Y-253416553D03*
X504807648Y-250876553D03*
%TD*%
D13*
%TO.C,MX45*%
X376892780Y-208732059D03*
D12*
X371906114Y-209701369D03*
D13*
X366919448Y-210670679D03*
D14*
X367681460Y-207935018D03*
X373430137Y-204230048D03*
%TD*%
D13*
%TO.C,MX20*%
X197375753Y-201966687D03*
D12*
X192389087Y-200997377D03*
D13*
X187402421Y-200028067D03*
D14*
X189133742Y-197777062D03*
X195851730Y-196495366D03*
%TD*%
D13*
%TO.C,MX85*%
X397147513Y-263014597D03*
D12*
X392160847Y-263983907D03*
D13*
X387174181Y-264953217D03*
D14*
X387936193Y-262217556D03*
X393684870Y-258512586D03*
%TD*%
D13*
%TO.C,MX50*%
X507347648Y-198806553D03*
D12*
X502267648Y-198806553D03*
D13*
X497187648Y-198806553D03*
D14*
X498457648Y-196266553D03*
X504807648Y-193726553D03*
%TD*%
D13*
%TO.C,MX54*%
X204130929Y-242092866D03*
D12*
X199144263Y-241123556D03*
D13*
X194157597Y-240154246D03*
D14*
X195888918Y-237903241D03*
X202606906Y-236621545D03*
%TD*%
D13*
%TO.C,MX11*%
X377155501Y-160164608D03*
D12*
X372168835Y-161133918D03*
D13*
X367182169Y-162103228D03*
D14*
X367944181Y-159367567D03*
X373692858Y-155662597D03*
%TD*%
D13*
%TO.C,MX80*%
X175823609Y-275403587D03*
D12*
X170836943Y-274434277D03*
D13*
X165850277Y-273464967D03*
D14*
X167581598Y-271213962D03*
X174299586Y-269932266D03*
%TD*%
D13*
%TO.C,MX28*%
X363907870Y-191849517D03*
D12*
X358921204Y-192818827D03*
D13*
X353934538Y-193788137D03*
D14*
X354696550Y-191052476D03*
X360445227Y-187347506D03*
%TD*%
D13*
%TO.C,MX57*%
X291702702Y-244697886D03*
D12*
X286716036Y-245667196D03*
D13*
X281729370Y-246636506D03*
D14*
X282491382Y-243900845D03*
X288240059Y-240195875D03*
%TD*%
D13*
%TO.C,MX59*%
X329102698Y-237428063D03*
D12*
X324116032Y-238397373D03*
D13*
X319129366Y-239366683D03*
D14*
X319891378Y-236631022D03*
X325640055Y-232926052D03*
%TD*%
D13*
%TO.C,MX47*%
X418967775Y-200553508D03*
D12*
X413981109Y-201522818D03*
D13*
X408994443Y-202492128D03*
D14*
X409756455Y-199756467D03*
X415505132Y-196051497D03*
%TD*%
D13*
%TO.C,MX6*%
X274305513Y-180156621D03*
D12*
X269318847Y-181125931D03*
D13*
X264332181Y-182095241D03*
D14*
X265094193Y-179359580D03*
X270842870Y-175654610D03*
%TD*%
D13*
%TO.C,MX79*%
X152448611Y-270859948D03*
D12*
X147461945Y-269890638D03*
D13*
X142475279Y-268921328D03*
D14*
X144206600Y-266670323D03*
X150924588Y-265388627D03*
%TD*%
D13*
%TO.C,MX56*%
X241530925Y-249362689D03*
D12*
X236544259Y-248393379D03*
D13*
X231557593Y-247424069D03*
D14*
X233288914Y-245173064D03*
X240006902Y-243891368D03*
%TD*%
D13*
%TO.C,MX70*%
X285987614Y-265215339D03*
D12*
X281000948Y-266184649D03*
D13*
X276014282Y-267153959D03*
D14*
X276776294Y-264418298D03*
X282524971Y-260713328D03*
%TD*%
D13*
%TO.C,MX77*%
X488297648Y-236906553D03*
D12*
X483217648Y-236906553D03*
D13*
X478137648Y-236906553D03*
D14*
X479407648Y-234366553D03*
X485757648Y-231826553D03*
%TD*%
D13*
%TO.C,MX72*%
X323387610Y-257945516D03*
D12*
X318400944Y-258914826D03*
D13*
X313414278Y-259884136D03*
D14*
X314176290Y-257148475D03*
X319924967Y-253443505D03*
%TD*%
D13*
%TO.C,MX51*%
X141018436Y-229825040D03*
D12*
X136031770Y-228855730D03*
D13*
X131045104Y-227886420D03*
D14*
X132776425Y-225635415D03*
X139494413Y-224353719D03*
%TD*%
D13*
%TO.C,MX87*%
X434547509Y-255744774D03*
D12*
X429560843Y-256714084D03*
D13*
X424574177Y-257683394D03*
D14*
X425336189Y-254947733D03*
X431084866Y-251242763D03*
%TD*%
D17*
X280609740Y-280096311D03*
X288209736Y-286096311D03*
X287409740Y-287096311D03*
X286409740Y-288096311D03*
X285609740Y-289096311D03*
X284809740Y-290096311D03*
X284009740Y-291096311D03*
X283209740Y-292096311D03*
X282609740Y-292896437D03*
X281859740Y-293646311D03*
X281109740Y-294396311D03*
X246859745Y-284146306D03*
X247859740Y-283396311D03*
X242859740Y-287146311D03*
X244859740Y-285821311D03*
X245859740Y-284896311D03*
X248609740Y-282646311D03*
X259809740Y-294996311D03*
X280109740Y-275096311D03*
X264609740Y-254696311D03*
X254109740Y-274496311D03*
X263209740Y-234896311D03*
X253109740Y-274496311D03*
X261909740Y-219196311D03*
X252009740Y-274496311D03*
X260609740Y-190596311D03*
X437109740Y-245296311D03*
X435509740Y-265296311D03*
X435509740Y-267396311D03*
X435509740Y-266496311D03*
X438309740Y-245196311D03*
X439672240Y-245133811D03*
X284909740Y-296096311D03*
X215409740Y-293896311D03*
X273709740Y-283496311D03*
X249147036Y-289100614D03*
X238947037Y-292900614D03*
X238947037Y-300500615D03*
X277709740Y-295667622D03*
X258367273Y-287592623D03*
X258044480Y-280392623D03*
X272619480Y-293386572D03*
X278009740Y-287600613D03*
X267209740Y-287396311D03*
X437109740Y-155396311D03*
X264809739Y-287396311D03*
X266009760Y-288596301D03*
X432628506Y-159939774D03*
X264847037Y-279400614D03*
X264809740Y-289796311D03*
X267744479Y-299267622D03*
X269394480Y-296317622D03*
X263069480Y-282563638D03*
X256019479Y-296986571D03*
X261219480Y-294986570D03*
X267209741Y-289796311D03*
X266546572Y-299942622D03*
X270609740Y-282996311D03*
X267694480Y-298367623D03*
X263419479Y-299042622D03*
X268719479Y-293417622D03*
X268294480Y-281567623D03*
X437609740Y-158496311D03*
X426809740Y-158496311D03*
X431609740Y-192296311D03*
X436409740Y-192296311D03*
X442409740Y-206296311D03*
X435209740Y-206296311D03*
X243859740Y-286396311D03*
%LPD*%
M02*
