%TF.GenerationSoftware,KiCad,Pcbnew,8.0.4*%
%TF.CreationDate,2024-08-23T20:40:46+09:00*%
%TF.ProjectId,ttaelgam,74746165-6c67-4616-9d2e-6b696361645f,rev?*%
%TF.SameCoordinates,Original*%
%TF.FileFunction,Copper,L3,Inr*%
%TF.FilePolarity,Positive*%
%FSLAX46Y46*%
G04 Gerber Fmt 4.6, Leading zero omitted, Abs format (unit mm)*
G04 Created by KiCad (PCBNEW 8.0.4) date 2024-08-23 20:40:46*
%MOMM*%
%LPD*%
G01*
G04 APERTURE LIST*
%TA.AperFunction,ComponentPad*%
%ADD10C,3.300000*%
%TD*%
%TA.AperFunction,ComponentPad*%
%ADD11R,1.700000X1.700000*%
%TD*%
%TA.AperFunction,ComponentPad*%
%ADD12O,1.700000X1.700000*%
%TD*%
%TA.AperFunction,ViaPad*%
%ADD13C,0.600000*%
%TD*%
%TA.AperFunction,Conductor*%
%ADD14C,0.250000*%
%TD*%
%TA.AperFunction,Conductor*%
%ADD15C,0.200000*%
%TD*%
G04 APERTURE END LIST*
D10*
%TO.N,COL1*%
%TO.C,MX52*%
X158488922Y-230633419D03*
%TO.N,Net-(D52-A)*%
X165206910Y-229351723D03*
%TD*%
%TO.N,COL1*%
%TO.C,MX2*%
X171211112Y-165183426D03*
%TO.N,Net-(D2-A)*%
X177929100Y-163901730D03*
%TD*%
%TO.N,COL4*%
%TO.C,MX55*%
X214588916Y-241538153D03*
%TO.N,Net-(D55-A)*%
X221306904Y-240256457D03*
%TD*%
%TO.N,COL1*%
%TO.C,MX18*%
X151733747Y-190507239D03*
%TO.N,Net-(D18-A)*%
X158451735Y-189225543D03*
%TD*%
%TO.N,COL5*%
%TO.C,MX24*%
X279896559Y-205592121D03*
%TO.N,Net-(D24-A)*%
X285645236Y-201887151D03*
%TD*%
%TO.N,COL17*%
%TO.C,MX69*%
X239004001Y-265690518D03*
%TO.N,Net-(D69-A)*%
X245721989Y-264408822D03*
%TD*%
%TO.N,COL2*%
%TO.C,MX66*%
X182904008Y-254785783D03*
%TO.N,Net-(D66-A)*%
X189621996Y-253504087D03*
%TD*%
%TO.N,COL7*%
%TO.C,MX84*%
X369236195Y-265852467D03*
%TO.N,Net-(D84-A)*%
X374984872Y-262147497D03*
%TD*%
%TO.N,COL6*%
%TO.C,MX58*%
X301191380Y-240265933D03*
%TO.N,Net-(D58-A)*%
X306940057Y-236560963D03*
%TD*%
%TO.N,COL0*%
%TO.C,MX64*%
X133816513Y-245244141D03*
%TO.N,Net-(D64-A)*%
X140534501Y-243962445D03*
%TD*%
%TO.N,COL0*%
%TO.C,MX78*%
X120831603Y-262126683D03*
%TO.N,Net-(D78-A)*%
X127549591Y-260844987D03*
%TD*%
%TO.N,COL8*%
%TO.C,MX73*%
X332876288Y-253513564D03*
%TO.N,Net-(D73-A)*%
X338624965Y-249808594D03*
%TD*%
%TO.N,COL9*%
%TO.C,MX61*%
X357291373Y-229361199D03*
%TO.N,Net-(D61-A)*%
X363040050Y-225656229D03*
%TD*%
%TO.N,COL12*%
%TO.C,MX63*%
X406378868Y-219819557D03*
%TO.N,Net-(D63-A)*%
X412127545Y-216114587D03*
%TD*%
%TO.N,COL14*%
%TO.C,MX89*%
X479407648Y-253416553D03*
%TO.N,Net-(D89-A)*%
X485757648Y-250876553D03*
%TD*%
%TO.N,COL16*%
%TO.C,MX22*%
X226533738Y-205046885D03*
%TO.N,Net-(D22-A)*%
X233251726Y-203765189D03*
%TD*%
%TO.N,COL9*%
%TO.C,MX44*%
X348981462Y-211569929D03*
%TO.N,Net-(D44-A)*%
X354730139Y-207864959D03*
%TD*%
%TO.N,COL3*%
%TO.C,MX67*%
X201604005Y-258420695D03*
%TO.N,Net-(D67-A)*%
X208321993Y-257138999D03*
%TD*%
%TO.N,COL9*%
%TO.C,MX74*%
X351576286Y-249878653D03*
%TO.N,Net-(D74-A)*%
X357324963Y-246173683D03*
%TD*%
%TO.N,COL2*%
%TO.C,MX36*%
X176148832Y-214659604D03*
%TO.N,Net-(D36-A)*%
X182866820Y-213377908D03*
%TD*%
%TO.N,COL16*%
%TO.C,MX39*%
X232248825Y-225564338D03*
%TO.N,Net-(D39-A)*%
X238966813Y-224282642D03*
%TD*%
%TO.N,COL13*%
%TO.C,MX88*%
X460357648Y-253416553D03*
%TO.N,Net-(D88-A)*%
X466707648Y-250876553D03*
%TD*%
%TO.N,COL2*%
%TO.C,MX19*%
X170433744Y-194142151D03*
%TO.N,Net-(D19-A)*%
X177151732Y-192860455D03*
%TD*%
%TO.N,COL2*%
%TO.C,MX3*%
X189911110Y-168818338D03*
%TO.N,Net-(D3-A)*%
X196629098Y-167536642D03*
%TD*%
%TO.N,COL6*%
%TO.C,MX71*%
X295476292Y-260783387D03*
%TO.N,Net-(D71-A)*%
X301224969Y-257078417D03*
%TD*%
%TO.N,COL8*%
%TO.C,MX27*%
X335996552Y-194687387D03*
%TO.N,Net-(D27-A)*%
X341745229Y-190982417D03*
%TD*%
%TO.N,COL4*%
%TO.C,MX5*%
X227311105Y-176088160D03*
%TO.N,Net-(D5-A)*%
X234029093Y-174806464D03*
%TD*%
%TO.N,COL12*%
%TO.C,MX76*%
X405338779Y-239428282D03*
%TO.N,Net-(D76-A)*%
X411087456Y-235723312D03*
%TD*%
%TO.N,COL8*%
%TO.C,MX9*%
X321194186Y-168454846D03*
%TO.N,Net-(D9-A)*%
X326942863Y-164749876D03*
%TD*%
%TO.N,COL12*%
%TO.C,MX13*%
X405344176Y-152097745D03*
%TO.N,Net-(D13-A)*%
X411092853Y-148392775D03*
%TD*%
%TO.N,COL4*%
%TO.C,MX21*%
X207833740Y-201411973D03*
%TO.N,Net-(D21-A)*%
X214551728Y-200130277D03*
%TD*%
%TO.N,COL15*%
%TO.C,MX33*%
X498457648Y-177216553D03*
%TO.N,Net-(D33-A)*%
X504807648Y-174676553D03*
%TD*%
%TO.N,COL7*%
%TO.C,MX26*%
X317296554Y-198322298D03*
%TO.N,Net-(D26-A)*%
X323045231Y-194617328D03*
%TD*%
%TO.N,COL11*%
%TO.C,MX12*%
X386644179Y-155732656D03*
%TO.N,Net-(D12-A)*%
X392392856Y-152027686D03*
%TD*%
%TO.N,COL15*%
%TO.C,MX16*%
X498457648Y-148641553D03*
%TO.N,Net-(D16-A)*%
X504807648Y-146101553D03*
%TD*%
%TO.N,COL0*%
%TO.C,MX34*%
X134073837Y-206481054D03*
%TO.N,Net-(D34-A)*%
X140791825Y-205199358D03*
%TD*%
%TO.N,COL5*%
%TO.C,MX40*%
X274181471Y-226109575D03*
%TO.N,Net-(D40-A)*%
X279930148Y-222404605D03*
%TD*%
%TO.N,COL5*%
%TO.C,MX82*%
X308461202Y-277665929D03*
%TO.N,Net-(D82-A)*%
X314209879Y-273960959D03*
%TD*%
%TO.N,COL8*%
%TO.C,MX43*%
X330281465Y-215204840D03*
%TO.N,Net-(D43-A)*%
X336030142Y-211499870D03*
%TD*%
%TO.N,COL12*%
%TO.C,MX30*%
X401446545Y-181965197D03*
%TO.N,Net-(D30-A)*%
X407195222Y-178260227D03*
%TD*%
%TO.N,COL6*%
%TO.C,MX7*%
X283794190Y-175724669D03*
%TO.N,Net-(D7-A)*%
X289542867Y-172019699D03*
%TD*%
%TO.N,COL4*%
%TO.C,MX68*%
X220304003Y-262055606D03*
%TO.N,Net-(D68-A)*%
X227021991Y-260773910D03*
%TD*%
%TO.N,COL0*%
%TO.C,MX17*%
X133033749Y-186872328D03*
%TO.N,Net-(D17-A)*%
X139751737Y-185590632D03*
%TD*%
%TO.N,COL1*%
%TO.C,MX35*%
X157448834Y-211024693D03*
%TO.N,Net-(D35-A)*%
X164166822Y-209742997D03*
%TD*%
%TO.N,COL3*%
%TO.C,MX4*%
X208611108Y-172453249D03*
%TO.N,Net-(D4-A)*%
X215329096Y-171171553D03*
%TD*%
%TO.N,COL7*%
%TO.C,MX8*%
X302494188Y-172089757D03*
%TO.N,Net-(D8-A)*%
X308242865Y-168384787D03*
%TD*%
%TO.N,COL0*%
%TO.C,MX1*%
X138486116Y-158822331D03*
%TO.N,Net-(D1-A)*%
X145204104Y-157540635D03*
%TD*%
%TO.N,COL14*%
%TO.C,MX49*%
X479407648Y-196266553D03*
%TO.N,Net-(D49-A)*%
X485757648Y-193726553D03*
%TD*%
D11*
%TO.N,GND*%
%TO.C,J3*%
X456634740Y-241390260D03*
D12*
%TO.N,+3V3*%
X459174740Y-241390260D03*
%TO.N,RESET*%
X461714739Y-241390260D03*
%TO.N,SWD*%
X464254740Y-241390260D03*
%TO.N,SWC*%
X466794740Y-241390260D03*
%TD*%
D10*
%TO.N,COL6*%
%TO.C,MX83*%
X348198698Y-269941742D03*
%TO.N,Net-(D83-A)*%
X353947375Y-266236772D03*
%TD*%
%TO.N,COL13*%
%TO.C,MX48*%
X460357648Y-196266553D03*
%TO.N,Net-(D48-A)*%
X466707648Y-193726553D03*
%TD*%
%TO.N,COL10*%
%TO.C,MX62*%
X375991371Y-225726288D03*
%TO.N,Net-(D62-A)*%
X381740048Y-222021318D03*
%TD*%
%TO.N,COL10*%
%TO.C,MX75*%
X370276283Y-246243741D03*
%TO.N,Net-(D75-A)*%
X376024960Y-242538771D03*
%TD*%
%TO.N,COL6*%
%TO.C,MX25*%
X298596556Y-201957210D03*
%TO.N,Net-(D25-A)*%
X304345233Y-198252240D03*
%TD*%
%TO.N,COL14*%
%TO.C,MX32*%
X479407648Y-177216553D03*
%TO.N,Net-(D32-A)*%
X485757648Y-174676553D03*
%TD*%
%TO.N,COL14*%
%TO.C,MX15*%
X479407648Y-148641553D03*
%TO.N,Net-(D15-A)*%
X485757648Y-146101553D03*
%TD*%
%TO.N,COL6*%
%TO.C,MX41*%
X292881469Y-222474663D03*
%TO.N,Net-(D41-A)*%
X298630146Y-218769693D03*
%TD*%
%TO.N,COL11*%
%TO.C,MX86*%
X406636191Y-258582644D03*
%TO.N,Net-(D86-A)*%
X412384868Y-254877674D03*
%TD*%
%TO.N,COL8*%
%TO.C,MX60*%
X338591375Y-232996110D03*
%TO.N,Net-(D60-A)*%
X344340052Y-229291140D03*
%TD*%
%TO.N,COL9*%
%TO.C,MX10*%
X349244183Y-163002479D03*
%TO.N,Net-(D10-A)*%
X354992860Y-159297509D03*
%TD*%
%TO.N,COL3*%
%TO.C,MX81*%
X204981593Y-278483784D03*
%TO.N,Net-(D81-A)*%
X211699581Y-277202088D03*
%TD*%
%TO.N,COL1*%
%TO.C,MX65*%
X164204010Y-251150872D03*
%TO.N,Net-(D65-A)*%
X170921998Y-249869176D03*
%TD*%
%TO.N,COL13*%
%TO.C,MX14*%
X460357648Y-148641553D03*
%TO.N,Net-(D14-A)*%
X466707648Y-146101553D03*
%TD*%
%TO.N,COL4*%
%TO.C,MX38*%
X213548828Y-221929427D03*
%TO.N,Net-(D38-A)*%
X220266816Y-220647731D03*
%TD*%
%TO.N,COL11*%
%TO.C,MX46*%
X386381458Y-204300106D03*
%TO.N,Net-(D46-A)*%
X392130135Y-200595136D03*
%TD*%
%TO.N,COL2*%
%TO.C,MX53*%
X177188920Y-234268330D03*
%TO.N,Net-(D53-A)*%
X183906908Y-232986634D03*
%TD*%
%TO.N,COL10*%
%TO.C,MX29*%
X373396548Y-187417564D03*
%TO.N,Net-(D29-A)*%
X379145225Y-183712594D03*
%TD*%
%TO.N,COL17*%
%TO.C,MX23*%
X245233736Y-208681796D03*
%TO.N,Net-(D23-A)*%
X251951724Y-207400100D03*
%TD*%
%TO.N,COL13*%
%TO.C,MX31*%
X460357648Y-177216553D03*
%TO.N,Net-(D31-A)*%
X466707648Y-174676553D03*
%TD*%
%TO.N,COL3*%
%TO.C,MX37*%
X194848830Y-218294516D03*
%TO.N,Net-(D37-A)*%
X201566818Y-217012820D03*
%TD*%
%TO.N,COL7*%
%TO.C,MX42*%
X311581467Y-218839752D03*
%TO.N,Net-(D42-A)*%
X317330144Y-215134782D03*
%TD*%
%TO.N,COL15*%
%TO.C,MX90*%
X498457648Y-253416553D03*
%TO.N,Net-(D90-A)*%
X504807648Y-250876553D03*
%TD*%
%TO.N,COL10*%
%TO.C,MX45*%
X367681460Y-207935018D03*
%TO.N,Net-(D45-A)*%
X373430137Y-204230048D03*
%TD*%
%TO.N,COL3*%
%TO.C,MX20*%
X189133742Y-197777062D03*
%TO.N,Net-(D20-A)*%
X195851730Y-196495366D03*
%TD*%
%TO.N,COL10*%
%TO.C,MX85*%
X387936193Y-262217556D03*
%TO.N,Net-(D85-A)*%
X393684870Y-258512586D03*
%TD*%
%TO.N,COL15*%
%TO.C,MX50*%
X498457648Y-196266553D03*
%TO.N,Net-(D50-A)*%
X504807648Y-193726553D03*
%TD*%
%TO.N,COL3*%
%TO.C,MX54*%
X195888918Y-237903241D03*
%TO.N,Net-(D54-A)*%
X202606906Y-236621545D03*
%TD*%
%TO.N,COL10*%
%TO.C,MX11*%
X367944181Y-159367567D03*
%TO.N,Net-(D11-A)*%
X373692858Y-155662597D03*
%TD*%
%TO.N,COL2*%
%TO.C,MX80*%
X167581598Y-271213962D03*
%TO.N,Net-(D80-A)*%
X174299586Y-269932266D03*
%TD*%
%TO.N,COL9*%
%TO.C,MX28*%
X354696550Y-191052476D03*
%TO.N,Net-(D28-A)*%
X360445227Y-187347506D03*
%TD*%
%TO.N,COL5*%
%TO.C,MX57*%
X282491382Y-243900845D03*
%TO.N,Net-(D57-A)*%
X288240059Y-240195875D03*
%TD*%
%TO.N,COL7*%
%TO.C,MX59*%
X319891378Y-236631022D03*
%TO.N,Net-(D59-A)*%
X325640055Y-232926052D03*
%TD*%
%TO.N,COL12*%
%TO.C,MX47*%
X409756455Y-199756467D03*
%TO.N,Net-(D47-A)*%
X415505132Y-196051497D03*
%TD*%
%TO.N,COL5*%
%TO.C,MX6*%
X265094193Y-179359580D03*
%TO.N,Net-(D6-A)*%
X270842870Y-175654610D03*
%TD*%
%TO.N,COL1*%
%TO.C,MX79*%
X144206600Y-266670323D03*
%TO.N,Net-(D79-A)*%
X150924588Y-265388627D03*
%TD*%
%TO.N,COL16*%
%TO.C,MX56*%
X233288914Y-245173064D03*
%TO.N,Net-(D56-A)*%
X240006902Y-243891368D03*
%TD*%
%TO.N,COL5*%
%TO.C,MX70*%
X276776294Y-264418298D03*
%TO.N,Net-(D70-A)*%
X282524971Y-260713328D03*
%TD*%
%TO.N,COL14*%
%TO.C,MX77*%
X479407648Y-234366553D03*
%TO.N,Net-(D77-A)*%
X485757648Y-231826553D03*
%TD*%
%TO.N,COL7*%
%TO.C,MX72*%
X314176290Y-257148475D03*
%TO.N,Net-(D72-A)*%
X319924967Y-253443505D03*
%TD*%
%TO.N,COL0*%
%TO.C,MX51*%
X132776425Y-225635415D03*
%TO.N,Net-(D51-A)*%
X139494413Y-224353719D03*
%TD*%
%TO.N,COL12*%
%TO.C,MX87*%
X425336189Y-254947733D03*
%TO.N,Net-(D87-A)*%
X431084866Y-251242763D03*
%TD*%
D13*
%TO.N,GND*%
X487282183Y-212382268D03*
X448009740Y-217296311D03*
X468658261Y-225446311D03*
X468184740Y-232490260D03*
X453609740Y-219496311D03*
X449395526Y-218682097D03*
X459019480Y-225486571D03*
X437109740Y-155396311D03*
X461419480Y-225486571D03*
X460219460Y-224286581D03*
X432628506Y-159939774D03*
X459992629Y-233595167D03*
X461419480Y-223086571D03*
X458484740Y-213615260D03*
X456834740Y-216565260D03*
X463159740Y-230319244D03*
X470209740Y-215896311D03*
X465009740Y-217896311D03*
X453909740Y-234015260D03*
X459019480Y-223086571D03*
%TO.N,+3V3*%
X459682648Y-212940260D03*
X455619480Y-229886571D03*
X458534740Y-214515260D03*
%TO.N,+1V1*%
X462809740Y-213840260D03*
X457509740Y-219465260D03*
X457934740Y-231315260D03*
%TO.N,ROW0*%
X494209740Y-157496311D03*
X477209740Y-226296311D03*
X437609740Y-158496311D03*
X426809740Y-158496311D03*
%TO.N,ROW1*%
X431609740Y-192296311D03*
X491209740Y-187296311D03*
X436409740Y-192296311D03*
X475409740Y-226296311D03*
%TO.N,ROW2*%
X474009740Y-226296311D03*
X475409740Y-205496311D03*
X442409740Y-206296311D03*
X435209740Y-206296311D03*
%TO.N,ROW5*%
X472409740Y-247896311D03*
X472409740Y-245096311D03*
%TO.N,COL0*%
X454809740Y-223696311D03*
X141809740Y-221496311D03*
%TO.N,COL1*%
X453809740Y-223696311D03*
X162809740Y-224096311D03*
%TO.N,COL2*%
X453209740Y-224496311D03*
X180009740Y-227096311D03*
%TO.N,COL3*%
X450809740Y-225296311D03*
X198809740Y-230496311D03*
%TO.N,COL4*%
X219609740Y-234096311D03*
X449573864Y-225615030D03*
%TO.N,COL5*%
X468809740Y-218296311D03*
X282209740Y-218496311D03*
%TO.N,COL6*%
X469609740Y-219096311D03*
X304609740Y-233496311D03*
%TO.N,COL7*%
X470209740Y-220096311D03*
X321009740Y-243296311D03*
%TO.N,COL8*%
X470209740Y-221096311D03*
X337809740Y-262496311D03*
%TO.N,COL9*%
X470209740Y-222296311D03*
X358409740Y-261696311D03*
%TO.N,COL10*%
X470209740Y-223296311D03*
X390209740Y-251696311D03*
%TO.N,COL11*%
X400209740Y-244296311D03*
X470009740Y-224296311D03*
%TO.N,COL12*%
X432609740Y-264696311D03*
X465409740Y-225896311D03*
%TO.N,COL13*%
X469609740Y-225296311D03*
%TO.N,COL14*%
X470609740Y-225296311D03*
%TO.N,COL15*%
X485809740Y-225096311D03*
%TO.N,COL16*%
X235609740Y-237296311D03*
X448609740Y-225496311D03*
%TO.N,COL17*%
X250209740Y-254496311D03*
X447332442Y-225573609D03*
%TD*%
D14*
%TO.N,ROW0*%
X426809740Y-158496311D02*
X437609740Y-158496311D01*
D15*
X489809740Y-218296311D02*
X492609740Y-215496311D01*
X492609740Y-159096311D02*
X494209740Y-157496311D01*
X492609740Y-215496311D02*
X492609740Y-159096311D01*
X485209740Y-218296311D02*
X489809740Y-218296311D01*
X477209740Y-226296311D02*
X485209740Y-218296311D01*
%TO.N,ROW1*%
X491209740Y-204296311D02*
X491209740Y-187296311D01*
X475409740Y-207296311D02*
X477209740Y-205496311D01*
X490009740Y-205496311D02*
X490209740Y-205296311D01*
X477209740Y-205496311D02*
X490009740Y-205496311D01*
X475409740Y-226296311D02*
X475409740Y-207296311D01*
D14*
X431609740Y-192296311D02*
X436409740Y-192296311D01*
D15*
X490209740Y-205296311D02*
X491209740Y-204296311D01*
%TO.N,ROW2*%
X474009740Y-206896311D02*
X475409740Y-205496311D01*
D14*
X435209740Y-206296311D02*
X442409740Y-206296311D01*
D15*
X474009740Y-226296311D02*
X474009740Y-206896311D01*
%TO.N,ROW5*%
X472409740Y-245096311D02*
X472409740Y-247896311D01*
D14*
%TO.N,COL5*%
X368009740Y-203096311D02*
X373209740Y-197896311D01*
X468809740Y-219696311D02*
X468809740Y-218296311D01*
X417209740Y-193296311D02*
X444409740Y-220496311D01*
X373209740Y-197896311D02*
X406609740Y-197896311D01*
X342409740Y-203096311D02*
X368009740Y-203096311D01*
X406609740Y-197896311D02*
X411209740Y-193296311D01*
X282209740Y-218496311D02*
X292809740Y-218496311D01*
X411209740Y-193296311D02*
X417209740Y-193296311D01*
X297009740Y-214296311D02*
X312409740Y-214296311D01*
X338609740Y-206896311D02*
X342409740Y-203096311D01*
X319809740Y-206896311D02*
X338609740Y-206896311D01*
X444409740Y-220496311D02*
X468009740Y-220496311D01*
X292809740Y-218496311D02*
X297009740Y-214296311D01*
X468009740Y-220496311D02*
X468809740Y-219696311D01*
X312409740Y-214296311D02*
X319809740Y-206896311D01*
%TO.N,COL6*%
X311009740Y-227096311D02*
X344409740Y-227096311D01*
X468409740Y-221096311D02*
X469609740Y-219896311D01*
X429209740Y-206096311D02*
X444209740Y-221096311D01*
X394809740Y-209696311D02*
X415009740Y-209696311D01*
X444209740Y-221096311D02*
X468409740Y-221096311D01*
X469609740Y-219896311D02*
X469609740Y-219096311D01*
X379409740Y-219896311D02*
X382209740Y-217096311D01*
X387409740Y-217096311D02*
X394809740Y-209696311D01*
X351609740Y-219896311D02*
X379409740Y-219896311D01*
X304609740Y-233496311D02*
X311009740Y-227096311D01*
X344409740Y-227096311D02*
X351609740Y-219896311D01*
X418609740Y-206096311D02*
X429209740Y-206096311D01*
X415009740Y-209696311D02*
X418609740Y-206096311D01*
X382209740Y-217096311D02*
X387409740Y-217096311D01*
%TO.N,COL7*%
X390409740Y-237296311D02*
X390409740Y-215096311D01*
X418809740Y-206696311D02*
X429009740Y-206696311D01*
X322409740Y-244696311D02*
X352409740Y-244696311D01*
X415209740Y-210296311D02*
X418809740Y-206696311D01*
X321009740Y-243296311D02*
X322409740Y-244696311D01*
X429009740Y-206696311D02*
X444009740Y-221696311D01*
X365409740Y-239096311D02*
X388609740Y-239096311D01*
X388609740Y-239096311D02*
X390409740Y-237296311D01*
X444009740Y-221696311D02*
X468609740Y-221696311D01*
X355809740Y-241296311D02*
X363209740Y-241296311D01*
X395209740Y-210296311D02*
X415209740Y-210296311D01*
X363209740Y-241296311D02*
X365409740Y-239096311D01*
X390409740Y-215096311D02*
X395209740Y-210296311D01*
X468609740Y-221696311D02*
X470209740Y-220096311D01*
X352409740Y-244696311D02*
X355809740Y-241296311D01*
%TO.N,COL8*%
X415409740Y-210896311D02*
X419009740Y-207296311D01*
X391009740Y-237496311D02*
X391009740Y-215496311D01*
X388809740Y-239696311D02*
X391009740Y-237496311D01*
X443846136Y-222296311D02*
X469009740Y-222296311D01*
X337809740Y-262496311D02*
X356409740Y-262496311D01*
X428959740Y-207446311D02*
X428996136Y-207446311D01*
X356409740Y-262496311D02*
X364609740Y-254296311D01*
X365809740Y-239696311D02*
X388809740Y-239696311D01*
X428996136Y-207446311D02*
X443846136Y-222296311D01*
X428809740Y-207296311D02*
X428959740Y-207446311D01*
X419009740Y-207296311D02*
X428809740Y-207296311D01*
X364609740Y-240896311D02*
X365809740Y-239696311D01*
X395609740Y-210896311D02*
X415409740Y-210896311D01*
X364609740Y-254296311D02*
X364609740Y-240896311D01*
X391009740Y-215496311D02*
X395609740Y-210896311D01*
X469009740Y-222296311D02*
X470209740Y-221096311D01*
%TO.N,COL9*%
X462409740Y-226296311D02*
X465609740Y-223096311D01*
X465609740Y-223096311D02*
X469409740Y-223096311D01*
X419209740Y-207896311D02*
X428609740Y-207896311D01*
X446809740Y-226296311D02*
X462409740Y-226296311D01*
X363568465Y-256537586D02*
X372968465Y-256537586D01*
X428609740Y-208096311D02*
X446809740Y-226296311D01*
X469409740Y-223096311D02*
X470209740Y-222296311D01*
X415609740Y-211496311D02*
X419209740Y-207896311D01*
X358409740Y-261696311D02*
X363568465Y-256537586D01*
X391609740Y-237896311D02*
X391609740Y-215696311D01*
X372968465Y-256537586D02*
X391609740Y-237896311D01*
X391609740Y-215696311D02*
X395809740Y-211496311D01*
X428609740Y-207896311D02*
X428609740Y-208096311D01*
X395809740Y-211496311D02*
X415609740Y-211496311D01*
%TO.N,COL10*%
X390209740Y-251696311D02*
X390209740Y-248096311D01*
X466009740Y-223696311D02*
X469809740Y-223696311D01*
X427209740Y-226896311D02*
X462809740Y-226896311D01*
X423009740Y-229096311D02*
X425009740Y-229096311D01*
X411259740Y-227046311D02*
X420959740Y-227046311D01*
X462809740Y-226896311D02*
X466009740Y-223696311D01*
X425009740Y-229096311D02*
X427209740Y-226896311D01*
X390209740Y-248096311D02*
X411259740Y-227046311D01*
X469809740Y-223696311D02*
X470209740Y-223296311D01*
X420959740Y-227046311D02*
X423009740Y-229096311D01*
%TO.N,COL11*%
X422809740Y-229696311D02*
X425209740Y-229696311D01*
X425209740Y-229696311D02*
X427409740Y-227496311D01*
X427409740Y-227496311D02*
X462925856Y-227496311D01*
X420609740Y-227496311D02*
X422809740Y-229696311D01*
X462925856Y-227496311D02*
X466125856Y-224296311D01*
X400209740Y-244296311D02*
X400209740Y-238830280D01*
X411543709Y-227496311D02*
X420609740Y-227496311D01*
X466125856Y-224296311D02*
X470009740Y-224296311D01*
X400209740Y-238830280D02*
X411543709Y-227496311D01*
%TO.N,COL12*%
X432609740Y-264696311D02*
X451009740Y-246296311D01*
X451009740Y-246296311D02*
X469609740Y-246296311D01*
X469609740Y-246296311D02*
X471209740Y-244696311D01*
X471209740Y-231696311D02*
X465409740Y-225896311D01*
X471209740Y-244696311D02*
X471209740Y-231696311D01*
%TD*%
%TA.AperFunction,Conductor*%
%TO.N,COL8*%
G36*
X338401542Y-262368740D02*
G01*
X338408410Y-262374485D01*
X338409740Y-262379903D01*
X338409740Y-262612718D01*
X338406313Y-262620991D01*
X338401541Y-262623882D01*
X337934727Y-262770281D01*
X337925808Y-262769487D01*
X337920431Y-262763629D01*
X337810623Y-262500820D01*
X337810597Y-262491867D01*
X337810602Y-262491853D01*
X337920431Y-262228991D01*
X337926782Y-262222681D01*
X337934726Y-262222340D01*
X338401542Y-262368740D01*
G37*
%TD.AperFunction*%
%TD*%
M02*
