M48
; DRILL file {KiCad 8.0.4} date 2024-09-01T12:40:52+0900
; FORMAT={-:-/ absolute / inch / decimal}
; #@! TF.CreationDate,2024-09-01T12:40:52+09:00
; #@! TF.GenerationSoftware,Kicad,Pcbnew,8.0.4
; #@! TF.FileFunction,NonPlated,1,4,NPTH
FMAT,2
INCH
; #@! TA.AperFunction,NonPlated,NPTH,ComponentDrill
T1C0.0689
; #@! TA.AperFunction,NonPlated,NPTH,ComponentDrill
T2C0.1200
; #@! TA.AperFunction,NonPlated,NPTH,ComponentDrill
T3C0.1570
%
G90
G05
T1
X4.689Y-10.4086
X5.0816Y-10.4849
X5.1593Y-8.9719
X5.1694Y-7.4458
X5.2002Y-9.7439
X5.2103Y-8.2178
X5.384Y-6.3415
X5.5519Y-9.0482
X5.562Y-7.5221
X5.5929Y-9.8202
X5.603Y-8.2941
X5.6093Y-10.5875
X5.7767Y-6.4178
X5.9056Y-7.5889
X6.0019Y-10.6638
X6.1306Y-8.3967
X6.1716Y-9.1687
X6.2983Y-7.6652
X6.3966Y-9.9765
X6.5233Y-8.473
X6.5295Y-10.7663
X6.5642Y-9.245
X6.6418Y-7.732
X6.6724Y-6.5919
X6.7892Y-10.0528
X6.8668Y-8.5398
X6.9078Y-9.3118
X6.9222Y-10.8427
X7.0345Y-7.8083
X7.0651Y-6.6682
X7.1328Y-10.1196
X7.2595Y-8.6161
X7.3004Y-9.3881
X7.378Y-7.8751
X7.4087Y-6.735
X7.5254Y-10.1959
X7.6031Y-8.6829
X7.644Y-9.4549
X7.7707Y-7.9514
X7.8013Y-6.8113
X7.869Y-10.2627
X7.9957Y-8.7592
X8.002Y-11.0526
X8.0367Y-9.5312
X8.1143Y-8.0182
X8.1449Y-6.8781
X8.2617Y-10.339
X8.3393Y-8.826
X8.3802Y-9.598
X8.3946Y-11.1289
X8.5069Y-8.0946
X8.5375Y-6.9544
X8.6052Y-10.4058
X8.7319Y-8.9023
X8.7729Y-9.6743
X8.8505Y-8.1613
X8.8811Y-7.0212
X8.9979Y-10.4821
X9.0755Y-8.9691
X9.1164Y-9.7411
X9.2431Y-8.2377
X9.2737Y-7.0976
X9.3414Y-10.5489
X9.4681Y-9.0454
X9.5091Y-9.8174
X9.5867Y-8.3044
X9.7341Y-10.6252
X9.9794Y-8.3808
X10.4068Y-7.1691
X10.7645Y-9.0097
X10.7994Y-7.0928
X10.8667Y-10.5179
X10.9895Y-8.2019
X11.0917Y-9.7101
X11.143Y-7.026
X11.1572Y-8.9333
X11.2594Y-10.4415
X11.3822Y-8.1256
X11.4844Y-9.6338
X11.5008Y-8.8665
X11.5357Y-6.9497
X11.6029Y-10.3748
X11.7258Y-8.0588
X11.8279Y-9.567
X11.8792Y-6.8829
X11.8934Y-8.7902
X11.9956Y-10.2984
X12.1141Y-11.0394
X12.1184Y-7.9825
X12.2206Y-9.4907
X12.237Y-8.7234
X12.2719Y-6.8066
X12.3391Y-10.2317
X12.462Y-7.9157
X12.5068Y-10.9631
X12.5641Y-9.4239
X12.6154Y-6.7398
X12.6296Y-8.6471
X12.7318Y-10.1553
X12.8546Y-7.8393
X12.9568Y-9.3476
X12.9732Y-8.5803
X13.0081Y-6.6635
X13.0754Y-10.0886
X13.1982Y-7.7726
X13.3004Y-9.2808
X13.3659Y-8.504
X13.468Y-10.0122
X13.5909Y-7.6962
X13.6786Y-10.7353
X13.693Y-9.2045
X13.7094Y-8.4372
X13.7198Y-6.5251
X13.8116Y-9.9454
X13.9344Y-7.6295
X14.0366Y-9.1377
X14.0713Y-10.659
X14.1021Y-8.3609
X14.1124Y-6.4488
X14.2042Y-9.8691
X14.3271Y-7.5531
X14.4292Y-9.0613
X14.4456Y-8.2941
X14.456Y-6.382
X14.5069Y-10.5743
X14.5478Y-9.8023
X14.6707Y-7.4863
X14.7728Y-8.9946
X14.8383Y-8.2178
X14.8486Y-6.3057
X14.8995Y-10.498
X14.9405Y-9.726
X15.0633Y-7.41
X15.1655Y-8.9182
X15.1819Y-8.151
X15.1922Y-6.2389
X15.2431Y-10.4312
X15.5745Y-8.0747
X15.5849Y-6.1626
X15.6357Y-10.3549
X15.775Y-7.2717
X15.9282Y-9.534
X15.9284Y-6.0958
X15.9692Y-8.762
X15.9793Y-10.2881
X16.1021Y-7.9721
X16.1676Y-7.1954
X16.3209Y-9.4577
X16.3211Y-6.0195
X16.3618Y-8.6857
X16.3719Y-10.2118
X16.4948Y-7.8958
X16.7155Y-10.145
X17.1082Y-10.0687
X18.0743Y-5.952
X18.0743Y-7.077
X18.0743Y-7.827
X18.0743Y-10.077
X18.4743Y-5.952
X18.4743Y-7.077
X18.4743Y-7.827
X18.4743Y-10.077
X18.8243Y-5.952
X18.8243Y-7.077
X18.8243Y-7.827
X18.8243Y-9.327
X18.8243Y-10.077
X19.2243Y-5.952
X19.2243Y-7.077
X19.2243Y-7.827
X19.2243Y-9.327
X19.2243Y-10.077
X19.5743Y-5.952
X19.5743Y-7.077
X19.5743Y-7.827
X19.5743Y-10.077
X19.9743Y-5.952
X19.9743Y-7.077
X19.9743Y-7.827
X19.9743Y-10.077
T2
X4.8839Y-9.9626
X5.8042Y-10.1415
X7.6857Y-11.2712
X8.606Y-11.4501
X11.6267Y-11.4143
X13.0992Y-11.1281
X15.5636Y-7.5929
X15.7169Y-9.8552
X15.7578Y-9.0832
X16.4839Y-7.414
X16.6372Y-9.6764
X16.6781Y-8.9044
T3
X4.8853Y-10.4467
X4.9984Y-9.3736
X5.3556Y-9.0101
X5.3657Y-7.484
X5.3965Y-9.7821
X5.4067Y-8.256
X5.5804Y-6.3796
X5.8056Y-10.6256
X5.9187Y-9.5525
X6.1019Y-7.6271
X6.3269Y-8.4348
X6.3679Y-9.2068
X6.5929Y-10.0146
X6.7259Y-10.8045
X6.8382Y-7.7702
X6.8688Y-6.6301
X7.0632Y-8.5779
X7.1041Y-9.3499
X7.3291Y-10.1577
X7.5744Y-7.9133
X7.605Y-6.7732
X7.7994Y-8.7211
X7.8002Y-10.6822
X7.8403Y-9.4931
X8.0653Y-10.3008
X8.1983Y-11.0907
X8.3106Y-8.0564
X8.3412Y-6.9163
X8.5356Y-8.8642
X8.5765Y-9.6362
X8.7205Y-10.8611
X8.8015Y-10.4439
X9.0468Y-8.1995
X9.0774Y-7.0594
X9.2718Y-9.0073
X9.3128Y-9.7793
X9.5378Y-10.587
X9.783Y-8.3426
X10.6031Y-7.1309
X10.9609Y-8.9715
X11.063Y-10.4797
X11.1859Y-8.1637
X11.288Y-9.6719
X11.3393Y-6.9878
X11.5122Y-10.8253
X11.6971Y-8.8284
X11.7992Y-10.3366
X11.9221Y-8.0206
X12.0243Y-9.5288
X12.0755Y-6.8447
X12.3105Y-11.0013
X12.4333Y-8.6853
X12.5355Y-10.1935
X12.6583Y-7.8775
X12.7605Y-9.3857
X12.8118Y-6.7016
X12.9847Y-10.5391
X13.1695Y-8.5422
X13.2717Y-10.0504
X13.3945Y-7.7344
X13.4967Y-9.2426
X13.8749Y-10.6972
X13.9058Y-8.3991
X13.9161Y-6.487
X14.0079Y-9.9073
X14.1308Y-7.5913
X14.2329Y-9.0995
X14.642Y-8.256
X14.6523Y-6.3439
X14.7032Y-10.5362
X14.7441Y-9.7642
X14.867Y-7.4482
X14.9691Y-8.9564
X15.3782Y-8.1129
X15.3885Y-6.2007
X15.4394Y-10.3931
X15.4492Y-7.0039
X15.6024Y-9.2663
X15.6433Y-8.4943
X15.9713Y-7.2335
X16.1245Y-9.4959
X16.1248Y-6.0576
X16.1655Y-8.7239
X16.1756Y-10.25
X16.2985Y-7.934
X16.3694Y-6.8251
X16.5227Y-9.0874
X16.5636Y-8.3154
X16.9118Y-10.1069
X18.2743Y-5.952
X18.2743Y-7.077
X18.2743Y-7.827
X18.2743Y-10.077
X19.0243Y-5.952
X19.0243Y-7.077
X19.0243Y-7.827
X19.0243Y-9.327
X19.0243Y-10.077
X19.7743Y-5.952
X19.7743Y-7.077
X19.7743Y-7.827
X19.7743Y-10.077
M30
