%TF.GenerationSoftware,KiCad,Pcbnew,8.0.5*%
%TF.CreationDate,2024-09-16T13:01:27+09:00*%
%TF.ProjectId,ttaelgam,74746165-6c67-4616-9d2e-6b696361645f,rev?*%
%TF.SameCoordinates,Original*%
%TF.FileFunction,Soldermask,Bot*%
%TF.FilePolarity,Negative*%
%FSLAX46Y46*%
G04 Gerber Fmt 4.6, Leading zero omitted, Abs format (unit mm)*
G04 Created by KiCad (PCBNEW 8.0.5) date 2024-09-16 13:01:27*
%MOMM*%
%LPD*%
G01*
G04 APERTURE LIST*
G04 Aperture macros list*
%AMRoundRect*
0 Rectangle with rounded corners*
0 $1 Rounding radius*
0 $2 $3 $4 $5 $6 $7 $8 $9 X,Y pos of 4 corners*
0 Add a 4 corners polygon primitive as box body*
4,1,4,$2,$3,$4,$5,$6,$7,$8,$9,$2,$3,0*
0 Add four circle primitives for the rounded corners*
1,1,$1+$1,$2,$3*
1,1,$1+$1,$4,$5*
1,1,$1+$1,$6,$7*
1,1,$1+$1,$8,$9*
0 Add four rect primitives between the rounded corners*
20,1,$1+$1,$2,$3,$4,$5,0*
20,1,$1+$1,$4,$5,$6,$7,0*
20,1,$1+$1,$6,$7,$8,$9,0*
20,1,$1+$1,$8,$9,$2,$3,0*%
%AMRotRect*
0 Rectangle, with rotation*
0 The origin of the aperture is its center*
0 $1 length*
0 $2 width*
0 $3 Rotation angle, in degrees counterclockwise*
0 Add horizontal line*
21,1,$1,$2,0,0,$3*%
G04 Aperture macros list end*
%ADD10RoundRect,0.150000X-0.275000X0.150000X-0.275000X-0.150000X0.275000X-0.150000X0.275000X0.150000X0*%
%ADD11RoundRect,0.175000X-0.225000X0.175000X-0.225000X-0.175000X0.225000X-0.175000X0.225000X0.175000X0*%
%ADD12C,3.048000*%
%ADD13C,3.987800*%
%ADD14C,1.750000*%
%ADD15C,3.300000*%
%ADD16RoundRect,0.250000X1.196977X0.786048X-0.815359X1.177206X-1.196977X-0.786048X0.815359X-1.177206X0*%
%ADD17RoundRect,0.225000X0.106066X-0.424264X0.424264X-0.106066X-0.106066X0.424264X-0.424264X0.106066X0*%
%ADD18RoundRect,0.225000X0.185071X-0.396231X0.436707X-0.023164X-0.185071X0.396231X-0.436707X0.023164X0*%
%ADD19RoundRect,0.225000X0.023164X-0.436707X0.396231X-0.185071X-0.023164X0.436707X-0.396231X0.185071X0*%
%ADD20RoundRect,0.140000X-0.170000X0.140000X-0.170000X-0.140000X0.170000X-0.140000X0.170000X0.140000X0*%
%ADD21RoundRect,0.250000X0.815359X1.177206X-1.196977X0.786048X-0.815359X-1.177206X1.196977X-0.786048X0*%
%ADD22RoundRect,0.140000X-0.219203X-0.021213X-0.021213X-0.219203X0.219203X0.021213X0.021213X0.219203X0*%
%ADD23RoundRect,0.135000X0.135000X0.185000X-0.135000X0.185000X-0.135000X-0.185000X0.135000X-0.185000X0*%
%ADD24RoundRect,0.150000X-0.650000X-0.150000X0.650000X-0.150000X0.650000X0.150000X-0.650000X0.150000X0*%
%ADD25RoundRect,0.140000X-0.140000X-0.170000X0.140000X-0.170000X0.140000X0.170000X-0.140000X0.170000X0*%
%ADD26RoundRect,0.135000X-0.135000X-0.185000X0.135000X-0.185000X0.135000X0.185000X-0.135000X0.185000X0*%
%ADD27RoundRect,0.250000X1.025000X1.000000X-1.025000X1.000000X-1.025000X-1.000000X1.025000X-1.000000X0*%
%ADD28RoundRect,0.140000X0.170000X-0.140000X0.170000X0.140000X-0.170000X0.140000X-0.170000X-0.140000X0*%
%ADD29RoundRect,0.135000X0.185000X-0.135000X0.185000X0.135000X-0.185000X0.135000X-0.185000X-0.135000X0*%
%ADD30O,1.700000X1.700000*%
%ADD31R,1.700000X1.700000*%
%ADD32RoundRect,0.140000X0.140000X0.170000X-0.140000X0.170000X-0.140000X-0.170000X0.140000X-0.170000X0*%
%ADD33RoundRect,0.140000X0.021213X-0.219203X0.219203X-0.021213X-0.021213X0.219203X-0.219203X0.021213X0*%
%ADD34R,1.700000X1.000000*%
%ADD35RotRect,1.400000X1.200000X315.000000*%
%ADD36RoundRect,0.050000X-0.387500X-0.050000X0.387500X-0.050000X0.387500X0.050000X-0.387500X0.050000X0*%
%ADD37RoundRect,0.050000X-0.050000X-0.387500X0.050000X-0.387500X0.050000X0.387500X-0.050000X0.387500X0*%
%ADD38R,3.200000X3.200000*%
%ADD39RoundRect,0.225000X-0.225000X-0.250000X0.225000X-0.250000X0.225000X0.250000X-0.225000X0.250000X0*%
%ADD40RoundRect,0.135000X-0.226274X-0.035355X-0.035355X-0.226274X0.226274X0.035355X0.035355X0.226274X0*%
%ADD41RoundRect,0.150000X0.512500X0.150000X-0.512500X0.150000X-0.512500X-0.150000X0.512500X-0.150000X0*%
%ADD42C,0.600000*%
G04 APERTURE END LIST*
D10*
%TO.C,J4*%
X440334740Y-151796311D03*
X440334740Y-152996311D03*
X440334740Y-154196311D03*
X440334740Y-155396311D03*
D11*
X444109740Y-150646311D03*
X444109740Y-156546311D03*
%TD*%
D12*
%TO.C,S63*%
X423623821Y-226170754D03*
D13*
X420715892Y-211210756D03*
D12*
X400248824Y-230714392D03*
D13*
X397340895Y-215754395D03*
%TD*%
D12*
%TO.C,S82*%
X332718655Y-282654035D03*
D13*
X329810726Y-267694036D03*
D12*
X295318659Y-289923857D03*
D13*
X292410730Y-274963859D03*
%TD*%
D12*
%TO.C,S30*%
X418691498Y-188316394D03*
D13*
X415783569Y-173356396D03*
D12*
X395316501Y-192860032D03*
D13*
X392408572Y-177900035D03*
%TD*%
D12*
%TO.C,S81*%
X218591636Y-290832583D03*
D13*
X221499565Y-275872586D03*
D12*
X195216639Y-286288945D03*
D13*
X198124568Y-271328947D03*
%TD*%
D12*
%TO.C,S76*%
X422583732Y-245779479D03*
D13*
X419675803Y-230819481D03*
D12*
X399208735Y-250323117D03*
D13*
X396300806Y-235363120D03*
%TD*%
D12*
%TO.C,S64*%
X147426556Y-257592940D03*
D13*
X150334485Y-242632943D03*
D12*
X124051559Y-253049302D03*
D13*
X126959488Y-238089304D03*
%TD*%
D14*
%TO.C,MX52*%
X166730933Y-234823044D03*
D13*
X161744267Y-233853734D03*
D14*
X156757601Y-232884424D03*
D15*
X158488922Y-230633419D03*
D16*
X155004146Y-229956047D03*
X168691686Y-230029095D03*
D15*
X165206910Y-229351723D03*
%TD*%
D17*
%TO.C,D88*%
X464319491Y-260791339D03*
X466652943Y-258457887D03*
%TD*%
D18*
%TO.C,D7*%
X289090418Y-182208004D03*
X290935754Y-179472180D03*
%TD*%
D14*
%TO.C,MX2*%
X179453123Y-169373051D03*
D13*
X174466457Y-168403741D03*
D14*
X169479791Y-167434431D03*
D15*
X171211112Y-165183426D03*
D16*
X167726336Y-164506054D03*
X181413876Y-164579102D03*
D15*
X177929100Y-163901730D03*
%TD*%
D14*
%TO.C,MX55*%
X222830927Y-245727778D03*
D13*
X217844261Y-244758468D03*
D14*
X212857595Y-243789158D03*
D15*
X214588916Y-241538153D03*
D16*
X211104140Y-240860781D03*
X224791680Y-240933829D03*
D15*
X221306904Y-240256457D03*
%TD*%
D17*
%TO.C,D33*%
X502419491Y-184591339D03*
X504752943Y-182257887D03*
%TD*%
D19*
%TO.C,D5*%
X229792983Y-184083405D03*
X232528807Y-182238069D03*
%TD*%
D14*
%TO.C,MX18*%
X159975758Y-194696864D03*
D13*
X154989092Y-193727554D03*
D14*
X150002426Y-192758244D03*
D15*
X151733747Y-190507239D03*
D16*
X148248971Y-189829867D03*
X161936511Y-189902915D03*
D15*
X158451735Y-189225543D03*
%TD*%
D20*
%TO.C,C3*%
X268219480Y-294437622D03*
X268219480Y-295397622D03*
%TD*%
D14*
%TO.C,MX24*%
X289107879Y-206389162D03*
D13*
X284121213Y-207358472D03*
D14*
X279134547Y-208327782D03*
D15*
X279896559Y-205592121D03*
D21*
X276411782Y-206269493D03*
X289130013Y-201209779D03*
D15*
X285645236Y-201887151D03*
%TD*%
D22*
%TO.C,C6*%
X259270329Y-281956900D03*
X259949151Y-282635722D03*
%TD*%
D14*
%TO.C,MX69*%
X247246012Y-269880143D03*
D13*
X242259346Y-268910833D03*
D14*
X237272680Y-267941523D03*
D15*
X239004001Y-265690518D03*
D16*
X235519225Y-265013146D03*
X249206765Y-265086194D03*
D15*
X245721989Y-264408822D03*
%TD*%
D14*
%TO.C,MX66*%
X191146019Y-258975408D03*
D13*
X186159353Y-258006098D03*
D14*
X181172687Y-257036788D03*
D15*
X182904008Y-254785783D03*
D16*
X179419232Y-254108411D03*
X193106772Y-254181459D03*
D15*
X189621996Y-253504087D03*
%TD*%
D19*
%TO.C,D55*%
X217070793Y-249533398D03*
X219806617Y-247688062D03*
%TD*%
D18*
%TO.C,D83*%
X353494926Y-276425078D03*
X355340262Y-273689254D03*
%TD*%
D22*
%TO.C,C11*%
X266880069Y-296553211D03*
X267558891Y-297232033D03*
%TD*%
D18*
%TO.C,D43*%
X335577693Y-221688176D03*
X337423029Y-218952352D03*
%TD*%
%TO.C,D70*%
X282072522Y-270901634D03*
X283917858Y-268165810D03*
%TD*%
D23*
%TO.C,R5*%
X250709999Y-298123146D03*
X249690001Y-298123146D03*
%TD*%
D18*
%TO.C,D42*%
X316877695Y-225323087D03*
X318723031Y-222587263D03*
%TD*%
D14*
%TO.C,MX84*%
X378447515Y-266649508D03*
D13*
X373460849Y-267618818D03*
D14*
X368474183Y-268588128D03*
D15*
X369236195Y-265852467D03*
D21*
X365751418Y-266529839D03*
X378469649Y-261470125D03*
D15*
X374984872Y-262147497D03*
%TD*%
D14*
%TO.C,MX58*%
X310402700Y-241062974D03*
D13*
X305416034Y-242032284D03*
D14*
X300429368Y-243001594D03*
D15*
X301191380Y-240265933D03*
D21*
X297706603Y-240943305D03*
X310424834Y-235883591D03*
D15*
X306940057Y-236560963D03*
%TD*%
D18*
%TO.C,D60*%
X343887603Y-239479446D03*
X345732939Y-236743622D03*
%TD*%
D14*
%TO.C,MX64*%
X142058524Y-249433766D03*
D13*
X137071858Y-248464456D03*
D14*
X132085192Y-247495146D03*
D15*
X133816513Y-245244141D03*
D16*
X130331737Y-244566769D03*
X144019277Y-244639817D03*
D15*
X140534501Y-243962445D03*
%TD*%
D14*
%TO.C,MX78*%
X129073614Y-266316308D03*
D13*
X124086948Y-265346998D03*
D14*
X119100282Y-264377688D03*
D15*
X120831603Y-262126683D03*
D16*
X117346827Y-261449311D03*
X131034367Y-261522359D03*
D15*
X127549591Y-260844987D03*
%TD*%
D14*
%TO.C,MX73*%
X342087608Y-254310605D03*
D13*
X337100942Y-255279915D03*
D14*
X332114276Y-256249225D03*
D15*
X332876288Y-253513564D03*
D21*
X329391511Y-254190936D03*
X342109742Y-249131222D03*
D15*
X338624965Y-249808594D03*
%TD*%
D24*
%TO.C,U4*%
X253994479Y-300797622D03*
X253994479Y-299527622D03*
X253994479Y-298257622D03*
X253994479Y-296987622D03*
X261194479Y-296987622D03*
X261194479Y-298257622D03*
X261194479Y-299527622D03*
X261194479Y-300797622D03*
%TD*%
D18*
%TO.C,D26*%
X322592782Y-204805634D03*
X324438118Y-202069810D03*
%TD*%
D14*
%TO.C,MX61*%
X366502693Y-230158240D03*
D13*
X361516027Y-231127550D03*
D14*
X356529361Y-232096860D03*
D15*
X357291373Y-229361199D03*
D21*
X353806596Y-230038571D03*
X366524827Y-224978857D03*
D15*
X363040050Y-225656229D03*
%TD*%
D18*
%TO.C,D11*%
X373240409Y-165850903D03*
X375085745Y-163115079D03*
%TD*%
D25*
%TO.C,C9*%
X271664480Y-292267622D03*
X272624480Y-292267622D03*
%TD*%
D14*
%TO.C,MX63*%
X415590188Y-220616598D03*
D13*
X410603522Y-221585908D03*
D14*
X405616856Y-222555218D03*
D15*
X406378868Y-219819557D03*
D21*
X402894091Y-220496929D03*
X415612322Y-215437215D03*
D15*
X412127545Y-216114587D03*
%TD*%
D26*
%TO.C,R7*%
X272134482Y-299242622D03*
X273154480Y-299242622D03*
%TD*%
D18*
%TO.C,D40*%
X279477699Y-232592910D03*
X281323035Y-229857086D03*
%TD*%
D25*
%TO.C,C13*%
X275529740Y-287600615D03*
X276489740Y-287600615D03*
%TD*%
D14*
%TO.C,MX89*%
X488297648Y-255956553D03*
D13*
X483217648Y-255956553D03*
D14*
X478137648Y-255956553D03*
D15*
X479407648Y-253416553D03*
D27*
X475857648Y-253416553D03*
X489307648Y-250876553D03*
D15*
X485757648Y-250876553D03*
%TD*%
D14*
%TO.C,MX22*%
X234775749Y-209236510D03*
D13*
X229789083Y-208267200D03*
D14*
X224802417Y-207297890D03*
D15*
X226533738Y-205046885D03*
D16*
X223048962Y-204369513D03*
X236736502Y-204442561D03*
D15*
X233251726Y-203765189D03*
%TD*%
D14*
%TO.C,MX44*%
X358192782Y-212366970D03*
D13*
X353206116Y-213336280D03*
D14*
X348219450Y-214305590D03*
D15*
X348981462Y-211569929D03*
D21*
X345496685Y-212247301D03*
X358214916Y-207187587D03*
D15*
X354730139Y-207864959D03*
%TD*%
D14*
%TO.C,MX67*%
X209846016Y-262610320D03*
D13*
X204859350Y-261641010D03*
D14*
X199872684Y-260671700D03*
D15*
X201604005Y-258420695D03*
D16*
X198119229Y-257743323D03*
X211806769Y-257816371D03*
D15*
X208321993Y-257138999D03*
%TD*%
D18*
%TO.C,D44*%
X354277690Y-218053265D03*
X356123026Y-215317441D03*
%TD*%
D28*
%TO.C,C16*%
X267244480Y-282497623D03*
X267244480Y-281537623D03*
%TD*%
D19*
%TO.C,D66*%
X185385885Y-262781029D03*
X188121709Y-260935693D03*
%TD*%
%TO.C,D78*%
X123313480Y-270121929D03*
X126049304Y-268276593D03*
%TD*%
D17*
%TO.C,D32*%
X483369491Y-184591339D03*
X485702943Y-182257887D03*
%TD*%
D14*
%TO.C,MX74*%
X360787606Y-250675694D03*
D13*
X355800940Y-251645004D03*
D14*
X350814274Y-252614314D03*
D15*
X351576286Y-249878653D03*
D21*
X348091509Y-250556025D03*
X360809740Y-245496311D03*
D15*
X357324963Y-246173683D03*
%TD*%
D18*
%TO.C,D72*%
X319472518Y-263631811D03*
X321317854Y-260895987D03*
%TD*%
%TO.C,D61*%
X362587601Y-235844535D03*
X364432937Y-233108711D03*
%TD*%
%TO.C,D57*%
X287787610Y-250384180D03*
X289632946Y-247648356D03*
%TD*%
D26*
%TO.C,R3*%
X249690001Y-299723146D03*
X250709999Y-299723146D03*
%TD*%
D19*
%TO.C,D23*%
X247715613Y-216677041D03*
X250451437Y-214831705D03*
%TD*%
%TO.C,D54*%
X198370795Y-245898487D03*
X201106619Y-244053151D03*
%TD*%
D14*
%TO.C,MX36*%
X184390843Y-218849229D03*
D13*
X179404177Y-217879919D03*
D14*
X174417511Y-216910609D03*
D15*
X176148832Y-214659604D03*
D16*
X172664056Y-213982232D03*
X186351596Y-214055280D03*
D15*
X182866820Y-213377908D03*
%TD*%
D14*
%TO.C,MX39*%
X240490836Y-229753963D03*
D13*
X235504170Y-228784653D03*
D14*
X230517504Y-227815343D03*
D15*
X232248825Y-225564338D03*
D16*
X228764049Y-224886966D03*
X242451589Y-224960014D03*
D15*
X238966813Y-224282642D03*
%TD*%
D14*
%TO.C,MX88*%
X469247648Y-255956553D03*
D13*
X464167648Y-255956553D03*
D14*
X459087648Y-255956553D03*
D15*
X460357648Y-253416553D03*
D27*
X456807648Y-253416553D03*
X470257648Y-250876553D03*
D15*
X466707648Y-250876553D03*
%TD*%
D18*
%TO.C,D76*%
X410635007Y-245911618D03*
X412480343Y-243175794D03*
%TD*%
D19*
%TO.C,D36*%
X178630709Y-222654850D03*
X181366533Y-220809514D03*
%TD*%
D14*
%TO.C,MX19*%
X178675755Y-198331776D03*
D13*
X173689089Y-197362466D03*
D14*
X168702423Y-196393156D03*
D15*
X170433744Y-194142151D03*
D16*
X166948968Y-193464779D03*
X180636508Y-193537827D03*
D15*
X177151732Y-192860455D03*
%TD*%
D17*
%TO.C,D31*%
X464319491Y-184591339D03*
X466652943Y-182257887D03*
%TD*%
D19*
%TO.C,D17*%
X135515626Y-194867573D03*
X138251450Y-193022237D03*
%TD*%
D18*
%TO.C,D12*%
X391940407Y-162215992D03*
X393785743Y-159480168D03*
%TD*%
D14*
%TO.C,MX3*%
X198153121Y-173007963D03*
D13*
X193166455Y-172038653D03*
D14*
X188179789Y-171069343D03*
D15*
X189911110Y-168818338D03*
D16*
X186426334Y-168140966D03*
X200113874Y-168214014D03*
D15*
X196629098Y-167536642D03*
%TD*%
D14*
%TO.C,MX71*%
X304687612Y-261580428D03*
D13*
X299700946Y-262549738D03*
D14*
X294714280Y-263519048D03*
D15*
X295476292Y-260783387D03*
D21*
X291991515Y-261460759D03*
X304709746Y-256401045D03*
D15*
X301224969Y-257078417D03*
%TD*%
D29*
%TO.C,R4*%
X272069480Y-283952620D03*
X272069480Y-282932622D03*
%TD*%
D14*
%TO.C,MX27*%
X345207872Y-195484428D03*
D13*
X340221206Y-196453738D03*
D14*
X335234540Y-197423048D03*
D15*
X335996552Y-194687387D03*
D21*
X332511775Y-195364759D03*
X345230006Y-190305045D03*
D15*
X341745229Y-190982417D03*
%TD*%
D14*
%TO.C,MX5*%
X235553116Y-180277785D03*
D13*
X230566450Y-179308475D03*
D14*
X225579784Y-178339165D03*
D15*
X227311105Y-176088160D03*
D16*
X223826329Y-175410788D03*
X237513869Y-175483836D03*
D15*
X234029093Y-174806464D03*
%TD*%
D14*
%TO.C,MX76*%
X414550099Y-240225323D03*
D13*
X409563433Y-241194633D03*
D14*
X404576767Y-242163943D03*
D15*
X405338779Y-239428282D03*
D21*
X401854002Y-240105654D03*
X414572233Y-235045940D03*
D15*
X411087456Y-235723312D03*
%TD*%
D14*
%TO.C,MX9*%
X330405506Y-169251887D03*
D13*
X325418840Y-170221197D03*
D14*
X320432174Y-171190507D03*
D15*
X321194186Y-168454846D03*
D21*
X317709409Y-169132218D03*
X330427640Y-164072504D03*
D15*
X326942863Y-164749876D03*
%TD*%
D14*
%TO.C,MX13*%
X414555496Y-152894786D03*
D13*
X409568830Y-153864096D03*
D14*
X404582164Y-154833406D03*
D15*
X405344176Y-152097745D03*
D21*
X401859399Y-152775117D03*
X414577630Y-147715403D03*
D15*
X411092853Y-148392775D03*
%TD*%
D18*
%TO.C,D74*%
X356872514Y-256361988D03*
X358717850Y-253626164D03*
%TD*%
D14*
%TO.C,MX21*%
X216075751Y-205601598D03*
D13*
X211089085Y-204632288D03*
D14*
X206102419Y-203662978D03*
D15*
X207833740Y-201411973D03*
D16*
X204348964Y-200734601D03*
X218036504Y-200807649D03*
D15*
X214551728Y-200130277D03*
%TD*%
D14*
%TO.C,MX33*%
X507347648Y-179756553D03*
D13*
X502267648Y-179756553D03*
D14*
X497187648Y-179756553D03*
D15*
X498457648Y-177216553D03*
D27*
X494907648Y-177216553D03*
X508357648Y-174676553D03*
D15*
X504807648Y-174676553D03*
%TD*%
D28*
%TO.C,C2*%
X433409740Y-164376311D03*
X433409740Y-163416311D03*
%TD*%
D18*
%TO.C,D59*%
X325187606Y-243114357D03*
X327032942Y-240378533D03*
%TD*%
D14*
%TO.C,MX26*%
X326507874Y-199119339D03*
D13*
X321521208Y-200088649D03*
D14*
X316534542Y-201057959D03*
D15*
X317296554Y-198322298D03*
D21*
X313811777Y-198999670D03*
X326530008Y-193939956D03*
D15*
X323045231Y-194617328D03*
%TD*%
D14*
%TO.C,MX12*%
X395855499Y-156529697D03*
D13*
X390868833Y-157499007D03*
D14*
X385882167Y-158468317D03*
D15*
X386644179Y-155732656D03*
D21*
X383159402Y-156410028D03*
X395877633Y-151350314D03*
D15*
X392392856Y-152027686D03*
%TD*%
D19*
%TO.C,D38*%
X216030705Y-229924672D03*
X218766529Y-228079336D03*
%TD*%
D14*
%TO.C,MX16*%
X507347648Y-151181553D03*
D13*
X502267648Y-151181553D03*
D14*
X497187648Y-151181553D03*
D15*
X498457648Y-148641553D03*
D27*
X494907648Y-148641553D03*
X508357648Y-146101553D03*
D15*
X504807648Y-146101553D03*
%TD*%
D14*
%TO.C,MX34*%
X142315848Y-210670679D03*
D13*
X137329182Y-209701369D03*
D14*
X132342516Y-208732059D03*
D15*
X134073837Y-206481054D03*
D16*
X130589061Y-205803682D03*
X144276601Y-205876730D03*
D15*
X140791825Y-205199358D03*
%TD*%
D19*
%TO.C,D53*%
X179670797Y-242263575D03*
X182406621Y-240418239D03*
%TD*%
%TO.C,D56*%
X235770791Y-253168309D03*
X238506615Y-251322973D03*
%TD*%
D23*
%TO.C,R8*%
X273154480Y-297655122D03*
X272134482Y-297655122D03*
%TD*%
D14*
%TO.C,MX40*%
X283392791Y-226906616D03*
D13*
X278406125Y-227875926D03*
D14*
X273419459Y-228845236D03*
D15*
X274181471Y-226109575D03*
D21*
X270696694Y-226786947D03*
X283414925Y-221727233D03*
D15*
X279930148Y-222404605D03*
%TD*%
D14*
%TO.C,MX82*%
X317672522Y-278462970D03*
D13*
X312685856Y-279432280D03*
D14*
X307699190Y-280401590D03*
D15*
X308461202Y-277665929D03*
D21*
X304976425Y-278343301D03*
X317694656Y-273283587D03*
D15*
X314209879Y-273960959D03*
%TD*%
D19*
%TO.C,D2*%
X173692989Y-173178671D03*
X176428813Y-171333335D03*
%TD*%
%TO.C,D22*%
X229015615Y-213042130D03*
X231751439Y-211196794D03*
%TD*%
D18*
%TO.C,D29*%
X378692776Y-193900900D03*
X380538112Y-191165076D03*
%TD*%
D14*
%TO.C,MX43*%
X339492785Y-216001881D03*
D13*
X334506119Y-216971191D03*
D14*
X329519453Y-217940501D03*
D15*
X330281465Y-215204840D03*
D21*
X326796688Y-215882212D03*
X339514919Y-210822498D03*
D15*
X336030142Y-211499870D03*
%TD*%
D19*
%TO.C,D67*%
X204085883Y-266415940D03*
X206821707Y-264570604D03*
%TD*%
D14*
%TO.C,MX30*%
X410657865Y-182762238D03*
D13*
X405671199Y-183731548D03*
D14*
X400684533Y-184700858D03*
D15*
X401446545Y-181965197D03*
D21*
X397961768Y-182642569D03*
X410679999Y-177582855D03*
D15*
X407195222Y-178260227D03*
%TD*%
D20*
%TO.C,C14*%
X269719479Y-294437622D03*
X269719479Y-295397622D03*
%TD*%
D18*
%TO.C,D47*%
X415052683Y-206239803D03*
X416898019Y-203503979D03*
%TD*%
D14*
%TO.C,MX7*%
X293005510Y-176521710D03*
D13*
X288018844Y-177491020D03*
D14*
X283032178Y-178460330D03*
D15*
X283794190Y-175724669D03*
D21*
X280309413Y-176402041D03*
X293027644Y-171342327D03*
D15*
X289542867Y-172019699D03*
%TD*%
D17*
%TO.C,D50*%
X502419491Y-203641339D03*
X504752943Y-201307887D03*
%TD*%
D18*
%TO.C,D45*%
X372977688Y-214418353D03*
X374823024Y-211682529D03*
%TD*%
D14*
%TO.C,MX68*%
X228546014Y-266245231D03*
D13*
X223559348Y-265275921D03*
D14*
X218572682Y-264306611D03*
D15*
X220304003Y-262055606D03*
D16*
X216819227Y-261378234D03*
X230506767Y-261451282D03*
D15*
X227021991Y-260773910D03*
%TD*%
D14*
%TO.C,MX17*%
X141275760Y-191061953D03*
D13*
X136289094Y-190092643D03*
D14*
X131302428Y-189123333D03*
D15*
X133033749Y-186872328D03*
D16*
X129548973Y-186194956D03*
X143236513Y-186268004D03*
D15*
X139751737Y-185590632D03*
%TD*%
D18*
%TO.C,D46*%
X391677686Y-210783442D03*
X393523022Y-208047618D03*
%TD*%
D19*
%TO.C,D51*%
X135258302Y-233630661D03*
X137994126Y-231785325D03*
%TD*%
%TO.C,D52*%
X160970799Y-238628664D03*
X163706623Y-236783328D03*
%TD*%
%TO.C,D65*%
X166685887Y-259146117D03*
X169421711Y-257300781D03*
%TD*%
D14*
%TO.C,MX35*%
X165690845Y-215214318D03*
D13*
X160704179Y-214245008D03*
D14*
X155717513Y-213275698D03*
D15*
X157448834Y-211024693D03*
D16*
X153964058Y-210347321D03*
X167651598Y-210420369D03*
D15*
X164166822Y-209742997D03*
%TD*%
D14*
%TO.C,MX4*%
X216853119Y-176642874D03*
D13*
X211866453Y-175673564D03*
D14*
X206879787Y-174704254D03*
D15*
X208611108Y-172453249D03*
D16*
X205126332Y-171775877D03*
X218813872Y-171848925D03*
D15*
X215329096Y-171171553D03*
%TD*%
D14*
%TO.C,MX8*%
X311705508Y-172886798D03*
D13*
X306718842Y-173856108D03*
D14*
X301732176Y-174825418D03*
D15*
X302494188Y-172089757D03*
D21*
X299009411Y-172767129D03*
X311727642Y-167707415D03*
D15*
X308242865Y-168384787D03*
%TD*%
D19*
%TO.C,D19*%
X172915622Y-202137396D03*
X175651446Y-200292060D03*
%TD*%
D18*
%TO.C,D84*%
X374532423Y-272335803D03*
X376377759Y-269599979D03*
%TD*%
D14*
%TO.C,MX1*%
X146728127Y-163011956D03*
D13*
X141741461Y-162042646D03*
D14*
X136754795Y-161073336D03*
D15*
X138486116Y-158822331D03*
D16*
X135001340Y-158144959D03*
X148688880Y-158218007D03*
D15*
X145204104Y-157540635D03*
%TD*%
D25*
%TO.C,C1*%
X429568107Y-159980390D03*
X430528107Y-159980390D03*
%TD*%
D14*
%TO.C,MX49*%
X488297648Y-198806553D03*
D13*
X483217648Y-198806553D03*
D14*
X478137648Y-198806553D03*
D15*
X479407648Y-196266553D03*
D27*
X475857648Y-196266553D03*
X489307648Y-193726553D03*
D15*
X485757648Y-193726553D03*
%TD*%
D30*
%TO.C,J3*%
X266007036Y-276600614D03*
X268547036Y-276600614D03*
X271087037Y-276600614D03*
X273627036Y-276600614D03*
D31*
X276167036Y-276600614D03*
%TD*%
D14*
%TO.C,MX83*%
X357410018Y-270738783D03*
D13*
X352423352Y-271708093D03*
D14*
X347436686Y-272677403D03*
D15*
X348198698Y-269941742D03*
D21*
X344713921Y-270619114D03*
X357432152Y-265559400D03*
D15*
X353947375Y-266236772D03*
%TD*%
D14*
%TO.C,MX48*%
X469247648Y-198806553D03*
D13*
X464167648Y-198806553D03*
D14*
X459087648Y-198806553D03*
D15*
X460357648Y-196266553D03*
D27*
X456807648Y-196266553D03*
X470257648Y-193726553D03*
D15*
X466707648Y-193726553D03*
%TD*%
D32*
%TO.C,C12*%
X260339740Y-287592622D03*
X259379740Y-287592622D03*
%TD*%
D14*
%TO.C,MX62*%
X385202691Y-226523329D03*
D13*
X380216025Y-227492639D03*
D14*
X375229359Y-228461949D03*
D15*
X375991371Y-225726288D03*
D21*
X372506594Y-226403660D03*
X385224825Y-221343946D03*
D15*
X381740048Y-222021318D03*
%TD*%
D19*
%TO.C,D35*%
X159930711Y-219019938D03*
X162666535Y-217174602D03*
%TD*%
D14*
%TO.C,MX75*%
X379487603Y-247040782D03*
D13*
X374500937Y-248010092D03*
D14*
X369514271Y-248979402D03*
D15*
X370276283Y-246243741D03*
D21*
X366791506Y-246921113D03*
X379509737Y-241861399D03*
D15*
X376024960Y-242538771D03*
%TD*%
D14*
%TO.C,MX25*%
X307807876Y-202754251D03*
D13*
X302821210Y-203723561D03*
D14*
X297834544Y-204692871D03*
D15*
X298596556Y-201957210D03*
D21*
X295111779Y-202634582D03*
X307830010Y-197574868D03*
D15*
X304345233Y-198252240D03*
%TD*%
D33*
%TO.C,C7*%
X259040793Y-278884779D03*
X259719615Y-278205957D03*
%TD*%
D22*
%TO.C,C4*%
X265730069Y-297703211D03*
X266408891Y-298382033D03*
%TD*%
D19*
%TO.C,D80*%
X170063475Y-279209207D03*
X172799299Y-277363871D03*
%TD*%
D18*
%TO.C,D30*%
X406742773Y-188448533D03*
X408588109Y-185712709D03*
%TD*%
%TO.C,D87*%
X430632417Y-261431068D03*
X432477753Y-258695244D03*
%TD*%
D17*
%TO.C,D15*%
X483369491Y-156016339D03*
X485702943Y-153682887D03*
%TD*%
D14*
%TO.C,MX32*%
X488297648Y-179756553D03*
D13*
X483217648Y-179756553D03*
D14*
X478137648Y-179756553D03*
D15*
X479407648Y-177216553D03*
D27*
X475857648Y-177216553D03*
X489307648Y-174676553D03*
D15*
X485757648Y-174676553D03*
%TD*%
D14*
%TO.C,MX15*%
X488297648Y-151181553D03*
D13*
X483217648Y-151181553D03*
D14*
X478137648Y-151181553D03*
D15*
X479407648Y-148641553D03*
D27*
X475857648Y-148641553D03*
X489307648Y-146101553D03*
D15*
X485757648Y-146101553D03*
%TD*%
D18*
%TO.C,D10*%
X354540411Y-169485814D03*
X356385747Y-166749990D03*
%TD*%
%TO.C,D8*%
X307790416Y-178573093D03*
X309635752Y-175837269D03*
%TD*%
D14*
%TO.C,MX41*%
X302092789Y-223271704D03*
D13*
X297106123Y-224241014D03*
D14*
X292119457Y-225210324D03*
D15*
X292881469Y-222474663D03*
D21*
X289396692Y-223152035D03*
X302114923Y-218092321D03*
D15*
X298630146Y-218769693D03*
%TD*%
D14*
%TO.C,MX86*%
X415847511Y-259379685D03*
D13*
X410860845Y-260348995D03*
D14*
X405874179Y-261318305D03*
D15*
X406636191Y-258582644D03*
D21*
X403151414Y-259260016D03*
X415869645Y-254200302D03*
D15*
X412384868Y-254877674D03*
%TD*%
D14*
%TO.C,MX60*%
X347802695Y-233793151D03*
D13*
X342816029Y-234762461D03*
D14*
X337829363Y-235731771D03*
D15*
X338591375Y-232996110D03*
D21*
X335106598Y-233673482D03*
X347824829Y-228613768D03*
D15*
X344340052Y-229291140D03*
%TD*%
D18*
%TO.C,D58*%
X306487608Y-246749269D03*
X308332944Y-244013445D03*
%TD*%
%TO.C,D27*%
X341292780Y-201170722D03*
X343138116Y-198434898D03*
%TD*%
D19*
%TO.C,D21*%
X210315617Y-209407219D03*
X213051441Y-207561883D03*
%TD*%
D18*
%TO.C,D85*%
X393232421Y-268700891D03*
X395077757Y-265965067D03*
%TD*%
D26*
%TO.C,R6*%
X249690001Y-296649999D03*
X250709999Y-296649999D03*
%TD*%
D18*
%TO.C,D75*%
X375572512Y-252727077D03*
X377417848Y-249991253D03*
%TD*%
D14*
%TO.C,MX10*%
X358455503Y-163799520D03*
D13*
X353468837Y-164768830D03*
D14*
X348482171Y-165738140D03*
D15*
X349244183Y-163002479D03*
D21*
X345759406Y-163679851D03*
X358477637Y-158620137D03*
D15*
X354992860Y-159297509D03*
%TD*%
D18*
%TO.C,D13*%
X410640404Y-158581080D03*
X412485740Y-155845256D03*
%TD*%
%TO.C,D73*%
X338172516Y-259996900D03*
X340017852Y-257261076D03*
%TD*%
%TO.C,D6*%
X270390421Y-185842915D03*
X272235757Y-183107091D03*
%TD*%
D14*
%TO.C,MX81*%
X213223604Y-282673409D03*
D13*
X208236938Y-281704099D03*
D14*
X203250272Y-280734789D03*
D15*
X204981593Y-278483784D03*
D16*
X201496817Y-277806412D03*
X215184357Y-277879460D03*
D15*
X211699581Y-277202088D03*
%TD*%
D20*
%TO.C,C10*%
X261219481Y-293106571D03*
X261219481Y-294066571D03*
%TD*%
D17*
%TO.C,D77*%
X483369491Y-241741339D03*
X485702943Y-239407887D03*
%TD*%
D14*
%TO.C,MX65*%
X172446021Y-255340497D03*
D13*
X167459355Y-254371187D03*
D14*
X162472689Y-253401877D03*
D15*
X164204010Y-251150872D03*
D16*
X160719234Y-250473500D03*
X174406774Y-250546548D03*
D15*
X170921998Y-249869176D03*
%TD*%
D34*
%TO.C,BOOT1*%
X240859740Y-300496311D03*
X247159738Y-300496311D03*
X240859740Y-296696311D03*
X247159738Y-296696311D03*
%TD*%
D18*
%TO.C,D82*%
X313757430Y-284149264D03*
X315602766Y-281413440D03*
%TD*%
D14*
%TO.C,MX14*%
X469247648Y-151181553D03*
D13*
X464167648Y-151181553D03*
D14*
X459087648Y-151181553D03*
D15*
X460357648Y-148641553D03*
D27*
X456807648Y-148641553D03*
X470257648Y-146101553D03*
D15*
X466707648Y-146101553D03*
%TD*%
D18*
%TO.C,D86*%
X411932419Y-265065980D03*
X413777755Y-262330156D03*
%TD*%
D14*
%TO.C,MX38*%
X221790839Y-226119052D03*
D13*
X216804173Y-225149742D03*
D14*
X211817507Y-224180432D03*
D15*
X213548828Y-221929427D03*
D16*
X210064052Y-221252055D03*
X223751592Y-221325103D03*
D15*
X220266816Y-220647731D03*
%TD*%
D14*
%TO.C,MX46*%
X395592778Y-205097147D03*
D13*
X390606112Y-206066457D03*
D14*
X385619446Y-207035767D03*
D15*
X386381458Y-204300106D03*
D21*
X382896681Y-204977478D03*
X395614912Y-199917764D03*
D15*
X392130135Y-200595136D03*
%TD*%
D18*
%TO.C,D62*%
X381287599Y-232209623D03*
X383132935Y-229473799D03*
%TD*%
D14*
%TO.C,MX53*%
X185430931Y-238457955D03*
D13*
X180444265Y-237488645D03*
D14*
X175457599Y-236519335D03*
D15*
X177188920Y-234268330D03*
D16*
X173704144Y-233590958D03*
X187391684Y-233664006D03*
D15*
X183906908Y-232986634D03*
%TD*%
D14*
%TO.C,MX29*%
X382607868Y-188214605D03*
D13*
X377621202Y-189183915D03*
D14*
X372634536Y-190153225D03*
D15*
X373396548Y-187417564D03*
D21*
X369911771Y-188094936D03*
X382630002Y-183035222D03*
D15*
X379145225Y-183712594D03*
%TD*%
D17*
%TO.C,D16*%
X502419491Y-156016339D03*
X504752943Y-153682887D03*
%TD*%
D14*
%TO.C,MX23*%
X253475747Y-212871421D03*
D13*
X248489081Y-211902111D03*
D14*
X243502415Y-210932801D03*
D15*
X245233736Y-208681796D03*
D16*
X241748960Y-208004424D03*
X255436500Y-208077472D03*
D15*
X251951724Y-207400100D03*
%TD*%
D35*
%TO.C,Y1*%
X261117704Y-279188764D03*
X262673339Y-280744399D03*
X261471258Y-281946480D03*
X259915623Y-280390845D03*
%TD*%
D14*
%TO.C,MX31*%
X469247648Y-179756553D03*
D13*
X464167648Y-179756553D03*
D14*
X459087648Y-179756553D03*
D15*
X460357648Y-177216553D03*
D27*
X456807648Y-177216553D03*
X470257648Y-174676553D03*
D15*
X466707648Y-174676553D03*
%TD*%
D18*
%TO.C,D28*%
X359992778Y-197535811D03*
X361838114Y-194799987D03*
%TD*%
%TO.C,D24*%
X285192787Y-212075457D03*
X287038123Y-209339633D03*
%TD*%
D14*
%TO.C,MX37*%
X203090841Y-222484141D03*
D13*
X198104175Y-221514831D03*
D14*
X193117509Y-220545521D03*
D15*
X194848830Y-218294516D03*
D16*
X191364054Y-217617144D03*
X205051594Y-217690192D03*
D15*
X201566818Y-217012820D03*
%TD*%
D14*
%TO.C,MX42*%
X320792787Y-219636793D03*
D13*
X315806121Y-220606103D03*
D14*
X310819455Y-221575413D03*
D15*
X311581467Y-218839752D03*
D21*
X308096690Y-219517124D03*
X320814921Y-214457410D03*
D15*
X317330144Y-215134782D03*
%TD*%
D14*
%TO.C,MX90*%
X507347648Y-255956553D03*
D13*
X502267648Y-255956553D03*
D14*
X497187648Y-255956553D03*
D15*
X498457648Y-253416553D03*
D27*
X494907648Y-253416553D03*
X508357648Y-250876553D03*
D15*
X504807648Y-250876553D03*
%TD*%
D22*
%TO.C,C5*%
X264930069Y-298503211D03*
X265608891Y-299182033D03*
%TD*%
D14*
%TO.C,MX45*%
X376892780Y-208732059D03*
D13*
X371906114Y-209701369D03*
D14*
X366919448Y-210670679D03*
D15*
X367681460Y-207935018D03*
D21*
X364196683Y-208612390D03*
X376914914Y-203552676D03*
D15*
X373430137Y-204230048D03*
%TD*%
D19*
%TO.C,D37*%
X197330707Y-226289761D03*
X200066531Y-224444425D03*
%TD*%
D18*
%TO.C,D63*%
X411675096Y-226302892D03*
X413520432Y-223567068D03*
%TD*%
D17*
%TO.C,D14*%
X464319491Y-156016339D03*
X466652943Y-153682887D03*
%TD*%
D19*
%TO.C,D1*%
X140967993Y-166817576D03*
X143703817Y-164972240D03*
%TD*%
D36*
%TO.C,U2*%
X262572240Y-291196311D03*
X262572240Y-290796310D03*
X262572240Y-290396311D03*
X262572240Y-289996311D03*
X262572240Y-289596311D03*
X262572240Y-289196312D03*
X262572240Y-288796311D03*
X262572240Y-288396311D03*
X262572240Y-287996310D03*
X262572240Y-287596311D03*
X262572240Y-287196311D03*
X262572240Y-286796311D03*
X262572240Y-286396312D03*
X262572240Y-285996311D03*
D37*
X263409740Y-285158811D03*
X263809741Y-285158811D03*
X264209740Y-285158811D03*
X264609740Y-285158811D03*
X265009740Y-285158811D03*
X265409739Y-285158811D03*
X265809740Y-285158811D03*
X266209740Y-285158811D03*
X266609741Y-285158811D03*
X267009740Y-285158811D03*
X267409740Y-285158811D03*
X267809740Y-285158811D03*
X268209739Y-285158811D03*
X268609740Y-285158811D03*
D36*
X269447240Y-285996311D03*
X269447240Y-286396312D03*
X269447240Y-286796311D03*
X269447240Y-287196311D03*
X269447240Y-287596311D03*
X269447240Y-287996310D03*
X269447240Y-288396311D03*
X269447240Y-288796311D03*
X269447240Y-289196312D03*
X269447240Y-289596311D03*
X269447240Y-289996311D03*
X269447240Y-290396311D03*
X269447240Y-290796310D03*
X269447240Y-291196311D03*
D37*
X268609740Y-292033811D03*
X268209739Y-292033811D03*
X267809740Y-292033811D03*
X267409740Y-292033811D03*
X267009740Y-292033811D03*
X266609741Y-292033811D03*
X266209740Y-292033811D03*
X265809740Y-292033811D03*
X265409739Y-292033811D03*
X265009740Y-292033811D03*
X264609740Y-292033811D03*
X264209740Y-292033811D03*
X263809741Y-292033811D03*
X263409740Y-292033811D03*
D38*
X266009740Y-288596311D03*
%TD*%
D14*
%TO.C,MX20*%
X197375753Y-201966687D03*
D13*
X192389087Y-200997377D03*
D14*
X187402421Y-200028067D03*
D15*
X189133742Y-197777062D03*
D16*
X185648966Y-197099690D03*
X199336506Y-197172738D03*
D15*
X195851730Y-196495366D03*
%TD*%
D17*
%TO.C,D49*%
X483369491Y-203641339D03*
X485702943Y-201307887D03*
%TD*%
D14*
%TO.C,MX85*%
X397147513Y-263014597D03*
D13*
X392160847Y-263983907D03*
D14*
X387174181Y-264953217D03*
D15*
X387936193Y-262217556D03*
D21*
X384451416Y-262894928D03*
X397169647Y-257835214D03*
D15*
X393684870Y-258512586D03*
%TD*%
D19*
%TO.C,D4*%
X211092985Y-180448494D03*
X213828809Y-178603158D03*
%TD*%
D18*
%TO.C,D41*%
X298177697Y-228957999D03*
X300023033Y-226222175D03*
%TD*%
D39*
%TO.C,C8*%
X274844480Y-295667623D03*
X276394480Y-295667623D03*
%TD*%
D19*
%TO.C,D69*%
X241485878Y-273685763D03*
X244221702Y-271840427D03*
%TD*%
D17*
%TO.C,D90*%
X502419491Y-260791339D03*
X504752943Y-258457887D03*
%TD*%
D19*
%TO.C,D3*%
X192392987Y-176813583D03*
X195128811Y-174968247D03*
%TD*%
D14*
%TO.C,MX50*%
X507347648Y-198806553D03*
D13*
X502267648Y-198806553D03*
D14*
X497187648Y-198806553D03*
D15*
X498457648Y-196266553D03*
D27*
X494907648Y-196266553D03*
X508357648Y-193726553D03*
D15*
X504807648Y-193726553D03*
%TD*%
D14*
%TO.C,MX54*%
X204130929Y-242092866D03*
D13*
X199144263Y-241123556D03*
D14*
X194157597Y-240154246D03*
D15*
X195888918Y-237903241D03*
D16*
X192404142Y-237225869D03*
X206091682Y-237298917D03*
D15*
X202606906Y-236621545D03*
%TD*%
D19*
%TO.C,D68*%
X222785881Y-270050851D03*
X225521705Y-268205515D03*
%TD*%
D14*
%TO.C,MX11*%
X377155501Y-160164608D03*
D13*
X372168835Y-161133918D03*
D14*
X367182169Y-162103228D03*
D15*
X367944181Y-159367567D03*
D21*
X364459404Y-160044939D03*
X377177635Y-154985225D03*
D15*
X373692858Y-155662597D03*
%TD*%
D14*
%TO.C,MX80*%
X175823609Y-275403587D03*
D13*
X170836943Y-274434277D03*
D14*
X165850277Y-273464967D03*
D15*
X167581598Y-271213962D03*
D16*
X164096822Y-270536590D03*
X177784362Y-270609638D03*
D15*
X174299586Y-269932266D03*
%TD*%
D14*
%TO.C,MX28*%
X363907870Y-191849517D03*
D13*
X358921204Y-192818827D03*
D14*
X353934538Y-193788137D03*
D15*
X354696550Y-191052476D03*
D21*
X351211773Y-191729848D03*
X363930004Y-186670134D03*
D15*
X360445227Y-187347506D03*
%TD*%
D34*
%TO.C,RST1*%
X240897038Y-292900615D03*
X247197036Y-292900615D03*
X240897038Y-289100615D03*
X247197036Y-289100615D03*
%TD*%
D14*
%TO.C,MX57*%
X291702702Y-244697886D03*
D13*
X286716036Y-245667196D03*
D14*
X281729370Y-246636506D03*
D15*
X282491382Y-243900845D03*
D21*
X279006605Y-244578217D03*
X291724836Y-239518503D03*
D15*
X288240059Y-240195875D03*
%TD*%
D19*
%TO.C,D64*%
X136298391Y-253239386D03*
X139034215Y-251394050D03*
%TD*%
D14*
%TO.C,MX59*%
X329102698Y-237428063D03*
D13*
X324116032Y-238397373D03*
D14*
X319129366Y-239366683D03*
D15*
X319891378Y-236631022D03*
D21*
X316406601Y-237308394D03*
X329124832Y-232248680D03*
D15*
X325640055Y-232926052D03*
%TD*%
D40*
%TO.C,R9*%
X262640791Y-278557883D03*
X263362039Y-279279131D03*
%TD*%
D17*
%TO.C,D48*%
X464319491Y-203641339D03*
X466652943Y-201307887D03*
%TD*%
D14*
%TO.C,MX47*%
X418967775Y-200553508D03*
D13*
X413981109Y-201522818D03*
D14*
X408994443Y-202492128D03*
D15*
X409756455Y-199756467D03*
D21*
X406271678Y-200433839D03*
X418989909Y-195374125D03*
D15*
X415505132Y-196051497D03*
%TD*%
D14*
%TO.C,MX6*%
X274305513Y-180156621D03*
D13*
X269318847Y-181125931D03*
D14*
X264332181Y-182095241D03*
D15*
X265094193Y-179359580D03*
D21*
X261609416Y-180036952D03*
X274327647Y-174977238D03*
D15*
X270842870Y-175654610D03*
%TD*%
D28*
%TO.C,C15*%
X265769480Y-282522621D03*
X265769480Y-281562621D03*
%TD*%
D14*
%TO.C,MX79*%
X152448611Y-270859948D03*
D13*
X147461945Y-269890638D03*
D14*
X142475279Y-268921328D03*
D15*
X144206600Y-266670323D03*
D16*
X140721824Y-265992951D03*
X154409364Y-266065999D03*
D15*
X150924588Y-265388627D03*
%TD*%
D18*
%TO.C,D25*%
X303892784Y-208440545D03*
X305738120Y-205704721D03*
%TD*%
D19*
%TO.C,D34*%
X136555714Y-214476299D03*
X139291538Y-212630963D03*
%TD*%
D17*
%TO.C,D89*%
X483369491Y-260791339D03*
X485702943Y-258457887D03*
%TD*%
D14*
%TO.C,MX56*%
X241530925Y-249362689D03*
D13*
X236544259Y-248393379D03*
D14*
X231557593Y-247424069D03*
D15*
X233288914Y-245173064D03*
D16*
X229804138Y-244495692D03*
X243491678Y-244568740D03*
D15*
X240006902Y-243891368D03*
%TD*%
D19*
%TO.C,D79*%
X146688478Y-274665568D03*
X149424302Y-272820232D03*
%TD*%
D18*
%TO.C,D9*%
X326490414Y-174938181D03*
X328335750Y-172202357D03*
%TD*%
D14*
%TO.C,MX70*%
X285987614Y-265215339D03*
D13*
X281000948Y-266184649D03*
D14*
X276014282Y-267153959D03*
D15*
X276776294Y-264418298D03*
D21*
X273291517Y-265095670D03*
X286009748Y-260035956D03*
D15*
X282524971Y-260713328D03*
%TD*%
D14*
%TO.C,MX77*%
X488297648Y-236906553D03*
D13*
X483217648Y-236906553D03*
D14*
X478137648Y-236906553D03*
D15*
X479407648Y-234366553D03*
D27*
X475857648Y-234366553D03*
X489307648Y-231826553D03*
D15*
X485757648Y-231826553D03*
%TD*%
D14*
%TO.C,MX72*%
X323387610Y-257945516D03*
D13*
X318400944Y-258914826D03*
D14*
X313414278Y-259884136D03*
D15*
X314176290Y-257148475D03*
D21*
X310691513Y-257825847D03*
X323409744Y-252766133D03*
D15*
X319924967Y-253443505D03*
%TD*%
D19*
%TO.C,D81*%
X207463471Y-286479030D03*
X210199295Y-284633694D03*
%TD*%
%TO.C,D20*%
X191615620Y-205772307D03*
X194351444Y-203926971D03*
%TD*%
D18*
%TO.C,D71*%
X300772520Y-267266722D03*
X302617856Y-264530898D03*
%TD*%
D19*
%TO.C,D39*%
X234730703Y-233559584D03*
X237466527Y-231714248D03*
%TD*%
D14*
%TO.C,MX51*%
X141018436Y-229825040D03*
D13*
X136031770Y-228855730D03*
D14*
X131045104Y-227886420D03*
D15*
X132776425Y-225635415D03*
D16*
X129291649Y-224958043D03*
X142979189Y-225031091D03*
D15*
X139494413Y-224353719D03*
%TD*%
D41*
%TO.C,U1*%
X431191006Y-162602275D03*
X431191006Y-164502273D03*
X428916006Y-163552274D03*
%TD*%
D14*
%TO.C,MX87*%
X434547509Y-255744774D03*
D13*
X429560843Y-256714084D03*
D14*
X424574177Y-257683394D03*
D15*
X425336189Y-254947733D03*
D21*
X421851412Y-255625105D03*
X434569643Y-250565391D03*
D15*
X431084866Y-251242763D03*
%TD*%
D19*
%TO.C,D18*%
X154215624Y-198502485D03*
X156951448Y-196657149D03*
%TD*%
D42*
X238947037Y-300500615D03*
X277709740Y-295667622D03*
X258367273Y-287592623D03*
X238947037Y-292900614D03*
X258044480Y-280392623D03*
X272619480Y-293386572D03*
X278009740Y-287600613D03*
X267209740Y-287396311D03*
X437109740Y-155396311D03*
X264809739Y-287396311D03*
X266009760Y-288596301D03*
X432628506Y-159939774D03*
X264847037Y-279400614D03*
X264809740Y-289796311D03*
X267744479Y-299267622D03*
X269394480Y-296317622D03*
X263069480Y-282563638D03*
X256019479Y-296986571D03*
X261219480Y-294986570D03*
X267209741Y-289796311D03*
X266546572Y-299942622D03*
X435509740Y-265296311D03*
X270609740Y-282996311D03*
X437109740Y-245296311D03*
X267694480Y-298367623D03*
X263419479Y-299042622D03*
X268719479Y-293417622D03*
X268294480Y-281567623D03*
X260609740Y-190596311D03*
X252009740Y-274496311D03*
X437609740Y-158496311D03*
X426809740Y-158496311D03*
X431609740Y-192296311D03*
X436409740Y-192296311D03*
X261909740Y-219196311D03*
X253109740Y-274496311D03*
X263209740Y-234896311D03*
X254109740Y-274496311D03*
X442409740Y-206296311D03*
X435209740Y-206296311D03*
X264609740Y-254696311D03*
X280109740Y-275096311D03*
X259809740Y-294996311D03*
X284909740Y-296096311D03*
X215409740Y-293896311D03*
X242859740Y-287146311D03*
X243859740Y-286396311D03*
X244859740Y-285821311D03*
X245859740Y-284896311D03*
X246859745Y-284146306D03*
X280609740Y-280096311D03*
X288209736Y-286096311D03*
X287409740Y-287096311D03*
X286409740Y-288096311D03*
X285609740Y-289096311D03*
X284809740Y-290096311D03*
X284009740Y-291096311D03*
X283209740Y-292096311D03*
X282609740Y-292896437D03*
X281859740Y-293646311D03*
X281109740Y-294396311D03*
X247859740Y-283396311D03*
X248609740Y-282646311D03*
X435509740Y-266496311D03*
X438309740Y-245196311D03*
X435509740Y-267396311D03*
X439672240Y-245133811D03*
X249147036Y-289100614D03*
X273709740Y-283496311D03*
M02*
