%TF.GenerationSoftware,KiCad,Pcbnew,8.0.4*%
%TF.CreationDate,2024-08-17T19:23:32+09:00*%
%TF.ProjectId,ttaelgam,74746165-6c67-4616-9d2e-6b696361645f,rev?*%
%TF.SameCoordinates,Original*%
%TF.FileFunction,Profile,NP*%
%FSLAX46Y46*%
G04 Gerber Fmt 4.6, Leading zero omitted, Abs format (unit mm)*
G04 Created by KiCad (PCBNEW 8.0.4) date 2024-08-17 19:23:32*
%MOMM*%
%LPD*%
G01*
G04 APERTURE LIST*
%TA.AperFunction,Profile*%
%ADD10C,0.050000*%
%TD*%
G04 APERTURE END LIST*
D10*
X518209740Y-265496311D02*
X518209740Y-266896311D01*
X259609740Y-229496311D02*
G75*
G02*
X256609740Y-229496311I-1500000J0D01*
G01*
X256609740Y-229496311D02*
G75*
G02*
X259609740Y-229496311I1500000J0D01*
G01*
X265437832Y-307329325D02*
G75*
G02*
X251379039Y-307342807I-7064232J36319425D01*
G01*
X135009740Y-175196311D02*
G75*
G02*
X132009740Y-175196311I-1500000J0D01*
G01*
X132009740Y-175196311D02*
G75*
G02*
X135009740Y-175196311I1500000J0D01*
G01*
X126058534Y-146810875D02*
G75*
G02*
X131923193Y-142853234I4908866J-950125D01*
G01*
X518209740Y-141696311D02*
X518209740Y-265496311D01*
X513209740Y-133696311D02*
G75*
G02*
X518209689Y-138696311I-40J-4999989D01*
G01*
X108809740Y-279896311D02*
X105509757Y-279252412D01*
X268442894Y-164756920D02*
G75*
G02*
X244377335Y-164753073I-12022894J61842120D01*
G01*
X448709740Y-255196311D02*
G75*
G02*
X445709740Y-255196311I-1500000J0D01*
G01*
X445709740Y-255196311D02*
G75*
G02*
X448709740Y-255196311I1500000J0D01*
G01*
X159609740Y-165196311D02*
G75*
G02*
X156609740Y-165196311I-1500000J0D01*
G01*
X156609740Y-165196311D02*
G75*
G02*
X159609740Y-165196311I1500000J0D01*
G01*
X441651426Y-273055222D02*
X265437832Y-307329325D01*
X431773007Y-133696311D02*
X513209740Y-133696311D01*
X424711961Y-134376322D02*
X268442894Y-164756920D01*
X424711961Y-134376322D02*
G75*
G02*
X431773007Y-133696313I7061039J-36319978D01*
G01*
X518209740Y-266896311D02*
G75*
G02*
X513209740Y-271896340I-5000040J11D01*
G01*
X505609740Y-226296311D02*
G75*
G02*
X502609740Y-226296311I-1500000J0D01*
G01*
X502609740Y-226296311D02*
G75*
G02*
X505609740Y-226296311I1500000J0D01*
G01*
X101558410Y-273394850D02*
X126058534Y-146810875D01*
X513209740Y-271896311D02*
X511809740Y-271896311D01*
X505309740Y-165496311D02*
G75*
G02*
X502309740Y-165496311I-1500000J0D01*
G01*
X502309740Y-165496311D02*
G75*
G02*
X505309740Y-165496311I1500000J0D01*
G01*
X117009740Y-252796311D02*
G75*
G02*
X114009740Y-252796311I-1500000J0D01*
G01*
X114009740Y-252796311D02*
G75*
G02*
X117009740Y-252796311I1500000J0D01*
G01*
X518209740Y-141696311D02*
X518209740Y-138696311D01*
X252009740Y-183096311D02*
G75*
G02*
X249009740Y-183096311I-1500000J0D01*
G01*
X249009740Y-183096311D02*
G75*
G02*
X252009740Y-183096311I1500000J0D01*
G01*
X260509740Y-287396311D02*
G75*
G02*
X257509740Y-287396311I-1500000J0D01*
G01*
X257509740Y-287396311D02*
G75*
G02*
X260509740Y-287396311I1500000J0D01*
G01*
X105509757Y-279252412D02*
G75*
G02*
X101558450Y-273394858I957543J4907412D01*
G01*
X189209740Y-276396311D02*
G75*
G02*
X186209740Y-276396311I-1500000J0D01*
G01*
X186209740Y-276396311D02*
G75*
G02*
X189209740Y-276396311I1500000J0D01*
G01*
X343309740Y-181196311D02*
G75*
G02*
X340309740Y-181196311I-1500000J0D01*
G01*
X340309740Y-181196311D02*
G75*
G02*
X343309740Y-181196311I1500000J0D01*
G01*
X441651426Y-273055222D02*
G75*
G02*
X453679714Y-271896313I12028274J-61841078D01*
G01*
X427409740Y-147696311D02*
G75*
G02*
X424409740Y-147696311I-1500000J0D01*
G01*
X424409740Y-147696311D02*
G75*
G02*
X427409740Y-147696311I1500000J0D01*
G01*
X244377337Y-164753061D02*
X131923203Y-142853183D01*
X251379039Y-307342807D02*
X108809740Y-279896311D01*
X511809740Y-271896311D02*
X453679714Y-271896311D01*
M02*
